<svg width="1728" height="1079" viewBox="0 0 1728 1079" fill="none" xmlns="http://www.w3.org/2000/svg">
<g clip-path="url(#clip0_60_1353)">
<rect width="1728" height="1079" fill="#004091"/>
<path d="M857.627 1023L812.046 0H900.313L857.627 1023L991.475 0H1079.02L857.627 1023L1175.97 0H1280.88L857.627 1023L1393.74 0H1525.42L857.627 1023L1675.18 0H1728V134.741L857.627 1023L1728 302.952V448.85L857.627 1023L1728 579.299V700.309L857.627 1023L1728 811.878V917.439L857.627 1023L1 922.588V822.176L857.627 1023L1 708.891V589.598L857.627 1023L1 466.014V324.408L857.627 1023L1 159.629V0H32.8341L857.627 1023L184.77 0H317.894L857.627 1023L428.59 0H535.668L857.627 1023L631.17 0H723.779L857.627 1023Z" fill="#014BA0"/>
<path d="M1923 1081C1923.75 1081 1924.43 1080.58 1924.78 1079.92C1925.12 1079.25 1925.06 1078.45 1924.63 1077.84L1785.11 881.918L1785.11 881.914C1784.39 880.919 1783.33 880.088 1782.11 879.379C1780.87 878.659 1779.36 877.993 1777.61 877.378C1774.13 876.148 1769.56 875.061 1764.11 874.157C1753.2 872.348 1739.27 871.36 1724.89 871.362H-1.40523C-15.5567 871.363 -29.2774 872.323 -40.1059 874.083C-45.5169 874.962 -50.0792 876.021 -53.6029 877.218C-57.02 878.38 -59.8152 879.785 -61.2942 881.568L-61.296 881.57L-223.541 1077.73C-224.035 1078.32 -224.14 1079.15 -223.81 1079.85C-223.48 1080.55 -222.775 1081 -222 1081H1923Z" fill="#8CBBF2" stroke="#004091" stroke-width="4" stroke-linejoin="round"/>
<g opacity="0.35">
<path d="M17.6516 873.786C5.28371 873.787 -6.67559 874.739 -16.075 876.469C-25.4744 878.198 -31.697 880.593 -33.6232 883.222L-176.219 1078.42H-221.896L-79.3004 883.222C-77.3743 880.593 -71.1517 878.198 -61.7523 876.469C-52.3528 874.739 -40.3935 873.787 -28.0257 873.786H17.6516Z" fill="#113C6D" fill-opacity="0.3"/>
</g>
<g opacity="0.55">
<path d="M1951 1078.35H1901.17L1778.55 883.39C1776.85 880.71 1770.7 878.254 1761.23 876.476C1751.77 874.698 1739.62 873.719 1727.06 873.721H1776.89C1789.45 873.719 1801.6 874.698 1811.06 876.476C1820.53 878.254 1826.68 880.71 1828.38 883.39L1951 1078.35Z" fill="#113C6D" fill-opacity="0.3"/>
</g>
<g opacity="0.1">
<path d="M1800.83 965.854C1765.97 965.545 1732.63 967.182 1703.5 969.697C1696.23 970.34 1689.2 971.039 1682.31 971.766C1675.51 972.511 1668.91 973.307 1662.5 974.139C1656.09 974.971 1649.84 975.832 1643.76 976.725C1637.67 977.619 1631.77 978.545 1625.94 979.486C1614.14 981.349 1602.82 983.296 1591.34 985.241C1579.71 987.165 1568.18 989.128 1555.73 990.969C1531.13 994.666 1503.37 998.102 1471.29 1000.17C1500.34 997.293 1524.62 993.641 1547.34 989.786C1558.59 987.837 1569.76 985.875 1580.78 983.868C1591.95 981.883 1603.31 979.904 1615.18 977.973C1627.27 976.071 1639.86 974.218 1653.56 972.536C1660.48 971.707 1667.57 970.917 1674.99 970.174C1682.42 969.44 1690.13 968.775 1698.09 968.181C1706.06 967.591 1714.27 967.077 1722.67 966.642C1731.1 966.227 1739.71 965.899 1748.44 965.661C1757.17 965.452 1766 965.352 1774.83 965.361C1783.59 965.396 1792.3 965.561 1800.83 965.854Z" fill="#004091"/>
<path d="M-65.8535 941.837C-55.7404 948.684 -35.5199 955.103 -6.68217 960.622C21.8454 966.06 58.2625 970.526 99.8631 973.427C120.641 974.916 142.629 976.083 164.749 977.323C186.744 978.588 209.085 979.861 230.07 981.64C251.054 983.418 270.446 985.641 285.967 988.41C293.708 989.792 300.176 991.324 305.197 992.965C310.143 994.594 313.157 996.339 314.104 998.124C309.201 994.647 296.71 991.585 280.585 989.136C264.525 986.661 245.156 984.717 224.687 983.166C204.042 981.649 182.165 980.441 159.986 979.292C137.866 978.12 115.414 976.947 93.6253 975.427C49.8477 972.324 12.1384 967.58 -15.862 961.652C-43.6965 955.808 -61.7613 948.898 -65.8535 941.837Z" fill="#004091"/>
<path d="M-97.8555 977.996C-77.5787 977.484 -56.8079 977.269 -35.8675 977.674C-14.9935 978.058 6.05011 979.139 23.5471 981.14C32.3226 982.148 39.7945 983.389 45.5935 984.802C51.3489 986.198 55.3477 987.742 57.3909 989.355C61.6085 992.527 58.3347 995.929 47.1715 998.554C52.391 995.673 52.0638 992.63 46.2276 989.776C40.4838 987.009 29.5417 984.609 14.5885 982.895C-0.364746 981.181 -18.7391 980.063 -37.8878 979.368C-57.0365 978.673 -77.4238 978.397 -97.8555 977.996Z" fill="#004091"/>
<path d="M1567.06 953.425L1546.7 953.263C1539.91 953.263 1533.13 953.241 1526.36 953.263C1519.59 953.31 1512.81 953.316 1506.06 953.39C1499.3 953.464 1492.54 953.526 1485.82 953.652C1458.92 954.106 1432.29 954.852 1406.12 955.886C1353.69 957.892 1303.07 960.823 1253.49 964.092C1203.92 967.381 1154.98 970.93 1105 974.213C1055 977.473 1003.65 980.411 950.221 982.384C923.474 983.35 896.322 984.042 868.952 984.455C855.296 984.695 841.567 984.787 827.86 984.914C814.13 984.955 800.401 985.032 786.679 984.953C759.255 984.863 731.888 984.538 704.71 983.981C677.567 983.439 650.63 982.685 624.008 981.724C517.514 977.914 416.329 971.165 325.165 962.276C348.76 964.306 372.748 966.216 397.129 968.007C421.54 969.784 446.364 971.416 471.6 972.903C521.892 975.909 573.724 978.298 626.589 980.046C679.389 981.728 733.097 982.813 786.945 982.864C800.401 982.908 813.843 982.837 827.285 982.786C840.697 982.655 854.131 982.554 867.469 982.311C894.187 981.889 920.685 981.197 946.785 980.242C999.077 978.36 1049.7 975.471 1099.54 972.3C1149.47 969.149 1198.6 965.638 1249 962.516C1299.31 959.362 1351.06 956.617 1404.46 954.843C1431.14 953.959 1458.22 953.367 1485.48 953.072C1492.27 952.987 1499.12 952.98 1505.92 952.932C1512.74 952.901 1519.56 952.932 1526.37 952.932C1533.17 952.965 1539.97 953.042 1546.76 953.099L1567.06 953.425Z" fill="#004091"/>
<path d="M1508.4 914.97L1482.59 914.102C1478.29 913.961 1474.01 913.803 1469.69 913.677L1456.67 913.345C1447.98 913.123 1439.34 912.872 1430.64 912.681L1404.44 912.2C1395.74 912.011 1386.95 911.941 1378.18 911.847L1365.03 911.708C1360.65 911.663 1356.28 911.597 1351.88 911.604C1334.31 911.556 1316.76 911.453 1299.21 911.589C1228.99 911.79 1159.28 913.581 1092.22 916.584L1067.32 917.831L1054.88 918.461L1042.67 919.18C1034.56 919.667 1026.33 920.117 1018.26 920.619L994.319 922.225C986.26 922.735 978.525 923.346 970.724 923.945C962.923 924.544 955.056 925.109 947.491 925.763C932.405 927.091 917.142 928.356 902.513 929.802C873.101 932.657 844.374 935.723 814.726 938.644C799.927 940.107 784.812 941.521 769.261 942.836C753.723 944.176 737.651 945.371 721.135 946.414C704.516 947.441 687.454 948.339 669.809 948.951C652.201 949.566 634.261 949.943 616.205 950.077C580.13 950.329 544.023 949.7 509.291 948.215C474.729 946.736 441.699 944.546 411.144 941.706C380.589 938.889 352.717 935.464 328.289 931.524C303.78 927.605 283.363 923.144 266.648 918.43C249.993 913.709 236.768 908.734 227.2 903.589C217.696 898.452 211.974 893.18 208.988 887.891L207.934 885.906L207.344 883.914C206.82 882.586 206.85 881.258 206.783 879.938C206.717 878.617 207.211 877.288 207.395 875.964C207.757 874.636 208.487 873.32 209.017 872C206.592 882.567 213.397 893.222 234.146 903.282C244.263 908.31 257.914 913.162 274.869 917.756C291.828 922.334 312.296 926.61 336.57 930.351C385.035 937.811 446.226 943.469 513.066 946.193C546.401 947.554 581.078 948.196 615.475 947.915C632.66 947.779 649.729 947.412 666.477 946.818C683.199 946.231 699.509 945.36 715.465 944.371C731.48 943.369 747.068 942.219 762.139 940.928C777.328 939.652 792.2 938.272 806.873 936.833C836.285 933.968 865.027 930.887 895.029 928.039C955.107 922.31 1020.79 917.929 1089 914.958C1157.44 912.115 1228.2 910.489 1299.1 910.51C1316.79 910.456 1334.49 910.643 1352.19 910.774C1356.61 910.793 1361.03 910.874 1365.41 910.941L1378.61 911.142C1387.41 911.278 1396.22 911.39 1404.94 911.62L1431.13 912.227C1439.83 912.46 1448.45 912.754 1457.1 913.018L1470.05 913.432C1474.34 913.587 1478.59 913.772 1482.86 913.939L1508.41 914.97H1508.4Z" fill="#004091"/>
<path d="M34.3864 874.452C61.0743 888.925 110.586 902.22 178.735 913.214C106.287 902.601 51.9336 889.525 20.2738 875.092C19.9707 874.954 19.8517 874.808 19.9237 874.663C19.9957 874.518 20.2573 874.377 20.6935 874.247C21.1296 874.117 21.7318 874.001 22.4657 873.907C23.1996 873.812 24.0507 873.74 24.9706 873.694C25.8905 873.649 26.8611 873.631 27.8269 873.641C28.7927 873.652 29.7349 873.692 30.5996 873.757C31.4644 873.822 32.2347 873.913 32.8667 874.023C33.4988 874.133 33.9801 874.261 34.2832 874.399C34.3495 874.416 34.3496 874.436 34.3864 874.452Z" fill="#004091"/>
<path d="M1338.7 872.003C1359.93 875.987 1384.49 879.462 1412.08 882.228C1425.84 883.601 1440.4 884.784 1455.58 885.762C1470.65 886.75 1486.36 887.503 1502.45 888.008C1518.53 888.542 1534.91 888.844 1551.37 888.908C1567.86 889.019 1584.41 888.825 1600.84 888.495C1633.69 887.787 1665.88 886.274 1696.51 884.061C1669.02 887.071 1636.65 889.139 1602.82 890.196C1585.84 890.735 1568.53 891.005 1551.17 891.004C1533.75 890.989 1516.38 890.71 1499.33 890.171C1482.3 889.608 1465.71 888.769 1449.88 887.669C1434.18 886.544 1419.1 885.223 1405.41 883.63C1377.92 880.479 1354.85 876.497 1338.7 872.003Z" fill="#004091"/>
<path d="M1785.23 923.664C1756.43 924.487 1726.41 923.844 1699.51 924.79C1692.89 925.016 1686.44 925.342 1680.27 925.763C1674.35 926.174 1668.92 926.728 1664.2 927.404C1655.21 928.684 1649.64 930.613 1650.29 932.402C1650.42 932.84 1650.93 933.273 1651.81 933.691C1652.77 934.098 1654.12 934.482 1655.81 934.832C1659.28 935.544 1664.36 936.122 1670.1 936.619C1675.84 937.116 1682.31 937.529 1688.85 937.92C1695.39 938.31 1702.12 938.633 1708.84 938.941C1735.98 940.118 1764.66 940.569 1793.73 940.334C1765.58 941.485 1735.17 941.54 1706.06 940.617C1698.75 940.393 1691.54 940.102 1684.47 939.745C1677.43 939.381 1670.37 939.005 1663.37 938.455C1656.36 937.905 1649.59 937.165 1644.3 936.131C1641.67 935.606 1639.56 935.026 1638.05 934.409C1636.64 933.795 1635.8 933.154 1635.56 932.504C1635.31 931.245 1636.97 929.994 1640.43 928.846C1643.73 927.71 1648.62 926.693 1654.76 925.864C1667.07 924.247 1682.4 923.406 1697.4 923.097C1712.48 922.744 1727.46 922.896 1741.91 923.097C1756.47 923.33 1770.68 923.602 1785.23 923.664Z" fill="#004091"/>
<path d="M-5.03774 898.771C11.5254 900.179 26.811 901.901 40.4413 903.895C54.1312 905.918 66.1614 908.18 76.2759 910.631C96.3241 915.559 109.456 921.214 110.488 927.128C110.695 930.072 107.421 933.09 99.2513 935.829C91.0448 938.542 78.3773 941.039 61.2637 942.654C27.2429 945.943 -19.6812 945.371 -47.9434 941.521C-16.0683 944.583 26.336 944.316 54.7825 941.226C68.932 939.666 79.852 937.463 86.4364 934.998C93.3084 932.545 96.1545 929.86 95.749 927.162C95.5941 924.463 92.313 921.751 87.1664 919.119C82.2926 916.471 74.8823 913.938 66.3587 911.493C57.5172 909.055 47.0684 906.756 35.1693 904.631C23.2318 902.493 9.62791 900.558 -5.03774 898.771Z" fill="#004091"/>
<path d="M-91.2878 1044.62C-56.4265 1044.31 -23.0915 1045.95 6.04074 1048.47C13.3109 1049.11 20.3451 1049.81 27.2318 1050.53C34.0374 1051.28 40.6365 1052.08 47.044 1052.91C53.4514 1053.74 59.7042 1054.6 65.7872 1055.49C71.8703 1056.39 77.7763 1057.31 83.6012 1058.25C95.3986 1060.12 106.724 1062.06 118.204 1064.01C129.832 1065.93 141.364 1067.9 153.818 1069.74C178.408 1073.43 206.169 1076.87 238.258 1078.94C209.199 1076.06 184.919 1072.41 162.202 1068.55C150.957 1066.61 139.779 1064.64 128.763 1062.64C117.593 1060.65 106.23 1058.67 94.3591 1056.74C82.2741 1054.84 69.6803 1052.99 55.9806 1051.3C49.0644 1050.48 41.9711 1049.69 34.5535 1048.94C27.1274 1048.21 19.413 1047.54 11.4527 1046.95C3.48245 1046.36 -4.72805 1045.85 -13.13 1045.41C-21.5605 1045 -30.1707 1044.67 -38.9 1044.43C-47.6263 1044.22 -56.4528 1044.12 -65.2893 1044.13C-74.0429 1044.16 -82.752 1044.33 -91.2878 1044.62Z" fill="#004091"/>
<path d="M1541.48 1015.81C1531.37 1022.66 1511.14 1029.08 1482.31 1034.59C1453.78 1040.03 1417.36 1044.5 1375.76 1047.4C1354.98 1048.89 1333 1050.06 1310.88 1051.3C1288.88 1052.56 1266.54 1053.83 1245.56 1055.61C1224.57 1057.39 1205.18 1059.61 1189.66 1062.38C1181.92 1063.77 1175.45 1065.3 1170.43 1066.94C1165.48 1068.57 1162.47 1070.31 1161.52 1072.1C1166.42 1068.62 1178.91 1065.56 1195.04 1063.11C1211.1 1060.63 1230.47 1058.69 1250.94 1057.14C1271.58 1055.62 1293.46 1054.41 1315.64 1053.27C1337.76 1052.09 1360.21 1050.92 1382 1049.4C1425.78 1046.3 1463.49 1041.55 1491.49 1035.63C1519.32 1029.78 1537.39 1022.87 1541.48 1015.81Z" fill="#004091"/>
<path d="M1831.4 1056.77C1811.12 1056.26 1790.35 1056.04 1769.41 1056.45C1748.54 1056.83 1727.49 1057.91 1709.99 1059.91C1701.22 1060.92 1693.75 1062.16 1687.95 1063.57C1682.19 1064.97 1678.19 1066.51 1676.15 1068.13C1671.93 1071.3 1675.21 1074.7 1686.37 1077.33C1681.15 1074.44 1681.48 1071.4 1687.31 1068.55C1693.06 1065.78 1704 1063.38 1718.95 1061.67C1733.91 1059.95 1752.28 1058.83 1771.43 1058.14C1790.58 1057.44 1810.97 1057.17 1831.4 1056.77Z" fill="#004091"/>
<path d="M-105.644 1026.76L-83.3998 1026.19C-79.6882 1026.1 -76.0019 1025.99 -72.2776 1025.91L-61.0536 1025.69C-53.5668 1025.55 -46.1181 1025.38 -38.6185 1025.26L-16.0375 1024.94C-8.53792 1024.82 -0.962052 1024.77 6.59468 1024.71L17.933 1024.62C21.7082 1024.59 25.4769 1024.55 29.2712 1024.55C44.4164 1024.52 59.5427 1024.45 74.6689 1024.54C135.193 1024.67 195.284 1025.85 253.088 1027.81L274.551 1028.63L285.266 1029.04L295.791 1029.51C302.782 1029.83 309.875 1030.12 316.834 1030.45L337.47 1031.5C344.417 1031.84 351.084 1032.24 357.808 1032.63C364.532 1033.02 371.314 1033.39 377.834 1033.82C390.838 1034.69 403.994 1035.51 416.603 1036.46C441.955 1038.33 466.717 1040.33 492.272 1042.24C505.028 1043.2 518.057 1044.13 531.461 1044.99C544.854 1045.86 558.707 1046.64 572.943 1047.33C587.268 1048 601.975 1048.59 617.184 1048.99C632.361 1049.39 647.825 1049.64 663.389 1049.72C694.484 1049.89 725.607 1049.48 755.544 1048.5C785.335 1047.54 813.805 1046.1 840.143 1044.25C866.48 1042.4 890.504 1040.16 911.56 1037.59C932.686 1035.02 950.284 1032.1 964.692 1029.02C979.047 1025.93 990.447 1022.68 998.694 1019.31C1006.89 1015.95 1011.82 1012.5 1014.39 1009.04L1015.3 1007.74L1015.81 1006.44C1016.26 1005.57 1016.24 1004.7 1016.29 1003.84C1016.35 1002.97 1015.92 1002.1 1015.77 1001.24C1015.45 1000.37 1014.82 999.507 1014.37 998.643C1016.46 1005.56 1010.59 1012.53 992.707 1019.11C983.987 1022.4 972.22 1025.57 957.606 1028.58C942.988 1031.57 925.345 1034.37 904.422 1036.82C862.648 1041.7 809.903 1045.4 752.29 1047.18C723.557 1048.07 693.667 1048.49 664.018 1048.31C649.205 1048.22 634.492 1047.98 620.057 1047.59C605.642 1047.21 591.584 1046.64 577.83 1045.99C564.026 1045.33 550.59 1044.58 537.6 1043.74C524.507 1042.9 511.688 1042 499.041 1041.06C473.689 1039.18 448.915 1037.17 423.054 1035.31C371.269 1031.56 314.654 1028.69 255.859 1026.75C196.867 1024.89 135.879 1023.82 74.7642 1023.84C59.5109 1023.8 44.2576 1023.92 29.0043 1024.01C25.191 1024.02 21.3777 1024.08 17.6089 1024.12L6.22601 1024.25C-1.35614 1024.34 -8.95098 1024.41 -16.4632 1024.56L-39.0445 1024.96C-46.5377 1025.11 -53.9736 1025.31 -61.4287 1025.48L-72.589 1025.75C-76.2879 1025.85 -79.9487 1025.97 -83.6285 1026.08L-105.651 1026.76H-105.644Z" fill="#004091"/>
<path d="M1752.94 1008.18C1736.38 1009.59 1721.1 1011.31 1707.47 1013.31C1693.78 1015.33 1681.75 1017.59 1671.63 1020.04C1651.58 1024.97 1638.45 1030.62 1637.42 1036.54C1637.21 1039.48 1640.49 1042.5 1648.66 1045.24C1656.86 1047.95 1669.53 1050.45 1686.64 1052.06C1720.66 1055.35 1767.59 1054.78 1795.85 1050.93C1763.98 1053.99 1721.57 1053.73 1693.12 1050.64C1678.98 1049.08 1668.06 1046.87 1661.47 1044.41C1654.6 1041.95 1651.75 1039.27 1652.16 1036.57C1652.31 1033.87 1655.59 1031.16 1660.74 1028.53C1665.61 1025.88 1673.02 1023.35 1681.55 1020.9C1690.39 1018.47 1700.84 1016.17 1712.74 1014.04C1724.68 1011.9 1738.28 1009.97 1752.94 1008.18Z" fill="#004091"/>
</g>
</g>
<defs>
<clipPath id="clip0_60_1353">
<rect width="1728" height="1079" fill="white"/>
</clipPath>
</defs>
</svg>
