<svg xmlns="http://www.w3.org/2000/svg" width="1728" height="1079" fill="none"><g clip-path="url(#a)"><path fill="#004091" d="M0 0h1728v1079H0z"/><path fill="#014BA0" d="M857.63 1023 812.05 0h88.26l-42.68 1023L991.48 0h87.54l-221.4 1023L1175.98 0h104.91L857.63 1023 1393.74 0h131.68l-667.8 1023L1675.19 0H1728v134.74L857.63 1023 1728 302.95v145.9L857.63 1023 1728 579.3v121L857.63 1023 1728 811.88v105.56L857.63 1023 1 922.59V822.18L857.63 1023 1 708.9V589.6L857.63 1023 1 466.01v-141.6L857.63 1023 1 159.63V0h31.83l824.8 1023L184.77 0h133.12l539.74 1023L428.59 0h107.08l321.96 1023L631.17 0h92.6l133.86 1023Z"/><path fill="#8CBBF2" stroke="#004091" stroke-linejoin="round" stroke-width="4" d="M1923 1081c.75 0 1.43-.42 1.78-1.08.34-.67.28-1.47-.15-2.08l-139.52-195.92a9.59 9.59 0 0 0-3-2.54 26.61 26.61 0 0 0-4.5-2 82.25 82.25 0 0 0-13.5-3.22c-10.91-1.81-24.84-2.8-39.22-2.8H-1.41c-14.15 0-27.87.96-38.7 2.72a86.21 86.21 0 0 0-13.5 3.14c-3.41 1.16-6.2 2.56-7.68 4.35l-162.25 196.16A2 2 0 0 0-222 1081h2145Z"/><path fill="#113C6D" fill-opacity=".3" d="M17.65 873.79c-12.37 0-24.33.95-33.72 2.68-9.4 1.73-15.63 4.12-17.55 6.75l-142.6 195.2h-45.68l142.6-195.2c1.93-2.63 8.15-5.02 17.55-6.75 9.4-1.73 21.36-2.68 33.72-2.68h45.68Z" opacity=".35"/><path fill="#113C6D" fill-opacity=".3" d="M1951 1078.35h-49.83l-122.62-194.96c-1.7-2.68-7.85-5.14-17.32-6.91-9.46-1.78-21.61-2.76-34.17-2.76h49.83c12.56 0 24.71.98 34.17 2.76 9.47 1.77 15.62 4.23 17.32 6.91L1951 1078.35Z" opacity=".55"/><g fill="#004091" opacity=".1"><path d="M1800.83 965.85a1036.29 1036.29 0 0 0-118.52 5.92 1130.16 1130.16 0 0 0-56.37 7.72c-11.8 1.86-23.12 3.8-34.6 5.75-11.63 1.92-23.16 3.89-35.61 5.73a986.2 986.2 0 0 1-84.44 9.2c29.05-2.88 53.33-6.53 76.05-10.38 11.25-1.95 22.42-3.91 33.44-5.92 11.17-1.99 22.53-3.97 34.4-5.9 12.09-1.9 24.68-3.75 38.38-5.43a968.17 968.17 0 0 1 44.53-4.35c7.97-.6 16.18-1.11 24.58-1.55 8.43-.41 17.04-.74 25.77-.98a859.34 859.34 0 0 1 52.39.2ZM-65.85 941.84c10.11 6.84 30.33 13.26 59.17 18.78 28.53 5.44 64.94 9.9 106.54 12.8 20.78 1.5 42.77 2.66 64.89 3.9 22 1.27 44.34 2.54 65.32 4.32 20.98 1.78 40.38 4 55.9 6.77 7.74 1.38 14.2 2.91 19.23 4.56 4.94 1.62 7.96 3.37 8.9 5.15-4.9-3.47-17.39-6.53-33.52-8.98-16.06-2.48-35.42-4.42-55.9-5.97a3049.98 3049.98 0 0 0-64.7-3.88c-22.11-1.17-44.57-2.34-66.35-3.86-43.78-3.1-81.5-7.85-109.5-13.78-27.83-5.84-45.9-12.75-49.98-19.81ZM-97.86 978c20.28-.52 41.05-.73 62-.33 20.87.39 41.91 1.47 59.4 3.47 8.78 1 16.25 2.25 22.05 3.66 5.76 1.4 9.76 2.94 11.8 4.56 4.22 3.17.94 6.57-10.22 9.2 5.22-2.89 4.9-5.93-.94-8.78-5.75-2.77-16.69-5.17-31.64-6.88-14.95-1.72-33.33-2.84-52.48-3.53-19.15-.7-39.53-.97-59.97-1.37ZM1567.06 953.42l-20.36-.16c-6.79 0-13.57-.02-20.34 0-6.77.05-13.55.06-20.3.13a3530.33 3530.33 0 0 0-99.94 2.5c-52.43 2-103.05 4.93-152.63 8.2-49.57 3.3-98.51 6.84-148.49 10.12-50 3.26-101.35 6.2-154.78 8.17-26.75.97-53.9 1.66-81.27 2.08-13.65.24-27.38.33-41.09.45-13.73.05-27.46.12-41.18.04A5012.96 5012.96 0 0 1 624 981.72c-106.5-3.8-207.68-10.56-298.84-19.44A5404.8 5404.8 0 0 0 471.6 972.9c50.28 3 102.11 5.39 154.98 7.14a5199.2 5199.2 0 0 0 160.36 2.81c13.45.05 26.9-.02 40.33-.07 13.42-.13 26.85-.24 40.19-.48 26.72-.42 53.21-1.11 79.31-2.07 52.3-1.88 102.92-4.77 152.76-7.94 49.93-3.15 99.06-6.66 149.46-9.78 50.31-3.16 102.06-5.9 155.46-7.68 26.68-.88 53.76-1.47 81.02-1.77 6.79-.08 13.64-.09 20.44-.14 6.82-.03 13.64 0 20.45 0 6.8.04 13.6.11 20.39.17l20.3.32ZM1508.4 914.97l-25.81-.87c-4.3-.14-8.58-.3-12.9-.42l-13.02-.33c-8.69-.23-17.33-.48-26.03-.67l-26.2-.48c-8.7-.19-17.49-.26-26.26-.35l-13.15-.14c-4.38-.05-8.75-.11-13.15-.1-17.57-.05-35.12-.16-52.67-.02-70.22.2-139.93 2-206.99 5l-24.9 1.24-12.44.63-12.21.72c-8.11.49-16.34.94-24.41 1.44l-23.94 1.6c-8.06.51-15.8 1.13-23.6 1.73-7.8.6-15.66 1.16-23.23 1.81-15.09 1.33-30.35 2.6-44.98 4.04-29.4 2.86-58.14 5.92-87.78 8.84-14.8 1.47-29.92 2.88-45.47 4.2a2105.16 2105.16 0 0 1-48.13 3.57 1892.13 1892.13 0 0 1-51.32 2.54c-17.6.62-35.55 1-53.6 1.13-36.08.25-72.19-.38-106.92-1.87-34.56-1.47-67.6-3.66-98.15-6.5-30.55-2.82-58.42-6.25-82.85-10.19-24.51-3.91-44.93-8.38-61.64-13.09-16.66-4.72-29.88-9.7-39.45-14.84-9.5-5.14-15.23-10.41-18.21-15.7l-1.06-1.98-.59-2c-.52-1.32-.49-2.65-.56-3.97-.06-1.32.43-2.65.62-3.98.36-1.32 1.09-2.64 1.62-3.96-2.43 10.57 4.38 21.22 25.13 31.28 10.11 5.03 23.76 9.88 40.72 14.48 16.96 4.57 37.43 8.85 61.7 12.6 48.47 7.45 109.66 13.1 176.5 15.83 33.33 1.36 68 2 102.4 1.72 17.19-.13 34.26-.5 51-1.1a2040.94 2040.94 0 0 0 95.66-5.89c15.2-1.27 30.07-2.65 44.74-4.09 29.41-2.86 58.16-5.94 88.16-8.8 60.08-5.72 125.76-10.1 193.97-13.07 68.44-2.85 139.2-4.47 210.1-4.45 17.69-.05 35.39.13 53.09.26 4.42.02 8.84.1 13.22.17l13.2.2c8.8.14 17.61.25 26.33.48l26.19.6c8.7.24 17.32.53 25.97.8l12.95.41 12.81.5 25.55 1.04h-.01ZM34.39 874.45c26.68 14.47 76.2 27.77 144.34 38.76-72.44-10.6-126.8-23.69-158.46-38.12-.3-.14-.42-.28-.35-.43.08-.14.34-.28.77-.41.44-.13 1.04-.25 1.78-.34.73-.1 1.58-.17 2.5-.22a48.72 48.72 0 0 1 5.63.07c.86.06 1.63.15 2.27.26.63.11 1.11.24 1.41.38.07.02.07.04.1.05ZM1338.7 872c21.23 3.99 45.79 7.46 73.38 10.23a1381.25 1381.25 0 0 0 90.37 5.78 1847.97 1847.97 0 0 0 98.39.49c32.85-.71 65.04-2.23 95.67-4.44-27.49 3.01-59.86 5.08-93.69 6.14a1629.46 1629.46 0 0 1-103.49-.03c-17.03-.56-33.62-1.4-49.45-2.5-15.7-1.13-30.78-2.45-44.47-4.04-27.49-3.15-50.56-7.13-66.71-11.63ZM1785.23 923.66c-28.8.83-58.82.18-85.72 1.13-6.62.23-13.07.55-19.24.97-5.92.41-11.35.97-16.07 1.64-8.99 1.28-14.56 3.21-13.91 5 .13.44.64.87 1.52 1.3.96.4 2.31.78 4 1.13 3.47.71 8.55 1.3 14.29 1.79 5.74.5 12.21.9 18.75 1.3 6.54.39 13.27.71 19.99 1.02 27.14 1.18 55.82 1.63 84.89 1.4a1233.78 1233.78 0 0 1-109.26-.6c-7.04-.36-14.1-.74-21.1-1.28-7.01-.56-13.78-1.3-19.07-2.33a35.8 35.8 0 0 1-6.25-1.72c-1.41-.62-2.25-1.26-2.49-1.9-.25-1.26 1.41-2.52 4.87-3.66 3.3-1.14 8.19-2.16 14.33-2.99 12.31-1.61 27.64-2.45 42.64-2.76a1192 1192 0 0 1 44.51 0c14.56.23 28.77.5 43.32.56ZM-5.04 898.77a765.19 765.19 0 0 1 45.48 5.13 408.06 408.06 0 0 1 35.84 6.73c20.04 4.93 33.18 10.58 34.2 16.5.21 2.94-3.06 5.96-11.23 8.7-8.2 2.71-20.87 5.2-37.99 6.82-34.02 3.3-80.94 2.72-109.2-1.13 31.87 3.06 74.28 2.8 102.72-.3 14.15-1.55 25.07-3.76 31.66-6.22 6.87-2.46 9.71-5.14 9.3-7.84-.15-2.7-3.43-5.4-8.57-8.04-4.88-2.65-12.29-5.18-20.81-7.63a351.66 351.66 0 0 0-31.2-6.86 741.24 741.24 0 0 0-40.2-5.86ZM-91.29 1044.62a1034.1 1034.1 0 0 1 118.52 5.91 1150.75 1150.75 0 0 1 56.37 7.72c11.8 1.87 23.12 3.81 34.6 5.76 11.63 1.92 23.16 3.89 35.62 5.73a989.02 989.02 0 0 0 84.44 9.2 1070.14 1070.14 0 0 1-76.06-10.39 3884.76 3884.76 0 0 1-33.44-5.91 2286.32 2286.32 0 0 0-34.4-5.9 1151.6 1151.6 0 0 0-38.38-5.44 966.69 966.69 0 0 0-44.53-4.35c-7.97-.59-16.18-1.1-24.58-1.54-8.43-.41-17.04-.74-25.77-.98a853.57 853.57 0 0 0-52.39.19ZM1541.48 1015.81c-10.11 6.85-30.34 13.27-59.17 18.78-28.53 5.44-64.95 9.91-106.55 12.81-20.78 1.49-42.76 2.66-64.88 3.9-22 1.26-44.34 2.53-65.32 4.31-20.99 1.78-40.38 4-55.9 6.77-7.74 1.39-14.21 2.92-19.23 4.56-4.95 1.63-7.96 3.37-8.91 5.16 4.9-3.48 17.39-6.54 33.52-8.99 16.06-2.48 35.43-4.42 55.9-5.97 20.64-1.52 42.52-2.73 64.7-3.87 22.12-1.18 44.57-2.35 66.36-3.87 43.78-3.1 81.49-7.85 109.49-13.77 27.83-5.85 45.9-12.76 49.99-19.82ZM1831.4 1056.77a1387.3 1387.3 0 0 0-61.99-.32c-20.87.38-41.92 1.46-59.42 3.46a187.25 187.25 0 0 0-22.04 3.66c-5.76 1.4-9.76 2.94-11.8 4.56-4.22 3.17-.94 6.57 10.22 9.2-5.22-2.89-4.89-5.93.94-8.78 5.75-2.77 16.69-5.17 31.64-6.88 14.96-1.72 33.33-2.84 52.48-3.53 19.15-.7 39.54-.97 59.97-1.37ZM-105.64 1026.76l22.24-.57c3.71-.09 7.4-.2 11.12-.28l11.23-.22c7.48-.14 14.93-.31 22.43-.43l22.58-.32c7.5-.12 15.08-.17 22.63-.23l11.34-.09c3.78-.03 7.55-.07 11.34-.07 15.15-.03 30.27-.1 45.4-.01 60.52.13 120.61 1.31 178.42 3.27l21.46.82 10.72.41 10.52.47c7 .32 14.08.61 21.04.94l20.64 1.05c6.95.34 13.61.74 20.34 1.13 6.72.39 13.5.76 20.02 1.19 13 .87 26.16 1.69 38.77 2.64 25.35 1.87 50.12 3.87 75.67 5.78 12.76.96 25.79 1.89 39.2 2.75 13.38.87 27.24 1.65 41.47 2.34 14.33.67 29.03 1.26 44.24 1.66 15.18.4 30.65.65 46.2.73 31.1.17 62.23-.24 92.16-1.22 29.8-.96 58.26-2.4 84.6-4.25 26.34-1.85 50.36-4.09 71.42-6.66 21.13-2.57 38.72-5.49 53.13-8.57 14.36-3.09 25.76-6.34 34-9.71 8.2-3.36 13.13-6.81 15.7-10.27l.91-1.3.51-1.3c.45-.87.43-1.74.48-2.6.06-.87-.37-1.74-.52-2.6-.32-.87-.95-1.73-1.4-2.6 2.09 6.92-3.78 13.89-21.66 20.47-8.72 3.29-20.49 6.46-35.1 9.47-14.62 2.99-32.26 5.79-53.19 8.24-41.77 4.88-94.52 8.58-152.13 10.36-28.73.89-58.62 1.31-88.27 1.13a2018.64 2018.64 0 0 1-86.19-2.32c-13.8-.66-27.24-1.41-40.23-2.25-13.1-.84-25.91-1.74-38.56-2.68-25.35-1.88-50.13-3.89-75.99-5.75a4309.4 4309.4 0 0 0-167.2-8.56 5713.3 5713.3 0 0 0-181.09-2.91c-15.25-.04-30.5.08-45.76.17-3.8.01-7.62.07-11.4.11l-11.37.13c-7.59.09-15.18.16-22.7.31l-22.57.4c-7.5.15-14.93.35-22.39.52l-11.16.27c-3.7.1-7.36.22-11.04.33l-22.02.68ZM1752.94 1008.18a761.5 761.5 0 0 0-45.47 5.13 408.04 408.04 0 0 0-35.84 6.73c-20.05 4.93-33.18 10.58-34.21 16.5-.21 2.94 3.07 5.96 11.24 8.7 8.2 2.71 20.87 5.21 37.98 6.82 34.02 3.29 80.95 2.72 109.21-1.13-31.87 3.06-74.28 2.8-102.73-.29-14.14-1.56-25.06-3.77-31.65-6.23-6.87-2.46-9.72-5.14-9.31-7.84.15-2.7 3.43-5.41 8.58-8.04 4.87-2.65 12.28-5.18 20.81-7.63a356.23 356.23 0 0 1 31.19-6.86 743.1 743.1 0 0 1 40.2-5.86Z"/></g></g><defs><clipPath id="a"><path fill="#fff" d="M0 0h1728v1079H0z"/></clipPath></defs></svg>