<svg xmlns="http://www.w3.org/2000/svg" width="393" height="145" fill="none"><g clip-path="url(#a)"><path fill="#FCC812" d="M137.24 112.92C58.3 104.12 41.84 4.5 41.84 4.5s73.74-18.04 121.68-16.66c41.42 1.18 104.56 18.04 104.56 18.04s-2.85 121.3-130.84 107.04Z"/><path fill="#00387D" d="M41 2.3a6.13 6.13 0 0 1 5 1.02 6.3 6.3 0 0 1 2.58 4.48 107 107 0 0 0 2.15 12.9c12.93 56.2 75.5 98.07 130.97 85.3 44.62-10.27 77.4-49.73 79.72-95.95a6.34 6.34 0 0 1 2.04-4.33 6.15 6.15 0 0 1 8.76.5 6.36 6.36 0 0 1 1.6 4.54c-2.6 51.78-39.32 95.97-89.3 107.48-62.14 14.3-131.4-31.83-145.88-94.78-1.1-4.76-1.9-9.58-2.4-14.43a6.3 6.3 0 0 1 1.11-4.28A6.15 6.15 0 0 1 41 2.3Z"/><path fill="#00387D" d="M77.21-1.5a6.07 6.07 0 0 1 5.37 1.42 6.67 6.67 0 0 1 2.18 4.38c.31 3.44.85 6.86 1.63 10.22 8.87 38.57 45.96 63.07 82.66 54.63a65.93 65.93 0 0 0 37.9-24.56A71.95 71.95 0 0 0 221.43.34a6.58 6.58 0 0 1 1.77-4.5 5.94 5.94 0 0 1 4.32-1.82c.81.01 1.6.2 2.36.52a6.32 6.32 0 0 1 3.34 3.53c.31.78.47 1.61.48 2.46.27 39.34-25.13 72.71-61.77 81.15-43.28 9.96-87-18.94-97.47-64.4-.91-3.98-1.55-8-1.92-12.06a6.52 6.52 0 0 1 1.13-4.3A5.95 5.95 0 0 1 77.2-1.5Z"/><path fill="#00387D" d="M108.38-4.91a6.1 6.1 0 0 1 5.5 1.54 6.68 6.68 0 0 1 2.07 4.43c.14 2.17.46 4.33.95 6.45a39.98 39.98 0 0 0 15.2 23.3 36.38 36.38 0 0 0 26.02 6.9 35.7 35.7 0 0 0 23.33-13.07 39.14 39.14 0 0 0 8.53-26.26 6.63 6.63 0 0 1 1.6-4.58 5.96 5.96 0 0 1 4.25-1.99 6.26 6.26 0 0 1 4.41 1.77 6.6 6.6 0 0 1 2 4.5 52.1 52.1 0 0 1-11.34 34.96 47.5 47.5 0 0 1-31.05 17.4 48.41 48.41 0 0 1-34.63-9.18 53.21 53.21 0 0 1-20.25-31 53.6 53.6 0 0 1-1.26-8.63c-.1-1.5.32-2.99 1.18-4.19a5.94 5.94 0 0 1 3.49-2.35Z"/><path fill="#FCC812" d="M272.83 75.33c-60.92-6.8-73.6-83.65-73.6-83.65s56.89-13.92 93.88-12.86c31.96.91 80.68 13.92 80.68 13.92s-2.2 93.6-100.96 82.59Z"/><path fill="#00387D" d="M198.57-10.02a4.73 4.73 0 0 1 3.87.79 4.85 4.85 0 0 1 1.98 3.45c.35 3.35.9 6.67 1.66 9.95 9.98 43.36 58.25 75.67 101.05 65.82 34.43-7.92 59.73-38.37 61.52-74.03a4.87 4.87 0 0 1 1.57-3.34 4.75 4.75 0 0 1 7.72 2.01c.21.6.3 1.24.27 1.87-2 39.96-30.34 74.06-68.9 82.93C261.37 90.46 207.93 54.88 196.75 6.3a92.04 92.04 0 0 1-1.85-11.13 4.87 4.87 0 0 1 .86-3.3 4.75 4.75 0 0 1 2.81-1.9Z"/><path fill="#00387D" d="M226.52-12.95a4.68 4.68 0 0 1 4.14 1.1 5.15 5.15 0 0 1 1.68 3.37c.24 2.66.66 5.3 1.26 7.89 6.84 29.75 35.46 48.66 63.78 42.14a50.87 50.87 0 0 0 29.24-18.95 55.51 55.51 0 0 0 11.17-34.14 5.09 5.09 0 0 1 1.36-3.47 4.6 4.6 0 0 1 3.34-1.4 4.61 4.61 0 0 1 3.35 1.5 5.13 5.13 0 0 1 1.41 3.52c.2 30.36-19.4 56.1-47.66 62.61-33.4 7.69-67.13-14.6-75.2-49.7a68.7 68.7 0 0 1-1.48-9.3c-.1-1.18.2-2.36.86-3.3a4.59 4.59 0 0 1 2.75-1.87Z"/><path fill="#00387D" d="M250.56-15.59a4.7 4.7 0 0 1 4.24 1.18 5.16 5.16 0 0 1 1.6 3.43c.11 1.68.36 3.34.74 4.98a30.85 30.85 0 0 0 11.73 17.97 28.07 28.07 0 0 0 20.07 5.33 27.55 27.55 0 0 0 18-10.08 30.2 30.2 0 0 0 6.59-20.27 5.1 5.1 0 0 1 1.23-3.53 4.6 4.6 0 0 1 3.28-1.53 4.6 4.6 0 0 1 3.4 1.36 5.08 5.08 0 0 1 1.54 3.46 40.2 40.2 0 0 1-8.75 26.98 36.66 36.66 0 0 1-23.95 13.43 37.35 37.35 0 0 1-26.72-7.08A41.06 41.06 0 0 1 247.94-3.9c-.5-2.19-.83-4.4-.98-6.65-.07-1.16.25-2.3.9-3.23a4.58 4.58 0 0 1 2.7-1.82Z"/><path fill="#FCC812" d="M65.33 67.8C15.31 62.23 4.88-.89 4.88-.89s46.72-11.43 77.1-10.56c26.24.75 66.25 11.43 66.25 11.43s-1.8 76.86-82.9 67.82Z"/><path fill="#00387D" d="M4.35-2.28a3.89 3.89 0 0 1 3.17.64A4 4 0 0 1 9.15 1.2a67.8 67.8 0 0 0 1.36 8.17c8.2 35.6 47.84 62.14 82.99 54.05 28.27-6.5 49.04-31.5 50.51-60.8a3.99 3.99 0 0 1 2.6-3.52 3.88 3.88 0 0 1 4.24 1.1 4.02 4.02 0 0 1 1.02 2.88c-1.65 32.8-24.92 60.8-56.59 68.1C55.92 80.22 12.04 51 2.86 11.11a75.6 75.6 0 0 1-1.53-9.14 4 4 0 0 1 .71-2.71 3.9 3.9 0 0 1 2.3-1.55Z"/><path fill="#00387D" d="m27.3-4.7.56-.08a3.85 3.85 0 0 1 2.84.99c.79.7 1.29 1.7 1.38 2.78.2 2.17.54 4.34 1.03 6.47 5.62 24.43 29.12 39.96 52.38 34.6a41.77 41.77 0 0 0 24.01-15.55 45.6 45.6 0 0 0 9.17-28.04 4.19 4.19 0 0 1 1.12-2.85 3.77 3.77 0 0 1 2.74-1.15 3.78 3.78 0 0 1 2.75 1.23 4.2 4.2 0 0 1 1.16 2.9c.17 24.92-15.92 46.07-39.14 51.4-27.42 6.32-55.12-11.99-61.75-40.8a56.34 56.34 0 0 1-1.22-7.64c-.08-.97.17-1.94.71-2.72a3.77 3.77 0 0 1 2.26-1.53Z"/><path fill="#00387D" d="M47.04-6.86a3.86 3.86 0 0 1 3.48.97 4.24 4.24 0 0 1 1.32 2.82 25.33 25.33 0 0 0 10.23 18.84 23.05 23.05 0 0 0 16.49 4.38 22.62 22.62 0 0 0 14.78-8.28 24.8 24.8 0 0 0 5.4-16.64 4.2 4.2 0 0 1 1.02-2.9 3.78 3.78 0 0 1 2.7-1.26 3.77 3.77 0 0 1 2.79 1.12 4.2 4.2 0 0 1 1.26 2.85 33 33 0 0 1-7.18 22.15 30.1 30.1 0 0 1-19.67 11.03A30.67 30.67 0 0 1 57.7 22.4 33.72 33.72 0 0 1 44.9 2.75c-.42-1.8-.69-3.62-.8-5.46-.06-.95.2-1.9.74-2.65a3.77 3.77 0 0 1 2.21-1.5Z"/></g><defs><clipPath id="a"><path fill="#fff" d="M0 0h393v145H0z"/></clipPath></defs></svg>