<svg width="392" height="360" viewBox="0 0 392 360" fill="none" xmlns="http://www.w3.org/2000/svg">
<path d="M291.197 318.756C298.015 330.234 338.193 342.709 367.5 311.004C372.94 305.136 377.532 298.536 381.144 291.396C393.079 267.742 391.276 243.003 378.391 234.513C375.362 232.515 371.725 231.415 367.506 231.437C346.559 231.552 346.884 251.131 342.476 271.484V271.491C340.58 280.2 337.823 289.051 332.151 296.579C327.128 303.237 320.961 305.835 315.293 306.523C306.345 307.616 298.646 303.933 298.646 303.933L291.197 318.756Z" fill="white"/>
<path d="M323.253 334.013C335.414 334.013 353.496 330.418 369.624 312.969C375.25 306.903 379.998 300.08 383.729 292.697C393.452 273.424 394.726 251.979 386.896 239.339C382.58 232.372 375.745 228.54 367.623 228.54H367.485C347.406 228.657 344.507 244.635 341.441 261.559C340.89 264.6 340.319 267.743 339.64 270.876C339.64 270.906 339.628 270.935 339.622 270.965C338.06 278.124 335.532 287.276 329.829 294.84C318.495 309.873 300.633 301.676 299.879 301.321C299.195 300.998 298.412 300.955 297.697 301.201C296.981 301.447 296.39 301.962 296.049 302.637L288.616 317.461C288.397 317.895 288.292 318.377 288.309 318.863C288.327 319.348 288.466 319.821 288.715 320.239C292.622 326.818 304.217 332.353 316.911 333.686C319.018 333.906 321.135 334.015 323.253 334.013ZM367.627 234.332C373.749 234.332 378.709 237.115 381.974 242.388C388.78 253.376 387.408 272.548 378.557 290.092C375.069 296.992 370.63 303.37 365.372 309.039C347.832 328.013 327.858 329.013 317.512 327.923C306.528 326.765 297.948 322.424 294.569 318.491L300.051 307.568C306.477 309.717 323.136 313.332 334.453 298.322C340.856 289.829 343.613 279.851 345.299 272.108C345.306 272.075 345.313 272.043 345.319 272.01C346.007 268.812 346.583 265.647 347.137 262.588C350.4 244.596 352.955 234.412 367.511 234.332H367.627Z" fill="#004091"/>
<path d="M31.6656 331.248C37.2616 336.309 43.7028 340.13 50.6369 341.946C85.2989 351.023 131.832 334.267 133.923 333.572L72.3642 307.053C72.3642 307.053 62.0394 249.814 27.8358 261.684C26.9671 261.989 26.1343 262.315 25.3386 262.684C1.04941 273.686 10.003 311.677 31.6656 331.248Z" fill="white"/>
<path d="M73.8702 347.545C99.7508 347.545 125.564 339.514 134.524 336.425L134.84 336.316C135.398 336.132 135.886 335.783 136.24 335.314C136.595 334.845 136.798 334.28 136.822 333.693C136.847 333.106 136.693 332.525 136.379 332.029C136.066 331.532 135.609 331.142 135.068 330.912L74.9096 304.991C73.4476 298.085 66.676 270.592 49.7986 260.723C42.8727 256.673 35.1637 256.076 26.8888 258.947C14.2734 263.323 7.36957 274.336 7.94775 289.161C8.79712 310.924 25.859 338.453 49.9046 344.747C57.5476 346.748 65.7137 347.545 73.8702 347.545ZM125.691 333.176C110.42 337.756 77.1452 345.892 51.3679 339.145C30.1252 333.585 14.484 308.222 13.7323 288.936C13.457 281.825 15.0415 269.185 28.7844 264.417C35.4775 262.096 41.3915 262.52 46.865 265.717C63.5221 275.447 69.4581 307.245 69.516 307.567C69.6007 308.037 69.8008 308.479 70.0982 308.853C70.3956 309.227 70.7811 309.522 71.2202 309.71L125.691 333.176Z" fill="#004091"/>
<path d="M35.278 265.405C56.8621 355.656 164.063 344.725 182.585 342.134C184.351 341.888 185.314 341.722 185.314 341.722C195.714 358.267 236.312 363.964 270.034 344.661C270.045 344.653 270.057 344.645 270.07 344.639C291.328 332.464 309.842 310.339 316.324 274.72C316.651 272.925 316.941 271.144 317.193 269.378C326.335 205.931 290.387 158.63 268.948 136.657C260.275 127.776 253.973 123.028 253.973 123.028C193.05 96.4866 108.476 119.206 63.4768 167.621C63.028 168.107 62.5861 168.585 62.1456 169.076C38.5777 195.147 26.44 228.44 35.278 265.405Z" fill="white"/>
<path d="M224.717 359.721C240.788 359.721 257.18 355.347 271.471 347.166L271.523 347.136C289.131 337.046 311.684 316.383 319.168 275.232C323.066 253.787 322.148 232.306 316.436 211.381C311.881 194.677 304.272 178.301 293.832 162.717C276.088 136.202 256.54 121.333 255.714 120.714C255.533 120.577 255.337 120.463 255.129 120.372C228.432 108.741 195.312 105.86 161.874 112.263C129.607 118.439 98.8244 132.745 75.185 152.544C57.5435 167.323 44.7505 184.231 37.1625 202.8C28.8615 223.111 27.2811 244.402 32.4627 266.077C37.5673 287.424 47.808 304.898 62.8972 318.016C75.2386 328.744 90.8689 336.607 109.356 341.387C141.76 349.765 173.906 346.271 182.987 345C183.349 344.949 183.675 344.903 183.976 344.863C190.17 353.003 202.959 358.434 218.73 359.52C220.718 359.655 222.713 359.722 224.717 359.721ZM268.577 342.151C253.491 350.781 235.929 354.897 219.126 353.739C204.396 352.725 192.385 347.527 187.764 340.174C187.457 339.685 187.011 339.298 186.483 339.065C185.954 338.832 185.368 338.762 184.8 338.865C184.791 338.865 183.859 339.034 182.185 339.267C161.78 342.119 58.949 351.943 38.0931 264.731C28.644 225.208 43.1371 186.943 78.9018 156.984C127.526 116.253 200.458 103.058 252.494 125.54C254.866 127.392 273.006 141.959 289.135 166.093C304.911 189.709 321.941 227.628 313.476 274.195C306.382 313.17 285.174 332.645 268.63 342.119L268.577 342.151Z" fill="#004091"/>
<path d="M187.65 340.005L187.359 339.576C187.253 339.424 187.149 339.253 187.044 339.088C186.832 338.759 186.631 338.417 186.427 338.069C186.014 337.381 185.647 336.662 185.267 335.95C183.066 331.611 181.546 326.958 180.761 322.157C180.237 318.971 180.19 315.743 180.431 312.555L180.692 310.169C180.822 309.38 181.005 308.6 181.155 307.814L181.39 306.637L181.732 305.535C181.972 304.807 182.145 304.048 182.487 303.363C183.63 300.502 185.334 297.899 187.5 295.708C189.691 293.5 192.251 291.69 195.063 290.359C200.695 287.668 207.262 286.82 213.351 288.091C213.901 288.205 214.471 288.158 214.995 287.956C215.518 287.755 215.973 287.406 216.303 286.952L216.323 286.922C216.611 286.509 217.024 285.977 217.4 285.508C217.776 285.039 218.189 284.544 218.593 284.068C219.406 283.114 220.266 282.196 221.143 281.293C222.91 279.505 224.791 277.835 226.775 276.292C230.745 273.242 235.172 270.785 239.92 269.425C242.296 268.737 244.745 268.333 247.216 268.22C249.704 268.163 252.191 268.368 254.636 268.832L256.467 269.272L257.387 269.491L258.289 269.781L260.102 270.358L261.877 271.058C263.09 271.471 264.201 272.134 265.389 272.648C266.552 273.212 267.659 273.887 268.831 274.484L268.901 274.52C269.091 274.616 269.31 274.638 269.515 274.582C269.72 274.526 269.897 274.395 270.012 274.216C270.127 274.037 270.171 273.821 270.136 273.611C270.101 273.401 269.989 273.212 269.822 273.08C268.766 272.246 267.71 271.395 266.599 270.616C266.035 270.236 265.461 269.872 264.885 269.506C264.596 269.326 264.314 269.133 264.018 268.956L263.115 268.47L261.301 267.495C260.677 267.204 260.037 266.944 259.404 266.669L258.448 266.264L257.465 265.928C256.806 265.712 256.146 265.492 255.48 265.291C250.027 263.792 244.284 263.692 238.782 265C233.253 266.217 228.153 268.811 223.615 272.006C221.346 273.606 219.202 275.377 217.203 277.305C216.209 278.268 215.235 279.258 214.303 280.291C213.837 280.808 213.377 281.333 212.926 281.875C212.474 282.418 212.06 282.935 211.577 283.597L214.55 282.429C207.134 280.888 199.344 281.905 192.556 285.136C189.131 286.761 186.016 288.97 183.35 291.664C180.662 294.391 178.544 297.625 177.119 301.178C176.697 302.041 176.471 302.968 176.177 303.876C176.039 304.332 175.891 304.788 175.764 305.243L175.489 306.598C175.311 307.501 175.107 308.401 174.96 309.31L174.654 312.063C174.379 315.731 174.44 319.436 175.033 323.054C175.912 328.465 177.623 333.708 180.104 338.596C180.534 339.404 180.95 340.214 181.426 341.005C181.654 341.403 181.893 341.801 182.147 342.196C182.273 342.394 182.392 342.59 182.531 342.792C182.67 342.995 182.789 343.183 182.969 343.431C183.409 344.06 184.08 344.489 184.835 344.623C185.591 344.757 186.369 344.586 186.998 344.146C187.627 343.707 188.056 343.035 188.19 342.28C188.324 341.524 188.152 340.747 187.713 340.117L187.65 340.005Z" fill="#004091"/>
<path d="M213.452 288.109C213.775 288.158 214.298 288.27 214.733 288.384C215.189 288.493 215.649 288.618 216.11 288.756C217.025 289.023 217.933 289.344 218.823 289.699C220.601 290.406 222.306 291.282 223.917 292.314C227.12 294.364 229.816 297.112 231.601 300.414C233.418 303.7 234.292 307.521 234.354 311.427C234.447 315.34 233.819 319.335 232.744 323.231C232.628 323.67 232.688 324.138 232.91 324.534C233.133 324.931 233.5 325.225 233.936 325.356C234.371 325.487 234.84 325.443 235.244 325.235C235.648 325.026 235.956 324.669 236.101 324.238C237.428 320.158 238.33 315.861 238.431 311.436C238.557 307.03 237.767 302.42 235.73 298.294C233.734 294.151 230.551 290.616 226.85 288.007C225.005 286.703 223.038 285.578 220.978 284.649C219.951 284.185 218.913 283.761 217.839 283.394C217.305 283.208 216.765 283.033 216.215 282.873C215.664 282.714 215.153 282.571 214.453 282.425C213.7 282.268 212.917 282.417 212.275 282.838C211.632 283.259 211.183 283.918 211.027 284.671C210.87 285.423 211.019 286.206 211.44 286.849C211.861 287.491 212.521 287.94 213.273 288.096C213.32 288.106 213.366 288.114 213.41 288.121L213.452 288.109Z" fill="#004091"/>
<path d="M257.939 252.092C248.462 257.019 238.473 260.889 228.151 263.635C222.999 265.019 217.776 266.124 212.505 266.946C207.238 267.772 201.936 268.408 196.613 268.708C191.297 269.058 185.967 269.136 180.644 268.942C175.332 268.744 170.029 268.295 164.832 267.461C162.225 267.072 159.678 266.497 157.182 265.868C155.976 265.495 154.728 265.162 153.629 264.696C153.354 264.584 153.044 264.49 152.803 264.365L152.069 263.992C151.57 263.786 151.106 263.408 150.628 263.102C150.12 262.805 149.737 262.43 149.333 262.077C148.881 261.744 148.629 261.326 148.282 260.96C147.732 260.171 147.276 259.388 147.181 258.536C147.049 257.638 147.126 256.722 147.407 255.858C147.474 255.62 147.559 255.387 147.66 255.161C147.752 254.924 147.859 254.694 147.982 254.472C148.089 254.24 148.234 254.028 148.361 253.806C148.485 253.617 148.673 253.347 148.724 253.287L148.948 252.921C149.146 252.6 149.278 252.244 149.337 251.873C149.397 251.502 149.382 251.122 149.295 250.756C149.208 250.39 149.05 250.045 148.829 249.741C148.608 249.436 148.33 249.178 148.01 248.981C147.937 248.937 147.858 248.894 147.784 248.856C146.197 248.068 144.764 247.113 143.67 246.011C143.14 245.498 142.685 244.911 142.321 244.269C141.973 243.678 141.729 243.031 141.599 242.358C141.339 241.029 141.516 239.537 142.06 238.031C142.34 237.259 142.69 236.513 143.103 235.802C143.315 235.44 143.538 235.082 143.776 234.738L144.14 234.234C144.25 234.087 144.415 233.885 144.468 233.821L145.102 231.181C144.931 230.398 144.764 229.61 144.827 228.992C144.861 228.349 144.988 227.846 145.306 227.391C145.869 226.462 147.275 225.56 148.995 224.957C150.716 224.354 152.642 223.91 154.619 223.581C156.596 223.252 158.639 222.992 160.695 222.774C168.945 221.925 177.445 221.523 185.896 220.158C194.314 218.799 202.61 216.764 210.703 214.074C214.749 212.718 218.714 211.13 222.579 209.319C224.506 208.398 226.404 207.414 228.26 206.345C230.118 205.254 231.908 204.151 233.672 202.766C233.907 202.604 234.069 202.355 234.121 202.073C234.174 201.792 234.112 201.501 233.95 201.266C233.788 201.03 233.538 200.868 233.257 200.816C232.976 200.764 232.685 200.825 232.449 200.988L232.387 201.026C230.644 202.092 228.844 203.062 226.995 203.932C225.139 204.839 223.241 205.668 221.318 206.433C217.491 208.014 213.56 209.346 209.59 210.539C201.631 212.893 193.497 214.606 185.264 215.66C177.056 216.692 168.721 216.912 160.224 217.535C158.095 217.705 155.957 217.902 153.779 218.223C151.601 218.544 149.406 218.965 147.145 219.737C146.585 219.904 146.009 220.175 145.442 220.402C145.157 220.525 144.87 220.686 144.585 220.83C144.289 220.972 144.003 221.134 143.73 221.315C142.482 222.058 141.411 223.062 140.59 224.259C140.371 224.582 140.172 224.918 139.996 225.266C139.839 225.624 139.69 225.986 139.548 226.352C139.347 227.081 139.135 227.852 139.121 228.568C138.983 230.054 139.229 231.36 139.494 232.624L140.128 229.983C139.86 230.296 139.715 230.486 139.525 230.734C139.335 230.981 139.181 231.204 139.016 231.44C138.688 231.915 138.384 232.404 138.094 232.896C137.508 233.906 137.013 234.965 136.615 236.063C135.81 238.283 135.413 240.873 135.927 243.465C136.44 246.057 137.854 248.399 139.57 250.079C141.288 251.802 143.237 253.041 145.204 254.026L144.265 249.595C143.981 249.962 143.716 250.344 143.472 250.739C143.263 251.102 143.041 251.462 142.864 251.84C142.669 252.214 142.496 252.599 142.346 252.992C142.184 253.388 142.046 253.793 141.933 254.205C141.414 255.931 141.306 257.755 141.617 259.53C141.906 261.379 142.834 263.018 143.865 264.391C144.425 265.021 144.966 265.719 145.601 266.204L146.53 266.99C146.837 267.265 147.174 267.437 147.493 267.664C148.154 268.077 148.764 268.543 149.514 268.869L150.598 269.393C150.96 269.564 151.3 269.669 151.652 269.806C153.058 270.367 154.43 270.712 155.812 271.113C158.531 271.778 161.282 272.299 164.056 272.674C169.548 273.441 175.042 273.79 180.532 273.884C186.015 273.973 191.499 273.782 196.962 273.311C202.424 272.89 207.854 272.133 213.241 271.171C218.633 270.22 223.971 268.979 229.229 267.454C239.741 264.413 249.953 260.185 259.326 254.533C259.649 254.35 259.887 254.047 259.986 253.689C260.086 253.332 260.039 252.949 259.856 252.626C259.674 252.303 259.37 252.066 259.013 251.966C258.655 251.867 258.273 251.914 257.95 252.096L257.939 252.092Z" fill="#004091"/>
<path d="M42.1031 227.253C48.3062 221.043 41.1767 217.011 41.1767 217.011C41.1767 217.011 58.5483 214.84 48.3062 200.263C48.3062 200.263 54.4074 201.754 55.7537 195.609C56.1158 193.967 55.3917 192.143 53.8939 190.378C46.7203 181.946 21.7717 175.048 13.8754 197.001C13.5781 197.818 13.3317 198.622 13.1224 199.411C6.83949 222.845 36.1024 233.254 42.1031 227.253Z" fill="white"/>
<path d="M36.7316 231.835C39.7354 231.835 42.3757 231.07 44.1516 229.298C47.3605 226.089 47.7308 223.144 47.4651 221.241C47.3333 220.292 47.0311 219.375 46.5731 218.534C49.2176 217.46 52.1842 215.58 53.6173 212.339C54.8645 209.526 54.691 206.325 53.1065 202.786C53.6825 202.586 54.2343 202.322 54.7516 201.999C56.1062 201.156 57.8697 199.468 58.5814 196.226C60.0571 189.498 51.5909 183.198 42.8755 180.685C31.3958 177.381 17.0334 179.667 11.1525 196.021C6.70324 208.39 10.6968 219.992 21.8351 227.057C26.3546 229.93 31.9905 231.835 36.7316 231.835ZM48.3379 197.375C47.8078 197.374 47.2874 197.517 46.8331 197.79C46.3787 198.063 46.0078 198.456 45.7606 198.925C45.5134 199.394 45.3992 199.921 45.4306 200.45C45.4619 200.98 45.6376 201.49 45.9384 201.927C47.6028 204.298 49.369 207.622 48.3283 209.989C47.1224 212.733 42.3744 213.936 40.8064 214.143C40.2015 214.217 39.6358 214.481 39.1899 214.897C38.7439 215.312 38.4407 215.858 38.3234 216.456C38.2062 217.054 38.2809 217.673 38.537 218.226C38.793 218.78 39.2173 219.237 39.7491 219.535C40.1993 219.801 41.5801 220.861 41.7301 222.039C41.8678 223.133 40.8972 224.364 40.0575 225.205C38.6423 226.622 31.8267 226.545 24.9367 222.177C20.7669 219.532 11.6054 211.88 16.6012 197.991C22.2977 182.147 36.9243 185.005 41.2717 186.258C49.1887 188.54 53.3158 193.211 52.9248 194.994C52.5339 196.777 51.6859 197.196 50.9879 197.393C50.3251 197.557 49.6348 197.575 48.9643 197.447C48.7587 197.401 48.5487 197.377 48.3379 197.375Z" fill="#004091"/>
<path d="M196.164 36.0254C195.645 35.6981 195.252 35.1837 195.084 34.5652C194.81 33.5557 195.194 32.4825 196.045 31.8752C203.94 26.2446 211.131 21.6454 217.611 18.092L217.612 18.0914C229.634 11.5072 239.536 8.32433 247.292 8.86086C251.238 9.13385 254.667 10.3737 257.475 12.6392C260.268 14.8932 262.285 18.0326 263.644 21.8526C266.33 29.4068 266.573 39.9969 264.861 53.0917C263.14 66.2558 259.402 82.2473 253.858 100.781L253.857 100.783C251.272 109.406 248.305 118.573 244.96 128.284C244.572 129.41 243.442 130.106 242.262 129.947C241.081 129.788 240.177 128.817 240.101 127.628C240.055 126.908 240.011 126.213 239.954 125.521L239.953 125.507C238.017 100.125 230.29 73.3241 214.052 53.0093C208.701 46.3323 202.698 40.6385 196.164 36.0254Z" fill="white" stroke="#004091" stroke-width="5" stroke-linejoin="round"/>
<path d="M209.284 46.7797C208.856 46.4756 208.525 46.0378 208.355 45.5163C208.037 44.541 208.348 43.4705 209.138 42.8164C215.64 37.4341 221.551 33.0065 226.867 29.5492C237.24 22.1566 245.626 18.2036 252.082 18.1058C255.447 18.0548 258.368 19.0511 260.656 21.1903C262.887 23.2775 264.292 26.2428 265.106 29.7377C266.722 36.6674 266.215 46.5537 264.146 58.7386C262.064 71.0016 258.344 85.8856 253.301 102.963L253.3 102.964C250.948 110.916 248.272 119.376 245.274 128.345C244.888 129.499 243.729 130.207 242.527 130.024C241.325 129.841 240.428 128.82 240.403 127.604C240.391 126.986 240.378 126.389 240.358 125.795C237.387 102.325 233.452 84.2355 222.124 63.3688C221.238 62.0784 220.4 60.8107 219.571 59.5573C218.36 57.7238 217.168 55.9209 215.874 54.1228C213.753 51.1748 211.613 48.6237 209.284 46.7797Z" fill="#B8311E" stroke="#004091" stroke-width="5" stroke-linejoin="round"/>
<path d="M127.567 35.9608C128.06 35.5956 128.413 35.0532 128.534 34.4238C128.731 33.3967 128.269 32.3552 127.374 31.8134C119.079 26.79 111.565 22.7422 104.836 19.6843L104.835 19.6838C92.3544 14.0185 82.2416 11.5863 74.5475 12.7022C70.6325 13.2701 67.306 14.7632 64.6763 17.2326C62.06 19.6895 60.2833 22.9713 59.2147 26.8822C57.1015 34.6164 57.6532 45.195 60.3408 58.1248C63.0426 71.123 67.9683 86.7895 74.8851 104.856L74.8857 104.858C78.1101 113.263 81.7545 122.182 85.8183 131.615C86.2897 132.709 87.4677 133.319 88.6332 133.071C89.7986 132.824 90.6276 131.789 90.6141 130.598C90.606 129.875 90.5981 129.179 90.6027 128.485L90.6027 128.471C90.6327 103.015 96.3296 75.711 111.001 54.2368C115.836 47.1778 121.396 41.0504 127.567 35.9608Z" fill="white" stroke="#004091" stroke-width="5" stroke-linejoin="round"/>
<path d="M115.289 47.668C115.693 47.3326 115.99 46.8714 116.12 46.3386C116.364 45.3422 115.974 44.298 115.137 43.7049C108.251 38.8247 102.025 34.8523 96.4644 31.8029C85.5665 25.2081 76.908 21.8943 70.4629 22.2803C67.1038 22.4815 64.2654 23.6938 62.1447 25.9984C60.0755 28.2469 58.8974 31.309 58.3468 34.8551C57.2551 41.8863 58.5004 51.7069 61.4763 63.7027C64.4712 75.7752 69.296 90.3388 75.6037 106.99L75.6042 106.992C78.5461 114.745 81.8481 122.981 85.5095 131.7C85.9803 132.821 87.1895 133.441 88.3746 133.169C89.5597 132.896 90.3769 131.811 90.3108 130.596C90.2772 129.979 90.2448 129.383 90.2208 128.789C91.4253 105.163 93.9937 86.8288 103.727 65.1723C104.515 63.8191 105.255 62.4922 105.987 61.1803C107.058 59.2611 108.112 57.3741 109.267 55.4841C111.162 52.3854 113.104 49.6813 115.289 47.668Z" fill="#B8311E" stroke="#004091" stroke-width="5" stroke-linejoin="round"/>
<path d="M58.6075 115.729V115.73C58.6007 127.101 61.7593 142.953 72.739 157.474C83.7522 172.04 102.463 185.039 133.139 190.928L133.139 190.928C152.506 194.643 172.526 194.643 191.893 190.928L191.893 190.928C222.569 185.036 241.28 172.037 252.293 157.472C263.272 142.952 266.431 127.102 266.425 115.731L58.6075 115.729ZM58.6075 115.729C58.6144 107.514 60.2859 98.1519 63.8603 88.5953C72.4107 65.6792 91.9092 41.4055 125.798 28.7934C128.049 27.9533 130.36 27.169 132.731 26.44L132.731 26.4398C152.04 20.508 172.992 20.508 192.301 26.4398L192.302 26.4402M58.6075 115.729L192.302 26.4402M192.302 26.4402C194.378 27.0793 196.409 27.7611 198.394 28.4858M192.302 26.4402L198.394 28.4858M198.394 28.4858C233.195 41.1512 253.006 66.0529 261.463 89.3912L198.394 28.4858ZM261.463 89.3924C264.834 98.6796 266.424 107.739 266.425 115.73L261.463 89.3924Z" fill="white" stroke="#004091" stroke-width="5"/>
<path d="M187.72 79.4738C184.707 71.9586 188.308 66.4379 190.678 68.3317C192.891 70.1004 189.011 74.2489 187.72 79.4738Z" fill="#B8311E"/>
<path d="M194.765 77.6839C193.431 71.9594 198.181 67.7803 199.862 69.668C201.504 71.5139 197.193 73.2568 194.765 77.6839Z" fill="#B8311E"/>
<path d="M200.918 78.1164C201.758 71.437 206.505 72.3085 206.599 73.9912C206.719 76.1317 204.093 75.3585 200.918 78.1164Z" fill="#B8311E"/>
<path d="M206.603 99.3444C206.6 96.3162 205.101 93.2213 202.34 90.8755C199.597 88.5324 195.569 86.9871 191.271 86.9074C190.196 86.8962 189.12 86.9661 188.055 87.1163C187.523 87.1958 186.995 87.3008 186.476 87.4306L185.698 87.6204C185.443 87.6949 185.193 87.7824 184.942 87.8682C182.953 88.5418 181.163 89.5541 179.701 90.8317C178.306 92.0579 177.231 93.4884 176.538 95.0364C175.875 96.5068 175.542 98.0506 175.555 99.5958C175.555 99.6527 175.58 99.7073 175.624 99.7509C175.668 99.7946 175.73 99.8249 175.799 99.8371C175.868 99.8492 175.942 99.8426 176.008 99.8183C176.073 99.7939 176.128 99.7531 176.162 99.7023L176.164 99.6953C177.069 98.3708 177.96 97.1248 179.002 96.0167C179.978 94.9415 181.142 93.9797 182.455 93.1616C184.91 91.6432 187.929 90.8398 190.985 90.8909C194.001 90.9502 196.99 91.8047 199.555 93.3019C202.148 94.7895 204.219 96.9302 205.991 99.4739C206.026 99.5231 206.08 99.5612 206.146 99.5822C206.212 99.6032 206.285 99.606 206.355 99.5901C206.425 99.5742 206.486 99.5405 206.531 99.4943C206.575 99.4481 206.599 99.3921 206.599 99.335L206.603 99.3444Z" fill="#004091"/>
<path d="M111.347 79.4738C114.36 71.9586 110.759 66.4379 108.39 68.3317C106.176 70.1004 110.056 74.2489 111.347 79.4738Z" fill="#B8311E"/>
<path d="M104.302 77.6839C105.636 71.9594 100.885 67.7803 99.2053 69.668C97.5633 71.5139 101.874 73.2568 104.302 77.6839Z" fill="#B8311E"/>
<path d="M98.1485 78.1164C97.3084 71.437 92.5616 72.3085 92.4682 73.9912C92.3479 76.1317 94.9737 75.3585 98.1485 78.1164Z" fill="#B8311E"/>
<path d="M92.4644 99.3444C92.4669 96.3162 93.9663 93.2213 96.7268 90.8755C99.4699 88.5324 103.499 86.9871 107.797 86.9074C108.871 86.8962 109.947 86.9661 111.012 87.1163C111.545 87.1958 112.072 87.3008 112.591 87.4306L113.369 87.6204C113.624 87.6949 113.875 87.7824 114.125 87.8682C116.114 88.5418 117.905 89.5541 119.367 90.8317C120.761 92.0579 121.837 93.4884 122.529 95.0364C123.192 96.5068 123.525 98.0506 123.512 99.5958C123.512 99.6527 123.488 99.7073 123.443 99.7509C123.399 99.7946 123.338 99.8249 123.268 99.8371C123.199 99.8492 123.125 99.8426 123.06 99.8183C122.994 99.7939 122.939 99.7531 122.905 99.7023L122.903 99.6953C121.998 98.3708 121.107 97.1248 120.065 96.0167C119.089 94.9415 117.925 93.9797 116.612 93.1616C114.157 91.6432 111.139 90.8398 108.082 90.8909C105.066 90.9502 102.078 91.8047 99.5123 93.3019C96.9192 94.7895 94.8486 96.9302 93.076 99.4739C93.0415 99.5231 92.987 99.5612 92.9211 99.5822C92.8553 99.6032 92.7818 99.606 92.7122 99.5901C92.6426 99.5742 92.5808 99.5405 92.5366 99.4943C92.4924 99.4481 92.4683 99.3921 92.4681 99.335L92.4644 99.3444Z" fill="#004091"/>
<path d="M138.616 114.879C137.04 113.683 135.722 112.18 134.743 110.461C134.259 109.606 134.096 108.607 134.282 107.643C134.469 106.68 134.992 105.813 135.758 105.199C140.095 101.763 145.668 101.997 145.668 101.997C145.668 101.997 151.242 101.765 155.577 105.199C156.344 105.813 156.868 106.679 157.054 107.643C157.24 108.607 157.077 109.606 156.594 110.461C155.615 112.18 154.297 113.683 152.72 114.879C150.706 116.452 148.224 117.306 145.668 117.306C143.113 117.306 140.63 116.452 138.616 114.879Z" fill="#004091"/>
<path d="M140.326 106.889C140.326 108.308 142.718 107.984 145.668 107.984C148.618 107.984 151.008 108.308 151.008 106.889C151.008 105.47 148.617 104.321 145.668 104.321C142.719 104.321 140.326 105.47 140.326 106.889Z" fill="white"/>
<path d="M204.498 132.378C197.231 132.378 191.34 127.715 191.34 121.963C191.34 116.212 197.231 111.549 204.498 111.549C211.766 111.549 217.657 116.212 217.657 121.963C217.657 127.715 211.766 132.378 204.498 132.378Z" fill="#B8311E"/>
<path d="M210.907 109.538C213.022 109.463 215.048 109.121 217.048 108.699C219.039 108.266 221.006 107.733 222.943 107.103C224.882 106.476 226.787 105.751 228.652 104.931C230.519 104.096 232.358 103.179 234.111 101.994C231.996 102.066 229.968 102.406 227.97 102.829C225.979 103.26 224.011 103.793 222.075 104.425C220.137 105.054 218.232 105.78 216.368 106.6C214.501 107.439 212.661 108.356 210.907 109.538Z" fill="#004091"/>
<path d="M210.906 124.246C213.032 125.06 215.188 125.596 217.353 126.044C219.518 126.492 221.696 126.813 223.883 127.049C226.071 127.285 228.269 127.417 230.479 127.453C232.688 127.488 234.91 127.405 237.16 127.058C235.034 126.24 232.879 125.708 230.714 125.256C228.55 124.804 226.37 124.486 224.183 124.254C221.996 124.022 219.797 123.886 217.588 123.854C215.378 123.822 213.157 123.902 210.906 124.246Z" fill="#004091"/>
<path d="M207.859 138.847C209.257 140.287 210.791 141.481 212.364 142.602C213.94 143.707 215.573 144.727 217.257 145.659C218.938 146.595 220.669 147.439 222.442 148.187C224.227 148.924 226.053 149.595 228.018 150.013C226.622 148.57 225.089 147.375 223.514 146.254C221.939 145.15 220.305 144.131 218.62 143.201C216.937 142.268 215.205 141.425 213.432 140.675C211.648 139.935 209.817 139.273 207.859 138.847Z" fill="#004091"/>
<path d="M94.7728 132.378C102.04 132.378 107.931 127.715 107.931 121.963C107.931 116.212 102.04 111.549 94.7728 111.549C87.5055 111.549 81.6141 116.212 81.6141 121.963C81.6141 127.715 87.5055 132.378 94.7728 132.378Z" fill="#B8311E"/>
<path d="M88.3642 109.538C86.2493 109.463 84.2228 109.121 82.2233 108.699C80.2327 108.266 78.2651 107.733 76.3281 107.103C74.3896 106.476 72.4843 105.751 70.6196 104.931C68.7528 104.096 66.9129 103.179 65.1603 101.994C67.2753 102.066 69.303 102.406 71.3012 102.829C73.2923 103.26 75.26 103.793 77.1964 104.425C79.1341 105.054 81.039 105.78 82.9038 106.6C84.7706 107.439 86.6104 108.356 88.3642 109.538Z" fill="#004091"/>
<path d="M88.3646 124.246C86.2387 125.06 84.0832 125.596 81.9179 126.044C79.7527 126.492 77.5751 126.813 75.3877 127.049C73.2004 127.285 71.002 127.417 68.7925 127.453C66.583 127.488 64.3612 127.405 62.1112 127.058C64.2372 126.24 66.3926 125.708 68.5567 125.256C70.7207 124.804 72.9007 124.486 75.0881 124.254C77.2755 124.022 79.4739 123.886 81.6834 123.854C83.8928 123.822 86.1146 123.902 88.3646 124.246Z" fill="#004091"/>
<path d="M91.4123 138.847C90.0147 140.287 88.4807 141.481 86.9074 142.602C85.3316 143.707 83.6983 144.727 82.0144 145.659C80.3329 146.595 78.6019 147.439 76.829 148.187C75.0445 148.924 73.2182 149.595 71.2531 150.013C72.6495 148.57 74.1823 147.375 75.7568 146.254C77.3326 145.15 78.9663 144.131 80.6511 143.201C82.3345 142.268 84.0662 141.425 85.8389 140.675C87.6234 139.935 89.4546 139.273 91.4123 138.847Z" fill="#004091"/>
<path d="M123.578 121.612C123.88 122.853 124.324 124.056 124.903 125.195L125.36 126.071L125.911 126.924C126.1 127.216 126.304 127.497 126.523 127.767C126.736 128.055 126.969 128.326 127.221 128.58C128.286 129.765 129.608 130.69 131.087 131.283C132.749 131.919 134.554 132.09 136.306 131.78C137.128 131.637 137.929 131.396 138.694 131.064C139.052 130.899 139.425 130.741 139.766 130.567L140.759 129.994C141.951 129.219 143.052 128.311 144.04 127.289C144.964 126.335 145.806 125.305 146.557 124.21C146.925 123.673 147.279 123.132 147.602 122.569C147.925 122.006 148.208 121.471 148.544 120.767L142.144 120.169C142.838 122.345 143.699 124.544 145.08 126.684C145.8 127.81 146.661 128.839 147.642 129.746C148.727 130.748 149.992 131.535 151.371 132.064C152.783 132.575 154.277 132.816 155.778 132.775C157.157 132.7 158.519 132.435 159.825 131.987C161.024 131.562 162.178 131.02 163.27 130.367C163.806 130.054 164.318 129.718 164.818 129.359C165.07 129.193 165.315 128.991 165.565 128.804C165.815 128.617 166.029 128.436 166.363 128.141C167.066 127.543 167.502 126.689 167.575 125.769C167.649 124.848 167.354 123.936 166.755 123.234C166.156 122.531 165.302 122.095 164.382 122.022C163.462 121.948 162.55 122.243 161.847 122.842L161.667 122.991L161.269 123.322C161.104 123.447 160.938 123.576 160.772 123.693C160.433 123.938 160.077 124.172 159.719 124.381C159.032 124.791 158.306 125.135 157.553 125.407C156.898 125.63 156.218 125.768 155.528 125.818C154.953 125.826 154.382 125.736 153.837 125.553C152.814 125.182 151.798 124.256 150.926 122.903C150.053 121.55 149.357 119.856 148.794 118.088C148.608 117.497 148.266 116.968 147.804 116.555C147.342 116.143 146.777 115.862 146.17 115.744C145.562 115.625 144.933 115.673 144.35 115.881C143.767 116.089 143.251 116.451 142.856 116.928L142.394 117.488L141.553 118.659L140.635 119.874C140.032 120.653 139.387 121.397 138.703 122.105C138.091 122.749 137.426 123.342 136.715 123.875C136.147 124.29 135.521 124.62 134.857 124.854C134.335 125.02 133.779 125.052 133.241 124.947C132.522 124.786 131.84 124.489 131.232 124.071C129.742 123.127 128.251 121.57 126.653 119.961L126.602 119.909C126.325 119.629 125.964 119.448 125.574 119.394C125.184 119.339 124.787 119.414 124.444 119.608C124.101 119.801 123.831 120.102 123.676 120.463C123.521 120.825 123.489 121.228 123.585 121.61L123.578 121.612Z" fill="#004091"/>
<path d="M144.843 143.024C150.143 143.024 154.516 137.665 155.97 129.372C156.11 128.578 155.97 127.76 155.573 127.058C155.176 126.355 154.548 125.813 153.796 125.523C151.799 124.75 150.07 122.18 148.795 118.088C148.592 117.43 148.199 116.847 147.665 116.412C147.131 115.978 146.48 115.712 145.794 115.648C145.109 115.584 144.42 115.725 143.815 116.053C143.209 116.381 142.715 116.881 142.394 117.49C141.566 119.045 138.719 123.375 135.669 124.654C134.959 124.95 134.368 125.474 133.987 126.142C133.607 126.811 133.458 127.587 133.566 128.348C134.785 137.125 139.324 143.024 144.843 143.024ZM148.571 130.511C147.455 134.358 145.666 136.059 144.843 136.059C143.868 136.059 141.939 133.926 140.899 129.673C142.324 128.666 143.621 127.489 144.761 126.167C145.861 127.986 147.131 129.434 148.571 130.511Z" fill="#004091"/>
<path d="M160.95 111.298C160.497 112.449 160.164 113.643 159.956 114.862C159.736 116.06 159.616 117.275 159.598 118.493C159.546 121.001 159.912 123.499 160.682 125.886C161.481 128.315 162.79 130.697 164.687 132.578C166.585 134.459 168.993 135.799 171.512 136.18C171.833 136.228 172.16 136.177 172.451 136.032C172.741 135.888 172.98 135.657 173.134 135.372C173.289 135.086 173.352 134.761 173.314 134.438C173.276 134.116 173.14 133.813 172.925 133.571L172.842 133.479C171.379 131.856 170.177 130.428 169.24 128.842C168.286 127.252 167.506 125.565 166.911 123.809C166.302 121.934 165.827 120.017 165.489 118.074C165.313 117.071 165.148 116.05 164.992 115.011C164.84 113.989 164.717 112.883 164.553 111.904L164.517 111.687C164.451 111.286 164.255 110.918 163.96 110.639C163.665 110.36 163.286 110.185 162.883 110.141C162.479 110.097 162.072 110.186 161.723 110.395C161.375 110.604 161.104 110.921 160.953 111.298H160.95Z" fill="#004091"/>
<path d="M149.962 147.747C149.972 147.707 149.904 147.711 149.858 147.707H149.692H149.361C149.132 147.707 148.899 147.722 148.672 147.729L147.314 147.752C146.425 147.752 145.569 147.752 144.707 147.683C143.846 147.613 142.984 147.553 142.058 147.436C141.587 147.419 141.117 147.325 140.602 147.315C140.087 147.305 139.575 147.204 138.964 147.249L138.486 147.283C138.074 147.314 137.677 147.455 137.338 147.691C136.999 147.927 136.73 148.25 136.558 148.626C136.387 149.002 136.319 149.417 136.363 149.828C136.407 150.238 136.56 150.63 136.807 150.961C137.662 152.095 138.78 153.004 140.064 153.611C141.334 154.274 142.783 154.587 144.232 154.702C145.692 154.808 147.159 154.639 148.558 154.206C149.255 153.993 149.929 153.707 150.566 153.353C150.89 153.172 151.203 152.971 151.504 152.753C151.653 152.644 151.808 152.531 151.959 152.402L152.468 151.957C153.014 151.619 153.406 151.08 153.559 150.456C153.711 149.832 153.612 149.173 153.284 148.622C152.955 148.07 152.422 147.669 151.801 147.507C151.179 147.344 150.519 147.432 149.962 147.752V147.747Z" fill="#004091"/>
<path d="M2.90871 124.421C2.90871 148.154 24.2836 143.5 24.2836 143.5C24.2836 143.5 19.8674 158.852 40.8031 158.852C61.7388 158.852 60.113 137.217 53.3676 131.87H71.5101L71.25 128.577L71.1784 127.686L70.3524 117.444H49.1813C49.8118 117.21 50.4262 116.934 51.0204 116.618C54.06 115.039 59.7565 111.131 59.7565 103.953C59.7657 102.73 59.6148 101.511 59.3077 100.327C57.4259 93.082 49.8544 89.7588 42.1908 89.7588C40.2818 89.76 38.3837 90.0458 36.559 90.6068C30.1384 92.5671 25.1812 97.6923 25.9053 103.598C25.9053 103.598 25.3395 103.526 24.3841 103.498C21.5909 103.409 15.4456 103.693 10.4444 107.214C6.28282 110.147 2.90871 115.33 2.90871 124.421Z" fill="white"/>
<path d="M70.3496 116.358L49.1784 114.548L50.1421 120.174C50.4353 120.068 50.584 120.003 50.7932 119.918L51.359 119.669C51.7279 119.498 52.09 119.322 52.4438 119.135C53.1524 118.764 53.8416 118.357 54.5087 117.915C55.8764 117.02 57.1344 115.967 58.2573 114.779C59.4296 113.543 60.4047 112.134 61.1482 110.601C61.9072 109.032 62.3852 107.342 62.5606 105.608C62.7335 103.919 62.6546 102.214 62.3266 100.548C61.9998 98.8407 61.3823 97.2025 60.5012 95.7046C58.7226 92.676 55.9074 90.4473 52.9559 89.0968C49.9824 87.7298 46.8395 87.0745 43.7201 86.908C42.1204 86.8102 40.5148 86.8794 38.9295 87.1144C37.3289 87.3519 35.7593 87.7647 34.2489 88.3452C31.2369 89.507 28.3941 91.3035 26.186 93.9411C25.0448 95.2938 24.164 96.8462 23.5883 98.5198C23.3007 99.3904 23.105 100.289 23.0046 101.2C22.9184 102.116 22.9276 103.039 23.0322 103.953L26.1475 100.714C25.6271 100.677 25.2816 100.67 24.8631 100.665C24.4446 100.659 24.066 100.665 23.6723 100.677C22.8835 100.703 22.1016 100.755 21.321 100.838C19.7504 100.999 18.1945 101.28 16.6667 101.678C13.5982 102.482 10.5558 103.834 7.9292 105.91C5.29433 108 3.23537 110.728 1.94639 113.835C0.657867 116.889 0.138878 120.108 0.0191116 123.222C-0.0758743 126.315 0.169159 129.48 1.08462 132.631C2.00008 135.782 3.70847 138.87 6.24146 141.208C8.77444 143.545 11.9145 145.047 15.0601 145.807C16.6219 146.185 18.2148 146.421 19.8191 146.51C20.613 146.557 21.4082 146.57 22.2048 146.55C22.6041 146.541 23.0033 146.523 23.408 146.494C23.8127 146.465 24.1775 146.435 24.7075 146.356L21.5027 142.693C21.4146 143.018 21.3789 143.186 21.3334 143.41L21.2178 144.035C21.1544 144.448 21.1008 144.861 21.0664 145.265C20.9933 146.088 20.9818 146.917 21.0319 147.742C21.1235 149.453 21.5193 151.134 22.2007 152.707C22.9046 154.325 23.9389 155.779 25.2375 156.974C26.4852 158.115 27.9127 159.042 29.4624 159.718C32.4552 161.039 35.5044 161.485 38.4518 161.677C41.3427 161.845 44.4373 161.743 47.4838 160.959C50.5303 160.176 53.5795 158.655 55.9156 156.243C58.2518 153.831 59.7537 150.737 60.3746 147.599C60.9871 144.486 60.91 141.277 60.1488 138.197C59.7707 136.633 59.2016 135.121 58.4541 133.695C57.675 132.243 56.6645 130.813 55.1654 129.597L53.3661 134.759L71.5128 132.795C71.7422 132.77 71.9542 132.661 72.1083 132.489C72.2623 132.318 72.3475 132.095 72.3475 131.864C72.3475 131.634 72.2623 131.411 72.1083 131.239C71.9542 131.068 71.7422 130.959 71.5128 130.934L53.3716 128.972C52.8381 128.914 52.2994 129.015 51.8234 129.263C51.3474 129.511 50.9555 129.894 50.6972 130.365C50.4388 130.835 50.3256 131.372 50.3719 131.906C50.4181 132.441 50.6218 132.95 50.957 133.369L51.5724 134.136C52.2043 134.642 52.8472 135.464 53.3496 136.421C53.8708 137.422 54.2675 138.483 54.5307 139.58C55.0874 141.83 55.147 144.174 54.7056 146.45C54.2609 148.672 53.267 150.683 51.7761 152.203C50.2852 153.722 48.2974 154.778 46.048 155.354C43.7986 155.929 41.3413 156.042 38.7863 155.904C36.2932 155.75 33.8456 155.343 31.8219 154.436C29.7983 153.528 28.2716 152.193 27.5076 150.383C27.1023 149.438 26.8692 148.429 26.8193 147.402C26.7859 146.861 26.7937 146.318 26.8427 145.778C26.8647 145.503 26.9005 145.237 26.9404 144.971L27.0106 144.589L27.0739 144.306L27.1056 144.169C27.1891 143.795 27.1981 143.409 27.1323 143.032C27.0664 142.655 26.9268 142.295 26.7216 141.972C26.5164 141.649 26.2496 141.37 25.9363 141.15C25.6231 140.93 25.2696 140.774 24.8961 140.691C24.5543 140.617 24.2021 140.603 23.8554 140.65C23.6778 140.675 23.3048 140.712 23.0198 140.731C22.7348 140.751 22.3962 140.768 22.0809 140.775C21.4477 140.792 20.8103 140.775 20.1771 140.744C18.9241 140.672 17.68 140.488 16.4602 140.193C14.058 139.609 11.8815 138.541 10.2075 136.979C8.53355 135.416 7.34138 133.362 6.65995 131.005C5.97852 128.649 5.74312 126.05 5.83398 123.434C5.92759 120.843 6.36259 118.32 7.30696 116.094C8.21566 113.886 9.67494 111.947 11.5456 110.463C13.4164 108.984 15.703 107.936 18.1534 107.297C19.3949 106.971 20.6596 106.741 21.9364 106.609C22.5779 106.541 23.2235 106.497 23.8636 106.478C24.1844 106.468 24.5038 106.464 24.8177 106.467C25.1315 106.47 25.484 106.482 25.6767 106.497H25.729C26.1059 106.525 26.4846 106.478 26.8434 106.359C27.2022 106.24 27.5341 106.052 27.8201 105.805C28.106 105.558 28.3405 105.257 28.5101 104.919C28.6797 104.581 28.7811 104.213 28.8085 103.836C28.8224 103.643 28.8168 103.448 28.792 103.255C28.5401 101.317 29.2311 99.3485 30.649 97.6511C32.067 95.9538 34.1044 94.6088 36.3318 93.758C37.4511 93.3276 38.6145 93.022 39.8008 92.8467C41.0012 92.6679 42.2172 92.6176 43.4283 92.6967C45.9227 92.8247 48.3841 93.3643 50.5275 94.3486C52.6709 95.3329 54.444 96.8073 55.5233 98.6478C56.0716 99.5816 56.4549 100.603 56.6563 101.667C56.8716 102.766 56.9244 103.892 56.8132 105.006C56.6095 107.168 55.6169 109.136 54.0421 110.821C53.2279 111.679 52.3163 112.439 51.326 113.086C50.8204 113.42 50.298 113.728 49.7607 114.008C49.4937 114.146 49.2225 114.284 48.9527 114.407L48.5534 114.582L48.2231 114.72L49.1867 120.346L70.3578 118.537C70.6308 118.516 70.8855 118.392 71.0713 118.191C71.2571 117.989 71.3602 117.726 71.3602 117.452C71.3602 117.178 71.2571 116.914 71.0713 116.713C70.8855 116.512 70.6308 116.388 70.3578 116.366L70.3496 116.358Z" fill="#004091"/>
<path d="M23.0363 103.926C23.115 104.329 23.2147 104.729 23.3351 105.122C23.4452 105.481 23.5581 105.838 23.6875 106.182C23.9361 106.875 24.2234 107.553 24.5479 108.214C25.1961 109.548 26.0071 110.796 26.9625 111.931C27.9301 113.08 29.0853 114.058 30.3792 114.822L31.3594 115.361L32.3946 115.774C32.5681 115.839 32.7361 115.912 32.9109 115.968L33.4436 116.106L34.5009 116.362C34.8471 116.448 35.2128 116.401 35.5266 116.232C35.8404 116.062 36.0798 115.782 36.198 115.445C36.3163 115.109 36.305 114.74 36.1664 114.412C36.0277 114.083 35.7716 113.818 35.448 113.668L35.2401 113.572L34.4816 113.218L34.1072 113.046C33.986 112.981 33.8745 112.899 33.7589 112.827L33.0706 112.393L32.4552 111.873C31.6583 111.16 30.9889 110.316 30.4756 109.378C29.9511 108.428 29.5447 107.417 29.2655 106.368C29.1218 105.84 29.0083 105.304 28.9255 104.763C28.8801 104.487 28.8512 104.227 28.8237 103.963C28.7974 103.734 28.7864 103.504 28.7906 103.275C28.8352 102.854 28.7886 102.428 28.6541 102.026C28.5196 101.625 28.3002 101.257 28.011 100.948C27.7217 100.639 27.3693 100.396 26.9777 100.235C26.5861 100.074 26.1645 99.9995 25.7414 100.016C25.3184 100.033 24.9039 100.14 24.5261 100.331C24.1483 100.522 23.816 100.792 23.5518 101.123C23.2876 101.454 23.0977 101.837 22.9949 102.248C22.8922 102.659 22.8791 103.087 22.9565 103.503L23.0363 103.926Z" fill="#004091"/>
<path d="M24.2849 146.394C25.6451 146.318 26.9766 145.972 28.2014 145.376C29.2925 144.851 30.3106 144.186 31.23 143.399C33.0147 141.892 34.4383 140.005 35.3957 137.874C36.3442 135.746 36.7517 133.26 36.2836 130.892C35.8445 128.508 34.5215 126.466 32.9797 124.911C32.692 124.638 32.3128 124.483 31.9166 124.475C31.5204 124.468 31.1356 124.609 30.8377 124.87C30.5398 125.131 30.3502 125.495 30.3062 125.888C30.2621 126.282 30.3667 126.678 30.5995 126.999L30.6312 127.038C31.6898 128.396 32.4015 129.909 32.4938 131.443C32.6108 132.969 32.1854 134.502 31.3801 135.873C30.5556 137.254 29.4335 138.434 28.0954 139.327C27.4693 139.752 26.7899 140.093 26.0745 140.341C25.5014 140.547 24.8929 140.635 24.2849 140.602C23.5354 140.558 22.7981 140.806 22.2272 141.293C21.6563 141.781 21.2962 142.47 21.2222 143.217C21.1482 143.965 21.3661 144.711 21.8302 145.301C22.2943 145.892 22.9688 146.279 23.7123 146.383C23.8495 146.397 23.9875 146.4 24.1252 146.394H24.2849Z" fill="#004091"/>
<path d="M49.1786 114.573L44.0603 114.185C43.203 114.131 42.3589 114.417 41.7109 114.981C41.063 115.545 40.6632 116.342 40.5982 117.198C40.5332 118.055 40.8082 118.903 41.3637 119.558C41.9192 120.213 42.7104 120.623 43.5661 120.699C43.7306 120.711 43.8958 120.711 44.0603 120.699L49.1786 120.313C49.9005 120.256 50.5744 119.929 51.0659 119.397C51.5574 118.865 51.8303 118.167 51.8303 117.443C51.8303 116.719 51.5574 116.021 51.0659 115.489C50.5744 114.958 49.9005 114.631 49.1786 114.573Z" fill="#004091"/>
<path d="M53.3718 128.972L44.0658 127.912C43.5416 127.843 43.0089 127.879 42.4988 128.018C41.9886 128.157 41.5113 128.396 41.0947 128.722C40.678 129.047 40.3304 129.453 40.0721 129.914C39.8138 130.375 39.65 130.883 39.5902 131.409C39.5304 131.934 39.5758 132.466 39.7238 132.974C39.8719 133.481 40.1195 133.954 40.4524 134.365C40.7852 134.776 41.1965 135.116 41.6624 135.367C42.1282 135.617 42.6392 135.771 43.1655 135.822C43.4647 135.855 43.7666 135.855 44.0658 135.822L53.3718 134.762C54.082 134.68 54.7373 134.34 55.213 133.806C55.6886 133.272 55.9515 132.582 55.9515 131.867C55.9515 131.152 55.6886 130.462 55.213 129.928C54.7373 129.394 54.082 129.054 53.3718 128.972Z" fill="#004091"/>
</svg>
