<svg xmlns="http://www.w3.org/2000/svg" width="392" height="360" fill="none"><path fill="#fff" d="M291.2 318.76c6.81 11.47 47 23.95 76.3-7.76a85.83 85.83 0 0 0 13.64-19.6c11.94-23.66 10.14-48.4-2.75-56.89a19.2 19.2 0 0 0-10.88-3.07c-20.95.11-20.63 19.7-25.03 40.04v.01c-1.9 8.71-4.66 17.56-10.33 25.09-5.02 6.66-11.19 9.25-16.86 9.94-8.94 1.1-16.64-2.59-16.64-2.59l-7.45 14.83Z"/><path fill="#004091" d="M323.25 334.01c12.16 0 30.25-3.6 46.37-21.04a88.53 88.53 0 0 0 14.1-20.27c9.73-19.28 11-40.72 3.18-53.36-4.32-6.97-11.15-10.8-19.28-10.8h-.13c-20.08.12-22.98 16.1-26.05 33.02-.55 3.04-1.12 6.18-1.8 9.32l-.02.08c-1.56 7.16-4.09 16.32-9.8 23.88-11.32 15.03-29.19 6.84-29.94 6.48a2.9 2.9 0 0 0-3.83 1.32l-7.43 14.82a2.89 2.89 0 0 0 .1 2.78c3.9 6.58 15.5 12.11 28.2 13.45 2.1.22 4.21.32 6.33.32Zm44.38-99.68c6.12 0 11.08 2.78 14.34 8.06 6.81 10.99 5.44 30.16-3.41 47.7a82.78 82.78 0 0 1-13.19 18.95C347.83 328 327.86 329 317.51 327.92c-10.98-1.16-19.56-5.5-22.94-9.43l5.48-10.92c6.43 2.15 23.09 5.76 34.4-9.25 6.4-8.5 9.16-18.47 10.85-26.21l.02-.1c.69-3.2 1.26-6.36 1.82-9.42 3.26-18 5.81-28.18 20.37-28.26h.12Z"/><path fill="#fff" d="M31.67 331.25c5.6 5.06 12.03 8.88 18.97 10.7 34.66 9.07 81.2-7.68 83.28-8.38l-61.56-26.52s-10.32-57.24-44.52-45.37c-.87.3-1.7.63-2.5 1-24.3 11-15.34 49 6.33 68.57Z"/><path fill="#004091" d="M73.87 347.55c25.88 0 51.7-8.04 60.65-11.13l.32-.1a2.88 2.88 0 0 0 .23-5.4L74.9 304.98c-1.46-6.9-8.23-34.4-25.11-44.27-6.93-4.05-14.64-4.64-22.91-1.77-12.62 4.37-19.52 15.39-18.94 30.21.85 21.76 17.9 49.3 41.95 55.59 7.65 2 15.81 2.8 23.97 2.8Zm51.82-14.37c-15.27 4.58-48.54 12.71-74.32 5.96-21.24-5.56-36.89-30.92-37.64-50.2-.27-7.12 1.31-19.75 15.05-24.52 6.7-2.32 12.61-1.9 18.09 1.3 16.65 9.73 22.59 41.52 22.65 41.85a2.89 2.89 0 0 0 1.7 2.14l54.47 23.47Z"/><path fill="#fff" d="M35.28 265.4c21.58 90.26 128.78 79.33 147.3 76.73 1.77-.24 2.73-.4 2.73-.4 10.4 16.54 51 22.23 84.72 2.93l.04-.02c21.26-12.18 39.77-34.3 46.25-69.92.33-1.8.62-3.58.87-5.34 9.14-63.45-26.8-110.75-48.24-132.72-8.68-8.88-14.98-13.63-14.98-13.63-60.92-26.54-145.5-3.82-190.5 44.6l-1.32 1.45c-23.57 26.07-35.71 59.36-26.87 96.32Z"/><path fill="#004091" d="M224.72 359.72a94.98 94.98 0 0 0 46.75-12.55l.05-.03c17.61-10.1 40.16-30.76 47.65-71.9a143.28 143.28 0 0 0-2.73-63.86c-4.56-16.7-12.17-33.08-22.6-48.66-17.75-26.52-37.3-41.39-38.13-42a2.88 2.88 0 0 0-.58-.35c-26.7-11.63-59.82-14.51-93.26-8.1-32.26 6.17-63.05 20.48-86.69 40.27-17.64 14.78-30.43 31.7-38.02 50.26-8.3 20.31-9.88 41.6-4.7 63.28 5.1 21.34 15.35 38.82 30.44 51.94 12.34 10.72 27.97 18.59 46.46 23.37 32.4 8.38 64.55 4.88 73.63 3.61l.99-.14c6.19 8.14 18.98 13.57 34.75 14.66 1.99.13 3.98.2 5.99.2Zm43.86-17.57c-15.09 8.63-32.65 12.75-49.45 11.59-14.73-1.01-26.75-6.21-31.37-13.57a2.9 2.9 0 0 0-2.96-1.3s-.94.16-2.62.4c-20.4 2.85-123.23 12.67-144.09-74.54-9.45-39.52 5.05-77.79 40.81-107.75 48.63-40.73 121.56-53.92 173.6-31.44 2.37 1.85 20.5 16.42 36.63 40.55 15.78 23.62 32.81 61.54 24.35 108.1-7.1 38.98-28.3 58.45-44.85 67.93l-.05.03Z"/><path fill="#004091" d="m187.65 340-.3-.42-.3-.5c-.22-.32-.42-.66-.62-1.01-.42-.69-.78-1.4-1.16-2.12a47.4 47.4 0 0 1-4.5-13.8 40.38 40.38 0 0 1-.34-9.6l.26-2.38c.13-.79.31-1.57.47-2.36l.23-1.17.34-1.1c.24-.73.42-1.5.76-2.18a23.05 23.05 0 0 1 5.01-7.65c2.2-2.21 4.75-4.02 7.56-5.35a29.13 29.13 0 0 1 18.3-2.27 2.92 2.92 0 0 0 2.94-1.14l.02-.03a68.18 68.18 0 0 1 2.27-2.85 57.84 57.84 0 0 1 8.18-7.78 39.8 39.8 0 0 1 13.15-6.87c2.38-.68 4.83-1.09 7.3-1.2 2.48-.06 4.97.15 7.42.61l1.83.44.92.22.9.3 1.81.57 1.78.7c1.21.41 2.32 1.07 3.5 1.59 1.17.56 2.28 1.24 3.45 1.83l.07.04a.86.86 0 0 0 .92-1.44c-1.05-.83-2.11-1.69-3.22-2.46-.56-.38-1.14-.75-1.72-1.11-.28-.18-.57-.38-.86-.55l-.9-.49-1.82-.98c-.62-.29-1.26-.55-1.9-.82l-.95-.4-.99-.34c-.65-.22-1.31-.44-1.98-.64a33.64 33.64 0 0 0-16.7-.29c-5.53 1.22-10.63 3.81-15.16 7a54.37 54.37 0 0 0-9.32 8.3 52.97 52.97 0 0 0-2.72 3.3l2.97-1.17a34.91 34.91 0 0 0-22 2.7 32.63 32.63 0 0 0-9.2 6.53 28.85 28.85 0 0 0-6.23 9.52c-.42.86-.65 1.79-.94 2.7-.14.45-.29.9-.42 1.36l-.27 1.36c-.18.9-.38 1.8-.53 2.71l-.3 2.75c-.28 3.67-.22 7.38.37 11a53.18 53.18 0 0 0 5.07 15.54c.43.8.85 1.61 1.33 2.4.22.4.46.8.72 1.2l.38.6.44.63a2.9 2.9 0 0 0 4.74-3.31l-.06-.12Z"/><path fill="#004091" d="M213.45 288.1a25.41 25.41 0 0 1 2.66.65 30.13 30.13 0 0 1 7.8 3.56c3.21 2.05 5.9 4.8 7.7 8.1 1.8 3.29 2.68 7.11 2.74 11.02.1 3.91-.53 7.9-1.6 11.8a1.75 1.75 0 0 0 3.35 1 44.75 44.75 0 0 0 2.33-12.8 28 28 0 0 0-2.7-13.14c-2-4.14-5.18-7.67-8.88-10.28a35.37 35.37 0 0 0-9.01-4.62 32.71 32.71 0 0 0-3.39-.96 2.9 2.9 0 1 0-1.04 5.7l.04-.02ZM257.94 252.1a148.51 148.51 0 0 1-45.43 14.85 161.2 161.2 0 0 1-15.9 1.76c-5.31.35-10.64.43-15.97.23-5.3-.2-10.61-.64-15.8-1.48-2.62-.39-5.16-.96-7.66-1.6-1.2-.37-2.45-.7-3.55-1.16-.28-.12-.59-.21-.83-.33l-.73-.38c-.5-.2-.96-.58-1.44-.89-.51-.3-.9-.67-1.3-1.02-.45-.34-.7-.75-1.05-1.12-.55-.79-1-1.57-1.1-2.42a5.89 5.89 0 0 1 .48-3.38c.1-.24.2-.47.32-.69.1-.23.25-.44.38-.66l.36-.52.23-.37a2.85 2.85 0 0 0-1.17-4.06 15.57 15.57 0 0 1-4.11-2.85 7.74 7.74 0 0 1-1.35-1.74c-.35-.6-.6-1.24-.72-1.91a8.22 8.22 0 0 1 .46-4.33 13.82 13.82 0 0 1 1.72-3.3l.36-.5a13 13 0 0 1 .33-.4l.63-2.65a7.67 7.67 0 0 1-.27-2.19c.03-.64.16-1.14.48-1.6.56-.93 1.97-1.83 3.69-2.43 1.72-.6 3.64-1.05 5.62-1.38a104 104 0 0 1 6.07-.8c8.25-.85 16.75-1.26 25.2-2.62 8.42-1.36 16.72-3.4 24.81-6.09a111.5 111.5 0 0 0 11.88-4.75c1.93-.92 3.82-1.9 5.68-2.97 1.86-1.1 3.65-2.2 5.41-3.58a1.08 1.08 0 0 0-1.22-1.78l-.06.04a81.76 81.76 0 0 1-11.07 5.4 124.56 124.56 0 0 1-11.73 4.1 155.3 155.3 0 0 1-24.33 5.13c-8.2 1.03-16.54 1.25-25.04 1.88-2.13.17-4.26.36-6.44.68a36.7 36.7 0 0 0-6.63 1.52c-.56.16-1.14.44-1.7.66-.3.13-.58.29-.86.43a10.03 10.03 0 0 0-4.59 4.44c-.16.35-.31.72-.45 1.08a9.4 9.4 0 0 0-.43 2.22c-.14 1.48.1 2.79.37 4.05l.64-2.64c-.27.32-.41.5-.6.75a24.04 24.04 0 0 0-1.43 2.16 19.66 19.66 0 0 0-1.49 3.17c-.8 2.22-1.2 4.81-.68 7.4a13 13 0 0 0 3.64 6.62 21.24 21.24 0 0 0 5.63 3.95l-.94-4.44c-.28.37-.54.75-.79 1.15-.2.36-.43.72-.6 1.1-.2.37-.37.76-.52 1.15a11.56 11.56 0 0 0-.73 6.54 11.1 11.1 0 0 0 2.25 4.86c.56.63 1.1 1.33 1.73 1.81l.93.79c.3.27.64.45.96.67.66.42 1.27.88 2.02 1.2l1.09.53c.36.17.7.28 1.05.42 1.4.56 2.78.9 4.16 1.3 2.72.67 5.47 1.19 8.25 1.56 5.49.77 10.98 1.12 16.47 1.21 5.48.1 10.97-.1 16.43-.57 5.46-.42 10.9-1.18 16.28-2.14 5.4-.95 10.73-2.2 15.99-3.72a126.07 126.07 0 0 0 30.1-12.92 1.4 1.4 0 0 0-1.38-2.43h-.01Z"/><path fill="#fff" d="M42.1 227.25c6.2-6.2-.92-10.24-.92-10.24s17.37-2.17 7.13-16.75c0 0 6.1 1.5 7.44-4.65.37-1.64-.36-3.47-1.86-5.23-7.17-8.43-32.12-15.33-40.01 6.62-.3.82-.55 1.62-.76 2.41-6.28 23.44 22.98 33.84 28.98 27.84Z"/><path fill="#004091" d="M36.73 231.84c3 0 5.65-.77 7.42-2.54 3.21-3.21 3.58-6.16 3.32-8.06a7.94 7.94 0 0 0-.9-2.7c2.65-1.08 5.61-2.96 7.05-6.2 1.24-2.81 1.07-6.02-.51-9.55.57-.2 1.12-.47 1.64-.8 1.36-.83 3.12-2.52 3.83-5.76 1.48-6.73-6.99-13.03-15.7-15.54-11.48-3.3-25.85-1.02-31.73 15.33C6.7 208.4 10.7 220 21.84 227.06c4.51 2.87 10.15 4.78 14.9 4.78Zm11.6-34.47a2.91 2.91 0 0 0-2.4 4.56c1.67 2.37 3.44 5.7 2.4 8.06-1.2 2.74-5.96 3.95-7.52 4.15a2.88 2.88 0 0 0-1.06 5.4c.45.26 1.83 1.32 1.98 2.5.14 1.1-.83 2.32-1.67 3.17-1.42 1.41-8.23 1.33-15.12-3.03-4.17-2.65-13.33-10.3-8.34-24.19 5.7-15.84 20.32-12.99 24.67-11.73 7.92 2.28 12.05 6.95 11.65 8.73-.39 1.79-1.23 2.2-1.93 2.4-.66.17-1.36.19-2.03.06a3 3 0 0 0-.62-.07Z"/><path fill="#fff" stroke="#004091" stroke-linejoin="round" stroke-width="5" d="M196.16 36.03a2.5 2.5 0 0 1-.12-4.15 220.13 220.13 0 0 1 21.57-13.79c12.02-6.58 21.93-9.77 29.68-9.23 3.95.27 7.38 1.51 10.19 3.78 2.79 2.25 4.8 5.4 6.16 9.21 2.69 7.56 2.93 18.15 1.22 31.24-1.72 13.17-5.46 29.16-11 47.7a716.67 716.67 0 0 1-8.9 27.5 2.5 2.5 0 0 1-4.86-.66c-.04-.72-.09-1.42-.15-2.1v-.02c-1.93-25.39-9.66-52.19-25.9-72.5a88.16 88.16 0 0 0-17.89-16.98Z"/><path fill="#B8311E" stroke="#004091" stroke-linejoin="round" stroke-width="5" d="M209.28 46.78a2.5 2.5 0 0 1-.14-3.96c6.5-5.39 12.41-9.81 17.73-13.27 10.37-7.4 18.76-11.35 25.21-11.44 3.37-.06 6.29.94 8.58 3.08 2.23 2.09 3.63 5.05 4.45 8.55 1.61 6.93 1.1 16.81-.96 29-2.09 12.26-5.8 27.15-10.85 44.22a762.9 762.9 0 0 1-8.03 25.39 2.5 2.5 0 0 1-4.87-.75 127 127 0 0 0-.04-1.8c-2.97-23.47-6.9-41.56-18.24-62.43l-2.55-3.81c-1.21-1.84-2.4-3.64-3.7-5.44-2.12-2.95-4.26-5.5-6.59-7.34Z"/><path fill="#fff" stroke="#004091" stroke-linejoin="round" stroke-width="5" d="M127.57 35.96a2.5 2.5 0 0 0-.2-4.15c-8.3-5.02-15.8-9.07-22.53-12.13-12.49-5.66-22.6-8.1-30.3-6.98a17.78 17.78 0 0 0-9.86 4.53c-2.62 2.46-4.4 5.74-5.47 9.65-2.1 7.74-1.56 18.32 1.13 31.24 2.7 13 7.63 28.67 14.55 46.74 3.22 8.4 6.86 17.32 10.93 26.76a2.5 2.5 0 0 0 4.8-1.02l-.02-2.11v-.02c.03-25.45 5.73-52.76 20.4-74.23a88.11 88.11 0 0 1 16.57-18.28Z"/><path fill="#B8311E" stroke="#004091" stroke-linejoin="round" stroke-width="5" d="M115.29 47.67a2.5 2.5 0 0 0-.15-3.97 195.74 195.74 0 0 0-18.68-11.9c-10.9-6.6-19.55-9.9-26-9.52-3.36.2-6.2 1.41-8.32 3.72-2.06 2.25-3.24 5.3-3.8 8.86-1.08 7.03.16 16.85 3.14 28.84 3 12.08 7.82 26.64 14.12 43.29a765.18 765.18 0 0 0 9.91 24.71 2.5 2.5 0 0 0 4.8-1.1l-.09-1.81c1.2-23.63 3.77-41.96 13.5-63.62.8-1.35 1.53-2.68 2.27-3.99 1.07-1.92 2.12-3.8 3.28-5.7 1.9-3.1 3.83-5.8 6.02-7.81Z"/><path fill="#fff" stroke="#004091" stroke-width="5" d="M58.6 115.73a69.86 69.86 0 0 0 14.14 41.74c11.01 14.57 29.72 27.57 60.4 33.46a156.26 156.26 0 0 0 58.75 0c30.68-5.9 49.39-18.9 60.4-33.46a69.86 69.86 0 0 0 14.14-41.74H58.6Zm0 0c.01-8.22 1.69-17.58 5.26-27.13 8.55-22.92 28.05-47.2 61.94-59.8a124.3 124.3 0 0 1 6.93-2.36 101.93 101.93 0 0 1 59.57 0M58.6 115.73l133.7-89.29m0 0c2.08.64 4.1 1.32 6.1 2.05m-6.1-2.05 6.1 2.05m0 0c34.8 12.66 54.6 37.56 63.06 60.9L198.4 28.5Zm63.06 60.9c3.37 9.29 4.96 18.35 4.97 26.34l-4.97-26.34Z"/><path fill="#B8311E" d="M187.72 79.47c-3.01-7.51.59-13.03 2.96-11.14 2.21 1.77-1.67 5.92-2.96 11.14ZM194.76 77.68c-1.33-5.72 3.42-9.9 5.1-8.01 1.64 1.84-2.67 3.59-5.1 8.01ZM200.92 78.12c.84-6.68 5.59-5.81 5.68-4.13.12 2.14-2.5 1.37-5.68 4.13Z"/><path fill="#004091" d="M206.6 99.34c0-3.02-1.5-6.12-4.26-8.46a17.82 17.82 0 0 0-11.07-3.97c-1.07-.01-2.15.06-3.22.2-.53.09-1.06.2-1.57.32l-.78.19c-.26.07-.5.16-.76.25a15.53 15.53 0 0 0-5.24 2.96 12.37 12.37 0 0 0-3.16 4.2c-.66 1.48-1 3.02-.98 4.57 0 .05.02.1.06.15.05.04.11.07.18.09a.4.4 0 0 0 .2-.02.32.32 0 0 0 .16-.12c.9-1.33 1.8-2.58 2.84-3.68a16.28 16.28 0 0 1 3.46-2.86 15.85 15.85 0 0 1 8.53-2.27c3.01.06 6 .91 8.56 2.41a20.17 20.17 0 0 1 6.44 6.17.3.3 0 0 0 .16.11.4.4 0 0 0 .2.01.35.35 0 0 0 .18-.1c.04-.04.07-.1.07-.16v.01Z"/><path fill="#B8311E" d="M111.35 79.47c3.01-7.51-.6-13.03-2.96-11.14-2.21 1.77 1.67 5.92 2.96 11.14ZM104.3 77.68c1.34-5.72-3.41-9.9-5.1-8.01-1.64 1.84 2.67 3.59 5.1 8.01ZM98.15 78.12c-.84-6.68-5.59-5.81-5.68-4.13-.12 2.14 2.5 1.37 5.68 4.13Z"/><path fill="#004091" d="M92.46 99.34c0-3.02 1.5-6.12 4.27-8.46a17.83 17.83 0 0 1 11.07-3.97c1.07-.01 2.15.06 3.21.2.53.09 1.06.2 1.58.32l.78.19a15.54 15.54 0 0 1 6 3.21 12.36 12.36 0 0 1 3.16 4.2c.66 1.48 1 3.02.98 4.57 0 .05-.02.1-.07.15a.33.33 0 0 1-.17.09.4.4 0 0 1-.21-.02.32.32 0 0 1-.16-.12c-.9-1.33-1.8-2.58-2.84-3.68a16.28 16.28 0 0 0-3.45-2.86 15.85 15.85 0 0 0-8.53-2.27c-3.01.06-6 .91-8.57 2.41a20.17 20.17 0 0 0-6.43 6.17.3.3 0 0 1-.16.11.4.4 0 0 1-.2.01.35.35 0 0 1-.18-.1.23.23 0 0 1-.07-.16v.01ZM138.62 114.88c-1.58-1.2-2.9-2.7-3.88-4.42a4.13 4.13 0 0 1 1.02-5.26c4.34-3.44 9.9-3.2 9.9-3.2s5.58-.23 9.92 3.2a4.13 4.13 0 0 1 1.01 5.26 14.64 14.64 0 0 1-3.87 4.42 11.46 11.46 0 0 1-14.1 0Z"/><path fill="#fff" d="M140.33 106.89c0 1.42 2.39 1.1 5.34 1.1 2.95 0 5.34.32 5.34-1.1 0-1.42-2.4-2.57-5.34-2.57-2.95 0-5.34 1.15-5.34 2.57Z"/><path fill="#B8311E" d="M204.5 132.38c-7.27 0-13.16-4.66-13.16-10.42 0-5.75 5.9-10.41 13.16-10.41 7.27 0 13.16 4.66 13.16 10.41 0 5.76-5.9 10.42-13.16 10.42Z"/><path fill="#004091" d="M210.9 109.54a35.7 35.7 0 0 0 6.15-.84 60.9 60.9 0 0 0 11.6-3.77c1.87-.83 3.7-1.75 5.46-2.94-2.11.08-4.14.42-6.14.84a59.7 59.7 0 0 0-11.6 3.77c-1.87.84-3.7 1.76-5.46 2.94ZM210.9 124.25a41.2 41.2 0 0 0 6.45 1.8 72.47 72.47 0 0 0 13.13 1.4c2.2.04 4.43-.05 6.68-.4a41.2 41.2 0 0 0-6.45-1.8 72.44 72.44 0 0 0-13.13-1.4c-2.2-.03-4.42.05-6.67.4ZM207.86 138.85a32.17 32.17 0 0 0 4.5 3.75 54.44 54.44 0 0 0 10.08 5.59c1.79.73 3.61 1.4 5.58 1.82a31.76 31.76 0 0 0-4.5-3.76 53.92 53.92 0 0 0-10.09-5.57 32.58 32.58 0 0 0-5.57-1.83Z"/><path fill="#B8311E" d="M94.77 132.38c7.27 0 13.16-4.66 13.16-10.42 0-5.75-5.89-10.41-13.16-10.41-7.26 0-13.16 4.66-13.16 10.41 0 5.76 5.9 10.42 13.16 10.42Z"/><path fill="#004091" d="M88.36 109.54a35.7 35.7 0 0 1-6.14-.84 60.94 60.94 0 0 1-11.6-3.77 35.42 35.42 0 0 1-5.46-2.94c2.12.08 4.14.42 6.14.84a59.73 59.73 0 0 1 11.6 3.77 36.1 36.1 0 0 1 5.46 2.94ZM88.36 124.25a41.18 41.18 0 0 1-6.44 1.8 72.45 72.45 0 0 1-13.13 1.4c-2.2.04-4.43-.05-6.68-.4a41.23 41.23 0 0 1 6.45-1.8 72.45 72.45 0 0 1 13.13-1.4c2.2-.03 4.42.05 6.67.4ZM91.41 138.85a32.13 32.13 0 0 1-4.5 3.75 54.43 54.43 0 0 1-10.08 5.59 32 32 0 0 1-5.58 1.82 31.81 31.81 0 0 1 4.5-3.76 54.06 54.06 0 0 1 10.09-5.57c1.78-.75 3.61-1.4 5.57-1.83ZM123.58 121.61c.3 1.24.74 2.45 1.32 3.58l.46.88.55.85c.19.3.4.58.61.85.22.29.45.56.7.81a9.82 9.82 0 0 0 9.09 3.2c.82-.14 1.62-.38 2.38-.72.36-.16.74-.32 1.08-.5l.99-.57c1.2-.77 2.3-1.68 3.28-2.7a23.66 23.66 0 0 0 3.56-4.72c.33-.56.6-1.1.94-1.8l-6.4-.6c.7 2.17 1.56 4.37 2.94 6.51a15.66 15.66 0 0 0 2.56 3.07c1.09 1 2.35 1.78 3.73 2.31 1.41.51 2.9.76 4.4.72 1.39-.08 2.75-.34 4.05-.8a19.23 19.23 0 0 0 5-2.62c.25-.17.5-.37.75-.56.25-.18.46-.36.8-.66a3.48 3.48 0 1 0-4.52-5.3l-.18.15-.4.33c-.17.13-.33.26-.5.37a13.02 13.02 0 0 1-3.22 1.72 8.1 8.1 0 0 1-2.02.4c-.58.02-1.15-.07-1.7-.26-1.02-.37-2.03-1.3-2.9-2.65a20.53 20.53 0 0 1-2.14-4.81 3.44 3.44 0 0 0-5.93-1.16l-.47.56-.84 1.17-.92 1.21c-.6.78-1.24 1.53-1.93 2.23a15.9 15.9 0 0 1-1.98 1.78c-.57.41-1.2.74-1.86.97-.53.17-1.08.2-1.62.1a5.77 5.77 0 0 1-2-.88c-1.5-.94-2.99-2.5-4.59-4.1l-.05-.06a1.8 1.8 0 0 0-3.02 1.7Z"/><path fill="#004091" d="M144.84 143.02c5.3 0 9.68-5.36 11.13-13.65a3.47 3.47 0 0 0-2.17-3.85c-2-.77-3.73-3.34-5-7.43a3.49 3.49 0 0 0-6.4-.6c-.83 1.56-3.68 5.89-6.73 7.16a3.48 3.48 0 0 0-2.1 3.7c1.22 8.78 5.75 14.67 11.27 14.67Zm3.73-12.5c-1.11 3.84-2.9 5.54-3.73 5.54-.97 0-2.9-2.13-3.94-6.39 1.42-1 2.72-2.18 3.86-3.5a15.05 15.05 0 0 0 3.81 4.34ZM160.95 111.3a21.9 21.9 0 0 0-1.35 7.2c-.05 2.5.31 5 1.08 7.39a16.8 16.8 0 0 0 4 6.69c1.9 1.88 4.31 3.22 6.83 3.6a1.58 1.58 0 0 0 1.42-2.6l-.09-.1a29.28 29.28 0 0 1-3.6-4.64 26 26 0 0 1-2.33-5.03 41.7 41.7 0 0 1-1.42-5.74c-.18-1-.34-2.02-.5-3.06-.15-1.02-.27-2.13-.44-3.1l-.03-.22a1.86 1.86 0 0 0-3.57-.4ZM149.96 147.75c.01-.04-.06-.04-.1-.04h-.5l-.69.02-1.36.02c-.88 0-1.74 0-2.6-.07-.86-.07-1.73-.13-2.65-.24-.47-.02-.94-.12-1.46-.13-.51 0-1.03-.1-1.64-.06l-.47.03a2.31 2.31 0 0 0-1.68 3.68 8.78 8.78 0 0 0 3.25 2.65 11.75 11.75 0 0 0 10.5-.26c.33-.18.64-.38.94-.6.15-.1.3-.22.46-.35l.5-.44a2.45 2.45 0 0 0-2.5-4.2v-.01Z"/><path fill="#fff" d="M2.9 124.42c0 23.73 21.38 19.08 21.38 19.08s-4.41 15.35 16.52 15.35c20.94 0 19.31-21.63 12.57-26.98H71.5l-.26-3.3-.07-.88-.83-10.25H49.18c.63-.23 1.25-.5 1.84-.82 3.04-1.58 8.74-5.49 8.74-12.67 0-1.22-.15-2.44-.45-3.62-1.88-7.25-9.46-10.57-17.12-10.57-1.9 0-3.8.29-5.63.85-6.42 1.96-11.38 7.08-10.65 12.99 0 0-.57-.07-1.53-.1-2.79-.1-8.93.2-13.94 3.71-4.16 2.94-7.53 8.12-7.53 17.21Z"/><path fill="#004091" d="m70.35 116.36-21.17-1.81.96 5.62c.3-.1.44-.17.65-.25l.57-.25a23.18 23.18 0 0 0 6.9-4.9 16.6 16.6 0 0 0 2.89-4.17 14.91 14.91 0 0 0 1.41-5c.17-1.68.1-3.39-.23-5.05-.33-1.7-.95-3.35-1.83-4.85a16.85 16.85 0 0 0-7.54-6.6 25.21 25.21 0 0 0-9.24-2.2 23.07 23.07 0 0 0-9.47 1.45 19.53 19.53 0 0 0-8.06 5.6A13.13 13.13 0 0 0 23 101.2c-.1.9-.08 1.83.02 2.74l3.12-3.24a19.54 19.54 0 0 0-2.48-.03 32.25 32.25 0 0 0-7 1c-3.07.8-6.11 2.15-8.74 4.23a19.8 19.8 0 0 0-5.98 7.92 26.67 26.67 0 0 0-1.93 9.4c-.1 3.08.15 6.25 1.06 9.4a18.83 18.83 0 0 0 5.16 8.58 19.92 19.92 0 0 0 8.82 4.6 26.46 26.46 0 0 0 7.14.74 24.52 24.52 0 0 0 2.5-.2l-3.2-3.66c-.09.33-.12.5-.17.72l-.11.63a18.5 18.5 0 0 0-.19 3.7c.1 1.71.49 3.4 1.17 4.97.7 1.61 1.74 3.07 3.04 4.26a15.36 15.36 0 0 0 4.22 2.75 26 26 0 0 0 9 1.96c2.88.16 5.98.06 9.02-.72 3.05-.78 6.1-2.3 8.44-4.72a17.33 17.33 0 0 0 4.45-8.64c.62-3.11.54-6.32-.22-9.4a19.63 19.63 0 0 0-1.7-4.5 13.09 13.09 0 0 0-3.28-4.1l-1.8 5.16 18.14-1.97a.94.94 0 0 0 0-1.86l-18.14-1.96a2.72 2.72 0 0 0-2.41 4.4l.61.77a7.4 7.4 0 0 1 1.78 2.28c.52 1 .92 2.06 1.18 3.16.56 2.25.62 4.6.18 6.87a11.34 11.34 0 0 1-2.93 5.75 12.17 12.17 0 0 1-5.73 3.15c-2.25.58-4.7.7-7.26.55a20.4 20.4 0 0 1-6.97-1.46c-2.02-.91-3.55-2.25-4.31-4.06a8.62 8.62 0 0 1-.7-2.98 10.69 10.69 0 0 1 .13-2.43l.07-.38.06-.28.04-.14a2.92 2.92 0 0 0-3.25-3.52 14.26 14.26 0 0 1-1.78.13 20.92 20.92 0 0 1-5.62-.58 13.92 13.92 0 0 1-6.25-3.22A13.01 13.01 0 0 1 6.66 131a24.43 24.43 0 0 1-.83-7.58c.1-2.59.53-5.11 1.48-7.34.9-2.2 2.36-4.14 4.24-5.63a17.94 17.94 0 0 1 6.6-3.16 25.03 25.03 0 0 1 7.53-.8h.05a2.87 2.87 0 0 0 3.06-3.25 7.3 7.3 0 0 1 1.86-5.6 13.9 13.9 0 0 1 5.68-3.9 16.3 16.3 0 0 1 7.1-1.05c2.5.12 4.95.66 7.1 1.65 2.14.98 3.91 2.46 5 4.3.54.93.92 1.95 1.13 3.02.21 1.1.26 2.22.15 3.34a9.85 9.85 0 0 1-2.77 5.81 15.22 15.22 0 0 1-4.28 3.19l-.8.4-.4.17-.34.14.97 5.63 21.17-1.81a1.09 1.09 0 0 0 .71-1.83 1.1 1.1 0 0 0-.71-.34l-.01-.01Z"/><path fill="#004091" d="M23.04 103.93a18.05 18.05 0 0 0 .65 2.26 17.96 17.96 0 0 0 3.27 5.75 13.33 13.33 0 0 0 3.42 2.88l.98.54 1.03.41.52.2.53.14 1.06.25a1.43 1.43 0 0 0 .95-2.7l-.21-.09-.76-.35-.37-.17-.35-.22-.69-.44-.61-.52a9.4 9.4 0 0 1-1.98-2.5 13.31 13.31 0 0 1-1.55-4.6 13.35 13.35 0 0 1-.14-1.5 2.96 2.96 0 1 0-5.83.23l.08.43ZM24.28 146.4c1.37-.08 2.7-.43 3.92-1.02a15.6 15.6 0 0 0 7.2-7.5c.94-2.13 1.35-4.62.88-6.99a11.64 11.64 0 0 0-3.3-5.98A1.6 1.6 0 0 0 30.6 127l.03.04a8.13 8.13 0 0 1 1.86 4.4 7.63 7.63 0 0 1-1.11 4.43 10.82 10.82 0 0 1-3.28 3.46c-.63.42-1.31.76-2.03 1.01-.57.2-1.18.3-1.79.26a2.9 2.9 0 0 0-.57 5.78c.14.02.28.02.42.01h.15ZM49.18 114.57l-5.12-.38a3.27 3.27 0 1 0 0 6.5l5.12-.38a2.88 2.88 0 0 0 0-5.74ZM53.37 128.97l-9.3-1.06a3.98 3.98 0 1 0 0 7.91l9.3-1.06a2.91 2.91 0 0 0 0-5.79Z"/></svg>