<svg xmlns="http://www.w3.org/2000/svg" width="300" height="397" fill="none"><path fill="#004091" fill-rule="evenodd" d="M35.9 253.82c26-16.86 70.08-24.41 113.9-24.18 46.96.26 93.73 9.41 117.68 25.43l-1.5 2.24c-23.52-15.73-69.7-24.72-116.2-24.97-43.35-.23-86.88 7.1-112.41 23.75l-1.48-2.27Z" clip-rule="evenodd"/><path fill="#004091" fill-rule="evenodd" d="M149.52 219.64c68.75 0 125.85 17.33 125.85 33.45 0 16.1-55.49 31.62-124.24 31.62-68.76 0-124.75-15.55-124.75-31.62 0-16.08 54.38-33.45 123.14-33.45Z" clip-rule="evenodd"/><path fill="#004091" fill-rule="evenodd" d="M149.52 218.01c33.43 0 64.14 4.1 86.94 10.15 24.86 6.61 40.53 15.82 40.53 24.93 0 8.63-13.6 15.17-35.62 19.53-23.17 4.58-55.64 12.77-91.85 12.69-35.52-.08-67.62-8.09-90.08-12.63-21.58-4.35-35.61-12.36-35.61-21.02 0-9.15 15.98-16.97 40.35-23.6 22.1-6 52.03-10.05 85.3-10.05h.04Zm86.1 13.32c-22.53-6-52.94-10.03-86.1-10.03-32.97 0-62.6 4-84.45 9.93C42.16 237.44 28 245.56 28 253.13c0 6.84 12.13 12.42 32.07 16.42 22.2 4.5 54.18 12.47 89.45 12.55 35.97.08 68.27-8.08 91.23-12.63 20.42-4.03 33-9.55 33-16.35 0-7.55-14.68-15.61-38.11-21.83l-.01.04Z" clip-rule="evenodd"/><path fill="#B8311E" fill-rule="evenodd" d="M36.26 253.58c19.05-12.24 47.61-19.53 78.64-22.43.7-2.76.92-5.62.68-8.45-19.26 1.67-36.5 4.69-50.52 8.5-18.9 5.13-31.84 11.54-35.8 17.87.43.24.84.5 1.24.77 1.63 1.03 3.23 2.12 4.85 3.16l.9.58ZM265.49 253.54c-19.06-12.24-47.62-19.53-78.65-22.43-.7-2.76-.92-5.62-.68-8.45 19.26 1.67 36.5 4.69 50.52 8.5 18.9 5.13 31.84 11.53 35.8 17.87-.43.24-.84.5-1.24.77-1.63 1.03-3.23 2.12-4.85 3.16l-.9.58Z" clip-rule="evenodd"/><path fill="#fff" d="m247.48 143.98-.23 1.67-.89-1.01a145.12 145.12 0 0 0-11.14-24.87 129.77 129.77 0 0 0-17.2-23.73 109.36 109.36 0 0 0-38.6-27.27l-.35-.4c33.19-29.94 53.89-34.67 64.27-18.59 9.58 14.85 10.4 47.4 4.14 94.2Z"/><path fill="#B8311E" d="M247.48 143.99a213.44 213.44 0 0 0-12.26-24.22 168.07 168.07 0 0 0-8.02-12.28 139.43 139.43 0 0 0-9.18-11.44c-4.66-5.23-9.7-9.97-15.05-14.16C222.4 33.5 243.33 49.8 243.33 49.8A40.74 40.74 0 0 1 248.1 61c4.85 17.44 4.36 45.68-.62 82.99Z"/><path fill="#004091" d="M247.42 148.89c-.41.03-.82-.06-1.2-.24a2.82 2.82 0 0 1-1-.84c-.28-.36-.48-.8-.6-1.26a3.84 3.84 0 0 1-.08-1.44c7.64-56.07 4.92-89.19-8.07-98.43-10.7-7.6-29.44.56-55.72 24.27-.58.51-1.3.73-2.02.61a2.72 2.72 0 0 1-1.8-1.25 3.7 3.7 0 0 1-.56-2.39 3.4 3.4 0 0 1 1.03-2.14c28.64-25.83 48.88-33.9 61.88-24.65 15.33 10.9 18.83 45.26 10.68 105.05-.1.73-.4 1.4-.86 1.89-.47.49-1.06.78-1.68.82Z"/><path fill="#004091" d="M203.12 84.71a2.1 2.1 0 0 1-1.2-.3c-.38-.22-.7-.55-.93-.96a3.22 3.22 0 0 1-.18-2.8c8.05-20.06 17.43-31.96 27.87-35.37 9.2-3.01 15.7 1.92 15.97 2.14.53.42.9 1.06 1.03 1.8.13.73.01 1.5-.33 2.12a2.42 2.42 0 0 1-1.5 1.22 2.1 2.1 0 0 1-1.81-.4c-.22-.16-5.1-3.74-12.19-1.36-8.86 2.97-17.4 14.15-24.7 32.3-.18.46-.47.85-.82 1.14-.36.28-.78.45-1.2.47Z"/><path fill="#fff" d="M123.5 69.64a105.5 105.5 0 0 0-23.88 10.38c-22.9 13.52-38.55 34.42-47.73 55.3l-.75 1.74a496.32 496.32 0 0 1-1.46-24.72c-2.09-66.22 14.13-91.16 55.75-58.8a208.8 208.8 0 0 1 18.08 16.1Z"/><path fill="#B8311E" d="M100.97 80.66a109.19 109.19 0 0 0-15.89 12.2c-6.53 6.01-12.67 13-18.41 20.94a192.28 192.28 0 0 0-13.6 21.87l-.02-.28a486.37 486.37 0 0 1-1.31-23.01c-1-32.18 2.33-54.58 10.8-65.37 0 0 16.43-10.31 31.63 17.91 2.24 4.16 4.46 9.17 6.6 15.17l.2.56Z"/><path fill="#004091" d="M50.8 140.11a2.65 2.65 0 0 1-1.63-.91c-.44-.5-.7-1.16-.76-1.85-4.72-57.17.72-89.35 16.62-98.4 13.5-7.66 33.21 1.62 60.3 28.4.28.26.5.58.66.94a3.38 3.38 0 0 1-.4 3.41c-.24.3-.53.55-.85.73a2.52 2.52 0 0 1-3.04-.48C96.84 47.38 78.6 38.13 67.5 44.44c-13.47 7.66-18.07 38.73-13.64 92.34.04.46-.01.92-.16 1.36-.14.43-.37.82-.66 1.14-.3.32-.66.56-1.05.7-.39.15-.8.2-1.2.13Z"/><path fill="#004091" d="M98.95 83.16a2.28 2.28 0 0 1-1.18-.55c-.34-.3-.6-.7-.77-1.15-6.29-18.01-14.24-29.42-22.99-33-7-2.87-12.13.17-12.34.3-.56.36-1.23.44-1.84.24a2.5 2.5 0 0 1-1.46-1.3 3.03 3.03 0 0 1-.2-2.07c.17-.7.58-1.28 1.15-1.63.28-.18 7.1-4.38 16.2-.73 10.3 4.13 19.05 16.3 26 36.2a3.06 3.06 0 0 1-.35 2.67c-.26.37-.6.66-.99.84-.39.18-.81.25-1.23.19Z"/><path fill="#fff" d="M255.91 160.66c.01 22.78-12.68 63.65-75.47 75.7a160.07 160.07 0 0 1-60.17 0c-62.79-12.05-75.48-52.92-75.46-75.7 0-7.98 1.59-17.1 5-26.52 8.57-23.63 28.65-48.93 64.1-61.83a103.5 103.5 0 0 1 66.7-2.09c2.4.75 4.76 1.55 7.06 2.4 34.5 12.85 54.28 37.51 62.94 60.71 3.62 9.68 5.3 19.12 5.3 27.33Z"/><path fill="#004091" d="M150.36 242.11c-10.32 0-20.61-.96-30.7-2.89-28.47-5.46-49.69-17.18-63.07-34.84a72.08 72.08 0 0 1-14.67-43.24c0-16.74 6.5-35.42 17.82-51.23 13.95-19.5 34.5-33.85 59.45-41.5a107.35 107.35 0 0 1 62.34 0c24.94 7.65 45.5 22 59.45 41.5 11.32 15.81 17.81 34.49 17.82 51.23 0 8.9-1.9 26.37-14.68 43.24-13.38 17.66-34.6 29.38-63.06 34.84a163.43 163.43 0 0 1-30.7 2.9Zm0-173.4c-10-.01-19.93 1.46-29.4 4.35-50.5 15.5-73.53 56.53-73.55 88.08 0 13.89 5.26 60.2 73.4 73.27 19.48 3.7 39.62 3.7 59.1 0 68.13-13.07 73.4-59.38 73.4-73.27-.02-31.55-23.05-72.58-73.56-88.08a100.4 100.4 0 0 0-29.4-4.36Z"/><path fill="#B8311E" d="M90.95 183.53c8.12 0 14.7-5.2 14.7-11.64 0-6.42-6.58-11.64-14.7-11.64s-14.7 5.22-14.7 11.64c0 6.43 6.58 11.64 14.7 11.64ZM210.53 183.53c8.12 0 14.7-5.2 14.7-11.64 0-6.42-6.58-11.64-14.7-11.64-8.13 0-14.7 5.22-14.7 11.64 0 6.43 6.57 11.64 14.7 11.64Z"/><path fill="#004091" d="M83.79 158a39.87 39.87 0 0 1-6.86-.93 67.88 67.88 0 0 1-12.97-4.22 39.52 39.52 0 0 1-6.1-3.28c2.36.08 4.62.46 6.86.94a66.4 66.4 0 0 1 12.97 4.21 40.4 40.4 0 0 1 6.1 3.28ZM83.79 174.44c-2.38.91-4.79 1.51-7.2 2.01a80.81 80.81 0 0 1-14.67 1.57c-2.48.05-4.96-.05-7.47-.43 2.37-.92 4.78-1.51 7.2-2.02A80.8 80.8 0 0 1 76.32 174c2.47-.03 4.95.06 7.47.44ZM87.2 190.76a35.88 35.88 0 0 1-5.04 4.2 60.67 60.67 0 0 1-11.26 6.24c-2 .83-4.04 1.58-6.24 2.04a35.62 35.62 0 0 1 5.04-4.2 60.54 60.54 0 0 1 11.27-6.23c2-.83 4.04-1.57 6.23-2.05ZM216.9 157.04a39.98 39.98 0 0 1 6.1-3.28 68.1 68.1 0 0 1 12.97-4.22c2.24-.47 4.5-.85 6.87-.93a39.5 39.5 0 0 1-6.1 3.28 67.19 67.19 0 0 1-12.97 4.21c-2.24.47-4.5.85-6.87.94ZM216.9 173.47c2.52-.38 5-.45 7.47-.43a78.04 78.04 0 0 1 14.67 1.57c2.42.48 4.83 1.1 7.2 2-2.5.4-5 .47-7.46.45a79.37 79.37 0 0 1-14.67-1.57c-2.42-.5-4.83-1.1-7.2-2.02ZM213.5 189.8c2.2.46 4.23 1.21 6.23 2.04a61.28 61.28 0 0 1 11.27 6.23 35.62 35.62 0 0 1 5.03 4.2 35.25 35.25 0 0 1-6.23-2.04 59.41 59.41 0 0 1-11.27-6.24 35.78 35.78 0 0 1-5.03-4.2ZM92.04 142.27c0-3.39 1.68-6.85 4.77-9.47 3.06-2.62 7.56-4.34 12.37-4.43 1.2-.02 2.4.06 3.6.23.59.09 1.18.2 1.76.35l.87.21.84.28c2.22.75 4.23 1.88 5.86 3.31a13.8 13.8 0 0 1 3.53 4.7 12.1 12.1 0 0 1 1.1 5.1c0 .06-.02.12-.07.17a.37.37 0 0 1-.2.1.45.45 0 0 1-.23-.02.36.36 0 0 1-.18-.13v-.01c-1-1.48-2-2.87-3.17-4.11a18.2 18.2 0 0 0-3.86-3.2 17.72 17.72 0 0 0-9.53-2.53 19.9 19.9 0 0 0-9.58 2.7 22.54 22.54 0 0 0-7.2 6.9c-.03.05-.1.09-.17.11a.44.44 0 0 1-.23.01.4.4 0 0 1-.2-.1.26.26 0 0 1-.07-.18ZM210.6 142.27c0-3.39-1.67-6.85-4.76-9.47-3.06-2.62-7.57-4.34-12.37-4.43-1.2-.02-2.4.06-3.6.23-.59.09-1.18.2-1.76.35l-.87.21-.84.28a17.34 17.34 0 0 0-5.86 3.31 13.82 13.82 0 0 0-3.53 4.7 12.1 12.1 0 0 0-1.1 5.1c0 .06.02.12.07.17.05.05.12.08.2.1.08.01.16 0 .23-.02a.36.36 0 0 0 .18-.13v-.01c1-1.48 2-2.87 3.17-4.11a18.2 18.2 0 0 1 3.86-3.2c2.74-1.7 6.12-2.59 9.53-2.53 3.37.06 6.71 1.02 9.58 2.7a22.55 22.55 0 0 1 7.2 6.9c.03.05.1.09.17.11.07.03.15.03.23.01a.4.4 0 0 0 .2-.1.26.26 0 0 0 .07-.18Z"/><path fill="#B8311E" d="M112.17 123.75c3.37-8.4-.66-14.57-3.3-12.45-2.48 1.97 1.86 6.61 3.3 12.45ZM104.3 121.75c1.49-6.4-3.82-11.07-5.7-8.96-1.84 2.06 2.98 4.01 5.7 8.96ZM97.42 122.23c-.94-7.46-6.25-6.49-6.35-4.6-.13 2.39 2.8 1.52 6.35 4.6ZM184.22 123.75c-3.37-8.4.65-14.57 3.3-12.45 2.48 1.97-1.86 6.61-3.3 12.45ZM192.09 121.75c-1.5-6.4 3.82-11.07 5.7-8.96 1.83 2.06-2.98 4.01-5.7 8.96ZM198.97 122.23c.94-7.46 6.24-6.49 6.35-4.6.13 2.39-2.8 1.52-6.35 4.6Z"/><circle cx="108.91" cy="141.38" r="10.12" fill="#004091"/><circle cx="10.12" cy="10.12" r="10.12" fill="#004091" transform="matrix(-1 0 0 1 203.86 131.26)"/><path fill="#FFC700" d="M132.52 197.61c-.11-8.16-5.78-20.08-5.78-20.08h46.27s5.67 11.92 5.78 20.08c.11 8.57-5.83 12.58-5.78 21.15.06 8.36 6.02 12.25 5.78 20.61-.22 7.57-5.84 10.93-5.78 18.5.06 7.38 5.78 17.98 5.78 17.98h-46.27s-5.72-10.6-5.78-17.97c-.06-7.58 5.56-10.94 5.78-18.5.24-8.37-5.72-12.26-5.78-20.62-.05-8.56 5.9-12.58 5.78-21.15Z"/><path stroke="#004091" stroke-linecap="round" stroke-width="6" d="M126.74 177.53s5.67 11.92 5.78 20.08c.11 8.57-5.83 12.58-5.78 21.15.06 8.36 6.02 12.25 5.78 20.61-.22 7.57-5.84 10.93-5.78 18.5.06 7.38 5.78 17.98 5.78 17.98M138.31 179.35s5.67 11.7 5.78 19.71c.11 8.4-5.84 12.35-5.78 20.75.05 8.22 6.02 12.03 5.78 20.24-.23 7.43-5.84 10.72-5.78 18.16.06 7.24 5.78 17.64 5.78 17.64M149.88 177.53s5.66 11.92 5.77 20.08c.12 8.57-5.83 12.58-5.77 21.15.05 8.36 6.02 12.25 5.77 20.61-.22 7.57-5.84 10.93-5.77 18.5.06 7.38 5.77 17.98 5.77 17.98M161.44 179.35s5.67 11.7 5.78 19.71c.12 8.4-5.83 12.35-5.78 20.75.06 8.22 6.03 12.03 5.78 20.24-.22 7.43-5.84 10.72-5.78 18.16.07 7.24 5.78 17.64 5.78 17.64M173.01 178.44s5.67 11.8 5.78 19.9c.11 8.48-5.83 12.46-5.78 20.95.06 8.28 6.02 12.14 5.78 20.42-.22 7.5-5.84 10.83-5.78 18.33.06 7.31 5.78 17.8 5.78 17.8"/><path fill="#004091" d="M153.7 166.55a14.2 14.2 0 0 1-.95 6.22 13.95 13.95 0 0 1-4 5.49 17.1 17.1 0 0 1-6.26 3.3c-2.26.63-4.64.88-7 .75a21.68 21.68 0 0 1-6.71-1.51c-2.08-.88-4-2.06-5.51-3.56a13.43 13.43 0 0 1-4.2-10.65.3.3 0 0 1 .09-.2.37.37 0 0 1 .21-.1.4.4 0 0 1 .23.05c.08.03.13.1.15.17.6 1.71 1.36 3.3 2.4 4.7a14.8 14.8 0 0 0 5.81 4.65c2.36 1.07 5 1.58 7.64 1.48 3.39-.08 6.62-1.2 8.8-3.12 2.23-1.9 3.37-4.59 3.7-7.67v-.07c0-.66.3-1.29.84-1.75a3 3 0 0 1 1.99-.7c.74.01 1.44.28 1.96.75.52.48.8 1.11.79 1.77h.02Z"/><path fill="#004091" d="M153.43 166.54c.31 3.08 1.42 5.78 3.58 7.68 2.13 1.91 5.28 3.04 8.56 3.12a15.8 15.8 0 0 0 7.44-1.46c2.3-1.08 4.24-2.69 5.64-4.67a17.9 17.9 0 0 0 2.33-4.7.31.31 0 0 1 .14-.19.37.37 0 0 1 .24-.05c.08 0 .16.04.21.1a.3.3 0 0 1 .1.2 13.8 13.8 0 0 1-.81 5.6c-.7 1.88-1.82 3.6-3.29 5.07a16.95 16.95 0 0 1-5.36 3.56 20.57 20.57 0 0 1-6.52 1.51c-2.3.13-4.6-.12-6.8-.76a16.53 16.53 0 0 1-6.1-3.3 13.94 13.94 0 0 1-4.8-11.7c-.01-.66.26-1.3.77-1.77.5-.47 1.19-.74 1.9-.75.73 0 1.42.25 1.94.7.52.46.81 1.1.82 1.75l.01.06Z"/><path fill="#004091" d="M158.62 163.08a16.37 16.37 0 0 0 4.33-4.94 4.62 4.62 0 0 0-1.13-5.88c-4.85-3.84-11.08-3.58-11.08-3.58s-6.23-.26-11.08 3.58a4.62 4.62 0 0 0-1.13 5.88c1.1 1.92 2.56 3.6 4.33 4.94a12.81 12.81 0 0 0 15.76 0Z"/><path fill="#fff" d="M156.7 154.15c0 1.58-2.66 1.22-5.96 1.22s-5.97.36-5.97-1.22c0-1.59 2.67-2.87 5.97-2.87s5.97 1.28 5.97 2.87Z"/><path fill="#004091" fill-rule="evenodd" d="M99.07 351.75a1.77 1.77 0 0 1 1.68-1.44 1.23 1.23 0 0 1 .97.41 1.22 1.22 0 0 1 .28 1.02c-.2 1-.3 2.02-.28 3.04a8.7 8.7 0 0 0 .75 3.8c3.35 6.42 27.62 11.31 49.92 11.16 19.43-.13 36.77-4.44 45.28-9.96 1.27-.83 1.35-2.34 1.44-4.1.04-1.1.17-2.2.38-3.28a1.72 1.72 0 0 1 1.77-1.35 1.21 1.21 0 0 1 .94.49 1.22 1.22 0 0 1 .22 1.03c-.18.94-.28 1.9-.3 2.86-.16 2.66-.27 4.88-3.05 6.68-8.95 5.78-26.7 10.37-46.65 10.54-23.31.2-48.7-5.04-52.6-12.48a11 11 0 0 1-1.03-4.94c-.03-1.17.07-2.34.28-3.49Z" clip-rule="evenodd"/><path fill="#fff" fill-rule="evenodd" d="M180.7 359.24c-25.8 4.87-54.15 3.83-79-4.36a8.45 8.45 0 0 0 .73 3.7c3.36 6.42 27.62 11.31 49.93 11.16 19.42-.13 36.77-4.44 45.27-9.96 1.27-.83 1.36-2.34 1.45-4.1 0-.36 0-.72.07-1.1a158.68 158.68 0 0 1-18.45 4.66Z" clip-rule="evenodd"/><path fill="#004091" fill-rule="evenodd" d="M23.63 252.1a3.34 3.34 0 0 1 .89-2.74 3.55 3.55 0 0 1 4.37-.47c.54.28 1.07.6 1.58.95 1.62 1.03 3.22 2.12 4.84 3.16a168.82 168.82 0 0 0 20.75 11.34C106 287.26 179.46 287 231.18 270c4.9-1.61 9.76-3.34 14.54-5.33a193.01 193.01 0 0 0 24.85-12.5c1.3-.75 2.8-1.77 1.61-4.63-.33-.8 2.49-.06 3.19.7 2.81 2.85 3.07 7.94 2.4 9.85-4.2 22.26-12.85 43.65-26.93 61.52-12 15.23-27.56 27.35-45.72 34.3-34.95 13.44-79.2 13.91-113.62-1.58-23.47-10.53-40.99-28.8-52.8-51.4a145.5 145.5 0 0 1-11.07-27.98 113.28 113.28 0 0 1-4-20.84Z" clip-rule="evenodd"/><path fill="#fff" fill-rule="evenodd" d="M26.86 251.76c1.6 19.53 15.67 75.05 65.96 97.65 34.08 15.25 77.48 14.42 111.21 1.54 33.13-12.68 61.55-44.83 70.7-93.66 0 0 1.83-4.76-2.43-2.25a187.7 187.7 0 0 1-40.04 18.08c-52.56 17.26-126.83 17.45-177.49-5.8-18.96-8.69-28.17-17-27.9-15.56Z" clip-rule="evenodd"/><path fill="#004091" fill-rule="evenodd" d="M27.01 266.92c55.62 40.15 180.55 44.75 245.9 2.88 5.87-3.75 1.88-1.12 1.6-1.55-.29-.42 1.09-2.5.66-2.21-31.88 20.17-73.1 29.54-115.32 30.32-47.56.89-91.97-6.4-132.98-31.96a1.56 1.56 0 0 0 .14 2.52Z" clip-rule="evenodd"/><path fill="#B8311E" fill-rule="evenodd" d="M32.82 265.48a1.35 1.35 0 0 1-2.32.94c-.25-.26-.39-.6-.39-.96 0-2.53-.14-7.54-.14-7.56a1.34 1.34 0 0 1 1.3-1.38c.25 0 .5.06.71.19l7.1 3.86a1.34 1.34 0 0 1 .72 1.19v7.04a1.33 1.33 0 0 1-2.05 1.16l-3.42-1.87a1.38 1.38 0 0 1-.71-1.25l-.06-3a1.33 1.33 0 0 1 1.33-1.35 1.36 1.36 0 0 1 1.36 1.33v2.28l.82.45v-3.97l-4.44-2.38c.13 1.67.19 3.94.19 5.28ZM43.46 271.2a1.34 1.34 0 0 1-1.36 1.33 1.36 1.36 0 0 1-1.35-1.35c0-2.54-.14-7.55-.14-7.57a1.34 1.34 0 0 1 2.02-1.2l7.1 3.86a1.37 1.37 0 0 1 .73 1.24v7.04a1.33 1.33 0 0 1-1.35 1.34c-.26 0-.5-.07-.72-.21l-3.42-1.96a1.37 1.37 0 0 1-.71-1.25l-.05-2.99a1.33 1.33 0 0 1 2.28-.97c.26.25.4.6.4.95v2.28l.82.45v-3.97l-4.44-2.39c.14 1.76.2 4.01.2 5.36ZM54.2 276.6a1.35 1.35 0 0 1-2.32.95c-.25-.25-.4-.6-.4-.96 0-2.53-.13-7.52-.13-7.53a1.35 1.35 0 0 1 1.3-1.39c.18 0 .36.03.53.1l7.16 2.87a1.37 1.37 0 0 1 .89 1.27v7.03a1.35 1.35 0 0 1-1.95 1.21l-3.4-1.4a1.37 1.37 0 0 1-.9-1.3l-.05-2.99a1.32 1.32 0 0 1 1.32-1.36 1.37 1.37 0 0 1 .96.38 1.35 1.35 0 0 1 .41.95v2.17l.82.33v-4.1L54 271.07c.14 1.71.2 4.14.2 5.55ZM65.37 281.24a1.33 1.33 0 0 1-1.35 1.34 1.35 1.35 0 0 1-1.35-1.35c0-2.53-.14-7.51-.15-7.53a1.33 1.33 0 0 1 1.3-1.39c.16 0 .32.02.47.06l7.15 2.37a1.36 1.36 0 0 1 .93 1.28v7.04a1.34 1.34 0 0 1-1.85 1.25l-3.43-1.15a1.36 1.36 0 0 1-.88-1.35l-.07-2.97a1.33 1.33 0 0 1 1.33-1.36 1.35 1.35 0 0 1 1.36 1.32l.05 2.1.82.28V277l-4.44-1.45c.06 1.74.11 4.24.11 5.7ZM76.01 284.69a1.34 1.34 0 0 1-2.3.93c-.25-.25-.4-.6-.4-.96 0-2.52-.14-7.5-.14-7.52a1.34 1.34 0 0 1 1.75-1.32l7.17 2.36a1.36 1.36 0 0 1 .93 1.29v7.04a1.34 1.34 0 0 1-1.85 1.24l-3.42-1.14a1.36 1.36 0 0 1-.93-1.35l-.06-2.97a1.34 1.34 0 0 1 2.29-.99c.25.25.4.6.4.95v2.1l.83.28v-4.2L75.85 279c.11 1.73.16 4.23.16 5.7ZM86.75 287.82a1.34 1.34 0 0 1-1.35 1.34 1.36 1.36 0 0 1-1.35-1.37c0-2.52-.14-7.48-.15-7.5a1.35 1.35 0 0 1 1.3-1.38c.11-.02.23-.02.34 0l7.1 1.35a1.36 1.36 0 0 1 1.11 1.33v7.03a1.35 1.35 0 0 1-1.7 1.3l-3.4-.66a1.36 1.36 0 0 1-1.1-1.38l-.07-2.98a1.33 1.33 0 0 1 1.33-1.37 1.36 1.36 0 0 1 1.37 1.34v1.95l.83.16v-4.29l-4.44-.83c.12 1.76.18 4.43.18 5.96ZM97.84 290a1.34 1.34 0 0 1-1.36 1.35 1.36 1.36 0 0 1-1.34-1.36c0-2.34-.15-6.92-.15-6.94a1.34 1.34 0 0 1 1.3-1.39h.28l7.1 1.19a1.38 1.38 0 0 1 1.15 1.34v6.52a1.34 1.34 0 0 1-.83 1.24 1.3 1.3 0 0 1-.84.05l-3.4-.58a1.35 1.35 0 0 1-1.13-1.38l-.06-2.75a1.33 1.33 0 0 1 1.32-1.37 1.36 1.36 0 0 1 1.37 1.33v1.7l.83.15v-3.78l-4.44-.74a74 74 0 0 1 .2 5.42ZM108.49 291.73a1.36 1.36 0 1 1-2.7 0c0-2.34-.15-6.92-.15-6.94a1.3 1.3 0 0 1 .36-.96 1.33 1.33 0 0 1 .94-.42c.09-.01.18-.01.28 0l7.1 1.2a1.35 1.35 0 0 1 1.14 1.34v6.5a1.33 1.33 0 0 1-1.35 1.35h-.32l-3.4-.59a1.37 1.37 0 0 1-1.14-1.38l-.05-2.76a1.34 1.34 0 0 1 .8-1.25 1.36 1.36 0 0 1 1.89 1.22v1.7l.82.14v-3.84l-4.43-.75c.15 1.64.2 4.05.2 5.44ZM119.22 293.16a1.35 1.35 0 1 1-2.7-.02c0-2.34-.15-6.9-.15-6.92a1.35 1.35 0 0 1 .36-.96 1.34 1.34 0 0 1 .94-.42h.13l7.1.27a1.35 1.35 0 0 1 1.3 1.35v6.52a1.33 1.33 0 0 1-1.34 1.34h-.16l-3.4-.15a1.35 1.35 0 0 1-1.3-1.36l-.05-2.78a1.32 1.32 0 0 1 .37-.96 1.33 1.33 0 0 1 .94-.4 1.36 1.36 0 0 1 1.38 1.33v1.53h.83v-3.78l-4.44-.17c.12 1.6.2 4.14.2 5.58ZM130.57 293.97a1.33 1.33 0 0 1-1.35 1.34 1.36 1.36 0 0 1-1.34-1.36c0-2.33-.15-6.9-.16-6.91a1.35 1.35 0 0 1 .79-1.27c.16-.08.33-.12.51-.12h.1l7.16.35a1.35 1.35 0 0 1 1.3 1.35v6.52a1.33 1.33 0 0 1-1.36 1.34h-.17l-3.39-.18a1.37 1.37 0 0 1-1.29-1.38l-.06-2.77a1.34 1.34 0 0 1 2.29-.98c.25.25.4.59.4.95v1.55l.84.05v-3.81l-4.44-.21c.11 1.58.17 4.1.17 5.54ZM141.76 294.43a1.36 1.36 0 0 1-.84 1.25 1.35 1.35 0 0 1-1.87-1.26c0-2.34-.14-6.9-.14-6.92a1.34 1.34 0 0 1 1.3-1.35h.1l7.16.35a1.36 1.36 0 0 1 1.3 1.35v6.51a1.3 1.3 0 0 1-.4.96 1.33 1.33 0 0 1-.96.38h-.2l-3.4-.17a1.37 1.37 0 0 1-1.28-1.39l-.05-2.76a1.34 1.34 0 0 1 .8-1.26c.16-.07.33-.1.51-.1a1.36 1.36 0 0 1 1.38 1.33v1.55l.82.04v-3.8l-4.44-.22c.14 1.56.2 4.08.2 5.51ZM153.29 294.6a1.33 1.33 0 0 1-1.35 1.34 1.35 1.35 0 0 1-1.35-1.35c0-2.34-.14-6.9-.14-6.91a1.35 1.35 0 0 1 .78-1.28c.16-.07.34-.1.51-.11l7.16-.25a1.36 1.36 0 0 1 1.4 1.3v6.56a1.33 1.33 0 0 1-.4.96 1.33 1.33 0 0 1-.97.38h-.05l-3.4.1a1.37 1.37 0 0 1-1.4-1.3l-.05-2.83a1.35 1.35 0 0 1 .8-1.25 1.35 1.35 0 0 1 1.9 1.22v1.44h.83v-3.8l-4.44.15c.1 1.55.17 4.16.17 5.63ZM164.74 294.55a1.33 1.33 0 0 1-1.35 1.34 1.35 1.35 0 0 1-1.35-1.36c0-2.33-.15-6.89-.15-6.9a1.33 1.33 0 0 1 1.3-1.39l7.16-.36a1.36 1.36 0 0 1 1.42 1.27v6.59a1.35 1.35 0 0 1-1.35 1.35l-3.43.15a1.36 1.36 0 0 1-1.29-.77 1.36 1.36 0 0 1-.13-.52l-.06-2.84a1.35 1.35 0 1 1 2.67 0v1.4h.83v-3.87l-4.44.23c.1 1.58.17 4.2.17 5.68ZM175.39 293.96a1.34 1.34 0 0 1-1.35 1.34 1.36 1.36 0 0 1-1.35-1.37c0-2.33-.15-6.89-.15-6.9a1.32 1.32 0 0 1 .77-1.26c.16-.07.33-.12.5-.12l7.14-.38a1.36 1.36 0 0 1 1.42 1.27v6.59a1.33 1.33 0 0 1-1.35 1.34l-3.43.16a1.36 1.36 0 0 1-1.41-1.29l-.07-2.85a1.32 1.32 0 0 1 .38-.96 1.34 1.34 0 0 1 1.9-.02c.26.25.4.6.41.95v1.41h.84v-3.8l-4.44.21c.12 1.58.19 4.2.19 5.68ZM186.12 293.04a1.34 1.34 0 0 1-1.35 1.34 1.36 1.36 0 0 1-1.35-1.36c0-2.34-.15-6.87-.15-6.88a1.34 1.34 0 0 1 1.1-1.37l7.16-1.29a1.34 1.34 0 0 1 1.37.6c.1.14.17.3.2.48v6.77a1.34 1.34 0 0 1-1.23 1.34l-3.39.6a1.37 1.37 0 0 1-1.56-1.1v-.22l-.06-2.8a1.32 1.32 0 0 1 .8-1.26c.17-.07.34-.1.52-.1a1.36 1.36 0 0 1 1.38 1.33v1.21l.84-.15v-3.76l-4.44.8c.09 1.6.16 4.26.16 5.82ZM197.48 291.37a1.35 1.35 0 1 1-2.7-.01c0-2.34-.15-6.88-.15-6.88a1.34 1.34 0 0 1 1.12-1.38l7.16-1.22a1.37 1.37 0 0 1 1.57 1.11V289.7a1.34 1.34 0 0 1-1.2 1.34l-3.43.56a1.37 1.37 0 0 1-1.56-1.12v-.29l-.05-2.66a1.32 1.32 0 0 1 .8-1.26 1.36 1.36 0 0 1 1.89 1.22v1.24l.83-.14v-3.77l-4.44.75c.1 1.56.16 4.29.16 5.8ZM208.66 289.4a1.34 1.34 0 0 1-1.35 1.34 1.36 1.36 0 0 1-1.35-1.36c0-2.34-.15-6.87-.15-6.89a1.35 1.35 0 0 1 1.12-1.37l7.15-1.2a1.35 1.35 0 0 1 1.56 1.1v6.73a1.35 1.35 0 0 1-1.2 1.35l-3.43.56a1.37 1.37 0 0 1-1-.24 1.35 1.35 0 0 1-.55-.87c-.02-.1-.02-.2 0-.3l-.07-2.7a1.33 1.33 0 0 1 1.33-1.37 1.36 1.36 0 0 1 1.37 1.33v1.23l.84-.14v-3.76l-4.43.75c.09 1.56.16 4.28.16 5.81ZM220.2 287.04a1.33 1.33 0 0 1-.83 1.25 1.35 1.35 0 0 1-1.48-.3c-.25-.26-.4-.6-.4-.97 0-2.33-.14-6.85-.14-6.87a1.33 1.33 0 0 1 1.04-1.35l7.1-1.77a1.36 1.36 0 0 1 1.68 1.31v6.52a1.33 1.33 0 0 1-1.13 1.32l-3.38.84a1.36 1.36 0 0 1-1.65-.98v-.3l-.06-2.8a1.35 1.35 0 0 1 .38-.96 1.33 1.33 0 0 1 .94-.4 1.36 1.36 0 0 1 1.37 1.32v1.1l.84-.2v-3.73l-4.44 1.12c.09 1.5.16 4.3.16 5.85ZM231.38 283.66a1.33 1.33 0 0 1-.84 1.25 1.33 1.33 0 0 1-1.47-.31c-.25-.26-.4-.6-.4-.96 0-2.33-.14-6.84-.14-6.84a1.33 1.33 0 0 1 .84-1.3l7.15-2.86a1.36 1.36 0 0 1 1.88 1.26v6.52a1.34 1.34 0 0 1-.94 1.28l-3.41 1.35a1.37 1.37 0 0 1-1.49-.32 1.37 1.37 0 0 1-.39-.99l-.06-2.73a1.35 1.35 0 0 1 1.32-1.36 1.36 1.36 0 0 1 1.38 1.33v.84l.84-.33v-3.6l-4.44 1.78c.08 1.49.16 4.39.16 5.99ZM242.73 279.5a1.33 1.33 0 0 1-1.34 1.35 1.37 1.37 0 0 1-1.36-1.37c0-2.32-.15-6.83-.15-6.84a1.35 1.35 0 0 1 .9-1.3l7.15-2.8a1.37 1.37 0 0 1 1.77.78c.06.16.1.33.1.5v6.51a1.33 1.33 0 0 1-.95 1.28l-3.42 1.32a1.35 1.35 0 0 1-1.77-.78c-.07-.17-.1-.36-.1-.55l-.05-2.7a1.34 1.34 0 0 1 2.28-.98c.25.25.4.58.4.94v.89l.85-.33v-3.6l-4.44 1.72c.05 1.47.13 4.36.13 5.96ZM253.92 275.08a1.35 1.35 0 0 1-2.31.94c-.26-.26-.4-.6-.4-.96 0-2.33-.14-6.84-.14-6.85a1.32 1.32 0 0 1 .89-1.3l7.16-2.79a1.35 1.35 0 0 1 1.77.77c.06.16.1.33.1.5v6.56a1.34 1.34 0 0 1-.95 1.28l-3.42 1.32a1.38 1.38 0 0 1-1.49-.33 1.37 1.37 0 0 1-.37-1l-.07-2.7a1.33 1.33 0 0 1 .81-1.26c.17-.07.34-.1.52-.1a1.36 1.36 0 0 1 1.37 1.32v.88l.89-.32v-3.6l-4.44 1.71c0 1.43.08 4.34.08 5.93ZM265.45 270.17a1.35 1.35 0 1 1-2.7-.02c0-2.32-.14-6.82-.15-6.83a1.35 1.35 0 0 1 .83-1.29l7.1-3.35a1.35 1.35 0 0 1 1.91 1.22v6.5a1.36 1.36 0 0 1-.89 1.27l-3.42 1.6a1.36 1.36 0 0 1-1.9-1.28l-.06-2.7a1.35 1.35 0 1 1 2.67 0v.7l.88-.4v-3.56l-4.44 2.1c.1 1.48.17 4.44.17 6.04Z" clip-rule="evenodd"/><path fill="#fff" d="M113.83 244.78c4.83-64.85-35.38-84.16-45.5-42.1l39.48 47.54 6.02-5.44Z"/><path fill="#FFC700" d="M103.03 230.45c4.12-1.27 5.08-9.98 2.15-19.44-2.93-9.47-8.65-16.1-12.77-14.83-4.12 1.27-5.09 9.98-2.15 19.44 2.93 9.47 8.64 16.1 12.77 14.83Z"/><path fill="#004091" d="M113.84 246.69h-.15a1.9 1.9 0 0 1-1.76-2.04c1.69-22.56-2.25-37.06-5.84-45.25-4.3-9.78-10.45-15.97-16.9-16.97-8.33-1.3-15.62 6.63-19 20.7a1.9 1.9 0 0 1-3.71-.9c4.66-19.33 15.1-24.85 23.3-23.56 14.8 2.31 28.93 26.32 25.96 66.26a1.9 1.9 0 0 1-1.9 1.76Z"/><path fill="#004091" d="M101.98 232.54c-4.95 0-10.54-6.58-13.56-16.33-1.5-4.83-2.07-9.64-1.64-13.57.5-4.47 2.29-7.4 5.05-8.26 2.77-.86 5.9.55 8.84 3.97 2.58 2.99 4.82 7.3 6.32 12.12 3.34 10.8 1.88 20.19-3.42 21.83-.51.16-1.05.24-1.59.24Zm-8.54-34.59c-.16 0-.32.02-.48.07-1.17.36-2.09 2.3-2.4 5.04-.37 3.42.16 7.69 1.5 12.02 2.9 9.35 8.09 14.29 10.39 13.58 2.3-.71 3.79-7.72.9-17.07-1.35-4.33-3.32-8.15-5.57-10.76-1.57-1.83-3.18-2.88-4.34-2.88Z"/><path fill="#FFC700" d="M254.57 248.82c-2.7-24.63-21.04-44.68-45.15-47.18-18.51-1.91-35.82 7.01-46.34 21.93l36.9 34.7 54.58-9.44"/><path fill="#004091" d="M254.16 252.78a2.25 2.25 0 0 1-1.43-.73 2.55 2.55 0 0 1-.66-1.54c-2.7-24.11-20.38-42.57-43.05-44.92-16.95-1.75-33.89 6.26-44.21 20.92-.38.54-.94.9-1.56 1-.61.1-1.24-.07-1.74-.47a2.5 2.5 0 0 1-.9-1.64c-.09-.66.08-1.33.45-1.87 11.32-16.07 29.9-24.86 48.47-22.94a51.3 51.3 0 0 1 31.8 15.77 57.75 57.75 0 0 1 15.42 33.6 2.65 2.65 0 0 1-.86 2.26c-.5.42-1.11.62-1.73.56Z"/><path fill="#004091" d="M234.81 242.41a2.24 2.24 0 0 1-1.08-.41 2.42 2.42 0 0 1-.76-.92 33.92 33.92 0 0 0-9.6-12.06 30.95 30.95 0 0 0-28.58-5.3 32.95 32.95 0 0 0-13.09 7.87c-.46.43-1.07.65-1.68.62a2.26 2.26 0 0 1-1.6-.8 2.63 2.63 0 0 1 .14-3.5c4.3-4.18 9.41-7.25 14.96-9a35.36 35.36 0 0 1 32.67 6.05 38.8 38.8 0 0 1 10.97 13.78 2.64 2.64 0 0 1-1.12 3.44c-.38.2-.8.28-1.23.23Z"/><path fill="#004091" d="M217.73 244.19a2.24 2.24 0 0 1-1.39-.7 17.3 17.3 0 0 0-10.57-5.27c-3.99-.44-8.02.56-11.46 2.83a2.23 2.23 0 0 1-3.2-.8 2.64 2.64 0 0 1 .76-3.45 21.77 21.77 0 0 1 14.45-3.57c5.03.56 9.72 2.9 13.33 6.66.34.36.57.83.66 1.34.08.51.01 1.04-.2 1.51a2.5 2.5 0 0 1-.98 1.13c-.42.26-.91.37-1.4.32Z"/><path fill="#fff" d="M43.44 258.42C6.48 178.59 91 186.63 103.9 246.72l-60.46 11.7Z"/><path fill="#FFC700" d="M60.05 242.5c-16.55-39.1 19.45-34.75 30.05-4.53l-30.05 4.53Z"/><path fill="#004091" d="M43.44 260.33a1.9 1.9 0 0 1-1.73-1.1c-11.07-23.93-12.45-42.86-3.87-53.3 5.69-6.9 15.2-9.36 26.12-6.7 16.64 4.03 36.02 20.15 41.81 47.09a1.92 1.92 0 0 1-.78 1.97 1.9 1.9 0 0 1-2.12.03 1.9 1.9 0 0 1-.83-1.2c-5.44-25.32-23.5-40.44-38.97-44.2-9.44-2.28-17.56-.3-22.27 5.43-4.4 5.36-9.7 18.88 4.38 49.28a1.9 1.9 0 0 1-1.73 2.7Z"/><path fill="#004091" d="M60.06 244.4a1.9 1.9 0 0 1-1.76-1.16c-6.67-15.76-4.63-23.44-1.73-27.1 2.43-3.08 6.29-4.35 10.86-3.6 8.07 1.36 19.17 9.69 24.47 24.8a1.9 1.9 0 0 1-3.22 1.91c-.17-.19-.3-.41-.38-.65-4.78-13.65-14.5-21.13-21.5-22.3-2.22-.36-5.28-.28-7.24 2.2-3.14 3.98-2.32 12.45 2.25 23.25a1.9 1.9 0 0 1-1.75 2.65Z"/><path fill="#fff" fill-rule="evenodd" d="M119.14 218.36c-.2-.64-.36-1.3-.48-1.96-.69-1.63-2.26-3.35-4.03-3.06-3.25.55-3.77 4.26-3.27 7.26.13.72.84 1.51.84 2.22 0 0-1.15-.56-1.2-.6a7.84 7.84 0 0 0-2.53-1.1c-1.83-.34-5.07 1.67-5.44 3.77-.45 2.37 1.11 3.78 2.51 5.3.42.46.8.97 1.2 1.44.21.26.93.58.65.73-.81.44-2.36-.32-3.33 0-2.28.77-2.61 5.03-1.6 6.95 1.2 2.28 4.35 2.02 6.35 1.6.62-.12 1.24-.28 1.84-.5.32-.12 1.26-.26.95-.44-.3-.17-1.45 2.03-1.52 2.22-.9 1.9-1.86 6.63.73 7.46 2.23.72 5.58-1.45 7.14-3.05.23-.23 1.45-2.56 1.59-2.56.3 0 0 .66.03.99.05.7.16 1.38.34 2.04a4.65 4.65 0 0 0 3.43 3.59c2.26.43 6.3-.83 7.77-2.9.65-1 1.14-2.09 1.45-3.24.16-.51.55-1.52.55-1.52.13.33.33.63.57.9.57.39 1.25.61 1.95.64a9.76 9.76 0 0 0 6.12-2.6c1.78-1.91 1.24-5.07-.48-6.77a7.96 7.96 0 0 0-2.6-1.63c-.53-.22-1.94-.12-1.6-.6.35-.47 1.6-.8 2.07-1.16 1.97-1.45 3.55-4.03 2.31-6.53-.9-1.83-2.82-2.54-4.6-2.65a17.38 17.38 0 0 0-2.55.06c.9 0 1.5-1.74 1.8-2.41.93-2.18 2.62-6.28.56-8.23-2.9-2.78-6.82-1.1-8.58 2.17-.28.52-.66 3.04-1.14 3.25-.18.07-.26-1.8-.26-1.86-.13-1.2-.3-2.54-1.1-3.45-3.79-4.3-5.77 3.79-6.44 6.23Z" clip-rule="evenodd"/><path fill="#004091" fill-rule="evenodd" d="M127.31 213.16v-.09c-.2-.6-.5-1.15-.92-1.63-1.69-1.82-3.13-1.84-4.29-1.1a5.65 5.65 0 0 0-1.83 2.24 18.6 18.6 0 0 0-1.11 2.84 6.6 6.6 0 0 0-1.95-2.3 3.69 3.69 0 0 0-2.71-.73 4.6 4.6 0 0 0-3.49 2.49 9.6 9.6 0 0 0-.72 5.58l-.28-.13a7.03 7.03 0 0 0-5.74.35c-1.48.86-2.1 2.4-2.4 3.93a5.08 5.08 0 0 0 .35 3.12 12.9 12.9 0 0 0 2.45 3.23l.05.05c-.35 0-.69.04-1.02.15a4.45 4.45 0 0 0-2.67 3.17 8.21 8.21 0 0 0 .37 5.51 4.56 4.56 0 0 0 2.9 2.28c1.46.33 2.98.33 4.44 0a11.98 11.98 0 0 0-.8 4.94c.14 1.78.94 3.2 2.52 3.7 1.34.33 2.75.2 4-.4a14.4 14.4 0 0 0 4.35-2.9c.27.99.77 1.9 1.44 2.66a5.23 5.23 0 0 0 2.9 1.67c1.65.22 3.33.02 4.88-.57a8.75 8.75 0 0 0 4.14-2.8c.32-.45.6-.94.82-1.45.25-.57.47-1.15.65-1.75.62.3 1.28.46 1.96.5a10.99 10.99 0 0 0 7.08-3 5.65 5.65 0 0 0 1.4-4.41 6.7 6.7 0 0 0-3.37-5.2c-.26-.15-.52-.3-.79-.43a8.23 8.23 0 0 0 3.03-4.26 5.33 5.33 0 0 0-.37-3.8 5.55 5.55 0 0 0-2.46-2.48 7.88 7.88 0 0 0-3.17-.84l.28-.63c.8-1.7 1.34-3.52 1.6-5.38a4.97 4.97 0 0 0-1.32-4.21 5.8 5.8 0 0 0-5.97-1.45 7.92 7.92 0 0 0-4.2 3.44l-.03.1Zm9.08 2c-.34 3.86-1.45 4.46-3.14 6.8-.06.08-.55 1.93 1.04 1.93.12 0 .24-.02.36-.04h2.14c.75.03 1.5.23 2.17.57.6.3 1.1.8 1.4 1.4a3.06 3.06 0 0 1 0 2.63 6.04 6.04 0 0 1-1.97 2.39c-.35.26-1.13.5-1.61.8-.28.16-.53.37-.73.62a1.33 1.33 0 0 0-.2 1.33 1.4 1.4 0 0 0 .72.8c.25.11.52.19.8.22.25.01.51.05.76.1.43.18.84.39 1.23.62a4.16 4.16 0 0 1 2.09 4.65c-.13.43-.35.83-.64 1.18a7.19 7.19 0 0 1-2.4 1.52 7 7 0 0 1-2.77.66 2.5 2.5 0 0 1-1.19-.36l-.22-.42a1.25 1.25 0 0 0-1.16-.72 1.22 1.22 0 0 0-1.14.78l-.59 1.62c-.16.51-.33 1.04-.54 1.56-.2.46-.43.9-.73 1.31a6.2 6.2 0 0 1-2.94 1.9 7.4 7.4 0 0 1-3.58.47 2.74 2.74 0 0 1-1.54-.9 4.22 4.22 0 0 1-.93-1.77 8.4 8.4 0 0 1-.29-1.75c.06-.35.08-.7.07-1.06a1.38 1.38 0 0 0-.8-1.06 1.31 1.31 0 0 0-.55-.1 1.63 1.63 0 0 0-1.23.78c-.36.53-1.08 1.97-1.24 2.17-.87.85-1.86 1.57-2.95 2.12-1.01.51-2.08.9-2.95.62a1.02 1.02 0 0 1-.63-.66 4.33 4.33 0 0 1-.2-1.56c.06-1.22.34-2.4.83-3.52.65-1.35 1.25-1.52 1.55-2.07a1.25 1.25 0 0 0 .1-1 1.3 1.3 0 0 0-.66-.77c-.67-.36-2.9.62-3.62.82-1 .24-2.04.3-3.07.2a2.4 2.4 0 0 1-1.94-1.17c-.73-1.36-.73-5.52 1.69-5.18.5.1 1.01.14 1.53.16.42 0 .83-.1 1.2-.29a1.23 1.23 0 0 0 .73-1.14c0-.72-1.69-2.27-2.24-2.9-.8-.74-1.5-1.6-2.03-2.57a2.74 2.74 0 0 1-.2-1.68c.78-4.08 5.08-2.41 7.38-1.34l.2.1.21.05a1.11 1.11 0 0 0 1.35-1.21c0-.28-.05-.56-.15-.82-.72-2.05-1.51-2.65-.66-5.48a2.9 2.9 0 0 1 2.27-2.22 2.13 2.13 0 0 1 1.74.6 5.37 5.37 0 0 1 1.37 1.85c.06.15.25 1.25.4 1.68a1.08 1.08 0 0 0 .6.73.8.8 0 0 0 .63-.06.71.71 0 0 0 .4-.47c.36-1.34 1.19-4.46 2.52-6.04 1.34-1.58 2.6.15 2.9 1.5.11.54.19 1.1.22 1.65.02.63.08 1.26.17 1.88a1.2 1.2 0 0 0 1.65.85c.33-.15.6-.4.77-.73 1.34-2.38.49-4.59 4.1-5.72a3.5 3.5 0 0 1 3.58.9 2.67 2.67 0 0 1 .56 2.26Z" clip-rule="evenodd"/><path fill="#B8311E" fill-rule="evenodd" d="M112.53 231.8c-.4 3.63.72 7.26 3.75 9.11a12.55 12.55 0 0 0 7.87 1.78c2.72-.28 5.29-1.4 7.35-3.2 1.56-1.35 2.7-3.11 3.28-5.09a5.53 5.53 0 0 0-.65-4.48c-1.54-2.4-4.61-3.17-7.32-2.4-2.4.68-5.27 2.98-5.08 5.68 0 .5.87 1.02 1.37 1.02a.91.91 0 0 0 .92-.91c.07-.65.35-1.26.8-1.73a4.72 4.72 0 0 1 2.65-1.38c1.56-.33 3.35-.11 4.2 1.27a3.02 3.02 0 0 1 .05 2.85 8.14 8.14 0 0 1-2.17 2.9 10.43 10.43 0 0 1-5.75 2.49 9.65 9.65 0 0 1-6.03-1.35c-2.04-1.24-2.64-3.8-2.38-6.28.72-7.18 5.88-7.98 12.32-7.72.83 0 2.01-.44 1.3-1.63-.09-.27-.72-.58-1.38-.83-6.16-2.24-14.3 2.55-15.1 9.9Z" clip-rule="evenodd"/><path fill="#fff" fill-rule="evenodd" d="M211.16 214.15c-6.4-.77-12.6 2.25-14.6 7.38-1.26 3.18.41 5.46 2.29 6.74 1.72 1.17 3.76 1.74 3.8-1.26 0-1.2.1-2.38 1.31-2.25 2.4.26 3.88 1.83 1.03 6.03-2.86 4.2-4.75 7.17-1.98 8.65 2.77 1.5 7.87 3.07 8.43.5.56-2.57-.42-11.44 1.73-12.58 1.34-.7 1.74.77 1.53 2.3-.3 2.45-.76 3.96 2.5 3.66a10.22 10.22 0 0 0 7.65-4.44c3.81-5.87-3.64-13.76-13.69-14.73Z" clip-rule="evenodd"/><path fill="#004091" fill-rule="evenodd" d="M211.02 215.12a15.1 15.1 0 0 0-8.42 1.43c-2.31 1.1-4.14 3-5.12 5.37a4.38 4.38 0 0 0-.16 3.03 5.28 5.28 0 0 0 2.08 2.55c.42.29.89.51 1.38.66.18.05.36.05.54 0 .06 0 .12-.1.17-.24.1-.31.16-.64.15-.97-.03-.68.06-1.35.28-1.99a1.83 1.83 0 0 1 2.12-1.22c.77.06 1.52.3 2.17.72.45.3.81.72 1.03 1.21.23.54.31 1.13.24 1.71a9.08 9.08 0 0 1-1.72 3.9 24.66 24.66 0 0 0-2.98 5.1c-.31.96-.2 1.7.66 2.15 1.3.69 2.68 1.2 4.11 1.53.68.17 1.37.22 2.06.16a.98.98 0 0 0 .77-.37.78.78 0 0 0 .06-.18c.16-1.3.23-2.6.2-3.9.03-3.75.08-8.31 2.03-9.34.29-.15.6-.25.92-.29a1.65 1.65 0 0 1 1.41.52c.3.33.5.73.58 1.17.13.62.15 1.26.06 1.88l-.07.6c-.1.51-.13 1.04-.12 1.57 0 .35.39.52 1.63.4a9.95 9.95 0 0 0 4.04-1.27 8.51 8.51 0 0 0 2.88-2.73c.46-.69.75-1.48.84-2.3a6.45 6.45 0 0 0-1.08-4.03 13.02 13.02 0 0 0-3.91-3.84 19.74 19.74 0 0 0-8.79-2.99h-.04Zm-9.32-.31a17.05 17.05 0 0 1 9.54-1.63 21.6 21.6 0 0 1 9.62 3.32 15.11 15.11 0 0 1 4.5 4.4 8.34 8.34 0 0 1 1.41 5.32 7.02 7.02 0 0 1-1.14 3.19 10.5 10.5 0 0 1-3.54 3.35 11.89 11.89 0 0 1-4.84 1.53c-2.77.26-3.6-.57-3.75-2.18-.03-.67.01-1.34.13-2l.07-.56c.07-.4.07-.8 0-1.2 0-.06 0-.1-.04-.15l-.07.03c-.92.49-.96 4.41-.99 7.63.04 1.43-.04 2.87-.24 4.29a2.47 2.47 0 0 1-1.18 1.66c-.39.24-.83.38-1.28.42-.92.1-1.84.03-2.74-.19a18.4 18.4 0 0 1-4.6-1.73c-1.91-1.03-2.23-2.53-1.59-4.48.84-1.99 1.92-3.87 3.23-5.59a7.17 7.17 0 0 0 1.38-3.01c.04-.23.01-.48-.08-.7a.93.93 0 0 0-.34-.4c-.4-.23-.84-.36-1.3-.39h-.08c-.12.41-.17.84-.15 1.27.01.57-.09 1.13-.28 1.67a2.2 2.2 0 0 1-1.34 1.36 2.8 2.8 0 0 1-1.7 0 7.07 7.07 0 0 1-2-1 7.23 7.23 0 0 1-2.82-3.54 6.22 6.22 0 0 1 .19-4.36 12.27 12.27 0 0 1 6.02-6.34Z" clip-rule="evenodd"/><path fill="#fff" fill-rule="evenodd" d="M211.42 211.4c-6.39-.78-12.6 2.23-14.6 7.36-1.25 3.19-.69 5 1.17 6.26 1.72 1.18 2.08 1.46 3.13-1.02a3.38 3.38 0 0 1 3.06-2c2.4.25 3.9 1.83 1.03 6.02-2.87 4.2-4.74 7.18-1.98 8.66 2.77 1.5 7.87 3.07 8.43.5.56-2.57-.42-11.44 1.73-12.58 1.34-.71 2.55.77 2.36 2.3-.3 2.45-.76 3.96 2.5 3.66 2.46-.22 4.86-1.44 6.84-4.47 3.83-5.84-3.62-13.7-13.67-14.7Z" clip-rule="evenodd"/><path fill="#004091" fill-rule="evenodd" d="M211.28 212.36c-2.88-.35-5.8.14-8.42 1.42-2.31 1.1-4.14 3-5.12 5.37a5.9 5.9 0 0 0-.54 3.29c.2.76.68 1.4 1.35 1.8h.05c.32.25.67.47 1.03.65 0 0 .17-.25.6-1.28.36-.8.95-1.46 1.69-1.93.7-.48 1.55-.7 2.4-.65.78.07 1.53.34 2.18.76a2.92 2.92 0 0 1 1.26 2.93 8.94 8.94 0 0 1-1.72 3.9 24.48 24.48 0 0 0-2.97 5.09c-.32.97-.2 1.7.65 2.15 1.3.69 2.69 1.2 4.13 1.53a6 6 0 0 0 2.05.16.97.97 0 0 0 .76-.37.74.74 0 0 0 .07-.17c.16-1.3.22-2.6.19-3.91.04-3.75.08-8.3 2.04-9.34a2.36 2.36 0 0 1 2.61.24 3 3 0 0 1 .77.95c.33.66.47 1.4.38 2.12l-.08.59a7.96 7.96 0 0 0-.11 1.57c0 .35.38.52 1.63.4a7.28 7.28 0 0 0 3.18-1.03 9.45 9.45 0 0 0 2.93-2.99c.46-.69.75-1.48.84-2.3a6.49 6.49 0 0 0-1.12-4.07 13.11 13.11 0 0 0-3.92-3.83 19.66 19.66 0 0 0-8.75-3.01l-.03-.04Zm-9.32-.3a17.06 17.06 0 0 1 9.55-1.64c3.42.32 6.72 1.46 9.62 3.32a15.15 15.15 0 0 1 4.5 4.4 8.44 8.44 0 0 1 1.41 5.31 7.14 7.14 0 0 1-1.14 3.2 11.37 11.37 0 0 1-3.55 3.58 9.19 9.19 0 0 1-4.03 1.33c-2.77.25-3.6-.58-3.75-2.18-.03-.67.02-1.35.13-2.01l.08-.56c.04-.34-.02-.68-.18-.97a1 1 0 0 0-.27-.34.4.4 0 0 0-.22-.11.5.5 0 0 0-.27.08c-.93.48-.97 4.4-1 7.62.04 1.43-.04 2.87-.23 4.3-.06.23-.14.46-.25.68a2.8 2.8 0 0 1-2.22 1.39 8.3 8.3 0 0 1-2.74-.19c-1.6-.37-3.14-.96-4.6-1.73-1.91-1.03-2.23-2.53-1.59-4.47.84-2 1.92-3.87 3.23-5.6a7.21 7.21 0 0 0 1.38-3c.04-.25.01-.49-.07-.71a.99.99 0 0 0-.35-.4c-.4-.23-.83-.36-1.29-.4-.4 0-.8.12-1.13.36-.41.25-.74.62-.95 1.05-1.02 2.43-1.7 2.94-3.16 2.3-.48-.22-.95-.5-1.38-.81h-.05a4.8 4.8 0 0 1-2.15-3.02 7.74 7.74 0 0 1 .61-4.4 12.26 12.26 0 0 1 6.06-6.38Z" clip-rule="evenodd"/><path fill="#fff" fill-rule="evenodd" d="M201.75 215.13c.33-.28.69-.54 1.06-.77 1.96-1.14 4.2-1.7 6.47-1.64 2.03.1 11 1.87 11.3 4-.18.08-9.68-1.86-11.23-1.82-1.85.06-3.65.58-5.24 1.53-.29.17-.56.36-.82.57-2.25 2.07-2.56 4.32-3.87 3.58-2.47-.53 1.6-4.78 2.33-5.46Z" clip-rule="evenodd"/><path fill="#FFC700" d="M196.9 246.91a34.15 34.15 0 0 1 13.03-11.44 32 32 0 0 1 15.98-3.3 32.4 32.4 0 0 1 19.32 7.77 35.45 35.45 0 0 1 11.88 21.01c-36.9 14.87-79.09 21.24-118.74 19.5-22.23-.98-43.9-4.56-66.5-10.42-17.36-4.5-16.66-7.96-27.06-11.47 4.72-17.3 19.9-29.95 37.88-29.95 21.78 0 39.42 18.55 39.42 41.42 0 1.73-.1 3.46-.3 5.17"/><path fill="#004091" d="M258.8 262.22a2.17 2.17 0 0 1-1.47-.45c-.42-.32-.73-.8-.86-1.32a33.1 33.1 0 0 0-12.53-18.9 30.1 30.1 0 0 0-33.03-1.83 31.92 31.92 0 0 0-11.4 11.5 2.15 2.15 0 0 1-3.05.73 2.44 2.44 0 0 1-.76-3.2c3.19-5.49 7.68-10 13.02-13.13a34 34 0 0 1 16.77-4.68 34.44 34.44 0 0 1 21.26 6.97 37.85 37.85 0 0 1 14.05 21.4 2.45 2.45 0 0 1-.24 1.77 2.3 2.3 0 0 1-1.37 1.07c-.13.04-.26.06-.4.07Z"/><path fill="#FFC700" d="M111 275.24c1.1-27.15 22.4-48.8 48.51-48.8 25.85 0 46.98 21.2 48.49 47.96m-15.03 1.56a452.78 452.78 0 0 1-52.84 1.26c-4.78-.16-9.5-.4-14.08-.7"/><path fill="#004091" d="M208 278.11c-.57 0-1.12-.22-1.54-.63a2.4 2.4 0 0 1-.7-1.57c-1.45-25.66-21.76-45.76-46.25-45.76a44.45 44.45 0 0 0-22.15 5.9 47.2 47.2 0 0 0-16.75 16.33 2.15 2.15 0 0 1-3.06.65 2.36 2.36 0 0 1-.97-1.45c-.13-.6-.03-1.23.28-1.75a51.74 51.74 0 0 1 18.36-17.9 48.72 48.72 0 0 1 24.29-6.47c26.85 0 49.12 22.03 50.71 50.17.04.62-.16 1.23-.55 1.7-.4.46-.94.74-1.53.78H208Z"/><path fill="#004091" d="M126.05 280.24h-.06a2.13 2.13 0 0 1-1.57-.73 2.36 2.36 0 0 1-.6-1.68 38.45 38.45 0 0 1 10.69-25.76 34.86 34.86 0 0 1 24.72-10.73 34.8 34.8 0 0 1 24.89 10.31 38.4 38.4 0 0 1 11.08 25.58 2.47 2.47 0 0 1-.58 1.7 2.23 2.23 0 0 1-1.56.75 2.13 2.13 0 0 1-1.6-.62 2.34 2.34 0 0 1-.72-1.63 33.51 33.51 0 0 0-9.59-22.32 30.38 30.38 0 0 0-21.64-9.1c-17.06 0-30.78 14.03-31.24 31.95a2.4 2.4 0 0 1-.67 1.62c-.41.42-.97.66-1.55.66Z"/><path fill="#004091" d="M140.13 280.94h-.02a2.13 2.13 0 0 1-1.58-.7 2.36 2.36 0 0 1-.63-1.67c.13-12.38 9.83-22.46 21.61-22.46 11.82 0 21.31 9.7 21.62 22.1.02.63-.2 1.23-.61 1.68-.4.45-.97.72-1.56.73-.6.02-1.17-.21-1.6-.64a2.4 2.4 0 0 1-.7-1.64c-.24-9.83-7.78-17.53-17.15-17.53-9.37 0-17.04 8-17.14 17.82-.01.62-.25 1.2-.67 1.64-.42.43-.98.67-1.57.67ZM125.14 280.67a2.22 2.22 0 0 1-1.7-.78 2.3 2.3 0 0 1-.55-1.8c.19-1.58.29-3.17.29-4.76 0-21.07-18.84-41.1-39.63-41.1-16.72 0-31.62 11.36-36.23 27.62a2.3 2.3 0 0 1-1.92 1.65 2.24 2.24 0 0 1-2.24-1.17 2.32 2.32 0 0 1-.2-1.74c5.17-18.22 21.86-30.94 40.6-30.94 23.28 0 44.15 22.09 44.15 45.68 0 1.78-.11 3.56-.33 5.33a2.3 2.3 0 0 1-.75 1.44c-.41.36-.94.57-1.5.57Z"/><path fill="#004091" d="M111.93 279.05c-.1 0-.22 0-.32-.02a2.22 2.22 0 0 1-1.47-.92c-.35-.5-.5-1.13-.42-1.74.17-1.25.26-2.51.26-3.77 0-14.45-11.2-26.21-24.95-26.21a24.07 24.07 0 0 0-15.5 5.63 26.27 26.27 0 0 0-8.77 14.57 2.41 2.41 0 0 1-1 1.46 2.18 2.18 0 0 1-1.69.29 2.3 2.3 0 0 1-1.7-1.9c-.04-.31-.03-.63.04-.93 3.13-14.02 14.9-23.82 28.63-23.82 16.22 0 29.41 13.87 29.41 30.9 0 1.5-.1 2.98-.3 4.46a2.39 2.39 0 0 1-.75 1.43c-.41.37-.93.57-1.47.57Z"/><path fill="#004091" d="M100.56 277.72a2.23 2.23 0 0 1-1.83-1 2.44 2.44 0 0 1-.37-1.75 14.6 14.6 0 0 0-3.31-11.9 13.03 13.03 0 0 0-18.07-1.85 14.3 14.3 0 0 0-5.2 8.64 2.41 2.41 0 0 1-.93 1.5 2.2 2.2 0 0 1-1.68.36 2.18 2.18 0 0 1-1.43-1 2.42 2.42 0 0 1-.34-1.76c.86-4.6 3.32-8.7 6.9-11.5a17.35 17.35 0 0 1 24.05 2.44 19.43 19.43 0 0 1 4.4 15.87 2.38 2.38 0 0 1-.75 1.4c-.4.35-.91.54-1.44.55Z"/><path fill="#B8311E" fill-rule="evenodd" d="M103.02 267.8c-1.81 5.38-1.86 8.6-1.4 10 .48 1.4 7.3 12.93 11.52 13.15 4.22.23 10.37-5.91 21.35-8.56 10.97-2.65 16.86-2.78 18.44-5.67a66.35 66.35 0 0 0 3.36-8.56s-30.73-8.93-53.27-.37Z" clip-rule="evenodd"/><path fill="#004091" fill-rule="evenodd" d="M104.33 269.06a30.4 30.4 0 0 0-1.17 4.9 7.97 7.97 0 0 0 0 3.3 44.04 44.04 0 0 0 5.93 8.83c1.55 1.77 3.1 3.14 4.13 3.23 1.51.09 3.73-1.07 6.61-2.66a57.47 57.47 0 0 1 14.25-5.87 208.1 208.1 0 0 1 8.4-1.81c5.24-1.08 8.24-1.66 8.98-3.04a51.44 51.44 0 0 0 2.71-6.65c-6.52-1.65-30.97-7.04-49.86-.23h.02Zm-4.41 4.48c.32-2.1.83-4.16 1.51-6.17a1.64 1.64 0 0 1 1.01-1.08c23.05-8.75 54.2.3 54.3.32h.06a1.65 1.65 0 0 1 1.07 2.06 68.35 68.35 0 0 1-3.5 8.84c-1.46 2.73-5.02 3.45-11.2 4.68-2.33.48-5.07 1.08-8.29 1.8a54.99 54.99 0 0 0-13.44 5.56c-3.34 1.8-5.91 3.23-8.34 3.03-2.07-.11-4.3-1.94-6.4-4.3a48.51 48.51 0 0 1-6.58-9.96 10.9 10.9 0 0 1-.2-4.78Z" clip-rule="evenodd"/><path fill="#D68285" fill-rule="evenodd" d="M147.14 250.42c-5.18-3.5-9.4-3.98-15.19-.36-5.79 3.61-16.51 7.6-22.9 11.7-6.38 4.1-8.07 6.4-2.05 13.4 6.03 6.99 6.4 10.12 9.52 8.55 3.13-1.57 16.14-9.16 25.67-10.13 9.53-.97 12.55-1.93 13.5-6.03.96-4.1-7.1-15.44-8.55-17.13Z" clip-rule="evenodd"/><path fill="#004091" fill-rule="evenodd" d="M146.04 251.66a12.63 12.63 0 0 0-6.3-2.46c-2.47.02-4.87.8-6.88 2.24a106.93 106.93 0 0 1-10.76 5.48 111.97 111.97 0 0 0-12.17 6.27c-2.85 1.83-4.64 3.23-4.97 4.61-.33 1.38.65 3.28 3.23 6.33 1.92 2.25 3.23 4.08 4.3 5.5 1.68 2.3 2.3 3.14 3.23 2.67l1.79-.92c4.9-2.63 15.92-8.5 24.46-9.37 4.6-.46 7.6-.93 9.48-1.72a3.98 3.98 0 0 0 2.58-3.06c.26-1.08-.53-3.23-1.69-5.52a67.32 67.32 0 0 0-6.37-10l.07-.05Zm-6.2-5.7c2.98.25 5.82 1.33 8.21 3.13.12.08.23.18.32.29a70.52 70.52 0 0 1 6.95 10.83c1.47 2.94 2.42 5.8 1.96 7.73a6.93 6.93 0 0 1-4.5 5.38c-2.25.96-5.5 1.47-10.43 1.96-7.89.81-18.5 6.46-23.25 9-.87.47-1.57.83-1.85.97-3.4 1.7-4.46.25-7.33-3.66-1.07-1.39-2.33-3.23-4.16-5.3-3.4-3.94-4.6-6.7-4-9.22.6-2.53 2.86-4.3 6.4-6.61 4.03-2.41 8.2-4.57 12.5-6.46 3.57-1.58 7.05-3.34 10.42-5.29a14.98 14.98 0 0 1 8.76-2.74Z" clip-rule="evenodd"/><path fill="#B8311E" fill-rule="evenodd" d="M112.65 270.73a1.64 1.64 0 1 1-2.01-2.59 90.2 90.2 0 0 1 15.46-9.57 70.71 70.71 0 0 1 16.02-5.84 1.63 1.63 0 0 1 1.68.7 1.65 1.65 0 0 1-1.05 2.53 67.52 67.52 0 0 0-15.22 5.56 85.91 85.91 0 0 0-14.88 9.2ZM117.14 277.59a1.61 1.61 0 0 1-1.81.03 1.62 1.62 0 0 1-.72-1.67c.08-.43.32-.8.68-1.06a85.43 85.43 0 0 1 15.21-8.24 67.66 67.66 0 0 1 15.56-4.69 1.64 1.64 0 0 1 .46 3.23c-5.06.9-10 2.4-14.7 4.46a82.79 82.79 0 0 0-14.68 7.94Z" clip-rule="evenodd"/><path fill="#B8311E" fill-rule="evenodd" d="M133.47 253.72a1.65 1.65 0 0 1 .72-2.63 1.62 1.62 0 0 1 1.75.49 37.7 37.7 0 0 1 4.71 7.53c1.6 3.1 2.88 6.34 3.83 9.7a1.65 1.65 0 0 1-2.54 1.65 1.64 1.64 0 0 1-.69-1.05 49.22 49.22 0 0 0-3.55-8.9 34.9 34.9 0 0 0-4.22-6.8ZM123.8 258.89a1.63 1.63 0 0 1-.33-2.45 1.65 1.65 0 0 1 1.92-.4c.21.1.4.25.55.42a32.81 32.81 0 0 1 4.9 6.09 46.27 46.27 0 0 1 4.3 8.05 1.63 1.63 0 1 1-3.12 1 42.76 42.76 0 0 0-3.97-7.25 29.77 29.77 0 0 0-4.26-5.46ZM113.83 264.74a1.64 1.64 0 0 1 2.08-2.52 31.59 31.59 0 0 1 5 5.65 45.3 45.3 0 0 1 4.56 7.53 1.63 1.63 0 1 1-3.08 1.08 41.47 41.47 0 0 0-4.14-6.77 28.24 28.24 0 0 0-4.42-4.97ZM262.69 238.1c-1.17 2.25-4.81 10.37-4.86 10.4-1.78 1.04-5.15 1.85-7.1 2.24a66.75 66.75 0 0 1-14.56 1.47c-7.55-.09-14.91-1.97-22.06-4.13-3.98-1.19-9-2.97-13.01 0-2.05 1.53-3.26 5.34-4.3 7.66-1.12 2.63-2.44 5.6-2 8.51 1.07 7.23 8.83 8.87 14.02 10.18 3 .75 20.53 3.12 34.28-3.55 9.58-4.66 16.8-13.87 17.26-14.5 0-.06.76-1.14.79-1.14 7.05 2.3 15.86.94 22.97-2.07 2.83-1.2 8.37-5.57 4.53-8.98-4.38-3.89-21.74 4.47-21.93 4.41 0 0 3.6-4.28 4.5-5.6 2.34-3.41 6.26-10.71 4.09-14.85-1.44-2.72-2.85-2.1-5.23-.7-3.95 2.48-5.24 6.46-7.4 10.64Z" clip-rule="evenodd"/><path fill="#004091" fill-rule="evenodd" d="M257.09 247.58a16 16 0 0 1-2.3.86c-1.49.45-3.09.8-4.22 1.03a65.94 65.94 0 0 1-14.31 1.27 55.73 55.73 0 0 1-8.78-.9c-4.38-.82-8.7-1.9-12.95-3.24-2.48-.75-5.35-1.68-8.14-1.68a9.75 9.75 0 0 0-5.97 1.89 8.82 8.82 0 0 0-2.1 2.42 47.2 47.2 0 0 0-2.72 5.9 29.13 29.13 0 0 0-1.93 5.33c-.33 1.38-.41 2.8-.22 4.18.25 1.54.78 3 1.56 4.26a9.82 9.82 0 0 0 2.97 3.1c3.08 2.21 7.24 3.19 10.47 4a64.29 64.29 0 0 0 17.62.82 50.3 50.3 0 0 0 17.51-4.46 45.62 45.62 0 0 0 9.57-6.42 60.52 60.52 0 0 0 8.25-8.53l.2-.31c3.6.93 7.34 1.17 11.08.72 4.02-.45 8-1.5 11.84-3.13 1.92-.78 4.9-2.95 6.13-5.33a5.36 5.36 0 0 0 .56-3.64 5.04 5.04 0 0 0-1.69-2.72c-1.47-1.33-4.3-1.6-7.53-1.05-3.6.71-7.17 1.79-10.65 3.2.38-.49.7-.87.9-1.2a33.23 33.23 0 0 0 4.4-9.15c.72-2.74.77-5.35-.31-7.34a4.42 4.42 0 0 0-2.34-2.31c-1.2-.39-2.58.16-4.38 1.29a13.4 13.4 0 0 0-3.96 3.94c-1.45 2.14-2.43 4.65-3.72 7.25-.94 1.8-3.44 7.08-4.51 9.34l-.3.63-.03-.02Zm6.32-9.04c1.3-2.44 2.3-4.82 3.75-6.82.93-1.3 2.08-2.35 3.38-3.1a5.39 5.39 0 0 1 2.39-1c.53.03.9.47 1.34 1.35.73 1.41.49 3.25-.05 5.12a30.1 30.1 0 0 1-4.03 8.08c-.69 1-3 3.74-3.97 4.91l-.44.54-.13.18a1.7 1.7 0 0 0-.26.73c-.04.35.02.71.18 1 .16.3.41.5.71.6.3.08.63.06.94-.08.2-.07.62-.25 1.2-.5a78.07 78.07 0 0 1 11.68-4.08c1.68-.44 3.38-.67 5.08-.68.93-.07 1.85.18 2.62.72.37.28.64.68.79 1.17a1.76 1.76 0 0 1-.24 1.22c-.92 1.8-3.18 3.26-4.6 3.85a39.91 39.91 0 0 1-11.12 2.93c-3.72.48-7.45.19-11-.87a1.4 1.4 0 0 0-.87.09c-.28.12-.53.33-.72.6-.19.26-.64.95-.68.99a56.69 56.69 0 0 1-7.75 8 42.46 42.46 0 0 1-8.94 5.99 47.22 47.22 0 0 1-16.6 4.21 62 62 0 0 1-16.81-.75c-2.97-.75-6.83-1.58-9.66-3.62a7.22 7.22 0 0 1-2.2-2.25 8.59 8.59 0 0 1-1.18-3.12c-.12-.94-.07-1.9.17-2.84.42-1.61 1-3.17 1.7-4.66.6-1.36 1.25-3.21 2.1-4.8.41-.86.98-1.61 1.67-2.2a7.17 7.17 0 0 1 4.4-1.36c2.56 0 5.18.9 7.45 1.58 4.34 1.36 8.76 2.45 13.23 3.26a56.13 56.13 0 0 0 16.57.43 65.61 65.61 0 0 0 11.79-2.5c1.02-.32 2.03-.75 2.99-1.3.23-.14.42-.36.54-.63l.43-.97c1-2.27 3.33-7.61 4.22-9.38l-.07-.04Z" clip-rule="evenodd"/><path fill="#004091" fill-rule="evenodd" d="M214.23 249.55c-.14-.3-.16-.65-.08-.99.08-.34.27-.63.52-.83.25-.2.55-.28.84-.23.29.05.54.23.71.5 1.8 3.37 1.73 7.71.86 11.88-1.38 6.6-4.89 13.02-6.25 14.47a1.02 1.02 0 0 1-1.52-.14 1.42 1.42 0 0 1-.27-.89c0-.33.1-.65.3-.91 1.18-1.24 4.22-6.93 5.48-12.98.74-3.58.81-7.2-.6-9.88ZM225.19 252.37a1.5 1.5 0 0 1-.2-1c.04-.37.21-.7.46-.93.25-.23.56-.34.86-.31.3.03.57.21.75.5 1.72 2.7 2.01 6.52 1.62 10.32-.62 5.95-2.98 12.07-3.98 13.53-.1.16-.21.29-.35.39-.14.1-.29.16-.44.2a.96.96 0 0 1-.87-.26 1.23 1.23 0 0 1-.28-.41 1.64 1.64 0 0 1 .19-1.56c.85-1.24 2.88-6.64 3.44-12.06.34-3.2.12-6.31-1.2-8.41ZM236.31 253.97a1.57 1.57 0 0 1 .16-1.93c.24-.25.54-.38.84-.37.31.01.6.17.79.43 1.83 2.5 2.25 5.93 2 9.35-.42 5.32-2.61 10.75-3.59 12.03-.1.15-.22.28-.36.38-.15.1-.3.16-.46.19a.96.96 0 0 1-.47-.04 1.03 1.03 0 0 1-.4-.26c-.12-.13-.22-.28-.28-.44a1.63 1.63 0 0 1 .29-1.57c.8-1.06 2.58-5.68 2.96-10.38.2-2.77-.1-5.51-1.48-7.39ZM246.33 252.87c-.1-.13-.18-.28-.23-.45a1.56 1.56 0 0 1 .05-1.06c.07-.17.16-.33.28-.46.12-.13.25-.23.4-.3.14-.07.3-.1.45-.1a1 1 0 0 1 .45.1c.14.06.27.16.37.29a11.14 11.14 0 0 1 1.9 3.94c.4 1.47.52 3.03.37 4.6-.26 4.83-2.32 9.7-3.28 10.86-.22.26-.52.42-.83.44-.31.02-.6-.11-.82-.36a1.41 1.41 0 0 1-.33-.95c0-.37.14-.73.36-1 .73-.84 2.34-4.85 2.57-8.99.12-1.2.03-2.4-.27-3.53a8.65 8.65 0 0 0-1.44-3.03ZM257.06 250.88c-.22-.2-.36-.5-.38-.83-.03-.33.06-.67.24-.94.18-.28.44-.47.73-.53.28-.07.58 0 .8.17a6.9 6.9 0 0 1 2.4 4.56c.21 2.02-.18 4.1-1.12 5.9-.09.17-.2.3-.33.41-.12.11-.27.19-.42.23a.97.97 0 0 1-.88-.17c-.12-.1-.22-.22-.3-.37a1.49 1.49 0 0 1 .13-1.5c.61-1.23.85-2.63.68-3.97a4.45 4.45 0 0 0-1.55-2.96Z" clip-rule="evenodd"/><path fill="#004091" fill-rule="evenodd" d="M206.03 245.09c1.42-.01 3.1-.4 4.33.4s1.62 2.58 1.8 4.19c.74 7.24-1.38 18.6-7.97 22.17-.43.24-.91.28-1.35.12h-.16c-.3-.05-.59-.12-.87-.23a16.36 16.36 0 0 1-3.47-1.88 8.87 8.87 0 0 1-2.67-2.77 10.54 10.54 0 0 1-1.41-3.82c-.17-1.2-.1-2.44.2-3.65a27.59 27.59 0 0 1 1.81-5.02c.72-1.64 1.3-3.3 2.16-4.88a8.48 8.48 0 0 1 2.26-2.88 8.75 8.75 0 0 1 5.34-1.75Z" clip-rule="evenodd"/><path fill="#FFC700" fill-rule="evenodd" d="M205.91 247.22a7 7 0 0 0-4.3 1.34 6.48 6.48 0 0 0-1.62 2.15c-.84 1.56-1.47 3.38-2.06 4.71a25.33 25.33 0 0 0-1.66 4.56 7.48 7.48 0 0 0-.17 2.8 8.4 8.4 0 0 0 1.15 3.06c.57.9 1.3 1.65 2.16 2.2.98.68 2.02 1.25 3.12 1.68.4.16.53.04.94.21 5.52-2.98 7.5-13.2 6.8-19.85-.37-3.76-1.35-2.86-4.36-2.86Z" clip-rule="evenodd"/><path fill="#004091" fill-rule="evenodd" d="M271.34 231.27a.68.68 0 0 1 .18-.2.59.59 0 0 1 .23-.1.52.52 0 0 1 .45.14c.06.05.11.13.14.2a.76.76 0 0 1-.12.77c-4.53 6.1-9.87 16.76-11.5 20.13 3.88-.3 17.91-1.56 22.39-3.85a.54.54 0 0 1 .45-.02c.15.06.26.19.32.35a.7.7 0 0 1 .04.25.78.78 0 0 1-.18.5.63.63 0 0 1-.2.14c-5.26 2.7-22.85 3.97-23.8 4.04a.57.57 0 0 1-.32-.02.56.56 0 0 1-.18-.16.64.64 0 0 1-.1-.22.75.75 0 0 1 .05-.52s6.63-13.97 12.15-21.43Z" clip-rule="evenodd"/><path fill="#fff" d="M48.37 293.41c9.8-4.3 12.68-19.3 6.44-33.51-6.25-14.2-19.26-22.24-29.06-17.93-9.8 4.3-12.68 19.3-6.43 33.5 6.25 14.21 19.25 22.24 29.05 17.94Z"/><path fill="#004091" d="M42.7 294.9c-3.35 0-6.88-1.1-10.36-3.25-5.54-3.41-10.26-9.11-13.3-16.03-3.05-6.93-4.05-14.26-2.83-20.65 1.24-6.43 4.58-11.13 9.4-13.25 9.94-4.36 23.15 3.75 29.45 18.08 6.3 14.33 3.34 29.54-6.6 33.9-1.81.8-3.78 1.2-5.76 1.2Zm-11.34-53.78c-1.9 0-3.77.38-5.5 1.13-4.65 2.04-7.87 6.6-9.07 12.83-1.2 6.27-.22 13.48 2.78 20.3s7.64 12.42 13.08 15.77c5.4 3.34 10.93 4.05 15.58 2.01 9.63-4.22 12.45-19.09 6.29-33.12-5.05-11.5-14.58-18.92-23.16-18.92Z"/><path fill="#fff" d="M54.93 287.5c2-6.5 1.42-14.9-2.16-23.03-6.24-14.2-19.25-22.23-29.05-17.93a14.58 14.58 0 0 0-6.58 5.92c1.48-4.85 4.4-8.64 8.6-10.48 9.79-4.3 22.8 3.73 29.04 17.93 4.5 10.22 4.27 20.84.15 27.6Z" opacity=".6"/><path fill="#004091" d="M42.7 296.66c-3.67 0-7.52-1.17-11.29-3.5-5.83-3.6-10.8-9.58-13.99-16.83-3.19-7.25-4.23-14.95-2.94-21.68 1.35-7.02 5.05-12.18 10.43-14.54 10.82-4.75 25.07 3.77 31.76 18.99 6.7 15.22 3.33 31.47-7.5 36.22-2.04.89-4.24 1.35-6.47 1.34Zm-11.28-53.79a12 12 0 0 0-4.86 1c-4.1 1.8-6.96 5.9-8.04 11.55-1.14 5.92-.2 12.76 2.66 19.26 2.86 6.5 7.26 11.81 12.4 14.98 4.89 3.02 9.84 3.7 13.94 1.9 8.75-3.85 11.16-17.66 5.39-30.81-4.76-10.84-13.62-17.88-21.49-17.88Z"/><path fill="#004091" d="M48.68 251.49 39 256.85a.89.89 0 0 1-1-1.45l8.33-7.27a2.07 2.07 0 1 1 2.36 3.36ZM57.5 274.32l-10.96-1.17a.89.89 0 0 1 0-1.76l10.96-1.18a2.08 2.08 0 0 1 2.28 1.84 2.06 2.06 0 0 1-2.28 2.27Z"/><path fill="#fff" d="M258.72 295.31c-9.8-4.3-12.68-19.3-6.43-33.5 6.25-14.22 19.25-22.24 29.05-17.94 9.8 4.3 12.68 19.3 6.44 33.51-6.25 14.2-19.26 22.24-29.06 17.93Z"/><path fill="#004091" d="M264.4 296.8c3.34 0 6.88-1.1 10.36-3.24 5.54-3.42 10.26-9.12 13.3-16.04 3.05-6.92 4.05-14.26 2.82-20.64-1.23-6.43-4.57-11.14-9.4-13.26-9.94-4.36-23.14 3.76-29.44 18.08-6.3 14.34-3.34 29.54 6.59 33.9 1.82.8 3.78 1.2 5.77 1.2Zm11.33-53.78c1.9 0 3.77.38 5.51 1.14 4.65 2.04 7.87 6.6 9.07 12.83 1.2 6.27.21 13.48-2.78 20.3-3 6.81-7.64 12.41-13.08 15.77-5.4 3.33-10.94 4.05-15.59 2-9.63-4.22-12.45-19.09-6.28-33.12 5.05-11.49 14.57-18.92 23.15-18.92Z"/><path fill="#fff" d="M252.16 289.4c-2-6.49-1.41-14.89 2.16-23.02 6.25-14.2 19.26-22.23 29.06-17.93a14.58 14.58 0 0 1 6.57 5.9c-1.47-4.83-4.4-8.63-8.59-10.46-9.8-4.3-22.8 3.72-29.04 17.93-4.5 10.22-4.27 20.83-.16 27.59Z" opacity=".6"/><path fill="#004091" d="M264.4 298.56c3.67 0 7.52-1.17 11.28-3.5 5.84-3.6 10.8-9.58 14-16.83 3.18-7.25 4.22-14.95 2.93-21.68-1.34-7.01-5.05-12.18-10.42-14.54-10.83-4.75-25.07 3.77-31.76 19-6.7 15.21-3.33 31.46 7.49 36.21 2.04.9 4.25 1.35 6.48 1.34Zm11.28-53.78c1.67-.01 3.32.33 4.85 1 4.1 1.8 6.96 5.9 8.05 11.54 1.13 5.93.19 12.77-2.66 19.26-2.86 6.5-7.26 11.81-12.4 14.99-4.89 3.02-9.84 3.69-13.95 1.89-8.74-3.84-11.16-17.66-5.38-30.8 4.76-10.84 13.62-17.89 21.48-17.89Z"/><path fill="#004091" d="m258.41 253.4 9.7 5.35a.88.88 0 0 0 1-1.44l-8.33-7.28a2.07 2.07 0 0 0-2.72 3.11c.1.1.23.18.35.25ZM249.6 276.23l10.96-1.18a.89.89 0 0 0 .56-1.47.89.89 0 0 0-.56-.29l-10.96-1.17a2.07 2.07 0 0 0-2.2 2.63 2.05 2.05 0 0 0 1.76 1.48h.44Z"/><path fill="#fff" d="M241.03 358.11c4.97 0 9.13-.4 12.47-1.3a47.1 47.1 0 0 0 10.96-2.38l.89-.34.2-.88c0-.14 1.97-11.24-10.15-16.49a12.24 12.24 0 0 0-4.83-.88c-2.25 0-4.84.48-7.7 1.5-1.43-1.64-3.88-3.4-8.04-3.54h-.27c-5.45 0-10.35 5.99-14.64 11.3-1.84 2.32-3.61 4.5-4.97 5.45-1.3.2-1.7.88-1.84 1.36-.2.34-.28.82-.2 1.23.06.34.4 1.36 1.97 1.36H215.35c.75.48 2.52 1.16 8.45 2.04a95.13 95.13 0 0 0 17.23 1.57Z"/><path fill="#004091" d="M234.56 334.88c-4.97 0-9.74 5.86-13.9 10.97-1.9 2.38-3.67 4.56-5.1 5.65-.07.07-.14.14-.2.14-.55.07-1.23.2-1.3.82-.14.13-.2.34-.14.61.07.4.41.61 1.03.61h.47c.14.07.27.07.41.14.68.48 2.59 1.09 8.17 1.98 3.34.54 9.95 1.43 17.03 1.43 4.9 0 9-.41 12.26-1.3a46.1 46.1 0 0 0 10.83-2.31l.34-.14.07-.34c0-.14 1.84-10.49-9.54-15.4a11.4 11.4 0 0 0-4.42-.81c-2.52 0-5.25.68-8.04 1.7-1.3-1.77-3.68-3.54-7.77-3.68-.06-.06-.13-.06-.2-.06Zm0-1.97h.27c4.02.14 6.68 1.7 8.24 3.34a25 25 0 0 1 7.43-1.37c1.9 0 3.68.35 5.17 1.03 12.88 5.51 10.77 17.43 10.77 17.57l-.07.34-.2 1.09-1.03.4-.34.14a49.9 49.9 0 0 1-11.17 2.39c-3.4.88-7.63 1.3-12.6 1.3-7.22 0-13.96-.9-17.37-1.44-5.51-.88-7.56-1.5-8.58-2.04h-.2c-1.84 0-2.73-1.1-2.93-2.11-.14-.62-.07-1.3.27-1.84.2-.68.82-1.57 2.32-1.9 1.22-1.03 2.93-3.14 4.63-5.19 4.36-5.51 9.4-11.71 15.39-11.71Z"/><path fill="#fff" d="M237.22 385.01c-9.78 0-17.71-3.23-17.71-7.22 0-3.98 7.93-7.22 17.7-7.22 9.78 0 17.71 3.24 17.71 7.22 0 3.99-7.92 7.22-17.7 7.22Z"/><path fill="#004091" d="M237.22 371.53c-9.27 0-16.7 2.79-16.7 6.2 0 3.4 7.5 6.2 16.7 6.2 9.26 0 16.68-2.8 16.68-6.2 0-3.41-7.42-6.2-16.68-6.2Zm0-1.98c9.26 0 18.66 2.8 18.66 8.18s-9.4 8.17-18.66 8.17c-9.27 0-18.67-2.8-18.67-8.17 0-5.32 9.4-8.18 18.67-8.18Z"/><path fill="#fff" d="M237.28 379.3c5.45 0 11.04-.82 15.6-2.32 18.32-5.93 17.5-23.63 17.5-23.84a.97.97 0 0 0-.95-.95h-60.68c-.48 0-.89.34-.96.75-1.5 6.6-.4 12.19 3.14 16.61 4.83 6.2 14.5 9.74 26.35 9.74Z"/><path fill="#004091" d="M208.75 353.2c-4.09 18.06 12.46 25.14 28.53 25.14 5.45 0 10.83-.82 15.33-2.25 17.77-5.79 16.82-22.81 16.82-22.81h-60.68m0-2.05h60.68a2 2 0 0 1 1.98 1.84c0 .2.27 4.77-1.84 10.08-1.98 4.97-6.4 11.51-16.35 14.71a53.94 53.94 0 0 1-15.94 2.39c-12.12 0-22.06-3.68-27.17-10.08-3.75-4.7-4.84-10.56-3.27-17.44.14-.82.95-1.5 1.9-1.5Z"/><path fill="#fff" d="M239.06 361.1c-17.3 0-31.34-3.53-31.34-7.9 0-4.36 14.03-7.9 31.34-7.9 17.3 0 31.32 3.54 31.32 7.9 0 4.37-14.02 7.9-31.32 7.9Z"/><path fill="#004091" d="M239.06 346.26c-16.76 0-30.38 3.06-30.38 6.95 0 3.81 13.55 6.94 30.38 6.94 16.82 0 30.37-3.06 30.37-6.94 0-3.82-13.62-6.95-30.37-6.95Zm0-1.9c8.24 0 16 .74 21.86 2.04 7.01 1.56 10.42 3.81 10.42 6.8 0 3-3.4 5.25-10.42 6.82-5.86 1.36-13.62 2.04-21.86 2.04-8.25 0-16.01-.75-21.87-2.04-7.01-1.57-10.42-3.82-10.42-6.81 0-3 3.4-5.25 10.42-6.81 5.86-1.37 13.63-2.05 21.87-2.05Z"/><path fill="#004091" d="M239.06 357.5c-15.09 0-27.31-1.92-27.31-4.3 0-2.36 12.22-4.28 27.3-4.28 15.09 0 27.32 1.92 27.32 4.29s-12.23 4.29-27.31 4.29Z"/><path fill="#D68285" d="M214.88 353.34c2.8 0 21.18-4.42 28.74-11.1l.14-.13v-.2c0-.08-1.3-6.48-9-6.75h-.2c-4.83 0-9.74 6-13.62 10.83-1.9 2.38-3.75 4.63-5.18 5.72-.27.2-.54.4-.81.48-.41.2-.82.4-.68.75 0 .4.47.4.6.4Z"/><path fill="#004091" stroke="#004091" d="M227.32 349.5c5.72-1.88 11.91-4.53 15.6-7.64a8.06 8.06 0 0 0-1.36-2.65c-1.14-1.47-3.19-3.01-6.81-3.14h-.1l-.1-.06-.04-.01c-1.58.01-3.22.76-4.9 2a33.13 33.13 0 0 0-4.94 4.82c-1.07 1.24-2.11 2.52-3.1 3.75l-1.43 1.75a26.71 26.71 0 0 1-3.84 4.04c.8-.13 1.88-.34 3.15-.64a93.2 93.2 0 0 0 7.87-2.22Zm7.45-15.11h.01c4.15.14 6.62 1.96 8.03 3.77a9.97 9.97 0 0 1 1.78 3.62v.03l.07.33.05.27-.19.19-.27.27-.01.01-.02.01c-3.9 3.4-10.51 6.23-16.46 8.19a96.53 96.53 0 0 1-8.07 2.29c-2.24.52-3.98.81-4.74.81-.35 0-.7-.05-.97-.22-.3-.18-.48-.46-.54-.8-.12-.53.14-.93.41-1.18.25-.22.54-.36.73-.44a8.62 8.62 0 0 1 .32-.2c.13-.07.24-.15.36-.23 1.37-1.05 3.1-3.17 5.02-5.57 2.07-2.58 4.31-5.36 6.67-7.48 2.35-2.12 4.9-3.67 7.61-3.67H234.77Z"/><path fill="#B8311E" d="M218.01 352.53c1.5-.82 3.75-2.46 6.81-5.86 6.54-7.29 2.86-7.63 7.9-8.24 5.04-.55 7.02-1.3 8.24.88.55.96 1.43 2.25 1.3 3.61-6.4 4.84-18.32 8.38-24.25 9.6Z"/><path fill="#D68285" d="M242.6 356.07c9.12 0 16.27-.96 21.38-2.8l.2-.06.07-.2c0-.08 1.84-10.22-9.4-15-1.29-.54-2.72-.8-4.28-.8-6.68 0-14.99 4.76-22.34 8.91-4.23 2.45-8.25 4.7-11.04 5.52-.54.14-1.09.27-1.5.27-.68.07-1.36.14-1.3.61 0 1.57 16.08 3.55 28.2 3.55Z"/><path fill="#004091" stroke="#004091" stroke-width="2" d="M250.5 337.54c-10.63 0-25.68 12.33-33.24 14.44-.54.14-1.09.27-1.57.27-5.24.34 10.63 3.48 26.9 3.48 7.77 0 15.6-.75 21.32-2.8 0 0 1.91-9.87-9.2-14.64-1.28-.54-2.72-.75-4.21-.75Zm0-.68c1.63 0 3.13.27 4.42.82 11.45 4.9 9.6 15.25 9.54 15.39l-.07.34-.34.14c-5.18 1.9-12.4 2.86-21.52 2.86-8.38 0-15.74-.82-19.34-1.3-9.2-1.22-9.27-2.04-9.27-2.59 0-.81 1.02-.88 1.64-.95.4 0 .88-.13 1.43-.27 2.79-.75 6.74-3.07 10.96-5.45 7.43-4.22 15.8-8.99 22.55-8.99Z"/><path fill="#B8311E" d="M220.05 353.95c2.73-.33 7.02-1.5 13.49-4.76 13.82-7.02 8.65-9.74 16.48-7.63 7.83 2.04 11.1 2.11 11.72 6.06.27 1.77.81 4.09-.14 6.06-12.26 3.48-32.08 1.84-41.55.27Z"/><path fill="#D68285" stroke="#004091" stroke-width="3" d="M241.03 356.82c5.66 0 10.22-.55 13.63-1.64l.2-.06.07-.21c0-.07 1.7-7.97-6.95-12.06a9.42 9.42 0 0 0-3.75-.74c-5.17 0-11.64 3.4-17.3 6.4-3.33 1.77-6.53 3.47-8.71 3.95-.41.14-.82.14-1.16.2-.41 0-1.16.07-1.1.55 0 .81 4.5 1.7 8.25 2.25 3.13.47 9.74 1.36 16.82 1.36Z"/><path fill="#004091" d="M244.1 342.45c-8.24 0-20.1 8.92-25.95 10.35-.48.14-.89.2-1.23.2-4.42.14 10.42 3.55 24.11 3.55 4.98 0 9.81-.48 13.49-1.64 0 0 1.77-7.7-6.74-11.71a8.1 8.1 0 0 0-3.68-.75Zm0-.68c1.43 0 2.8.27 3.88.81 8.92 4.16 7.15 12.33 7.15 12.4l-.07.34-.34.14c-3.4 1.09-8.03 1.7-13.69 1.7-7.08 0-13.75-.89-17.02-1.43-8.52-1.36-8.52-2.11-8.52-2.59 0-.82 1.02-.82 1.43-.88.34 0 .69-.07 1.1-.14 2.17-.55 5.3-2.18 8.64-3.95 5.72-3 12.2-6.4 17.44-6.4Z"/><path fill="#B8311E" d="M220.26 354.43c2.18-.2 5.52-.95 10.7-3.33 11.03-5.11 7-7.36 13.07-5.52 6.06 1.84 8.65 1.97 8.99 5.04.13 1.43.54 3.2-.27 4.77-9.74 2.31-25.14.54-32.5-.96Z"/><path fill="#fff" d="M64.4 386c11.3 0 20.45-3.74 20.45-8.34s-9.15-8.33-20.44-8.33c-11.3 0-20.45 3.73-20.45 8.33S53.12 386 64.41 386Z"/><path fill="#004091" d="M64.4 370.43c10.7 0 19.27 3.22 19.27 7.15s-8.65 7.16-19.26 7.16c-10.7 0-19.27-3.23-19.27-7.16s8.57-7.15 19.27-7.15Zm0-2.28c-10.69 0-21.54 3.22-21.54 9.43 0 6.21 10.85 9.44 21.55 9.44 10.7 0 21.54-3.23 21.54-9.44 0-6.13-10.85-9.43-21.54-9.43Z"/><path fill="#fff" d="M64.33 379.4c-6.3 0-12.74-.95-18-2.68-21.16-6.84-20.21-27.29-20.21-27.52 0-.63.55-1.1 1.1-1.1h70.06c.55 0 1.02.39 1.1.86 1.73 7.63.47 14.08-3.62 19.19-5.58 7.15-16.75 11.24-30.43 11.24Z"/><path fill="#004091" d="M97.28 349.28c4.71 20.83-14.4 29.01-32.95 29.01a59.7 59.7 0 0 1-17.7-2.6c-20.51-6.68-19.41-26.34-19.41-26.34h70.06m0-2.36H27.22a2.3 2.3 0 0 0-2.28 2.13c0 .23-.32 5.5 2.12 11.63 2.28 5.75 7.4 13.3 18.87 16.99a62.25 62.25 0 0 0 18.4 2.75c14 0 25.48-4.25 31.37-11.64 4.33-5.42 5.59-12.18 3.78-20.13-.16-.94-1.1-1.73-2.2-1.73Z"/><path fill="#fff" d="M55.76 370.35c-13.76-4.48-17.77-14.7-18.95-21.08H27.3s-1.1 19.74 19.42 26.35c13.76 4.48 34.52 3.61 44.97-5.74-11 4.16-25.47 3.85-35.93.47Z"/><path fill="#fff" d="M62.29 358.4c19.97 0 36.17-4.09 36.17-9.12 0-5.04-16.2-9.13-36.17-9.13-19.98 0-36.17 4.09-36.17 9.13 0 5.03 16.2 9.12 36.17 9.12Z"/><path fill="#004091" d="M62.29 341.25c19.34 0 35.07 3.54 35.07 8.02 0 4.4-15.65 8.03-35.07 8.03s-35.07-3.54-35.07-8.03c0-4.4 15.72-8.01 35.07-8.01Zm0-2.2c-9.52 0-18.48.87-25.24 2.36-8.1 1.81-12.03 4.4-12.03 7.86 0 3.47 3.93 6.06 12.03 7.87 6.76 1.57 15.72 2.36 25.24 2.36 9.51 0 18.47-.87 25.24-2.36 8.1-1.81 12.03-4.4 12.03-7.87 0-3.45-3.93-6.05-12.03-7.86-6.77-1.57-15.73-2.36-25.24-2.36Z"/><path fill="#D68285" stroke="#004091" stroke-width="3" d="M62.29 354.23c17.4 0 31.53-2.22 31.53-4.95 0-2.74-14.12-4.96-31.53-4.96-17.42 0-31.54 2.22-31.54 4.96 0 2.73 14.12 4.95 31.54 4.95Z"/><path fill="#fff" d="M70.86 362.1s19.65-.8 24.21-4.57c0 0 0 4.56-2.28 6.06-2.28 1.57-18.95.78-21.93-1.5ZM154.97 395.88c12.38 0 22.41-4.09 22.41-9.14 0-5.04-10.03-9.13-22.4-9.13-12.38 0-22.41 4.09-22.41 9.13 0 5.05 10.03 9.14 22.4 9.14Z"/><path fill="#004091" d="M154.97 378.81c11.73 0 21.12 3.54 21.12 7.85 0 4.3-9.48 7.84-21.12 7.84-11.72 0-21.11-3.53-21.11-7.84 0-4.31 9.4-7.85 21.11-7.85Zm0-2.5c-11.72 0-23.6 3.54-23.6 10.35 0 6.8 11.88 10.34 23.6 10.34 11.73 0 23.62-3.53 23.62-10.34 0-6.72-11.9-10.34-23.62-10.34Z"/><path fill="#fff" d="M154.89 388.64c-6.9 0-13.96-1.03-19.74-2.93-23.18-7.5-22.15-29.9-22.15-30.16 0-.7.6-1.2 1.2-1.2H191c.6 0 1.12.42 1.2.94 1.9 8.36.52 15.42-3.96 21.03-6.12 7.84-18.36 12.32-33.35 12.32Z"/><path fill="#004091" d="M191 355.63c5.17 22.84-15.77 31.8-36.11 31.8-6.9 0-13.7-1.03-19.4-2.84-22.49-7.32-21.28-28.87-21.28-28.87H191m0-2.59H114.2a2.53 2.53 0 0 0-2.5 2.33c0 .26-.34 6.03 2.33 12.76 2.5 6.29 8.1 14.56 20.68 18.61a68.24 68.24 0 0 0 20.17 3.02c15.34 0 27.92-4.66 34.39-12.76 4.73-5.94 6.11-13.36 4.13-22.06-.17-1.03-1.2-1.9-2.41-1.9Z"/><path fill="#fff" d="M145.5 378.73c-15.09-4.91-19.48-16.12-20.78-23.1H114.3s-1.21 21.63 21.28 28.87c15.09 4.92 37.84 3.97 49.3-6.29-12.06 4.57-27.92 4.23-39.38.52Z"/><path fill="#fff" d="M152.65 365.63c21.9 0 39.64-4.48 39.64-10s-17.75-10-39.64-10c-21.9 0-39.64 4.48-39.64 10s17.74 10 39.64 10Z"/><path fill="#004091" d="M152.65 346.84c21.2 0 38.44 3.88 38.44 8.8 0 4.82-17.15 8.78-38.44 8.78s-38.44-3.88-38.44-8.79c0-4.82 17.24-8.79 38.44-8.79Zm0-2.41c-10.43 0-20.25.95-27.67 2.58-8.87 1.99-13.18 4.83-13.18 8.62 0 3.8 4.3 6.64 13.18 8.62 7.42 1.72 17.24 2.59 27.67 2.59 10.43 0 20.25-.95 27.66-2.59 8.88-1.98 13.19-4.83 13.19-8.62 0-3.79-4.31-6.63-13.19-8.62-7.4-1.72-17.23-2.58-27.66-2.58Z"/><path fill="#FFC700" stroke="#004091" stroke-width="3" d="M152.65 361.06c19.08 0 34.56-2.43 34.56-5.43 0-3-15.48-5.43-34.56-5.43-19.09 0-34.56 2.43-34.56 5.43 0 3 15.47 5.43 34.56 5.43Z"/><path fill="#fff" d="M162.04 369.68s21.55-.86 26.54-5c0 0 0 5-2.5 6.64-2.5 1.72-20.77.86-24.04-1.64Z"/><path fill="#fff" fill-rule="evenodd" d="M49.2 3.7c-6.15-.73-12.12 2.17-14.06 7.1-1.2 3.06.41 5.26 2.22 6.48 1.65 1.13 3.62 1.68 3.65-1.2 0-1.16.1-2.3 1.27-2.17 2.3.25 3.74 1.77.98 5.8-2.75 4.03-4.56 6.9-1.9 8.33 2.66 1.43 7.58 2.95 8.11.48.54-2.48-.4-11.02 1.67-12.1 1.3-.69 1.67.73 1.48 2.2-.3 2.37-.74 3.81 2.4 3.52a9.84 9.84 0 0 0 7.37-4.27c3.66-5.64-3.5-13.23-13.18-14.16Z" clip-rule="evenodd"/><path fill="#004091" fill-rule="evenodd" d="M49.08 4.64c-2.78-.33-5.6.15-8.12 1.37a9.96 9.96 0 0 0-4.92 5.17c-.4.92-.46 1.95-.16 2.91a5.08 5.08 0 0 0 2 2.46c.41.28.86.49 1.33.63.17.05.35.05.52 0 .06 0 .12-.09.17-.23.1-.3.15-.62.14-.93-.03-.65.06-1.3.27-1.92a1.76 1.76 0 0 1 2.04-1.17c.74.06 1.46.3 2.1.7.43.28.77.69.98 1.16.22.52.3 1.09.23 1.65a8.73 8.73 0 0 1-1.65 3.74 23.69 23.69 0 0 0-2.87 4.91c-.3.93-.18 1.63.63 2.07 1.26.66 2.59 1.15 3.96 1.47.65.16 1.32.21 1.99.16a.95.95 0 0 0 .74-.36.74.74 0 0 0 .05-.17c.16-1.25.22-2.5.19-3.76.04-3.6.08-8 1.96-8.98.28-.15.58-.24.89-.28a1.6 1.6 0 0 1 1.35.5c.29.32.48.7.56 1.12.13.6.15 1.21.06 1.82l-.07.57c-.09.5-.13 1-.11 1.5 0 .35.37.5 1.57.4a9.59 9.59 0 0 0 3.89-1.23 8.2 8.2 0 0 0 2.77-2.62c.44-.66.72-1.42.81-2.21a6.2 6.2 0 0 0-1.04-3.88 12.54 12.54 0 0 0-3.77-3.7 19 19 0 0 0-8.46-2.87h-.03Zm-8.98-.3a16.42 16.42 0 0 1 9.18-1.56c3.3.3 6.47 1.4 9.27 3.18 1.72 1.1 3.2 2.54 4.33 4.24a8.02 8.02 0 0 1 1.36 5.11 6.76 6.76 0 0 1-1.1 3.07 10.1 10.1 0 0 1-3.41 3.23 11.42 11.42 0 0 1-4.67 1.47c-2.66.25-3.46-.55-3.6-2.1-.03-.64.01-1.28.12-1.92l.07-.54c.07-.38.07-.78 0-1.16 0-.05 0-.1-.04-.14l-.06.03c-.89.47-.93 4.24-.96 7.34.04 1.38-.04 2.76-.22 4.13-.05.23-.13.45-.25.66A2.67 2.67 0 0 1 48 30.7c-.88.1-1.77.04-2.63-.17a17.7 17.7 0 0 1-4.43-1.67c-1.84-.99-2.15-2.43-1.53-4.3.8-1.92 1.85-3.73 3.1-5.38a6.88 6.88 0 0 0 1.33-2.9c.04-.23.02-.46-.07-.67a.9.9 0 0 0-.33-.39c-.38-.22-.8-.35-1.24-.37h-.1c-.1.4-.15.8-.13 1.21 0 .55-.08 1.1-.27 1.61a2.13 2.13 0 0 1-1.29 1.3 2.7 2.7 0 0 1-1.64 0 6.78 6.78 0 0 1-1.92-.94 6.95 6.95 0 0 1-2.72-3.42 5.97 5.97 0 0 1 .18-4.19 11.8 11.8 0 0 1 5.8-6.1v.01Z" clip-rule="evenodd"/><path fill="#fff" fill-rule="evenodd" d="M49.46 1.05C43.3.31 37.33 3.2 35.39 8.14c-1.2 3.07-.65 4.8 1.13 6.02 1.66 1.13 2 1.4 3.02-.98a3.25 3.25 0 0 1 2.95-1.92c2.31.24 3.75 1.75.99 5.79-2.76 4.03-4.57 6.9-1.9 8.33 2.66 1.43 7.57 2.95 8.1.48.55-2.47-.4-11.01 1.67-12.1 1.3-.69 2.45.74 2.28 2.21-.3 2.36-.74 3.8 2.4 3.52 2.37-.22 4.68-1.39 6.59-4.3 3.68-5.61-3.5-13.17-13.16-14.14Z" clip-rule="evenodd"/><path fill="#004091" fill-rule="evenodd" d="M49.33 1.98c-2.78-.34-5.6.14-8.12 1.37a9.93 9.93 0 0 0-4.92 5.16 5.68 5.68 0 0 0-.52 3.17c.19.73.65 1.35 1.3 1.74h.04c.32.23.65.44 1 .62 0 0 .16-.25.57-1.23.35-.77.92-1.41 1.63-1.86.68-.46 1.5-.68 2.31-.63.75.07 1.47.33 2.1.74a2.82 2.82 0 0 1 1.21 2.8 8.59 8.59 0 0 1-1.65 3.75 23.6 23.6 0 0 0-2.86 4.9c-.31.94-.2 1.64.63 2.07 1.25.67 2.58 1.17 3.97 1.48.64.16 1.3.22 1.97.15a.94.94 0 0 0 .74-.35.73.73 0 0 0 .06-.17c.15-1.25.22-2.5.18-3.76.04-3.6.08-7.99 1.96-8.98a2.27 2.27 0 0 1 2.53.23c.3.25.55.56.73.92.32.62.45 1.33.37 2.03l-.08.57c-.09.5-.12 1-.1 1.51 0 .34.36.5 1.56.4a7 7 0 0 0 3.07-1.01 9.1 9.1 0 0 0 2.82-2.87c.44-.66.72-1.42.8-2.21a6.23 6.23 0 0 0-1.08-3.92 12.63 12.63 0 0 0-3.76-3.69 18.95 18.95 0 0 0-8.43-2.9l-.03-.03Zm-8.98-.29A16.43 16.43 0 0 1 49.54.11c3.3.32 6.47 1.41 9.26 3.2 1.73 1.09 3.2 2.53 4.33 4.23a8.11 8.11 0 0 1 1.37 5.11 6.87 6.87 0 0 1-1.1 3.08 10.95 10.95 0 0 1-3.42 3.44 8.85 8.85 0 0 1-3.88 1.28c-2.67.24-3.47-.56-3.61-2.1a9.1 9.1 0 0 1 .13-1.93l.07-.54c.04-.32-.02-.65-.17-.94a.98.98 0 0 0-.26-.32.38.38 0 0 0-.21-.1c-.1 0-.19.02-.27.07-.89.47-.93 4.23-.96 7.33.04 1.38-.03 2.76-.22 4.13-.05.23-.13.46-.24.67a2.7 2.7 0 0 1-2.14 1.33c-.88.09-1.77.03-2.63-.18a18.44 18.44 0 0 1-4.43-1.66c-1.84-1-2.15-2.44-1.53-4.31.8-1.92 1.85-3.72 3.1-5.38a6.92 6.92 0 0 0 1.34-2.9c.03-.22 0-.46-.08-.67a.94.94 0 0 0-.33-.38c-.38-.22-.8-.35-1.24-.38-.39-.01-.77.1-1.09.34-.4.24-.71.59-.91 1-.98 2.34-1.63 2.84-3.04 2.22a7.81 7.81 0 0 1-1.34-.78H36a4.61 4.61 0 0 1-2.07-2.9 7.43 7.43 0 0 1 .59-4.24 11.8 11.8 0 0 1 5.83-6.14Z" clip-rule="evenodd"/><path fill="#fff" fill-rule="evenodd" d="M40.14 4.64c.33-.27.67-.51 1.03-.74a11.73 11.73 0 0 1 6.22-1.57c1.96.1 10.6 1.8 10.87 3.84-.16.08-9.3-1.78-10.8-1.75-1.78.06-3.51.57-5.04 1.48-.28.16-.54.35-.79.55-2.17 1.99-2.47 4.15-3.73 3.44-2.37-.51 1.54-4.6 2.24-5.25Z" clip-rule="evenodd"/><path fill="#B8311E" fill-rule="evenodd" d="M38.65 107.93c1.27 3.79 1.3 6.06.97 7.05-.33.98-5.13 9.09-8.1 9.24-2.96.16-7.3-4.15-15.01-6.02-7.72-1.86-11.87-1.95-12.98-3.99a46.75 46.75 0 0 1-2.37-6.02s21.63-6.28 37.49-.26Z" clip-rule="evenodd"/><path fill="#004091" fill-rule="evenodd" d="M37.73 108.82c.37 1.13.64 2.28.82 3.45.16.77.16 1.56 0 2.33a30.94 30.94 0 0 1-4.18 6.2c-1.09 1.25-2.17 2.21-2.9 2.28-1.06.06-2.62-.76-4.65-1.87a40.42 40.42 0 0 0-10.02-4.13c-2.28-.55-4.24-.95-5.92-1.28-3.68-.76-5.8-1.17-6.32-2.14a36.13 36.13 0 0 1-1.9-4.68c4.58-1.16 21.79-4.95 35.08-.16h-.01Zm3.1 3.15a25 25 0 0 0-1.07-4.34 1.15 1.15 0 0 0-.71-.75c-16.21-6.16-38.14.2-38.2.22H.81a1.16 1.16 0 0 0-.76 1.45c.68 2.13 1.5 4.2 2.46 6.22 1.03 1.92 3.54 2.42 7.88 3.3 1.64.33 3.57.75 5.84 1.26a38.7 38.7 0 0 1 9.45 3.9c2.36 1.27 4.17 2.28 5.88 2.14 1.45-.08 3.02-1.37 4.5-3.03a34.14 34.14 0 0 0 4.63-7c.29-1.1.34-2.25.13-3.37Z" clip-rule="evenodd"/><path fill="#D68285" fill-rule="evenodd" d="M7.6 95.7c3.65-2.45 6.62-2.8 10.7-.25 4.06 2.55 11.61 5.35 16.1 8.23 4.49 2.9 5.68 4.5 1.45 9.43-4.24 4.92-4.5 7.13-6.7 6.02-2.2-1.1-11.36-6.44-18.06-7.13-6.71-.68-8.83-1.35-9.5-4.24-.68-2.89 5-10.86 6.01-12.05Z" clip-rule="evenodd"/><path fill="#004091" fill-rule="evenodd" d="M8.38 96.58a8.89 8.89 0 0 1 4.43-1.73c1.74.01 3.43.56 4.84 1.57a75.27 75.27 0 0 0 7.57 3.86c2.94 1.3 5.8 2.77 8.56 4.41 2 1.3 3.26 2.28 3.5 3.25.23.97-.45 2.3-2.27 4.45-1.36 1.58-2.27 2.87-3.03 3.87-1.18 1.62-1.62 2.2-2.27 1.88l-1.26-.65c-3.45-1.85-11.2-5.98-17.21-6.6-3.23-.32-5.34-.64-6.67-1.2a2.8 2.8 0 0 1-1.82-2.15c-.18-.76.38-2.28 1.2-3.9a47.41 47.41 0 0 1 4.47-7.02l-.04-.04Zm4.36-4a11.15 11.15 0 0 0-6 2.4 49.57 49.57 0 0 0-4.9 7.62c-1.02 2.07-1.7 4.08-1.37 5.44a4.87 4.87 0 0 0 3.16 3.78c1.58.68 3.88 1.03 7.35 1.38 5.54.57 13.02 4.55 16.35 6.33l1.3.69c2.39 1.19 3.14.17 5.16-2.58.76-.98 1.64-2.27 2.93-3.73 2.4-2.77 3.23-4.7 2.8-6.49-.42-1.78-2-3.03-4.49-4.65a79.63 79.63 0 0 0-8.8-4.54 76.64 76.64 0 0 1-7.33-3.72 10.55 10.55 0 0 0-6.16-1.94Z" clip-rule="evenodd"/><path fill="#B8311E" fill-rule="evenodd" d="M31.87 110a1.15 1.15 0 0 0 1.85-1.05c-.04-.3-.2-.58-.43-.77a63.4 63.4 0 0 0-10.88-6.74 49.71 49.71 0 0 0-11.27-4.1 1.16 1.16 0 0 0-.87 2.1c.13.08.27.13.42.16 3.72.88 7.31 2.19 10.71 3.92 3.7 1.8 7.21 3.97 10.47 6.48ZM28.71 114.82a1.15 1.15 0 0 0 1.6-.29 1.16 1.16 0 0 0-.3-1.6 60.15 60.15 0 0 0-10.7-5.8 47.62 47.62 0 0 0-10.95-3.3 1.15 1.15 0 0 0-.32 2.27c3.56.63 7.03 1.68 10.35 3.14a58.29 58.29 0 0 1 10.32 5.58Z" clip-rule="evenodd"/><path fill="#B8311E" fill-rule="evenodd" d="M17.22 98.03a1.16 1.16 0 0 0-.5-1.85 1.14 1.14 0 0 0-1.24.34 26.5 26.5 0 0 0-3.31 5.3 37.29 37.29 0 0 0-2.7 6.82 1.16 1.16 0 0 0 2.28.43 34.69 34.69 0 0 1 2.5-6.26c.8-1.7 1.8-3.3 2.97-4.78ZM24.03 101.67a1.16 1.16 0 0 0 .22-1.73 1.15 1.15 0 0 0-1.73.02 23.06 23.06 0 0 0-3.45 4.28 32.57 32.57 0 0 0-3.02 5.67 1.15 1.15 0 0 0 2.2.7c.76-1.8 1.7-3.5 2.78-5.1.85-1.4 1.86-2.69 3-3.84ZM31.04 105.79a1.15 1.15 0 0 0-.64-1.98c-.29-.04-.58.03-.82.2a22.29 22.29 0 0 0-3.52 3.97 31.9 31.9 0 0 0-3.21 5.3 1.15 1.15 0 1 0 2.17.76 29.2 29.2 0 0 1 2.91-4.76c.9-1.28 1.94-2.46 3.11-3.5ZM288.35 27.48c1.17 3.48 1.2 5.57.9 6.48-.3.9-4.72 8.36-7.45 8.5-2.73.16-6.71-3.82-13.82-5.53-7.1-1.72-10.92-1.8-11.93-3.67a43 43 0 0 1-2.18-5.54s19.9-5.78 34.48-.24Z" clip-rule="evenodd"/><path fill="#004091" fill-rule="evenodd" d="M287.5 28.3c.34 1.03.6 2.1.76 3.17.15.7.15 1.43 0 2.14a28.53 28.53 0 0 1-3.84 5.71c-1 1.15-2 2.03-2.67 2.1-.98.05-2.42-.7-4.28-1.73a37.17 37.17 0 0 0-9.22-3.8c-2.09-.5-3.9-.87-5.45-1.17-3.38-.7-5.32-1.08-5.8-1.97a33.25 33.25 0 0 1-1.76-4.3c4.22-1.07 20.05-4.55 32.28-.15h-.02Zm2.86 2.9c-.2-1.36-.54-2.7-.98-4a1.07 1.07 0 0 0-.66-.7c-14.91-5.66-35.08.2-35.14.22h-.04a1.06 1.06 0 0 0-.7 1.33 44.17 44.17 0 0 0 2.27 5.72c.95 1.76 3.25 2.23 7.25 3.03 1.5.3 3.28.7 5.37 1.17 3.04.8 5.97 2.01 8.7 3.6 2.16 1.16 3.82 2.08 5.4 1.96 1.34-.08 2.78-1.26 4.14-2.8a31.41 31.41 0 0 0 4.26-6.44c.27-1 .3-2.06.12-3.1Z" clip-rule="evenodd"/><path fill="#D68285" fill-rule="evenodd" d="M259.8 16.24c3.35-2.27 6.08-2.58 9.82-.24 3.75 2.34 10.7 4.92 14.82 7.57 4.13 2.66 5.23 4.14 1.33 8.67-3.9 4.53-4.13 6.56-6.16 5.54-2.03-1.01-10.44-5.93-16.61-6.55-6.17-.63-8.12-1.25-8.74-3.9-.62-2.66 4.6-10 5.53-11.1Z" clip-rule="evenodd"/><path fill="#004091" fill-rule="evenodd" d="M260.5 17.04a8.18 8.18 0 0 1 4.09-1.6c1.6.02 3.15.52 4.45 1.45a69.1 69.1 0 0 0 6.96 3.55c2.7 1.2 5.34 2.55 7.88 4.06 1.84 1.19 3 2.1 3.21 2.98.22.9-.41 2.13-2.09 4.1-1.24 1.46-2.08 2.64-2.78 3.56-1.09 1.49-1.5 2.03-2.09 1.73l-1.16-.6c-3.17-1.7-10.3-5.5-15.83-6.06-2.97-.3-4.92-.6-6.14-1.12a2.57 2.57 0 0 1-1.67-1.97c-.17-.7.34-2.1 1.1-3.58a43.58 43.58 0 0 1 4.12-6.47l-.04-.03Zm4.02-3.69a10.25 10.25 0 0 0-5.52 2.21 45.58 45.58 0 0 0-4.5 7.01c-.95 1.9-1.57 3.76-1.27 5a4.48 4.48 0 0 0 2.91 3.49c1.46.62 3.57.95 6.75 1.27 5.1.52 11.98 4.18 15.05 5.82l1.2.63c2.2 1.1 2.88.16 4.74-2.37.7-.9 1.51-2.09 2.7-3.43 2.2-2.55 2.97-4.33 2.58-5.97-.39-1.64-1.84-2.79-4.14-4.28a73.23 73.23 0 0 0-8.09-4.18 70.46 70.46 0 0 1-6.74-3.42 9.7 9.7 0 0 0-5.67-1.78Z" clip-rule="evenodd"/><path fill="#B8311E" fill-rule="evenodd" d="M282.12 29.38a1.06 1.06 0 1 0 1.3-1.67 58.35 58.35 0 0 0-10-6.2 45.73 45.73 0 0 0-10.38-3.78 1.06 1.06 0 0 0-1.08 1.64 1.07 1.07 0 0 0 .67.45c3.42.8 6.73 2.01 9.86 3.6a55.6 55.6 0 0 1 9.63 5.96ZM279.21 33.82a1.05 1.05 0 0 0 1.64-1.06c-.05-.28-.21-.52-.44-.68-3.1-2.11-6.4-3.9-9.85-5.34a43.79 43.79 0 0 0-10.07-3.03 1.06 1.06 0 0 0-.3 2.09c3.28.58 6.48 1.54 9.52 2.88a53.58 53.58 0 0 1 9.5 5.14Z" clip-rule="evenodd"/><path fill="#B8311E" fill-rule="evenodd" d="M268.64 18.37a1.06 1.06 0 0 0-.88-1.75 1.05 1.05 0 0 0-.72.36 24.42 24.42 0 0 0-3.05 4.88c-1.03 2-1.86 4.1-2.48 6.27a1.07 1.07 0 0 0 .47 1.09 1.06 1.06 0 0 0 1.62-.7 31.95 31.95 0 0 1 2.3-5.75 22.6 22.6 0 0 1 2.74-4.4ZM274.9 21.71a1.06 1.06 0 0 0-.15-1.85 1.05 1.05 0 0 0-1.24.29 21.2 21.2 0 0 0-3.16 3.93 30 30 0 0 0-2.8 5.22 1.06 1.06 0 1 0 2.03.64c.7-1.64 1.56-3.22 2.57-4.7.78-1.27 1.7-2.46 2.76-3.53ZM281.35 25.5a1.06 1.06 0 0 0-.59-1.82c-.26-.03-.53.04-.75.2a20.48 20.48 0 0 0-3.24 3.65 29.4 29.4 0 0 0-2.95 4.87 1.07 1.07 0 0 0 .25 1.21 1.06 1.06 0 0 0 1.74-.5 26.87 26.87 0 0 1 2.68-4.4 18.27 18.27 0 0 1 2.86-3.2Z" clip-rule="evenodd"/><path fill="#fff" fill-rule="evenodd" d="M277.17 179.37c-.17-.54-.3-1.1-.4-1.65-.58-1.36-1.9-2.81-3.39-2.56-2.73.46-3.16 3.57-2.74 6.08.1.61.7 1.27.7 1.87l-1-.5a6.6 6.6 0 0 0-2.13-.93c-1.54-.28-4.26 1.4-4.57 3.17-.38 1.99.94 3.17 2.11 4.44.36.39.67.81 1 1.22.18.2.8.48.55.6-.68.38-1.98-.26-2.79 0-1.92.65-2.2 4.23-1.35 5.84 1 1.91 3.65 1.7 5.33 1.34.53-.1 1.04-.24 1.55-.42.27-.1 1.06-.22.8-.37-.26-.14-1.22 1.7-1.28 1.87-.76 1.58-1.56 5.56.61 6.25 1.88.6 4.7-1.22 6-2.56.19-.19 1.22-2.14 1.33-2.14.26 0 0 .55.03.83.04.57.13 1.15.28 1.71a3.92 3.92 0 0 0 2.89 3c1.9.37 5.3-.69 6.52-2.43.55-.83.96-1.75 1.22-2.71.13-.43.46-1.28.46-1.28.11.28.27.53.48.75.48.33 1.05.52 1.63.54a8.2 8.2 0 0 0 5.14-2.17c1.5-1.61 1.05-4.26-.4-5.69a6.7 6.7 0 0 0-2.19-1.37c-.44-.18-1.62-.1-1.33-.5.3-.39 1.33-.67 1.73-.97 1.65-1.22 2.98-3.38 1.94-5.48-.75-1.53-2.36-2.14-3.86-2.23a14.02 14.02 0 0 0-2.14.06c.75 0 1.26-1.46 1.5-2.03.79-1.82 2.21-5.26.48-6.9-2.43-2.33-5.72-.93-7.2 1.82-.24.44-.56 2.55-.96 2.73-.15.06-.22-1.5-.22-1.57-.1-1-.25-2.13-.92-2.89-3.18-3.61-4.85 3.18-5.41 5.23Z" clip-rule="evenodd"/><path fill="#004091" fill-rule="evenodd" d="M284.03 175v-.07c-.16-.5-.43-.97-.78-1.37-1.4-1.53-2.62-1.54-3.6-.92a4.74 4.74 0 0 0-1.53 1.88c-.38.77-.69 1.56-.93 2.38a5.55 5.55 0 0 0-1.64-1.93 3.1 3.1 0 0 0-2.28-.6 3.84 3.84 0 0 0-2.92 2.08 8.05 8.05 0 0 0-.61 4.68l-.23-.1a5.92 5.92 0 0 0-4.82.29c-1.25.71-1.77 2.01-2.02 3.3-.18.88-.08 1.8.29 2.61.54 1 1.24 1.92 2.06 2.7l.04.05c-.3 0-.58.04-.85.12a3.74 3.74 0 0 0-2.25 2.67 6.88 6.88 0 0 0 .31 4.62 3.82 3.82 0 0 0 2.44 1.91c1.22.28 2.5.28 3.73 0a10.06 10.06 0 0 0-.68 4.15c.12 1.49.8 2.68 2.12 3.1 1.13.28 2.31.17 3.36-.33a12.1 12.1 0 0 0 3.65-2.43c.23.82.65 1.58 1.22 2.23.63.72 1.49 1.2 2.43 1.4a8.4 8.4 0 0 0 4.1-.48 7.34 7.34 0 0 0 3.47-2.35c.27-.38.5-.79.69-1.22.2-.47.39-.96.54-1.46.52.24 1.08.38 1.65.4a9.23 9.23 0 0 0 5.95-2.5 4.74 4.74 0 0 0 1.17-3.7 5.63 5.63 0 0 0-2.83-4.36 7.1 7.1 0 0 0-.66-.36 6.9 6.9 0 0 0 2.54-3.58c.3-1.06.18-2.2-.31-3.18a4.67 4.67 0 0 0-2.06-2.1 6.65 6.65 0 0 0-2.67-.7l.24-.53a15.64 15.64 0 0 0 1.34-4.51 4.18 4.18 0 0 0-1.1-3.53 4.86 4.86 0 0 0-5.01-1.22 6.65 6.65 0 0 0-3.54 2.9l-.02.07Zm7.63 1.68c-.29 3.24-1.22 3.74-2.64 5.7-.05.07-.47 1.63.87 1.63l.3-.03H291.99c.63.02 1.25.18 1.82.47a2.54 2.54 0 0 1 1.17 3.38c-.37.8-.94 1.5-1.65 2-.3.22-.94.42-1.35.67-.23.14-.44.32-.6.53a1.11 1.11 0 0 0-.19 1.12 1.2 1.2 0 0 0 .61.67c.22.1.44.15.67.18.22.01.43.04.65.1.35.14.7.31 1.03.5.3.19.58.4.84.65a3.49 3.49 0 0 1 .9 3.26c-.1.36-.28.7-.52.99-.58.55-1.27.99-2.03 1.27a5.9 5.9 0 0 1-2.32.56 2.1 2.1 0 0 1-1-.3l-.18-.35a1.05 1.05 0 0 0-.97-.61 1.03 1.03 0 0 0-.96.65l-.5 1.36c-.13.43-.28.88-.45 1.3-.16.4-.36.77-.61 1.11a5.2 5.2 0 0 1-2.47 1.6c-.96.37-2 .51-3.01.4a2.3 2.3 0 0 1-1.3-.76 3.53 3.53 0 0 1-.77-1.5 7.39 7.39 0 0 1-.25-1.46c.05-.3.07-.6.07-.89a1.17 1.17 0 0 0-.68-.89 1.1 1.1 0 0 0-.46-.09 1.37 1.37 0 0 0-1.04.66c-.3.45-.9 1.65-1.04 1.82a10 10 0 0 1-2.47 1.78c-.85.43-1.74.75-2.47.52a.87.87 0 0 1-.53-.56 3.63 3.63 0 0 1-.17-1.3c.05-1.02.28-2.02.69-2.95.55-1.14 1.05-1.28 1.3-1.74a1.05 1.05 0 0 0 .08-.83 1.08 1.08 0 0 0-.55-.66c-.56-.3-2.43.52-3.04.7-.84.2-1.71.25-2.57.16a2.02 2.02 0 0 1-1.63-.98c-.61-1.15-.61-4.63 1.41-4.35.43.08.86.12 1.29.14.35 0 .7-.08 1.01-.25.19-.08.34-.22.45-.38.1-.17.17-.37.16-.57 0-.61-1.42-1.9-1.88-2.44a8.74 8.74 0 0 1-1.7-2.15 2.3 2.3 0 0 1-.17-1.41c.65-3.43 4.26-2.03 6.2-1.13l.16.08.18.05a.94.94 0 0 0 1.13-1.02c0-.23-.04-.46-.12-.69-.6-1.72-1.27-2.22-.55-4.6a2.44 2.44 0 0 1 1.9-1.86 1.78 1.78 0 0 1 1.46.5c.49.43.88.96 1.14 1.56.06.13.22 1.05.34 1.41a.91.91 0 0 0 .51.61.69.69 0 0 0 .52-.05.6.6 0 0 0 .34-.4c.3-1.11 1-3.74 2.12-5.06 1.12-1.33 2.18.13 2.44 1.26.09.45.15.92.18 1.38.02.53.07 1.06.14 1.58a1 1 0 0 0 1.39.71c.27-.13.5-.34.64-.6 1.13-2 .42-3.86 3.44-4.8a2.94 2.94 0 0 1 3.01.75 2.23 2.23 0 0 1 .48 1.89Z" clip-rule="evenodd"/><path fill="#B8311E" fill-rule="evenodd" d="M271.62 190.65c-.34 3.04.6 6.09 3.14 7.64a10.54 10.54 0 0 0 6.61 1.5 11.18 11.18 0 0 0 6.18-2.7 8.87 8.87 0 0 0 2.75-4.26 4.65 4.65 0 0 0-.54-3.76c-1.3-2-3.88-2.67-6.15-2.02-2.02.57-4.42 2.5-4.26 4.77 0 .43.72.86 1.15.86a.77.77 0 0 0 .76-.77c.06-.54.3-1.06.68-1.45a3.97 3.97 0 0 1 2.22-1.15c1.31-.29 2.82-.1 3.53 1.06a2.52 2.52 0 0 1 .04 2.39 6.81 6.81 0 0 1-1.82 2.43 8.76 8.76 0 0 1-4.83 2.09 8.11 8.11 0 0 1-5.06-1.13c-1.72-1.04-2.22-3.2-2-5.27.6-6.03 4.94-6.7 10.34-6.48.7 0 1.7-.36 1.1-1.37-.08-.22-.61-.48-1.17-.7-5.17-1.87-12 2.14-12.67 8.32Z" clip-rule="evenodd"/></svg>
