<svg xmlns="http://www.w3.org/2000/svg" width="799" height="354" fill="none"><mask id="a" width="790" height="132" x="7.97" y="221.21" fill="#000" maskUnits="userSpaceOnUse"><path fill="#fff" d="M7.97 221.21h790v132h-790z"/><path d="M73.1 303.88c0-1.54-.2-2.55-.59-3.02-.39-.47-1.13-.71-2.23-.71s-2.3-.53-3.63-1.6a5.13 5.13 0 0 1-1.88-4.09v-6.93c0-2.37.62-3.85 1.88-4.44a7.83 7.83 0 0 1 3.63-1.06h34.86a7.88 7.88 0 0 1 6.57 3.2c1.64 2.13 2.46 5.26 2.46 9.41v13.15c0 9.95-1.48 17.83-4.46 23.63-2.9 5.69-6.77 10.01-11.62 12.97a39.22 39.22 0 0 1-16.42 5.51c-6.18.83-12.48 1.25-18.9 1.25-4.7 0-9.23-.24-13.6-.71a52.98 52.98 0 0 1-12.45-2.85 39.5 39.5 0 0 1-10.8-6.4c-3.28-2.84-6.1-6.63-8.44-11.37-2.35-4.74-4.19-10.6-5.52-17.59-1.33-6.99-2-15.34-2-25.05 0-9.72.67-18.07 2-25.06 1.33-6.99 3.17-12.85 5.52-17.59 2.34-4.74 5.16-8.53 8.45-11.37a34.34 34.34 0 0 1 10.8-6.4 52.98 52.98 0 0 1 12.43-2.84c4.38-.47 8.92-.71 13.61-.71 6.42 0 12.72.3 18.9.89 6.18.47 11.65 1.9 16.42 4.26a26.45 26.45 0 0 1 11.62 10.49c2.98 4.73 4.46 11.3 4.46 19.72 0 6.4-.98 10.6-2.93 12.62-1.88 1.9-4.54 2.84-7.98 2.84h-19.6a7.75 7.75 0 0 1-4.81-1.42l-3.99-3.02a22.32 22.32 0 0 0-4.81-3.2c-1.88-.95-4.42-1.42-7.63-1.42-4.61 0-7.86 1.77-9.74 5.33-1.88 3.43-2.82 9.06-2.82 16.88 0 7.82.94 13.5 2.82 17.06 1.88 3.43 5.13 5.15 9.74 5.15 3.91 0 6.65-.36 8.22-1.07 1.64-.83 2.46-2.3 2.46-4.44ZM121.57 287.18c0-9.72.66-18.07 2-25.06 1.32-6.99 3.16-12.85 5.5-17.59 2.35-4.74 5.17-8.47 8.46-11.2a34.32 34.32 0 0 1 10.8-6.39 47.83 47.83 0 0 1 12.43-3.02c4.38-.47 8.92-.71 13.61-.71 6.97 0 13.58.6 19.84 1.78a32.47 32.47 0 0 1 16.42 8.35c4.78 4.26 8.53 10.66 11.27 19.19 2.81 8.53 4.22 20.08 4.22 34.65s-1.4 26.12-4.22 34.65c-2.74 8.53-6.5 14.98-11.27 19.37a33.15 33.15 0 0 1-16.42 8.17 106.58 106.58 0 0 1-19.84 1.78c-4.7 0-9.23-.24-13.6-.71a52.98 52.98 0 0 1-12.45-2.85 39.49 39.49 0 0 1-10.8-6.4c-3.28-2.84-6.1-6.63-8.44-11.37-2.35-4.74-4.19-10.6-5.52-17.59-1.33-6.99-2-15.34-2-25.05Zm39.9 0c0 7.82.93 13.5 2.81 17.06 1.88 3.43 5.13 5.15 9.74 5.15 4.62 0 7.78-1.78 9.5-5.33 1.8-3.56 2.7-9.18 2.7-16.88 0-7.82-.9-13.45-2.7-16.88-1.72-3.56-4.88-5.33-9.5-5.33s-7.86 1.77-9.74 5.33c-1.88 3.43-2.81 9.06-2.81 16.88ZM274.58 294.64c0 7.23.82 12.2 2.46 14.93 1.65 2.72 3.84 4.08 6.58 4.08h1.52c2.74 0 4.93-1.36 6.57-4.08 1.65-2.73 2.47-7.7 2.47-14.93v-55.97c0-4.15.82-7.46 2.46-9.95 1.72-2.49 3.95-3.73 6.69-3.73h21.12c2.74 0 4.93 1.24 6.57 3.73 1.65 2.49 2.47 5.8 2.47 9.95v50.1c0 12.09-.98 22.16-2.94 30.21-1.95 7.94-4.73 14.34-8.33 19.2a30.05 30.05 0 0 1-13.14 10.12 48.76 48.76 0 0 1-17.13 2.85h-15.02c-6.34 0-12.09-.95-17.25-2.85a30.04 30.04 0 0 1-13.15-10.13c-3.6-4.85-6.37-11.25-8.33-19.19-1.95-8.05-2.93-18.12-2.93-30.2v-50.11c0-4.15.82-7.46 2.46-9.95 1.65-2.49 3.84-3.73 6.57-3.73h21.24c2.74 0 4.93 1.24 6.58 3.73 1.64 2.49 2.46 5.8 2.46 9.95v55.97ZM615.14 349.37c-2.66 0-4.81-1.24-6.45-3.73-1.65-2.49-2.47-5.8-2.47-9.95v-97.02c0-4.15.82-7.46 2.47-9.95 1.64-2.49 3.79-3.73 6.45-3.73h65.6c2.74 0 4.93 1.24 6.57 3.73 1.72 2.37 2.58 5.56 2.58 9.6l-.12 9.59c0 4.14-.82 7.46-2.46 9.95a7.63 7.63 0 0 1-6.57 3.55h-30.75c-1.33 0-2.46.3-3.4.9-.86.46-1.3 1.89-1.3 4.26a8.2 8.2 0 0 0 1.07 4.26c.7 1.07 1.6 1.6 2.7 1.6h31.33c2.03 0 3.67 1.18 4.93 3.55 1.25 2.25 1.87 5.27 1.87 9.07v4.08c0 3.8-.66 6.87-2 9.24-1.24 2.25-2.93 3.38-5.04 3.38h-31.1c-1.1 0-2 .47-2.7 1.42-.7.83-1.05 2.01-1.05 3.55 0 .71.08 1.42.23 2.14.16.7.47 1.42.94 2.13.47.6 1.18 1.06 2.12 1.42.93.35 2.22.53 3.87.53h28.28c2.74 0 4.93 1.25 6.57 3.73 1.72 2.37 2.58 5.63 2.58 9.78v9.42c0 4.14-.86 7.46-2.58 9.95a7.63 7.63 0 0 1-6.57 3.55h-65.6ZM736.55 349.37a7.74 7.74 0 0 1-6.57-3.38c-1.57-2.37-2.35-5.45-2.35-9.24v-62.19c0-2.37-.27-3.79-.82-4.26-.47-.6-1.02-.9-1.64-.9h-17.6c-2.75 0-4.98-1.47-6.7-4.43-1.64-2.97-2.46-6.93-2.46-11.9v-11.74c0-4.97.78-8.94 2.35-11.9 1.64-2.96 3.83-4.44 6.57-4.44h79.56c2.74 0 4.89 1.48 6.45 4.44 1.65 2.96 2.47 6.93 2.47 11.9v11.73c0 4.98-.82 8.94-2.47 11.9-1.64 2.97-3.83 4.45-6.57 4.45h-17.6c-.63 0-1.21.3-1.76.89-.47.47-.7 1.9-.7 4.26v62.2c0 3.9-.79 6.98-2.35 9.23a7.55 7.55 0 0 1-6.57 3.38h-21.24ZM596.56 334.38c0 4.74-.82 8.53-2.47 11.38-1.64 2.72-3.83 4.08-6.57 4.08h-21.24a7.74 7.74 0 0 1-6.57-3.37c-1.64-2.26-2.47-5.28-2.47-9.07v-48.86c0-6.87-.66-11.55-1.99-14.04-1.25-2.6-2.97-3.9-5.16-3.9h-1.18c-2.19 0-3.95 1.3-5.28 3.9-1.33 2.49-1.95 7.17-1.88 14.04v48.86c0 3.8-.82 6.81-2.46 9.07a7.74 7.74 0 0 1-6.57 3.37h-16.78c-2.11 0-3.84-1.12-5.16-3.37-1.26-2.26-1.88-5.28-1.88-9.07v-48.86c0-6.87-.67-11.55-2-14.04-1.33-2.6-3.09-3.9-5.28-3.9h-1.29c-2.27 0-4.07 1.3-5.4 3.9-1.33 2.49-2 7.17-2 14.04v48.86c0 3.8-.81 6.81-2.46 9.07a7.74 7.74 0 0 1-6.57 3.37h-21.12c-2.74 0-4.93-1.42-6.57-4.26-1.64-2.84-2.47-6.58-2.47-11.2v-76.4c0-4.86.51-9.3 1.53-13.33a33.42 33.42 0 0 1 4.34-10.3 20.84 20.84 0 0 1 6.7-6.58 17.25 17.25 0 0 1 8.8-2.31h23.7c3.36 0 8.24-.53 12.27 2.13a13.08 13.08 0 0 1 4.93 5.33c1.31 2.4 1.22 4.09 1.78 6.75a105.7 105.7 0 0 1 1.07 6.93s.48 3.74 1.65 5.16a5.9 5.9 0 0 0 4.82 2.13 5.9 5.9 0 0 0 4.8-2.13c1.18-1.42 1.67-5.16 1.67-5.16l1.07-6.93s.54-4.35 1.89-6.75a13.33 13.33 0 0 1 5.04-5.33c4.07-2.63 8.92-2.13 12.28-2.13h23c3.21 0 6.14.77 8.8 2.3a20.43 20.43 0 0 1 6.81 6.58 33.44 33.44 0 0 1 4.34 10.3 52.28 52.28 0 0 1 1.53 13.16v76.58ZM403.42 330.47c0-2.72-.79-4.85-2.35-6.4-1.57-1.53-4-2.3-7.28-2.3h-7.27c-1.49 0-2.7.35-3.64 1.06a3.5 3.5 0 0 0-1.3 2.85v16.17c0 2.36-.85 4.32-2.57 5.86-1.65 1.42-3.84 2.13-6.57 2.13H351.3c-2.66 0-4.85-1.24-6.57-3.73-1.64-2.49-2.46-5.8-2.46-9.95v-97.02c0-3.79.7-6.99 2.11-9.6 1.4-2.72 3.32-4.08 5.75-4.08h64.3c5.1 0 9.47.53 13.15 1.6 3.76.94 6.85 2.72 9.27 5.33 2.5 2.6 4.34 6.22 5.51 10.84 1.26 4.5 1.88 10.3 1.88 17.41 0 6.28-.35 11.37-1.05 15.28-.7 3.91-1.69 6.93-2.94 9.06-1.25 2.14-2.74 3.56-4.46 4.27a14.32 14.32 0 0 1-5.51 1.07c-4.38 0-7.32.41-8.8 1.24-1.49.71-2.23 2.37-2.23 4.98 0 2.72 2.35 5.33 2.35 5.33l8.68 7.3s7.35 6.01 9.39 8.38c2.03 2.37 3.05 6.4 3.05 12.08v8.84c0 3.43-.82 6.22-2.47 8.35a8.05 8.05 0 0 1-6.57 3.02h-21.24c-2.74 0-4.93-.7-6.57-2.13a7.69 7.69 0 0 1-2.46-5.86v-11.38Zm-6.1-50.46h2.46c.86-.12 1.6-.41 2.23-.89a6.36 6.36 0 0 0 1.52-2.66c.4-1.19.59-2.85.59-4.98 0-2.25-.24-3.97-.7-5.15a4.61 4.61 0 0 0-1.65-2.49 3 3 0 0 0-2.1-.89c-.8-.12-1.54-.18-2.24-.18h-10.1c-1.79 0-3.2.54-4.21 1.6-1.02.95-1.53 2.55-1.53 4.8v3.55c0 2.25.5 4.03 1.53 5.33a5.06 5.06 0 0 0 4.22 1.96h9.97Z"/></mask><path fill="#002755" d="M73.1 303.88c0-1.54-.2-2.55-.59-3.02-.39-.47-1.13-.71-2.23-.71s-2.3-.53-3.63-1.6a5.13 5.13 0 0 1-1.88-4.09v-6.93c0-2.37.62-3.85 1.88-4.44a7.83 7.83 0 0 1 3.63-1.06h34.86a7.88 7.88 0 0 1 6.57 3.2c1.64 2.13 2.46 5.26 2.46 9.41v13.15c0 9.95-1.48 17.83-4.46 23.63-2.9 5.69-6.77 10.01-11.62 12.97a39.22 39.22 0 0 1-16.42 5.51c-6.18.83-12.48 1.25-18.9 1.25-4.7 0-9.23-.24-13.6-.71a52.98 52.98 0 0 1-12.45-2.85 39.5 39.5 0 0 1-10.8-6.4c-3.28-2.84-6.1-6.63-8.44-11.37-2.35-4.74-4.19-10.6-5.52-17.59-1.33-6.99-2-15.34-2-25.05 0-9.72.67-18.07 2-25.06 1.33-6.99 3.17-12.85 5.52-17.59 2.34-4.74 5.16-8.53 8.45-11.37a34.34 34.34 0 0 1 10.8-6.4 52.98 52.98 0 0 1 12.43-2.84c4.38-.47 8.92-.71 13.61-.71 6.42 0 12.72.3 18.9.89 6.18.47 11.65 1.9 16.42 4.26a26.45 26.45 0 0 1 11.62 10.49c2.98 4.73 4.46 11.3 4.46 19.72 0 6.4-.98 10.6-2.93 12.62-1.88 1.9-4.54 2.84-7.98 2.84h-19.6a7.75 7.75 0 0 1-4.81-1.42l-3.99-3.02a22.32 22.32 0 0 0-4.81-3.2c-1.88-.95-4.42-1.42-7.63-1.42-4.61 0-7.86 1.77-9.74 5.33-1.88 3.43-2.82 9.06-2.82 16.88 0 7.82.94 13.5 2.82 17.06 1.88 3.43 5.13 5.15 9.74 5.15 3.91 0 6.65-.36 8.22-1.07 1.64-.83 2.46-2.3 2.46-4.44ZM121.57 287.18c0-9.72.66-18.07 2-25.06 1.32-6.99 3.16-12.85 5.5-17.59 2.35-4.74 5.17-8.47 8.46-11.2a34.32 34.32 0 0 1 10.8-6.39 47.83 47.83 0 0 1 12.43-3.02c4.38-.47 8.92-.71 13.61-.71 6.97 0 13.58.6 19.84 1.78a32.47 32.47 0 0 1 16.42 8.35c4.78 4.26 8.53 10.66 11.27 19.19 2.81 8.53 4.22 20.08 4.22 34.65s-1.4 26.12-4.22 34.65c-2.74 8.53-6.5 14.98-11.27 19.37a33.15 33.15 0 0 1-16.42 8.17 106.58 106.58 0 0 1-19.84 1.78c-4.7 0-9.23-.24-13.6-.71a52.98 52.98 0 0 1-12.45-2.85 39.49 39.49 0 0 1-10.8-6.4c-3.28-2.84-6.1-6.63-8.44-11.37-2.35-4.74-4.19-10.6-5.52-17.59-1.33-6.99-2-15.34-2-25.05Zm39.9 0c0 7.82.93 13.5 2.81 17.06 1.88 3.43 5.13 5.15 9.74 5.15 4.62 0 7.78-1.78 9.5-5.33 1.8-3.56 2.7-9.18 2.7-16.88 0-7.82-.9-13.45-2.7-16.88-1.72-3.56-4.88-5.33-9.5-5.33s-7.86 1.77-9.74 5.33c-1.88 3.43-2.81 9.06-2.81 16.88ZM274.58 294.64c0 7.23.82 12.2 2.46 14.93 1.65 2.72 3.84 4.08 6.58 4.08h1.52c2.74 0 4.93-1.36 6.57-4.08 1.65-2.73 2.47-7.7 2.47-14.93v-55.97c0-4.15.82-7.46 2.46-9.95 1.72-2.49 3.95-3.73 6.69-3.73h21.12c2.74 0 4.93 1.24 6.57 3.73 1.65 2.49 2.47 5.8 2.47 9.95v50.1c0 12.09-.98 22.16-2.94 30.21-1.95 7.94-4.73 14.34-8.33 19.2a30.05 30.05 0 0 1-13.14 10.12 48.76 48.76 0 0 1-17.13 2.85h-15.02c-6.34 0-12.09-.95-17.25-2.85a30.04 30.04 0 0 1-13.15-10.13c-3.6-4.85-6.37-11.25-8.33-19.19-1.95-8.05-2.93-18.12-2.93-30.2v-50.11c0-4.15.82-7.46 2.46-9.95 1.65-2.49 3.84-3.73 6.57-3.73h21.24c2.74 0 4.93 1.24 6.58 3.73 1.64 2.49 2.46 5.8 2.46 9.95v55.97ZM615.14 349.37c-2.66 0-4.81-1.24-6.45-3.73-1.65-2.49-2.47-5.8-2.47-9.95v-97.02c0-4.15.82-7.46 2.47-9.95 1.64-2.49 3.79-3.73 6.45-3.73h65.6c2.74 0 4.93 1.24 6.57 3.73 1.72 2.37 2.58 5.56 2.58 9.6l-.12 9.59c0 4.14-.82 7.46-2.46 9.95a7.63 7.63 0 0 1-6.57 3.55h-30.75c-1.33 0-2.46.3-3.4.9-.86.46-1.3 1.89-1.3 4.26a8.2 8.2 0 0 0 1.07 4.26c.7 1.07 1.6 1.6 2.7 1.6h31.33c2.03 0 3.67 1.18 4.93 3.55 1.25 2.25 1.87 5.27 1.87 9.07v4.08c0 3.8-.66 6.87-2 9.24-1.24 2.25-2.93 3.38-5.04 3.38h-31.1c-1.1 0-2 .47-2.7 1.42-.7.83-1.05 2.01-1.05 3.55 0 .71.08 1.42.23 2.14.16.7.47 1.42.94 2.13.47.6 1.18 1.06 2.12 1.42.93.35 2.22.53 3.87.53h28.28c2.74 0 4.93 1.25 6.57 3.73 1.72 2.37 2.58 5.63 2.58 9.78v9.42c0 4.14-.86 7.46-2.58 9.95a7.63 7.63 0 0 1-6.57 3.55h-65.6ZM736.55 349.37a7.74 7.74 0 0 1-6.57-3.38c-1.57-2.37-2.35-5.45-2.35-9.24v-62.19c0-2.37-.27-3.79-.82-4.26-.47-.6-1.02-.9-1.64-.9h-17.6c-2.75 0-4.98-1.47-6.7-4.43-1.64-2.97-2.46-6.93-2.46-11.9v-11.74c0-4.97.78-8.94 2.35-11.9 1.64-2.96 3.83-4.44 6.57-4.44h79.56c2.74 0 4.89 1.48 6.45 4.44 1.65 2.96 2.47 6.93 2.47 11.9v11.73c0 4.98-.82 8.94-2.47 11.9-1.64 2.97-3.83 4.45-6.57 4.45h-17.6c-.63 0-1.21.3-1.76.89-.47.47-.7 1.9-.7 4.26v62.2c0 3.9-.79 6.98-2.35 9.23a7.55 7.55 0 0 1-6.57 3.38h-21.24ZM596.56 334.38c0 4.74-.82 8.53-2.47 11.38-1.64 2.72-3.83 4.08-6.57 4.08h-21.24a7.74 7.74 0 0 1-6.57-3.37c-1.64-2.26-2.47-5.28-2.47-9.07v-48.86c0-6.87-.66-11.55-1.99-14.04-1.25-2.6-2.97-3.9-5.16-3.9h-1.18c-2.19 0-3.95 1.3-5.28 3.9-1.33 2.49-1.95 7.17-1.88 14.04v48.86c0 3.8-.82 6.81-2.46 9.07a7.74 7.74 0 0 1-6.57 3.37h-16.78c-2.11 0-3.84-1.12-5.16-3.37-1.26-2.26-1.88-5.28-1.88-9.07v-48.86c0-6.87-.67-11.55-2-14.04-1.33-2.6-3.09-3.9-5.28-3.9h-1.29c-2.27 0-4.07 1.3-5.4 3.9-1.33 2.49-2 7.17-2 14.04v48.86c0 3.8-.81 6.81-2.46 9.07a7.74 7.74 0 0 1-6.57 3.37h-21.12c-2.74 0-4.93-1.42-6.57-4.26-1.64-2.84-2.47-6.58-2.47-11.2v-76.4c0-4.86.51-9.3 1.53-13.33a33.42 33.42 0 0 1 4.34-10.3 20.84 20.84 0 0 1 6.7-6.58 17.25 17.25 0 0 1 8.8-2.31h23.7c3.36 0 8.24-.53 12.27 2.13a13.08 13.08 0 0 1 4.93 5.33c1.31 2.4 1.22 4.09 1.78 6.75a105.7 105.7 0 0 1 1.07 6.93s.48 3.74 1.65 5.16a5.9 5.9 0 0 0 4.82 2.13 5.9 5.9 0 0 0 4.8-2.13c1.18-1.42 1.67-5.16 1.67-5.16l1.07-6.93s.54-4.35 1.89-6.75a13.33 13.33 0 0 1 5.04-5.33c4.07-2.63 8.92-2.13 12.28-2.13h23c3.21 0 6.14.77 8.8 2.3a20.43 20.43 0 0 1 6.81 6.58 33.44 33.44 0 0 1 4.34 10.3 52.28 52.28 0 0 1 1.53 13.16v76.58ZM403.42 330.47c0-2.72-.79-4.85-2.35-6.4-1.57-1.53-4-2.3-7.28-2.3h-7.27c-1.49 0-2.7.35-3.64 1.06a3.5 3.5 0 0 0-1.3 2.85v16.17c0 2.36-.85 4.32-2.57 5.86-1.65 1.42-3.84 2.13-6.57 2.13H351.3c-2.66 0-4.85-1.24-6.57-3.73-1.64-2.49-2.46-5.8-2.46-9.95v-97.02c0-3.79.7-6.99 2.11-9.6 1.4-2.72 3.32-4.08 5.75-4.08h64.3c5.1 0 9.47.53 13.15 1.6 3.76.94 6.85 2.72 9.27 5.33 2.5 2.6 4.34 6.22 5.51 10.84 1.26 4.5 1.88 10.3 1.88 17.41 0 6.28-.35 11.37-1.05 15.28-.7 3.91-1.69 6.93-2.94 9.06-1.25 2.14-2.74 3.56-4.46 4.27a14.32 14.32 0 0 1-5.51 1.07c-4.38 0-7.32.41-8.8 1.24-1.49.71-2.23 2.37-2.23 4.98 0 2.72 2.35 5.33 2.35 5.33l8.68 7.3s7.35 6.01 9.39 8.38c2.03 2.37 3.05 6.4 3.05 12.08v8.84c0 3.43-.82 6.22-2.47 8.35a8.05 8.05 0 0 1-6.57 3.02h-21.24c-2.74 0-4.93-.7-6.57-2.13a7.69 7.69 0 0 1-2.46-5.86v-11.38Zm-6.1-50.46h2.46c.86-.12 1.6-.41 2.23-.89a6.36 6.36 0 0 0 1.52-2.66c.4-1.19.59-2.85.59-4.98 0-2.25-.24-3.97-.7-5.15a4.61 4.61 0 0 0-1.65-2.49 3 3 0 0 0-2.1-.89c-.8-.12-1.54-.18-2.24-.18h-10.1c-1.79 0-3.2.54-4.21 1.6-1.02.95-1.53 2.55-1.53 4.8v3.55c0 2.25.5 4.03 1.53 5.33a5.06 5.06 0 0 0 4.22 1.96h9.97Z"/><path stroke="#002755" stroke-width="4" d="M73.1 303.88c0-1.54-.2-2.55-.59-3.02-.39-.47-1.13-.71-2.23-.71s-2.3-.53-3.63-1.6a5.13 5.13 0 0 1-1.88-4.09v-6.93c0-2.37.62-3.85 1.88-4.44a7.83 7.83 0 0 1 3.63-1.06h34.86a7.88 7.88 0 0 1 6.57 3.2c1.64 2.13 2.46 5.26 2.46 9.41v13.15c0 9.95-1.48 17.83-4.46 23.63-2.9 5.69-6.77 10.01-11.62 12.97a39.22 39.22 0 0 1-16.42 5.51c-6.18.83-12.48 1.25-18.9 1.25-4.7 0-9.23-.24-13.6-.71a52.98 52.98 0 0 1-12.45-2.85 39.5 39.5 0 0 1-10.8-6.4c-3.28-2.84-6.1-6.63-8.44-11.37-2.35-4.74-4.19-10.6-5.52-17.59-1.33-6.99-2-15.34-2-25.05 0-9.72.67-18.07 2-25.06 1.33-6.99 3.17-12.85 5.52-17.59 2.34-4.74 5.16-8.53 8.45-11.37a34.34 34.34 0 0 1 10.8-6.4 52.98 52.98 0 0 1 12.43-2.84c4.38-.47 8.92-.71 13.61-.71 6.42 0 12.72.3 18.9.89 6.18.47 11.65 1.9 16.42 4.26a26.45 26.45 0 0 1 11.62 10.49c2.98 4.73 4.46 11.3 4.46 19.72 0 6.4-.98 10.6-2.93 12.62-1.88 1.9-4.54 2.84-7.98 2.84h-19.6a7.75 7.75 0 0 1-4.81-1.42l-3.99-3.02a22.32 22.32 0 0 0-4.81-3.2c-1.88-.95-4.42-1.42-7.63-1.42-4.61 0-7.86 1.77-9.74 5.33-1.88 3.43-2.82 9.06-2.82 16.88 0 7.82.94 13.5 2.82 17.06 1.88 3.43 5.13 5.15 9.74 5.15 3.91 0 6.65-.36 8.22-1.07 1.64-.83 2.46-2.3 2.46-4.44ZM121.57 287.18c0-9.72.66-18.07 2-25.06 1.32-6.99 3.16-12.85 5.5-17.59 2.35-4.74 5.17-8.47 8.46-11.2a34.32 34.32 0 0 1 10.8-6.39 47.83 47.83 0 0 1 12.43-3.02c4.38-.47 8.92-.71 13.61-.71 6.97 0 13.58.6 19.84 1.78a32.47 32.47 0 0 1 16.42 8.35c4.78 4.26 8.53 10.66 11.27 19.19 2.81 8.53 4.22 20.08 4.22 34.65s-1.4 26.12-4.22 34.65c-2.74 8.53-6.5 14.98-11.27 19.37a33.15 33.15 0 0 1-16.42 8.17 106.58 106.58 0 0 1-19.84 1.78c-4.7 0-9.23-.24-13.6-.71a52.98 52.98 0 0 1-12.45-2.85 39.49 39.49 0 0 1-10.8-6.4c-3.28-2.84-6.1-6.63-8.44-11.37-2.35-4.74-4.19-10.6-5.52-17.59-1.33-6.99-2-15.34-2-25.05Zm39.9 0c0 7.82.93 13.5 2.81 17.06 1.88 3.43 5.13 5.15 9.74 5.15 4.62 0 7.78-1.78 9.5-5.33 1.8-3.56 2.7-9.18 2.7-16.88 0-7.82-.9-13.45-2.7-16.88-1.72-3.56-4.88-5.33-9.5-5.33s-7.86 1.77-9.74 5.33c-1.88 3.43-2.81 9.06-2.81 16.88ZM274.58 294.64c0 7.23.82 12.2 2.46 14.93 1.65 2.72 3.84 4.08 6.58 4.08h1.52c2.74 0 4.93-1.36 6.57-4.08 1.65-2.73 2.47-7.7 2.47-14.93v-55.97c0-4.15.82-7.46 2.46-9.95 1.72-2.49 3.95-3.73 6.69-3.73h21.12c2.74 0 4.93 1.24 6.57 3.73 1.65 2.49 2.47 5.8 2.47 9.95v50.1c0 12.09-.98 22.16-2.94 30.21-1.95 7.94-4.73 14.34-8.33 19.2a30.05 30.05 0 0 1-13.14 10.12 48.76 48.76 0 0 1-17.13 2.85h-15.02c-6.34 0-12.09-.95-17.25-2.85a30.04 30.04 0 0 1-13.15-10.13c-3.6-4.85-6.37-11.25-8.33-19.19-1.95-8.05-2.93-18.12-2.93-30.2v-50.11c0-4.15.82-7.46 2.46-9.95 1.65-2.49 3.84-3.73 6.57-3.73h21.24c2.74 0 4.93 1.24 6.58 3.73 1.64 2.49 2.46 5.8 2.46 9.95v55.97ZM615.14 349.37c-2.66 0-4.81-1.24-6.45-3.73-1.65-2.49-2.47-5.8-2.47-9.95v-97.02c0-4.15.82-7.46 2.47-9.95 1.64-2.49 3.79-3.73 6.45-3.73h65.6c2.74 0 4.93 1.24 6.57 3.73 1.72 2.37 2.58 5.56 2.58 9.6l-.12 9.59c0 4.14-.82 7.46-2.46 9.95a7.63 7.63 0 0 1-6.57 3.55h-30.75c-1.33 0-2.46.3-3.4.9-.86.46-1.3 1.89-1.3 4.26a8.2 8.2 0 0 0 1.07 4.26c.7 1.07 1.6 1.6 2.7 1.6h31.33c2.03 0 3.67 1.18 4.93 3.55 1.25 2.25 1.87 5.27 1.87 9.07v4.08c0 3.8-.66 6.87-2 9.24-1.24 2.25-2.93 3.38-5.04 3.38h-31.1c-1.1 0-2 .47-2.7 1.42-.7.83-1.05 2.01-1.05 3.55 0 .71.08 1.42.23 2.14.16.7.47 1.42.94 2.13.47.6 1.18 1.06 2.12 1.42.93.35 2.22.53 3.87.53h28.28c2.74 0 4.93 1.25 6.57 3.73 1.72 2.37 2.58 5.63 2.58 9.78v9.42c0 4.14-.86 7.46-2.58 9.95a7.63 7.63 0 0 1-6.57 3.55h-65.6ZM736.55 349.37a7.74 7.74 0 0 1-6.57-3.38c-1.57-2.37-2.35-5.45-2.35-9.24v-62.19c0-2.37-.27-3.79-.82-4.26-.47-.6-1.02-.9-1.64-.9h-17.6c-2.75 0-4.98-1.47-6.7-4.43-1.64-2.97-2.46-6.93-2.46-11.9v-11.74c0-4.97.78-8.94 2.35-11.9 1.64-2.96 3.83-4.44 6.57-4.44h79.56c2.74 0 4.89 1.48 6.45 4.44 1.65 2.96 2.47 6.93 2.47 11.9v11.73c0 4.98-.82 8.94-2.47 11.9-1.64 2.97-3.83 4.45-6.57 4.45h-17.6c-.63 0-1.21.3-1.76.89-.47.47-.7 1.9-.7 4.26v62.2c0 3.9-.79 6.98-2.35 9.23a7.55 7.55 0 0 1-6.57 3.38h-21.24ZM596.56 334.38c0 4.74-.82 8.53-2.47 11.38-1.64 2.72-3.83 4.08-6.57 4.08h-21.24a7.74 7.74 0 0 1-6.57-3.37c-1.64-2.26-2.47-5.28-2.47-9.07v-48.86c0-6.87-.66-11.55-1.99-14.04-1.25-2.6-2.97-3.9-5.16-3.9h-1.18c-2.19 0-3.95 1.3-5.28 3.9-1.33 2.49-1.95 7.17-1.88 14.04v48.86c0 3.8-.82 6.81-2.46 9.07a7.74 7.74 0 0 1-6.57 3.37h-16.78c-2.11 0-3.84-1.12-5.16-3.37-1.26-2.26-1.88-5.28-1.88-9.07v-48.86c0-6.87-.67-11.55-2-14.04-1.33-2.6-3.09-3.9-5.28-3.9h-1.29c-2.27 0-4.07 1.3-5.4 3.9-1.33 2.49-2 7.17-2 14.04v48.86c0 3.8-.81 6.81-2.46 9.07a7.74 7.74 0 0 1-6.57 3.37h-21.12c-2.74 0-4.93-1.42-6.57-4.26-1.64-2.84-2.47-6.58-2.47-11.2v-76.4c0-4.86.51-9.3 1.53-13.33a33.42 33.42 0 0 1 4.34-10.3 20.84 20.84 0 0 1 6.7-6.58 17.25 17.25 0 0 1 8.8-2.31h23.7c3.36 0 8.24-.53 12.27 2.13a13.08 13.08 0 0 1 4.93 5.33c1.31 2.4 1.22 4.09 1.78 6.75a105.7 105.7 0 0 1 1.07 6.93s.48 3.74 1.65 5.16a5.9 5.9 0 0 0 4.82 2.13 5.9 5.9 0 0 0 4.8-2.13c1.18-1.42 1.67-5.16 1.67-5.16l1.07-6.93s.54-4.35 1.89-6.75a13.33 13.33 0 0 1 5.04-5.33c4.07-2.63 8.92-2.13 12.28-2.13h23c3.21 0 6.14.77 8.8 2.3a20.43 20.43 0 0 1 6.81 6.58 33.44 33.44 0 0 1 4.34 10.3 52.28 52.28 0 0 1 1.53 13.16v76.58ZM403.42 330.47c0-2.72-.79-4.85-2.35-6.4-1.57-1.53-4-2.3-7.28-2.3h-7.27c-1.49 0-2.7.35-3.64 1.06a3.5 3.5 0 0 0-1.3 2.85v16.17c0 2.36-.85 4.32-2.57 5.86-1.65 1.42-3.84 2.13-6.57 2.13H351.3c-2.66 0-4.85-1.24-6.57-3.73-1.64-2.49-2.46-5.8-2.46-9.95v-97.02c0-3.79.7-6.99 2.11-9.6 1.4-2.72 3.32-4.08 5.75-4.08h64.3c5.1 0 9.47.53 13.15 1.6 3.76.94 6.85 2.72 9.27 5.33 2.5 2.6 4.34 6.22 5.51 10.84 1.26 4.5 1.88 10.3 1.88 17.41 0 6.28-.35 11.37-1.05 15.28-.7 3.91-1.69 6.93-2.94 9.06-1.25 2.14-2.74 3.56-4.46 4.27a14.32 14.32 0 0 1-5.51 1.07c-4.38 0-7.32.41-8.8 1.24-1.49.71-2.23 2.37-2.23 4.98 0 2.72 2.35 5.33 2.35 5.33l8.68 7.3s7.35 6.01 9.39 8.38c2.03 2.37 3.05 6.4 3.05 12.08v8.84c0 3.43-.82 6.22-2.47 8.35a8.05 8.05 0 0 1-6.57 3.02h-21.24c-2.74 0-4.93-.7-6.57-2.13a7.69 7.69 0 0 1-2.46-5.86v-11.38Zm-6.1-50.46h2.46c.86-.12 1.6-.41 2.23-.89a6.36 6.36 0 0 0 1.52-2.66c.4-1.19.59-2.85.59-4.98 0-2.25-.24-3.97-.7-5.15a4.61 4.61 0 0 0-1.65-2.49 3 3 0 0 0-2.1-.89c-.8-.12-1.54-.18-2.24-.18h-10.1c-1.79 0-3.2.54-4.21 1.6-1.02.95-1.53 2.55-1.53 4.8v3.55c0 2.25.5 4.03 1.53 5.33a5.06 5.06 0 0 0 4.22 1.96h9.97Z" mask="url(#a)"/><mask id="b" width="790" height="132" x="1" y="214.4" fill="#000" maskUnits="userSpaceOnUse"><path fill="#fff" d="M1 214.4h790v132H1z"/><path d="M66.13 297.08c0-1.54-.2-2.55-.58-3.02-.4-.48-1.14-.72-2.23-.72-1.1 0-2.31-.53-3.64-1.6a5.13 5.13 0 0 1-1.88-4.08v-6.93c0-2.37.63-3.85 1.88-4.44a7.83 7.83 0 0 1 3.64-1.07h34.85a7.88 7.88 0 0 1 6.57 3.2c1.64 2.13 2.47 5.27 2.47 9.42v13.15c0 9.94-1.5 17.82-4.46 23.63-2.9 5.68-6.77 10-11.62 12.97a39.2 39.2 0 0 1-16.43 5.5 141.8 141.8 0 0 1-18.9 1.25c-4.69 0-9.22-.24-13.6-.71a52.88 52.88 0 0 1-12.44-2.84 39.49 39.49 0 0 1-10.8-6.4c-3.29-2.84-6.1-6.63-8.45-11.37-2.35-4.74-4.19-10.6-5.52-17.6C3.66 298.45 3 290.1 3 280.38c0-9.71.66-18.06 2-25.05 1.32-7 3.16-12.85 5.51-17.6 2.35-4.73 5.16-8.52 8.45-11.37a34.32 34.32 0 0 1 10.8-6.4 52.93 52.93 0 0 1 12.43-2.83c4.39-.48 8.92-.72 13.62-.72 6.41 0 12.7.3 18.89.9 6.18.47 11.66 1.89 16.43 4.26a26.44 26.44 0 0 1 11.62 10.48c2.97 4.74 4.45 11.31 4.45 19.72 0 6.4-.97 10.6-2.93 12.62-1.88 1.9-4.54 2.84-7.98 2.84H76.7a7.75 7.75 0 0 1-4.8-1.42l-4-3.02a22.32 22.32 0 0 0-4.8-3.2c-1.89-.94-4.43-1.42-7.64-1.42-4.61 0-7.86 1.78-9.74 5.33-1.87 3.44-2.81 9.06-2.81 16.88 0 7.82.94 13.5 2.81 17.06 1.88 3.44 5.13 5.15 9.74 5.15 3.92 0 6.65-.35 8.22-1.06 1.64-.83 2.46-2.31 2.46-4.44ZM114.6 280.37c0-9.71.67-18.06 2-25.05 1.33-7 3.16-12.85 5.51-17.6 2.35-4.73 5.16-8.46 8.45-11.19a34.32 34.32 0 0 1 10.8-6.4 47.84 47.84 0 0 1 12.43-3.01c4.39-.48 8.92-.72 13.62-.72 6.96 0 13.57.6 19.83 1.78a32.47 32.47 0 0 1 16.43 8.35c4.77 4.27 8.52 10.66 11.26 19.2 2.82 8.52 4.23 20.07 4.23 34.64s-1.41 26.12-4.23 34.65c-2.74 8.53-6.5 14.99-11.26 19.37a33.14 33.14 0 0 1-16.43 8.17 106.48 106.48 0 0 1-19.83 1.78c-4.7 0-9.23-.24-13.62-.71a52.89 52.89 0 0 1-12.44-2.84 39.5 39.5 0 0 1-10.8-6.4c-3.28-2.84-6.1-6.63-8.44-11.37-2.35-4.74-4.19-10.6-5.52-17.6-1.33-6.98-1.99-15.33-1.99-25.05Zm39.9 0c0 7.82.94 13.5 2.81 17.06 1.88 3.44 5.13 5.15 9.74 5.15 4.62 0 7.79-1.77 9.51-5.33 1.8-3.55 2.7-9.18 2.7-16.88 0-7.82-.9-13.44-2.7-16.88-1.72-3.55-4.89-5.33-9.5-5.33-4.62 0-7.87 1.78-9.75 5.33-1.87 3.44-2.81 9.06-2.81 16.88ZM267.61 287.84c0 7.22.82 12.2 2.47 14.92 1.64 2.73 3.83 4.09 6.57 4.09h1.53c2.73 0 4.92-1.36 6.57-4.09 1.64-2.72 2.46-7.7 2.46-14.92v-55.98c0-4.14.82-7.46 2.47-9.95 1.72-2.48 3.94-3.73 6.68-3.73h21.13c2.73 0 4.93 1.25 6.57 3.73 1.64 2.49 2.46 5.8 2.46 9.95v50.11c0 12.08-.98 22.15-2.93 30.2-1.96 7.95-4.73 14.34-8.33 19.2a30.06 30.06 0 0 1-13.15 10.13 48.76 48.76 0 0 1-17.13 2.84h-15.02c-6.34 0-12.09-.95-17.25-2.84a30.06 30.06 0 0 1-13.14-10.13c-3.6-4.86-6.38-11.25-8.33-19.2-1.96-8.05-2.94-18.12-2.94-30.2v-50.1c0-4.15.82-7.47 2.47-9.96 1.64-2.48 3.83-3.73 6.57-3.73h21.24c2.74 0 4.93 1.25 6.57 3.73 1.64 2.49 2.46 5.8 2.46 9.95v55.98ZM608.17 342.56c-2.66 0-4.8-1.24-6.45-3.73-1.64-2.48-2.47-5.8-2.47-9.95v-97.02c0-4.14.83-7.46 2.47-9.95 1.64-2.48 3.8-3.73 6.45-3.73h65.6c2.74 0 4.93 1.25 6.57 3.73 1.72 2.37 2.58 5.57 2.58 9.6l-.11 9.6c0 4.14-.82 7.46-2.47 9.94a7.63 7.63 0 0 1-6.57 3.56h-30.74c-1.33 0-2.47.3-3.4.89-.87.47-1.3 1.9-1.3 4.26a8.2 8.2 0 0 0 1.06 4.26c.7 1.07 1.6 1.6 2.7 1.6h31.33c2.03 0 3.68 1.19 4.93 3.56 1.25 2.25 1.88 5.27 1.88 9.06v4.09c0 3.79-.67 6.87-2 9.24-1.25 2.25-2.93 3.37-5.05 3.37h-31.1c-1.09 0-1.99.48-2.7 1.43-.7.82-1.05 2-1.05 3.55 0 .7.08 1.42.24 2.13.15.71.47 1.42.94 2.13.47.6 1.17 1.07 2.1 1.43.95.35 2.24.53 3.88.53h28.28c2.74 0 4.93 1.24 6.57 3.73 1.72 2.37 2.58 5.63 2.58 9.77v9.42c0 4.15-.86 7.46-2.58 9.95a7.63 7.63 0 0 1-6.57 3.55h-65.6ZM729.58 342.56a7.74 7.74 0 0 1-6.57-3.37c-1.56-2.37-2.35-5.45-2.35-9.24v-62.2c0-2.36-.27-3.78-.82-4.26-.47-.59-1.02-.89-1.64-.89h-17.6c-2.74 0-4.97-1.48-6.7-4.44-1.63-2.96-2.46-6.93-2.46-11.9v-11.73c0-4.98.79-8.94 2.35-11.9 1.64-2.97 3.83-4.45 6.57-4.45h79.56c2.74 0 4.9 1.48 6.46 4.44 1.64 2.97 2.46 6.93 2.46 11.9v11.74c0 4.97-.82 8.94-2.46 11.9-1.64 2.96-3.84 4.44-6.57 4.44h-17.6c-.63 0-1.22.3-1.77.9-.47.47-.7 1.89-.7 4.26v62.19c0 3.9-.78 6.99-2.35 9.24a7.55 7.55 0 0 1-6.57 3.37h-21.24ZM589.59 327.58c0 4.74-.82 8.53-2.46 11.37-1.65 2.73-3.84 4.09-6.58 4.09h-21.23a7.74 7.74 0 0 1-6.58-3.38c-1.64-2.25-2.46-5.27-2.46-9.06v-48.87c0-6.87-.67-11.55-2-14.03-1.25-2.61-2.97-3.91-5.16-3.91h-1.17c-2.2 0-3.95 1.3-5.28 3.9-1.33 2.5-1.96 7.17-1.88 14.04v48.87c0 3.79-.82 6.81-2.46 9.06a7.74 7.74 0 0 1-6.58 3.38h-16.78c-2.11 0-3.83-1.13-5.16-3.38-1.25-2.25-1.88-5.27-1.88-9.06v-48.87c0-6.87-.66-11.55-2-14.03-1.32-2.61-3.08-3.91-5.27-3.91h-1.3c-2.26 0-4.06 1.3-5.4 3.9-1.32 2.5-1.99 7.17-1.99 14.04v48.87c0 3.79-.82 6.81-2.46 9.06a7.74 7.74 0 0 1-6.57 3.38H455.8c-2.73 0-4.93-1.43-6.57-4.27-1.64-2.84-2.46-6.57-2.46-11.2v-76.4c0-4.86.5-9.3 1.52-13.33a33.44 33.44 0 0 1 4.34-10.3 20.85 20.85 0 0 1 6.7-6.58 17.25 17.25 0 0 1 8.8-2.3h23.7c3.36 0 8.24-.54 12.28 2.13a13.08 13.08 0 0 1 4.93 5.33c1.3 2.4 1.21 4.08 1.77 6.75.56 2.68 1.07 6.93 1.07 6.93s.49 3.73 1.66 5.15a5.9 5.9 0 0 0 4.81 2.13 5.9 5.9 0 0 0 4.81-2.13c1.18-1.42 1.66-5.15 1.66-5.15l1.07-6.93s.55-4.36 1.9-6.75a13.32 13.32 0 0 1 5.04-5.33c4.06-2.63 8.91-2.14 12.27-2.14h23c3.21 0 6.15.77 8.8 2.31a20.42 20.42 0 0 1 6.81 6.58 33.42 33.42 0 0 1 4.35 10.3c1.01 3.91 1.52 8.3 1.52 13.15v76.59ZM396.45 323.67c0-2.73-.78-4.86-2.35-6.4-1.56-1.54-3.99-2.3-7.27-2.3h-7.28c-1.49 0-2.7.35-3.64 1.06a3.5 3.5 0 0 0-1.29 2.84v16.17c0 2.37-.86 4.32-2.58 5.86-1.64 1.43-3.83 2.14-6.57 2.14h-21.12c-2.66 0-4.85-1.25-6.58-3.74-1.64-2.48-2.46-5.8-2.46-9.94v-97.02c0-3.8.7-7 2.11-9.6 1.41-2.72 3.33-4.09 5.75-4.09h64.31c5.08 0 9.47.54 13.14 1.6 3.76.95 6.85 2.73 9.27 5.33 2.5 2.6 4.35 6.22 5.52 10.84 1.25 4.5 1.88 10.3 1.88 17.42 0 6.28-.36 11.37-1.06 15.28-.7 3.9-1.68 6.93-2.93 9.06-1.25 2.13-2.74 3.55-4.46 4.26a14.3 14.3 0 0 1-5.52 1.07c-4.38 0-7.31.42-8.8 1.24-1.49.71-2.23 2.37-2.23 4.98 0 2.72 2.35 5.33 2.35 5.33l8.68 7.3s7.36 6.02 9.39 8.39c2.03 2.37 3.05 6.4 3.05 12.08v8.84c0 3.43-.82 6.21-2.46 8.35a8.05 8.05 0 0 1-6.57 3.02h-21.25c-2.73 0-4.92-.71-6.57-2.14a7.69 7.69 0 0 1-2.46-5.86v-11.37Zm-6.1-50.47h2.46c.86-.11 1.6-.41 2.23-.88a6.36 6.36 0 0 0 1.53-2.67c.39-1.18.58-2.84.58-4.97 0-2.25-.23-3.97-.7-5.16a4.6 4.6 0 0 0-1.64-2.48 3 3 0 0 0-2.12-.9c-.78-.11-1.52-.17-2.23-.17h-10.09c-1.8 0-3.2.53-4.22 1.6-1.02.94-1.53 2.55-1.53 4.8v3.55c0 2.25.51 4.03 1.53 5.33a5.06 5.06 0 0 0 4.22 1.95h9.98Z"/></mask><path fill="#fff" d="M66.13 297.08c0-1.54-.2-2.55-.58-3.02-.4-.48-1.14-.72-2.23-.72-1.1 0-2.31-.53-3.64-1.6a5.13 5.13 0 0 1-1.88-4.08v-6.93c0-2.37.63-3.85 1.88-4.44a7.83 7.83 0 0 1 3.64-1.07h34.85a7.88 7.88 0 0 1 6.57 3.2c1.64 2.13 2.47 5.27 2.47 9.42v13.15c0 9.94-1.5 17.82-4.46 23.63-2.9 5.68-6.77 10-11.62 12.97a39.2 39.2 0 0 1-16.43 5.5 141.8 141.8 0 0 1-18.9 1.25c-4.69 0-9.22-.24-13.6-.71a52.88 52.88 0 0 1-12.44-2.84 39.49 39.49 0 0 1-10.8-6.4c-3.29-2.84-6.1-6.63-8.45-11.37-2.35-4.74-4.19-10.6-5.52-17.6C3.66 298.45 3 290.1 3 280.38c0-9.71.66-18.06 2-25.05 1.32-7 3.16-12.85 5.51-17.6 2.35-4.73 5.16-8.52 8.45-11.37a34.32 34.32 0 0 1 10.8-6.4 52.93 52.93 0 0 1 12.43-2.83c4.39-.48 8.92-.72 13.62-.72 6.41 0 12.7.3 18.89.9 6.18.47 11.66 1.89 16.43 4.26a26.44 26.44 0 0 1 11.62 10.48c2.97 4.74 4.45 11.31 4.45 19.72 0 6.4-.97 10.6-2.93 12.62-1.88 1.9-4.54 2.84-7.98 2.84H76.7a7.75 7.75 0 0 1-4.8-1.42l-4-3.02a22.32 22.32 0 0 0-4.8-3.2c-1.89-.94-4.43-1.42-7.64-1.42-4.61 0-7.86 1.78-9.74 5.33-1.87 3.44-2.81 9.06-2.81 16.88 0 7.82.94 13.5 2.81 17.06 1.88 3.44 5.13 5.15 9.74 5.15 3.92 0 6.65-.35 8.22-1.06 1.64-.83 2.46-2.31 2.46-4.44ZM114.6 280.37c0-9.71.67-18.06 2-25.05 1.33-7 3.16-12.85 5.51-17.6 2.35-4.73 5.16-8.46 8.45-11.19a34.32 34.32 0 0 1 10.8-6.4 47.84 47.84 0 0 1 12.43-3.01c4.39-.48 8.92-.72 13.62-.72 6.96 0 13.57.6 19.83 1.78a32.47 32.47 0 0 1 16.43 8.35c4.77 4.27 8.52 10.66 11.26 19.2 2.82 8.52 4.23 20.07 4.23 34.64s-1.41 26.12-4.23 34.65c-2.74 8.53-6.5 14.99-11.26 19.37a33.14 33.14 0 0 1-16.43 8.17 106.48 106.48 0 0 1-19.83 1.78c-4.7 0-9.23-.24-13.62-.71a52.89 52.89 0 0 1-12.44-2.84 39.5 39.5 0 0 1-10.8-6.4c-3.28-2.84-6.1-6.63-8.44-11.37-2.35-4.74-4.19-10.6-5.52-17.6-1.33-6.98-1.99-15.33-1.99-25.05Zm39.9 0c0 7.82.94 13.5 2.81 17.06 1.88 3.44 5.13 5.15 9.74 5.15 4.62 0 7.79-1.77 9.51-5.33 1.8-3.55 2.7-9.18 2.7-16.88 0-7.82-.9-13.44-2.7-16.88-1.72-3.55-4.89-5.33-9.5-5.33-4.62 0-7.87 1.78-9.75 5.33-1.87 3.44-2.81 9.06-2.81 16.88ZM267.61 287.84c0 7.22.82 12.2 2.47 14.92 1.64 2.73 3.83 4.09 6.57 4.09h1.53c2.73 0 4.92-1.36 6.57-4.09 1.64-2.72 2.46-7.7 2.46-14.92v-55.98c0-4.14.82-7.46 2.47-9.95 1.72-2.48 3.94-3.73 6.68-3.73h21.13c2.73 0 4.93 1.25 6.57 3.73 1.64 2.49 2.46 5.8 2.46 9.95v50.11c0 12.08-.98 22.15-2.93 30.2-1.96 7.95-4.73 14.34-8.33 19.2a30.06 30.06 0 0 1-13.15 10.13 48.76 48.76 0 0 1-17.13 2.84h-15.02c-6.34 0-12.09-.95-17.25-2.84a30.06 30.06 0 0 1-13.14-10.13c-3.6-4.86-6.38-11.25-8.33-19.2-1.96-8.05-2.94-18.12-2.94-30.2v-50.1c0-4.15.82-7.47 2.47-9.96 1.64-2.48 3.83-3.73 6.57-3.73h21.24c2.74 0 4.93 1.25 6.57 3.73 1.64 2.49 2.46 5.8 2.46 9.95v55.98ZM608.17 342.56c-2.66 0-4.8-1.24-6.45-3.73-1.64-2.48-2.47-5.8-2.47-9.95v-97.02c0-4.14.83-7.46 2.47-9.95 1.64-2.48 3.8-3.73 6.45-3.73h65.6c2.74 0 4.93 1.25 6.57 3.73 1.72 2.37 2.58 5.57 2.58 9.6l-.11 9.6c0 4.14-.82 7.46-2.47 9.94a7.63 7.63 0 0 1-6.57 3.56h-30.74c-1.33 0-2.47.3-3.4.89-.87.47-1.3 1.9-1.3 4.26a8.2 8.2 0 0 0 1.06 4.26c.7 1.07 1.6 1.6 2.7 1.6h31.33c2.03 0 3.68 1.19 4.93 3.56 1.25 2.25 1.88 5.27 1.88 9.06v4.09c0 3.79-.67 6.87-2 9.24-1.25 2.25-2.93 3.37-5.05 3.37h-31.1c-1.09 0-1.99.48-2.7 1.43-.7.82-1.05 2-1.05 3.55 0 .7.08 1.42.24 2.13.15.71.47 1.42.94 2.13.47.6 1.17 1.07 2.1 1.43.95.35 2.24.53 3.88.53h28.28c2.74 0 4.93 1.24 6.57 3.73 1.72 2.37 2.58 5.63 2.58 9.77v9.42c0 4.15-.86 7.46-2.58 9.95a7.63 7.63 0 0 1-6.57 3.55h-65.6ZM729.58 342.56a7.74 7.74 0 0 1-6.57-3.37c-1.56-2.37-2.35-5.45-2.35-9.24v-62.2c0-2.36-.27-3.78-.82-4.26-.47-.59-1.02-.89-1.64-.89h-17.6c-2.74 0-4.97-1.48-6.7-4.44-1.63-2.96-2.46-6.93-2.46-11.9v-11.73c0-4.98.79-8.94 2.35-11.9 1.64-2.97 3.83-4.45 6.57-4.45h79.56c2.74 0 4.9 1.48 6.46 4.44 1.64 2.97 2.46 6.93 2.46 11.9v11.74c0 4.97-.82 8.94-2.46 11.9-1.64 2.96-3.84 4.44-6.57 4.44h-17.6c-.63 0-1.22.3-1.77.9-.47.47-.7 1.89-.7 4.26v62.19c0 3.9-.78 6.99-2.35 9.24a7.55 7.55 0 0 1-6.57 3.37h-21.24ZM589.59 327.58c0 4.74-.82 8.53-2.46 11.37-1.65 2.73-3.84 4.09-6.58 4.09h-21.23a7.74 7.74 0 0 1-6.58-3.38c-1.64-2.25-2.46-5.27-2.46-9.06v-48.87c0-6.87-.67-11.55-2-14.03-1.25-2.61-2.97-3.91-5.16-3.91h-1.17c-2.2 0-3.95 1.3-5.28 3.9-1.33 2.5-1.96 7.17-1.88 14.04v48.87c0 3.79-.82 6.81-2.46 9.06a7.74 7.74 0 0 1-6.58 3.38h-16.78c-2.11 0-3.83-1.13-5.16-3.38-1.25-2.25-1.88-5.27-1.88-9.06v-48.87c0-6.87-.66-11.55-2-14.03-1.32-2.61-3.08-3.91-5.27-3.91h-1.3c-2.26 0-4.06 1.3-5.4 3.9-1.32 2.5-1.99 7.17-1.99 14.04v48.87c0 3.79-.82 6.81-2.46 9.06a7.74 7.74 0 0 1-6.57 3.38H455.8c-2.73 0-4.93-1.43-6.57-4.27-1.64-2.84-2.46-6.57-2.46-11.2v-76.4c0-4.86.5-9.3 1.52-13.33a33.44 33.44 0 0 1 4.34-10.3 20.85 20.85 0 0 1 6.7-6.58 17.25 17.25 0 0 1 8.8-2.3h23.7c3.36 0 8.24-.54 12.28 2.13a13.08 13.08 0 0 1 4.93 5.33c1.3 2.4 1.21 4.08 1.77 6.75.56 2.68 1.07 6.93 1.07 6.93s.49 3.73 1.66 5.15a5.9 5.9 0 0 0 4.81 2.13 5.9 5.9 0 0 0 4.81-2.13c1.18-1.42 1.66-5.15 1.66-5.15l1.07-6.93s.55-4.36 1.9-6.75a13.32 13.32 0 0 1 5.04-5.33c4.06-2.63 8.91-2.14 12.27-2.14h23c3.21 0 6.15.77 8.8 2.31a20.42 20.42 0 0 1 6.81 6.58 33.42 33.42 0 0 1 4.35 10.3c1.01 3.91 1.52 8.3 1.52 13.15v76.59ZM396.45 323.67c0-2.73-.78-4.86-2.35-6.4-1.56-1.54-3.99-2.3-7.27-2.3h-7.28c-1.49 0-2.7.35-3.64 1.06a3.5 3.5 0 0 0-1.29 2.84v16.17c0 2.37-.86 4.32-2.58 5.86-1.64 1.43-3.83 2.14-6.57 2.14h-21.12c-2.66 0-4.85-1.25-6.58-3.74-1.64-2.48-2.46-5.8-2.46-9.94v-97.02c0-3.8.7-7 2.11-9.6 1.41-2.72 3.33-4.09 5.75-4.09h64.31c5.08 0 9.47.54 13.14 1.6 3.76.95 6.85 2.73 9.27 5.33 2.5 2.6 4.35 6.22 5.52 10.84 1.25 4.5 1.88 10.3 1.88 17.42 0 6.28-.36 11.37-1.06 15.28-.7 3.9-1.68 6.93-2.93 9.06-1.25 2.13-2.74 3.55-4.46 4.26a14.3 14.3 0 0 1-5.52 1.07c-4.38 0-7.31.42-8.8 1.24-1.49.71-2.23 2.37-2.23 4.98 0 2.72 2.35 5.33 2.35 5.33l8.68 7.3s7.36 6.02 9.39 8.39c2.03 2.37 3.05 6.4 3.05 12.08v8.84c0 3.43-.82 6.21-2.46 8.35a8.05 8.05 0 0 1-6.57 3.02h-21.25c-2.73 0-4.92-.71-6.57-2.14a7.69 7.69 0 0 1-2.46-5.86v-11.37Zm-6.1-50.47h2.46c.86-.11 1.6-.41 2.23-.88a6.36 6.36 0 0 0 1.53-2.67c.39-1.18.58-2.84.58-4.97 0-2.25-.23-3.97-.7-5.16a4.6 4.6 0 0 0-1.64-2.48 3 3 0 0 0-2.12-.9c-.78-.11-1.52-.17-2.23-.17h-10.09c-1.8 0-3.2.53-4.22 1.6-1.02.94-1.53 2.55-1.53 4.8v3.55c0 2.25.51 4.03 1.53 5.33a5.06 5.06 0 0 0 4.22 1.95h9.98Z"/><path stroke="#002755" stroke-width="4" d="M66.13 297.08c0-1.54-.2-2.55-.58-3.02-.4-.48-1.14-.72-2.23-.72-1.1 0-2.31-.53-3.64-1.6a5.13 5.13 0 0 1-1.88-4.08v-6.93c0-2.37.63-3.85 1.88-4.44a7.83 7.83 0 0 1 3.64-1.07h34.85a7.88 7.88 0 0 1 6.57 3.2c1.64 2.13 2.47 5.27 2.47 9.42v13.15c0 9.94-1.5 17.82-4.46 23.63-2.9 5.68-6.77 10-11.62 12.97a39.2 39.2 0 0 1-16.43 5.5 141.8 141.8 0 0 1-18.9 1.25c-4.69 0-9.22-.24-13.6-.71a52.88 52.88 0 0 1-12.44-2.84 39.49 39.49 0 0 1-10.8-6.4c-3.29-2.84-6.1-6.63-8.45-11.37-2.35-4.74-4.19-10.6-5.52-17.6C3.66 298.45 3 290.1 3 280.38c0-9.71.66-18.06 2-25.05 1.32-7 3.16-12.85 5.51-17.6 2.35-4.73 5.16-8.52 8.45-11.37a34.32 34.32 0 0 1 10.8-6.4 52.93 52.93 0 0 1 12.43-2.83c4.39-.48 8.92-.72 13.62-.72 6.41 0 12.7.3 18.89.9 6.18.47 11.66 1.89 16.43 4.26a26.44 26.44 0 0 1 11.62 10.48c2.97 4.74 4.45 11.31 4.45 19.72 0 6.4-.97 10.6-2.93 12.62-1.88 1.9-4.54 2.84-7.98 2.84H76.7a7.75 7.75 0 0 1-4.8-1.42l-4-3.02a22.32 22.32 0 0 0-4.8-3.2c-1.89-.94-4.43-1.42-7.64-1.42-4.61 0-7.86 1.78-9.74 5.33-1.87 3.44-2.81 9.06-2.81 16.88 0 7.82.94 13.5 2.81 17.06 1.88 3.44 5.13 5.15 9.74 5.15 3.92 0 6.65-.35 8.22-1.06 1.64-.83 2.46-2.31 2.46-4.44ZM114.6 280.37c0-9.71.67-18.06 2-25.05 1.33-7 3.16-12.85 5.51-17.6 2.35-4.73 5.16-8.46 8.45-11.19a34.32 34.32 0 0 1 10.8-6.4 47.84 47.84 0 0 1 12.43-3.01c4.39-.48 8.92-.72 13.62-.72 6.96 0 13.57.6 19.83 1.78a32.47 32.47 0 0 1 16.43 8.35c4.77 4.27 8.52 10.66 11.26 19.2 2.82 8.52 4.23 20.07 4.23 34.64s-1.41 26.12-4.23 34.65c-2.74 8.53-6.5 14.99-11.26 19.37a33.14 33.14 0 0 1-16.43 8.17 106.48 106.48 0 0 1-19.83 1.78c-4.7 0-9.23-.24-13.62-.71a52.89 52.89 0 0 1-12.44-2.84 39.5 39.5 0 0 1-10.8-6.4c-3.28-2.84-6.1-6.63-8.44-11.37-2.35-4.74-4.19-10.6-5.52-17.6-1.33-6.98-1.99-15.33-1.99-25.05Zm39.9 0c0 7.82.94 13.5 2.81 17.06 1.88 3.44 5.13 5.15 9.74 5.15 4.62 0 7.79-1.77 9.51-5.33 1.8-3.55 2.7-9.18 2.7-16.88 0-7.82-.9-13.44-2.7-16.88-1.72-3.55-4.89-5.33-9.5-5.33-4.62 0-7.87 1.78-9.75 5.33-1.87 3.44-2.81 9.06-2.81 16.88ZM267.61 287.84c0 7.22.82 12.2 2.47 14.92 1.64 2.73 3.83 4.09 6.57 4.09h1.53c2.73 0 4.92-1.36 6.57-4.09 1.64-2.72 2.46-7.7 2.46-14.92v-55.98c0-4.14.82-7.46 2.47-9.95 1.72-2.48 3.94-3.73 6.68-3.73h21.13c2.73 0 4.93 1.25 6.57 3.73 1.64 2.49 2.46 5.8 2.46 9.95v50.11c0 12.08-.98 22.15-2.93 30.2-1.96 7.95-4.73 14.34-8.33 19.2a30.06 30.06 0 0 1-13.15 10.13 48.76 48.76 0 0 1-17.13 2.84h-15.02c-6.34 0-12.09-.95-17.25-2.84a30.06 30.06 0 0 1-13.14-10.13c-3.6-4.86-6.38-11.25-8.33-19.2-1.96-8.05-2.94-18.12-2.94-30.2v-50.1c0-4.15.82-7.47 2.47-9.96 1.64-2.48 3.83-3.73 6.57-3.73h21.24c2.74 0 4.93 1.25 6.57 3.73 1.64 2.49 2.46 5.8 2.46 9.95v55.98ZM608.17 342.56c-2.66 0-4.8-1.24-6.45-3.73-1.64-2.48-2.47-5.8-2.47-9.95v-97.02c0-4.14.83-7.46 2.47-9.95 1.64-2.48 3.8-3.73 6.45-3.73h65.6c2.74 0 4.93 1.25 6.57 3.73 1.72 2.37 2.58 5.57 2.58 9.6l-.11 9.6c0 4.14-.82 7.46-2.47 9.94a7.63 7.63 0 0 1-6.57 3.56h-30.74c-1.33 0-2.47.3-3.4.89-.87.47-1.3 1.9-1.3 4.26a8.2 8.2 0 0 0 1.06 4.26c.7 1.07 1.6 1.6 2.7 1.6h31.33c2.03 0 3.68 1.19 4.93 3.56 1.25 2.25 1.88 5.27 1.88 9.06v4.09c0 3.79-.67 6.87-2 9.24-1.25 2.25-2.93 3.37-5.05 3.37h-31.1c-1.09 0-1.99.48-2.7 1.43-.7.82-1.05 2-1.05 3.55 0 .7.08 1.42.24 2.13.15.71.47 1.42.94 2.13.47.6 1.17 1.07 2.1 1.43.95.35 2.24.53 3.88.53h28.28c2.74 0 4.93 1.24 6.57 3.73 1.72 2.37 2.58 5.63 2.58 9.77v9.42c0 4.15-.86 7.46-2.58 9.95a7.63 7.63 0 0 1-6.57 3.55h-65.6ZM729.58 342.56a7.74 7.74 0 0 1-6.57-3.37c-1.56-2.37-2.35-5.45-2.35-9.24v-62.2c0-2.36-.27-3.78-.82-4.26-.47-.59-1.02-.89-1.64-.89h-17.6c-2.74 0-4.97-1.48-6.7-4.44-1.63-2.96-2.46-6.93-2.46-11.9v-11.73c0-4.98.79-8.94 2.35-11.9 1.64-2.97 3.83-4.45 6.57-4.45h79.56c2.74 0 4.9 1.48 6.46 4.44 1.64 2.97 2.46 6.93 2.46 11.9v11.74c0 4.97-.82 8.94-2.46 11.9-1.64 2.96-3.84 4.44-6.57 4.44h-17.6c-.63 0-1.22.3-1.77.9-.47.47-.7 1.89-.7 4.26v62.19c0 3.9-.78 6.99-2.35 9.24a7.55 7.55 0 0 1-6.57 3.37h-21.24ZM589.59 327.58c0 4.74-.82 8.53-2.46 11.37-1.65 2.73-3.84 4.09-6.58 4.09h-21.23a7.74 7.74 0 0 1-6.58-3.38c-1.64-2.25-2.46-5.27-2.46-9.06v-48.87c0-6.87-.67-11.55-2-14.03-1.25-2.61-2.97-3.91-5.16-3.91h-1.17c-2.2 0-3.95 1.3-5.28 3.9-1.33 2.5-1.96 7.17-1.88 14.04v48.87c0 3.79-.82 6.81-2.46 9.06a7.74 7.74 0 0 1-6.58 3.38h-16.78c-2.11 0-3.83-1.13-5.16-3.38-1.25-2.25-1.88-5.27-1.88-9.06v-48.87c0-6.87-.66-11.55-2-14.03-1.32-2.61-3.08-3.91-5.27-3.91h-1.3c-2.26 0-4.06 1.3-5.4 3.9-1.32 2.5-1.99 7.17-1.99 14.04v48.87c0 3.79-.82 6.81-2.46 9.06a7.74 7.74 0 0 1-6.57 3.38H455.8c-2.73 0-4.93-1.43-6.57-4.27-1.64-2.84-2.46-6.57-2.46-11.2v-76.4c0-4.86.5-9.3 1.52-13.33a33.44 33.44 0 0 1 4.34-10.3 20.85 20.85 0 0 1 6.7-6.58 17.25 17.25 0 0 1 8.8-2.3h23.7c3.36 0 8.24-.54 12.28 2.13a13.08 13.08 0 0 1 4.93 5.33c1.3 2.4 1.21 4.08 1.77 6.75.56 2.68 1.07 6.93 1.07 6.93s.49 3.73 1.66 5.15a5.9 5.9 0 0 0 4.81 2.13 5.9 5.9 0 0 0 4.81-2.13c1.18-1.42 1.66-5.15 1.66-5.15l1.07-6.93s.55-4.36 1.9-6.75a13.32 13.32 0 0 1 5.04-5.33c4.06-2.63 8.91-2.14 12.27-2.14h23c3.21 0 6.15.77 8.8 2.31a20.42 20.42 0 0 1 6.81 6.58 33.42 33.42 0 0 1 4.35 10.3c1.01 3.91 1.52 8.3 1.52 13.15v76.59ZM396.45 323.67c0-2.73-.78-4.86-2.35-6.4-1.56-1.54-3.99-2.3-7.27-2.3h-7.28c-1.49 0-2.7.35-3.64 1.06a3.5 3.5 0 0 0-1.29 2.84v16.17c0 2.37-.86 4.32-2.58 5.86-1.64 1.43-3.83 2.14-6.57 2.14h-21.12c-2.66 0-4.85-1.25-6.58-3.74-1.64-2.48-2.46-5.8-2.46-9.94v-97.02c0-3.8.7-7 2.11-9.6 1.41-2.72 3.33-4.09 5.75-4.09h64.31c5.08 0 9.47.54 13.14 1.6 3.76.95 6.85 2.73 9.27 5.33 2.5 2.6 4.35 6.22 5.52 10.84 1.25 4.5 1.88 10.3 1.88 17.42 0 6.28-.36 11.37-1.06 15.28-.7 3.9-1.68 6.93-2.93 9.06-1.25 2.13-2.74 3.55-4.46 4.26a14.3 14.3 0 0 1-5.52 1.07c-4.38 0-7.31.42-8.8 1.24-1.49.71-2.23 2.37-2.23 4.98 0 2.72 2.35 5.33 2.35 5.33l8.68 7.3s7.36 6.02 9.39 8.39c2.03 2.37 3.05 6.4 3.05 12.08v8.84c0 3.43-.82 6.21-2.46 8.35a8.05 8.05 0 0 1-6.57 3.02h-21.25c-2.73 0-4.92-.71-6.57-2.14a7.69 7.69 0 0 1-2.46-5.86v-11.37Zm-6.1-50.47h2.46c.86-.11 1.6-.41 2.23-.88a6.36 6.36 0 0 0 1.53-2.67c.39-1.18.58-2.84.58-4.97 0-2.25-.23-3.97-.7-5.16a4.6 4.6 0 0 0-1.64-2.48 3 3 0 0 0-2.12-.9c-.78-.11-1.52-.17-2.23-.17h-10.09c-1.8 0-3.2.53-4.22 1.6-1.02.94-1.53 2.55-1.53 4.8v3.55c0 2.25.51 4.03 1.53 5.33a5.06 5.06 0 0 0 4.22 1.95h9.98Z" mask="url(#b)"/><mask id="c" width="799" height="191" x=".3" y="4.03" fill="#000" maskUnits="userSpaceOnUse"><path fill="#fff" d="M.3 4.03h799v191H.3z"/><path d="M227.92 172.13c0 5.8-1.78 10.42-5.33 13.9-3.56 3.47-8.3 5.2-14.23 5.2h-45.7c-5.93 0-10.76-1.73-14.48-5.2-3.56-3.48-17.4-16.85-17.4-22.64l12.07-7.63c0-2.65-.76-4.72-2.29-6.2-1.52-1.66-3.64-2.49-6.35-2.49h-26.4c-2.38 0-4.24.83-5.6 2.48-1.18 1.5-1.77 3.56-1.77 6.2v16.38c0 5.8-1.78 10.42-5.34 13.9-3.55 3.47-8.3 5.2-14.22 5.2H34.92c-5.93 0-10.67-1.73-14.22-5.2-3.56-3.48-17.4-16.85-17.4-22.64L15.37 77.6c0-10.09 2.11-19.02 6.34-26.8a53.15 53.15 0 0 1 18.03-19.6c7.8-5.29 17.27-9.26 28.45-11.9 11.17-2.81 23.61-4.22 37.33-4.22h32.5c13.72 0 26.07 1.4 37.08 4.22 11.17 2.64 11.79-1.46 19.58 3.83 7.78 5.13 22.66 19.74 26.89 27.68 4.23 7.77 6.35 16.7 6.35 26.8v94.52ZM100.44 95.47c0 2.48.59 4.55 1.78 6.2 1.35 1.49 3.21 2.23 5.58 2.23h26.41c2.71 0 4.83-.74 6.35-2.23a8.8 8.8 0 0 0 2.29-6.2v-8.94c0-7.1-1.78-12.07-5.34-14.88-3.55-2.81-8.3-4.22-14.22-4.22H120c-5.92 0-10.66 1.4-14.22 4.22-3.55 2.81-5.33 7.77-5.33 14.88v8.94ZM334.18 141.12h13.97c3.72-.17 6.69-.42 8.89-.75 2.37-.5 3.97-1.24 4.82-2.23 1.02-1 1.52-2.48 1.52-4.46 0-1.99-.42-3.48-1.26-4.47-.85-1.16-2.29-1.9-4.32-2.23-2.03-.5-4.74-.75-8.13-.75-3.38-.16-7.7-.25-12.95-.25h-35.55c-10.16 0-18.54-1.15-25.14-3.47-6.43-2.48-11.51-5.95-15.24-10.42-3.72-4.63-10.32-9.84-11.84-16.62-1.35-6.79 1.94-15.06 1.94-23.82 0-12.4 1.86-22.17 5.58-29.28 3.9-7.11 8.8-12.49 14.73-16.13a48.05 48.05 0 0 1 19.56-7.2c7.28-.98 14.22-1.48 20.82-1.48L413.14 7.03c5.93 0 17.03 12.27 20.59 15.74 3.55 3.47 5.33 8.1 5.33 13.9v11.4c0 5.8-1.78 10.43-5.33 13.9-3.56 3.48-8.3 5.21-14.22 5.21H351.2c-6.6 0-11.35.25-14.22.75-2.71.5-4.07 2.31-4.07 5.45 0 3.8 1.78 5.96 5.33 6.46 3.56.5 9.32.74 17.27.74h24.38c13.72 0 24.28-5.4 33.25-3.09 8.98 2.15 16.86 12.1 22.11 16.74a35.42 35.42 0 0 1 11.18 17.61c2.2 6.95 3.3 15.14 3.3 24.56 0 11.09-1.19 20.18-3.56 27.3-2.37 7.1-6.18 12.73-11.43 16.87-5.24 3.97-12.02 6.78-20.31 8.43-8.13 1.5-18.03 2.24-29.71 2.24h-112.5c-5.25 0-9.48-1.74-12.7-5.22-3.05-3.47-16.68-16.53-16.68-22.32l12.11-3.48c0-5.79 1.44-10.42 4.32-13.9 3.05-3.47 7.02-5.2 11.93-5.2h62.98ZM474.03 36.66c0-5.78 1.78-10.42 5.34-13.89 3.55-3.47 8.3-5.21 14.22-5.21l39.34-10.53c5.93 0 17.03 12.27 20.59 15.74 3.72 3.47 5.58 8.1 5.58 13.9v135.46c0 5.8-1.86 10.42-5.58 13.9-3.56 3.47-8.3 5.2-14.22 5.2h-45.71c-5.93 0-10.67-1.73-14.22-5.2-3.56-3.48-17.45-16.54-17.45-22.33l12.11-127.04ZM796 172.13c0 5.8-1.78 10.42-5.33 13.9-3.56 3.47-8.3 5.2-14.22 5.2h-45.71c-5.93 0-10.75-1.73-14.48-5.2-3.55-3.48-16.94-14.17-16.94-19.96l11.6-10.31c0-2.65-.75-4.72-2.28-6.2-1.52-1.66-3.64-2.49-6.35-2.49h-26.4c-2.38 0-4.24.83-5.6 2.48-1.18 1.5-1.77 3.56-1.77 6.2v16.38c0 5.8-1.78 10.42-5.33 13.9-3.56 3.47-8.3 5.2-14.22 5.2H603c-5.92 0-10.66-1.73-14.22-5.2-3.55-3.48-16.94-14.17-16.94-19.96l11.6-88.47c0-10.09 2.12-19.02 6.36-26.8a53.14 53.14 0 0 1 18.03-19.6c7.78-5.29 17.26-9.26 28.44-11.9 11.17-2.81 23.62-4.22 37.33-4.22h32.5c13.72 0 26.07 1.4 37.08 4.22 11.17 2.64 15.99.55 23.77 5.85 7.8 5.12 18.47 17.72 22.7 25.66 4.23 7.77 6.35 16.7 6.35 26.8v94.52ZM668.52 95.47c0 2.48.6 4.55 1.78 6.2 1.35 1.49 3.21 2.23 5.58 2.23h26.41c2.71 0 4.83-.74 6.35-2.23a8.8 8.8 0 0 0 2.29-6.2v-8.94c0-7.1-1.78-12.07-5.33-14.88-3.56-2.81-8.3-4.22-14.23-4.22h-3.3c-5.92 0-10.66 1.4-14.22 4.22-3.55 2.81-5.33 7.77-5.33 14.88v8.94Z"/></mask><path fill="#002755" d="M227.92 172.13c0 5.8-1.78 10.42-5.33 13.9-3.56 3.47-8.3 5.2-14.23 5.2h-45.7c-5.93 0-10.76-1.73-14.48-5.2-3.56-3.48-17.4-16.85-17.4-22.64l12.07-7.63c0-2.65-.76-4.72-2.29-6.2-1.52-1.66-3.64-2.49-6.35-2.49h-26.4c-2.38 0-4.24.83-5.6 2.48-1.18 1.5-1.77 3.56-1.77 6.2v16.38c0 5.8-1.78 10.42-5.34 13.9-3.55 3.47-8.3 5.2-14.22 5.2H34.92c-5.93 0-10.67-1.73-14.22-5.2-3.56-3.48-17.4-16.85-17.4-22.64L15.37 77.6c0-10.09 2.11-19.02 6.34-26.8a53.15 53.15 0 0 1 18.03-19.6c7.8-5.29 17.27-9.26 28.45-11.9 11.17-2.81 23.61-4.22 37.33-4.22h32.5c13.72 0 26.07 1.4 37.08 4.22 11.17 2.64 11.79-1.46 19.58 3.83 7.78 5.13 22.66 19.74 26.89 27.68 4.23 7.77 6.35 16.7 6.35 26.8v94.52ZM100.44 95.47c0 2.48.59 4.55 1.78 6.2 1.35 1.49 3.21 2.23 5.58 2.23h26.41c2.71 0 4.83-.74 6.35-2.23a8.8 8.8 0 0 0 2.29-6.2v-8.94c0-7.1-1.78-12.07-5.34-14.88-3.55-2.81-8.3-4.22-14.22-4.22H120c-5.92 0-10.66 1.4-14.22 4.22-3.55 2.81-5.33 7.77-5.33 14.88v8.94ZM334.18 141.12h13.97c3.72-.17 6.69-.42 8.89-.75 2.37-.5 3.97-1.24 4.82-2.23 1.02-1 1.52-2.48 1.52-4.46 0-1.99-.42-3.48-1.26-4.47-.85-1.16-2.29-1.9-4.32-2.23-2.03-.5-4.74-.75-8.13-.75-3.38-.16-7.7-.25-12.95-.25h-35.55c-10.16 0-18.54-1.15-25.14-3.47-6.43-2.48-11.51-5.95-15.24-10.42-3.72-4.63-10.32-9.84-11.84-16.62-1.35-6.79 1.94-15.06 1.94-23.82 0-12.4 1.86-22.17 5.58-29.28 3.9-7.11 8.8-12.49 14.73-16.13a48.05 48.05 0 0 1 19.56-7.2c7.28-.98 14.22-1.48 20.82-1.48L413.14 7.03c5.93 0 17.03 12.27 20.59 15.74 3.55 3.47 5.33 8.1 5.33 13.9v11.4c0 5.8-1.78 10.43-5.33 13.9-3.56 3.48-8.3 5.21-14.22 5.21H351.2c-6.6 0-11.35.25-14.22.75-2.71.5-4.07 2.31-4.07 5.45 0 3.8 1.78 5.96 5.33 6.46 3.56.5 9.32.74 17.27.74h24.38c13.72 0 24.28-5.4 33.25-3.09 8.98 2.15 16.86 12.1 22.11 16.74a35.42 35.42 0 0 1 11.18 17.61c2.2 6.95 3.3 15.14 3.3 24.56 0 11.09-1.19 20.18-3.56 27.3-2.37 7.1-6.18 12.73-11.43 16.87-5.24 3.97-12.02 6.78-20.31 8.43-8.13 1.5-18.03 2.24-29.71 2.24h-112.5c-5.25 0-9.48-1.74-12.7-5.22-3.05-3.47-16.68-16.53-16.68-22.32l12.11-3.48c0-5.79 1.44-10.42 4.32-13.9 3.05-3.47 7.02-5.2 11.93-5.2h62.98ZM474.03 36.66c0-5.78 1.78-10.42 5.34-13.89 3.55-3.47 8.3-5.21 14.22-5.21l39.34-10.53c5.93 0 17.03 12.27 20.59 15.74 3.72 3.47 5.58 8.1 5.58 13.9v135.46c0 5.8-1.86 10.42-5.58 13.9-3.56 3.47-8.3 5.2-14.22 5.2h-45.71c-5.93 0-10.67-1.73-14.22-5.2-3.56-3.48-17.45-16.54-17.45-22.33l12.11-127.04ZM796 172.13c0 5.8-1.78 10.42-5.33 13.9-3.56 3.47-8.3 5.2-14.22 5.2h-45.71c-5.93 0-10.75-1.73-14.48-5.2-3.55-3.48-16.94-14.17-16.94-19.96l11.6-10.31c0-2.65-.75-4.72-2.28-6.2-1.52-1.66-3.64-2.49-6.35-2.49h-26.4c-2.38 0-4.24.83-5.6 2.48-1.18 1.5-1.77 3.56-1.77 6.2v16.38c0 5.8-1.78 10.42-5.33 13.9-3.56 3.47-8.3 5.2-14.22 5.2H603c-5.92 0-10.66-1.73-14.22-5.2-3.55-3.48-16.94-14.17-16.94-19.96l11.6-88.47c0-10.09 2.12-19.02 6.36-26.8a53.14 53.14 0 0 1 18.03-19.6c7.78-5.29 17.26-9.26 28.44-11.9 11.17-2.81 23.62-4.22 37.33-4.22h32.5c13.72 0 26.07 1.4 37.08 4.22 11.17 2.64 15.99.55 23.77 5.85 7.8 5.12 18.47 17.72 22.7 25.66 4.23 7.77 6.35 16.7 6.35 26.8v94.52ZM668.52 95.47c0 2.48.6 4.55 1.78 6.2 1.35 1.49 3.21 2.23 5.58 2.23h26.41c2.71 0 4.83-.74 6.35-2.23a8.8 8.8 0 0 0 2.29-6.2v-8.94c0-7.1-1.78-12.07-5.33-14.88-3.56-2.81-8.3-4.22-14.23-4.22h-3.3c-5.92 0-10.66 1.4-14.22 4.22-3.55 2.81-5.33 7.77-5.33 14.88v8.94Z"/><path stroke="#002755" stroke-width="6" d="M227.92 172.13c0 5.8-1.78 10.42-5.33 13.9-3.56 3.47-8.3 5.2-14.23 5.2h-45.7c-5.93 0-10.76-1.73-14.48-5.2-3.56-3.48-17.4-16.85-17.4-22.64l12.07-7.63c0-2.65-.76-4.72-2.29-6.2-1.52-1.66-3.64-2.49-6.35-2.49h-26.4c-2.38 0-4.24.83-5.6 2.48-1.18 1.5-1.77 3.56-1.77 6.2v16.38c0 5.8-1.78 10.42-5.34 13.9-3.55 3.47-8.3 5.2-14.22 5.2H34.92c-5.93 0-10.67-1.73-14.22-5.2-3.56-3.48-17.4-16.85-17.4-22.64L15.37 77.6c0-10.09 2.11-19.02 6.34-26.8a53.15 53.15 0 0 1 18.03-19.6c7.8-5.29 17.27-9.26 28.45-11.9 11.17-2.81 23.61-4.22 37.33-4.22h32.5c13.72 0 26.07 1.4 37.08 4.22 11.17 2.64 11.79-1.46 19.58 3.83 7.78 5.13 22.66 19.74 26.89 27.68 4.23 7.77 6.35 16.7 6.35 26.8v94.52ZM100.44 95.47c0 2.48.59 4.55 1.78 6.2 1.35 1.49 3.21 2.23 5.58 2.23h26.41c2.71 0 4.83-.74 6.35-2.23a8.8 8.8 0 0 0 2.29-6.2v-8.94c0-7.1-1.78-12.07-5.34-14.88-3.55-2.81-8.3-4.22-14.22-4.22H120c-5.92 0-10.66 1.4-14.22 4.22-3.55 2.81-5.33 7.77-5.33 14.88v8.94ZM334.18 141.12h13.97c3.72-.17 6.69-.42 8.89-.75 2.37-.5 3.97-1.24 4.82-2.23 1.02-1 1.52-2.48 1.52-4.46 0-1.99-.42-3.48-1.26-4.47-.85-1.16-2.29-1.9-4.32-2.23-2.03-.5-4.74-.75-8.13-.75-3.38-.16-7.7-.25-12.95-.25h-35.55c-10.16 0-18.54-1.15-25.14-3.47-6.43-2.48-11.51-5.95-15.24-10.42-3.72-4.63-10.32-9.84-11.84-16.62-1.35-6.79 1.94-15.06 1.94-23.82 0-12.4 1.86-22.17 5.58-29.28 3.9-7.11 8.8-12.49 14.73-16.13a48.05 48.05 0 0 1 19.56-7.2c7.28-.98 14.22-1.48 20.82-1.48L413.14 7.03c5.93 0 17.03 12.27 20.59 15.74 3.55 3.47 5.33 8.1 5.33 13.9v11.4c0 5.8-1.78 10.43-5.33 13.9-3.56 3.48-8.3 5.21-14.22 5.21H351.2c-6.6 0-11.35.25-14.22.75-2.71.5-4.07 2.31-4.07 5.45 0 3.8 1.78 5.96 5.33 6.46 3.56.5 9.32.74 17.27.74h24.38c13.72 0 24.28-5.4 33.25-3.09 8.98 2.15 16.86 12.1 22.11 16.74a35.42 35.42 0 0 1 11.18 17.61c2.2 6.95 3.3 15.14 3.3 24.56 0 11.09-1.19 20.18-3.56 27.3-2.37 7.1-6.18 12.73-11.43 16.87-5.24 3.97-12.02 6.78-20.31 8.43-8.13 1.5-18.03 2.24-29.71 2.24h-112.5c-5.25 0-9.48-1.74-12.7-5.22-3.05-3.47-16.68-16.53-16.68-22.32l12.11-3.48c0-5.79 1.44-10.42 4.32-13.9 3.05-3.47 7.02-5.2 11.93-5.2h62.98ZM474.03 36.66c0-5.78 1.78-10.42 5.34-13.89 3.55-3.47 8.3-5.21 14.22-5.21l39.34-10.53c5.93 0 17.03 12.27 20.59 15.74 3.72 3.47 5.58 8.1 5.58 13.9v135.46c0 5.8-1.86 10.42-5.58 13.9-3.56 3.47-8.3 5.2-14.22 5.2h-45.71c-5.93 0-10.67-1.73-14.22-5.2-3.56-3.48-17.45-16.54-17.45-22.33l12.11-127.04ZM796 172.13c0 5.8-1.78 10.42-5.33 13.9-3.56 3.47-8.3 5.2-14.22 5.2h-45.71c-5.93 0-10.75-1.73-14.48-5.2-3.55-3.48-16.94-14.17-16.94-19.96l11.6-10.31c0-2.65-.75-4.72-2.28-6.2-1.52-1.66-3.64-2.49-6.35-2.49h-26.4c-2.38 0-4.24.83-5.6 2.48-1.18 1.5-1.77 3.56-1.77 6.2v16.38c0 5.8-1.78 10.42-5.33 13.9-3.56 3.47-8.3 5.2-14.22 5.2H603c-5.92 0-10.66-1.73-14.22-5.2-3.55-3.48-16.94-14.17-16.94-19.96l11.6-88.47c0-10.09 2.12-19.02 6.36-26.8a53.14 53.14 0 0 1 18.03-19.6c7.78-5.29 17.26-9.26 28.44-11.9 11.17-2.81 23.62-4.22 37.33-4.22h32.5c13.72 0 26.07 1.4 37.08 4.22 11.17 2.64 15.99.55 23.77 5.85 7.8 5.12 18.47 17.72 22.7 25.66 4.23 7.77 6.35 16.7 6.35 26.8v94.52ZM668.52 95.47c0 2.48.6 4.55 1.78 6.2 1.35 1.49 3.21 2.23 5.58 2.23h26.41c2.71 0 4.83-.74 6.35-2.23a8.8 8.8 0 0 0 2.29-6.2v-8.94c0-7.1-1.78-12.07-5.33-14.88-3.56-2.81-8.3-4.22-14.23-4.22h-3.3c-5.92 0-10.66 1.4-14.22 4.22-3.55 2.81-5.33 7.77-5.33 14.88v8.94Z" mask="url(#c)"/><mask id="d" width="787" height="183" x="0" y="0" fill="#000" maskUnits="userSpaceOnUse"><path fill="#fff" d="M0 0h787v183H0z"/><path d="M215.55 160.05c0 5.8-1.78 10.42-5.33 13.9-3.56 3.47-8.3 5.2-14.22 5.2h-45.71c-5.93 0-10.75-1.73-14.48-5.2-3.55-3.48-5.33-8.1-5.33-13.9v-16.37c0-2.65-.76-4.72-2.28-6.2-1.53-1.66-3.64-2.49-6.35-2.49H95.44c-2.37 0-4.24.83-5.6 2.48-1.18 1.5-1.77 3.56-1.77 6.2v16.38c0 5.8-1.78 10.42-5.33 13.9-3.56 3.47-8.3 5.2-14.22 5.2H22.55c-5.92 0-10.66-1.73-14.22-5.2-3.55-3.48-5.33-8.1-5.33-13.9V65.52c0-10.09 2.12-19.02 6.35-26.8a53.15 53.15 0 0 1 18.03-19.6c7.79-5.29 17.27-9.26 28.44-11.9C66.99 4.4 79.44 3 93.15 3h32.5c13.72 0 26.08 1.4 37.08 4.22 11.18 2.64 20.66 6.61 28.44 11.9a53.14 53.14 0 0 1 18.03 19.6c4.24 7.78 6.35 16.71 6.35 26.8v94.53ZM88.07 83.4c0 2.48.6 4.55 1.78 6.2 1.35 1.49 3.22 2.23 5.59 2.23h26.4c2.72 0 4.83-.74 6.35-2.23a8.8 8.8 0 0 0 2.29-6.2v-8.94c0-7.1-1.78-12.07-5.33-14.88-3.56-2.81-8.3-4.22-14.22-4.22h-3.3c-5.93 0-10.67 1.4-14.23 4.22-3.55 2.81-5.33 7.77-5.33 14.88v8.94ZM321.81 129.04h13.97c3.73-.17 6.69-.41 8.89-.75 2.37-.5 3.98-1.24 4.82-2.23 1.02-1 1.53-2.48 1.53-4.47 0-1.98-.42-3.47-1.27-4.46-.85-1.16-2.29-1.9-4.32-2.23-2.03-.5-4.74-.75-8.12-.75-3.39-.16-7.7-.25-12.95-.25H288.8c-10.16 0-18.54-1.15-25.14-3.47-6.43-2.48-11.51-5.95-15.24-10.42-3.72-4.63-6.34-10.34-7.87-17.12-1.35-6.78-2.03-14.56-2.03-23.32 0-12.4 1.86-22.17 5.59-29.28 3.9-7.11 8.8-12.49 14.73-16.13a48.04 48.04 0 0 1 19.55-7.19c7.28-1 14.22-1.49 20.82-1.49h107.93c5.93 0 10.67 1.74 14.22 5.21 3.56 3.47 5.33 8.1 5.33 13.9v11.4c0 5.8-1.77 10.43-5.33 13.9-3.55 3.48-8.3 5.21-14.22 5.21h-68.31c-6.6 0-11.34.25-14.22.75-2.71.5-4.06 2.31-4.06 5.46 0 3.8 1.77 5.95 5.33 6.45 3.55.5 9.31.74 17.27.74h24.38c13.7 0 25.05 1.16 34.02 3.47 8.98 2.15 16.09 5.54 21.34 10.18a35.42 35.42 0 0 1 11.17 17.61c2.2 6.95 3.3 15.14 3.3 24.56 0 11.09-1.19 20.18-3.56 27.3-2.37 7.1-6.17 12.73-11.42 16.87-5.25 3.97-12.02 6.78-20.32 8.43-8.12 1.5-18.03 2.24-29.71 2.24h-112.5c-5.25 0-9.48-1.74-12.7-5.21-3.04-3.48-4.56-8.1-4.56-13.9v-11.9c0-5.8 1.43-10.43 4.31-13.9 3.05-3.47 7.03-5.21 11.94-5.21h62.98ZM461.67 24.59c0-5.8 1.77-10.43 5.33-13.9 3.55-3.47 8.3-5.2 14.22-5.2h45.71c5.93 0 10.67 1.73 14.22 5.2 3.73 3.47 5.59 8.1 5.59 13.9v135.46c0 5.8-1.87 10.42-5.59 13.9-3.55 3.47-8.3 5.2-14.22 5.2h-45.71c-5.93 0-10.67-1.73-14.22-5.2-3.56-3.48-5.33-8.1-5.33-13.9V24.6ZM783.63 160.05c0 5.8-1.77 10.42-5.33 13.9-3.55 3.47-8.3 5.2-14.22 5.2h-45.71c-5.92 0-10.75-1.73-14.48-5.2-3.55-3.48-5.33-8.1-5.33-13.9v-16.37c0-2.65-.76-4.72-2.28-6.2-1.53-1.66-3.64-2.49-6.35-2.49h-26.41c-2.37 0-4.24.83-5.59 2.48-1.18 1.5-1.78 3.56-1.78 6.2v16.38c0 5.8-1.77 10.42-5.33 13.9-3.56 3.47-8.3 5.2-14.22 5.2h-45.96c-5.93 0-10.67-1.73-14.23-5.2-3.55-3.48-5.33-8.1-5.33-13.9V65.52c0-10.09 2.12-19.02 6.35-26.8a53.15 53.15 0 0 1 18.03-19.6c7.79-5.29 17.27-9.26 28.44-11.9C635.08 4.4 647.52 3 661.23 3h32.5c13.72 0 26.08 1.4 37.08 4.22 11.18 2.64 20.66 6.61 28.45 11.9a53.14 53.14 0 0 1 18.02 19.6c4.24 7.78 6.35 16.71 6.35 26.8v94.53ZM656.15 83.4c0 2.48.6 4.55 1.78 6.2 1.36 1.49 3.22 2.23 5.59 2.23h26.4c2.72 0 4.83-.74 6.36-2.23a8.8 8.8 0 0 0 2.28-6.2v-8.94c0-7.1-1.77-12.07-5.33-14.88-3.56-2.81-8.3-4.22-14.22-4.22h-3.3c-5.93 0-10.67 1.4-14.22 4.22-3.56 2.81-5.34 7.77-5.34 14.88v8.94Z"/></mask><path fill="#fff" d="M215.55 160.05c0 5.8-1.78 10.42-5.33 13.9-3.56 3.47-8.3 5.2-14.22 5.2h-45.71c-5.93 0-10.75-1.73-14.48-5.2-3.55-3.48-5.33-8.1-5.33-13.9v-16.37c0-2.65-.76-4.72-2.28-6.2-1.53-1.66-3.64-2.49-6.35-2.49H95.44c-2.37 0-4.24.83-5.6 2.48-1.18 1.5-1.77 3.56-1.77 6.2v16.38c0 5.8-1.78 10.42-5.33 13.9-3.56 3.47-8.3 5.2-14.22 5.2H22.55c-5.92 0-10.66-1.73-14.22-5.2-3.55-3.48-5.33-8.1-5.33-13.9V65.52c0-10.09 2.12-19.02 6.35-26.8a53.15 53.15 0 0 1 18.03-19.6c7.79-5.29 17.27-9.26 28.44-11.9C66.99 4.4 79.44 3 93.15 3h32.5c13.72 0 26.08 1.4 37.08 4.22 11.18 2.64 20.66 6.61 28.44 11.9a53.14 53.14 0 0 1 18.03 19.6c4.24 7.78 6.35 16.71 6.35 26.8v94.53ZM88.07 83.4c0 2.48.6 4.55 1.78 6.2 1.35 1.49 3.22 2.23 5.59 2.23h26.4c2.72 0 4.83-.74 6.35-2.23a8.8 8.8 0 0 0 2.29-6.2v-8.94c0-7.1-1.78-12.07-5.33-14.88-3.56-2.81-8.3-4.22-14.22-4.22h-3.3c-5.93 0-10.67 1.4-14.23 4.22-3.55 2.81-5.33 7.77-5.33 14.88v8.94ZM321.81 129.04h13.97c3.73-.17 6.69-.41 8.89-.75 2.37-.5 3.98-1.24 4.82-2.23 1.02-1 1.53-2.48 1.53-4.47 0-1.98-.42-3.47-1.27-4.46-.85-1.16-2.29-1.9-4.32-2.23-2.03-.5-4.74-.75-8.12-.75-3.39-.16-7.7-.25-12.95-.25H288.8c-10.16 0-18.54-1.15-25.14-3.47-6.43-2.48-11.51-5.95-15.24-10.42-3.72-4.63-6.34-10.34-7.87-17.12-1.35-6.78-2.03-14.56-2.03-23.32 0-12.4 1.86-22.17 5.59-29.28 3.9-7.11 8.8-12.49 14.73-16.13a48.04 48.04 0 0 1 19.55-7.19c7.28-1 14.22-1.49 20.82-1.49h107.93c5.93 0 10.67 1.74 14.22 5.21 3.56 3.47 5.33 8.1 5.33 13.9v11.4c0 5.8-1.77 10.43-5.33 13.9-3.55 3.48-8.3 5.21-14.22 5.21h-68.31c-6.6 0-11.34.25-14.22.75-2.71.5-4.06 2.31-4.06 5.46 0 3.8 1.77 5.95 5.33 6.45 3.55.5 9.31.74 17.27.74h24.38c13.7 0 25.05 1.16 34.02 3.47 8.98 2.15 16.09 5.54 21.34 10.18a35.42 35.42 0 0 1 11.17 17.61c2.2 6.95 3.3 15.14 3.3 24.56 0 11.09-1.19 20.18-3.56 27.3-2.37 7.1-6.17 12.73-11.42 16.87-5.25 3.97-12.02 6.78-20.32 8.43-8.12 1.5-18.03 2.24-29.71 2.24h-112.5c-5.25 0-9.48-1.74-12.7-5.21-3.04-3.48-4.56-8.1-4.56-13.9v-11.9c0-5.8 1.43-10.43 4.31-13.9 3.05-3.47 7.03-5.21 11.94-5.21h62.98ZM461.67 24.59c0-5.8 1.77-10.43 5.33-13.9 3.55-3.47 8.3-5.2 14.22-5.2h45.71c5.93 0 10.67 1.73 14.22 5.2 3.73 3.47 5.59 8.1 5.59 13.9v135.46c0 5.8-1.87 10.42-5.59 13.9-3.55 3.47-8.3 5.2-14.22 5.2h-45.71c-5.93 0-10.67-1.73-14.22-5.2-3.56-3.48-5.33-8.1-5.33-13.9V24.6ZM783.63 160.05c0 5.8-1.77 10.42-5.33 13.9-3.55 3.47-8.3 5.2-14.22 5.2h-45.71c-5.92 0-10.75-1.73-14.48-5.2-3.55-3.48-5.33-8.1-5.33-13.9v-16.37c0-2.65-.76-4.72-2.28-6.2-1.53-1.66-3.64-2.49-6.35-2.49h-26.41c-2.37 0-4.24.83-5.59 2.48-1.18 1.5-1.78 3.56-1.78 6.2v16.38c0 5.8-1.77 10.42-5.33 13.9-3.56 3.47-8.3 5.2-14.22 5.2h-45.96c-5.93 0-10.67-1.73-14.23-5.2-3.55-3.48-5.33-8.1-5.33-13.9V65.52c0-10.09 2.12-19.02 6.35-26.8a53.15 53.15 0 0 1 18.03-19.6c7.79-5.29 17.27-9.26 28.44-11.9C635.08 4.4 647.52 3 661.23 3h32.5c13.72 0 26.08 1.4 37.08 4.22 11.18 2.64 20.66 6.61 28.45 11.9a53.14 53.14 0 0 1 18.02 19.6c4.24 7.78 6.35 16.71 6.35 26.8v94.53ZM656.15 83.4c0 2.48.6 4.55 1.78 6.2 1.36 1.49 3.22 2.23 5.59 2.23h26.4c2.72 0 4.83-.74 6.36-2.23a8.8 8.8 0 0 0 2.28-6.2v-8.94c0-7.1-1.77-12.07-5.33-14.88-3.56-2.81-8.3-4.22-14.22-4.22h-3.3c-5.93 0-10.67 1.4-14.22 4.22-3.56 2.81-5.34 7.77-5.34 14.88v8.94Z"/><path stroke="#002755" stroke-width="6" d="M215.55 160.05c0 5.8-1.78 10.42-5.33 13.9-3.56 3.47-8.3 5.2-14.22 5.2h-45.71c-5.93 0-10.75-1.73-14.48-5.2-3.55-3.48-5.33-8.1-5.33-13.9v-16.37c0-2.65-.76-4.72-2.28-6.2-1.53-1.66-3.64-2.49-6.35-2.49H95.44c-2.37 0-4.24.83-5.6 2.48-1.18 1.5-1.77 3.56-1.77 6.2v16.38c0 5.8-1.78 10.42-5.33 13.9-3.56 3.47-8.3 5.2-14.22 5.2H22.55c-5.92 0-10.66-1.73-14.22-5.2-3.55-3.48-5.33-8.1-5.33-13.9V65.52c0-10.09 2.12-19.02 6.35-26.8a53.15 53.15 0 0 1 18.03-19.6c7.79-5.29 17.27-9.26 28.44-11.9C66.99 4.4 79.44 3 93.15 3h32.5c13.72 0 26.08 1.4 37.08 4.22 11.18 2.64 20.66 6.61 28.44 11.9a53.14 53.14 0 0 1 18.03 19.6c4.24 7.78 6.35 16.71 6.35 26.8v94.53ZM88.07 83.4c0 2.48.6 4.55 1.78 6.2 1.35 1.49 3.22 2.23 5.59 2.23h26.4c2.72 0 4.83-.74 6.35-2.23a8.8 8.8 0 0 0 2.29-6.2v-8.94c0-7.1-1.78-12.07-5.33-14.88-3.56-2.81-8.3-4.22-14.22-4.22h-3.3c-5.93 0-10.67 1.4-14.23 4.22-3.55 2.81-5.33 7.77-5.33 14.88v8.94ZM321.81 129.04h13.97c3.73-.17 6.69-.41 8.89-.75 2.37-.5 3.98-1.24 4.82-2.23 1.02-1 1.53-2.48 1.53-4.47 0-1.98-.42-3.47-1.27-4.46-.85-1.16-2.29-1.9-4.32-2.23-2.03-.5-4.74-.75-8.12-.75-3.39-.16-7.7-.25-12.95-.25H288.8c-10.16 0-18.54-1.15-25.14-3.47-6.43-2.48-11.51-5.95-15.24-10.42-3.72-4.63-6.34-10.34-7.87-17.12-1.35-6.78-2.03-14.56-2.03-23.32 0-12.4 1.86-22.17 5.59-29.28 3.9-7.11 8.8-12.49 14.73-16.13a48.04 48.04 0 0 1 19.55-7.19c7.28-1 14.22-1.49 20.82-1.49h107.93c5.93 0 10.67 1.74 14.22 5.21 3.56 3.47 5.33 8.1 5.33 13.9v11.4c0 5.8-1.77 10.43-5.33 13.9-3.55 3.48-8.3 5.21-14.22 5.21h-68.31c-6.6 0-11.34.25-14.22.75-2.71.5-4.06 2.31-4.06 5.46 0 3.8 1.77 5.95 5.33 6.45 3.55.5 9.31.74 17.27.74h24.38c13.7 0 25.05 1.16 34.02 3.47 8.98 2.15 16.09 5.54 21.34 10.18a35.42 35.42 0 0 1 11.17 17.61c2.2 6.95 3.3 15.14 3.3 24.56 0 11.09-1.19 20.18-3.56 27.3-2.37 7.1-6.17 12.73-11.42 16.87-5.25 3.97-12.02 6.78-20.32 8.43-8.12 1.5-18.03 2.24-29.71 2.24h-112.5c-5.25 0-9.48-1.74-12.7-5.21-3.04-3.48-4.56-8.1-4.56-13.9v-11.9c0-5.8 1.43-10.43 4.31-13.9 3.05-3.47 7.03-5.21 11.94-5.21h62.98ZM461.67 24.59c0-5.8 1.77-10.43 5.33-13.9 3.55-3.47 8.3-5.2 14.22-5.2h45.71c5.93 0 10.67 1.73 14.22 5.2 3.73 3.47 5.59 8.1 5.59 13.9v135.46c0 5.8-1.87 10.42-5.59 13.9-3.55 3.47-8.3 5.2-14.22 5.2h-45.71c-5.93 0-10.67-1.73-14.22-5.2-3.56-3.48-5.33-8.1-5.33-13.9V24.6ZM783.63 160.05c0 5.8-1.77 10.42-5.33 13.9-3.55 3.47-8.3 5.2-14.22 5.2h-45.71c-5.92 0-10.75-1.73-14.48-5.2-3.55-3.48-5.33-8.1-5.33-13.9v-16.37c0-2.65-.76-4.72-2.28-6.2-1.53-1.66-3.64-2.49-6.35-2.49h-26.41c-2.37 0-4.24.83-5.59 2.48-1.18 1.5-1.78 3.56-1.78 6.2v16.38c0 5.8-1.77 10.42-5.33 13.9-3.56 3.47-8.3 5.2-14.22 5.2h-45.96c-5.93 0-10.67-1.73-14.23-5.2-3.55-3.48-5.33-8.1-5.33-13.9V65.52c0-10.09 2.12-19.02 6.35-26.8a53.15 53.15 0 0 1 18.03-19.6c7.79-5.29 17.27-9.26 28.44-11.9C635.08 4.4 647.52 3 661.23 3h32.5c13.72 0 26.08 1.4 37.08 4.22 11.18 2.64 20.66 6.61 28.45 11.9a53.14 53.14 0 0 1 18.02 19.6c4.24 7.78 6.35 16.71 6.35 26.8v94.53ZM656.15 83.4c0 2.48.6 4.55 1.78 6.2 1.36 1.49 3.22 2.23 5.59 2.23h26.4c2.72 0 4.83-.74 6.36-2.23a8.8 8.8 0 0 0 2.28-6.2v-8.94c0-7.1-1.77-12.07-5.33-14.88-3.56-2.81-8.3-4.22-14.22-4.22h-3.3c-5.93 0-10.67 1.4-14.22 4.22-3.56 2.81-5.34 7.77-5.34 14.88v8.94Z" mask="url(#d)"/></svg>