<svg width="799" height="354" viewBox="0 0 799 354" fill="none" xmlns="http://www.w3.org/2000/svg">
<mask id="path-1-outside-1_2_4435" maskUnits="userSpaceOnUse" x="7.96657" y="221.209" width="790" height="132" fill="black">
<rect fill="white" x="7.96657" y="221.209" width="790" height="132"/>
<path d="M73.0998 303.881C73.0998 302.341 72.9042 301.334 72.513 300.86C72.1219 300.386 71.3787 300.149 70.2834 300.149C69.1882 300.149 67.9756 299.616 66.6456 298.55C65.3939 297.484 64.7681 296.122 64.7681 294.463V287.533C64.7681 285.164 65.3939 283.683 66.6456 283.091C67.9756 282.38 69.1882 282.025 70.2834 282.025H105.136C107.874 282.025 110.064 283.091 111.707 285.223C113.35 287.355 114.172 290.495 114.172 294.641V307.79C114.172 317.741 112.685 325.618 109.712 331.423C106.818 337.109 102.945 341.433 98.0949 344.394C93.3228 347.356 87.8465 349.192 81.6662 349.903C75.4859 350.732 69.1882 351.146 62.7732 351.146C58.0792 351.146 53.5418 350.909 49.1608 350.436C44.7798 349.962 40.6335 349.014 36.7219 347.593C32.8103 346.053 29.2116 343.92 25.9259 341.196C22.6402 338.353 19.8238 334.562 17.4768 329.824C15.1299 325.085 13.2914 319.221 11.9615 312.232C10.6315 305.243 9.96657 296.892 9.96657 287.178C9.96657 277.464 10.6315 269.113 11.9615 262.123C13.2914 255.134 15.1299 249.271 17.4768 244.532C19.8238 239.794 22.6402 236.003 25.9259 233.16C29.2116 230.317 32.8103 228.185 36.7219 226.763C40.6335 225.342 44.7798 224.394 49.1608 223.92C53.5418 223.446 58.0792 223.209 62.7732 223.209C69.1882 223.209 75.4859 223.505 81.6662 224.098C87.8465 224.572 93.3228 225.993 98.0949 228.362C102.945 230.613 106.818 234.108 109.712 238.846C112.685 243.584 114.172 250.159 114.172 258.57C114.172 264.967 113.194 269.172 111.238 271.186C109.36 273.081 106.7 274.029 103.258 274.029H83.6611C81.7053 274.029 80.1016 273.555 78.8498 272.607C77.5981 271.659 76.2682 270.653 74.86 269.586C73.5301 268.402 71.9263 267.336 70.0487 266.388C68.1712 265.44 65.6286 264.966 62.4211 264.966C57.8054 264.966 54.5588 266.743 52.6812 270.297C50.8037 273.733 49.8649 279.359 49.8649 287.178C49.8649 294.996 50.8037 300.682 52.6812 304.236C54.5588 307.671 57.8054 309.389 62.4211 309.389C66.3327 309.389 69.0709 309.034 70.6355 308.323C72.2784 307.494 73.0998 306.013 73.0998 303.881Z"/>
<path d="M121.567 287.178C121.567 277.464 122.231 269.113 123.561 262.123C124.891 255.134 126.73 249.271 129.077 244.532C131.424 239.794 134.24 236.062 137.526 233.338C140.812 230.495 144.41 228.362 148.322 226.941C152.233 225.401 156.38 224.394 160.761 223.92C165.142 223.446 169.679 223.209 174.373 223.209C181.336 223.209 187.946 223.802 194.205 224.986C200.464 226.171 205.94 228.955 210.634 233.338C215.406 237.602 219.161 243.999 221.899 252.528C224.715 261.057 226.124 272.607 226.124 287.178C226.124 301.748 224.715 313.298 221.899 321.827C219.161 330.357 215.406 336.813 210.634 341.196C205.94 345.46 200.464 348.185 194.205 349.37C187.946 350.554 181.336 351.146 174.373 351.146C169.679 351.146 165.142 350.909 160.761 350.436C156.38 349.962 152.233 349.014 148.322 347.593C144.41 346.053 140.812 343.92 137.526 341.196C134.24 338.353 131.424 334.562 129.077 329.824C126.73 325.085 124.891 319.221 123.561 312.232C122.231 305.243 121.567 296.892 121.567 287.178ZM161.465 287.178C161.465 294.996 162.404 300.682 164.281 304.236C166.159 307.671 169.405 309.389 174.021 309.389C178.637 309.389 181.805 307.612 183.526 304.058C185.326 300.505 186.225 294.878 186.225 287.178C186.225 279.359 185.326 273.733 183.526 270.297C181.805 266.743 178.637 264.966 174.021 264.966C169.405 264.966 166.159 266.743 164.281 270.297C162.404 273.733 161.465 279.359 161.465 287.178Z"/>
<path d="M274.58 294.641C274.58 301.867 275.401 306.842 277.044 309.567C278.687 312.291 280.878 313.654 283.616 313.654H285.141C287.879 313.654 290.07 312.291 291.713 309.567C293.356 306.842 294.177 301.867 294.177 294.641V238.668C294.177 234.522 294.998 231.205 296.641 228.718C298.362 226.23 300.592 224.986 303.33 224.986H324.453C327.191 224.986 329.381 226.23 331.024 228.718C332.667 231.205 333.489 234.522 333.489 238.668V288.777C333.489 300.86 332.511 310.929 330.555 318.984C328.599 326.921 325.822 333.318 322.223 338.175C318.624 342.913 314.243 346.29 309.08 348.303C303.995 350.199 298.284 351.146 291.947 351.146H276.927C270.59 351.146 264.84 350.199 259.677 348.303C254.513 346.29 250.132 342.913 246.534 338.175C242.935 333.318 240.158 326.921 238.202 318.984C236.246 310.929 235.268 300.86 235.268 288.777V238.668C235.268 234.522 236.09 231.205 237.733 228.718C239.375 226.23 241.566 224.986 244.304 224.986H265.544C268.282 224.986 270.473 226.23 272.116 228.718C273.758 231.205 274.58 234.522 274.58 238.668V294.641Z"/>
<path d="M615.14 349.37C612.48 349.37 610.329 348.126 608.686 345.638C607.043 343.15 606.222 339.833 606.222 335.687V238.668C606.222 234.522 607.043 231.205 608.686 228.718C610.329 226.23 612.48 224.986 615.14 224.986H680.738C683.476 224.986 685.667 226.23 687.309 228.718C689.031 231.087 689.891 234.285 689.891 238.313L689.774 247.908C689.774 252.054 688.952 255.371 687.309 257.859C685.667 260.228 683.476 261.413 680.738 261.413H649.993C648.663 261.413 647.528 261.709 646.59 262.301C645.729 262.775 645.299 264.197 645.299 266.566C645.299 268.224 645.651 269.646 646.355 270.83C647.059 271.896 647.959 272.43 649.054 272.43H680.386C682.42 272.43 684.063 273.614 685.315 275.983C686.566 278.234 687.192 281.255 687.192 285.046V289.132C687.192 292.923 686.527 296.003 685.197 298.372C683.946 300.623 682.263 301.748 680.151 301.748H649.054C647.959 301.748 647.059 302.222 646.355 303.17C645.651 303.999 645.299 305.184 645.299 306.724C645.299 307.435 645.377 308.145 645.534 308.856C645.69 309.567 646.003 310.278 646.472 310.988C646.942 311.581 647.646 312.054 648.585 312.41C649.523 312.765 650.814 312.943 652.457 312.943H680.738C683.476 312.943 685.667 314.187 687.309 316.674C689.031 319.044 689.891 322.301 689.891 326.447V335.865C689.891 340.011 689.031 343.328 687.309 345.816C685.667 348.185 683.476 349.37 680.738 349.37H615.14Z"/>
<path d="M736.548 349.37C733.81 349.37 731.619 348.244 729.976 345.993C728.412 343.624 727.63 340.544 727.63 336.753V274.562C727.63 272.193 727.356 270.771 726.808 270.297C726.339 269.705 725.791 269.409 725.165 269.409H707.563C704.825 269.409 702.595 267.928 700.874 264.966C699.231 262.005 698.41 258.037 698.41 253.061V241.334C698.41 236.358 699.192 232.39 700.757 229.428C702.4 226.467 704.59 224.986 707.328 224.986H786.89C789.628 224.986 791.78 226.467 793.344 229.428C794.987 232.39 795.809 236.358 795.809 241.334V253.061C795.809 258.037 794.987 262.005 793.344 264.966C791.701 267.928 789.511 269.409 786.773 269.409H769.171C768.545 269.409 767.958 269.705 767.41 270.297C766.941 270.771 766.706 272.193 766.706 274.562V336.753C766.706 340.663 765.924 343.743 764.359 345.993C762.795 348.244 760.604 349.37 757.788 349.37H736.548Z"/>
<path d="M596.557 334.383C596.557 339.122 595.735 342.912 594.093 345.755C592.45 348.48 590.259 349.842 587.521 349.842H566.281C563.543 349.842 561.353 348.717 559.71 346.466C558.067 344.215 557.245 341.195 557.245 337.404V288.539C557.245 281.668 556.58 276.989 555.25 274.501C553.999 271.895 552.278 270.592 550.087 270.592H548.914C546.723 270.592 544.963 271.895 543.633 274.501C542.303 276.989 541.677 281.668 541.755 288.539V337.404C541.755 341.195 540.934 344.215 539.291 346.466C537.648 348.717 535.458 349.842 532.72 349.842H515.939C513.827 349.842 512.105 348.717 510.776 346.466C509.524 344.215 508.898 341.195 508.898 337.404V288.539C508.898 281.668 508.233 276.989 506.903 274.501C505.573 271.895 503.813 270.592 501.622 270.592H500.332C498.063 270.592 496.264 271.895 494.934 274.501C493.604 276.989 492.939 281.668 492.939 288.539V337.404C492.939 341.195 492.117 344.215 490.474 346.466C488.831 348.717 486.641 349.842 483.903 349.842H462.78C460.042 349.842 457.852 348.421 456.209 345.578C454.566 342.735 453.744 339.003 453.744 334.383V257.976C453.744 253.119 454.253 248.677 455.27 244.649C456.287 240.622 457.734 237.186 459.612 234.343C461.489 231.5 463.719 229.309 466.301 227.769C468.961 226.229 471.894 225.459 475.102 225.459H498.806C502.17 225.459 507.048 224.928 511.083 227.591C513.462 229.162 514.662 230.446 516.012 232.922C517.322 235.325 517.231 237.006 517.787 239.674C518.345 242.356 518.858 246.604 518.858 246.604C518.858 246.604 519.342 250.335 520.515 251.757C521.689 253.179 523.293 253.889 525.327 253.889C527.361 253.889 528.965 253.179 530.138 251.757C531.312 250.335 531.796 246.604 531.796 246.604L532.867 239.674C532.867 239.674 533.412 235.318 534.759 232.922C536.157 230.437 537.385 229.157 539.805 227.591C543.865 224.964 548.718 225.459 552.082 225.459H575.082C578.29 225.459 581.224 226.229 583.883 227.769C586.543 229.309 588.812 231.5 590.69 234.343C592.567 237.186 594.014 240.622 595.031 244.649C596.048 248.559 596.557 252.942 596.557 257.798V334.383Z"/>
<path d="M403.416 330.474C403.416 327.749 402.633 325.617 401.069 324.077C399.504 322.537 397.079 321.767 393.793 321.767H386.518C385.031 321.767 383.819 322.122 382.88 322.833C382.019 323.544 381.589 324.491 381.589 325.676V341.846C381.589 344.215 380.728 346.17 379.007 347.71C377.364 349.131 375.174 349.842 372.436 349.842H351.313C348.653 349.842 346.463 348.598 344.742 346.11C343.099 343.623 342.277 340.306 342.277 336.16V239.141C342.277 235.35 342.982 232.152 344.39 229.545C345.798 226.821 347.715 225.459 350.14 225.459H414.446C419.532 225.459 423.912 225.992 427.589 227.058C431.345 228.005 434.435 229.782 436.86 232.389C439.363 234.995 441.202 238.608 442.375 243.228C443.627 247.729 444.253 253.534 444.253 260.641C444.253 266.92 443.901 272.014 443.197 275.923C442.493 279.832 441.515 282.853 440.263 284.985C439.011 287.117 437.525 288.539 435.804 289.25C434.083 289.96 432.244 290.316 430.288 290.316C425.907 290.316 422.974 290.73 421.487 291.559C420.001 292.27 419.258 293.929 419.258 296.535C419.258 299.259 421.605 301.866 421.605 301.866L430.288 309.162C430.288 309.162 437.642 315.182 439.676 317.551C441.71 319.921 442.727 323.948 442.727 329.634V338.47C442.727 341.905 441.906 344.689 440.263 346.821C438.62 348.835 436.43 349.842 433.692 349.842H412.452C409.713 349.842 407.523 349.131 405.88 347.71C404.237 346.17 403.416 344.215 403.416 341.846V330.474ZM397.314 280.01C398.174 280.01 398.996 280.01 399.778 280.01C400.639 279.891 401.382 279.595 402.008 279.121C402.633 278.529 403.142 277.64 403.533 276.456C403.924 275.271 404.12 273.613 404.12 271.48C404.12 269.23 403.885 267.512 403.416 266.327C403.025 265.143 402.477 264.314 401.773 263.84C401.147 263.247 400.443 262.951 399.661 262.951C398.878 262.833 398.135 262.774 397.431 262.774H387.339C385.54 262.774 384.132 263.307 383.115 264.373C382.098 265.32 381.589 266.92 381.589 269.17V272.724C381.589 274.975 382.098 276.752 383.115 278.055C384.132 279.358 385.54 280.01 387.339 280.01H397.314Z"/>
</mask>
<path d="M73.0998 303.881C73.0998 302.341 72.9042 301.334 72.513 300.86C72.1219 300.386 71.3787 300.149 70.2834 300.149C69.1882 300.149 67.9756 299.616 66.6456 298.55C65.3939 297.484 64.7681 296.122 64.7681 294.463V287.533C64.7681 285.164 65.3939 283.683 66.6456 283.091C67.9756 282.38 69.1882 282.025 70.2834 282.025H105.136C107.874 282.025 110.064 283.091 111.707 285.223C113.35 287.355 114.172 290.495 114.172 294.641V307.79C114.172 317.741 112.685 325.618 109.712 331.423C106.818 337.109 102.945 341.433 98.0949 344.394C93.3228 347.356 87.8465 349.192 81.6662 349.903C75.4859 350.732 69.1882 351.146 62.7732 351.146C58.0792 351.146 53.5418 350.909 49.1608 350.436C44.7798 349.962 40.6335 349.014 36.7219 347.593C32.8103 346.053 29.2116 343.92 25.9259 341.196C22.6402 338.353 19.8238 334.562 17.4768 329.824C15.1299 325.085 13.2914 319.221 11.9615 312.232C10.6315 305.243 9.96657 296.892 9.96657 287.178C9.96657 277.464 10.6315 269.113 11.9615 262.123C13.2914 255.134 15.1299 249.271 17.4768 244.532C19.8238 239.794 22.6402 236.003 25.9259 233.16C29.2116 230.317 32.8103 228.185 36.7219 226.763C40.6335 225.342 44.7798 224.394 49.1608 223.92C53.5418 223.446 58.0792 223.209 62.7732 223.209C69.1882 223.209 75.4859 223.505 81.6662 224.098C87.8465 224.572 93.3228 225.993 98.0949 228.362C102.945 230.613 106.818 234.108 109.712 238.846C112.685 243.584 114.172 250.159 114.172 258.57C114.172 264.967 113.194 269.172 111.238 271.186C109.36 273.081 106.7 274.029 103.258 274.029H83.6611C81.7053 274.029 80.1016 273.555 78.8498 272.607C77.5981 271.659 76.2682 270.653 74.86 269.586C73.5301 268.402 71.9263 267.336 70.0487 266.388C68.1712 265.44 65.6286 264.966 62.4211 264.966C57.8054 264.966 54.5588 266.743 52.6812 270.297C50.8037 273.733 49.8649 279.359 49.8649 287.178C49.8649 294.996 50.8037 300.682 52.6812 304.236C54.5588 307.671 57.8054 309.389 62.4211 309.389C66.3327 309.389 69.0709 309.034 70.6355 308.323C72.2784 307.494 73.0998 306.013 73.0998 303.881Z" fill="#002755"/>
<path d="M121.567 287.178C121.567 277.464 122.231 269.113 123.561 262.123C124.891 255.134 126.73 249.271 129.077 244.532C131.424 239.794 134.24 236.062 137.526 233.338C140.812 230.495 144.41 228.362 148.322 226.941C152.233 225.401 156.38 224.394 160.761 223.92C165.142 223.446 169.679 223.209 174.373 223.209C181.336 223.209 187.946 223.802 194.205 224.986C200.464 226.171 205.94 228.955 210.634 233.338C215.406 237.602 219.161 243.999 221.899 252.528C224.715 261.057 226.124 272.607 226.124 287.178C226.124 301.748 224.715 313.298 221.899 321.827C219.161 330.357 215.406 336.813 210.634 341.196C205.94 345.46 200.464 348.185 194.205 349.37C187.946 350.554 181.336 351.146 174.373 351.146C169.679 351.146 165.142 350.909 160.761 350.436C156.38 349.962 152.233 349.014 148.322 347.593C144.41 346.053 140.812 343.92 137.526 341.196C134.24 338.353 131.424 334.562 129.077 329.824C126.73 325.085 124.891 319.221 123.561 312.232C122.231 305.243 121.567 296.892 121.567 287.178ZM161.465 287.178C161.465 294.996 162.404 300.682 164.281 304.236C166.159 307.671 169.405 309.389 174.021 309.389C178.637 309.389 181.805 307.612 183.526 304.058C185.326 300.505 186.225 294.878 186.225 287.178C186.225 279.359 185.326 273.733 183.526 270.297C181.805 266.743 178.637 264.966 174.021 264.966C169.405 264.966 166.159 266.743 164.281 270.297C162.404 273.733 161.465 279.359 161.465 287.178Z" fill="#002755"/>
<path d="M274.58 294.641C274.58 301.867 275.401 306.842 277.044 309.567C278.687 312.291 280.878 313.654 283.616 313.654H285.141C287.879 313.654 290.07 312.291 291.713 309.567C293.356 306.842 294.177 301.867 294.177 294.641V238.668C294.177 234.522 294.998 231.205 296.641 228.718C298.362 226.23 300.592 224.986 303.33 224.986H324.453C327.191 224.986 329.381 226.23 331.024 228.718C332.667 231.205 333.489 234.522 333.489 238.668V288.777C333.489 300.86 332.511 310.929 330.555 318.984C328.599 326.921 325.822 333.318 322.223 338.175C318.624 342.913 314.243 346.29 309.08 348.303C303.995 350.199 298.284 351.146 291.947 351.146H276.927C270.59 351.146 264.84 350.199 259.677 348.303C254.513 346.29 250.132 342.913 246.534 338.175C242.935 333.318 240.158 326.921 238.202 318.984C236.246 310.929 235.268 300.86 235.268 288.777V238.668C235.268 234.522 236.09 231.205 237.733 228.718C239.375 226.23 241.566 224.986 244.304 224.986H265.544C268.282 224.986 270.473 226.23 272.116 228.718C273.758 231.205 274.58 234.522 274.58 238.668V294.641Z" fill="#002755"/>
<path d="M615.14 349.37C612.48 349.37 610.329 348.126 608.686 345.638C607.043 343.15 606.222 339.833 606.222 335.687V238.668C606.222 234.522 607.043 231.205 608.686 228.718C610.329 226.23 612.48 224.986 615.14 224.986H680.738C683.476 224.986 685.667 226.23 687.309 228.718C689.031 231.087 689.891 234.285 689.891 238.313L689.774 247.908C689.774 252.054 688.952 255.371 687.309 257.859C685.667 260.228 683.476 261.413 680.738 261.413H649.993C648.663 261.413 647.528 261.709 646.59 262.301C645.729 262.775 645.299 264.197 645.299 266.566C645.299 268.224 645.651 269.646 646.355 270.83C647.059 271.896 647.959 272.43 649.054 272.43H680.386C682.42 272.43 684.063 273.614 685.315 275.983C686.566 278.234 687.192 281.255 687.192 285.046V289.132C687.192 292.923 686.527 296.003 685.197 298.372C683.946 300.623 682.263 301.748 680.151 301.748H649.054C647.959 301.748 647.059 302.222 646.355 303.17C645.651 303.999 645.299 305.184 645.299 306.724C645.299 307.435 645.377 308.145 645.534 308.856C645.69 309.567 646.003 310.278 646.472 310.988C646.942 311.581 647.646 312.054 648.585 312.41C649.523 312.765 650.814 312.943 652.457 312.943H680.738C683.476 312.943 685.667 314.187 687.309 316.674C689.031 319.044 689.891 322.301 689.891 326.447V335.865C689.891 340.011 689.031 343.328 687.309 345.816C685.667 348.185 683.476 349.37 680.738 349.37H615.14Z" fill="#002755"/>
<path d="M736.548 349.37C733.81 349.37 731.619 348.244 729.976 345.993C728.412 343.624 727.63 340.544 727.63 336.753V274.562C727.63 272.193 727.356 270.771 726.808 270.297C726.339 269.705 725.791 269.409 725.165 269.409H707.563C704.825 269.409 702.595 267.928 700.874 264.966C699.231 262.005 698.41 258.037 698.41 253.061V241.334C698.41 236.358 699.192 232.39 700.757 229.428C702.4 226.467 704.59 224.986 707.328 224.986H786.89C789.628 224.986 791.78 226.467 793.344 229.428C794.987 232.39 795.809 236.358 795.809 241.334V253.061C795.809 258.037 794.987 262.005 793.344 264.966C791.701 267.928 789.511 269.409 786.773 269.409H769.171C768.545 269.409 767.958 269.705 767.41 270.297C766.941 270.771 766.706 272.193 766.706 274.562V336.753C766.706 340.663 765.924 343.743 764.359 345.993C762.795 348.244 760.604 349.37 757.788 349.37H736.548Z" fill="#002755"/>
<path d="M596.557 334.383C596.557 339.122 595.735 342.912 594.093 345.755C592.45 348.48 590.259 349.842 587.521 349.842H566.281C563.543 349.842 561.353 348.717 559.71 346.466C558.067 344.215 557.245 341.195 557.245 337.404V288.539C557.245 281.668 556.58 276.989 555.25 274.501C553.999 271.895 552.278 270.592 550.087 270.592H548.914C546.723 270.592 544.963 271.895 543.633 274.501C542.303 276.989 541.677 281.668 541.755 288.539V337.404C541.755 341.195 540.934 344.215 539.291 346.466C537.648 348.717 535.458 349.842 532.72 349.842H515.939C513.827 349.842 512.105 348.717 510.776 346.466C509.524 344.215 508.898 341.195 508.898 337.404V288.539C508.898 281.668 508.233 276.989 506.903 274.501C505.573 271.895 503.813 270.592 501.622 270.592H500.332C498.063 270.592 496.264 271.895 494.934 274.501C493.604 276.989 492.939 281.668 492.939 288.539V337.404C492.939 341.195 492.117 344.215 490.474 346.466C488.831 348.717 486.641 349.842 483.903 349.842H462.78C460.042 349.842 457.852 348.421 456.209 345.578C454.566 342.735 453.744 339.003 453.744 334.383V257.976C453.744 253.119 454.253 248.677 455.27 244.649C456.287 240.622 457.734 237.186 459.612 234.343C461.489 231.5 463.719 229.309 466.301 227.769C468.961 226.229 471.894 225.459 475.102 225.459H498.806C502.17 225.459 507.048 224.928 511.083 227.591C513.462 229.162 514.662 230.446 516.012 232.922C517.322 235.325 517.231 237.006 517.787 239.674C518.345 242.356 518.858 246.604 518.858 246.604C518.858 246.604 519.342 250.335 520.515 251.757C521.689 253.179 523.293 253.889 525.327 253.889C527.361 253.889 528.965 253.179 530.138 251.757C531.312 250.335 531.796 246.604 531.796 246.604L532.867 239.674C532.867 239.674 533.412 235.318 534.759 232.922C536.157 230.437 537.385 229.157 539.805 227.591C543.865 224.964 548.718 225.459 552.082 225.459H575.082C578.29 225.459 581.224 226.229 583.883 227.769C586.543 229.309 588.812 231.5 590.69 234.343C592.567 237.186 594.014 240.622 595.031 244.649C596.048 248.559 596.557 252.942 596.557 257.798V334.383Z" fill="#002755"/>
<path d="M403.416 330.474C403.416 327.749 402.633 325.617 401.069 324.077C399.504 322.537 397.079 321.767 393.793 321.767H386.518C385.031 321.767 383.819 322.122 382.88 322.833C382.019 323.544 381.589 324.491 381.589 325.676V341.846C381.589 344.215 380.728 346.17 379.007 347.71C377.364 349.131 375.174 349.842 372.436 349.842H351.313C348.653 349.842 346.463 348.598 344.742 346.11C343.099 343.623 342.277 340.306 342.277 336.16V239.141C342.277 235.35 342.982 232.152 344.39 229.545C345.798 226.821 347.715 225.459 350.14 225.459H414.446C419.532 225.459 423.912 225.992 427.589 227.058C431.345 228.005 434.435 229.782 436.86 232.389C439.363 234.995 441.202 238.608 442.375 243.228C443.627 247.729 444.253 253.534 444.253 260.641C444.253 266.92 443.901 272.014 443.197 275.923C442.493 279.832 441.515 282.853 440.263 284.985C439.011 287.117 437.525 288.539 435.804 289.25C434.083 289.96 432.244 290.316 430.288 290.316C425.907 290.316 422.974 290.73 421.487 291.559C420.001 292.27 419.258 293.929 419.258 296.535C419.258 299.259 421.605 301.866 421.605 301.866L430.288 309.162C430.288 309.162 437.642 315.182 439.676 317.551C441.71 319.921 442.727 323.948 442.727 329.634V338.47C442.727 341.905 441.906 344.689 440.263 346.821C438.62 348.835 436.43 349.842 433.692 349.842H412.452C409.713 349.842 407.523 349.131 405.88 347.71C404.237 346.17 403.416 344.215 403.416 341.846V330.474ZM397.314 280.01C398.174 280.01 398.996 280.01 399.778 280.01C400.639 279.891 401.382 279.595 402.008 279.121C402.633 278.529 403.142 277.64 403.533 276.456C403.924 275.271 404.12 273.613 404.12 271.48C404.12 269.23 403.885 267.512 403.416 266.327C403.025 265.143 402.477 264.314 401.773 263.84C401.147 263.247 400.443 262.951 399.661 262.951C398.878 262.833 398.135 262.774 397.431 262.774H387.339C385.54 262.774 384.132 263.307 383.115 264.373C382.098 265.32 381.589 266.92 381.589 269.17V272.724C381.589 274.975 382.098 276.752 383.115 278.055C384.132 279.358 385.54 280.01 387.339 280.01H397.314Z" fill="#002755"/>
<path d="M73.0998 303.881C73.0998 302.341 72.9042 301.334 72.513 300.86C72.1219 300.386 71.3787 300.149 70.2834 300.149C69.1882 300.149 67.9756 299.616 66.6456 298.55C65.3939 297.484 64.7681 296.122 64.7681 294.463V287.533C64.7681 285.164 65.3939 283.683 66.6456 283.091C67.9756 282.38 69.1882 282.025 70.2834 282.025H105.136C107.874 282.025 110.064 283.091 111.707 285.223C113.35 287.355 114.172 290.495 114.172 294.641V307.79C114.172 317.741 112.685 325.618 109.712 331.423C106.818 337.109 102.945 341.433 98.0949 344.394C93.3228 347.356 87.8465 349.192 81.6662 349.903C75.4859 350.732 69.1882 351.146 62.7732 351.146C58.0792 351.146 53.5418 350.909 49.1608 350.436C44.7798 349.962 40.6335 349.014 36.7219 347.593C32.8103 346.053 29.2116 343.92 25.9259 341.196C22.6402 338.353 19.8238 334.562 17.4768 329.824C15.1299 325.085 13.2914 319.221 11.9615 312.232C10.6315 305.243 9.96657 296.892 9.96657 287.178C9.96657 277.464 10.6315 269.113 11.9615 262.123C13.2914 255.134 15.1299 249.271 17.4768 244.532C19.8238 239.794 22.6402 236.003 25.9259 233.16C29.2116 230.317 32.8103 228.185 36.7219 226.763C40.6335 225.342 44.7798 224.394 49.1608 223.92C53.5418 223.446 58.0792 223.209 62.7732 223.209C69.1882 223.209 75.4859 223.505 81.6662 224.098C87.8465 224.572 93.3228 225.993 98.0949 228.362C102.945 230.613 106.818 234.108 109.712 238.846C112.685 243.584 114.172 250.159 114.172 258.57C114.172 264.967 113.194 269.172 111.238 271.186C109.36 273.081 106.7 274.029 103.258 274.029H83.6611C81.7053 274.029 80.1016 273.555 78.8498 272.607C77.5981 271.659 76.2682 270.653 74.86 269.586C73.5301 268.402 71.9263 267.336 70.0487 266.388C68.1712 265.44 65.6286 264.966 62.4211 264.966C57.8054 264.966 54.5588 266.743 52.6812 270.297C50.8037 273.733 49.8649 279.359 49.8649 287.178C49.8649 294.996 50.8037 300.682 52.6812 304.236C54.5588 307.671 57.8054 309.389 62.4211 309.389C66.3327 309.389 69.0709 309.034 70.6355 308.323C72.2784 307.494 73.0998 306.013 73.0998 303.881Z" stroke="#002755" stroke-width="4" mask="url(#path-1-outside-1_2_4435)"/>
<path d="M121.567 287.178C121.567 277.464 122.231 269.113 123.561 262.123C124.891 255.134 126.73 249.271 129.077 244.532C131.424 239.794 134.24 236.062 137.526 233.338C140.812 230.495 144.41 228.362 148.322 226.941C152.233 225.401 156.38 224.394 160.761 223.92C165.142 223.446 169.679 223.209 174.373 223.209C181.336 223.209 187.946 223.802 194.205 224.986C200.464 226.171 205.94 228.955 210.634 233.338C215.406 237.602 219.161 243.999 221.899 252.528C224.715 261.057 226.124 272.607 226.124 287.178C226.124 301.748 224.715 313.298 221.899 321.827C219.161 330.357 215.406 336.813 210.634 341.196C205.94 345.46 200.464 348.185 194.205 349.37C187.946 350.554 181.336 351.146 174.373 351.146C169.679 351.146 165.142 350.909 160.761 350.436C156.38 349.962 152.233 349.014 148.322 347.593C144.41 346.053 140.812 343.92 137.526 341.196C134.24 338.353 131.424 334.562 129.077 329.824C126.73 325.085 124.891 319.221 123.561 312.232C122.231 305.243 121.567 296.892 121.567 287.178ZM161.465 287.178C161.465 294.996 162.404 300.682 164.281 304.236C166.159 307.671 169.405 309.389 174.021 309.389C178.637 309.389 181.805 307.612 183.526 304.058C185.326 300.505 186.225 294.878 186.225 287.178C186.225 279.359 185.326 273.733 183.526 270.297C181.805 266.743 178.637 264.966 174.021 264.966C169.405 264.966 166.159 266.743 164.281 270.297C162.404 273.733 161.465 279.359 161.465 287.178Z" stroke="#002755" stroke-width="4" mask="url(#path-1-outside-1_2_4435)"/>
<path d="M274.58 294.641C274.58 301.867 275.401 306.842 277.044 309.567C278.687 312.291 280.878 313.654 283.616 313.654H285.141C287.879 313.654 290.07 312.291 291.713 309.567C293.356 306.842 294.177 301.867 294.177 294.641V238.668C294.177 234.522 294.998 231.205 296.641 228.718C298.362 226.23 300.592 224.986 303.33 224.986H324.453C327.191 224.986 329.381 226.23 331.024 228.718C332.667 231.205 333.489 234.522 333.489 238.668V288.777C333.489 300.86 332.511 310.929 330.555 318.984C328.599 326.921 325.822 333.318 322.223 338.175C318.624 342.913 314.243 346.29 309.08 348.303C303.995 350.199 298.284 351.146 291.947 351.146H276.927C270.59 351.146 264.84 350.199 259.677 348.303C254.513 346.29 250.132 342.913 246.534 338.175C242.935 333.318 240.158 326.921 238.202 318.984C236.246 310.929 235.268 300.86 235.268 288.777V238.668C235.268 234.522 236.09 231.205 237.733 228.718C239.375 226.23 241.566 224.986 244.304 224.986H265.544C268.282 224.986 270.473 226.23 272.116 228.718C273.758 231.205 274.58 234.522 274.58 238.668V294.641Z" stroke="#002755" stroke-width="4" mask="url(#path-1-outside-1_2_4435)"/>
<path d="M615.14 349.37C612.48 349.37 610.329 348.126 608.686 345.638C607.043 343.15 606.222 339.833 606.222 335.687V238.668C606.222 234.522 607.043 231.205 608.686 228.718C610.329 226.23 612.48 224.986 615.14 224.986H680.738C683.476 224.986 685.667 226.23 687.309 228.718C689.031 231.087 689.891 234.285 689.891 238.313L689.774 247.908C689.774 252.054 688.952 255.371 687.309 257.859C685.667 260.228 683.476 261.413 680.738 261.413H649.993C648.663 261.413 647.528 261.709 646.59 262.301C645.729 262.775 645.299 264.197 645.299 266.566C645.299 268.224 645.651 269.646 646.355 270.83C647.059 271.896 647.959 272.43 649.054 272.43H680.386C682.42 272.43 684.063 273.614 685.315 275.983C686.566 278.234 687.192 281.255 687.192 285.046V289.132C687.192 292.923 686.527 296.003 685.197 298.372C683.946 300.623 682.263 301.748 680.151 301.748H649.054C647.959 301.748 647.059 302.222 646.355 303.17C645.651 303.999 645.299 305.184 645.299 306.724C645.299 307.435 645.377 308.145 645.534 308.856C645.69 309.567 646.003 310.278 646.472 310.988C646.942 311.581 647.646 312.054 648.585 312.41C649.523 312.765 650.814 312.943 652.457 312.943H680.738C683.476 312.943 685.667 314.187 687.309 316.674C689.031 319.044 689.891 322.301 689.891 326.447V335.865C689.891 340.011 689.031 343.328 687.309 345.816C685.667 348.185 683.476 349.37 680.738 349.37H615.14Z" stroke="#002755" stroke-width="4" mask="url(#path-1-outside-1_2_4435)"/>
<path d="M736.548 349.37C733.81 349.37 731.619 348.244 729.976 345.993C728.412 343.624 727.63 340.544 727.63 336.753V274.562C727.63 272.193 727.356 270.771 726.808 270.297C726.339 269.705 725.791 269.409 725.165 269.409H707.563C704.825 269.409 702.595 267.928 700.874 264.966C699.231 262.005 698.41 258.037 698.41 253.061V241.334C698.41 236.358 699.192 232.39 700.757 229.428C702.4 226.467 704.59 224.986 707.328 224.986H786.89C789.628 224.986 791.78 226.467 793.344 229.428C794.987 232.39 795.809 236.358 795.809 241.334V253.061C795.809 258.037 794.987 262.005 793.344 264.966C791.701 267.928 789.511 269.409 786.773 269.409H769.171C768.545 269.409 767.958 269.705 767.41 270.297C766.941 270.771 766.706 272.193 766.706 274.562V336.753C766.706 340.663 765.924 343.743 764.359 345.993C762.795 348.244 760.604 349.37 757.788 349.37H736.548Z" stroke="#002755" stroke-width="4" mask="url(#path-1-outside-1_2_4435)"/>
<path d="M596.557 334.383C596.557 339.122 595.735 342.912 594.093 345.755C592.45 348.48 590.259 349.842 587.521 349.842H566.281C563.543 349.842 561.353 348.717 559.71 346.466C558.067 344.215 557.245 341.195 557.245 337.404V288.539C557.245 281.668 556.58 276.989 555.25 274.501C553.999 271.895 552.278 270.592 550.087 270.592H548.914C546.723 270.592 544.963 271.895 543.633 274.501C542.303 276.989 541.677 281.668 541.755 288.539V337.404C541.755 341.195 540.934 344.215 539.291 346.466C537.648 348.717 535.458 349.842 532.72 349.842H515.939C513.827 349.842 512.105 348.717 510.776 346.466C509.524 344.215 508.898 341.195 508.898 337.404V288.539C508.898 281.668 508.233 276.989 506.903 274.501C505.573 271.895 503.813 270.592 501.622 270.592H500.332C498.063 270.592 496.264 271.895 494.934 274.501C493.604 276.989 492.939 281.668 492.939 288.539V337.404C492.939 341.195 492.117 344.215 490.474 346.466C488.831 348.717 486.641 349.842 483.903 349.842H462.78C460.042 349.842 457.852 348.421 456.209 345.578C454.566 342.735 453.744 339.003 453.744 334.383V257.976C453.744 253.119 454.253 248.677 455.27 244.649C456.287 240.622 457.734 237.186 459.612 234.343C461.489 231.5 463.719 229.309 466.301 227.769C468.961 226.229 471.894 225.459 475.102 225.459H498.806C502.17 225.459 507.048 224.928 511.083 227.591C513.462 229.162 514.662 230.446 516.012 232.922C517.322 235.325 517.231 237.006 517.787 239.674C518.345 242.356 518.858 246.604 518.858 246.604C518.858 246.604 519.342 250.335 520.515 251.757C521.689 253.179 523.293 253.889 525.327 253.889C527.361 253.889 528.965 253.179 530.138 251.757C531.312 250.335 531.796 246.604 531.796 246.604L532.867 239.674C532.867 239.674 533.412 235.318 534.759 232.922C536.157 230.437 537.385 229.157 539.805 227.591C543.865 224.964 548.718 225.459 552.082 225.459H575.082C578.29 225.459 581.224 226.229 583.883 227.769C586.543 229.309 588.812 231.5 590.69 234.343C592.567 237.186 594.014 240.622 595.031 244.649C596.048 248.559 596.557 252.942 596.557 257.798V334.383Z" stroke="#002755" stroke-width="4" mask="url(#path-1-outside-1_2_4435)"/>
<path d="M403.416 330.474C403.416 327.749 402.633 325.617 401.069 324.077C399.504 322.537 397.079 321.767 393.793 321.767H386.518C385.031 321.767 383.819 322.122 382.88 322.833C382.019 323.544 381.589 324.491 381.589 325.676V341.846C381.589 344.215 380.728 346.17 379.007 347.71C377.364 349.131 375.174 349.842 372.436 349.842H351.313C348.653 349.842 346.463 348.598 344.742 346.11C343.099 343.623 342.277 340.306 342.277 336.16V239.141C342.277 235.35 342.982 232.152 344.39 229.545C345.798 226.821 347.715 225.459 350.14 225.459H414.446C419.532 225.459 423.912 225.992 427.589 227.058C431.345 228.005 434.435 229.782 436.86 232.389C439.363 234.995 441.202 238.608 442.375 243.228C443.627 247.729 444.253 253.534 444.253 260.641C444.253 266.92 443.901 272.014 443.197 275.923C442.493 279.832 441.515 282.853 440.263 284.985C439.011 287.117 437.525 288.539 435.804 289.25C434.083 289.96 432.244 290.316 430.288 290.316C425.907 290.316 422.974 290.73 421.487 291.559C420.001 292.27 419.258 293.929 419.258 296.535C419.258 299.259 421.605 301.866 421.605 301.866L430.288 309.162C430.288 309.162 437.642 315.182 439.676 317.551C441.71 319.921 442.727 323.948 442.727 329.634V338.47C442.727 341.905 441.906 344.689 440.263 346.821C438.62 348.835 436.43 349.842 433.692 349.842H412.452C409.713 349.842 407.523 349.131 405.88 347.71C404.237 346.17 403.416 344.215 403.416 341.846V330.474ZM397.314 280.01C398.174 280.01 398.996 280.01 399.778 280.01C400.639 279.891 401.382 279.595 402.008 279.121C402.633 278.529 403.142 277.64 403.533 276.456C403.924 275.271 404.12 273.613 404.12 271.48C404.12 269.23 403.885 267.512 403.416 266.327C403.025 265.143 402.477 264.314 401.773 263.84C401.147 263.247 400.443 262.951 399.661 262.951C398.878 262.833 398.135 262.774 397.431 262.774H387.339C385.54 262.774 384.132 263.307 383.115 264.373C382.098 265.32 381.589 266.92 381.589 269.17V272.724C381.589 274.975 382.098 276.752 383.115 278.055C384.132 279.358 385.54 280.01 387.339 280.01H397.314Z" stroke="#002755" stroke-width="4" mask="url(#path-1-outside-1_2_4435)"/>
<mask id="path-2-outside-2_2_4435" maskUnits="userSpaceOnUse" x="1" y="214.404" width="790" height="132" fill="black">
<rect fill="white" x="1" y="214.404" width="790" height="132"/>
<path d="M66.1332 297.076C66.1332 295.536 65.9376 294.529 65.5465 294.055C65.1553 293.581 64.4121 293.344 63.3169 293.344C62.2216 293.344 61.009 292.811 59.6791 291.745C58.4274 290.679 57.8015 289.316 57.8015 287.658V280.728C57.8015 278.359 58.4274 276.878 59.6791 276.286C61.009 275.575 62.2216 275.22 63.3169 275.22H98.1692C100.907 275.22 103.098 276.286 104.741 278.418C106.384 280.55 107.205 283.69 107.205 287.836V300.985C107.205 310.935 105.719 318.813 102.746 324.618C99.8512 330.304 95.9787 334.628 91.1283 337.589C86.3562 340.551 80.88 342.387 74.6996 343.097C68.5193 343.927 62.2216 344.341 55.8066 344.341C51.1127 344.341 46.5752 344.104 42.1942 343.63C37.8132 343.157 33.6669 342.209 29.7553 340.787C25.8437 339.247 22.2451 337.115 18.9593 334.391C15.6736 331.548 12.8572 327.757 10.5103 323.018C8.16331 318.28 6.32486 312.416 4.99492 305.427C3.66497 298.438 3 290.086 3 280.373C3 270.659 3.66497 262.307 4.99492 255.318C6.32486 248.329 8.16331 242.465 10.5103 237.727C12.8572 232.988 15.6736 229.198 18.9593 226.355C22.2451 223.512 25.8437 221.379 29.7553 219.958C33.6669 218.536 37.8132 217.589 42.1942 217.115C46.5752 216.641 51.1127 216.404 55.8066 216.404C62.2216 216.404 68.5193 216.7 74.6996 217.292C80.88 217.766 86.3562 219.188 91.1283 221.557C95.9787 223.808 99.8512 227.302 102.746 232.041C105.719 236.779 107.205 243.354 107.205 251.764C107.205 258.161 106.227 262.367 104.271 264.38C102.394 266.276 99.7339 267.224 96.2917 267.224H76.6945C74.7387 267.224 73.135 266.75 71.8833 265.802C70.6316 264.854 69.3016 263.847 67.8934 262.781C66.5635 261.597 64.9597 260.531 63.0822 259.583C61.2046 258.635 58.6621 258.161 55.4546 258.161C50.8389 258.161 47.5922 259.938 45.7147 263.492C43.8371 266.927 42.8983 272.554 42.8983 280.373C42.8983 288.191 43.8371 293.877 45.7147 297.431C47.5922 300.866 50.8389 302.584 55.4546 302.584C59.3661 302.584 62.1043 302.229 63.6689 301.518C65.3118 300.689 66.1332 299.208 66.1332 297.076Z"/>
<path d="M114.6 280.373C114.6 270.659 115.265 262.307 116.595 255.318C117.925 248.329 119.763 242.465 122.11 237.727C124.457 232.988 127.274 229.257 130.559 226.532C133.845 223.689 137.444 221.557 141.355 220.136C145.267 218.596 149.413 217.589 153.794 217.115C158.175 216.641 162.713 216.404 167.407 216.404C174.369 216.404 180.98 216.996 187.238 218.181C193.497 219.366 198.973 222.149 203.667 226.532C208.439 230.797 212.194 237.194 214.932 245.723C217.749 254.252 219.157 265.802 219.157 280.373C219.157 294.943 217.749 306.493 214.932 315.022C212.194 323.551 208.439 330.008 203.667 334.391C198.973 338.655 193.497 341.38 187.238 342.564C180.98 343.749 174.369 344.341 167.407 344.341C162.713 344.341 158.175 344.104 153.794 343.63C149.413 343.157 145.267 342.209 141.355 340.787C137.444 339.247 133.845 337.115 130.559 334.391C127.274 331.548 124.457 327.757 122.11 323.018C119.763 318.28 117.925 312.416 116.595 305.427C115.265 298.438 114.6 290.086 114.6 280.373ZM154.498 280.373C154.498 288.191 155.437 293.877 157.315 297.431C159.192 300.866 162.439 302.584 167.054 302.584C171.67 302.584 174.839 300.807 176.56 297.253C178.359 293.699 179.259 288.073 179.259 280.373C179.259 272.554 178.359 266.927 176.56 263.492C174.839 259.938 171.67 258.161 167.054 258.161C162.439 258.161 159.192 259.938 157.315 263.492C155.437 266.927 154.498 272.554 154.498 280.373Z"/>
<path d="M267.613 287.836C267.613 295.062 268.435 300.037 270.078 302.762C271.72 305.486 273.911 306.849 276.649 306.849H278.175C280.913 306.849 283.103 305.486 284.746 302.762C286.389 300.037 287.21 295.062 287.21 287.836V231.863C287.21 227.717 288.032 224.4 289.675 221.912C291.396 219.425 293.625 218.181 296.364 218.181H317.486C320.224 218.181 322.415 219.425 324.058 221.912C325.701 224.4 326.522 227.717 326.522 231.863V281.972C326.522 294.055 325.544 304.124 323.588 312.179C321.633 320.116 318.855 326.513 315.257 331.37C311.658 336.108 307.277 339.484 302.114 341.498C297.029 343.394 291.318 344.341 284.981 344.341H269.96C263.623 344.341 257.873 343.394 252.71 341.498C247.547 339.484 243.166 336.108 239.567 331.37C235.968 326.513 233.191 320.116 231.235 312.179C229.28 304.124 228.302 294.055 228.302 281.972V231.863C228.302 227.717 229.123 224.4 230.766 221.912C232.409 219.425 234.599 218.181 237.338 218.181H258.578C261.316 218.181 263.506 219.425 265.149 221.912C266.792 224.4 267.613 227.717 267.613 231.863V287.836Z"/>
<path d="M608.174 342.564C605.514 342.564 603.363 341.32 601.72 338.833C600.077 336.345 599.255 333.028 599.255 328.882V231.863C599.255 227.717 600.077 224.4 601.72 221.912C603.363 219.425 605.514 218.181 608.174 218.181H673.771C676.51 218.181 678.7 219.425 680.343 221.912C682.064 224.282 682.925 227.48 682.925 231.508L682.807 241.103C682.807 245.249 681.986 248.566 680.343 251.054C678.7 253.423 676.51 254.608 673.771 254.608H643.026C641.696 254.608 640.562 254.904 639.623 255.496C638.763 255.97 638.332 257.391 638.332 259.761C638.332 261.419 638.684 262.84 639.389 264.025C640.093 265.091 640.992 265.624 642.088 265.624H673.419C675.453 265.624 677.096 266.809 678.348 269.178C679.6 271.429 680.226 274.45 680.226 278.24V282.327C680.226 286.118 679.561 289.198 678.231 291.567C676.979 293.818 675.297 294.943 673.185 294.943H642.088C640.992 294.943 640.093 295.417 639.389 296.365C638.684 297.194 638.332 298.379 638.332 299.919C638.332 300.629 638.411 301.34 638.567 302.051C638.724 302.762 639.036 303.472 639.506 304.183C639.975 304.775 640.679 305.249 641.618 305.605C642.557 305.96 643.848 306.138 645.491 306.138H673.771C676.51 306.138 678.7 307.382 680.343 309.869C682.064 312.238 682.925 315.496 682.925 319.642V329.06C682.925 333.206 682.064 336.523 680.343 339.011C678.7 341.38 676.51 342.564 673.771 342.564H608.174Z"/>
<path d="M729.581 342.564C726.843 342.564 724.653 341.439 723.01 339.188C721.445 336.819 720.663 333.739 720.663 329.948V267.757C720.663 265.387 720.389 263.966 719.841 263.492C719.372 262.9 718.824 262.604 718.199 262.604H700.596C697.858 262.604 695.629 261.123 693.908 258.161C692.265 255.2 691.443 251.231 691.443 246.256V234.528C691.443 229.553 692.226 225.585 693.79 222.623C695.433 219.662 697.624 218.181 700.362 218.181H779.924C782.662 218.181 784.813 219.662 786.378 222.623C788.021 225.585 788.842 229.553 788.842 234.528V246.256C788.842 251.231 788.021 255.2 786.378 258.161C784.735 261.123 782.544 262.604 779.806 262.604H762.204C761.578 262.604 760.992 262.9 760.444 263.492C759.974 263.966 759.74 265.387 759.74 267.757V329.948C759.74 333.857 758.958 336.937 757.393 339.188C755.828 341.439 753.638 342.564 750.821 342.564H729.581Z"/>
<path d="M589.59 327.578C589.59 332.316 588.769 336.107 587.126 338.95C585.483 341.675 583.293 343.037 580.555 343.037H559.315C556.576 343.037 554.386 341.912 552.743 339.661C551.1 337.41 550.279 334.389 550.279 330.599V281.734C550.279 274.863 549.614 270.184 548.284 267.696C547.032 265.09 545.311 263.787 543.121 263.787H541.947C539.757 263.787 537.996 265.09 536.667 267.696C535.337 270.184 534.711 274.863 534.789 281.734V330.599C534.789 334.389 533.967 337.41 532.325 339.661C530.682 341.912 528.491 343.037 525.753 343.037H508.972C506.86 343.037 505.139 341.912 503.809 339.661C502.557 337.41 501.931 334.389 501.931 330.599V281.734C501.931 274.863 501.267 270.184 499.937 267.696C498.607 265.09 496.846 263.787 494.656 263.787H493.365C491.096 263.787 489.297 265.09 487.967 267.696C486.637 270.184 485.972 274.863 485.972 281.734V330.599C485.972 334.389 485.151 337.41 483.508 339.661C481.865 341.912 479.674 343.037 476.936 343.037H455.814C453.076 343.037 450.885 341.615 449.242 338.772C447.599 335.929 446.778 332.198 446.778 327.578V251.171C446.778 246.314 447.286 241.872 448.303 237.844C449.32 233.817 450.768 230.381 452.645 227.538C454.523 224.695 456.752 222.504 459.334 220.964C461.994 219.424 464.928 218.654 468.135 218.654H491.839C495.203 218.654 500.082 218.122 504.117 220.786C506.496 222.357 507.695 223.641 509.045 226.117C510.355 228.52 510.264 230.201 510.82 232.869C511.379 235.551 511.891 239.799 511.891 239.799C511.891 239.799 512.375 243.53 513.549 244.952C514.722 246.373 516.326 247.084 518.36 247.084C520.394 247.084 521.998 246.373 523.172 244.952C524.345 243.53 524.829 239.799 524.829 239.799L525.9 232.869C525.9 232.869 526.445 228.513 527.793 226.117C529.19 223.632 530.419 222.352 532.839 220.786C536.898 218.159 541.752 218.654 545.115 218.654H568.116C571.323 218.654 574.257 219.424 576.917 220.964C579.577 222.504 581.845 224.695 583.723 227.538C585.601 230.381 587.048 233.817 588.065 237.844C589.082 241.753 589.59 246.136 589.59 250.993V327.578Z"/>
<path d="M396.449 323.669C396.449 320.944 395.667 318.812 394.102 317.272C392.538 315.732 390.112 314.962 386.827 314.962H379.551C378.065 314.962 376.852 315.317 375.913 316.028C375.053 316.739 374.622 317.686 374.622 318.871V335.041C374.622 337.41 373.762 339.365 372.041 340.905C370.398 342.326 368.207 343.037 365.469 343.037H344.347C341.687 343.037 339.496 341.793 337.775 339.305C336.132 336.818 335.311 333.501 335.311 329.355V232.336C335.311 228.545 336.015 225.346 337.423 222.74C338.831 220.016 340.748 218.653 343.173 218.653H407.48C412.565 218.653 416.946 219.186 420.623 220.253C424.378 221.2 427.468 222.977 429.893 225.583C432.397 228.189 434.235 231.803 435.409 236.422C436.66 240.924 437.286 246.729 437.286 253.836C437.286 260.115 436.934 265.208 436.23 269.118C435.526 273.027 434.548 276.047 433.297 278.18C432.045 280.312 430.558 281.734 428.837 282.444C427.116 283.155 425.278 283.51 423.322 283.51C418.941 283.51 416.007 283.925 414.521 284.754C413.034 285.465 412.291 287.123 412.291 289.73C412.291 292.454 414.638 295.06 414.638 295.06L423.322 302.357C423.322 302.357 430.676 308.377 432.71 310.746C434.744 313.115 435.761 317.143 435.761 322.829V331.665C435.761 335.1 434.939 337.884 433.297 340.016C431.654 342.03 429.463 343.037 426.725 343.037H405.485C402.747 343.037 400.556 342.326 398.914 340.905C397.271 339.365 396.449 337.41 396.449 335.041V323.669ZM390.347 273.204C391.208 273.204 392.029 273.204 392.811 273.204C393.672 273.086 394.415 272.79 395.041 272.316C395.667 271.724 396.175 270.835 396.567 269.651C396.958 268.466 397.153 266.808 397.153 264.675C397.153 262.425 396.919 260.707 396.449 259.522C396.058 258.338 395.51 257.508 394.806 257.035C394.18 256.442 393.476 256.146 392.694 256.146C391.912 256.028 391.169 255.968 390.464 255.968H380.372C378.573 255.968 377.165 256.501 376.148 257.568C375.131 258.515 374.622 260.115 374.622 262.365V265.919C374.622 268.17 375.131 269.947 376.148 271.25C377.165 272.553 378.573 273.204 380.372 273.204H390.347Z"/>
</mask>
<path d="M66.1332 297.076C66.1332 295.536 65.9376 294.529 65.5465 294.055C65.1553 293.581 64.4121 293.344 63.3169 293.344C62.2216 293.344 61.009 292.811 59.6791 291.745C58.4274 290.679 57.8015 289.316 57.8015 287.658V280.728C57.8015 278.359 58.4274 276.878 59.6791 276.286C61.009 275.575 62.2216 275.22 63.3169 275.22H98.1692C100.907 275.22 103.098 276.286 104.741 278.418C106.384 280.55 107.205 283.69 107.205 287.836V300.985C107.205 310.935 105.719 318.813 102.746 324.618C99.8512 330.304 95.9787 334.628 91.1283 337.589C86.3562 340.551 80.88 342.387 74.6996 343.097C68.5193 343.927 62.2216 344.341 55.8066 344.341C51.1127 344.341 46.5752 344.104 42.1942 343.63C37.8132 343.157 33.6669 342.209 29.7553 340.787C25.8437 339.247 22.2451 337.115 18.9593 334.391C15.6736 331.548 12.8572 327.757 10.5103 323.018C8.16331 318.28 6.32486 312.416 4.99492 305.427C3.66497 298.438 3 290.086 3 280.373C3 270.659 3.66497 262.307 4.99492 255.318C6.32486 248.329 8.16331 242.465 10.5103 237.727C12.8572 232.988 15.6736 229.198 18.9593 226.355C22.2451 223.512 25.8437 221.379 29.7553 219.958C33.6669 218.536 37.8132 217.589 42.1942 217.115C46.5752 216.641 51.1127 216.404 55.8066 216.404C62.2216 216.404 68.5193 216.7 74.6996 217.292C80.88 217.766 86.3562 219.188 91.1283 221.557C95.9787 223.808 99.8512 227.302 102.746 232.041C105.719 236.779 107.205 243.354 107.205 251.764C107.205 258.161 106.227 262.367 104.271 264.38C102.394 266.276 99.7339 267.224 96.2917 267.224H76.6945C74.7387 267.224 73.135 266.75 71.8833 265.802C70.6316 264.854 69.3016 263.847 67.8934 262.781C66.5635 261.597 64.9597 260.531 63.0822 259.583C61.2046 258.635 58.6621 258.161 55.4546 258.161C50.8389 258.161 47.5922 259.938 45.7147 263.492C43.8371 266.927 42.8983 272.554 42.8983 280.373C42.8983 288.191 43.8371 293.877 45.7147 297.431C47.5922 300.866 50.8389 302.584 55.4546 302.584C59.3661 302.584 62.1043 302.229 63.6689 301.518C65.3118 300.689 66.1332 299.208 66.1332 297.076Z" fill="white"/>
<path d="M114.6 280.373C114.6 270.659 115.265 262.307 116.595 255.318C117.925 248.329 119.763 242.465 122.11 237.727C124.457 232.988 127.274 229.257 130.559 226.532C133.845 223.689 137.444 221.557 141.355 220.136C145.267 218.596 149.413 217.589 153.794 217.115C158.175 216.641 162.713 216.404 167.407 216.404C174.369 216.404 180.98 216.996 187.238 218.181C193.497 219.366 198.973 222.149 203.667 226.532C208.439 230.797 212.194 237.194 214.932 245.723C217.749 254.252 219.157 265.802 219.157 280.373C219.157 294.943 217.749 306.493 214.932 315.022C212.194 323.551 208.439 330.008 203.667 334.391C198.973 338.655 193.497 341.38 187.238 342.564C180.98 343.749 174.369 344.341 167.407 344.341C162.713 344.341 158.175 344.104 153.794 343.63C149.413 343.157 145.267 342.209 141.355 340.787C137.444 339.247 133.845 337.115 130.559 334.391C127.274 331.548 124.457 327.757 122.11 323.018C119.763 318.28 117.925 312.416 116.595 305.427C115.265 298.438 114.6 290.086 114.6 280.373ZM154.498 280.373C154.498 288.191 155.437 293.877 157.315 297.431C159.192 300.866 162.439 302.584 167.054 302.584C171.67 302.584 174.839 300.807 176.56 297.253C178.359 293.699 179.259 288.073 179.259 280.373C179.259 272.554 178.359 266.927 176.56 263.492C174.839 259.938 171.67 258.161 167.054 258.161C162.439 258.161 159.192 259.938 157.315 263.492C155.437 266.927 154.498 272.554 154.498 280.373Z" fill="white"/>
<path d="M267.613 287.836C267.613 295.062 268.435 300.037 270.078 302.762C271.72 305.486 273.911 306.849 276.649 306.849H278.175C280.913 306.849 283.103 305.486 284.746 302.762C286.389 300.037 287.21 295.062 287.21 287.836V231.863C287.21 227.717 288.032 224.4 289.675 221.912C291.396 219.425 293.625 218.181 296.364 218.181H317.486C320.224 218.181 322.415 219.425 324.058 221.912C325.701 224.4 326.522 227.717 326.522 231.863V281.972C326.522 294.055 325.544 304.124 323.588 312.179C321.633 320.116 318.855 326.513 315.257 331.37C311.658 336.108 307.277 339.484 302.114 341.498C297.029 343.394 291.318 344.341 284.981 344.341H269.96C263.623 344.341 257.873 343.394 252.71 341.498C247.547 339.484 243.166 336.108 239.567 331.37C235.968 326.513 233.191 320.116 231.235 312.179C229.28 304.124 228.302 294.055 228.302 281.972V231.863C228.302 227.717 229.123 224.4 230.766 221.912C232.409 219.425 234.599 218.181 237.338 218.181H258.578C261.316 218.181 263.506 219.425 265.149 221.912C266.792 224.4 267.613 227.717 267.613 231.863V287.836Z" fill="white"/>
<path d="M608.174 342.564C605.514 342.564 603.363 341.32 601.72 338.833C600.077 336.345 599.255 333.028 599.255 328.882V231.863C599.255 227.717 600.077 224.4 601.72 221.912C603.363 219.425 605.514 218.181 608.174 218.181H673.771C676.51 218.181 678.7 219.425 680.343 221.912C682.064 224.282 682.925 227.48 682.925 231.508L682.807 241.103C682.807 245.249 681.986 248.566 680.343 251.054C678.7 253.423 676.51 254.608 673.771 254.608H643.026C641.696 254.608 640.562 254.904 639.623 255.496C638.763 255.97 638.332 257.391 638.332 259.761C638.332 261.419 638.684 262.84 639.389 264.025C640.093 265.091 640.992 265.624 642.088 265.624H673.419C675.453 265.624 677.096 266.809 678.348 269.178C679.6 271.429 680.226 274.45 680.226 278.24V282.327C680.226 286.118 679.561 289.198 678.231 291.567C676.979 293.818 675.297 294.943 673.185 294.943H642.088C640.992 294.943 640.093 295.417 639.389 296.365C638.684 297.194 638.332 298.379 638.332 299.919C638.332 300.629 638.411 301.34 638.567 302.051C638.724 302.762 639.036 303.472 639.506 304.183C639.975 304.775 640.679 305.249 641.618 305.605C642.557 305.96 643.848 306.138 645.491 306.138H673.771C676.51 306.138 678.7 307.382 680.343 309.869C682.064 312.238 682.925 315.496 682.925 319.642V329.06C682.925 333.206 682.064 336.523 680.343 339.011C678.7 341.38 676.51 342.564 673.771 342.564H608.174Z" fill="white"/>
<path d="M729.581 342.564C726.843 342.564 724.653 341.439 723.01 339.188C721.445 336.819 720.663 333.739 720.663 329.948V267.757C720.663 265.387 720.389 263.966 719.841 263.492C719.372 262.9 718.824 262.604 718.199 262.604H700.596C697.858 262.604 695.629 261.123 693.908 258.161C692.265 255.2 691.443 251.231 691.443 246.256V234.528C691.443 229.553 692.226 225.585 693.79 222.623C695.433 219.662 697.624 218.181 700.362 218.181H779.924C782.662 218.181 784.813 219.662 786.378 222.623C788.021 225.585 788.842 229.553 788.842 234.528V246.256C788.842 251.231 788.021 255.2 786.378 258.161C784.735 261.123 782.544 262.604 779.806 262.604H762.204C761.578 262.604 760.992 262.9 760.444 263.492C759.974 263.966 759.74 265.387 759.74 267.757V329.948C759.74 333.857 758.958 336.937 757.393 339.188C755.828 341.439 753.638 342.564 750.821 342.564H729.581Z" fill="white"/>
<path d="M589.59 327.578C589.59 332.316 588.769 336.107 587.126 338.95C585.483 341.675 583.293 343.037 580.555 343.037H559.315C556.576 343.037 554.386 341.912 552.743 339.661C551.1 337.41 550.279 334.389 550.279 330.599V281.734C550.279 274.863 549.614 270.184 548.284 267.696C547.032 265.09 545.311 263.787 543.121 263.787H541.947C539.757 263.787 537.996 265.09 536.667 267.696C535.337 270.184 534.711 274.863 534.789 281.734V330.599C534.789 334.389 533.967 337.41 532.325 339.661C530.682 341.912 528.491 343.037 525.753 343.037H508.972C506.86 343.037 505.139 341.912 503.809 339.661C502.557 337.41 501.931 334.389 501.931 330.599V281.734C501.931 274.863 501.267 270.184 499.937 267.696C498.607 265.09 496.846 263.787 494.656 263.787H493.365C491.096 263.787 489.297 265.09 487.967 267.696C486.637 270.184 485.972 274.863 485.972 281.734V330.599C485.972 334.389 485.151 337.41 483.508 339.661C481.865 341.912 479.674 343.037 476.936 343.037H455.814C453.076 343.037 450.885 341.615 449.242 338.772C447.599 335.929 446.778 332.198 446.778 327.578V251.171C446.778 246.314 447.286 241.872 448.303 237.844C449.32 233.817 450.768 230.381 452.645 227.538C454.523 224.695 456.752 222.504 459.334 220.964C461.994 219.424 464.928 218.654 468.135 218.654H491.839C495.203 218.654 500.082 218.122 504.117 220.786C506.496 222.357 507.695 223.641 509.045 226.117C510.355 228.52 510.264 230.201 510.82 232.869C511.379 235.551 511.891 239.799 511.891 239.799C511.891 239.799 512.375 243.53 513.549 244.952C514.722 246.373 516.326 247.084 518.36 247.084C520.394 247.084 521.998 246.373 523.172 244.952C524.345 243.53 524.829 239.799 524.829 239.799L525.9 232.869C525.9 232.869 526.445 228.513 527.793 226.117C529.19 223.632 530.419 222.352 532.839 220.786C536.898 218.159 541.752 218.654 545.115 218.654H568.116C571.323 218.654 574.257 219.424 576.917 220.964C579.577 222.504 581.845 224.695 583.723 227.538C585.601 230.381 587.048 233.817 588.065 237.844C589.082 241.753 589.59 246.136 589.59 250.993V327.578Z" fill="white"/>
<path d="M396.449 323.669C396.449 320.944 395.667 318.812 394.102 317.272C392.538 315.732 390.112 314.962 386.827 314.962H379.551C378.065 314.962 376.852 315.317 375.913 316.028C375.053 316.739 374.622 317.686 374.622 318.871V335.041C374.622 337.41 373.762 339.365 372.041 340.905C370.398 342.326 368.207 343.037 365.469 343.037H344.347C341.687 343.037 339.496 341.793 337.775 339.305C336.132 336.818 335.311 333.501 335.311 329.355V232.336C335.311 228.545 336.015 225.346 337.423 222.74C338.831 220.016 340.748 218.653 343.173 218.653H407.48C412.565 218.653 416.946 219.186 420.623 220.253C424.378 221.2 427.468 222.977 429.893 225.583C432.397 228.189 434.235 231.803 435.409 236.422C436.66 240.924 437.286 246.729 437.286 253.836C437.286 260.115 436.934 265.208 436.23 269.118C435.526 273.027 434.548 276.047 433.297 278.18C432.045 280.312 430.558 281.734 428.837 282.444C427.116 283.155 425.278 283.51 423.322 283.51C418.941 283.51 416.007 283.925 414.521 284.754C413.034 285.465 412.291 287.123 412.291 289.73C412.291 292.454 414.638 295.06 414.638 295.06L423.322 302.357C423.322 302.357 430.676 308.377 432.71 310.746C434.744 313.115 435.761 317.143 435.761 322.829V331.665C435.761 335.1 434.939 337.884 433.297 340.016C431.654 342.03 429.463 343.037 426.725 343.037H405.485C402.747 343.037 400.556 342.326 398.914 340.905C397.271 339.365 396.449 337.41 396.449 335.041V323.669ZM390.347 273.204C391.208 273.204 392.029 273.204 392.811 273.204C393.672 273.086 394.415 272.79 395.041 272.316C395.667 271.724 396.175 270.835 396.567 269.651C396.958 268.466 397.153 266.808 397.153 264.675C397.153 262.425 396.919 260.707 396.449 259.522C396.058 258.338 395.51 257.508 394.806 257.035C394.18 256.442 393.476 256.146 392.694 256.146C391.912 256.028 391.169 255.968 390.464 255.968H380.372C378.573 255.968 377.165 256.501 376.148 257.568C375.131 258.515 374.622 260.115 374.622 262.365V265.919C374.622 268.17 375.131 269.947 376.148 271.25C377.165 272.553 378.573 273.204 380.372 273.204H390.347Z" fill="white"/>
<path d="M66.1332 297.076C66.1332 295.536 65.9376 294.529 65.5465 294.055C65.1553 293.581 64.4121 293.344 63.3169 293.344C62.2216 293.344 61.009 292.811 59.6791 291.745C58.4274 290.679 57.8015 289.316 57.8015 287.658V280.728C57.8015 278.359 58.4274 276.878 59.6791 276.286C61.009 275.575 62.2216 275.22 63.3169 275.22H98.1692C100.907 275.22 103.098 276.286 104.741 278.418C106.384 280.55 107.205 283.69 107.205 287.836V300.985C107.205 310.935 105.719 318.813 102.746 324.618C99.8512 330.304 95.9787 334.628 91.1283 337.589C86.3562 340.551 80.88 342.387 74.6996 343.097C68.5193 343.927 62.2216 344.341 55.8066 344.341C51.1127 344.341 46.5752 344.104 42.1942 343.63C37.8132 343.157 33.6669 342.209 29.7553 340.787C25.8437 339.247 22.2451 337.115 18.9593 334.391C15.6736 331.548 12.8572 327.757 10.5103 323.018C8.16331 318.28 6.32486 312.416 4.99492 305.427C3.66497 298.438 3 290.086 3 280.373C3 270.659 3.66497 262.307 4.99492 255.318C6.32486 248.329 8.16331 242.465 10.5103 237.727C12.8572 232.988 15.6736 229.198 18.9593 226.355C22.2451 223.512 25.8437 221.379 29.7553 219.958C33.6669 218.536 37.8132 217.589 42.1942 217.115C46.5752 216.641 51.1127 216.404 55.8066 216.404C62.2216 216.404 68.5193 216.7 74.6996 217.292C80.88 217.766 86.3562 219.188 91.1283 221.557C95.9787 223.808 99.8512 227.302 102.746 232.041C105.719 236.779 107.205 243.354 107.205 251.764C107.205 258.161 106.227 262.367 104.271 264.38C102.394 266.276 99.7339 267.224 96.2917 267.224H76.6945C74.7387 267.224 73.135 266.75 71.8833 265.802C70.6316 264.854 69.3016 263.847 67.8934 262.781C66.5635 261.597 64.9597 260.531 63.0822 259.583C61.2046 258.635 58.6621 258.161 55.4546 258.161C50.8389 258.161 47.5922 259.938 45.7147 263.492C43.8371 266.927 42.8983 272.554 42.8983 280.373C42.8983 288.191 43.8371 293.877 45.7147 297.431C47.5922 300.866 50.8389 302.584 55.4546 302.584C59.3661 302.584 62.1043 302.229 63.6689 301.518C65.3118 300.689 66.1332 299.208 66.1332 297.076Z" stroke="#002755" stroke-width="4" mask="url(#path-2-outside-2_2_4435)"/>
<path d="M114.6 280.373C114.6 270.659 115.265 262.307 116.595 255.318C117.925 248.329 119.763 242.465 122.11 237.727C124.457 232.988 127.274 229.257 130.559 226.532C133.845 223.689 137.444 221.557 141.355 220.136C145.267 218.596 149.413 217.589 153.794 217.115C158.175 216.641 162.713 216.404 167.407 216.404C174.369 216.404 180.98 216.996 187.238 218.181C193.497 219.366 198.973 222.149 203.667 226.532C208.439 230.797 212.194 237.194 214.932 245.723C217.749 254.252 219.157 265.802 219.157 280.373C219.157 294.943 217.749 306.493 214.932 315.022C212.194 323.551 208.439 330.008 203.667 334.391C198.973 338.655 193.497 341.38 187.238 342.564C180.98 343.749 174.369 344.341 167.407 344.341C162.713 344.341 158.175 344.104 153.794 343.63C149.413 343.157 145.267 342.209 141.355 340.787C137.444 339.247 133.845 337.115 130.559 334.391C127.274 331.548 124.457 327.757 122.11 323.018C119.763 318.28 117.925 312.416 116.595 305.427C115.265 298.438 114.6 290.086 114.6 280.373ZM154.498 280.373C154.498 288.191 155.437 293.877 157.315 297.431C159.192 300.866 162.439 302.584 167.054 302.584C171.67 302.584 174.839 300.807 176.56 297.253C178.359 293.699 179.259 288.073 179.259 280.373C179.259 272.554 178.359 266.927 176.56 263.492C174.839 259.938 171.67 258.161 167.054 258.161C162.439 258.161 159.192 259.938 157.315 263.492C155.437 266.927 154.498 272.554 154.498 280.373Z" stroke="#002755" stroke-width="4" mask="url(#path-2-outside-2_2_4435)"/>
<path d="M267.613 287.836C267.613 295.062 268.435 300.037 270.078 302.762C271.72 305.486 273.911 306.849 276.649 306.849H278.175C280.913 306.849 283.103 305.486 284.746 302.762C286.389 300.037 287.21 295.062 287.21 287.836V231.863C287.21 227.717 288.032 224.4 289.675 221.912C291.396 219.425 293.625 218.181 296.364 218.181H317.486C320.224 218.181 322.415 219.425 324.058 221.912C325.701 224.4 326.522 227.717 326.522 231.863V281.972C326.522 294.055 325.544 304.124 323.588 312.179C321.633 320.116 318.855 326.513 315.257 331.37C311.658 336.108 307.277 339.484 302.114 341.498C297.029 343.394 291.318 344.341 284.981 344.341H269.96C263.623 344.341 257.873 343.394 252.71 341.498C247.547 339.484 243.166 336.108 239.567 331.37C235.968 326.513 233.191 320.116 231.235 312.179C229.28 304.124 228.302 294.055 228.302 281.972V231.863C228.302 227.717 229.123 224.4 230.766 221.912C232.409 219.425 234.599 218.181 237.338 218.181H258.578C261.316 218.181 263.506 219.425 265.149 221.912C266.792 224.4 267.613 227.717 267.613 231.863V287.836Z" stroke="#002755" stroke-width="4" mask="url(#path-2-outside-2_2_4435)"/>
<path d="M608.174 342.564C605.514 342.564 603.363 341.32 601.72 338.833C600.077 336.345 599.255 333.028 599.255 328.882V231.863C599.255 227.717 600.077 224.4 601.72 221.912C603.363 219.425 605.514 218.181 608.174 218.181H673.771C676.51 218.181 678.7 219.425 680.343 221.912C682.064 224.282 682.925 227.48 682.925 231.508L682.807 241.103C682.807 245.249 681.986 248.566 680.343 251.054C678.7 253.423 676.51 254.608 673.771 254.608H643.026C641.696 254.608 640.562 254.904 639.623 255.496C638.763 255.97 638.332 257.391 638.332 259.761C638.332 261.419 638.684 262.84 639.389 264.025C640.093 265.091 640.992 265.624 642.088 265.624H673.419C675.453 265.624 677.096 266.809 678.348 269.178C679.6 271.429 680.226 274.45 680.226 278.24V282.327C680.226 286.118 679.561 289.198 678.231 291.567C676.979 293.818 675.297 294.943 673.185 294.943H642.088C640.992 294.943 640.093 295.417 639.389 296.365C638.684 297.194 638.332 298.379 638.332 299.919C638.332 300.629 638.411 301.34 638.567 302.051C638.724 302.762 639.036 303.472 639.506 304.183C639.975 304.775 640.679 305.249 641.618 305.605C642.557 305.96 643.848 306.138 645.491 306.138H673.771C676.51 306.138 678.7 307.382 680.343 309.869C682.064 312.238 682.925 315.496 682.925 319.642V329.06C682.925 333.206 682.064 336.523 680.343 339.011C678.7 341.38 676.51 342.564 673.771 342.564H608.174Z" stroke="#002755" stroke-width="4" mask="url(#path-2-outside-2_2_4435)"/>
<path d="M729.581 342.564C726.843 342.564 724.653 341.439 723.01 339.188C721.445 336.819 720.663 333.739 720.663 329.948V267.757C720.663 265.387 720.389 263.966 719.841 263.492C719.372 262.9 718.824 262.604 718.199 262.604H700.596C697.858 262.604 695.629 261.123 693.908 258.161C692.265 255.2 691.443 251.231 691.443 246.256V234.528C691.443 229.553 692.226 225.585 693.79 222.623C695.433 219.662 697.624 218.181 700.362 218.181H779.924C782.662 218.181 784.813 219.662 786.378 222.623C788.021 225.585 788.842 229.553 788.842 234.528V246.256C788.842 251.231 788.021 255.2 786.378 258.161C784.735 261.123 782.544 262.604 779.806 262.604H762.204C761.578 262.604 760.992 262.9 760.444 263.492C759.974 263.966 759.74 265.387 759.74 267.757V329.948C759.74 333.857 758.958 336.937 757.393 339.188C755.828 341.439 753.638 342.564 750.821 342.564H729.581Z" stroke="#002755" stroke-width="4" mask="url(#path-2-outside-2_2_4435)"/>
<path d="M589.59 327.578C589.59 332.316 588.769 336.107 587.126 338.95C585.483 341.675 583.293 343.037 580.555 343.037H559.315C556.576 343.037 554.386 341.912 552.743 339.661C551.1 337.41 550.279 334.389 550.279 330.599V281.734C550.279 274.863 549.614 270.184 548.284 267.696C547.032 265.09 545.311 263.787 543.121 263.787H541.947C539.757 263.787 537.996 265.09 536.667 267.696C535.337 270.184 534.711 274.863 534.789 281.734V330.599C534.789 334.389 533.967 337.41 532.325 339.661C530.682 341.912 528.491 343.037 525.753 343.037H508.972C506.86 343.037 505.139 341.912 503.809 339.661C502.557 337.41 501.931 334.389 501.931 330.599V281.734C501.931 274.863 501.267 270.184 499.937 267.696C498.607 265.09 496.846 263.787 494.656 263.787H493.365C491.096 263.787 489.297 265.09 487.967 267.696C486.637 270.184 485.972 274.863 485.972 281.734V330.599C485.972 334.389 485.151 337.41 483.508 339.661C481.865 341.912 479.674 343.037 476.936 343.037H455.814C453.076 343.037 450.885 341.615 449.242 338.772C447.599 335.929 446.778 332.198 446.778 327.578V251.171C446.778 246.314 447.286 241.872 448.303 237.844C449.32 233.817 450.768 230.381 452.645 227.538C454.523 224.695 456.752 222.504 459.334 220.964C461.994 219.424 464.928 218.654 468.135 218.654H491.839C495.203 218.654 500.082 218.122 504.117 220.786C506.496 222.357 507.695 223.641 509.045 226.117C510.355 228.52 510.264 230.201 510.82 232.869C511.379 235.551 511.891 239.799 511.891 239.799C511.891 239.799 512.375 243.53 513.549 244.952C514.722 246.373 516.326 247.084 518.36 247.084C520.394 247.084 521.998 246.373 523.172 244.952C524.345 243.53 524.829 239.799 524.829 239.799L525.9 232.869C525.9 232.869 526.445 228.513 527.793 226.117C529.19 223.632 530.419 222.352 532.839 220.786C536.898 218.159 541.752 218.654 545.115 218.654H568.116C571.323 218.654 574.257 219.424 576.917 220.964C579.577 222.504 581.845 224.695 583.723 227.538C585.601 230.381 587.048 233.817 588.065 237.844C589.082 241.753 589.59 246.136 589.59 250.993V327.578Z" stroke="#002755" stroke-width="4" mask="url(#path-2-outside-2_2_4435)"/>
<path d="M396.449 323.669C396.449 320.944 395.667 318.812 394.102 317.272C392.538 315.732 390.112 314.962 386.827 314.962H379.551C378.065 314.962 376.852 315.317 375.913 316.028C375.053 316.739 374.622 317.686 374.622 318.871V335.041C374.622 337.41 373.762 339.365 372.041 340.905C370.398 342.326 368.207 343.037 365.469 343.037H344.347C341.687 343.037 339.496 341.793 337.775 339.305C336.132 336.818 335.311 333.501 335.311 329.355V232.336C335.311 228.545 336.015 225.346 337.423 222.74C338.831 220.016 340.748 218.653 343.173 218.653H407.48C412.565 218.653 416.946 219.186 420.623 220.253C424.378 221.2 427.468 222.977 429.893 225.583C432.397 228.189 434.235 231.803 435.409 236.422C436.66 240.924 437.286 246.729 437.286 253.836C437.286 260.115 436.934 265.208 436.23 269.118C435.526 273.027 434.548 276.047 433.297 278.18C432.045 280.312 430.558 281.734 428.837 282.444C427.116 283.155 425.278 283.51 423.322 283.51C418.941 283.51 416.007 283.925 414.521 284.754C413.034 285.465 412.291 287.123 412.291 289.73C412.291 292.454 414.638 295.06 414.638 295.06L423.322 302.357C423.322 302.357 430.676 308.377 432.71 310.746C434.744 313.115 435.761 317.143 435.761 322.829V331.665C435.761 335.1 434.939 337.884 433.297 340.016C431.654 342.03 429.463 343.037 426.725 343.037H405.485C402.747 343.037 400.556 342.326 398.914 340.905C397.271 339.365 396.449 337.41 396.449 335.041V323.669ZM390.347 273.204C391.208 273.204 392.029 273.204 392.811 273.204C393.672 273.086 394.415 272.79 395.041 272.316C395.667 271.724 396.175 270.835 396.567 269.651C396.958 268.466 397.153 266.808 397.153 264.675C397.153 262.425 396.919 260.707 396.449 259.522C396.058 258.338 395.51 257.508 394.806 257.035C394.18 256.442 393.476 256.146 392.694 256.146C391.912 256.028 391.169 255.968 390.464 255.968H380.372C378.573 255.968 377.165 256.501 376.148 257.568C375.131 258.515 374.622 260.115 374.622 262.365V265.919C374.622 268.17 375.131 269.947 376.148 271.25C377.165 272.553 378.573 273.204 380.372 273.204H390.347Z" stroke="#002755" stroke-width="4" mask="url(#path-2-outside-2_2_4435)"/>
<mask id="path-3-outside-3_2_4435" maskUnits="userSpaceOnUse" x="0.303318" y="4.02637" width="799" height="191" fill="black">
<rect fill="white" x="0.303318" y="4.02637" width="799" height="191"/>
<path d="M227.918 172.131C227.918 177.921 226.14 182.552 222.585 186.025C219.03 189.499 214.29 191.236 208.364 191.236H162.654C156.729 191.236 151.904 189.499 148.179 186.025C144.624 182.552 130.784 169.178 130.784 163.388L142.847 155.756C142.847 153.11 142.085 151.042 140.561 149.554C139.037 147.9 136.921 147.073 134.212 147.073H107.802C105.432 147.073 103.57 147.9 102.215 149.554C101.03 151.042 100.438 153.11 100.438 155.756V172.131C100.438 177.921 98.6601 182.552 95.1049 186.025C91.5497 189.499 86.8094 191.236 80.884 191.236H34.92C28.9946 191.236 24.2543 189.499 20.699 186.025C17.1438 182.552 3.30332 169.178 3.30332 163.388L15.3662 77.6024C15.3662 67.5127 17.4824 58.5808 21.7148 50.8068C25.9472 42.8674 31.9573 36.3339 39.7449 31.2063C47.5326 25.9134 57.0132 21.9437 68.1867 19.2972C79.3603 16.4853 91.8036 15.0793 105.517 15.0793H138.022C151.735 15.0793 164.093 16.4853 175.098 19.2972C186.271 21.9437 186.888 17.8394 194.676 23.1323C202.463 28.2599 217.337 42.8674 221.569 50.8068C225.802 58.5808 227.918 67.5127 227.918 77.6024V172.131ZM100.438 95.4662C100.438 97.9472 101.03 100.015 102.215 101.669C103.57 103.157 105.432 103.902 107.802 103.902H134.212C136.921 103.902 139.037 103.157 140.561 101.669C142.085 100.015 142.847 97.9472 142.847 95.4662V86.5343C142.847 79.4219 141.069 74.4597 137.514 71.6479C133.958 68.836 129.218 67.43 123.293 67.43H119.992C114.066 67.43 109.326 68.836 105.771 71.6479C102.215 74.4597 100.438 79.4219 100.438 86.5343V95.4662Z"/>
<path d="M334.182 141.118C339.768 141.118 344.424 141.118 348.149 141.118C351.873 140.953 354.836 140.704 357.037 140.374C359.407 139.877 361.015 139.133 361.862 138.141C362.877 137.148 363.385 135.66 363.385 133.675C363.385 131.69 362.962 130.201 362.115 129.209C361.269 128.051 359.83 127.307 357.798 126.976C355.767 126.48 353.058 126.231 349.672 126.231C346.286 126.066 341.969 125.983 336.721 125.983H301.169C291.011 125.983 282.631 124.826 276.028 122.51C269.595 120.029 264.516 116.555 260.791 112.089C257.067 107.458 250.473 102.248 248.949 95.4662C247.595 88.6846 250.888 80.4143 250.888 71.6479C250.888 59.2425 252.75 49.4836 256.474 42.3712C260.368 35.2588 265.278 29.8831 271.203 26.2442C277.129 22.4399 283.646 20.0415 290.757 19.0491C298.037 18.0566 304.978 17.5604 311.58 17.5604L413.145 7.02637C419.07 7.02637 430.173 19.2972 433.728 22.7707C437.283 26.2442 439.061 30.8755 439.061 36.6647V48.0776C439.061 53.8668 437.283 58.4981 433.728 61.9717C430.173 65.4452 425.432 67.1819 419.507 67.1819H351.196C344.593 67.1819 339.853 67.43 336.975 67.9262C334.266 68.4225 332.912 70.2419 332.912 73.3846C332.912 77.1889 334.689 79.3392 338.245 79.8354C341.8 80.3316 347.556 80.5797 355.513 80.5797H379.892C393.605 80.5797 404.172 75.1743 413.145 77.4899C422.117 79.6402 430.003 89.5943 435.252 94.2256C440.669 98.857 444.394 104.729 446.425 111.841C448.626 118.788 449.726 126.976 449.726 136.404C449.726 147.486 448.541 156.583 446.171 163.696C443.801 170.808 439.992 176.432 434.744 180.567C429.496 184.537 422.724 187.349 414.428 189.003C406.302 190.491 396.398 191.236 384.716 191.236H272.219C266.971 191.236 262.738 189.499 259.522 186.025C256.474 182.552 242.841 169.485 242.841 163.696L254.951 160.222C254.951 154.433 256.39 149.802 259.268 146.328C262.315 142.855 266.294 141.118 271.203 141.118H334.182Z"/>
<path d="M474.032 36.6647C474.032 30.8755 475.81 26.2442 479.365 22.7707C482.92 19.2972 487.661 17.5604 493.586 17.5604L532.934 7.02637C538.859 7.02637 549.962 19.2972 553.517 22.7707C557.242 26.2442 559.104 30.8755 559.104 36.6647V172.131C559.104 177.921 557.242 182.552 553.517 186.025C549.962 189.499 545.221 191.236 539.296 191.236H493.586C487.661 191.236 482.92 189.499 479.365 186.025C475.81 182.552 461.922 169.485 461.922 163.696L474.032 36.6647Z"/>
<path d="M796 172.131C796 177.921 794.222 182.552 790.667 186.025C787.112 189.499 782.371 191.236 776.446 191.236H730.736C724.811 191.236 719.986 189.499 716.261 186.025C712.706 182.552 699.324 171.862 699.324 166.073L710.928 155.756C710.928 153.11 710.167 151.042 708.643 149.554C707.119 147.9 705.003 147.073 702.294 147.073H675.884C673.514 147.073 671.651 147.9 670.297 149.554C669.112 151.042 668.52 153.11 668.52 155.756V172.131C668.52 177.921 666.742 182.552 663.187 186.025C659.632 189.499 654.891 191.236 648.966 191.236H603.002C597.076 191.236 592.336 189.499 588.781 186.025C585.225 182.552 571.844 171.862 571.844 166.073L583.448 77.6024C583.448 67.5127 585.564 58.5808 589.797 50.8068C594.029 42.8674 600.039 36.3339 607.827 31.2063C615.614 25.9134 625.095 21.9437 636.268 19.2972C647.442 16.4853 659.885 15.0793 673.598 15.0793H706.103C719.816 15.0793 732.175 16.4853 743.179 19.2972C754.353 21.9437 759.167 19.8526 766.954 25.1456C774.742 30.2731 785.419 42.8674 789.651 50.8068C793.884 58.5808 796 67.5127 796 77.6024V172.131ZM668.52 95.4662C668.52 97.9472 669.112 100.015 670.297 101.669C671.651 103.157 673.514 103.902 675.884 103.902H702.294C705.003 103.902 707.119 103.157 708.643 101.669C710.167 100.015 710.928 97.9472 710.928 95.4662V86.5343C710.928 79.4219 709.151 74.4597 705.595 71.6479C702.04 68.836 697.3 67.43 691.374 67.43H688.073C682.148 67.43 677.408 68.836 673.852 71.6479C670.297 74.4597 668.52 79.4219 668.52 86.5343V95.4662Z"/>
</mask>
<path d="M227.918 172.131C227.918 177.921 226.14 182.552 222.585 186.025C219.03 189.499 214.29 191.236 208.364 191.236H162.654C156.729 191.236 151.904 189.499 148.179 186.025C144.624 182.552 130.784 169.178 130.784 163.388L142.847 155.756C142.847 153.11 142.085 151.042 140.561 149.554C139.037 147.9 136.921 147.073 134.212 147.073H107.802C105.432 147.073 103.57 147.9 102.215 149.554C101.03 151.042 100.438 153.11 100.438 155.756V172.131C100.438 177.921 98.6601 182.552 95.1049 186.025C91.5497 189.499 86.8094 191.236 80.884 191.236H34.92C28.9946 191.236 24.2543 189.499 20.699 186.025C17.1438 182.552 3.30332 169.178 3.30332 163.388L15.3662 77.6024C15.3662 67.5127 17.4824 58.5808 21.7148 50.8068C25.9472 42.8674 31.9573 36.3339 39.7449 31.2063C47.5326 25.9134 57.0132 21.9437 68.1867 19.2972C79.3603 16.4853 91.8036 15.0793 105.517 15.0793H138.022C151.735 15.0793 164.093 16.4853 175.098 19.2972C186.271 21.9437 186.888 17.8394 194.676 23.1323C202.463 28.2599 217.337 42.8674 221.569 50.8068C225.802 58.5808 227.918 67.5127 227.918 77.6024V172.131ZM100.438 95.4662C100.438 97.9472 101.03 100.015 102.215 101.669C103.57 103.157 105.432 103.902 107.802 103.902H134.212C136.921 103.902 139.037 103.157 140.561 101.669C142.085 100.015 142.847 97.9472 142.847 95.4662V86.5343C142.847 79.4219 141.069 74.4597 137.514 71.6479C133.958 68.836 129.218 67.43 123.293 67.43H119.992C114.066 67.43 109.326 68.836 105.771 71.6479C102.215 74.4597 100.438 79.4219 100.438 86.5343V95.4662Z" fill="#002755"/>
<path d="M334.182 141.118C339.768 141.118 344.424 141.118 348.149 141.118C351.873 140.953 354.836 140.704 357.037 140.374C359.407 139.877 361.015 139.133 361.862 138.141C362.877 137.148 363.385 135.66 363.385 133.675C363.385 131.69 362.962 130.201 362.115 129.209C361.269 128.051 359.83 127.307 357.798 126.976C355.767 126.48 353.058 126.231 349.672 126.231C346.286 126.066 341.969 125.983 336.721 125.983H301.169C291.011 125.983 282.631 124.826 276.028 122.51C269.595 120.029 264.516 116.555 260.791 112.089C257.067 107.458 250.473 102.248 248.949 95.4662C247.595 88.6846 250.888 80.4143 250.888 71.6479C250.888 59.2425 252.75 49.4836 256.474 42.3712C260.368 35.2588 265.278 29.8831 271.203 26.2442C277.129 22.4399 283.646 20.0415 290.757 19.0491C298.037 18.0566 304.978 17.5604 311.58 17.5604L413.145 7.02637C419.07 7.02637 430.173 19.2972 433.728 22.7707C437.283 26.2442 439.061 30.8755 439.061 36.6647V48.0776C439.061 53.8668 437.283 58.4981 433.728 61.9717C430.173 65.4452 425.432 67.1819 419.507 67.1819H351.196C344.593 67.1819 339.853 67.43 336.975 67.9262C334.266 68.4225 332.912 70.2419 332.912 73.3846C332.912 77.1889 334.689 79.3392 338.245 79.8354C341.8 80.3316 347.556 80.5797 355.513 80.5797H379.892C393.605 80.5797 404.172 75.1743 413.145 77.4899C422.117 79.6402 430.003 89.5943 435.252 94.2256C440.669 98.857 444.394 104.729 446.425 111.841C448.626 118.788 449.726 126.976 449.726 136.404C449.726 147.486 448.541 156.583 446.171 163.696C443.801 170.808 439.992 176.432 434.744 180.567C429.496 184.537 422.724 187.349 414.428 189.003C406.302 190.491 396.398 191.236 384.716 191.236H272.219C266.971 191.236 262.738 189.499 259.522 186.025C256.474 182.552 242.841 169.485 242.841 163.696L254.951 160.222C254.951 154.433 256.39 149.802 259.268 146.328C262.315 142.855 266.294 141.118 271.203 141.118H334.182Z" fill="#002755"/>
<path d="M474.032 36.6647C474.032 30.8755 475.81 26.2442 479.365 22.7707C482.92 19.2972 487.661 17.5604 493.586 17.5604L532.934 7.02637C538.859 7.02637 549.962 19.2972 553.517 22.7707C557.242 26.2442 559.104 30.8755 559.104 36.6647V172.131C559.104 177.921 557.242 182.552 553.517 186.025C549.962 189.499 545.221 191.236 539.296 191.236H493.586C487.661 191.236 482.92 189.499 479.365 186.025C475.81 182.552 461.922 169.485 461.922 163.696L474.032 36.6647Z" fill="#002755"/>
<path d="M796 172.131C796 177.921 794.222 182.552 790.667 186.025C787.112 189.499 782.371 191.236 776.446 191.236H730.736C724.811 191.236 719.986 189.499 716.261 186.025C712.706 182.552 699.324 171.862 699.324 166.073L710.928 155.756C710.928 153.11 710.167 151.042 708.643 149.554C707.119 147.9 705.003 147.073 702.294 147.073H675.884C673.514 147.073 671.651 147.9 670.297 149.554C669.112 151.042 668.52 153.11 668.52 155.756V172.131C668.52 177.921 666.742 182.552 663.187 186.025C659.632 189.499 654.891 191.236 648.966 191.236H603.002C597.076 191.236 592.336 189.499 588.781 186.025C585.225 182.552 571.844 171.862 571.844 166.073L583.448 77.6024C583.448 67.5127 585.564 58.5808 589.797 50.8068C594.029 42.8674 600.039 36.3339 607.827 31.2063C615.614 25.9134 625.095 21.9437 636.268 19.2972C647.442 16.4853 659.885 15.0793 673.598 15.0793H706.103C719.816 15.0793 732.175 16.4853 743.179 19.2972C754.353 21.9437 759.167 19.8526 766.954 25.1456C774.742 30.2731 785.419 42.8674 789.651 50.8068C793.884 58.5808 796 67.5127 796 77.6024V172.131ZM668.52 95.4662C668.52 97.9472 669.112 100.015 670.297 101.669C671.651 103.157 673.514 103.902 675.884 103.902H702.294C705.003 103.902 707.119 103.157 708.643 101.669C710.167 100.015 710.928 97.9472 710.928 95.4662V86.5343C710.928 79.4219 709.151 74.4597 705.595 71.6479C702.04 68.836 697.3 67.43 691.374 67.43H688.073C682.148 67.43 677.408 68.836 673.852 71.6479C670.297 74.4597 668.52 79.4219 668.52 86.5343V95.4662Z" fill="#002755"/>
<path d="M227.918 172.131C227.918 177.921 226.14 182.552 222.585 186.025C219.03 189.499 214.29 191.236 208.364 191.236H162.654C156.729 191.236 151.904 189.499 148.179 186.025C144.624 182.552 130.784 169.178 130.784 163.388L142.847 155.756C142.847 153.11 142.085 151.042 140.561 149.554C139.037 147.9 136.921 147.073 134.212 147.073H107.802C105.432 147.073 103.57 147.9 102.215 149.554C101.03 151.042 100.438 153.11 100.438 155.756V172.131C100.438 177.921 98.6601 182.552 95.1049 186.025C91.5497 189.499 86.8094 191.236 80.884 191.236H34.92C28.9946 191.236 24.2543 189.499 20.699 186.025C17.1438 182.552 3.30332 169.178 3.30332 163.388L15.3662 77.6024C15.3662 67.5127 17.4824 58.5808 21.7148 50.8068C25.9472 42.8674 31.9573 36.3339 39.7449 31.2063C47.5326 25.9134 57.0132 21.9437 68.1867 19.2972C79.3603 16.4853 91.8036 15.0793 105.517 15.0793H138.022C151.735 15.0793 164.093 16.4853 175.098 19.2972C186.271 21.9437 186.888 17.8394 194.676 23.1323C202.463 28.2599 217.337 42.8674 221.569 50.8068C225.802 58.5808 227.918 67.5127 227.918 77.6024V172.131ZM100.438 95.4662C100.438 97.9472 101.03 100.015 102.215 101.669C103.57 103.157 105.432 103.902 107.802 103.902H134.212C136.921 103.902 139.037 103.157 140.561 101.669C142.085 100.015 142.847 97.9472 142.847 95.4662V86.5343C142.847 79.4219 141.069 74.4597 137.514 71.6479C133.958 68.836 129.218 67.43 123.293 67.43H119.992C114.066 67.43 109.326 68.836 105.771 71.6479C102.215 74.4597 100.438 79.4219 100.438 86.5343V95.4662Z" stroke="#002755" stroke-width="6" mask="url(#path-3-outside-3_2_4435)"/>
<path d="M334.182 141.118C339.768 141.118 344.424 141.118 348.149 141.118C351.873 140.953 354.836 140.704 357.037 140.374C359.407 139.877 361.015 139.133 361.862 138.141C362.877 137.148 363.385 135.66 363.385 133.675C363.385 131.69 362.962 130.201 362.115 129.209C361.269 128.051 359.83 127.307 357.798 126.976C355.767 126.48 353.058 126.231 349.672 126.231C346.286 126.066 341.969 125.983 336.721 125.983H301.169C291.011 125.983 282.631 124.826 276.028 122.51C269.595 120.029 264.516 116.555 260.791 112.089C257.067 107.458 250.473 102.248 248.949 95.4662C247.595 88.6846 250.888 80.4143 250.888 71.6479C250.888 59.2425 252.75 49.4836 256.474 42.3712C260.368 35.2588 265.278 29.8831 271.203 26.2442C277.129 22.4399 283.646 20.0415 290.757 19.0491C298.037 18.0566 304.978 17.5604 311.58 17.5604L413.145 7.02637C419.07 7.02637 430.173 19.2972 433.728 22.7707C437.283 26.2442 439.061 30.8755 439.061 36.6647V48.0776C439.061 53.8668 437.283 58.4981 433.728 61.9717C430.173 65.4452 425.432 67.1819 419.507 67.1819H351.196C344.593 67.1819 339.853 67.43 336.975 67.9262C334.266 68.4225 332.912 70.2419 332.912 73.3846C332.912 77.1889 334.689 79.3392 338.245 79.8354C341.8 80.3316 347.556 80.5797 355.513 80.5797H379.892C393.605 80.5797 404.172 75.1743 413.145 77.4899C422.117 79.6402 430.003 89.5943 435.252 94.2256C440.669 98.857 444.394 104.729 446.425 111.841C448.626 118.788 449.726 126.976 449.726 136.404C449.726 147.486 448.541 156.583 446.171 163.696C443.801 170.808 439.992 176.432 434.744 180.567C429.496 184.537 422.724 187.349 414.428 189.003C406.302 190.491 396.398 191.236 384.716 191.236H272.219C266.971 191.236 262.738 189.499 259.522 186.025C256.474 182.552 242.841 169.485 242.841 163.696L254.951 160.222C254.951 154.433 256.39 149.802 259.268 146.328C262.315 142.855 266.294 141.118 271.203 141.118H334.182Z" stroke="#002755" stroke-width="6" mask="url(#path-3-outside-3_2_4435)"/>
<path d="M474.032 36.6647C474.032 30.8755 475.81 26.2442 479.365 22.7707C482.92 19.2972 487.661 17.5604 493.586 17.5604L532.934 7.02637C538.859 7.02637 549.962 19.2972 553.517 22.7707C557.242 26.2442 559.104 30.8755 559.104 36.6647V172.131C559.104 177.921 557.242 182.552 553.517 186.025C549.962 189.499 545.221 191.236 539.296 191.236H493.586C487.661 191.236 482.92 189.499 479.365 186.025C475.81 182.552 461.922 169.485 461.922 163.696L474.032 36.6647Z" stroke="#002755" stroke-width="6" mask="url(#path-3-outside-3_2_4435)"/>
<path d="M796 172.131C796 177.921 794.222 182.552 790.667 186.025C787.112 189.499 782.371 191.236 776.446 191.236H730.736C724.811 191.236 719.986 189.499 716.261 186.025C712.706 182.552 699.324 171.862 699.324 166.073L710.928 155.756C710.928 153.11 710.167 151.042 708.643 149.554C707.119 147.9 705.003 147.073 702.294 147.073H675.884C673.514 147.073 671.651 147.9 670.297 149.554C669.112 151.042 668.52 153.11 668.52 155.756V172.131C668.52 177.921 666.742 182.552 663.187 186.025C659.632 189.499 654.891 191.236 648.966 191.236H603.002C597.076 191.236 592.336 189.499 588.781 186.025C585.225 182.552 571.844 171.862 571.844 166.073L583.448 77.6024C583.448 67.5127 585.564 58.5808 589.797 50.8068C594.029 42.8674 600.039 36.3339 607.827 31.2063C615.614 25.9134 625.095 21.9437 636.268 19.2972C647.442 16.4853 659.885 15.0793 673.598 15.0793H706.103C719.816 15.0793 732.175 16.4853 743.179 19.2972C754.353 21.9437 759.167 19.8526 766.954 25.1456C774.742 30.2731 785.419 42.8674 789.651 50.8068C793.884 58.5808 796 67.5127 796 77.6024V172.131ZM668.52 95.4662C668.52 97.9472 669.112 100.015 670.297 101.669C671.651 103.157 673.514 103.902 675.884 103.902H702.294C705.003 103.902 707.119 103.157 708.643 101.669C710.167 100.015 710.928 97.9472 710.928 95.4662V86.5343C710.928 79.4219 709.151 74.4597 705.595 71.6479C702.04 68.836 697.3 67.43 691.374 67.43H688.073C682.148 67.43 677.408 68.836 673.852 71.6479C670.297 74.4597 668.52 79.4219 668.52 86.5343V95.4662Z" stroke="#002755" stroke-width="6" mask="url(#path-3-outside-3_2_4435)"/>
<mask id="path-4-outside-4_2_4435" maskUnits="userSpaceOnUse" x="0" y="0" width="787" height="183" fill="black">
<rect fill="white" width="787" height="183"/>
<path d="M215.552 160.052C215.552 165.841 213.774 170.472 210.219 173.946C206.664 177.419 201.924 179.156 195.998 179.156H150.288C144.363 179.156 139.538 177.419 135.813 173.946C132.258 170.472 130.48 165.841 130.48 160.052V143.677C130.48 141.03 129.719 138.963 128.195 137.474C126.671 135.82 124.555 134.993 121.846 134.993H95.436C93.0658 134.993 91.2036 135.82 89.8492 137.474C88.6641 138.963 88.0716 141.03 88.0716 143.677V160.052C88.0716 165.841 86.2939 170.472 82.7387 173.946C79.1835 177.419 74.4432 179.156 68.5178 179.156H22.5538C16.6284 179.156 11.8881 177.419 8.33284 173.946C4.77761 170.472 3 165.841 3 160.052V65.5231C3 55.4334 5.11621 46.5015 9.34862 38.7275C13.581 30.788 19.5911 24.2545 27.3787 19.127C35.1664 13.834 44.647 9.86431 55.8205 7.21783C66.9941 4.40594 79.4374 3 93.1505 3H125.655C139.368 3 151.727 4.40594 162.731 7.21783C173.905 9.86431 183.386 13.834 191.173 19.127C198.961 24.2545 204.971 30.788 209.203 38.7275C213.436 46.5015 215.552 55.4334 215.552 65.5231V160.052ZM88.0716 83.3868C88.0716 85.8679 88.6641 87.9354 89.8492 89.5895C91.2036 91.0781 93.0658 91.8224 95.436 91.8224H121.846C124.555 91.8224 126.671 91.0781 128.195 89.5895C129.719 87.9354 130.48 85.8679 130.48 83.3868V74.4549C130.48 67.3425 128.703 62.3804 125.148 59.5685C121.592 56.7566 116.852 55.3507 110.927 55.3507H107.625C101.7 55.3507 96.9596 56.7566 93.4044 59.5685C89.8492 62.3804 88.0716 67.3425 88.0716 74.4549V83.3868Z"/>
<path d="M321.815 129.039C327.402 129.039 332.058 129.039 335.782 129.039C339.507 128.873 342.47 128.625 344.67 128.294C347.041 127.798 348.649 127.054 349.495 126.061C350.511 125.069 351.019 123.58 351.019 121.595C351.019 119.61 350.596 118.122 349.749 117.129C348.903 115.972 347.464 115.227 345.432 114.896C343.401 114.4 340.692 114.152 337.306 114.152C333.92 113.987 329.603 113.904 324.355 113.904H288.803C278.645 113.904 270.265 112.746 263.662 110.431C257.229 107.949 252.15 104.476 248.425 100.01C244.701 95.3787 242.077 89.6722 240.553 82.8906C239.199 76.109 238.521 68.335 238.521 59.5685C238.521 47.1631 240.384 37.4042 244.108 30.2918C248.002 23.1794 252.912 17.8037 258.837 14.1648C264.762 10.3605 271.28 7.96215 278.391 6.96973C285.671 5.97729 292.612 5.48107 299.214 5.48107H407.141C413.066 5.48107 417.807 7.21783 421.362 10.6913C424.917 14.1648 426.695 18.7962 426.695 24.5853V35.9983C426.695 41.7875 424.917 46.4188 421.362 49.8923C417.807 53.3658 413.066 55.1026 407.141 55.1026H338.83C332.227 55.1026 327.487 55.3507 324.609 55.8469C321.9 56.3431 320.546 58.1625 320.546 61.3052C320.546 65.1096 322.323 67.2598 325.879 67.756C329.434 68.2523 335.19 68.5004 343.147 68.5004H367.525C381.239 68.5004 392.581 69.6582 401.554 71.9739C410.527 74.1241 417.637 77.5149 422.886 82.1463C428.303 86.7776 432.027 92.6495 434.059 99.7619C436.26 106.709 437.36 114.896 437.36 124.325C437.36 135.407 436.175 144.504 433.805 151.616C431.435 158.729 427.626 164.353 422.378 168.488C417.129 172.457 410.358 175.269 402.062 176.923C393.936 178.412 384.032 179.156 372.35 179.156H259.853C254.605 179.156 250.372 177.419 247.156 173.946C244.108 170.472 242.585 165.841 242.585 160.052V148.143C242.585 142.354 244.024 137.722 246.902 134.249C249.949 130.775 253.927 129.039 258.837 129.039H321.815Z"/>
<path d="M461.666 24.5853C461.666 18.7962 463.444 14.1648 466.999 10.6913C470.554 7.21783 475.295 5.48107 481.22 5.48107H526.93C532.855 5.48107 537.596 7.21783 541.151 10.6913C544.875 14.1648 546.738 18.7962 546.738 24.5853V160.052C546.738 165.841 544.875 170.472 541.151 173.946C537.596 177.419 532.855 179.156 526.93 179.156H481.22C475.295 179.156 470.554 177.419 466.999 173.946C463.444 170.472 461.666 165.841 461.666 160.052V24.5853Z"/>
<path d="M783.634 160.052C783.634 165.841 781.856 170.472 778.301 173.946C774.746 177.419 770.005 179.156 764.08 179.156H718.37C712.445 179.156 707.62 177.419 703.895 173.946C700.34 170.472 698.562 165.841 698.562 160.052V143.677C698.562 141.03 697.8 138.963 696.277 137.474C694.753 135.82 692.637 134.993 689.928 134.993H663.518C661.148 134.993 659.285 135.82 657.931 137.474C656.746 138.963 656.153 141.03 656.153 143.677V160.052C656.153 165.841 654.376 170.472 650.821 173.946C647.265 177.419 642.525 179.156 636.6 179.156H590.636C584.71 179.156 579.97 177.419 576.415 173.946C572.859 170.472 571.082 165.841 571.082 160.052V65.5231C571.082 55.4334 573.198 46.5015 577.43 38.7275C581.663 30.788 587.673 24.2545 595.461 19.127C603.248 13.834 612.729 9.86431 623.902 7.21783C635.076 4.40594 647.519 3 661.232 3H693.737C707.45 3 719.809 4.40594 730.813 7.21783C741.987 9.86431 751.467 13.834 759.255 19.127C767.043 24.2545 773.053 30.788 777.285 38.7275C781.518 46.5015 783.634 55.4334 783.634 65.5231V160.052ZM656.153 83.3868C656.153 85.8679 656.746 87.9354 657.931 89.5895C659.285 91.0781 661.148 91.8224 663.518 91.8224H689.928C692.637 91.8224 694.753 91.0781 696.277 89.5895C697.8 87.9354 698.562 85.8679 698.562 83.3868V74.4549C698.562 67.3425 696.785 62.3804 693.229 59.5685C689.674 56.7566 684.934 55.3507 679.008 55.3507H675.707C669.782 55.3507 665.042 56.7566 661.486 59.5685C657.931 62.3804 656.153 67.3425 656.153 74.4549V83.3868Z"/>
</mask>
<path d="M215.552 160.052C215.552 165.841 213.774 170.472 210.219 173.946C206.664 177.419 201.924 179.156 195.998 179.156H150.288C144.363 179.156 139.538 177.419 135.813 173.946C132.258 170.472 130.48 165.841 130.48 160.052V143.677C130.48 141.03 129.719 138.963 128.195 137.474C126.671 135.82 124.555 134.993 121.846 134.993H95.436C93.0658 134.993 91.2036 135.82 89.8492 137.474C88.6641 138.963 88.0716 141.03 88.0716 143.677V160.052C88.0716 165.841 86.2939 170.472 82.7387 173.946C79.1835 177.419 74.4432 179.156 68.5178 179.156H22.5538C16.6284 179.156 11.8881 177.419 8.33284 173.946C4.77761 170.472 3 165.841 3 160.052V65.5231C3 55.4334 5.11621 46.5015 9.34862 38.7275C13.581 30.788 19.5911 24.2545 27.3787 19.127C35.1664 13.834 44.647 9.86431 55.8205 7.21783C66.9941 4.40594 79.4374 3 93.1505 3H125.655C139.368 3 151.727 4.40594 162.731 7.21783C173.905 9.86431 183.386 13.834 191.173 19.127C198.961 24.2545 204.971 30.788 209.203 38.7275C213.436 46.5015 215.552 55.4334 215.552 65.5231V160.052ZM88.0716 83.3868C88.0716 85.8679 88.6641 87.9354 89.8492 89.5895C91.2036 91.0781 93.0658 91.8224 95.436 91.8224H121.846C124.555 91.8224 126.671 91.0781 128.195 89.5895C129.719 87.9354 130.48 85.8679 130.48 83.3868V74.4549C130.48 67.3425 128.703 62.3804 125.148 59.5685C121.592 56.7566 116.852 55.3507 110.927 55.3507H107.625C101.7 55.3507 96.9596 56.7566 93.4044 59.5685C89.8492 62.3804 88.0716 67.3425 88.0716 74.4549V83.3868Z" fill="white"/>
<path d="M321.815 129.039C327.402 129.039 332.058 129.039 335.782 129.039C339.507 128.873 342.47 128.625 344.67 128.294C347.041 127.798 348.649 127.054 349.495 126.061C350.511 125.069 351.019 123.58 351.019 121.595C351.019 119.61 350.596 118.122 349.749 117.129C348.903 115.972 347.464 115.227 345.432 114.896C343.401 114.4 340.692 114.152 337.306 114.152C333.92 113.987 329.603 113.904 324.355 113.904H288.803C278.645 113.904 270.265 112.746 263.662 110.431C257.229 107.949 252.15 104.476 248.425 100.01C244.701 95.3787 242.077 89.6722 240.553 82.8906C239.199 76.109 238.521 68.335 238.521 59.5685C238.521 47.1631 240.384 37.4042 244.108 30.2918C248.002 23.1794 252.912 17.8037 258.837 14.1648C264.762 10.3605 271.28 7.96215 278.391 6.96973C285.671 5.97729 292.612 5.48107 299.214 5.48107H407.141C413.066 5.48107 417.807 7.21783 421.362 10.6913C424.917 14.1648 426.695 18.7962 426.695 24.5853V35.9983C426.695 41.7875 424.917 46.4188 421.362 49.8923C417.807 53.3658 413.066 55.1026 407.141 55.1026H338.83C332.227 55.1026 327.487 55.3507 324.609 55.8469C321.9 56.3431 320.546 58.1625 320.546 61.3052C320.546 65.1096 322.323 67.2598 325.879 67.756C329.434 68.2523 335.19 68.5004 343.147 68.5004H367.525C381.239 68.5004 392.581 69.6582 401.554 71.9739C410.527 74.1241 417.637 77.5149 422.886 82.1463C428.303 86.7776 432.027 92.6495 434.059 99.7619C436.26 106.709 437.36 114.896 437.36 124.325C437.36 135.407 436.175 144.504 433.805 151.616C431.435 158.729 427.626 164.353 422.378 168.488C417.129 172.457 410.358 175.269 402.062 176.923C393.936 178.412 384.032 179.156 372.35 179.156H259.853C254.605 179.156 250.372 177.419 247.156 173.946C244.108 170.472 242.585 165.841 242.585 160.052V148.143C242.585 142.354 244.024 137.722 246.902 134.249C249.949 130.775 253.927 129.039 258.837 129.039H321.815Z" fill="white"/>
<path d="M461.666 24.5853C461.666 18.7962 463.444 14.1648 466.999 10.6913C470.554 7.21783 475.295 5.48107 481.22 5.48107H526.93C532.855 5.48107 537.596 7.21783 541.151 10.6913C544.875 14.1648 546.738 18.7962 546.738 24.5853V160.052C546.738 165.841 544.875 170.472 541.151 173.946C537.596 177.419 532.855 179.156 526.93 179.156H481.22C475.295 179.156 470.554 177.419 466.999 173.946C463.444 170.472 461.666 165.841 461.666 160.052V24.5853Z" fill="white"/>
<path d="M783.634 160.052C783.634 165.841 781.856 170.472 778.301 173.946C774.746 177.419 770.005 179.156 764.08 179.156H718.37C712.445 179.156 707.62 177.419 703.895 173.946C700.34 170.472 698.562 165.841 698.562 160.052V143.677C698.562 141.03 697.8 138.963 696.277 137.474C694.753 135.82 692.637 134.993 689.928 134.993H663.518C661.148 134.993 659.285 135.82 657.931 137.474C656.746 138.963 656.153 141.03 656.153 143.677V160.052C656.153 165.841 654.376 170.472 650.821 173.946C647.265 177.419 642.525 179.156 636.6 179.156H590.636C584.71 179.156 579.97 177.419 576.415 173.946C572.859 170.472 571.082 165.841 571.082 160.052V65.5231C571.082 55.4334 573.198 46.5015 577.43 38.7275C581.663 30.788 587.673 24.2545 595.461 19.127C603.248 13.834 612.729 9.86431 623.902 7.21783C635.076 4.40594 647.519 3 661.232 3H693.737C707.45 3 719.809 4.40594 730.813 7.21783C741.987 9.86431 751.467 13.834 759.255 19.127C767.043 24.2545 773.053 30.788 777.285 38.7275C781.518 46.5015 783.634 55.4334 783.634 65.5231V160.052ZM656.153 83.3868C656.153 85.8679 656.746 87.9354 657.931 89.5895C659.285 91.0781 661.148 91.8224 663.518 91.8224H689.928C692.637 91.8224 694.753 91.0781 696.277 89.5895C697.8 87.9354 698.562 85.8679 698.562 83.3868V74.4549C698.562 67.3425 696.785 62.3804 693.229 59.5685C689.674 56.7566 684.934 55.3507 679.008 55.3507H675.707C669.782 55.3507 665.042 56.7566 661.486 59.5685C657.931 62.3804 656.153 67.3425 656.153 74.4549V83.3868Z" fill="white"/>
<path d="M215.552 160.052C215.552 165.841 213.774 170.472 210.219 173.946C206.664 177.419 201.924 179.156 195.998 179.156H150.288C144.363 179.156 139.538 177.419 135.813 173.946C132.258 170.472 130.48 165.841 130.48 160.052V143.677C130.48 141.03 129.719 138.963 128.195 137.474C126.671 135.82 124.555 134.993 121.846 134.993H95.436C93.0658 134.993 91.2036 135.82 89.8492 137.474C88.6641 138.963 88.0716 141.03 88.0716 143.677V160.052C88.0716 165.841 86.2939 170.472 82.7387 173.946C79.1835 177.419 74.4432 179.156 68.5178 179.156H22.5538C16.6284 179.156 11.8881 177.419 8.33284 173.946C4.77761 170.472 3 165.841 3 160.052V65.5231C3 55.4334 5.11621 46.5015 9.34862 38.7275C13.581 30.788 19.5911 24.2545 27.3787 19.127C35.1664 13.834 44.647 9.86431 55.8205 7.21783C66.9941 4.40594 79.4374 3 93.1505 3H125.655C139.368 3 151.727 4.40594 162.731 7.21783C173.905 9.86431 183.386 13.834 191.173 19.127C198.961 24.2545 204.971 30.788 209.203 38.7275C213.436 46.5015 215.552 55.4334 215.552 65.5231V160.052ZM88.0716 83.3868C88.0716 85.8679 88.6641 87.9354 89.8492 89.5895C91.2036 91.0781 93.0658 91.8224 95.436 91.8224H121.846C124.555 91.8224 126.671 91.0781 128.195 89.5895C129.719 87.9354 130.48 85.8679 130.48 83.3868V74.4549C130.48 67.3425 128.703 62.3804 125.148 59.5685C121.592 56.7566 116.852 55.3507 110.927 55.3507H107.625C101.7 55.3507 96.9596 56.7566 93.4044 59.5685C89.8492 62.3804 88.0716 67.3425 88.0716 74.4549V83.3868Z" stroke="#002755" stroke-width="6" mask="url(#path-4-outside-4_2_4435)"/>
<path d="M321.815 129.039C327.402 129.039 332.058 129.039 335.782 129.039C339.507 128.873 342.47 128.625 344.67 128.294C347.041 127.798 348.649 127.054 349.495 126.061C350.511 125.069 351.019 123.58 351.019 121.595C351.019 119.61 350.596 118.122 349.749 117.129C348.903 115.972 347.464 115.227 345.432 114.896C343.401 114.4 340.692 114.152 337.306 114.152C333.92 113.987 329.603 113.904 324.355 113.904H288.803C278.645 113.904 270.265 112.746 263.662 110.431C257.229 107.949 252.15 104.476 248.425 100.01C244.701 95.3787 242.077 89.6722 240.553 82.8906C239.199 76.109 238.521 68.335 238.521 59.5685C238.521 47.1631 240.384 37.4042 244.108 30.2918C248.002 23.1794 252.912 17.8037 258.837 14.1648C264.762 10.3605 271.28 7.96215 278.391 6.96973C285.671 5.97729 292.612 5.48107 299.214 5.48107H407.141C413.066 5.48107 417.807 7.21783 421.362 10.6913C424.917 14.1648 426.695 18.7962 426.695 24.5853V35.9983C426.695 41.7875 424.917 46.4188 421.362 49.8923C417.807 53.3658 413.066 55.1026 407.141 55.1026H338.83C332.227 55.1026 327.487 55.3507 324.609 55.8469C321.9 56.3431 320.546 58.1625 320.546 61.3052C320.546 65.1096 322.323 67.2598 325.879 67.756C329.434 68.2523 335.19 68.5004 343.147 68.5004H367.525C381.239 68.5004 392.581 69.6582 401.554 71.9739C410.527 74.1241 417.637 77.5149 422.886 82.1463C428.303 86.7776 432.027 92.6495 434.059 99.7619C436.26 106.709 437.36 114.896 437.36 124.325C437.36 135.407 436.175 144.504 433.805 151.616C431.435 158.729 427.626 164.353 422.378 168.488C417.129 172.457 410.358 175.269 402.062 176.923C393.936 178.412 384.032 179.156 372.35 179.156H259.853C254.605 179.156 250.372 177.419 247.156 173.946C244.108 170.472 242.585 165.841 242.585 160.052V148.143C242.585 142.354 244.024 137.722 246.902 134.249C249.949 130.775 253.927 129.039 258.837 129.039H321.815Z" stroke="#002755" stroke-width="6" mask="url(#path-4-outside-4_2_4435)"/>
<path d="M461.666 24.5853C461.666 18.7962 463.444 14.1648 466.999 10.6913C470.554 7.21783 475.295 5.48107 481.22 5.48107H526.93C532.855 5.48107 537.596 7.21783 541.151 10.6913C544.875 14.1648 546.738 18.7962 546.738 24.5853V160.052C546.738 165.841 544.875 170.472 541.151 173.946C537.596 177.419 532.855 179.156 526.93 179.156H481.22C475.295 179.156 470.554 177.419 466.999 173.946C463.444 170.472 461.666 165.841 461.666 160.052V24.5853Z" stroke="#002755" stroke-width="6" mask="url(#path-4-outside-4_2_4435)"/>
<path d="M783.634 160.052C783.634 165.841 781.856 170.472 778.301 173.946C774.746 177.419 770.005 179.156 764.08 179.156H718.37C712.445 179.156 707.62 177.419 703.895 173.946C700.34 170.472 698.562 165.841 698.562 160.052V143.677C698.562 141.03 697.8 138.963 696.277 137.474C694.753 135.82 692.637 134.993 689.928 134.993H663.518C661.148 134.993 659.285 135.82 657.931 137.474C656.746 138.963 656.153 141.03 656.153 143.677V160.052C656.153 165.841 654.376 170.472 650.821 173.946C647.265 177.419 642.525 179.156 636.6 179.156H590.636C584.71 179.156 579.97 177.419 576.415 173.946C572.859 170.472 571.082 165.841 571.082 160.052V65.5231C571.082 55.4334 573.198 46.5015 577.43 38.7275C581.663 30.788 587.673 24.2545 595.461 19.127C603.248 13.834 612.729 9.86431 623.902 7.21783C635.076 4.40594 647.519 3 661.232 3H693.737C707.45 3 719.809 4.40594 730.813 7.21783C741.987 9.86431 751.467 13.834 759.255 19.127C767.043 24.2545 773.053 30.788 777.285 38.7275C781.518 46.5015 783.634 55.4334 783.634 65.5231V160.052ZM656.153 83.3868C656.153 85.8679 656.746 87.9354 657.931 89.5895C659.285 91.0781 661.148 91.8224 663.518 91.8224H689.928C692.637 91.8224 694.753 91.0781 696.277 89.5895C697.8 87.9354 698.562 85.8679 698.562 83.3868V74.4549C698.562 67.3425 696.785 62.3804 693.229 59.5685C689.674 56.7566 684.934 55.3507 679.008 55.3507H675.707C669.782 55.3507 665.042 56.7566 661.486 59.5685C657.931 62.3804 656.153 67.3425 656.153 74.4549V83.3868Z" stroke="#002755" stroke-width="6" mask="url(#path-4-outside-4_2_4435)"/>
</svg>
