<svg width="565" height="454" viewBox="0 0 565 454" fill="none" xmlns="http://www.w3.org/2000/svg">
<path d="M1.74734 372.14H3.68734V386H1.74734V372.14ZM8.29844 375.9C8.7251 375.793 9.29177 375.68 9.99844 375.56C10.7051 375.44 11.5184 375.38 12.4384 375.38C13.2651 375.38 13.9518 375.5 14.4984 375.74C15.0451 375.967 15.4784 376.293 15.7984 376.72C16.1318 377.133 16.3651 377.633 16.4984 378.22C16.6318 378.807 16.6984 379.453 16.6984 380.16V386H14.8384V380.56C14.8384 379.92 14.7918 379.373 14.6984 378.92C14.6184 378.467 14.4784 378.1 14.2784 377.82C14.0784 377.54 13.8118 377.34 13.4784 377.22C13.1451 377.087 12.7318 377.02 12.2384 377.02C12.0384 377.02 11.8318 377.027 11.6184 377.04C11.4051 377.053 11.1984 377.073 10.9984 377.1C10.8118 377.113 10.6384 377.133 10.4784 377.16C10.3318 377.187 10.2251 377.207 10.1584 377.22V386H8.29844V375.9ZM27.6028 384.96C27.4428 385.067 27.1295 385.207 26.6628 385.38C26.2095 385.54 25.6761 385.62 25.0628 385.62C24.4361 385.62 23.8428 385.52 23.2828 385.32C22.7361 385.12 22.2561 384.813 21.8428 384.4C21.4295 383.973 21.1028 383.447 20.8628 382.82C20.6228 382.193 20.5028 381.447 20.5028 380.58C20.5028 379.82 20.6161 379.127 20.8428 378.5C21.0695 377.86 21.3961 377.313 21.8228 376.86C22.2628 376.393 22.7961 376.033 23.4228 375.78C24.0495 375.513 24.7561 375.38 25.5428 375.38C26.4095 375.38 27.1628 375.447 27.8028 375.58C28.4561 375.7 29.0028 375.813 29.4428 375.92V385.2C29.4428 386.8 29.0295 387.96 28.2028 388.68C27.3761 389.4 26.1228 389.76 24.4428 389.76C23.7895 389.76 23.1695 389.707 22.5828 389.6C22.0095 389.493 21.5095 389.367 21.0828 389.22L21.4228 387.6C21.7961 387.747 22.2495 387.873 22.7828 387.98C23.3295 388.1 23.8961 388.16 24.4828 388.16C25.5895 388.16 26.3828 387.94 26.8628 387.5C27.3561 387.06 27.6028 386.36 27.6028 385.4V384.96ZM27.5828 377.24C27.3961 377.187 27.1428 377.14 26.8228 377.1C26.5161 377.047 26.0961 377.02 25.5628 377.02C24.5628 377.02 23.7895 377.347 23.2428 378C22.7095 378.653 22.4428 379.52 22.4428 380.6C22.4428 381.2 22.5161 381.713 22.6628 382.14C22.8228 382.567 23.0295 382.92 23.2828 383.2C23.5495 383.48 23.8495 383.687 24.1828 383.82C24.5295 383.953 24.8828 384.02 25.2428 384.02C25.7361 384.02 26.1895 383.953 26.6028 383.82C27.0161 383.673 27.3428 383.507 27.5828 383.32V377.24ZM37.7853 375.38C37.9453 375.38 38.1253 375.393 38.3253 375.42C38.5386 375.433 38.7453 375.46 38.9453 375.5C39.1453 375.527 39.3253 375.56 39.4853 375.6C39.6586 375.627 39.7853 375.653 39.8653 375.68L39.5453 377.3C39.3986 377.247 39.152 377.187 38.8053 377.12C38.472 377.04 38.0386 377 37.5053 377C37.1586 377 36.812 377.04 36.4653 377.12C36.132 377.187 35.912 377.233 35.8053 377.26V386H33.9453V376.04C34.3853 375.88 34.932 375.733 35.5853 375.6C36.2386 375.453 36.972 375.38 37.7853 375.38ZM42.3802 380.82C42.3802 379.9 42.5135 379.1 42.7802 378.42C43.0468 377.727 43.4002 377.153 43.8402 376.7C44.2802 376.247 44.7868 375.907 45.3602 375.68C45.9335 375.453 46.5202 375.34 47.1202 375.34C48.5202 375.34 49.5935 375.78 50.3402 376.66C51.0868 377.527 51.4602 378.853 51.4602 380.64C51.4602 380.72 51.4602 380.827 51.4602 380.96C51.4602 381.08 51.4535 381.193 51.4402 381.3H44.3202C44.4002 382.38 44.7135 383.2 45.2602 383.76C45.8068 384.32 46.6602 384.6 47.8202 384.6C48.4735 384.6 49.0202 384.547 49.4602 384.44C49.9135 384.32 50.2535 384.207 50.4802 384.1L50.7402 385.66C50.5135 385.78 50.1135 385.907 49.5402 386.04C48.9802 386.173 48.3402 386.24 47.6202 386.24C46.7135 386.24 45.9268 386.107 45.2602 385.84C44.6068 385.56 44.0668 385.18 43.6402 384.7C43.2135 384.22 42.8935 383.653 42.6802 383C42.4802 382.333 42.3802 381.607 42.3802 380.82ZM49.5202 379.8C49.5335 378.96 49.3202 378.273 48.8802 377.74C48.4535 377.193 47.8602 376.92 47.1002 376.92C46.6735 376.92 46.2935 377.007 45.9602 377.18C45.6402 377.34 45.3668 377.553 45.1402 377.82C44.9135 378.087 44.7335 378.393 44.6002 378.74C44.4802 379.087 44.4002 379.44 44.3602 379.8H49.5202ZM57.852 384.66C58.612 384.66 59.172 384.56 59.532 384.36C59.9054 384.16 60.092 383.84 60.092 383.4C60.092 382.947 59.912 382.587 59.552 382.32C59.192 382.053 58.5987 381.753 57.772 381.42C57.372 381.26 56.9854 381.1 56.612 380.94C56.252 380.767 55.9387 380.567 55.672 380.34C55.4054 380.113 55.192 379.84 55.032 379.52C54.872 379.2 54.792 378.807 54.792 378.34C54.792 377.42 55.132 376.693 55.812 376.16C56.492 375.613 57.4187 375.34 58.592 375.34C58.8854 375.34 59.1787 375.36 59.472 375.4C59.7654 375.427 60.0387 375.467 60.292 375.52C60.5454 375.56 60.7654 375.607 60.952 375.66C61.152 375.713 61.3054 375.76 61.412 375.8L61.072 377.4C60.872 377.293 60.5587 377.187 60.132 377.08C59.7054 376.96 59.192 376.9 58.592 376.9C58.072 376.9 57.6187 377.007 57.232 377.22C56.8454 377.42 56.652 377.74 56.652 378.18C56.652 378.407 56.692 378.607 56.772 378.78C56.8654 378.953 56.9987 379.113 57.172 379.26C57.3587 379.393 57.5854 379.52 57.852 379.64C58.1187 379.76 58.4387 379.887 58.812 380.02C59.3054 380.207 59.7454 380.393 60.132 380.58C60.5187 380.753 60.8454 380.96 61.112 381.2C61.392 381.44 61.6054 381.733 61.752 382.08C61.8987 382.413 61.972 382.827 61.972 383.32C61.972 384.28 61.612 385.007 60.892 385.5C60.1854 385.993 59.172 386.24 57.852 386.24C56.932 386.24 56.212 386.16 55.692 386C55.172 385.853 54.8187 385.74 54.632 385.66L54.972 384.06C55.1854 384.14 55.5254 384.26 55.992 384.42C56.4587 384.58 57.0787 384.66 57.852 384.66ZM74.8378 380.8C74.8378 381.627 74.7178 382.373 74.4778 383.04C74.2378 383.707 73.8978 384.28 73.4578 384.76C73.0311 385.24 72.5178 385.613 71.9178 385.88C71.3178 386.133 70.6645 386.26 69.9578 386.26C69.2511 386.26 68.5978 386.133 67.9978 385.88C67.3978 385.613 66.8778 385.24 66.4378 384.76C66.0111 384.28 65.6778 383.707 65.4378 383.04C65.1978 382.373 65.0778 381.627 65.0778 380.8C65.0778 379.987 65.1978 379.247 65.4378 378.58C65.6778 377.9 66.0111 377.32 66.4378 376.84C66.8778 376.36 67.3978 375.993 67.9978 375.74C68.5978 375.473 69.2511 375.34 69.9578 375.34C70.6645 375.34 71.3178 375.473 71.9178 375.74C72.5178 375.993 73.0311 376.36 73.4578 376.84C73.8978 377.32 74.2378 377.9 74.4778 378.58C74.7178 379.247 74.8378 379.987 74.8378 380.8ZM72.8978 380.8C72.8978 379.627 72.6311 378.7 72.0978 378.02C71.5778 377.327 70.8645 376.98 69.9578 376.98C69.0511 376.98 68.3311 377.327 67.7978 378.02C67.2778 378.7 67.0178 379.627 67.0178 380.8C67.0178 381.973 67.2778 382.907 67.7978 383.6C68.3311 384.28 69.0511 384.62 69.9578 384.62C70.8645 384.62 71.5778 384.28 72.0978 383.6C72.6311 382.907 72.8978 381.973 72.8978 380.8ZM91.9036 380.82C91.9036 379.607 91.6036 378.673 91.0036 378.02C90.4036 377.367 89.6036 377.04 88.6036 377.04C88.0436 377.04 87.6036 377.06 87.2836 377.1C86.9769 377.14 86.7303 377.187 86.5436 377.24V383.8C86.7703 383.987 87.0969 384.167 87.5236 384.34C87.9503 384.513 88.4169 384.6 88.9236 384.6C89.4569 384.6 89.9103 384.507 90.2836 384.32C90.6703 384.12 90.9836 383.853 91.2236 383.52C91.4636 383.173 91.6369 382.773 91.7436 382.32C91.8503 381.853 91.9036 381.353 91.9036 380.82ZM93.8436 380.82C93.8436 381.607 93.7369 382.333 93.5236 383C93.3236 383.667 93.0236 384.24 92.6236 384.72C92.2236 385.2 91.7303 385.573 91.1436 385.84C90.5703 386.107 89.9103 386.24 89.1636 386.24C88.5636 386.24 88.0303 386.16 87.5636 386C87.1103 385.84 86.7703 385.687 86.5436 385.54V389.7H84.6836V375.92C85.1236 375.813 85.6703 375.7 86.3236 375.58C86.9903 375.447 87.7569 375.38 88.6236 375.38C89.4236 375.38 90.1436 375.507 90.7836 375.76C91.4236 376.013 91.9703 376.373 92.4236 376.84C92.8769 377.307 93.2236 377.88 93.4636 378.56C93.7169 379.227 93.8436 379.98 93.8436 380.82ZM106.941 380.8C106.941 381.627 106.821 382.373 106.581 383.04C106.341 383.707 106.001 384.28 105.561 384.76C105.134 385.24 104.621 385.613 104.021 385.88C103.421 386.133 102.768 386.26 102.061 386.26C101.354 386.26 100.701 386.133 100.101 385.88C99.5009 385.613 98.9809 385.24 98.5409 384.76C98.1143 384.28 97.7809 383.707 97.5409 383.04C97.3009 382.373 97.1809 381.627 97.1809 380.8C97.1809 379.987 97.3009 379.247 97.5409 378.58C97.7809 377.9 98.1143 377.32 98.5409 376.84C98.9809 376.36 99.5009 375.993 100.101 375.74C100.701 375.473 101.354 375.34 102.061 375.34C102.768 375.34 103.421 375.473 104.021 375.74C104.621 375.993 105.134 376.36 105.561 376.84C106.001 377.32 106.341 377.9 106.581 378.58C106.821 379.247 106.941 379.987 106.941 380.8ZM105.001 380.8C105.001 379.627 104.734 378.7 104.201 378.02C103.681 377.327 102.968 376.98 102.061 376.98C101.154 376.98 100.434 377.327 99.9009 378.02C99.3809 378.7 99.1209 379.627 99.1209 380.8C99.1209 381.973 99.3809 382.907 99.9009 383.6C100.434 384.28 101.154 384.62 102.061 384.62C102.968 384.62 103.681 384.28 104.201 383.6C104.734 382.907 105.001 381.973 105.001 380.8ZM114.698 375.38C114.858 375.38 115.038 375.393 115.238 375.42C115.451 375.433 115.658 375.46 115.858 375.5C116.058 375.527 116.238 375.56 116.398 375.6C116.571 375.627 116.698 375.653 116.778 375.68L116.458 377.3C116.311 377.247 116.064 377.187 115.718 377.12C115.384 377.04 114.951 377 114.418 377C114.071 377 113.724 377.04 113.378 377.12C113.044 377.187 112.824 377.233 112.718 377.26V386H110.858V376.04C111.298 375.88 111.844 375.733 112.498 375.6C113.151 375.453 113.884 375.38 114.698 375.38ZM8.03906 402C9.98573 402 11.4791 402.373 12.5191 403.12C13.5724 403.853 14.0991 404.953 14.0991 406.42C14.0991 407.22 13.9524 407.907 13.6591 408.48C13.3791 409.04 12.9657 409.5 12.4191 409.86C11.8857 410.207 11.2324 410.46 10.4591 410.62C9.68573 410.78 8.81239 410.86 7.83906 410.86H6.29906V416H4.35906V402.34C4.90573 402.207 5.51239 402.12 6.17906 402.08C6.85906 402.027 7.47906 402 8.03906 402ZM8.19906 403.7C7.37239 403.7 6.73906 403.72 6.29906 403.76V409.2H7.75906C8.42573 409.2 9.02573 409.16 9.55906 409.08C10.0924 408.987 10.5391 408.84 10.8991 408.64C11.2724 408.427 11.5591 408.14 11.7591 407.78C11.9591 407.42 12.0591 406.96 12.0591 406.4C12.0591 405.867 11.9524 405.427 11.7391 405.08C11.5391 404.733 11.2591 404.46 10.8991 404.26C10.5524 404.047 10.1457 403.9 9.67906 403.82C9.21239 403.74 8.71906 403.7 8.19906 403.7ZM20.827 416.2C19.6804 416.173 18.867 415.927 18.387 415.46C17.907 414.993 17.667 414.267 17.667 413.28V400.8L19.527 400.48V412.98C19.527 413.287 19.5537 413.54 19.607 413.74C19.6604 413.94 19.747 414.1 19.867 414.22C19.987 414.34 20.147 414.433 20.347 414.5C20.547 414.553 20.7937 414.6 21.087 414.64L20.827 416.2ZM27.9958 414.66C28.4358 414.66 28.8224 414.653 29.1558 414.64C29.5024 414.613 29.7891 414.573 30.0158 414.52V411.42C29.8824 411.353 29.6624 411.3 29.3558 411.26C29.0624 411.207 28.7024 411.18 28.2758 411.18C27.9958 411.18 27.6958 411.2 27.3758 411.24C27.0691 411.28 26.7824 411.367 26.5158 411.5C26.2624 411.62 26.0491 411.793 25.8758 412.02C25.7024 412.233 25.6158 412.52 25.6158 412.88C25.6158 413.547 25.8291 414.013 26.2558 414.28C26.6824 414.533 27.2624 414.66 27.9958 414.66ZM27.8358 405.34C28.5824 405.34 29.2091 405.44 29.7158 405.64C30.2358 405.827 30.6491 406.1 30.9558 406.46C31.2758 406.807 31.5024 407.227 31.6358 407.72C31.7691 408.2 31.8358 408.733 31.8358 409.32V415.82C31.6758 415.847 31.4491 415.887 31.1558 415.94C30.8758 415.98 30.5558 416.02 30.1958 416.06C29.8358 416.1 29.4424 416.133 29.0158 416.16C28.6024 416.2 28.1891 416.22 27.7758 416.22C27.1891 416.22 26.6491 416.16 26.1558 416.04C25.6624 415.92 25.2358 415.733 24.8758 415.48C24.5158 415.213 24.2358 414.867 24.0358 414.44C23.8358 414.013 23.7358 413.5 23.7358 412.9C23.7358 412.327 23.8491 411.833 24.0758 411.42C24.3158 411.007 24.6358 410.673 25.0358 410.42C25.4358 410.167 25.9024 409.98 26.4358 409.86C26.9691 409.74 27.5291 409.68 28.1158 409.68C28.3024 409.68 28.4958 409.693 28.6958 409.72C28.8958 409.733 29.0824 409.76 29.2558 409.8C29.4424 409.827 29.6024 409.853 29.7358 409.88C29.8691 409.907 29.9624 409.927 30.0158 409.94V409.42C30.0158 409.113 29.9824 408.813 29.9158 408.52C29.8491 408.213 29.7291 407.947 29.5558 407.72C29.3824 407.48 29.1424 407.293 28.8358 407.16C28.5424 407.013 28.1558 406.94 27.6758 406.94C27.0624 406.94 26.5224 406.987 26.0558 407.08C25.6024 407.16 25.2624 407.247 25.0358 407.34L24.8158 405.8C25.0558 405.693 25.4558 405.593 26.0158 405.5C26.5758 405.393 27.1824 405.34 27.8358 405.34ZM43.125 407C42.845 407.307 42.4717 407.74 42.005 408.3C41.5517 408.86 41.0583 409.48 40.525 410.16C40.005 410.84 39.4783 411.553 38.945 412.3C38.425 413.047 37.965 413.76 37.565 414.44H43.285V416H35.345V414.76C35.665 414.173 36.0583 413.527 36.525 412.82C36.9917 412.113 37.4783 411.413 37.985 410.72C38.505 410.013 39.005 409.353 39.485 408.74C39.9783 408.113 40.405 407.587 40.765 407.16H35.625V405.6H43.125V407ZM50.4591 414.66C50.8991 414.66 51.2857 414.653 51.6191 414.64C51.9657 414.613 52.2524 414.573 52.4791 414.52V411.42C52.3457 411.353 52.1257 411.3 51.8191 411.26C51.5257 411.207 51.1657 411.18 50.7391 411.18C50.4591 411.18 50.1591 411.2 49.8391 411.24C49.5324 411.28 49.2457 411.367 48.9791 411.5C48.7257 411.62 48.5124 411.793 48.3391 412.02C48.1657 412.233 48.0791 412.52 48.0791 412.88C48.0791 413.547 48.2924 414.013 48.7191 414.28C49.1457 414.533 49.7257 414.66 50.4591 414.66ZM50.2991 405.34C51.0457 405.34 51.6724 405.44 52.1791 405.64C52.6991 405.827 53.1124 406.1 53.4191 406.46C53.7391 406.807 53.9657 407.227 54.0991 407.72C54.2324 408.2 54.2991 408.733 54.2991 409.32V415.82C54.1391 415.847 53.9124 415.887 53.6191 415.94C53.3391 415.98 53.0191 416.02 52.6591 416.06C52.2991 416.1 51.9057 416.133 51.4791 416.16C51.0657 416.2 50.6524 416.22 50.2391 416.22C49.6524 416.22 49.1124 416.16 48.6191 416.04C48.1257 415.92 47.6991 415.733 47.3391 415.48C46.9791 415.213 46.6991 414.867 46.4991 414.44C46.2991 414.013 46.1991 413.5 46.1991 412.9C46.1991 412.327 46.3124 411.833 46.5391 411.42C46.7791 411.007 47.0991 410.673 47.4991 410.42C47.8991 410.167 48.3657 409.98 48.8991 409.86C49.4324 409.74 49.9924 409.68 50.5791 409.68C50.7657 409.68 50.9591 409.693 51.1591 409.72C51.3591 409.733 51.5457 409.76 51.7191 409.8C51.9057 409.827 52.0657 409.853 52.1991 409.88C52.3324 409.907 52.4257 409.927 52.4791 409.94V409.42C52.4791 409.113 52.4457 408.813 52.3791 408.52C52.3124 408.213 52.1924 407.947 52.0191 407.72C51.8457 407.48 51.6057 407.293 51.2991 407.16C51.0057 407.013 50.6191 406.94 50.1391 406.94C49.5257 406.94 48.9857 406.987 48.5191 407.08C48.0657 407.16 47.7257 407.247 47.4991 407.34L47.2791 405.8C47.5191 405.693 47.9191 405.593 48.4791 405.5C49.0391 405.393 49.6457 405.34 50.2991 405.34ZM64.7372 402.14H66.6772V416H64.7372V402.14ZM73.0283 405.6H76.9683V407.16H73.0283V411.96C73.0283 412.48 73.0683 412.913 73.1483 413.26C73.2283 413.593 73.3483 413.86 73.5083 414.06C73.6683 414.247 73.8683 414.38 74.1083 414.46C74.3483 414.54 74.6283 414.58 74.9483 414.58C75.5083 414.58 75.9549 414.52 76.2883 414.4C76.6349 414.267 76.8749 414.173 77.0083 414.12L77.3683 415.66C77.1816 415.753 76.8549 415.867 76.3883 416C75.9216 416.147 75.3883 416.22 74.7883 416.22C74.0816 416.22 73.4949 416.133 73.0283 415.96C72.5749 415.773 72.2083 415.5 71.9283 415.14C71.6483 414.78 71.4483 414.34 71.3283 413.82C71.2216 413.287 71.1683 412.673 71.1683 411.98V402.7L73.0283 402.38V405.6ZM84.1552 414.66C84.5952 414.66 84.9818 414.653 85.3152 414.64C85.6618 414.613 85.9485 414.573 86.1752 414.52V411.42C86.0418 411.353 85.8218 411.3 85.5152 411.26C85.2218 411.207 84.8618 411.18 84.4352 411.18C84.1552 411.18 83.8552 411.2 83.5352 411.24C83.2285 411.28 82.9418 411.367 82.6752 411.5C82.4218 411.62 82.2085 411.793 82.0352 412.02C81.8618 412.233 81.7752 412.52 81.7752 412.88C81.7752 413.547 81.9885 414.013 82.4152 414.28C82.8418 414.533 83.4218 414.66 84.1552 414.66ZM83.9952 405.34C84.7418 405.34 85.3685 405.44 85.8752 405.64C86.3952 405.827 86.8085 406.1 87.1152 406.46C87.4352 406.807 87.6618 407.227 87.7952 407.72C87.9285 408.2 87.9952 408.733 87.9952 409.32V415.82C87.8352 415.847 87.6085 415.887 87.3152 415.94C87.0352 415.98 86.7152 416.02 86.3552 416.06C85.9952 416.1 85.6018 416.133 85.1752 416.16C84.7618 416.2 84.3485 416.22 83.9352 416.22C83.3485 416.22 82.8085 416.16 82.3152 416.04C81.8218 415.92 81.3952 415.733 81.0352 415.48C80.6752 415.213 80.3952 414.867 80.1952 414.44C79.9952 414.013 79.8952 413.5 79.8952 412.9C79.8952 412.327 80.0085 411.833 80.2352 411.42C80.4752 411.007 80.7952 410.673 81.1952 410.42C81.5952 410.167 82.0618 409.98 82.5952 409.86C83.1285 409.74 83.6885 409.68 84.2752 409.68C84.4618 409.68 84.6552 409.693 84.8552 409.72C85.0552 409.733 85.2418 409.76 85.4152 409.8C85.6018 409.827 85.7618 409.853 85.8952 409.88C86.0285 409.907 86.1218 409.927 86.1752 409.94V409.42C86.1752 409.113 86.1418 408.813 86.0752 408.52C86.0085 408.213 85.8885 407.947 85.7152 407.72C85.5418 407.48 85.3018 407.293 84.9952 407.16C84.7018 407.013 84.3152 406.94 83.8352 406.94C83.2218 406.94 82.6818 406.987 82.2152 407.08C81.7618 407.16 81.4218 407.247 81.1952 407.34L80.9752 405.8C81.2152 405.693 81.6152 405.593 82.1752 405.5C82.7352 405.393 83.3418 405.34 83.9952 405.34ZM95.5044 416.2C94.3577 416.173 93.5444 415.927 93.0644 415.46C92.5844 414.993 92.3444 414.267 92.3444 413.28V400.8L94.2044 400.48V412.98C94.2044 413.287 94.231 413.54 94.2844 413.74C94.3377 413.94 94.4244 414.1 94.5444 414.22C94.6644 414.34 94.8244 414.433 95.0244 414.5C95.2244 414.553 95.471 414.6 95.7644 414.64L95.5044 416.2ZM101.013 416H99.1531V405.6H101.013V416ZM100.073 403.72C99.7398 403.72 99.4531 403.613 99.2131 403.4C98.9865 403.173 98.8731 402.873 98.8731 402.5C98.8731 402.127 98.9865 401.833 99.2131 401.62C99.4531 401.393 99.7398 401.28 100.073 401.28C100.406 401.28 100.686 401.393 100.913 401.62C101.153 401.833 101.273 402.127 101.273 402.5C101.273 402.873 101.153 403.173 100.913 403.4C100.686 403.613 100.406 403.72 100.073 403.72ZM109.032 414.66C109.472 414.66 109.858 414.653 110.192 414.64C110.538 414.613 110.825 414.573 111.052 414.52V411.42C110.918 411.353 110.698 411.3 110.392 411.26C110.098 411.207 109.738 411.18 109.312 411.18C109.032 411.18 108.732 411.2 108.412 411.24C108.105 411.28 107.818 411.367 107.552 411.5C107.298 411.62 107.085 411.793 106.912 412.02C106.738 412.233 106.652 412.52 106.652 412.88C106.652 413.547 106.865 414.013 107.292 414.28C107.718 414.533 108.298 414.66 109.032 414.66ZM108.872 405.34C109.618 405.34 110.245 405.44 110.752 405.64C111.272 405.827 111.685 406.1 111.992 406.46C112.312 406.807 112.538 407.227 112.672 407.72C112.805 408.2 112.872 408.733 112.872 409.32V415.82C112.712 415.847 112.485 415.887 112.192 415.94C111.912 415.98 111.592 416.02 111.232 416.06C110.872 416.1 110.478 416.133 110.052 416.16C109.638 416.2 109.225 416.22 108.812 416.22C108.225 416.22 107.685 416.16 107.192 416.04C106.698 415.92 106.272 415.733 105.912 415.48C105.552 415.213 105.272 414.867 105.072 414.44C104.872 414.013 104.772 413.5 104.772 412.9C104.772 412.327 104.885 411.833 105.112 411.42C105.352 411.007 105.672 410.673 106.072 410.42C106.472 410.167 106.938 409.98 107.472 409.86C108.005 409.74 108.565 409.68 109.152 409.68C109.338 409.68 109.532 409.693 109.732 409.72C109.932 409.733 110.118 409.76 110.292 409.8C110.478 409.827 110.638 409.853 110.772 409.88C110.905 409.907 110.998 409.927 111.052 409.94V409.42C111.052 409.113 111.018 408.813 110.952 408.52C110.885 408.213 110.765 407.947 110.592 407.72C110.418 407.48 110.178 407.293 109.872 407.16C109.578 407.013 109.192 406.94 108.712 406.94C108.098 406.94 107.558 406.987 107.092 407.08C106.638 407.16 106.298 407.247 106.072 407.34L105.852 405.8C106.092 405.693 106.492 405.593 107.052 405.5C107.612 405.393 108.218 405.34 108.872 405.34Z" fill="white"/>
<path d="M314.747 402.14H316.687V416H314.747V402.14ZM321.298 405.9C321.725 405.793 322.292 405.68 322.998 405.56C323.705 405.44 324.518 405.38 325.438 405.38C326.265 405.38 326.952 405.5 327.498 405.74C328.045 405.967 328.478 406.293 328.798 406.72C329.132 407.133 329.365 407.633 329.498 408.22C329.632 408.807 329.698 409.453 329.698 410.16V416H327.838V410.56C327.838 409.92 327.792 409.373 327.698 408.92C327.618 408.467 327.478 408.1 327.278 407.82C327.078 407.54 326.812 407.34 326.478 407.22C326.145 407.087 325.732 407.02 325.238 407.02C325.038 407.02 324.832 407.027 324.618 407.04C324.405 407.053 324.198 407.073 323.998 407.1C323.812 407.113 323.638 407.133 323.478 407.16C323.332 407.187 323.225 407.207 323.158 407.22V416H321.298V405.9ZM340.603 414.96C340.443 415.067 340.129 415.207 339.663 415.38C339.209 415.54 338.676 415.62 338.063 415.62C337.436 415.62 336.843 415.52 336.283 415.32C335.736 415.12 335.256 414.813 334.843 414.4C334.429 413.973 334.103 413.447 333.863 412.82C333.623 412.193 333.503 411.447 333.503 410.58C333.503 409.82 333.616 409.127 333.843 408.5C334.069 407.86 334.396 407.313 334.823 406.86C335.263 406.393 335.796 406.033 336.423 405.78C337.049 405.513 337.756 405.38 338.543 405.38C339.409 405.38 340.163 405.447 340.803 405.58C341.456 405.7 342.003 405.813 342.443 405.92V415.2C342.443 416.8 342.029 417.96 341.203 418.68C340.376 419.4 339.123 419.76 337.443 419.76C336.789 419.76 336.169 419.707 335.583 419.6C335.009 419.493 334.509 419.367 334.083 419.22L334.423 417.6C334.796 417.747 335.249 417.873 335.783 417.98C336.329 418.1 336.896 418.16 337.483 418.16C338.589 418.16 339.383 417.94 339.863 417.5C340.356 417.06 340.603 416.36 340.603 415.4V414.96ZM340.583 407.24C340.396 407.187 340.143 407.14 339.823 407.1C339.516 407.047 339.096 407.02 338.563 407.02C337.563 407.02 336.789 407.347 336.243 408C335.709 408.653 335.443 409.52 335.443 410.6C335.443 411.2 335.516 411.713 335.663 412.14C335.823 412.567 336.029 412.92 336.283 413.2C336.549 413.48 336.849 413.687 337.183 413.82C337.529 413.953 337.883 414.02 338.243 414.02C338.736 414.02 339.189 413.953 339.603 413.82C340.016 413.673 340.343 413.507 340.583 413.32V407.24ZM350.785 405.38C350.945 405.38 351.125 405.393 351.325 405.42C351.539 405.433 351.745 405.46 351.945 405.5C352.145 405.527 352.325 405.56 352.485 405.6C352.659 405.627 352.785 405.653 352.865 405.68L352.545 407.3C352.399 407.247 352.152 407.187 351.805 407.12C351.472 407.04 351.039 407 350.505 407C350.159 407 349.812 407.04 349.465 407.12C349.132 407.187 348.912 407.233 348.805 407.26V416H346.945V406.04C347.385 405.88 347.932 405.733 348.585 405.6C349.239 405.453 349.972 405.38 350.785 405.38ZM355.38 410.82C355.38 409.9 355.513 409.1 355.78 408.42C356.047 407.727 356.4 407.153 356.84 406.7C357.28 406.247 357.787 405.907 358.36 405.68C358.933 405.453 359.52 405.34 360.12 405.34C361.52 405.34 362.593 405.78 363.34 406.66C364.087 407.527 364.46 408.853 364.46 410.64C364.46 410.72 364.46 410.827 364.46 410.96C364.46 411.08 364.453 411.193 364.44 411.3H357.32C357.4 412.38 357.713 413.2 358.26 413.76C358.807 414.32 359.66 414.6 360.82 414.6C361.473 414.6 362.02 414.547 362.46 414.44C362.913 414.32 363.253 414.207 363.48 414.1L363.74 415.66C363.513 415.78 363.113 415.907 362.54 416.04C361.98 416.173 361.34 416.24 360.62 416.24C359.713 416.24 358.927 416.107 358.26 415.84C357.607 415.56 357.067 415.18 356.64 414.7C356.213 414.22 355.893 413.653 355.68 413C355.48 412.333 355.38 411.607 355.38 410.82ZM362.52 409.8C362.533 408.96 362.32 408.273 361.88 407.74C361.453 407.193 360.86 406.92 360.1 406.92C359.673 406.92 359.293 407.007 358.96 407.18C358.64 407.34 358.367 407.553 358.14 407.82C357.913 408.087 357.733 408.393 357.6 408.74C357.48 409.087 357.4 409.44 357.36 409.8H362.52ZM370.852 414.66C371.612 414.66 372.172 414.56 372.532 414.36C372.905 414.16 373.092 413.84 373.092 413.4C373.092 412.947 372.912 412.587 372.552 412.32C372.192 412.053 371.599 411.753 370.772 411.42C370.372 411.26 369.985 411.1 369.612 410.94C369.252 410.767 368.939 410.567 368.672 410.34C368.405 410.113 368.192 409.84 368.032 409.52C367.872 409.2 367.792 408.807 367.792 408.34C367.792 407.42 368.132 406.693 368.812 406.16C369.492 405.613 370.419 405.34 371.592 405.34C371.885 405.34 372.179 405.36 372.472 405.4C372.765 405.427 373.039 405.467 373.292 405.52C373.545 405.56 373.765 405.607 373.952 405.66C374.152 405.713 374.305 405.76 374.412 405.8L374.072 407.4C373.872 407.293 373.559 407.187 373.132 407.08C372.705 406.96 372.192 406.9 371.592 406.9C371.072 406.9 370.619 407.007 370.232 407.22C369.845 407.42 369.652 407.74 369.652 408.18C369.652 408.407 369.692 408.607 369.772 408.78C369.865 408.953 369.999 409.113 370.172 409.26C370.359 409.393 370.585 409.52 370.852 409.64C371.119 409.76 371.439 409.887 371.812 410.02C372.305 410.207 372.745 410.393 373.132 410.58C373.519 410.753 373.845 410.96 374.112 411.2C374.392 411.44 374.605 411.733 374.752 412.08C374.899 412.413 374.972 412.827 374.972 413.32C374.972 414.28 374.612 415.007 373.892 415.5C373.185 415.993 372.172 416.24 370.852 416.24C369.932 416.24 369.212 416.16 368.692 416C368.172 415.853 367.819 415.74 367.632 415.66L367.972 414.06C368.185 414.14 368.525 414.26 368.992 414.42C369.459 414.58 370.079 414.66 370.852 414.66ZM387.838 410.8C387.838 411.627 387.718 412.373 387.478 413.04C387.238 413.707 386.898 414.28 386.458 414.76C386.031 415.24 385.518 415.613 384.918 415.88C384.318 416.133 383.664 416.26 382.958 416.26C382.251 416.26 381.598 416.133 380.998 415.88C380.398 415.613 379.878 415.24 379.438 414.76C379.011 414.28 378.678 413.707 378.438 413.04C378.198 412.373 378.078 411.627 378.078 410.8C378.078 409.987 378.198 409.247 378.438 408.58C378.678 407.9 379.011 407.32 379.438 406.84C379.878 406.36 380.398 405.993 380.998 405.74C381.598 405.473 382.251 405.34 382.958 405.34C383.664 405.34 384.318 405.473 384.918 405.74C385.518 405.993 386.031 406.36 386.458 406.84C386.898 407.32 387.238 407.9 387.478 408.58C387.718 409.247 387.838 409.987 387.838 410.8ZM385.898 410.8C385.898 409.627 385.631 408.7 385.098 408.02C384.578 407.327 383.864 406.98 382.958 406.98C382.051 406.98 381.331 407.327 380.798 408.02C380.278 408.7 380.018 409.627 380.018 410.8C380.018 411.973 380.278 412.907 380.798 413.6C381.331 414.28 382.051 414.62 382.958 414.62C383.864 414.62 384.578 414.28 385.098 413.6C385.631 412.907 385.898 411.973 385.898 410.8ZM404.904 410.82C404.904 409.607 404.604 408.673 404.004 408.02C403.404 407.367 402.604 407.04 401.604 407.04C401.044 407.04 400.604 407.06 400.284 407.1C399.977 407.14 399.73 407.187 399.544 407.24V413.8C399.77 413.987 400.097 414.167 400.524 414.34C400.95 414.513 401.417 414.6 401.924 414.6C402.457 414.6 402.91 414.507 403.284 414.32C403.67 414.12 403.984 413.853 404.224 413.52C404.464 413.173 404.637 412.773 404.744 412.32C404.85 411.853 404.904 411.353 404.904 410.82ZM406.844 410.82C406.844 411.607 406.737 412.333 406.524 413C406.324 413.667 406.024 414.24 405.624 414.72C405.224 415.2 404.73 415.573 404.144 415.84C403.57 416.107 402.91 416.24 402.164 416.24C401.564 416.24 401.03 416.16 400.564 416C400.11 415.84 399.77 415.687 399.544 415.54V419.7H397.684V405.92C398.124 405.813 398.67 405.7 399.324 405.58C399.99 405.447 400.757 405.38 401.624 405.38C402.424 405.38 403.144 405.507 403.784 405.76C404.424 406.013 404.97 406.373 405.424 406.84C405.877 407.307 406.224 407.88 406.464 408.56C406.717 409.227 406.844 409.98 406.844 410.82ZM419.941 410.8C419.941 411.627 419.821 412.373 419.581 413.04C419.341 413.707 419.001 414.28 418.561 414.76C418.134 415.24 417.621 415.613 417.021 415.88C416.421 416.133 415.768 416.26 415.061 416.26C414.354 416.26 413.701 416.133 413.101 415.88C412.501 415.613 411.981 415.24 411.541 414.76C411.114 414.28 410.781 413.707 410.541 413.04C410.301 412.373 410.181 411.627 410.181 410.8C410.181 409.987 410.301 409.247 410.541 408.58C410.781 407.9 411.114 407.32 411.541 406.84C411.981 406.36 412.501 405.993 413.101 405.74C413.701 405.473 414.354 405.34 415.061 405.34C415.768 405.34 416.421 405.473 417.021 405.74C417.621 405.993 418.134 406.36 418.561 406.84C419.001 407.32 419.341 407.9 419.581 408.58C419.821 409.247 419.941 409.987 419.941 410.8ZM418.001 410.8C418.001 409.627 417.734 408.7 417.201 408.02C416.681 407.327 415.968 406.98 415.061 406.98C414.154 406.98 413.434 407.327 412.901 408.02C412.381 408.7 412.121 409.627 412.121 410.8C412.121 411.973 412.381 412.907 412.901 413.6C413.434 414.28 414.154 414.62 415.061 414.62C415.968 414.62 416.681 414.28 417.201 413.6C417.734 412.907 418.001 411.973 418.001 410.8ZM427.698 405.38C427.858 405.38 428.038 405.393 428.238 405.42C428.451 405.433 428.658 405.46 428.858 405.5C429.058 405.527 429.238 405.56 429.398 405.6C429.571 405.627 429.698 405.653 429.778 405.68L429.458 407.3C429.311 407.247 429.064 407.187 428.718 407.12C428.384 407.04 427.951 407 427.418 407C427.071 407 426.724 407.04 426.378 407.12C426.044 407.187 425.824 407.233 425.718 407.26V416H423.858V406.04C424.298 405.88 424.844 405.733 425.498 405.6C426.151 405.453 426.884 405.38 427.698 405.38ZM312.16 446C311.934 445.4 311.72 444.813 311.52 444.24C311.32 443.653 311.114 443.06 310.9 442.46H304.62L303.36 446H301.34C301.874 444.533 302.374 443.18 302.84 441.94C303.307 440.687 303.76 439.5 304.2 438.38C304.654 437.26 305.1 436.193 305.54 435.18C305.98 434.153 306.44 433.14 306.92 432.14H308.7C309.18 433.14 309.64 434.153 310.08 435.18C310.52 436.193 310.96 437.26 311.4 438.38C311.854 439.5 312.314 440.687 312.78 441.94C313.247 443.18 313.747 444.533 314.28 446H312.16ZM310.34 440.86C309.914 439.7 309.487 438.58 309.06 437.5C308.647 436.407 308.214 435.36 307.76 434.36C307.294 435.36 306.847 436.407 306.42 437.5C306.007 438.58 305.594 439.7 305.18 440.86H310.34ZM325.032 435.6C324.512 437.547 323.899 439.413 323.192 441.2C322.499 442.987 321.826 444.587 321.172 446H319.492C318.839 444.587 318.159 442.987 317.452 441.2C316.759 439.413 316.152 437.547 315.632 435.6H317.632C317.792 436.253 317.979 436.953 318.192 437.7C318.419 438.433 318.652 439.167 318.892 439.9C319.146 440.62 319.399 441.32 319.652 442C319.906 442.68 320.146 443.287 320.372 443.82C320.599 443.287 320.839 442.68 321.092 442C321.346 441.32 321.592 440.62 321.832 439.9C322.086 439.167 322.319 438.433 322.532 437.7C322.759 436.953 322.952 436.253 323.112 435.6H325.032ZM329.748 444.92C329.748 445.28 329.628 445.593 329.388 445.86C329.148 446.127 328.822 446.26 328.408 446.26C327.995 446.26 327.668 446.127 327.428 445.86C327.188 445.593 327.068 445.28 327.068 444.92C327.068 444.56 327.188 444.247 327.428 443.98C327.668 443.713 327.995 443.58 328.408 443.58C328.822 443.58 329.148 443.713 329.388 443.98C329.628 444.247 329.748 444.56 329.748 444.92ZM343.039 444.62C345.066 444.62 346.079 443.927 346.079 442.54C346.079 442.113 345.986 441.753 345.799 441.46C345.626 441.153 345.386 440.893 345.079 440.68C344.773 440.453 344.419 440.26 344.019 440.1C343.633 439.94 343.219 439.78 342.779 439.62C342.273 439.447 341.793 439.253 341.339 439.04C340.886 438.813 340.493 438.553 340.159 438.26C339.826 437.953 339.559 437.593 339.359 437.18C339.173 436.767 339.079 436.267 339.079 435.68C339.079 434.467 339.493 433.52 340.319 432.84C341.146 432.16 342.286 431.82 343.739 431.82C344.579 431.82 345.339 431.913 346.019 432.1C346.713 432.273 347.219 432.467 347.539 432.68L346.919 434.26C346.639 434.087 346.219 433.92 345.659 433.76C345.113 433.587 344.473 433.5 343.739 433.5C343.366 433.5 343.019 433.54 342.699 433.62C342.379 433.7 342.099 433.82 341.859 433.98C341.619 434.14 341.426 434.347 341.279 434.6C341.146 434.84 341.079 435.127 341.079 435.46C341.079 435.833 341.153 436.147 341.299 436.4C341.446 436.653 341.653 436.88 341.919 437.08C342.186 437.267 342.493 437.44 342.839 437.6C343.199 437.76 343.593 437.92 344.019 438.08C344.619 438.32 345.166 438.56 345.659 438.8C346.166 439.04 346.599 439.327 346.959 439.66C347.333 439.993 347.619 440.393 347.819 440.86C348.019 441.313 348.119 441.867 348.119 442.52C348.119 443.733 347.673 444.667 346.779 445.32C345.899 445.973 344.653 446.3 343.039 446.3C342.493 446.3 341.986 446.26 341.519 446.18C341.066 446.113 340.659 446.033 340.299 445.94C339.939 445.833 339.626 445.727 339.359 445.62C339.106 445.5 338.906 445.4 338.759 445.32L339.339 443.72C339.646 443.893 340.113 444.087 340.739 444.3C341.366 444.513 342.133 444.62 343.039 444.62ZM355.164 444.66C355.604 444.66 355.99 444.653 356.324 444.64C356.67 444.613 356.957 444.573 357.184 444.52V441.42C357.05 441.353 356.83 441.3 356.524 441.26C356.23 441.207 355.87 441.18 355.444 441.18C355.164 441.18 354.864 441.2 354.544 441.24C354.237 441.28 353.95 441.367 353.684 441.5C353.43 441.62 353.217 441.793 353.044 442.02C352.87 442.233 352.784 442.52 352.784 442.88C352.784 443.547 352.997 444.013 353.424 444.28C353.85 444.533 354.43 444.66 355.164 444.66ZM355.004 435.34C355.75 435.34 356.377 435.44 356.884 435.64C357.404 435.827 357.817 436.1 358.124 436.46C358.444 436.807 358.67 437.227 358.804 437.72C358.937 438.2 359.004 438.733 359.004 439.32V445.82C358.844 445.847 358.617 445.887 358.324 445.94C358.044 445.98 357.724 446.02 357.364 446.06C357.004 446.1 356.61 446.133 356.184 446.16C355.77 446.2 355.357 446.22 354.944 446.22C354.357 446.22 353.817 446.16 353.324 446.04C352.83 445.92 352.404 445.733 352.044 445.48C351.684 445.213 351.404 444.867 351.204 444.44C351.004 444.013 350.904 443.5 350.904 442.9C350.904 442.327 351.017 441.833 351.244 441.42C351.484 441.007 351.804 440.673 352.204 440.42C352.604 440.167 353.07 439.98 353.604 439.86C354.137 439.74 354.697 439.68 355.284 439.68C355.47 439.68 355.664 439.693 355.864 439.72C356.064 439.733 356.25 439.76 356.424 439.8C356.61 439.827 356.77 439.853 356.904 439.88C357.037 439.907 357.13 439.927 357.184 439.94V439.42C357.184 439.113 357.15 438.813 357.084 438.52C357.017 438.213 356.897 437.947 356.724 437.72C356.55 437.48 356.31 437.293 356.004 437.16C355.71 437.013 355.324 436.94 354.844 436.94C354.23 436.94 353.69 436.987 353.224 437.08C352.77 437.16 352.43 437.247 352.204 437.34L351.984 435.8C352.224 435.693 352.624 435.593 353.184 435.5C353.744 435.393 354.35 435.34 355.004 435.34ZM367.233 435.38C367.393 435.38 367.573 435.393 367.773 435.42C367.986 435.433 368.193 435.46 368.393 435.5C368.593 435.527 368.773 435.56 368.933 435.6C369.106 435.627 369.233 435.653 369.313 435.68L368.993 437.3C368.846 437.247 368.6 437.187 368.253 437.12C367.92 437.04 367.486 437 366.953 437C366.606 437 366.26 437.04 365.913 437.12C365.58 437.187 365.36 437.233 365.253 437.26V446H363.393V436.04C363.833 435.88 364.38 435.733 365.033 435.6C365.686 435.453 366.42 435.38 367.233 435.38ZM372.408 435.9C372.834 435.793 373.394 435.68 374.088 435.56C374.794 435.44 375.608 435.38 376.528 435.38C377.194 435.38 377.754 435.473 378.208 435.66C378.661 435.833 379.041 436.093 379.348 436.44C379.441 436.373 379.588 436.28 379.788 436.16C379.988 436.04 380.234 435.927 380.528 435.82C380.821 435.7 381.148 435.6 381.508 435.52C381.868 435.427 382.254 435.38 382.668 435.38C383.468 435.38 384.121 435.5 384.628 435.74C385.134 435.967 385.528 436.293 385.808 436.72C386.101 437.147 386.294 437.653 386.388 438.24C386.494 438.827 386.548 439.467 386.548 440.16V446H384.688V440.56C384.688 439.947 384.654 439.42 384.588 438.98C384.534 438.54 384.421 438.173 384.248 437.88C384.088 437.587 383.861 437.373 383.568 437.24C383.288 437.093 382.921 437.02 382.468 437.02C381.841 437.02 381.321 437.107 380.908 437.28C380.508 437.44 380.234 437.587 380.088 437.72C380.194 438.067 380.274 438.447 380.328 438.86C380.381 439.273 380.408 439.707 380.408 440.16V446H378.548V440.56C378.548 439.947 378.514 439.42 378.448 438.98C378.381 438.54 378.261 438.173 378.088 437.88C377.928 437.587 377.701 437.373 377.408 437.24C377.128 437.093 376.768 437.02 376.328 437.02C376.141 437.02 375.941 437.027 375.728 437.04C375.514 437.053 375.308 437.073 375.108 437.1C374.921 437.113 374.748 437.133 374.588 437.16C374.428 437.187 374.321 437.207 374.268 437.22V446H372.408V435.9ZM392.794 446H390.934V435.6H392.794V446ZM391.854 433.72C391.521 433.72 391.234 433.613 390.994 433.4C390.768 433.173 390.654 432.873 390.654 432.5C390.654 432.127 390.768 431.833 390.994 431.62C391.234 431.393 391.521 431.28 391.854 431.28C392.188 431.28 392.468 431.393 392.694 431.62C392.934 431.833 393.054 432.127 393.054 432.5C393.054 432.873 392.934 433.173 392.694 433.4C392.468 433.613 392.188 433.72 391.854 433.72ZM396.713 440.82C396.713 439.9 396.846 439.1 397.113 438.42C397.38 437.727 397.733 437.153 398.173 436.7C398.613 436.247 399.12 435.907 399.693 435.68C400.266 435.453 400.853 435.34 401.453 435.34C402.853 435.34 403.926 435.78 404.673 436.66C405.42 437.527 405.793 438.853 405.793 440.64C405.793 440.72 405.793 440.827 405.793 440.96C405.793 441.08 405.786 441.193 405.773 441.3H398.653C398.733 442.38 399.046 443.2 399.593 443.76C400.14 444.32 400.993 444.6 402.153 444.6C402.806 444.6 403.353 444.547 403.793 444.44C404.246 444.32 404.586 444.207 404.813 444.1L405.073 445.66C404.846 445.78 404.446 445.907 403.873 446.04C403.313 446.173 402.673 446.24 401.953 446.24C401.046 446.24 400.26 446.107 399.593 445.84C398.94 445.56 398.4 445.18 397.973 444.7C397.546 444.22 397.226 443.653 397.013 443C396.813 442.333 396.713 441.607 396.713 440.82ZM403.853 439.8C403.866 438.96 403.653 438.273 403.213 437.74C402.786 437.193 402.193 436.92 401.433 436.92C401.006 436.92 400.626 437.007 400.293 437.18C399.973 437.34 399.7 437.553 399.473 437.82C399.246 438.087 399.066 438.393 398.933 438.74C398.813 439.087 398.733 439.44 398.693 439.8H403.853ZM409.765 435.9C410.192 435.793 410.758 435.68 411.465 435.56C412.172 435.44 412.985 435.38 413.905 435.38C414.732 435.38 415.418 435.5 415.965 435.74C416.512 435.967 416.945 436.293 417.265 436.72C417.598 437.133 417.832 437.633 417.965 438.22C418.098 438.807 418.165 439.453 418.165 440.16V446H416.305V440.56C416.305 439.92 416.258 439.373 416.165 438.92C416.085 438.467 415.945 438.1 415.745 437.82C415.545 437.54 415.278 437.34 414.945 437.22C414.612 437.087 414.198 437.02 413.705 437.02C413.505 437.02 413.298 437.027 413.085 437.04C412.872 437.053 412.665 437.073 412.465 437.1C412.278 437.113 412.105 437.133 411.945 437.16C411.798 437.187 411.692 437.207 411.625 437.22V446H409.765V435.9ZM424.289 435.6H428.229V437.16H424.289V441.96C424.289 442.48 424.329 442.913 424.409 443.26C424.489 443.593 424.609 443.86 424.769 444.06C424.929 444.247 425.129 444.38 425.369 444.46C425.609 444.54 425.889 444.58 426.209 444.58C426.769 444.58 427.216 444.52 427.549 444.4C427.896 444.267 428.136 444.173 428.269 444.12L428.629 445.66C428.443 445.753 428.116 445.867 427.649 446C427.183 446.147 426.649 446.22 426.049 446.22C425.343 446.22 424.756 446.133 424.289 445.96C423.836 445.773 423.469 445.5 423.189 445.14C422.909 444.78 422.709 444.34 422.589 443.82C422.483 443.287 422.429 442.673 422.429 441.98V432.7L424.289 432.38V435.6ZM440.803 440.8C440.803 441.627 440.683 442.373 440.443 443.04C440.203 443.707 439.863 444.28 439.423 444.76C438.996 445.24 438.483 445.613 437.883 445.88C437.283 446.133 436.629 446.26 435.923 446.26C435.216 446.26 434.563 446.133 433.963 445.88C433.363 445.613 432.843 445.24 432.403 444.76C431.976 444.28 431.643 443.707 431.403 443.04C431.163 442.373 431.043 441.627 431.043 440.8C431.043 439.987 431.163 439.247 431.403 438.58C431.643 437.9 431.976 437.32 432.403 436.84C432.843 436.36 433.363 435.993 433.963 435.74C434.563 435.473 435.216 435.34 435.923 435.34C436.629 435.34 437.283 435.473 437.883 435.74C438.483 435.993 438.996 436.36 439.423 436.84C439.863 437.32 440.203 437.9 440.443 438.58C440.683 439.247 440.803 439.987 440.803 440.8ZM438.863 440.8C438.863 439.627 438.596 438.7 438.063 438.02C437.543 437.327 436.829 436.98 435.923 436.98C435.016 436.98 434.296 437.327 433.763 438.02C433.243 438.7 432.983 439.627 432.983 440.8C432.983 441.973 433.243 442.907 433.763 443.6C434.296 444.28 435.016 444.62 435.923 444.62C436.829 444.62 437.543 444.28 438.063 443.6C438.596 442.907 438.863 441.973 438.863 440.8Z" fill="white"/>
<path d="M67.5908 125.562V158.198H22V309.419L86.7738 363.73H564.107V0L268.888 38.1169V125.562H67.5908Z" fill="#002755"/>
<path d="M293.552 155.208V51.8194L530.724 19.6816L553.146 351.025L105.708 342.305L52.1453 288.991V172.149H171.229L293.552 155.208Z" fill="#8CBBF2"/>
<path d="M337.896 341.059V298.956C338.229 295.717 337.797 287.945 333.412 282.763C329.027 277.581 320.789 276.285 317.219 276.285H230.917C229.406 276.285 227.977 276.968 227.027 278.144L223.787 282.155C223.47 282.548 223.297 283.038 223.297 283.543V283.543C223.297 284.763 222.308 285.752 221.088 285.752H219.186C216.916 285.752 215.075 287.593 215.075 289.863V292.479" stroke="white"/>
<path d="M373.273 341.308V296.221C373.273 294.938 373.766 293.704 374.65 292.775L391.227 275.348C392.171 274.356 393.48 273.794 394.85 273.794H423.846" stroke="white"/>
<path d="M106.704 319.385L69.2931 281.734C68.3624 280.797 67.8399 279.53 67.8399 278.21V271.818C67.8399 269.057 65.6014 266.818 62.8399 266.818H53.3904C51.189 266.818 49.4043 268.603 49.4043 270.804V270.804M49.4043 270.804H74.8156C76.4667 270.804 77.8051 269.466 77.8051 267.815V267.815C77.8051 266.164 76.4667 264.825 74.8156 264.825V264.825C73.1645 264.825 71.826 263.487 71.826 261.836V255.607V223.985C71.826 221.224 69.5874 218.985 66.826 218.985H50.9165C48.1551 218.985 45.9165 221.224 45.9165 223.985V267.317C45.9165 269.243 47.4781 270.804 49.4043 270.804V270.804Z" stroke="white"/>
<path d="M78.0543 137.021V171.401H286.825V137.021H78.0543Z" fill="#8CBBF2" stroke="white" stroke-width="3"/>
<path d="M47.4108 176.384V168.91H56.1303V170.654H69.5833V168.91H77.8046V176.384H76.0607V207.774H79.2994V223.22H76.0607V254.611H77.8046V261.337H70.5799V259.593H53.8881V261.337H47.4108V254.611H49.1547V223.22H45.4177V207.774H49.1547V176.384H47.4108Z" fill="#8CBBF2" stroke="white" stroke-width="2"/>
<path d="M141.085 207.276H100.227C97.7507 207.276 95.743 209.284 95.743 211.76C95.743 214.237 97.7507 216.245 100.227 216.245H141.085C143.561 216.245 145.569 214.237 145.569 211.76C145.569 209.284 143.561 207.276 141.085 207.276Z" fill="#002755" stroke="white" stroke-width="2"/>
<path d="M140.569 219.234H100.743C97.9816 219.234 95.743 221.473 95.743 224.234V241.639C95.743 244.4 97.9816 246.639 100.743 246.639H140.569C143.33 246.639 145.569 244.4 145.569 241.639V224.234C145.569 221.473 143.33 219.234 140.569 219.234Z" fill="#002755" stroke="white" stroke-width="2"/>
<path d="M372.259 162.931H341.402C338.641 162.931 336.402 165.17 336.402 167.931V235.161C336.402 237.923 338.641 240.161 341.402 240.161H372.259C375.021 240.161 377.259 237.923 377.259 235.161V167.931C377.259 165.17 375.021 162.931 372.259 162.931Z" fill="white" stroke="#002755" stroke-width="2"/>
<path d="M313.963 162.931H287.092C284.33 162.931 282.092 165.17 282.092 167.931V235.161C282.092 237.923 284.33 240.161 287.092 240.161H313.963C316.724 240.161 318.963 237.923 318.963 235.161V167.931C318.963 165.17 316.724 162.931 313.963 162.931Z" fill="#002755" stroke="white" stroke-width="2"/>
<path d="M427.068 162.931H400.197C397.436 162.931 395.197 165.17 395.197 167.931V235.161C395.197 237.923 397.436 240.161 400.197 240.161H427.068C429.83 240.161 432.068 237.923 432.068 235.161V167.931C432.068 165.17 429.83 162.931 427.068 162.931Z" fill="#002755" stroke="white" stroke-width="2"/>
<path d="M359.055 108.372H342.648C339.886 108.372 337.648 110.61 337.648 113.372V133.722C337.648 135.325 336.879 136.831 335.58 137.771L331.504 140.723C330.796 141.236 329.962 141.518 329.094 141.628C327.523 141.828 325.689 142.453 325.689 145.492C325.689 146.902 326.022 147.854 326.51 148.515C327.81 150.274 329.676 151.715 329.676 153.902V155.44C329.676 158.201 331.914 160.44 334.676 160.44H373.007C375.768 160.44 378.007 158.201 378.007 155.44V148.083C378.007 146.458 378.864 145.002 379.985 143.826C381.066 142.691 381.954 141.196 381.495 139.513C380.946 137.501 379.188 136.742 377.701 136.448C376.772 136.265 375.853 135.982 375.082 135.431L366.149 129.05C364.835 128.112 364.055 126.596 364.055 124.982V113.372C364.055 110.61 361.817 108.372 359.055 108.372Z" fill="#B8311E" stroke="white" stroke-width="2"/>
<path d="M374.003 101.396H333.181C330.419 101.396 328.181 99.1576 328.181 96.3961V50.0928C328.181 47.3313 330.419 45.0928 333.181 45.0928H378.986C381.747 45.0928 383.986 47.3313 383.986 50.0928V68.9312C383.986 70.2573 383.459 71.5291 382.521 72.4668L380.468 74.5204C379.53 75.4581 379.003 76.7299 379.003 78.056V96.3962C379.003 99.1576 376.765 101.396 374.003 101.396Z" fill="#B8311E" stroke="white" stroke-width="2"/>
<path d="M320.973 65.7702H323.181C325.942 65.7702 328.181 68.0088 328.181 70.7702V96.3958C328.181 99.1572 325.942 101.396 323.181 101.396H307.52C304.759 101.396 302.52 99.1573 302.52 96.3958V93.9393C302.52 91.1779 304.759 88.9393 307.52 88.9393H310.973C313.735 88.9393 315.973 86.7007 315.973 83.9393V70.7702C315.973 68.0088 318.212 65.7702 320.973 65.7702Z" fill="#B8311E" stroke="white" stroke-width="2"/>
<path d="M394.744 285.32L425.098 251.772C426.046 250.724 427.393 250.126 428.805 250.126H517.897C520.394 250.126 522.507 251.968 522.85 254.44L533.872 334.02C534.305 337.146 531.77 339.886 528.62 339.697L398.153 331.874C395.512 331.715 393.452 329.528 393.452 326.883V288.675C393.452 287.435 393.913 286.239 394.744 285.32Z" fill="#FFC700" stroke="white" stroke-width="2"/>
<path d="M362.543 245.642H352.115C349.353 245.642 347.115 247.881 347.115 250.642V256.015C347.115 256.57 347.203 257.119 347.443 257.619C348.336 259.479 351.167 264.078 357.329 264.078C363.491 264.078 366.322 259.479 367.215 257.619C367.455 257.119 367.543 256.57 367.543 256.015V250.642C367.543 247.881 365.305 245.642 362.543 245.642Z" fill="#8CBBF2" stroke="white" stroke-width="2"/>
<path d="M331.402 162.931H326.454C323.693 162.931 321.454 165.17 321.454 167.931V186.83C321.454 189.591 323.693 191.83 326.454 191.83H331.402C334.163 191.83 336.402 189.591 336.402 186.83V167.931C336.402 165.17 334.163 162.931 331.402 162.931Z" fill="white" stroke="#002755" stroke-width="2"/>
<path d="M331.402 211.262H326.454C323.693 211.262 321.454 213.5 321.454 216.262V235.161C321.454 237.922 323.693 240.161 326.454 240.161H331.402C334.163 240.161 336.402 237.922 336.402 235.161V216.262C336.402 213.5 334.163 211.262 331.402 211.262Z" fill="white" stroke="#002755" stroke-width="2"/>
<path d="M387.207 211.76H382.259C379.498 211.76 377.259 213.999 377.259 216.76V235.659C377.259 238.421 379.498 240.659 382.259 240.659H387.207C389.968 240.659 392.207 238.421 392.207 235.659V216.76C392.207 213.999 389.968 211.76 387.207 211.76Z" fill="white" stroke="#002755" stroke-width="2"/>
<path d="M387.207 162.931H382.259C379.498 162.931 377.259 165.17 377.259 167.931V186.83C377.259 189.591 379.498 191.83 382.259 191.83H387.207C389.968 191.83 392.207 189.591 392.207 186.83V167.931C392.207 165.17 389.968 162.931 387.207 162.931Z" fill="white" stroke="#002755" stroke-width="2"/>
<path d="M193.384 257.102H99.8256C96.7617 257.102 94.4184 259.833 94.8836 262.862L105.057 329.095C105.431 331.535 107.53 333.336 109.999 333.336H193.384C196.146 333.336 198.384 331.098 198.384 328.336V262.102C198.384 259.341 196.146 257.102 193.384 257.102Z" fill="white" stroke="#002755" stroke-width="2"/>
<path d="M221.934 288.493H218.435C217.268 288.493 216.321 289.439 216.321 290.606C216.321 291.167 216.099 291.705 215.702 292.101L215.076 292.728C214.278 293.525 213.83 294.607 213.83 295.735V304.256C213.83 305.322 214.283 306.339 215.076 307.053L215.58 307.506C216.052 307.931 216.321 308.537 216.321 309.172C216.321 310.409 217.325 311.412 218.562 311.412H222.648C224.933 311.412 226.785 313.294 226.785 315.578C226.785 316.724 227.271 317.829 228.123 318.596C228.865 319.264 229.829 319.634 230.827 319.634H235.001C235.955 319.634 236.864 319.226 237.497 318.513C238.131 317.8 239.04 317.392 239.994 317.392H268.87C271.632 317.392 273.87 315.153 273.87 312.392V294.223C273.87 293.672 274.317 293.226 274.867 293.226C275.417 293.226 275.864 292.78 275.864 292.229V286.766C275.864 284.005 273.625 281.766 270.863 281.766H239.192C238.127 281.766 237.127 281.257 236.501 280.396C235.875 279.535 234.875 279.026 233.81 279.026H231.253C229.994 279.026 228.793 279.557 227.947 280.488C227.199 281.31 226.785 282.382 226.785 283.493V283.641C226.785 286.321 224.613 288.493 221.934 288.493Z" fill="white" stroke="#002755" stroke-width="2"/>
<path d="M212.318 219.234H155.551C152.79 219.234 150.551 221.473 150.551 224.234V241.639C150.551 244.4 152.79 246.639 155.551 246.639H212.318C215.08 246.639 217.318 244.4 217.318 241.639V224.234C217.318 221.473 215.08 219.234 212.318 219.234Z" fill="#002755" stroke="white" stroke-width="2"/>
<path d="M210.886 174.58L155.361 176.699C152.675 176.802 150.551 179.008 150.551 181.695V199.287C150.551 202.048 152.79 204.287 155.551 204.287H212.062C214.921 204.287 217.198 201.893 217.056 199.037L216.07 179.326C215.933 176.592 213.622 174.475 210.886 174.58Z" fill="#002755" stroke="white" stroke-width="2"/>
<path d="M212.834 207.276H155.036C152.559 207.276 150.551 209.284 150.551 211.76C150.551 214.237 152.559 216.245 155.036 216.245H212.834C215.31 216.245 217.318 214.237 217.318 211.76C217.318 209.284 215.31 207.276 212.834 207.276Z" fill="#002755" stroke="white" stroke-width="2"/>
<path d="M104.195 184.606H100.244C97.4828 184.606 95.2442 186.844 95.2442 189.606V199.287C95.2442 202.048 97.4828 204.287 100.244 204.287H104.195C106.957 204.287 109.195 202.048 109.195 199.287V189.606C109.195 186.844 106.957 184.606 104.195 184.606Z" fill="#002755" stroke="white" stroke-width="2"/>
<path d="M140.817 204.536H115.441C112.679 204.536 110.441 202.297 110.441 199.536V181.135C110.441 178.373 112.679 176.135 115.441 176.135H140.817C143.578 176.135 145.817 178.373 145.817 181.135V199.536C145.817 202.297 143.578 204.536 140.817 204.536Z" fill="#002755" stroke="white" stroke-width="2"/>
<path d="M257.391 204.287H225.307C222.546 204.287 220.307 202.048 220.307 199.287V176.463C220.307 173.985 222.123 171.88 224.575 171.517L255.228 166.976C258.144 166.544 260.8 168.716 260.954 171.661L262.384 199.026C262.534 201.886 260.255 204.287 257.391 204.287Z" fill="#002755" stroke="white" stroke-width="2"/>
<path d="M257.909 208.771H226.304C223.543 208.771 221.304 211.009 221.304 213.771V241.14C221.304 243.901 223.543 246.14 226.304 246.14H233.494C236.255 246.14 238.494 243.902 238.494 241.14V234.68C238.494 233.029 239.833 231.691 241.484 231.691C243.135 231.691 244.473 233.029 244.473 234.68V242.884C244.473 245.645 246.712 247.884 249.473 247.884H257.909C260.67 247.884 262.909 245.645 262.909 242.884V213.771C262.909 211.009 260.67 208.771 257.909 208.771Z" fill="#002755" stroke="white" stroke-width="2"/>
<path d="M517.866 259.095H449.026C446.264 259.095 444.026 256.857 444.026 254.095V149.495C444.026 146.734 446.264 144.495 449.026 144.495H500.812C503.263 144.495 505.352 146.272 505.747 148.691L522.801 253.291C523.297 256.333 520.949 259.095 517.866 259.095Z" fill="#FFC700" stroke="white" stroke-width="2"/>
<path d="M385.882 69.972L443.268 61.4105C444.706 61.1959 445.77 59.9609 445.77 58.5067C445.77 56.9798 446.941 55.7078 448.462 55.581L501.676 51.1465C503.96 50.9562 506.081 52.3432 506.822 54.512L521.205 96.5876C521.719 98.0902 520.602 99.6522 519.014 99.6522H518.035C515.274 99.6522 513.035 101.891 513.035 104.652V139.056C513.035 141.794 510.832 144.023 508.094 144.056L453.814 144.697C451.565 144.723 449.756 146.554 449.756 148.803C449.756 151.093 447.883 152.94 445.593 152.908L399.777 152.275C397.513 152.244 395.695 150.4 395.695 148.136V146.562C395.695 145.146 394.547 143.997 393.13 143.997C392.246 143.997 391.424 143.542 390.956 142.792L380.012 125.283C379.516 124.488 379.252 123.57 379.252 122.633V77.783C379.252 76.6207 379.657 75.4947 380.398 74.5986L382.765 71.7329C383.551 70.7813 384.661 70.1541 385.882 69.972Z" fill="#B8311E" stroke="white" stroke-width="2"/>
<path d="M354.406 373.634C354.406 374.462 355.077 375.134 355.906 375.134C356.734 375.134 357.406 374.462 357.406 373.634L354.406 373.634ZM356.966 331.899C356.381 331.314 355.431 331.314 354.845 331.899L345.299 341.445C344.713 342.031 344.713 342.981 345.299 343.567C345.885 344.152 346.835 344.152 347.42 343.567L355.906 335.081L364.391 343.567C364.977 344.152 365.927 344.152 366.512 343.567C367.098 342.981 367.098 342.031 366.512 341.445L356.966 331.899ZM357.406 373.634L357.406 332.96L354.406 332.96L354.406 373.634L357.406 373.634Z" fill="white"/>
<path d="M45.0388 344.809C44.453 345.395 44.453 346.345 45.0388 346.931C45.6246 347.517 46.5743 347.517 47.1601 346.931L45.0388 344.809ZM74.0849 319.385C74.0849 318.556 73.4133 317.885 72.5849 317.885L59.0849 317.885C58.2565 317.885 57.5849 318.556 57.5849 319.385C57.5849 320.213 58.2565 320.885 59.0849 320.885L71.0849 320.885L71.0849 332.885C71.0849 333.713 71.7565 334.385 72.5849 334.385C73.4133 334.385 74.0849 333.713 74.0849 332.885L74.0849 319.385ZM47.1601 346.931L73.6456 320.445L71.5242 318.324L45.0388 344.809L47.1601 346.931Z" fill="white"/>
<circle cx="500.829" cy="55.3068" r="10.4635" fill="#002755"/>
<path d="M497.133 67.7443C497.487 67.7443 497.833 67.6343 498.127 67.4281C498.421 67.2219 498.65 66.9288 498.785 66.5859C498.92 66.243 498.956 65.8656 498.887 65.5016C498.818 65.1376 498.648 64.8032 498.398 64.5408C498.148 64.2783 497.829 64.0996 497.482 64.0272C497.135 63.9548 496.776 63.9919 496.449 64.134C496.123 64.276 495.843 64.5165 495.647 64.8251C495.45 65.1337 495.346 65.4966 495.346 65.8677C495.346 66.3653 495.535 66.8423 495.87 67.1941C496.205 67.5459 496.659 67.7438 497.133 67.7443ZM497.133 64.9611C497.304 64.9611 497.471 65.0142 497.613 65.1139C497.755 65.2135 497.866 65.3551 497.931 65.5208C497.997 65.6864 498.014 65.8687 497.981 66.0446C497.947 66.2205 497.865 66.382 497.744 66.5088C497.623 66.6356 497.469 66.722 497.302 66.757C497.134 66.7919 496.961 66.774 496.803 66.7054C496.645 66.6367 496.51 66.5205 496.415 66.3714C496.32 66.2223 496.27 66.047 496.27 65.8677C496.27 65.6273 496.361 65.3969 496.523 65.2269C496.685 65.057 496.904 64.9613 497.133 64.9611ZM498.404 68.1134H495.863C495.495 68.1138 495.143 68.2672 494.883 68.54C494.623 68.8127 494.477 69.1826 494.477 69.5683V74.1755H495.401V78.5403H498.866V74.1755H499.79V69.5683C499.79 69.1826 499.644 68.8127 499.384 68.54C499.124 68.2672 498.771 68.1138 498.404 68.1134ZM498.866 73.2056H497.942V77.5703H496.325V73.2056H495.401V69.5683C495.401 69.4397 495.45 69.3165 495.536 69.2255C495.623 69.1346 495.74 69.0835 495.863 69.0833H498.404C498.526 69.0835 498.644 69.1346 498.731 69.2255C498.817 69.3165 498.866 69.4397 498.866 69.5683V73.2056ZM504.009 67.7443C504.362 67.7443 504.708 67.6343 505.002 67.4281C505.296 67.2219 505.525 66.9288 505.66 66.5859C505.796 66.243 505.831 65.8656 505.762 65.5016C505.693 65.1376 505.523 64.8032 505.273 64.5408C505.023 64.2783 504.704 64.0996 504.357 64.0272C504.011 63.9548 503.651 63.9919 503.324 64.134C502.998 64.276 502.719 64.5165 502.522 64.8251C502.326 65.1337 502.221 65.4966 502.221 65.8677C502.221 66.3653 502.41 66.8423 502.745 67.1941C503.08 67.5459 503.535 67.7438 504.009 67.7443ZM504.009 64.9611C504.179 64.9611 504.346 65.0142 504.488 65.1139C504.63 65.2135 504.741 65.3551 504.807 65.5208C504.872 65.6864 504.889 65.8687 504.856 66.0446C504.822 66.2205 504.74 66.382 504.619 66.5088C504.499 66.6356 504.345 66.722 504.177 66.757C504.01 66.7919 503.836 66.774 503.678 66.7054C503.52 66.6367 503.385 66.5205 503.29 66.3714C503.195 66.2223 503.145 66.047 503.145 65.8677C503.145 65.6273 503.236 65.3969 503.398 65.2269C503.56 65.057 503.78 64.9613 504.009 64.9611ZM505.616 69.3669C505.496 69.0043 505.272 68.6895 504.976 68.4652C504.679 68.2409 504.323 68.1181 503.958 68.1135C503.592 68.1089 503.234 68.2227 502.932 68.4394C502.631 68.6562 502.4 68.9653 502.271 69.3247L500.483 74.3301V75.6304H502.331V78.5403H505.334V75.6304H507.182V74.0937L505.616 69.3669ZM506.258 74.6605H504.41V77.5703H503.255V74.6605H501.407V74.5059L503.137 69.6653C503.198 69.4926 503.309 69.3441 503.454 69.24C503.599 69.1359 503.771 69.0812 503.947 69.0835C504.122 69.0857 504.293 69.1447 504.436 69.2524C504.578 69.3602 504.686 69.5114 504.743 69.6856L506.258 74.2574V74.6605Z" fill="white"/>
<circle cx="531.72" cy="315.399" r="10.4635" fill="#002755"/>
<path d="M528.024 341.426C528.377 341.426 528.723 341.316 529.017 341.109C529.311 340.903 529.54 340.61 529.675 340.267C529.811 339.924 529.846 339.547 529.777 339.183C529.708 338.819 529.538 338.484 529.288 338.222C529.038 337.96 528.719 337.781 528.372 337.708C528.026 337.636 527.666 337.673 527.339 337.815C527.013 337.957 526.734 338.198 526.537 338.506C526.341 338.815 526.236 339.178 526.236 339.549C526.236 340.046 526.425 340.523 526.76 340.875C527.095 341.227 527.55 341.425 528.024 341.426ZM528.024 338.642C528.194 338.642 528.361 338.695 528.503 338.795C528.645 338.895 528.756 339.036 528.822 339.202C528.887 339.368 528.904 339.55 528.871 339.726C528.837 339.902 528.755 340.063 528.634 340.19C528.514 340.317 528.36 340.403 528.192 340.438C528.025 340.473 527.851 340.455 527.693 340.387C527.535 340.318 527.4 340.202 527.305 340.053C527.21 339.904 527.16 339.728 527.16 339.549C527.16 339.309 527.251 339.078 527.413 338.908C527.575 338.738 527.795 338.643 528.024 338.642ZM529.294 341.795H526.753C526.386 341.795 526.033 341.948 525.773 342.221C525.514 342.494 525.367 342.864 525.367 343.25V347.857H526.291V352.222H529.756V347.857H530.68V343.25C530.68 342.864 530.534 342.494 530.274 342.221C530.014 341.948 529.662 341.795 529.294 341.795ZM529.756 346.887H528.832V351.252H527.215V346.887H526.291V343.25C526.291 343.121 526.34 342.998 526.426 342.907C526.513 342.816 526.631 342.765 526.753 342.765H529.294C529.417 342.765 529.534 342.816 529.621 342.907C529.707 342.998 529.756 343.121 529.756 343.25V346.887ZM534.899 341.426C535.252 341.426 535.598 341.316 535.892 341.109C536.186 340.903 536.415 340.61 536.55 340.267C536.686 339.924 536.721 339.547 536.652 339.183C536.583 338.819 536.413 338.484 536.163 338.222C535.913 337.96 535.594 337.781 535.247 337.708C534.901 337.636 534.541 337.673 534.215 337.815C533.888 337.957 533.609 338.198 533.412 338.506C533.216 338.815 533.111 339.178 533.111 339.549C533.111 340.046 533.3 340.523 533.635 340.875C533.97 341.227 534.425 341.425 534.899 341.426ZM534.899 338.642C535.07 338.642 535.237 338.695 535.379 338.795C535.521 338.895 535.631 339.036 535.697 339.202C535.762 339.368 535.779 339.55 535.746 339.726C535.713 339.902 535.63 340.063 535.509 340.19C535.389 340.317 535.235 340.403 535.067 340.438C534.9 340.473 534.726 340.455 534.568 340.387C534.41 340.318 534.275 340.202 534.181 340.053C534.086 339.904 534.035 339.728 534.035 339.549C534.035 339.309 534.126 339.078 534.288 338.908C534.45 338.738 534.67 338.643 534.899 338.642ZM536.506 343.048C536.386 342.686 536.162 342.371 535.866 342.146C535.569 341.922 535.214 341.799 534.848 341.795C534.482 341.79 534.124 341.904 533.822 342.121C533.521 342.337 533.29 342.647 533.161 343.006L531.373 348.011V349.312H533.221V352.222H536.224V349.312H538.073V347.775L536.506 343.048ZM537.149 348.342H535.3V351.252H534.145V348.342H532.297V348.187L534.027 343.347C534.088 343.174 534.199 343.025 534.344 342.921C534.489 342.817 534.661 342.762 534.837 342.765C535.013 342.767 535.183 342.826 535.326 342.934C535.468 343.041 535.576 343.193 535.633 343.367L537.149 347.939V348.342Z" fill="white"/>
<circle cx="198.385" cy="325.862" r="10.4635" fill="#002755"/>
<path d="M194.689 352.436C195.042 352.436 195.388 352.326 195.682 352.119C195.976 351.913 196.205 351.62 196.34 351.277C196.476 350.934 196.511 350.557 196.442 350.193C196.373 349.829 196.203 349.495 195.953 349.232C195.703 348.97 195.384 348.791 195.037 348.719C194.691 348.646 194.331 348.683 194.004 348.825C193.678 348.967 193.398 349.208 193.202 349.517C193.006 349.825 192.901 350.188 192.901 350.559C192.901 351.057 193.09 351.534 193.425 351.885C193.76 352.237 194.215 352.435 194.689 352.436ZM194.689 349.652C194.859 349.652 195.026 349.706 195.168 349.805C195.31 349.905 195.421 350.046 195.487 350.212C195.552 350.378 195.569 350.56 195.536 350.736C195.502 350.912 195.42 351.073 195.299 351.2C195.179 351.327 195.025 351.413 194.857 351.448C194.69 351.483 194.516 351.465 194.358 351.397C194.2 351.328 194.065 351.212 193.97 351.063C193.875 350.914 193.825 350.738 193.825 350.559C193.825 350.319 193.916 350.088 194.078 349.918C194.24 349.748 194.46 349.653 194.689 349.652ZM195.959 352.805H193.418C193.051 352.805 192.698 352.959 192.438 353.231C192.178 353.504 192.032 353.874 192.032 354.26V358.867H192.956V363.232H196.421V358.867H197.345V354.26C197.345 353.874 197.199 353.504 196.939 353.231C196.679 352.959 196.327 352.805 195.959 352.805ZM196.421 357.897H195.497V362.262H193.88V357.897H192.956V354.26C192.956 354.131 193.005 354.008 193.091 353.917C193.178 353.826 193.295 353.775 193.418 353.775H195.959C196.082 353.775 196.199 353.826 196.286 353.917C196.372 354.008 196.421 354.131 196.421 354.26V357.897ZM201.564 352.436C201.917 352.436 202.263 352.326 202.557 352.119C202.851 351.913 203.08 351.62 203.215 351.277C203.351 350.934 203.386 350.557 203.317 350.193C203.248 349.829 203.078 349.495 202.828 349.232C202.578 348.97 202.259 348.791 201.912 348.719C201.566 348.646 201.206 348.683 200.88 348.825C200.553 348.967 200.274 349.208 200.077 349.517C199.881 349.825 199.776 350.188 199.776 350.559C199.776 351.057 199.965 351.534 200.3 351.885C200.635 352.237 201.09 352.435 201.564 352.436ZM201.564 349.652C201.735 349.652 201.902 349.706 202.044 349.805C202.186 349.905 202.296 350.046 202.362 350.212C202.427 350.378 202.444 350.56 202.411 350.736C202.378 350.912 202.295 351.073 202.174 351.2C202.054 351.327 201.9 351.413 201.732 351.448C201.565 351.483 201.391 351.465 201.233 351.397C201.075 351.328 200.94 351.212 200.846 351.063C200.751 350.914 200.7 350.738 200.7 350.559C200.7 350.319 200.791 350.088 200.953 349.918C201.115 349.748 201.335 349.653 201.564 349.652ZM203.171 354.058C203.051 353.696 202.827 353.381 202.531 353.157C202.234 352.932 201.879 352.809 201.513 352.805C201.147 352.8 200.789 352.914 200.487 353.131C200.186 353.348 199.955 353.657 199.826 354.016L198.038 359.021V360.322H199.886V363.232H202.889V360.322H204.738V358.785L203.171 354.058ZM203.814 359.352H201.965V362.262H200.81V359.352H198.962V359.197L200.692 354.357C200.753 354.184 200.864 354.036 201.009 353.931C201.154 353.827 201.326 353.773 201.502 353.775C201.677 353.777 201.848 353.836 201.991 353.944C202.133 354.052 202.241 354.203 202.298 354.377L203.814 358.949V359.352Z" fill="white"/>
<g clip-path="url(#clip0_2_4400)">
<path d="M182.439 187.595C182.29 187.595 182.19 187.744 182.19 187.844V189.089H181.692V187.844C181.692 187.694 181.592 187.595 181.443 187.595C181.293 187.595 181.194 187.744 181.194 187.844V189.089H180.696V187.844C180.696 187.694 180.596 187.595 180.446 187.595C180.297 187.595 180.197 187.744 180.197 187.844V189.488C180.197 189.936 180.546 190.285 180.945 190.335V193.823C180.945 194.122 181.144 194.321 181.443 194.321C181.742 194.321 181.941 194.122 181.941 193.823V190.335C182.34 190.285 182.689 189.936 182.689 189.488V187.844C182.689 187.744 182.589 187.595 182.439 187.595ZM183.436 187.844V190.833H183.934V193.823C183.934 194.122 184.134 194.321 184.432 194.321C184.731 194.321 184.931 194.122 184.931 193.823V186.349C184.084 186.349 183.436 186.997 183.436 187.844ZM186.924 187.345C186.226 187.345 185.678 188.093 185.678 188.99C185.628 189.588 185.927 190.136 186.426 190.484V193.823C186.426 194.122 186.625 194.321 186.924 194.321C187.223 194.321 187.422 194.122 187.422 193.823V190.484C187.92 190.136 188.219 189.588 188.169 188.99C188.169 188.093 187.621 187.345 186.924 187.345Z" fill="white"/>
</g>
<path d="M126.635 187.595C126.485 187.595 126.385 187.744 126.385 187.844V189.089H125.887V187.844C125.887 187.694 125.787 187.595 125.638 187.595C125.489 187.595 125.389 187.744 125.389 187.844V189.089H124.891V187.844C124.891 187.694 124.791 187.595 124.641 187.595C124.492 187.595 124.392 187.744 124.392 187.844V189.488C124.392 189.936 124.741 190.285 125.14 190.335V193.823C125.14 194.122 125.339 194.321 125.638 194.321C125.937 194.321 126.136 194.122 126.136 193.823V190.335C126.535 190.285 126.884 189.936 126.884 189.488V187.844C126.884 187.744 126.784 187.595 126.635 187.595ZM127.631 187.844V190.833H128.129V193.823C128.129 194.122 128.329 194.321 128.628 194.321C128.927 194.321 129.126 194.122 129.126 193.823V186.349C128.279 186.349 127.631 186.997 127.631 187.844ZM131.119 187.345C130.421 187.345 129.873 188.093 129.873 188.99C129.823 189.588 130.122 190.136 130.621 190.484V193.823C130.621 194.122 130.82 194.321 131.119 194.321C131.418 194.321 131.617 194.122 131.617 193.823V190.484C132.115 190.136 132.414 189.588 132.364 188.99C132.364 188.093 131.816 187.345 131.119 187.345Z" fill="white"/>
<path d="M118.164 230.445C118.014 230.445 117.915 230.594 117.915 230.694V231.94H117.416V230.694C117.416 230.545 117.317 230.445 117.167 230.445C117.018 230.445 116.918 230.594 116.918 230.694V231.94H116.42V230.694C116.42 230.545 116.32 230.445 116.171 230.445C116.021 230.445 115.922 230.594 115.922 230.694V232.338C115.922 232.787 116.27 233.136 116.669 233.185V236.673C116.669 236.972 116.868 237.172 117.167 237.172C117.466 237.172 117.666 236.972 117.666 236.673V233.185C118.064 233.136 118.413 232.787 118.413 232.338V230.694C118.413 230.594 118.313 230.445 118.164 230.445ZM119.16 230.694V233.684H119.659V236.673C119.659 236.972 119.858 237.172 120.157 237.172C120.456 237.172 120.655 236.972 120.655 236.673V229.199C119.808 229.199 119.16 229.847 119.16 230.694ZM122.648 230.196C121.951 230.196 121.402 230.943 121.402 231.84C121.353 232.438 121.652 232.986 122.15 233.335V236.673C122.15 236.972 122.349 237.172 122.648 237.172C122.947 237.172 123.146 236.972 123.146 236.673V233.335C123.645 232.986 123.944 232.438 123.894 231.84C123.894 230.943 123.346 230.196 122.648 230.196Z" fill="white"/>
<path d="M180.945 230.445C180.795 230.445 180.696 230.594 180.696 230.694V231.94H180.197V230.694C180.197 230.545 180.098 230.445 179.948 230.445C179.799 230.445 179.699 230.594 179.699 230.694V231.94H179.201V230.694C179.201 230.545 179.101 230.445 178.952 230.445C178.802 230.445 178.703 230.594 178.703 230.694V232.338C178.703 232.787 179.051 233.136 179.45 233.185V236.673C179.45 236.972 179.649 237.172 179.948 237.172C180.247 237.172 180.447 236.972 180.447 236.673V233.185C180.845 233.136 181.194 232.787 181.194 232.338V230.694C181.194 230.594 181.094 230.445 180.945 230.445ZM181.941 230.694V233.684H182.44V236.673C182.44 236.972 182.639 237.172 182.938 237.172C183.237 237.172 183.436 236.972 183.436 236.673V229.199C182.589 229.199 181.941 229.847 181.941 230.694ZM185.429 230.196C184.732 230.196 184.183 230.943 184.183 231.84C184.134 232.438 184.433 232.986 184.931 233.335V236.673C184.931 236.972 185.13 237.172 185.429 237.172C185.728 237.172 185.927 236.972 185.927 236.673V233.335C186.426 232.986 186.725 232.438 186.675 231.84C186.675 230.943 186.127 230.196 185.429 230.196Z" fill="white"/>
<path d="M239.739 184.107C239.589 184.107 239.49 184.257 239.49 184.356V185.602H238.992V184.356C238.992 184.207 238.892 184.107 238.742 184.107C238.593 184.107 238.493 184.257 238.493 184.356V185.602H237.995V184.356C237.995 184.207 237.895 184.107 237.746 184.107C237.596 184.107 237.497 184.257 237.497 184.356V186C237.497 186.449 237.846 186.798 238.244 186.847V190.335C238.244 190.634 238.443 190.834 238.742 190.834C239.041 190.834 239.241 190.634 239.241 190.335V186.847C239.639 186.798 239.988 186.449 239.988 186V184.356C239.988 184.257 239.888 184.107 239.739 184.107ZM240.735 184.356V187.346H241.234V190.335C241.234 190.634 241.433 190.834 241.732 190.834C242.031 190.834 242.23 190.634 242.23 190.335V182.861C241.383 182.861 240.735 183.509 240.735 184.356ZM244.223 183.858C243.526 183.858 242.978 184.605 242.978 185.502C242.928 186.1 243.227 186.648 243.725 186.997V190.335C243.725 190.634 243.924 190.834 244.223 190.834C244.522 190.834 244.722 190.634 244.722 190.335V186.997C245.22 186.648 245.519 186.1 245.469 185.502C245.469 184.605 244.921 183.858 244.223 183.858Z" fill="white"/>
<path d="M239.739 218.487C239.589 218.487 239.49 218.637 239.49 218.736V219.982H238.992V218.736C238.992 218.587 238.892 218.487 238.742 218.487C238.593 218.487 238.493 218.637 238.493 218.736V219.982H237.995V218.736C237.995 218.587 237.895 218.487 237.746 218.487C237.596 218.487 237.497 218.637 237.497 218.736V220.381C237.497 220.829 237.846 221.178 238.244 221.228V224.715C238.244 225.014 238.443 225.214 238.742 225.214C239.041 225.214 239.241 225.014 239.241 224.715V221.228C239.639 221.178 239.988 220.829 239.988 220.381V218.736C239.988 218.637 239.888 218.487 239.739 218.487ZM240.735 218.736V221.726H241.234V224.715C241.234 225.014 241.433 225.214 241.732 225.214C242.031 225.214 242.23 225.014 242.23 224.715V217.242C241.383 217.242 240.735 217.889 240.735 218.736ZM244.223 218.238C243.526 218.238 242.978 218.985 242.978 219.882C242.928 220.48 243.227 221.028 243.725 221.377V224.715C243.725 225.014 243.924 225.214 244.223 225.214C244.522 225.214 244.722 225.014 244.722 224.715V221.377C245.22 221.028 245.519 220.48 245.469 219.882C245.469 218.985 244.921 218.238 244.223 218.238Z" fill="white"/>
<path d="M299.032 197.56C298.882 197.56 298.783 197.71 298.783 197.809V199.055H298.285V197.809C298.285 197.66 298.185 197.56 298.035 197.56C297.886 197.56 297.786 197.71 297.786 197.809V199.055H297.288V197.809C297.288 197.66 297.188 197.56 297.039 197.56C296.889 197.56 296.79 197.71 296.79 197.809V199.454C296.79 199.902 297.139 200.251 297.537 200.301V203.789C297.537 204.088 297.736 204.287 298.035 204.287C298.334 204.287 298.534 204.088 298.534 203.789V200.301C298.932 200.251 299.281 199.902 299.281 199.454V197.809C299.281 197.71 299.181 197.56 299.032 197.56ZM300.028 197.809V200.799H300.527V203.789C300.527 204.088 300.726 204.287 301.025 204.287C301.324 204.287 301.523 204.088 301.523 203.789V196.315C300.676 196.315 300.028 196.962 300.028 197.809ZM303.516 197.311C302.819 197.311 302.271 198.059 302.271 198.955C302.221 199.553 302.52 200.101 303.018 200.45V203.789C303.018 204.088 303.217 204.287 303.516 204.287C303.815 204.287 304.015 204.088 304.015 203.789V200.45C304.513 200.101 304.812 199.553 304.762 198.955C304.762 198.059 304.214 197.311 303.516 197.311Z" fill="white"/>
<path d="M412.138 199.055C411.989 199.055 411.889 199.204 411.889 199.304V200.55H411.391V199.304C411.391 199.155 411.291 199.055 411.142 199.055C410.992 199.055 410.893 199.204 410.893 199.304V200.55H410.394V199.304C410.394 199.155 410.295 199.055 410.145 199.055C409.996 199.055 409.896 199.204 409.896 199.304V200.948C409.896 201.397 410.245 201.746 410.643 201.795V205.283C410.643 205.582 410.843 205.781 411.142 205.781C411.441 205.781 411.64 205.582 411.64 205.283V201.795C412.039 201.746 412.387 201.397 412.387 200.948V199.304C412.387 199.204 412.288 199.055 412.138 199.055ZM413.135 199.304V202.294H413.633V205.283C413.633 205.582 413.832 205.781 414.131 205.781C414.43 205.781 414.629 205.582 414.629 205.283V197.809C413.782 197.809 413.135 198.457 413.135 199.304ZM416.623 198.806C415.925 198.806 415.377 199.553 415.377 200.45C415.327 201.048 415.626 201.596 416.124 201.945V205.283C416.124 205.582 416.324 205.781 416.623 205.781C416.921 205.781 417.121 205.582 417.121 205.283V201.945C417.619 201.596 417.918 201.048 417.868 200.45C417.868 199.553 417.32 198.806 416.623 198.806Z" fill="white"/>
<defs>
<clipPath id="clip0_2_4400">
<rect width="9.9652" height="9.9652" fill="white" transform="translate(178.952 185.352)"/>
</clipPath>
</defs>
</svg>
