<svg xmlns="http://www.w3.org/2000/svg" width="565" height="454" fill="none"><path fill="#fff" d="M1.75 372.14h1.94V386H1.75v-13.86Zm6.55 3.76c.43-.1 1-.22 1.7-.34.7-.12 1.52-.18 2.44-.18.83 0 1.51.12 2.06.36.55.23.98.55 1.3.98.33.41.57.91.7 1.5s.2 1.23.2 1.94V386h-1.86v-5.44c0-.64-.05-1.19-.14-1.64a2.68 2.68 0 0 0-.42-1.1c-.2-.28-.47-.48-.8-.6-.33-.13-.75-.2-1.24-.2a10.21 10.21 0 0 0-2.08.2V386H8.3v-10.1Zm19.3 9.06a5.19 5.19 0 0 1-2.54.66c-.62 0-1.22-.1-1.78-.3-.54-.2-1.02-.5-1.44-.92a4.6 4.6 0 0 1-.98-1.58 6.26 6.26 0 0 1-.36-2.24c0-.76.12-1.45.34-2.08a4.46 4.46 0 0 1 2.58-2.72c.63-.27 1.34-.4 2.12-.4.87 0 1.62.07 2.26.2.66.12 1.2.23 1.64.34v9.28c0 1.6-.41 2.76-1.24 3.48-.82.72-2.08 1.08-3.76 1.08a10.36 10.36 0 0 1-3.36-.54l.34-1.62c.38.15.83.27 1.36.38a7.9 7.9 0 0 0 1.7.18c1.11 0 1.9-.22 2.38-.66.5-.44.74-1.14.74-2.1v-.44Zm-.02-7.72a7.78 7.78 0 0 0-2.02-.22c-1 0-1.77.33-2.32.98-.53.65-.8 1.52-.8 2.6 0 .6.08 1.11.22 1.54.16.43.37.78.62 1.06.27.28.57.49.9.62.35.13.7.2 1.06.2.5 0 .95-.07 1.36-.2.42-.15.74-.31.98-.5v-6.08Zm10.2-1.86c.17 0 .35.01.55.04.2.01.42.04.62.08a5 5 0 0 1 .54.1c.17.03.3.05.38.08l-.32 1.62c-.15-.05-.4-.11-.74-.18a5.74 5.74 0 0 0-2.34 0l-.66.14V386h-1.86v-9.96a11.74 11.74 0 0 1 3.84-.66Zm4.6 5.44c0-.92.13-1.72.4-2.4.27-.7.62-1.27 1.06-1.72.44-.45.95-.8 1.52-1.02a4.74 4.74 0 0 1 1.76-.34c1.4 0 2.47.44 3.22 1.32.75.87 1.12 2.2 1.12 3.98v.32c0 .12 0 .23-.02.34h-7.12c.08 1.08.4 1.9.94 2.46.55.56 1.4.84 2.56.84a6.36 6.36 0 0 0 2.66-.5l.26 1.56a8.35 8.35 0 0 1-3.12.58c-.9 0-1.7-.13-2.36-.4a4.5 4.5 0 0 1-2.58-2.84c-.2-.67-.3-1.4-.3-2.18Zm7.14-1.02c.01-.84-.2-1.53-.64-2.06a2.13 2.13 0 0 0-1.78-.82 2.57 2.57 0 0 0-1.96.9c-.23.27-.4.57-.54.92-.12.35-.2.7-.24 1.06h5.16Zm8.33 4.86c.76 0 1.32-.1 1.68-.3.38-.2.56-.52.56-.96 0-.45-.18-.81-.54-1.08a8.53 8.53 0 0 0-1.78-.9l-1.16-.48a4.34 4.34 0 0 1-.94-.6c-.26-.23-.48-.5-.64-.82a2.62 2.62 0 0 1-.24-1.18c0-.92.34-1.65 1.02-2.18.68-.55 1.6-.82 2.78-.82.3 0 .59.02.88.06.3.03.57.07.82.12a5.69 5.69 0 0 1 1.12.28l-.34 1.6a5.74 5.74 0 0 0-2.48-.5c-.52 0-.97.1-1.36.32a1 1 0 0 0-.58.96c0 .23.04.43.12.6.1.17.23.33.4.48.19.13.42.26.68.38.27.12.59.25.96.38.5.19.94.37 1.32.56.39.17.72.38.98.62.28.24.5.53.64.88.15.33.22.75.22 1.24 0 .96-.36 1.69-1.08 2.18-.7.5-1.72.74-3.04.74a7.65 7.65 0 0 1-3.22-.58l.34-1.6 1.02.36c.47.16 1.09.24 1.86.24Zm16.99-3.86c0 .83-.12 1.57-.36 2.24a5.03 5.03 0 0 1-1.02 1.72 4.46 4.46 0 0 1-3.5 1.5 4.67 4.67 0 0 1-4.52-3.22 6.58 6.58 0 0 1-.36-2.24c0-.81.12-1.55.36-2.22a4.43 4.43 0 0 1 2.56-2.84c.6-.27 1.25-.4 1.96-.4a4.77 4.77 0 0 1 3.5 1.5 5 5 0 0 1 1.02 1.74c.24.67.36 1.4.36 2.22Zm-1.94 0a4.4 4.4 0 0 0-.8-2.78 2.53 2.53 0 0 0-2.14-1.04c-.9 0-1.63.35-2.16 1.04-.52.68-.78 1.6-.78 2.78 0 1.17.26 2.1.78 2.8a2.6 2.6 0 0 0 2.16 1.02c.9 0 1.62-.34 2.14-1.02.53-.7.8-1.63.8-2.8Zm19 .02c0-1.21-.3-2.15-.9-2.8a3.1 3.1 0 0 0-2.4-.98c-.56 0-1 .02-1.32.06-.3.04-.55.09-.74.14v6.56c.23.19.56.37.98.54a3.7 3.7 0 0 0 2.76-.02c.39-.2.7-.47.94-.8.24-.35.42-.75.52-1.2.11-.47.16-.97.16-1.5Zm1.94 0c0 .79-.1 1.51-.32 2.18a4.8 4.8 0 0 1-.9 1.72c-.4.48-.89.85-1.48 1.12-.57.27-1.23.4-1.98.4a4.92 4.92 0 0 1-2.62-.7v4.16h-1.86v-13.78c.44-.1.99-.22 1.64-.34.67-.13 1.44-.2 2.3-.2.8 0 1.52.13 2.16.38a4.62 4.62 0 0 1 2.68 2.8c.26.67.38 1.42.38 2.26Zm13.1-.02c0 .83-.12 1.57-.36 2.24a5.03 5.03 0 0 1-1.02 1.72 4.46 4.46 0 0 1-3.5 1.5 4.66 4.66 0 0 1-4.52-3.22 6.58 6.58 0 0 1-.36-2.24c0-.81.12-1.55.36-2.22a4.42 4.42 0 0 1 2.56-2.84c.6-.27 1.25-.4 1.96-.4a4.76 4.76 0 0 1 3.5 1.5 5 5 0 0 1 1.02 1.74c.24.67.36 1.4.36 2.22Zm-1.94 0a4.4 4.4 0 0 0-.8-2.78 2.53 2.53 0 0 0-2.14-1.04c-.9 0-1.63.35-2.16 1.04-.52.68-.78 1.6-.78 2.78 0 1.17.26 2.1.78 2.8a2.6 2.6 0 0 0 2.16 1.02c.9 0 1.62-.34 2.14-1.02.53-.7.8-1.63.8-2.8Zm9.7-5.42c.16 0 .34.01.54.04.21.01.42.04.62.08a5 5 0 0 1 .54.1c.17.03.3.05.38.08l-.32 1.62c-.15-.05-.4-.11-.74-.18a5.75 5.75 0 0 0-2.34 0l-.66.14V386h-1.86v-9.96a11.71 11.71 0 0 1 3.84-.66ZM8.04 402c1.95 0 3.44.37 4.48 1.12 1.05.73 1.58 1.83 1.58 3.3 0 .8-.15 1.49-.44 2.06-.28.56-.7 1.02-1.24 1.38-.53.35-1.19.6-1.96.76a13 13 0 0 1-2.62.24H6.3V416H4.36v-13.66c.55-.13 1.15-.22 1.82-.26.68-.05 1.3-.08 1.86-.08Zm.16 1.7c-.83 0-1.46.02-1.9.06v5.44h1.46c.67 0 1.27-.04 1.8-.12.53-.1.98-.24 1.34-.44.37-.21.66-.5.86-.86.2-.36.3-.82.3-1.38 0-.53-.1-.97-.32-1.32-.2-.35-.48-.62-.84-.82a3.4 3.4 0 0 0-1.22-.44 8.76 8.76 0 0 0-1.48-.12Zm12.63 12.5c-1.15-.03-1.96-.27-2.44-.74s-.72-1.2-.72-2.18V400.8l1.86-.32v12.5c0 .3.02.56.08.76.05.2.14.36.26.48s.28.21.48.28c.2.05.44.1.74.14l-.26 1.56Zm7.17-1.54c.44 0 .82 0 1.16-.02.34-.03.63-.07.86-.12v-3.1a6.2 6.2 0 0 0-2.64-.18c-.31.04-.6.13-.86.26-.26.12-.47.3-.64.52-.18.21-.26.5-.26.86 0 .67.2 1.13.64 1.4.42.25 1 .38 1.74.38Zm-.16-9.32c.74 0 1.37.1 1.88.3a2.97 2.97 0 0 1 1.92 2.08c.13.48.2 1.01.2 1.6v6.5l-.68.12a31.33 31.33 0 0 1-3.38.28c-.6 0-1.13-.06-1.62-.18-.5-.12-.92-.3-1.28-.56a2.69 2.69 0 0 1-.84-1.04 3.6 3.6 0 0 1-.3-1.54c0-.57.1-1.07.34-1.48.24-.41.56-.75.96-1 .4-.25.86-.44 1.4-.56a7.63 7.63 0 0 1 2.26-.14 8.97 8.97 0 0 1 1.32.22v-.52c0-.3-.04-.6-.1-.9a2 2 0 0 0-.36-.8 1.7 1.7 0 0 0-.72-.56 2.6 2.6 0 0 0-1.16-.22 8.36 8.36 0 0 0-2.64.4l-.22-1.54a9.7 9.7 0 0 1 3.02-.46ZM43.13 407c-.29.3-.66.74-1.13 1.3l-1.48 1.86c-.52.68-1.04 1.4-1.58 2.14-.52.75-.97 1.46-1.38 2.14h5.72V416h-7.94v-1.24c.32-.59.72-1.23 1.18-1.94a53.4 53.4 0 0 1 2.96-4.08c.5-.63.93-1.15 1.29-1.58h-5.15v-1.56h7.5v1.4Zm7.33 7.66c.44 0 .83 0 1.16-.02.35-.03.63-.07.86-.12v-3.1a6.2 6.2 0 0 0-2.64-.18c-.3.04-.6.13-.86.26-.25.12-.47.3-.64.52-.17.21-.26.5-.26.86 0 .67.21 1.13.64 1.4.43.25 1 .38 1.74.38Zm-.16-9.32c.75 0 1.37.1 1.88.3a2.97 2.97 0 0 1 1.92 2.08c.13.48.2 1.01.2 1.6v6.5l-.68.12a31.33 31.33 0 0 1-3.38.28c-.59 0-1.13-.06-1.62-.18-.5-.12-.92-.3-1.28-.56a2.69 2.69 0 0 1-.84-1.04 3.6 3.6 0 0 1-.3-1.54c0-.57.11-1.07.34-1.48.24-.41.56-.75.96-1 .4-.25.87-.44 1.4-.56a7.63 7.63 0 0 1 2.26-.14 8.97 8.97 0 0 1 1.32.22v-.52c0-.3-.03-.6-.1-.9a2 2 0 0 0-.36-.8 1.7 1.7 0 0 0-.72-.56 2.6 2.6 0 0 0-1.16-.22 8.36 8.36 0 0 0-2.64.4l-.22-1.54a9.7 9.7 0 0 1 3.02-.46Zm14.44-3.2h1.94V416h-1.94v-13.86Zm8.29 3.46h3.94v1.56h-3.94v4.8c0 .52.04.95.12 1.3.08.33.2.6.36.8.16.19.36.32.6.4a4.06 4.06 0 0 0 2.9-.34l.36 1.54a6.4 6.4 0 0 1-2.58.56c-.7 0-1.3-.09-1.76-.26a2.63 2.63 0 0 1-1.1-.82c-.28-.36-.48-.8-.6-1.32a9.45 9.45 0 0 1-.16-1.84v-9.28l1.86-.32v3.22Zm11.13 9.06c.44 0 .82 0 1.16-.02.34-.03.63-.07.86-.12v-3.1a6.2 6.2 0 0 0-2.64-.18c-.31.04-.6.13-.86.26-.26.12-.47.3-.64.52-.18.21-.26.5-.26.86 0 .67.2 1.13.64 1.4.42.25 1 .38 1.74.38Zm-.16-9.32c.74 0 1.37.1 1.88.3a2.97 2.97 0 0 1 1.92 2.08c.13.48.2 1.01.2 1.6v6.5l-.68.12a31.33 31.33 0 0 1-3.38.28c-.6 0-1.13-.06-1.62-.18-.5-.12-.92-.3-1.28-.56a2.69 2.69 0 0 1-.84-1.04 3.6 3.6 0 0 1-.3-1.54c0-.57.1-1.07.34-1.48.24-.41.56-.75.96-1 .4-.25.86-.44 1.4-.56a7.63 7.63 0 0 1 2.26-.14 8.97 8.97 0 0 1 1.32.22v-.52c0-.3-.04-.6-.1-.9a2 2 0 0 0-.36-.8 1.7 1.7 0 0 0-.72-.56 2.6 2.6 0 0 0-1.16-.22 8.36 8.36 0 0 0-2.64.4l-.22-1.54a9.7 9.7 0 0 1 3.02-.46Zm11.5 10.86c-1.14-.03-1.96-.27-2.44-.74s-.72-1.2-.72-2.18V400.8l1.86-.32v12.5c0 .3.03.56.08.76.06.2.14.36.26.48s.28.21.48.28c.2.05.45.1.74.14l-.26 1.56Zm5.51-.2h-1.86v-10.4h1.86V416Zm-.94-12.28c-.33 0-.62-.1-.86-.32a1.22 1.22 0 0 1-.34-.9c0-.37.12-.67.34-.88.24-.23.53-.34.86-.34.34 0 .62.11.84.34.24.21.36.5.36.88 0 .37-.12.67-.36.9-.22.21-.5.32-.84.32Zm8.96 10.94c.44 0 .83 0 1.16-.02.35-.03.64-.07.86-.12v-3.1a6.2 6.2 0 0 0-2.64-.18c-.3.04-.6.13-.86.26-.25.12-.47.3-.64.52-.17.21-.26.5-.26.86 0 .67.21 1.13.64 1.4.43.25 1 .38 1.74.38Zm-.16-9.32c.75 0 1.38.1 1.88.3a2.97 2.97 0 0 1 1.92 2.08c.14.48.2 1.01.2 1.6v6.5l-.68.12a31.33 31.33 0 0 1-3.38.28c-.59 0-1.13-.06-1.62-.18-.5-.12-.92-.3-1.28-.56a2.69 2.69 0 0 1-.84-1.04 3.6 3.6 0 0 1-.3-1.54c0-.57.12-1.07.34-1.48.24-.41.56-.75.96-1 .4-.25.87-.44 1.4-.56a7.63 7.63 0 0 1 2.26-.14 9.18 9.18 0 0 1 1.32.22v-.52c0-.3-.03-.6-.1-.9a2 2 0 0 0-.36-.8 1.7 1.7 0 0 0-.72-.56 2.6 2.6 0 0 0-1.16-.22 8.35 8.35 0 0 0-2.64.4l-.22-1.54a9.7 9.7 0 0 1 3.02-.46ZM314.75 402.14h1.94V416h-1.94v-13.86Zm6.55 3.76c.43-.1 1-.22 1.7-.34.7-.12 1.52-.18 2.44-.18.82 0 1.51.12 2.06.36.55.23.98.55 1.3.98.33.41.56.91.7 1.5.13.59.2 1.23.2 1.94V416h-1.86v-5.44a8.2 8.2 0 0 0-.14-1.64 2.68 2.68 0 0 0-.42-1.1c-.2-.28-.47-.48-.8-.6-.34-.13-.75-.2-1.24-.2a10.23 10.23 0 0 0-2.08.2V416h-1.86v-10.1Zm19.3 9.06a4.81 4.81 0 0 1-2.54.66c-.62 0-1.22-.1-1.78-.3-.54-.2-1.02-.5-1.44-.92a4.6 4.6 0 0 1-.98-1.58 6.26 6.26 0 0 1-.36-2.24c0-.76.12-1.45.34-2.08a4.46 4.46 0 0 1 2.58-2.72c.63-.27 1.34-.4 2.12-.4.87 0 1.62.07 2.26.2.66.12 1.2.23 1.64.34v9.28c0 1.6-.41 2.76-1.24 3.48-.82.72-2.08 1.08-3.76 1.08a10.35 10.35 0 0 1-3.36-.54l.34-1.62c.38.15.83.27 1.36.38a7.9 7.9 0 0 0 1.7.18c1.1 0 1.9-.22 2.38-.66.5-.44.74-1.14.74-2.1v-.44Zm-.02-7.72a7.78 7.78 0 0 0-2.02-.22c-1 0-1.77.33-2.32.98-.53.65-.8 1.52-.8 2.6 0 .6.08 1.11.22 1.54.16.43.37.78.62 1.06.27.28.57.49.9.62.35.13.7.2 1.06.2.5 0 .95-.07 1.36-.2.42-.15.74-.31.98-.5v-6.08Zm10.2-1.86c.17 0 .35.01.55.04.2.01.42.04.62.08a5 5 0 0 1 .54.1c.17.03.3.05.38.08l-.32 1.62a5.5 5.5 0 0 0-.75-.18 5.74 5.74 0 0 0-2.34 0l-.65.14V416h-1.87v-9.96a11.75 11.75 0 0 1 3.85-.66Zm4.6 5.44c0-.92.13-1.72.4-2.4.27-.7.62-1.27 1.06-1.72.44-.45.95-.8 1.52-1.02a4.74 4.74 0 0 1 1.76-.34c1.4 0 2.47.44 3.22 1.32.75.87 1.12 2.2 1.12 3.98v.32c0 .12 0 .23-.02.34h-7.12c.08 1.08.4 1.9.94 2.46.55.56 1.4.84 2.56.84a6.38 6.38 0 0 0 2.66-.5l.26 1.56a8.35 8.35 0 0 1-3.12.58c-.9 0-1.7-.13-2.36-.4a4.5 4.5 0 0 1-2.58-2.84c-.2-.67-.3-1.4-.3-2.18Zm7.14-1.02c.01-.84-.2-1.53-.64-2.06a2.13 2.13 0 0 0-1.78-.82 2.57 2.57 0 0 0-1.96.9c-.23.27-.4.57-.54.92-.12.35-.2.7-.24 1.06h5.16Zm8.33 4.86c.76 0 1.32-.1 1.68-.3.38-.2.56-.52.56-.96 0-.45-.18-.81-.54-1.08a8.52 8.52 0 0 0-1.78-.9l-1.16-.48a4.35 4.35 0 0 1-.94-.6c-.27-.23-.48-.5-.64-.82a2.62 2.62 0 0 1-.24-1.18c0-.92.34-1.65 1.02-2.18.68-.55 1.6-.82 2.78-.82.3 0 .59.02.88.06.3.03.57.07.82.12a5.72 5.72 0 0 1 1.12.28l-.34 1.6a5.75 5.75 0 0 0-2.48-.5c-.52 0-.97.1-1.36.32a1 1 0 0 0-.58.96c0 .23.04.43.12.6.1.17.23.33.4.48.19.13.41.26.68.38.27.12.59.25.96.38.5.19.94.37 1.32.56.39.17.72.38.98.62.28.24.5.53.64.88.15.33.22.75.22 1.24 0 .96-.36 1.69-1.08 2.18-.7.5-1.72.74-3.04.74a7.65 7.65 0 0 1-3.22-.58l.34-1.6 1.02.36c.47.16 1.09.24 1.86.24Zm16.99-3.86c0 .83-.12 1.57-.36 2.24a5.03 5.03 0 0 1-1.02 1.72 4.46 4.46 0 0 1-3.5 1.5 4.67 4.67 0 0 1-4.52-3.22 6.58 6.58 0 0 1-.36-2.24c0-.81.12-1.55.36-2.22a4.43 4.43 0 0 1 2.56-2.84c.6-.27 1.25-.4 1.96-.4a4.77 4.77 0 0 1 3.5 1.5 5 5 0 0 1 1.02 1.74c.24.67.36 1.4.36 2.22Zm-1.94 0a4.4 4.4 0 0 0-.8-2.78 2.53 2.53 0 0 0-2.14-1.04c-.9 0-1.63.35-2.16 1.04-.52.68-.78 1.6-.78 2.78 0 1.17.26 2.1.78 2.8a2.6 2.6 0 0 0 2.16 1.02c.9 0 1.62-.34 2.14-1.02.53-.7.8-1.63.8-2.8Zm19 .02c0-1.21-.3-2.15-.9-2.8a3.1 3.1 0 0 0-2.4-.98c-.56 0-1 .02-1.32.06-.3.04-.55.09-.74.14v6.56c.23.19.56.37.98.54a3.69 3.69 0 0 0 2.76-.02c.39-.2.7-.47.94-.8.24-.35.42-.75.52-1.2.11-.47.16-.97.16-1.5Zm1.94 0c0 .79-.1 1.51-.32 2.18a4.8 4.8 0 0 1-.9 1.72c-.4.48-.89.85-1.48 1.12-.57.27-1.23.4-1.98.4a4.92 4.92 0 0 1-2.62-.7v4.16h-1.86v-13.78c.44-.1.99-.22 1.64-.34.67-.13 1.44-.2 2.3-.2.8 0 1.52.13 2.16.38a4.63 4.63 0 0 1 2.68 2.8c.26.67.38 1.42.38 2.26Zm13.1-.02c0 .83-.12 1.57-.36 2.24a5.03 5.03 0 0 1-1.02 1.72 4.46 4.46 0 0 1-3.5 1.5 4.67 4.67 0 0 1-4.52-3.22 6.58 6.58 0 0 1-.36-2.24c0-.81.12-1.55.36-2.22a4.43 4.43 0 0 1 2.56-2.84c.6-.27 1.25-.4 1.96-.4a4.76 4.76 0 0 1 3.5 1.5 5 5 0 0 1 1.02 1.74c.24.67.36 1.4.36 2.22Zm-1.94 0a4.4 4.4 0 0 0-.8-2.78 2.53 2.53 0 0 0-2.14-1.04c-.9 0-1.63.35-2.16 1.04-.52.68-.78 1.6-.78 2.78 0 1.17.26 2.1.78 2.8a2.6 2.6 0 0 0 2.16 1.02c.9 0 1.62-.34 2.14-1.02.53-.7.8-1.63.8-2.8Zm9.7-5.42c.16 0 .34.01.54.04.21.01.42.04.62.08a5 5 0 0 1 .54.1c.17.03.3.05.38.08l-.32 1.62c-.15-.05-.4-.11-.74-.18a5.75 5.75 0 0 0-2.34 0l-.66.14V416h-1.86v-9.96a11.71 11.71 0 0 1 3.84-.66ZM312.16 446a76.86 76.86 0 0 1-1.26-3.54h-6.28l-1.26 3.54h-2.02a418.85 418.85 0 0 1 2.86-7.62 141.12 141.12 0 0 1 2.72-6.24h1.78a97.85 97.85 0 0 1 2.7 6.24 371.97 371.97 0 0 1 2.88 7.62h-2.12Zm-1.82-5.14a146.48 146.48 0 0 0-2.58-6.5c-.47 1-.91 2.05-1.34 3.14-.41 1.08-.83 2.2-1.24 3.36h5.16Zm14.7-5.26a50.92 50.92 0 0 1-1.85 5.6 82.64 82.64 0 0 1-2.02 4.8h-1.68a93.63 93.63 0 0 1-2.04-4.8c-.7-1.79-1.3-3.65-1.82-5.6h2a58.27 58.27 0 0 0 1.26 4.3c.26.72.5 1.42.76 2.1l.72 1.82a42.58 42.58 0 0 0 1.46-3.92 45.48 45.48 0 0 0 1.28-4.3h1.92Zm4.7 9.32c0 .36-.11.67-.35.94-.24.27-.57.4-.98.4-.42 0-.74-.13-.98-.4a1.36 1.36 0 0 1-.36-.94c0-.36.12-.67.36-.94.24-.27.56-.4.98-.4.41 0 .74.13.98.4s.36.58.36.94Zm13.3-.3c2.03 0 3.04-.7 3.04-2.08 0-.43-.1-.79-.28-1.08-.17-.3-.41-.57-.72-.78a4.7 4.7 0 0 0-1.06-.58l-1.24-.48c-.5-.17-.99-.37-1.44-.58a5.54 5.54 0 0 1-1.18-.78c-.33-.3-.6-.67-.8-1.08a3.64 3.64 0 0 1-.28-1.5c0-1.21.41-2.16 1.24-2.84a5.23 5.23 0 0 1 3.42-1.02 8.6 8.6 0 0 1 3.8.86l-.62 1.58c-.28-.17-.7-.34-1.26-.5a6.37 6.37 0 0 0-2.96-.14c-.32.08-.6.2-.84.36-.24.16-.43.37-.58.62-.13.24-.2.53-.2.86 0 .37.07.69.22.94s.35.48.62.68c.27.19.57.36.92.52.36.16.75.32 1.18.48.6.24 1.15.48 1.64.72.5.24.94.53 1.3.86.37.33.66.73.86 1.2.2.45.3 1 .3 1.66 0 1.21-.45 2.15-1.34 2.8-.88.65-2.13.98-3.74.98a11.83 11.83 0 0 1-2.74-.36c-.36-.1-.67-.21-.94-.32a12.7 12.7 0 0 1-.6-.3l.58-1.6a7.2 7.2 0 0 0 3.7.9Zm12.12.04c.44 0 .83 0 1.16-.02.35-.03.64-.07.86-.12v-3.1a6.2 6.2 0 0 0-2.64-.18c-.3.04-.59.13-.86.26-.25.12-.46.3-.64.52-.17.21-.26.5-.26.86 0 .67.22 1.13.64 1.4.43.25 1.01.38 1.74.38Zm-.16-9.32c.75 0 1.38.1 1.88.3a2.97 2.97 0 0 1 1.92 2.08c.14.48.2 1.01.2 1.6v6.5l-.68.12a31.33 31.33 0 0 1-3.38.28c-.58 0-1.12-.06-1.62-.18-.49-.12-.92-.3-1.28-.56a2.69 2.69 0 0 1-.84-1.04 3.6 3.6 0 0 1-.3-1.54c0-.57.12-1.07.34-1.48.24-.41.56-.75.96-1 .4-.25.87-.44 1.4-.56a7.63 7.63 0 0 1 2.26-.14 9.18 9.18 0 0 1 1.32.22v-.52c0-.3-.03-.6-.1-.9a2 2 0 0 0-.36-.8 1.7 1.7 0 0 0-.72-.56 2.6 2.6 0 0 0-1.16-.22 8.35 8.35 0 0 0-2.64.4l-.22-1.54a9.7 9.7 0 0 1 3.02-.46Zm12.23.04c.16 0 .34.01.54.04.22.01.42.04.62.08a5 5 0 0 1 .54.1c.18.03.3.05.38.08l-.32 1.62c-.14-.05-.39-.11-.74-.18a5.74 5.74 0 0 0-2.34 0l-.66.14V446h-1.86v-9.96a11.75 11.75 0 0 1 3.84-.66Zm5.18.52c.42-.1.98-.22 1.68-.34.7-.12 1.52-.18 2.44-.18.66 0 1.22.1 1.68.28.45.17.83.43 1.14.78l.44-.28a6.05 6.05 0 0 1 2.88-.78c.8 0 1.45.12 1.96.36.5.23.9.55 1.18.98.3.43.48.93.58 1.52.1.59.16 1.23.16 1.92V446h-1.86v-5.44c0-.61-.04-1.14-.1-1.58-.06-.44-.17-.8-.34-1.1-.16-.3-.39-.5-.68-.64a2.37 2.37 0 0 0-1.1-.22 4.06 4.06 0 0 0-2.38.7c.1.35.18.73.24 1.14.05.41.08.85.08 1.3V446h-1.86v-5.44c0-.61-.04-1.14-.1-1.58-.07-.44-.19-.8-.36-1.1-.16-.3-.39-.5-.68-.64a2.32 2.32 0 0 0-1.08-.22 9.9 9.9 0 0 0-2.06.2V446h-1.86v-10.1Zm20.38 10.1h-1.86v-10.4h1.86V446Zm-.94-12.28c-.33 0-.62-.1-.86-.32a1.22 1.22 0 0 1-.34-.9c0-.37.12-.67.34-.88.24-.23.53-.34.86-.34.34 0 .62.11.84.34.24.21.36.5.36.88 0 .37-.12.67-.36.9-.22.21-.5.32-.84.32Zm4.86 7.1c0-.92.14-1.72.4-2.4.27-.7.62-1.27 1.06-1.72.44-.45.95-.8 1.52-1.02a4.74 4.74 0 0 1 1.76-.34c1.4 0 2.48.44 3.22 1.32.75.87 1.12 2.2 1.12 3.98v.32c0 .12 0 .23-.02.34h-7.12c.08 1.08.4 1.9.94 2.46.55.56 1.4.84 2.56.84a6.38 6.38 0 0 0 2.66-.5l.26 1.56a8.35 8.35 0 0 1-3.12.58c-.9 0-1.69-.13-2.36-.4a4.5 4.5 0 0 1-2.58-2.84c-.2-.67-.3-1.4-.3-2.18Zm7.14-1.02c.02-.84-.2-1.53-.64-2.06a2.13 2.13 0 0 0-1.78-.82 2.57 2.57 0 0 0-1.96.9c-.22.27-.4.57-.54.92-.12.35-.2.7-.24 1.06h5.16Zm5.91-3.9c.43-.1 1-.22 1.7-.34.71-.12 1.53-.18 2.44-.18.83 0 1.52.12 2.06.36.55.23.99.55 1.3.98.34.41.57.91.7 1.5.14.59.2 1.23.2 1.94V446h-1.86v-5.44c0-.64-.04-1.19-.13-1.64a2.68 2.68 0 0 0-.43-1.1c-.2-.28-.46-.48-.8-.6-.33-.13-.74-.2-1.24-.2a10.2 10.2 0 0 0-2.07.2V446h-1.87v-10.1Zm14.53-.3h3.94v1.56h-3.94v4.8c0 .52.04.95.12 1.3.08.33.2.6.36.8.16.19.36.32.6.4a4.06 4.06 0 0 0 2.9-.34l.36 1.54a6.35 6.35 0 0 1-2.58.56c-.7 0-1.3-.09-1.76-.26a2.64 2.64 0 0 1-1.1-.82c-.28-.36-.48-.8-.6-1.32a9.5 9.5 0 0 1-.16-1.84v-9.28l1.86-.32v3.22Zm16.51 5.2c0 .83-.12 1.57-.36 2.24a5.03 5.03 0 0 1-1.02 1.72 4.46 4.46 0 0 1-3.5 1.5 4.67 4.67 0 0 1-4.52-3.22 6.58 6.58 0 0 1-.36-2.24c0-.81.12-1.55.36-2.22a4.43 4.43 0 0 1 2.56-2.84c.6-.27 1.26-.4 1.96-.4a4.77 4.77 0 0 1 3.5 1.5 5 5 0 0 1 1.02 1.74c.24.67.36 1.4.36 2.22Zm-1.94 0a4.4 4.4 0 0 0-.8-2.78 2.53 2.53 0 0 0-2.14-1.04c-.9 0-1.62.35-2.16 1.04-.52.68-.78 1.6-.78 2.78 0 1.17.26 2.1.78 2.8a2.6 2.6 0 0 0 2.16 1.02c.9 0 1.62-.34 2.14-1.02.54-.7.8-1.63.8-2.8Z"/><path fill="#002755" d="M67.6 125.56v32.64H22v151.22l64.77 54.31h477.34V0L268.89 38.12v87.44H67.59Z"/><path fill="#8CBBF2" d="M293.55 155.2V51.83l237.17-32.14 22.43 331.34-447.44-8.71-53.56-53.32V172.15h119.08l122.32-16.94Z"/><path stroke="#fff" d="M337.9 341.06v-42.1c.33-3.24-.1-11.01-4.49-16.2-4.38-5.18-12.62-6.47-16.2-6.47h-86.3a5 5 0 0 0-3.88 1.85l-3.24 4.01c-.32.4-.5.89-.5 1.4a2.2 2.2 0 0 1-2.2 2.2h-1.9a4.11 4.11 0 0 0-4.12 4.11v2.62M373.27 341.3v-45.08a5 5 0 0 1 1.38-3.45l16.58-17.42a5 5 0 0 1 3.62-1.56h29M106.7 319.38l-37.4-37.65a5 5 0 0 1-1.46-3.52v-6.4a5 5 0 0 0-5-5h-9.45a3.99 3.99 0 0 0-3.99 4m0 0h25.42a2.99 2.99 0 0 0 0-5.98 2.99 2.99 0 0 1-3-3v-37.85a5 5 0 0 0-5-5h-15.9a5 5 0 0 0-5 5v43.34a3.49 3.49 0 0 0 3.48 3.48Z"/><path fill="#8CBBF2" stroke="#fff" stroke-width="3" d="M78.05 137.02v34.38h208.77v-34.38H78.05Z"/><path fill="#8CBBF2" stroke="#fff" stroke-width="2" d="M47.41 176.38v-7.47h8.72v1.74h13.45v-1.74h8.22v7.47h-1.74v31.4h3.24v15.44h-3.24v31.4h1.74v6.72h-7.22v-1.75h-16.7v1.75h-6.47v-6.73h1.74v-31.39h-3.73v-15.45h3.73v-31.39h-1.74Z"/><path fill="#002755" stroke="#fff" stroke-width="2" d="M141.09 207.28h-40.86a4.48 4.48 0 0 0 0 8.97h40.86a4.48 4.48 0 0 0 0-8.97ZM140.57 219.23h-39.83a5 5 0 0 0-5 5v17.4a5 5 0 0 0 5 5h39.83a5 5 0 0 0 5-5v-17.4a5 5 0 0 0-5-5Z"/><path fill="#fff" stroke="#002755" stroke-width="2" d="M372.26 162.93H341.4a5 5 0 0 0-5 5v67.23a5 5 0 0 0 5 5h30.86a5 5 0 0 0 5-5v-67.23a5 5 0 0 0-5-5Z"/><path fill="#002755" stroke="#fff" stroke-width="2" d="M313.96 162.93H287.1a5 5 0 0 0-5 5v67.23a5 5 0 0 0 5 5h26.87a5 5 0 0 0 5-5v-67.23a5 5 0 0 0-5-5ZM427.07 162.93H400.2a5 5 0 0 0-5 5v67.23a5 5 0 0 0 5 5h26.87a5 5 0 0 0 5-5v-67.23a5 5 0 0 0-5-5Z"/><path fill="#B8311E" stroke="#fff" stroke-width="2" d="M359.06 108.37h-16.41a5 5 0 0 0-5 5v20.35a5 5 0 0 1-2.07 4.05l-4.08 2.95c-.7.52-1.54.8-2.4.9-1.58.2-3.41.83-3.41 3.87 0 1.41.33 2.36.82 3.02 1.3 1.76 3.17 3.2 3.17 5.4v1.53a5 5 0 0 0 5 5H373a5 5 0 0 0 5-5v-7.36c0-1.62.85-3.08 1.98-4.25 1.08-1.14 1.96-2.63 1.5-4.32-.54-2-2.3-2.77-3.79-3.06a6.65 6.65 0 0 1-2.62-1.02l-8.93-6.38a5 5 0 0 1-2.1-4.07v-11.6a5 5 0 0 0-5-5ZM374 101.4h-40.82a5 5 0 0 1-5-5V50.1a5 5 0 0 1 5-5h45.8a5 5 0 0 1 5 5v18.83a5 5 0 0 1-1.46 3.54l-2.05 2.05a5 5 0 0 0-1.47 3.54V96.4a5 5 0 0 1-5 5ZM320.97 65.77h2.21a5 5 0 0 1 5 5V96.4a5 5 0 0 1-5 5h-15.66a5 5 0 0 1-5-5v-2.46a5 5 0 0 1 5-5h3.45a5 5 0 0 0 5-5V70.77a5 5 0 0 1 5-5Z"/><path fill="#FFC700" stroke="#fff" stroke-width="2" d="m394.74 285.32 30.36-33.55a5 5 0 0 1 3.7-1.64h89.1a5 5 0 0 1 4.95 4.31l11.02 79.58a5 5 0 0 1-5.25 5.68l-130.47-7.83a5 5 0 0 1-4.7-4.99v-38.2a5 5 0 0 1 1.3-3.36Z"/><path fill="#8CBBF2" stroke="#fff" stroke-width="2" d="M362.54 245.64h-10.43a5 5 0 0 0-5 5v5.38c0 .55.1 1.1.33 1.6.9 1.86 3.73 6.46 9.89 6.46s9-4.6 9.88-6.46c.25-.5.33-1.05.33-1.6v-5.38a5 5 0 0 0-5-5Z"/><path fill="#fff" stroke="#002755" stroke-width="2" d="M331.4 162.93h-4.95a5 5 0 0 0-5 5v18.9a5 5 0 0 0 5 5h4.95a5 5 0 0 0 5-5v-18.9a5 5 0 0 0-5-5ZM331.4 211.26h-4.95a5 5 0 0 0-5 5v18.9a5 5 0 0 0 5 5h4.95a5 5 0 0 0 5-5v-18.9a5 5 0 0 0-5-5ZM387.2 211.76h-4.94a5 5 0 0 0-5 5v18.9a5 5 0 0 0 5 5h4.95a5 5 0 0 0 5-5v-18.9a5 5 0 0 0-5-5ZM387.2 162.93h-4.94a5 5 0 0 0-5 5v18.9a5 5 0 0 0 5 5h4.95a5 5 0 0 0 5-5v-18.9a5 5 0 0 0-5-5ZM193.38 257.1H99.83a5 5 0 0 0-4.95 5.76l10.18 66.24a5 5 0 0 0 4.94 4.24h83.38a5 5 0 0 0 5-5V262.1a5 5 0 0 0-5-5ZM221.93 288.5h-3.5c-1.16 0-2.1.94-2.1 2.1 0 .57-.23 1.1-.63 1.5l-.62.63c-.8.8-1.25 1.88-1.25 3v8.53c0 1.06.45 2.08 1.25 2.8l.5.45c.47.42.74 1.03.74 1.66 0 1.24 1 2.24 2.24 2.24h4.09a4.16 4.16 0 0 1 4.13 4.17 4.07 4.07 0 0 0 4.05 4.05H235c.96 0 1.86-.4 2.5-1.12a3.34 3.34 0 0 1 2.5-1.12h28.87a5 5 0 0 0 5-5v-18.17a1 1 0 0 1 1-1 1 1 0 0 0 1-1v-5.45a5 5 0 0 0-5-5h-31.68c-1.06 0-2.06-.51-2.69-1.37a3.33 3.33 0 0 0-2.69-1.37h-2.56a4.47 4.47 0 0 0-4.47 4.46v.15a4.85 4.85 0 0 1-4.85 4.85Z"/><path fill="#002755" stroke="#fff" stroke-width="2" d="M212.32 219.23h-56.77a5 5 0 0 0-5 5v17.4a5 5 0 0 0 5 5h56.77a5 5 0 0 0 5-5v-17.4a5 5 0 0 0-5-5ZM210.89 174.58l-55.53 2.12a5 5 0 0 0-4.8 5v17.59a5 5 0 0 0 5 5h56.5a5 5 0 0 0 5-5.25l-.99-19.71a5 5 0 0 0-5.18-4.75ZM212.83 207.28h-57.8a4.48 4.48 0 1 0 0 8.97h57.8a4.48 4.48 0 0 0 0-8.97ZM104.2 184.6h-3.96a5 5 0 0 0-5 5v9.69a5 5 0 0 0 5 5h3.95a5 5 0 0 0 5-5v-9.68a5 5 0 0 0-5-5ZM140.82 204.54h-25.38a5 5 0 0 1-5-5v-18.4a5 5 0 0 1 5-5h25.38a5 5 0 0 1 5 5v18.4a5 5 0 0 1-5 5ZM257.4 204.29h-32.1a5 5 0 0 1-5-5v-22.83a5 5 0 0 1 4.27-4.94l30.66-4.54a5 5 0 0 1 5.72 4.68l1.43 27.37a5 5 0 0 1-4.99 5.26ZM257.9 208.77h-31.6a5 5 0 0 0-5 5v27.37a5 5 0 0 0 5 5h7.2a5 5 0 0 0 5-5v-6.46a2.99 2.99 0 0 1 5.97 0v8.2a5 5 0 0 0 5 5h8.44a5 5 0 0 0 5-5v-29.1a5 5 0 0 0-5-5Z"/><path fill="#FFC700" stroke="#fff" stroke-width="2" d="M517.87 259.1h-68.84a5 5 0 0 1-5-5V149.5a5 5 0 0 1 5-5h51.78a5 5 0 0 1 4.94 4.2l17.05 104.6a5 5 0 0 1-4.93 5.8Z"/><path fill="#B8311E" stroke="#fff" stroke-width="2" d="m385.88 69.97 57.39-8.56a2.94 2.94 0 0 0 2.5-2.9c0-1.53 1.17-2.8 2.7-2.93l53.2-4.43a5 5 0 0 1 5.15 3.36l14.39 42.08c.5 1.5-.6 3.06-2.2 3.06h-.98a5 5 0 0 0-5 5v34.4a5 5 0 0 1-4.94 5l-54.28.65a4.1 4.1 0 0 0-4.05 4.1 4.1 4.1 0 0 1-4.17 4.1l-45.81-.63a4.14 4.14 0 0 1-4.08-4.13v-1.58a2.57 2.57 0 0 0-2.57-2.56c-.88 0-1.7-.46-2.17-1.2L380 125.27a5 5 0 0 1-.76-2.65V77.78a5 5 0 0 1 1.15-3.18l2.37-2.87a5 5 0 0 1 3.11-1.76Z"/><path fill="#fff" d="M354.4 373.63a1.5 1.5 0 1 0 3 0h-3Zm2.57-41.73a1.5 1.5 0 0 0-2.13 0l-9.54 9.55a1.5 1.5 0 0 0 2.12 2.12l8.49-8.49 8.48 8.49a1.5 1.5 0 0 0 2.12-2.13l-9.54-9.54Zm.44 41.73v-40.67h-3v40.67h3ZM45.04 344.8a1.5 1.5 0 0 0 2.12 2.13l-2.12-2.12Zm29.04-25.42c0-.82-.67-1.5-1.5-1.5h-13.5a1.5 1.5 0 1 0 0 3h12v12a1.5 1.5 0 0 0 3 0v-13.5Zm-26.92 27.55 26.49-26.49-2.13-2.12-26.48 26.49 2.12 2.12Z"/><circle cx="500.83" cy="55.31" r="10.46" fill="#002755"/><path fill="#fff" d="M497.13 67.74c.36 0 .7-.1 1-.31.3-.2.52-.5.66-.84a1.97 1.97 0 0 0-.4-2.05 1.7 1.7 0 0 0-1.95-.4c-.32.14-.6.38-.8.69a1.94 1.94 0 0 0 .23 2.36c.33.36.79.55 1.26.55Zm0-2.78c.17 0 .34.05.48.15a.95.95 0 0 1 .13 1.4.83.83 0 0 1-.94.2.88.88 0 0 1-.38-.34.94.94 0 0 1 .1-1.14.84.84 0 0 1 .61-.27Zm1.27 3.15h-2.54c-.37 0-.72.16-.98.43s-.4.64-.4 1.03v4.6h.92v4.37h3.47v-4.36h.92v-4.61c0-.39-.15-.76-.4-1.03a1.36 1.36 0 0 0-.99-.43Zm.47 5.1h-.93v4.36h-1.62v-4.36h-.92v-3.64a.5.5 0 0 1 .14-.34c.08-.1.2-.15.32-.15h2.54c.13 0 .24.05.33.15.09.09.14.21.14.34v3.64Zm5.14-5.47c.35 0 .7-.1 1-.31a1.96 1.96 0 0 0 .27-2.89 1.71 1.71 0 0 0-1.95-.4c-.33.14-.61.38-.8.69a1.95 1.95 0 0 0 .22 2.36c.33.36.79.55 1.26.55Zm0-2.78c.17 0 .34.05.48.15.14.1.25.25.32.41a.93.93 0 0 1-.19.99.83.83 0 0 1-.94.2.88.88 0 0 1-.39-.34.94.94 0 0 1 .1-1.14.85.85 0 0 1 .62-.27Zm1.6 4.4a1.86 1.86 0 0 0-.63-.9 1.73 1.73 0 0 0-2.05-.02c-.3.22-.53.53-.66.88l-1.79 5.01v1.3h1.85v2.91h3v-2.91h1.85v-1.54l-1.56-4.72Zm.65 5.3h-1.85v2.91h-1.16v-2.9h-1.84v-.16l1.73-4.84a.89.89 0 0 1 .31-.43.83.83 0 0 1 .99.01c.14.11.25.26.3.44l1.52 4.57v.4Z"/><circle cx="531.72" cy="315.4" r="10.46" fill="#002755"/><path fill="#fff" d="M528.02 341.43c.36 0 .7-.11 1-.32a1.96 1.96 0 0 0 .27-2.89 1.71 1.71 0 0 0-1.95-.4c-.33.14-.6.38-.8.69a1.95 1.95 0 0 0 .22 2.37c.34.35.79.55 1.26.55Zm0-2.79c.17 0 .34.06.48.16.14.1.26.24.32.4.07.17.08.35.05.53a.93.93 0 0 1-.24.46.84.84 0 0 1-.94.2.88.88 0 0 1-.39-.34.94.94 0 0 1 .11-1.14.85.85 0 0 1 .61-.27Zm1.27 3.16h-2.54c-.36 0-.72.15-.98.42s-.4.64-.4 1.03v4.6h.92v4.37h3.47v-4.36h.92v-4.61c0-.39-.15-.76-.4-1.03a1.35 1.35 0 0 0-.99-.43Zm.47 5.09h-.93v4.36h-1.62v-4.36h-.92v-3.64a.5.5 0 0 1 .14-.34c.08-.1.2-.15.32-.15h2.54c.13 0 .24.06.33.15.09.09.14.21.14.34v3.64Zm5.14-5.46c.35 0 .7-.11 1-.32a1.96 1.96 0 0 0 .27-2.89 1.71 1.71 0 0 0-1.95-.4c-.33.14-.61.38-.8.69a1.95 1.95 0 0 0 .22 2.37c.33.35.78.55 1.26.55Zm0-2.79c.17 0 .34.06.48.16.14.1.25.24.32.4.06.17.08.35.05.53a.92.92 0 0 1-.24.46.84.84 0 0 1-.94.2.87.87 0 0 1-.39-.34.94.94 0 0 1 .1-1.14.85.85 0 0 1 .62-.27Zm1.6 4.4a1.87 1.87 0 0 0-.63-.9 1.72 1.72 0 0 0-2.05-.02c-.3.22-.53.53-.66.89l-1.79 5v1.3h1.85v2.91h3v-2.9h1.85v-1.55l-1.56-4.72Zm.65 5.3h-1.85v2.91h-1.15v-2.9h-1.85v-.16l1.73-4.84a.89.89 0 0 1 .31-.43.82.82 0 0 1 .99.01c.14.11.25.26.3.44l1.52 4.57v.4Z"/><circle cx="198.38" cy="325.86" r="10.46" fill="#002755"/><path fill="#fff" d="M194.69 352.44c.35 0 .7-.11 1-.32a1.96 1.96 0 0 0 .27-2.89 1.76 1.76 0 0 0-.92-.51 1.7 1.7 0 0 0-1.04.1c-.32.15-.6.39-.8.7a1.94 1.94 0 0 0 .23 2.37c.33.35.78.55 1.26.55Zm0-2.79c.17 0 .34.06.48.16.14.1.25.24.32.4.06.17.08.35.05.53a.93.93 0 0 1-.24.46.84.84 0 0 1-.94.2.88.88 0 0 1-.39-.34.94.94 0 0 1 .1-1.14.85.85 0 0 1 .62-.27Zm1.27 3.16h-2.54c-.37 0-.72.15-.98.42s-.4.64-.4 1.03v4.6h.92v4.37h3.46v-4.36h.93v-4.61c0-.39-.15-.76-.41-1.03a1.36 1.36 0 0 0-.98-.43Zm.46 5.09h-.92v4.36h-1.62v-4.36h-.92v-3.64a.5.5 0 0 1 .13-.34c.09-.1.2-.15.33-.15h2.54c.12 0 .24.06.33.15.08.09.13.21.13.34v3.64Zm5.14-5.46c.36 0 .7-.11 1-.32.3-.2.52-.5.66-.84a1.96 1.96 0 0 0-.4-2.05 1.76 1.76 0 0 0-.9-.51 1.7 1.7 0 0 0-1.04.1c-.33.15-.6.39-.8.7a1.94 1.94 0 0 0 .22 2.37c.33.35.79.55 1.26.55Zm0-2.79c.18 0 .34.06.48.16.15.1.26.24.32.4.07.17.08.35.05.53a.92.92 0 0 1-.24.46.84.84 0 0 1-.94.2.87.87 0 0 1-.38-.34.94.94 0 0 1 .1-1.14.85.85 0 0 1 .61-.27Zm1.61 4.4a1.86 1.86 0 0 0-.64-.9 1.71 1.71 0 0 0-2.04-.02c-.3.22-.53.53-.66.89l-1.8 5v1.3h1.86v2.91h3v-2.9h1.85v-1.54l-1.57-4.73Zm.64 5.3h-1.84v2.91h-1.16v-2.9h-1.85v-.16l1.73-4.84a.9.9 0 0 1 .32-.43.83.83 0 0 1 .98.01c.14.11.25.26.3.44l1.52 4.57v.4Z"/><g clip-path="url(#a)"><path fill="#fff" d="M182.44 187.6c-.15 0-.25.14-.25.24v1.25h-.5v-1.25c0-.15-.1-.25-.25-.25s-.25.15-.25.25v1.25h-.5v-1.25c0-.15-.1-.25-.24-.25-.15 0-.25.15-.25.25v1.65c0 .45.35.8.75.84v3.5c0 .3.2.5.5.5s.5-.2.5-.5v-3.5c.39-.05.74-.4.74-.84v-1.65c0-.1-.1-.25-.25-.25Zm1 .24v3h.5v2.98c0 .3.2.5.5.5s.5-.2.5-.5v-7.47c-.86 0-1.5.65-1.5 1.5Zm3.48-.5c-.7 0-1.24.75-1.24 1.65-.05.6.25 1.15.75 1.5v3.33c0 .3.2.5.5.5s.5-.2.5-.5v-3.34c.49-.34.79-.9.74-1.49 0-.9-.55-1.65-1.25-1.65Z"/></g><path fill="#fff" d="M126.64 187.6c-.16 0-.25.14-.25.24v1.25h-.5v-1.25c0-.15-.1-.25-.25-.25s-.25.15-.25.25v1.25h-.5v-1.25c0-.15-.1-.25-.25-.25s-.25.15-.25.25v1.65c0 .45.35.8.75.84v3.5c0 .3.2.5.5.5s.5-.2.5-.5v-3.5c.4-.05.74-.4.74-.84v-1.65c0-.1-.1-.25-.24-.25Zm1 .24v3h.49v2.98c0 .3.2.5.5.5s.5-.2.5-.5v-7.47c-.85 0-1.5.65-1.5 1.5Zm3.48-.5c-.7 0-1.25.75-1.25 1.65-.05.6.25 1.15.75 1.5v3.33c0 .3.2.5.5.5s.5-.2.5-.5v-3.34c.5-.34.8-.9.74-1.49 0-.9-.54-1.65-1.24-1.65ZM118.16 230.44c-.15 0-.24.15-.24.25v1.25h-.5v-1.25c0-.15-.1-.25-.25-.25s-.25.15-.25.25v1.25h-.5v-1.25c0-.15-.1-.25-.25-.25s-.25.15-.25.25v1.65c0 .45.35.8.75.84v3.5c0 .3.2.5.5.5s.5-.2.5-.5v-3.5c.4-.04.74-.4.74-.84v-1.65c0-.1-.1-.25-.25-.25Zm1 .25v3h.5v2.98c0 .3.2.5.5.5s.5-.2.5-.5v-7.47c-.85 0-1.5.65-1.5 1.5Zm3.49-.5c-.7 0-1.25.75-1.25 1.65-.05.6.25 1.15.75 1.5v3.33c0 .3.2.5.5.5s.5-.2.5-.5v-3.33c.5-.35.8-.9.74-1.5 0-.9-.54-1.64-1.24-1.64ZM180.94 230.44c-.15 0-.24.15-.24.25v1.25h-.5v-1.25c0-.15-.1-.25-.25-.25s-.25.15-.25.25v1.25h-.5v-1.25c0-.15-.1-.25-.25-.25s-.25.15-.25.25v1.65c0 .45.35.8.75.84v3.5c0 .3.2.5.5.5s.5-.2.5-.5v-3.5c.4-.04.74-.4.74-.84v-1.65c0-.1-.1-.25-.25-.25Zm1 .25v3h.5v2.98c0 .3.2.5.5.5s.5-.2.5-.5v-7.47c-.85 0-1.5.65-1.5 1.5Zm3.49-.5c-.7 0-1.25.75-1.25 1.65-.05.6.25 1.15.75 1.5v3.33c0 .3.2.5.5.5s.5-.2.5-.5v-3.33c.5-.35.8-.9.75-1.5 0-.9-.55-1.64-1.25-1.64ZM239.74 184.1c-.15 0-.25.16-.25.26v1.24h-.5v-1.24c0-.15-.1-.25-.25-.25s-.25.15-.25.25v1.24h-.5v-1.24c0-.15-.1-.25-.24-.25-.15 0-.25.15-.25.25V186c0 .45.35.8.74.85v3.49c0 .3.2.5.5.5s.5-.2.5-.5v-3.5c.4-.04.75-.4.75-.84v-1.64c0-.1-.1-.25-.25-.25Zm1 .26v2.99h.5v2.99c0 .3.2.5.5.5s.49-.2.49-.5v-7.48c-.85 0-1.5.65-1.5 1.5Zm3.48-.5c-.7 0-1.24.74-1.24 1.64-.05.6.25 1.15.75 1.5v3.34c0 .3.2.5.5.5s.5-.2.5-.5V187c.49-.35.79-.9.74-1.5 0-.9-.55-1.64-1.25-1.64ZM239.74 218.49c-.15 0-.25.15-.25.25v1.24h-.5v-1.24c0-.15-.1-.25-.25-.25s-.25.15-.25.25v1.24h-.5v-1.24c0-.15-.1-.25-.24-.25-.15 0-.25.15-.25.25v1.64c0 .45.35.8.74.85v3.49c0 .3.2.5.5.5s.5-.2.5-.5v-3.5c.4-.04.75-.4.75-.84v-1.64c0-.1-.1-.25-.25-.25Zm1 .25v2.99h.5v2.99c0 .3.2.5.5.5s.49-.2.49-.5v-7.48c-.85 0-1.5.65-1.5 1.5Zm3.48-.5c-.7 0-1.24.75-1.24 1.64-.05.6.25 1.15.75 1.5v3.34c0 .3.2.5.5.5s.5-.2.5-.5v-3.34c.49-.35.79-.9.74-1.5 0-.9-.55-1.64-1.25-1.64ZM299.03 197.56c-.15 0-.25.15-.25.25v1.25h-.5v-1.25c0-.15-.1-.25-.24-.25-.15 0-.25.15-.25.25v1.25h-.5v-1.25c0-.15-.1-.25-.25-.25s-.25.15-.25.25v1.64c0 .45.35.8.75.85v3.49c0 .3.2.5.5.5s.5-.2.5-.5v-3.49c.4-.05.74-.4.74-.85v-1.64c0-.1-.1-.25-.25-.25Zm1 .25v2.99h.5v2.99c0 .3.2.5.5.5s.5-.2.5-.5v-7.47c-.85 0-1.5.64-1.5 1.49Zm3.49-.5c-.7 0-1.25.75-1.25 1.65-.05.6.25 1.14.75 1.49v3.34c0 .3.2.5.5.5s.5-.2.5-.5v-3.34c.5-.35.8-.9.74-1.5 0-.9-.55-1.64-1.24-1.64ZM412.14 199.06c-.15 0-.25.14-.25.24v1.25h-.5v-1.25c0-.15-.1-.25-.25-.25s-.25.15-.25.25v1.25h-.5v-1.25c0-.15-.1-.25-.25-.25-.14 0-.24.15-.24.25v1.65c0 .45.35.8.74.84v3.5c0 .3.2.5.5.5s.5-.2.5-.5v-3.5c.4-.04.75-.4.75-.84v-1.65c0-.1-.1-.25-.25-.25Zm1 .24v3h.5v2.98c0 .3.2.5.5.5.29 0 .49-.2.49-.5v-7.47c-.85 0-1.5.65-1.5 1.5Zm3.48-.5c-.7 0-1.24.75-1.24 1.65-.05.6.25 1.15.74 1.5v3.33c0 .3.2.5.5.5s.5-.2.5-.5v-3.34c.5-.34.8-.9.75-1.49 0-.9-.55-1.64-1.25-1.64Z"/><defs><clipPath id="a"><path fill="#fff" d="M178.95 185.35h9.97v9.97h-9.97z"/></clipPath></defs></svg>