<svg xmlns="http://www.w3.org/2000/svg" width="184" height="112" fill="none"><path fill="#004091" fill-rule="evenodd" d="M8.86 25.8C27.6 13.66 59.36 8.22 90.94 8.39c33.85.19 67.55 6.78 84.81 18.32l-1.08 1.62c-16.95-11.33-50.23-17.82-83.73-18-31.25-.16-62.62 5.12-81.02 17.12L8.86 25.8Z" clip-rule="evenodd"/><path fill="#004091" fill-rule="evenodd" d="M90.74 1.17c49.55 0 90.7 12.5 90.7 24.1 0 11.62-39.99 22.8-89.54 22.8-49.55 0-89.9-11.2-89.9-22.8C2 13.7 41.19 1.18 90.74 1.18Z" clip-rule="evenodd"/><path fill="#004091" fill-rule="evenodd" d="M90.74 0c24.1 0 46.23 2.95 62.66 7.31 17.91 4.77 29.2 11.4 29.2 17.97 0 6.22-9.8 10.94-25.66 14.07-16.7 3.3-40.1 9.2-66.2 9.15-25.6-.06-48.73-5.83-64.91-9.1C10.28 36.25.16 30.48.16 24.24c0-6.6 11.52-12.23 29.09-17C45.18 2.91 66.75 0 90.72 0h.02Zm62.06 9.6c-16.25-4.32-38.16-7.23-62.06-7.23-23.76 0-45.11 2.88-60.85 7.16C13.37 14 3.17 19.85 3.17 25.3c0 4.94 8.74 8.96 23.11 11.84 16 3.24 39.04 8.99 64.46 9.05 25.92.06 49.2-5.83 65.75-9.1 14.71-2.9 23.78-6.89 23.78-11.79 0-5.44-10.58-11.25-27.47-15.73v.03Z" clip-rule="evenodd"/><path fill="#B8311E" fill-rule="evenodd" d="M9.12 25.63c13.73-8.82 34.32-14.07 56.67-16.16.5-2 .67-4.05.5-6.1C52.4 4.59 39.99 6.77 29.88 9.5c-13.62 3.7-22.95 8.32-25.8 12.88l.9.55c1.17.75 2.32 1.53 3.49 2.28l.65.42ZM174.31 25.6C160.6 16.78 140 11.53 117.64 9.44c-.5-1.99-.67-4.05-.5-6.1 13.9 1.21 26.3 3.39 36.42 6.13 13.62 3.7 22.94 8.32 25.79 12.88-.3.18-.6.36-.89.56-1.17.74-2.32 1.52-3.5 2.27l-.65.42Z" clip-rule="evenodd"/><path fill="#B8311E" d="M89.5 2.45C22.61 3.07 4.33 22.18 4.33 22.18l4.57 3.53S23.86 10.97 89.5 9.51c65.63-1.45 84.33 16.2 84.33 16.2l5.4-3.53S156.37 1.83 89.48 2.45Z"/><path fill="#004091" fill-rule="evenodd" d="M54.39 96.38a1.28 1.28 0 0 1 1.2-1.04.88.88 0 0 1 .9 1.03c-.14.72-.2 1.46-.2 2.2-.02.94.16 1.88.55 2.74 2.41 4.62 19.9 8.14 35.97 8.03 14-.09 26.5-3.2 32.63-7.17.92-.6.98-1.69 1.04-2.95.03-.8.12-1.59.27-2.37a1.24 1.24 0 0 1 1.28-.97.88.88 0 0 1 .83 1.1c-.13.67-.2 1.36-.21 2.05-.11 1.92-.2 3.52-2.2 4.81-6.45 4.17-19.24 7.48-33.62 7.6-16.8.14-35.1-3.63-37.9-9a7.93 7.93 0 0 1-.74-3.56c-.02-.84.04-1.68.2-2.5Z" clip-rule="evenodd"/><path fill="#fff" fill-rule="evenodd" d="M113.22 101.78c-18.6 3.5-39.03 2.76-56.94-3.15-.03.92.15 1.84.53 2.68 2.42 4.62 19.9 8.14 35.98 8.03 14-.09 26.5-3.2 32.63-7.17.91-.6.97-1.69 1.04-2.95 0-.27 0-.53.05-.8-4.36 1.38-8.8 2.5-13.3 3.36Z" clip-rule="evenodd"/><path fill="#004091" fill-rule="evenodd" d="M.02 24.57a2.4 2.4 0 0 1 .64-1.98 2.56 2.56 0 0 1 3.15-.34c.4.2.77.44 1.14.68 1.17.75 2.32 1.53 3.5 2.28 4.78 3.07 9.77 5.8 14.94 8.18 36 16.52 88.92 16.32 126.2 4.07 3.54-1.16 7.04-2.4 10.48-3.84a138.89 138.89 0 0 0 17.91-9c.93-.55 2.01-1.28 1.16-3.34-.23-.58 1.8-.05 2.3.5 2.03 2.06 2.21 5.73 1.73 7.1-3.02 16.04-9.26 31.46-19.4 44.34-8.65 10.97-19.87 19.7-32.96 24.72-25.18 9.68-57.08 10.02-81.88-1.14-16.9-7.59-29.54-20.76-38.05-37.04a104.83 104.83 0 0 1-7.97-20.17A81.64 81.64 0 0 1 .02 24.57Z" clip-rule="evenodd"/><path fill="#fff" fill-rule="evenodd" d="M2.35 24.32C3.5 38.4 13.65 78.41 49.88 94.7c24.56 11 55.84 10.4 80.15 1.12 23.87-9.14 44.35-32.32 50.94-67.5 0 0 1.33-3.43-1.75-1.63a135.24 135.24 0 0 1-28.85 13.04c-37.88 12.43-91.4 12.57-127.9-4.18C8.8 29.27 2.15 23.29 2.34 24.32Z" clip-rule="evenodd"/><path fill="#004091" fill-rule="evenodd" d="M2.46 35.25c40.08 28.93 130.1 32.25 177.2 2.07 4.24-2.7 1.36-.8 1.16-1.11-.2-.3.78-1.8.47-1.6-22.97 14.54-52.68 21.29-83.1 21.85-34.28.64-66.28-4.62-95.83-23.03a1.12 1.12 0 0 0 .1 1.82Z" clip-rule="evenodd"/><path fill="#B8311E" fill-rule="evenodd" d="M6.64 34.2a.97.97 0 0 1-1.66.69.99.99 0 0 1-.29-.7c0-1.82-.1-5.43-.1-5.44a.97.97 0 0 1 1.45-.86l5.12 2.78a.97.97 0 0 1 .51.86v5.07a.96.96 0 0 1-1.47.84l-2.47-1.35a1 1 0 0 1-.51-.9l-.04-2.16a.96.96 0 0 1 .95-.98.98.98 0 0 1 .99.96v1.64l.59.33v-2.86L6.5 30.4c.1 1.2.13 2.84.13 3.8ZM14.31 38.33a.97.97 0 0 1-.98.96.98.98 0 0 1-.97-.98c0-1.83-.1-5.43-.1-5.45a.97.97 0 0 1 1.45-.86l5.12 2.78a.98.98 0 0 1 .52.9v5.06a.96.96 0 0 1-.97.97.95.95 0 0 1-.52-.15l-2.46-1.41a.99.99 0 0 1-.51-.9l-.04-2.16a.96.96 0 0 1 .95-.98.98.98 0 0 1 .99.97v1.64l.59.32v-2.86l-3.2-1.72c.1 1.27.13 2.9.13 3.87ZM22.05 42.23a.97.97 0 1 1-1.95-.01c0-1.83-.1-5.42-.1-5.44a.97.97 0 0 1 .93-1c.13 0 .26.03.39.08l5.15 2.07a.98.98 0 0 1 .64.91v5.07a.97.97 0 0 1-1.4.87l-2.45-1a.99.99 0 0 1-.64-.94l-.04-2.16a.95.95 0 0 1 .95-.98.97.97 0 0 1 .99.96v1.56l.59.24V39.5l-3.2-1.28c.1 1.23.14 2.98.14 4ZM30.1 45.57a.96.96 0 0 1-.97.96.98.98 0 0 1-.97-.97c0-1.83-.1-5.42-.11-5.43a.96.96 0 0 1 .94-1c.11 0 .22.02.33.05l5.16 1.7a.98.98 0 0 1 .67.93v5.07a.96.96 0 0 1-.98.97.94.94 0 0 1-.36-.07l-2.47-.83a.98.98 0 0 1-.64-.97l-.04-2.15a.96.96 0 0 1 .95-.97.97.97 0 0 1 .99.95l.03 1.52.6.2V42.5l-3.2-1.05c.03 1.26.07 3.06.07 4.12ZM37.77 48.05a.97.97 0 0 1-1.66.67.99.99 0 0 1-.28-.69c0-1.82-.11-5.41-.11-5.42a.97.97 0 0 1 1.27-.95l5.16 1.7a.98.98 0 0 1 .67.93v5.07a.96.96 0 0 1-.97.97.94.94 0 0 1-.36-.07l-2.46-.83a.98.98 0 0 1-.67-.96l-.05-2.15a.97.97 0 0 1 1.65-.7c.18.17.29.42.3.68v1.51l.59.2V45l-3.2-1.05c.08 1.25.12 3.05.12 4.11ZM45.5 50.3a.97.97 0 0 1-1.65.68.98.98 0 0 1-.29-.7c0-1.8-.1-5.38-.1-5.4a.97.97 0 0 1 .93-1 1 1 0 0 1 .25 0l5.12.98a.98.98 0 0 1 .8.96v5.06a.97.97 0 0 1-1.23.94l-2.45-.48a.98.98 0 0 1-.8-.99l-.04-2.15a.96.96 0 0 1 .95-.98.98.98 0 0 1 1 .96v1.4l.59.12v-3.09l-3.2-.6c.08 1.27.13 3.2.13 4.3ZM53.5 51.88a.97.97 0 0 1-.98.97.98.98 0 0 1-.97-.98c0-1.68-.1-4.98-.1-5a.97.97 0 0 1 .93-1h.2l5.13.86a1 1 0 0 1 .82.96v4.7a.96.96 0 0 1-1.2.93l-2.45-.42a.97.97 0 0 1-.82-1l-.04-1.98a.96.96 0 0 1 .95-.98.98.98 0 0 1 .99.96v1.22l.6.11V48.5l-3.2-.53c.1 1.18.14 2.91.14 3.91ZM61.18 53.12a.98.98 0 1 1-1.96 0c0-1.68-.1-4.98-.1-5a.96.96 0 0 1 .94-.99.72.72 0 0 1 .2 0l5.12.86a.97.97 0 0 1 .82.97v4.69a.96.96 0 0 1-.98.96.88.88 0 0 1-.23 0l-2.45-.42a.98.98 0 0 1-.81-.99l-.04-1.99a.96.96 0 0 1 .94-.98.98.98 0 0 1 1 .96v1.22l.59.1v-2.76l-3.2-.54c.11 1.18.16 2.92.16 3.91ZM68.91 54.15a.97.97 0 0 1-1.67.68.99.99 0 0 1-.28-.69c0-1.68-.1-4.97-.1-4.98a.96.96 0 0 1 .93-1h.1l5.11.2a.97.97 0 0 1 .94.97v4.7a.96.96 0 0 1-.97.96h-.11l-2.45-.1a.97.97 0 0 1-.94-.99l-.04-2a.96.96 0 0 1 .95-.98.98.98 0 0 1 1 .96v1.1h.59v-2.72l-3.2-.12c.09 1.15.14 2.98.14 4.01ZM77.1 54.74a.96.96 0 0 1-.98.97.98.98 0 0 1-.97-.98c0-1.68-.1-4.98-.11-4.98a.97.97 0 0 1 .93-1h.08l5.15.25a.97.97 0 0 1 .94.97v4.7a.96.96 0 0 1-.98.96h-.12l-2.45-.13a.98.98 0 0 1-.92-1l-.05-1.98a.97.97 0 0 1 1.65-.71c.19.18.3.42.3.68v1.12l.6.03V50.9l-3.2-.16c.08 1.15.12 2.97.12 4ZM85.15 55.07a.97.97 0 0 1-1.67.68.99.99 0 0 1-.28-.69c0-1.68-.1-4.97-.1-4.98a.97.97 0 0 1 .93-.97h.08l5.16.25a.98.98 0 0 1 .93.97v4.7a.96.96 0 0 1-.97.96h-.14l-2.45-.13a1 1 0 0 1-.93-1l-.04-1.99a.96.96 0 0 1 .95-.98.98.98 0 0 1 .99.96v1.12l.6.03v-2.74L85 51.1c.09 1.12.14 2.94.14 3.97ZM93.46 55.2a.96.96 0 0 1-.97.96.98.98 0 0 1-.97-.98c0-1.68-.1-4.97-.1-4.97a.97.97 0 0 1 .93-1l5.15-.19a.98.98 0 0 1 1 .94v4.74a.97.97 0 0 1-.97.96h-.04l-2.45.07a.99.99 0 0 1-1-.94l-.05-2.04a.97.97 0 0 1 1.65-.7c.18.17.3.42.3.68v1.03h.6v-2.73l-3.2.1c.08 1.12.12 3 .12 4.07ZM101.71 55.16a.97.97 0 0 1-.28.68.96.96 0 0 1-.69.28.98.98 0 0 1-.97-.98c0-1.68-.1-4.96-.1-4.97a.96.96 0 0 1 .93-1l5.16-.26a.98.98 0 0 1 1.02.92v4.75a.97.97 0 0 1-.97.97l-2.48.1a.97.97 0 0 1-1.02-.92l-.04-2.05a.98.98 0 0 1 .22-.8.98.98 0 0 1 1.15-.24.97.97 0 0 1 .55 1.03v1.02h.6v-2.8l-3.2.17c.07 1.14.12 3.03.12 4.1ZM109.39 54.73a.96.96 0 0 1-1.67.67.99.99 0 0 1-.28-.69c0-1.68-.1-4.96-.1-4.97a.97.97 0 0 1 .24-.7.95.95 0 0 1 .67-.3l5.15-.27a.98.98 0 0 1 1.02.92v4.75a.97.97 0 0 1-.6.9.96.96 0 0 1-.37.06l-2.48.12a.98.98 0 0 1-1.02-.93l-.04-2.06a.97.97 0 0 1 .27-.69.97.97 0 0 1 1.37-.01c.19.18.3.42.3.68v1.02h.6v-2.75l-3.2.16c.08 1.13.14 3.02.14 4.09ZM117.12 54.07a.97.97 0 0 1-.97.97.98.98 0 0 1-.97-.98c0-1.7-.11-4.95-.11-4.97a.97.97 0 0 1 .79-.98l5.16-.93a.97.97 0 0 1 1.13.78.9.9 0 0 1 0 .18v4.7a.96.96 0 0 1-.88.96l-2.45.43a.98.98 0 0 1-1.12-.8v-.15l-.05-2.02a.95.95 0 0 1 .27-.69.95.95 0 0 1 .69-.29.98.98 0 0 1 .99.96v.88l.6-.11V49.3l-3.2.57c.07 1.16.12 3.07.12 4.2ZM125.3 52.87a.98.98 0 0 1-.97.97.99.99 0 0 1-.97-.99c0-1.68-.1-4.95-.1-4.95a.97.97 0 0 1 .8-1l5.16-.87a.98.98 0 0 1 1.13.8v4.83a.97.97 0 0 1-.86.96l-2.47.41a.99.99 0 0 1-1.13-.8v-.21l-.04-1.92a.97.97 0 0 1 .95-.99.98.98 0 0 1 1 .96v.9l.6-.1v-2.72l-3.2.53c.06 1.13.1 3.1.1 4.19ZM133.36 51.45a.97.97 0 0 1-1.66.67.98.98 0 0 1-.28-.69c0-1.68-.11-4.95-.11-4.96a.97.97 0 0 1 .8-1l5.16-.86a.98.98 0 0 1 1.13.8v4.86a.97.97 0 0 1-.87.96l-2.47.4a.97.97 0 0 1-1.12-.8.75.75 0 0 1 0-.2l-.05-1.96a.97.97 0 0 1 .27-.7.97.97 0 0 1 .69-.28.98.98 0 0 1 .99.95v.89l.6-.1v-2.71l-3.2.54c.07 1.12.12 3.09.12 4.19ZM141.68 49.74a.96.96 0 0 1-.28.7.97.97 0 0 1-1.38-.02 1 1 0 0 1-.3-.69c0-1.68-.1-4.94-.1-4.95a.96.96 0 0 1 .75-.97l5.12-1.28a.98.98 0 0 1 1.22.95v4.7a.96.96 0 0 1-.82.94l-2.44.61a.98.98 0 0 1-1.18-.7v-.23l-.05-2.01a.97.97 0 0 1 .27-.7.96.96 0 0 1 1.38 0c.18.17.29.42.3.67v.8l.6-.16v-2.68l-3.2.8c.06 1.09.1 3.1.1 4.22ZM149.73 47.3a.96.96 0 0 1-.28.7.97.97 0 0 1-1.38-.01.99.99 0 0 1-.28-.7c0-1.67-.1-4.92-.1-4.93a.96.96 0 0 1 .6-.93l5.15-2.06a.98.98 0 0 1 1.36.9v4.7a.96.96 0 0 1-.68.92l-2.46.98a.98.98 0 0 1-1.28-.55.93.93 0 0 1-.07-.4l-.05-1.96a.97.97 0 1 1 1.95-.02v.6l.6-.24v-2.59l-3.2 1.28c.07 1.07.12 3.17.12 4.32ZM157.92 44.31a.97.97 0 0 1-.6.9.96.96 0 0 1-1.06-.22 1 1 0 0 1-.3-.69c0-1.68-.1-4.92-.1-4.93a.97.97 0 0 1 .65-.94l5.15-2.01a.99.99 0 0 1 1.28.56c.05.11.07.23.07.35v4.7a.96.96 0 0 1-.68.92l-2.47.95a.97.97 0 0 1-1.27-.56 1.03 1.03 0 0 1-.07-.4l-.04-1.95a.96.96 0 0 1 1.64-.7c.18.18.29.42.3.68v.64l.6-.24v-2.6l-3.2 1.24c.04 1.07.1 3.15.1 4.3ZM165.98 41.13a.97.97 0 0 1-.98.96.99.99 0 0 1-.97-.98c0-1.68-.1-4.93-.1-4.93a.95.95 0 0 1 .64-.94l5.16-2.01a.98.98 0 0 1 1.28.55c.04.12.06.24.06.36v4.73a.97.97 0 0 1-.68.92l-2.46.96a.99.99 0 0 1-1.35-.96l-.04-1.96a.96.96 0 0 1 .58-.9.96.96 0 0 1 1.06.2c.19.18.3.42.3.68v.64l.64-.24v-2.6l-3.2 1.25c0 1.03.06 3.12.06 4.27ZM174.3 37.59a.97.97 0 0 1-.98.97.98.98 0 0 1-.97-.98c0-1.68-.1-4.92-.11-4.93a.98.98 0 0 1 .6-.93l5.11-2.41a.97.97 0 0 1 1.38.88v4.69a.98.98 0 0 1-.64.9l-2.47 1.16a.98.98 0 0 1-1.28-.48.92.92 0 0 1-.09-.44l-.04-1.95a.98.98 0 0 1 .22-.79.97.97 0 0 1 1.7.8v.5l.64-.3v-2.56l-3.2 1.51c.07 1.07.12 3.2.12 4.36Z" clip-rule="evenodd"/></svg>