<svg width="184" height="112" viewBox="0 0 184 112" fill="none" xmlns="http://www.w3.org/2000/svg">
<path fill-rule="evenodd" clip-rule="evenodd" d="M8.85745 25.8072C27.5953 13.6523 59.3644 8.21457 90.9417 8.3809C124.79 8.56642 158.491 15.1621 175.751 26.7029L174.67 28.3214C157.723 16.9853 124.438 10.5048 90.9353 10.3257C59.6907 10.1594 28.3182 15.4436 9.91941 27.4386L8.85745 25.8072Z" fill="#004091"/>
<path fill-rule="evenodd" clip-rule="evenodd" d="M90.7441 1.17133C140.291 1.17133 181.439 13.6653 181.439 25.2765C181.439 36.8877 141.45 48.0636 91.9023 48.0636C42.3549 48.0636 2.00021 36.8621 2.00021 25.2765C2.00021 13.6909 41.1903 1.17133 90.7441 1.17133Z" fill="#004091"/>
<path fill-rule="evenodd" clip-rule="evenodd" d="M90.7434 0C114.836 0 136.971 2.94919 153.399 7.31217C171.311 12.0782 182.603 18.7122 182.603 25.2759C182.603 31.5005 172.802 36.2153 156.937 39.35C140.24 42.6511 116.839 48.5582 90.7434 48.4972C65.1451 48.4374 42.0149 42.6703 25.8296 39.3948C10.2777 36.2601 0.163513 30.4897 0.163513 24.2459C0.163513 17.6567 11.6787 12.0206 29.2458 7.24179C45.1752 2.91719 66.7406 0 90.7178 0H90.7434ZM152.798 9.59601C136.555 5.2778 114.637 2.36702 90.7434 2.36702C66.9837 2.36702 45.6294 5.24583 29.8855 9.52565C13.374 14.0038 3.17026 19.851 3.17026 25.3015C3.17026 30.2402 11.909 34.2578 26.2838 37.143C42.2772 40.38 65.3238 46.1299 90.7434 46.1877C116.663 46.2467 139.945 40.3608 156.489 37.0854C171.203 34.181 180.268 30.2019 180.268 25.3015C180.268 19.8638 169.693 14.0486 152.804 9.57043L152.798 9.59601Z" fill="#004091"/>
<path fill-rule="evenodd" clip-rule="evenodd" d="M9.11997 25.6343C22.8487 16.8123 43.4353 11.5601 65.794 9.46821C66.2937 7.4793 66.4601 5.42129 66.2866 3.37793C52.4044 4.58063 39.9871 6.75573 29.8793 9.50019C16.2594 13.1978 6.93208 17.8167 4.08527 22.3844C4.38594 22.5572 4.68662 22.7427 4.9745 22.9346C6.14521 23.6831 7.29673 24.4636 8.46745 25.212L9.11997 25.6343Z" fill="#B8311E"/>
<path fill-rule="evenodd" clip-rule="evenodd" d="M174.315 25.6048C160.587 16.7829 140 11.5307 117.641 9.43873C117.142 7.44982 116.975 5.39181 117.149 3.34845C131.031 4.55115 143.448 6.72625 153.556 9.47071C167.176 13.1684 176.503 17.7873 179.35 22.355C179.049 22.5277 178.749 22.7132 178.461 22.9051C177.29 23.6536 176.139 24.4341 174.968 25.1826L174.315 25.6048Z" fill="#B8311E"/>
<path d="M89.494 2.45097C22.6189 3.07403 4.34244 22.1812 4.34244 22.1812L8.91155 25.7119C8.91155 25.7119 23.865 10.9662 89.494 9.51232C155.123 8.05849 173.815 25.7119 173.815 25.7119L179.215 22.1812C179.215 22.1812 156.369 1.82791 89.494 2.45097Z" fill="#B8311E"/>
<path fill-rule="evenodd" clip-rule="evenodd" d="M54.3862 96.3756C54.4409 96.0917 54.5902 95.8346 54.8098 95.6464C55.0294 95.4582 55.3062 95.3499 55.5952 95.3393C55.7266 95.3334 55.8576 95.3571 55.9785 95.4087C56.0995 95.4603 56.2073 95.5385 56.2939 95.6374C56.3805 95.7363 56.4438 95.8535 56.479 95.9801C56.5142 96.1068 56.5204 96.2398 56.4973 96.3692C56.3524 97.0914 56.2859 97.8271 56.299 98.5635C56.2694 99.5071 56.4531 100.445 56.8363 101.308C59.2545 105.927 76.7384 109.452 92.815 109.343C106.812 109.253 119.313 106.144 125.441 102.165C126.356 101.57 126.42 100.483 126.484 99.216C126.512 98.4212 126.602 97.6298 126.753 96.849C126.816 96.5616 126.98 96.3059 127.214 96.1278C127.448 95.9497 127.738 95.8606 128.032 95.8766C128.164 95.8804 128.293 95.9137 128.41 95.9739C128.528 96.0342 128.63 96.1199 128.71 96.2248C128.789 96.3297 128.845 96.4512 128.871 96.5802C128.898 96.7093 128.896 96.8426 128.864 96.9706C128.735 97.6501 128.662 98.3391 128.646 99.0305C128.538 100.95 128.455 102.549 126.452 103.841C120.004 108.012 107.209 111.32 92.8341 111.441C76.0347 111.582 57.7384 107.808 54.9299 102.447C54.4095 101.333 54.1554 100.113 54.1878 98.8834C54.167 98.0429 54.2335 97.2025 54.3862 96.3756Z" fill="#004091"/>
<path fill-rule="evenodd" clip-rule="evenodd" d="M113.216 101.775C94.6252 105.287 74.1921 104.539 56.2796 98.6339C56.252 99.554 56.4335 100.468 56.8106 101.308C59.2287 105.927 76.7127 109.452 92.7892 109.343C106.787 109.253 119.287 106.144 125.416 102.165C126.33 101.57 126.394 100.483 126.458 99.216C126.458 98.9538 126.458 98.6915 126.51 98.4164C122.15 99.8009 117.71 100.922 113.216 101.775Z" fill="white"/>
<path fill-rule="evenodd" clip-rule="evenodd" d="M0.0221924 24.5717C-0.0266924 24.2143 0.00542477 23.8505 0.116162 23.5072C0.226899 23.164 0.413422 22.85 0.661926 22.5885C1.07245 22.1871 1.60607 21.9354 2.17695 21.8739C2.74783 21.8124 3.32281 21.9447 3.80941 22.2495C4.20114 22.4568 4.58129 22.6853 4.94814 22.934C6.11886 23.6825 7.27038 24.4629 8.44109 25.2114C13.2275 28.2825 18.2233 31.0145 23.3917 33.3872C59.3895 49.9052 112.315 49.7132 149.592 37.4623C153.13 36.3044 156.629 35.0569 160.071 33.6239C166.251 31.0569 172.237 28.0465 177.983 24.6165C178.911 24.0727 179.992 23.337 179.141 21.2771C178.905 20.7013 180.932 21.2323 181.438 21.7889C183.466 23.836 183.651 27.5081 183.172 28.8835C180.146 44.9217 173.908 60.3392 163.762 73.2171C155.119 84.1949 143.898 92.9273 130.809 97.9364C105.629 107.622 73.7323 107.961 48.9298 96.7977C32.0217 89.2104 19.3933 76.0383 10.8849 59.7571C7.53581 53.3294 4.86235 46.5718 2.90739 39.5927C1.47772 34.687 0.511752 29.6579 0.0221924 24.5717Z" fill="#004091"/>
<path fill-rule="evenodd" clip-rule="evenodd" d="M2.35145 24.3232C3.49658 38.3973 13.6428 78.4063 49.8837 94.6939C74.443 105.685 105.72 105.083 130.03 95.807C153.904 86.6652 174.382 63.4941 180.972 28.3087C180.972 28.3087 182.296 24.8797 179.225 26.6838C170.151 32.1423 160.467 36.516 150.373 39.7152C112.494 52.1516 58.9679 52.2923 22.4647 35.5377C8.79997 29.2747 2.15953 23.2868 2.35145 24.3232Z" fill="white"/>
<path fill-rule="evenodd" clip-rule="evenodd" d="M2.45965 35.2483C42.539 64.1771 132.569 67.4973 179.666 37.321C183.895 34.615 181.022 36.515 180.817 36.2079C180.613 35.9008 181.604 34.4039 181.291 34.6086C158.318 49.1497 128.609 55.8989 98.1894 56.4619C63.9125 57.1016 31.913 51.843 2.35729 33.4315C2.2188 33.5431 2.10888 33.6861 2.03666 33.8486C1.96443 34.0112 1.93198 34.1886 1.94199 34.3662C1.95199 34.5438 2.00417 34.7164 2.09419 34.8698C2.18421 35.0232 2.30949 35.153 2.45965 35.2483Z" fill="#004091"/>
<path fill-rule="evenodd" clip-rule="evenodd" d="M6.6434 34.2065C6.6434 34.3348 6.61805 34.4617 6.56878 34.5801C6.51951 34.6985 6.44731 34.806 6.35634 34.8964C6.26536 34.9868 6.15741 35.0583 6.0387 35.1068C5.91998 35.1552 5.79284 35.1798 5.66461 35.1789C5.40554 35.1756 5.15823 35.0703 4.97623 34.8859C4.79423 34.7015 4.69219 34.4528 4.69222 34.1937C4.69222 32.3705 4.58986 28.7624 4.58986 28.7496C4.58559 28.6227 4.60636 28.4962 4.651 28.3774C4.69564 28.2586 4.76327 28.1497 4.85001 28.057C4.93676 27.9643 5.04092 27.8896 5.15654 27.8372C5.27217 27.7848 5.39699 27.7557 5.52387 27.7516C5.706 27.7449 5.88613 27.7916 6.04206 27.886L11.1599 30.6688C11.3148 30.7521 11.4441 30.8758 11.5342 31.0267C11.6244 31.1777 11.6719 31.3502 11.6717 31.526V36.5991C11.676 36.7273 11.6545 36.855 11.6086 36.9747C11.5627 37.0944 11.4933 37.2037 11.4044 37.2962C11.3156 37.3886 11.2091 37.4623 11.0913 37.5129C10.9735 37.5635 10.8467 37.5899 10.7185 37.5907C10.5345 37.591 10.3545 37.5376 10.2003 37.4372L7.73095 36.0873C7.5707 35.9989 7.43806 35.8678 7.34773 35.7086C7.2574 35.5494 7.2129 35.3683 7.21916 35.1853L7.18078 33.0294C7.17824 32.9023 7.20096 32.776 7.24765 32.6578C7.29433 32.5395 7.36404 32.4318 7.45272 32.3407C7.54141 32.2497 7.64729 32.1771 7.76424 32.1273C7.88119 32.0775 8.00687 32.0514 8.13398 32.0506C8.39139 32.0489 8.63912 32.1486 8.82352 32.3282C9.00791 32.5079 9.11413 32.7529 9.11917 33.0102V34.6543L9.70773 34.9806V32.121L6.50906 30.4001C6.60502 31.6092 6.6434 33.2405 6.6434 34.2065Z" fill="#B8311E"/>
<path fill-rule="evenodd" clip-rule="evenodd" d="M14.3134 38.3258C14.3134 38.4537 14.288 38.5804 14.2387 38.6984C14.1893 38.8165 14.117 38.9235 14.026 39.0134C13.9349 39.1033 13.8269 39.1742 13.7082 39.222C13.5896 39.2697 13.4626 39.2935 13.3346 39.2918C13.0762 39.2901 12.8288 39.1862 12.6467 39.0028C12.4645 38.8195 12.3622 38.5715 12.3622 38.313C12.3622 36.4834 12.2599 32.8752 12.2599 32.8625C12.2556 32.7356 12.2764 32.6091 12.321 32.4903C12.3657 32.3714 12.4333 32.2626 12.52 32.1699C12.6068 32.0772 12.7109 32.0025 12.8266 31.9501C12.9422 31.8977 13.067 31.8686 13.1939 31.8645C13.376 31.8577 13.5562 31.9044 13.7121 31.9988L18.8299 34.7817C18.9916 34.8663 19.1263 34.9944 19.219 35.1515C19.3117 35.3086 19.3586 35.4885 19.3545 35.6709V40.744C19.3554 40.8716 19.3308 40.9981 19.2821 41.1161C19.2335 41.2342 19.1618 41.3413 19.0712 41.4312C18.9807 41.5212 18.8731 41.5922 18.7548 41.64C18.6365 41.6879 18.5098 41.7117 18.3821 41.71C18.1982 41.7102 18.0181 41.6569 17.8639 41.5565L15.401 40.149C15.2407 40.0606 15.1081 39.9295 15.0178 39.7703C14.9274 39.6111 14.8829 39.4299 14.8892 39.247L14.8508 37.0911C14.8483 36.964 14.871 36.8377 14.9177 36.7195C14.9644 36.6012 15.0341 36.4935 15.1227 36.4024C15.2114 36.3113 15.3173 36.2388 15.4343 36.189C15.5512 36.1392 15.6769 36.1131 15.804 36.1123C16.0625 36.1106 16.3112 36.2112 16.4958 36.3922C16.6803 36.5732 16.7858 36.8198 16.7892 37.0783V38.716L17.3778 39.0423V36.1827L14.1791 34.4618C14.275 35.7285 14.3134 37.3534 14.3134 38.3258Z" fill="#B8311E"/>
<path fill-rule="evenodd" clip-rule="evenodd" d="M22.048 42.2282C22.048 42.3564 22.0226 42.4834 21.9734 42.6018C21.9241 42.7202 21.8519 42.8277 21.7609 42.9181C21.6699 43.0084 21.562 43.0799 21.4433 43.1284C21.3246 43.1769 21.1974 43.2014 21.0692 43.2006C20.8101 43.1972 20.5628 43.092 20.3808 42.9076C20.1988 42.7232 20.0968 42.4745 20.0968 42.2154C20.0968 40.3922 19.9944 36.7969 19.9944 36.7841C19.9875 36.5283 20.0817 36.2801 20.2565 36.0933C20.4313 35.9065 20.6728 35.7961 20.9285 35.7861C21.0617 35.7854 21.194 35.8093 21.3187 35.8565L26.4749 37.9292C26.6616 37.9991 26.8227 38.1239 26.9369 38.2873C27.0511 38.4506 27.1131 38.6447 27.1147 38.844V43.9107C27.1147 44.1686 27.0122 44.4159 26.8299 44.5983C26.6475 44.7807 26.4002 44.8831 26.1423 44.8831C25.9938 44.8795 25.8477 44.8446 25.7137 44.7807L23.2571 43.7764C23.0663 43.705 22.9024 43.5762 22.7878 43.4078C22.6732 43.2394 22.6137 43.0396 22.6173 42.836L22.579 40.68C22.5755 40.5527 22.5977 40.426 22.644 40.3074C22.6904 40.1888 22.7601 40.0807 22.8489 39.9894C22.9378 39.8982 23.044 39.8257 23.1614 39.7762C23.2787 39.7267 23.4048 39.7012 23.5322 39.7013C23.6599 39.6996 23.7866 39.7231 23.9053 39.7704C24.0239 39.8177 24.132 39.8879 24.2235 39.977C24.315 40.0661 24.388 40.1724 24.4385 40.2897C24.4889 40.407 24.5157 40.5332 24.5174 40.6609V42.2218L25.1059 42.4585V39.5093L21.9072 38.2299C22.0096 39.4646 22.048 41.211 22.048 42.2282Z" fill="#B8311E"/>
<path fill-rule="evenodd" clip-rule="evenodd" d="M30.103 45.5684C30.1039 45.696 30.0793 45.8225 30.0306 45.9405C29.982 46.0585 29.9103 46.1657 29.8198 46.2556C29.7292 46.3456 29.6216 46.4166 29.5033 46.4644C29.385 46.5123 29.2583 46.5361 29.1306 46.5344C28.8722 46.5327 28.6248 46.4288 28.4427 46.2454C28.2605 46.0621 28.1582 45.8141 28.1582 45.5556C28.1582 43.7323 28.0559 40.1434 28.0495 40.1306C28.0452 40.0032 28.0662 39.8762 28.1113 39.757C28.1563 39.6378 28.2245 39.5286 28.3119 39.4358C28.3993 39.3431 28.5042 39.2685 28.6206 39.2165C28.737 39.1644 28.8625 39.136 28.9899 39.1326C29.1024 39.1313 29.2144 39.1464 29.3226 39.1774L34.4788 40.8791C34.674 40.9436 34.8439 41.0679 34.9645 41.2344C35.0851 41.4009 35.1502 41.6012 35.1505 41.8067V46.8798C35.1506 47.0078 35.1252 47.1344 35.0758 47.2525C35.0265 47.3705 34.9542 47.4776 34.8631 47.5675C34.772 47.6573 34.664 47.7282 34.5454 47.776C34.4267 47.8238 34.2997 47.8475 34.1717 47.8458C34.0489 47.846 33.9272 47.8221 33.8135 47.7755L31.3441 46.9502C31.1475 46.8779 30.9792 46.7445 30.864 46.5694C30.7489 46.3944 30.6929 46.187 30.7044 45.9778L30.6596 43.8347C30.6571 43.7076 30.6798 43.5813 30.7265 43.4631C30.7732 43.3448 30.8429 43.237 30.9315 43.146C31.0202 43.0549 31.1261 42.9824 31.2431 42.9326C31.36 42.8828 31.4857 42.8567 31.6128 42.8559C31.8696 42.8525 32.1174 42.9508 32.3019 43.1294C32.4865 43.308 32.593 43.5523 32.598 43.8091L32.63 45.3253L33.2249 45.5236V42.504L30.0263 41.4549C30.0647 42.7088 30.103 44.5128 30.103 45.5684Z" fill="#B8311E"/>
<path fill-rule="evenodd" clip-rule="evenodd" d="M37.7732 48.0502C37.7732 48.1776 37.748 48.3037 37.6991 48.4213C37.6501 48.5389 37.5784 48.6457 37.488 48.7355C37.3976 48.8253 37.2904 48.8963 37.1725 48.9445C37.0545 48.9926 36.9282 49.017 36.8008 49.0161C36.5418 49.0128 36.2944 48.9075 36.1124 48.7231C35.9304 48.5387 35.8284 48.2901 35.8284 48.031C35.8284 46.2141 35.7197 42.6188 35.7197 42.6124C35.7154 42.485 35.7364 42.358 35.7814 42.2388C35.8265 42.1195 35.8947 42.0104 35.9821 41.9176C36.0695 41.8249 36.1744 41.7503 36.2908 41.6983C36.4071 41.6462 36.5327 41.6177 36.6601 41.6144C36.7706 41.6095 36.8812 41.6247 36.9863 41.6592L42.149 43.3609C42.3442 43.4254 42.5141 43.5497 42.6347 43.7162C42.7553 43.8827 42.8203 44.0829 42.8207 44.2885V49.3616C42.8216 49.4892 42.797 49.6158 42.7483 49.7338C42.6997 49.8518 42.628 49.9589 42.5374 50.0489C42.4469 50.1388 42.3393 50.2098 42.221 50.2577C42.1026 50.3055 41.976 50.3293 41.8483 50.3276C41.7255 50.3278 41.6037 50.3039 41.4901 50.2572L39.0271 49.432C38.8255 49.3656 38.651 49.2354 38.5299 49.0612C38.4087 48.8869 38.3475 48.6781 38.3554 48.466L38.3106 46.3229C38.3081 46.1955 38.3307 46.0688 38.3773 45.9502C38.424 45.8317 38.4936 45.7235 38.5822 45.6319C38.6708 45.5403 38.7766 45.4672 38.8936 45.4167C39.0106 45.3662 39.1364 45.3393 39.2638 45.3377C39.5223 45.3342 39.7717 45.4332 39.9574 45.613C40.1432 45.7928 40.2503 46.0388 40.2554 46.2973V47.8135L40.8503 48.0118V44.9858L37.6517 43.9431C37.7348 45.1905 37.7732 46.9946 37.7732 48.0502Z" fill="#B8311E"/>
<path fill-rule="evenodd" clip-rule="evenodd" d="M45.5081 50.3082C45.5081 50.4356 45.4829 50.5617 45.4339 50.6794C45.385 50.797 45.3132 50.9038 45.2229 50.9935C45.1325 51.0833 45.0252 51.1543 44.9073 51.2025C44.7894 51.2507 44.6631 51.275 44.5357 51.2742C44.2766 51.2708 44.0293 51.1656 43.8473 50.9812C43.6653 50.7968 43.5632 50.5481 43.5633 50.289C43.5633 48.4722 43.4609 44.896 43.4545 44.8832C43.4476 44.6264 43.5426 44.3773 43.7189 44.1903C43.8951 44.0033 44.1381 43.8936 44.3949 43.8853C44.4757 43.8755 44.5573 43.8755 44.638 43.8853L49.7559 44.8577C49.9801 44.8994 50.1827 45.0181 50.3287 45.1933C50.4747 45.3685 50.5549 45.5892 50.5556 45.8173V50.884C50.5556 51.0122 50.5302 51.1392 50.4809 51.2575C50.4317 51.3759 50.3595 51.4834 50.2685 51.5738C50.1775 51.6642 50.0696 51.7357 49.9509 51.7842C49.8321 51.8327 49.705 51.8572 49.5768 51.8563C49.4922 51.8561 49.408 51.8432 49.3273 51.818L46.8771 51.3446C46.6486 51.3006 46.4432 51.1766 46.2978 50.9949C46.1525 50.8131 46.0766 50.5856 46.0838 50.353L46.039 48.2035C46.0356 48.0759 46.0577 47.9488 46.104 47.8299C46.1503 47.7109 46.2199 47.6024 46.3087 47.5106C46.3974 47.4189 46.5036 47.3457 46.621 47.2955C46.7384 47.2453 46.8646 47.2191 46.9922 47.2183C47.2507 47.2148 47.5001 47.3138 47.6859 47.4936C47.8717 47.6734 47.9788 47.9194 47.9838 48.1779V49.5853L48.5788 49.7004V46.6105L45.3801 46.0092C45.4633 47.2823 45.5081 49.2079 45.5081 50.3082Z" fill="#B8311E"/>
<path fill-rule="evenodd" clip-rule="evenodd" d="M53.5038 51.8821C53.5038 52.01 53.4784 52.1367 53.4291 52.2547C53.3797 52.3728 53.3074 52.4798 53.2164 52.5697C53.1253 52.6596 53.0173 52.7305 52.8986 52.7783C52.7799 52.826 52.653 52.8498 52.525 52.8481C52.2666 52.8464 52.0192 52.7425 51.837 52.5591C51.6549 52.3758 51.5526 52.1278 51.5526 51.8693C51.5526 50.1868 51.4503 46.8858 51.4503 46.873C51.4451 46.7456 51.4653 46.6184 51.5095 46.4988C51.5538 46.3793 51.6213 46.2696 51.7081 46.1763C51.7949 46.0829 51.8994 46.0076 52.0154 45.9548C52.1315 45.902 52.2569 45.8727 52.3843 45.8686C52.4524 45.862 52.5209 45.862 52.589 45.8686L57.7069 46.7258C57.9358 46.7648 58.1437 46.8828 58.2945 47.0593C58.4453 47.2358 58.5294 47.4597 58.5321 47.6918V52.3875C58.533 52.5151 58.5084 52.6416 58.4597 52.7596C58.4111 52.8777 58.3394 52.9848 58.2489 53.0747C58.1583 53.1647 58.0507 53.2357 57.9324 53.2836C57.8141 53.3314 57.6874 53.3552 57.5597 53.3535C57.4819 53.3532 57.4044 53.3424 57.3294 53.3215L54.8793 52.8993C54.6454 52.862 54.4333 52.7407 54.2825 52.5582C54.1317 52.3756 54.0528 52.1443 54.0604 51.9077L54.022 49.9245C54.0186 49.7974 54.0405 49.6709 54.0864 49.5524C54.1323 49.4338 54.2013 49.3256 54.2894 49.2339C54.3775 49.1422 54.4829 49.069 54.5995 49.0184C54.7162 48.9679 54.8417 48.941 54.9688 48.9393C55.2273 48.9359 55.4767 49.0349 55.6625 49.2147C55.8483 49.3944 55.9554 49.6404 55.9604 49.8989V51.1208L56.5554 51.2296V48.5043L53.3567 47.9733C53.459 49.1504 53.5038 50.8841 53.5038 51.8821Z" fill="#B8311E"/>
<path fill-rule="evenodd" clip-rule="evenodd" d="M61.1753 53.1238C61.1862 53.2585 61.1691 53.3941 61.125 53.5219C61.0809 53.6497 61.0109 53.767 60.9192 53.8664C60.8275 53.9658 60.7163 54.0451 60.5924 54.0994C60.4686 54.1536 60.3349 54.1816 60.1997 54.1816C60.0645 54.1816 59.9307 54.1536 59.8069 54.0994C59.6831 54.0451 59.5718 53.9658 59.4801 53.8664C59.3885 53.767 59.3184 53.6497 59.2743 53.5219C59.2303 53.3941 59.2132 53.2585 59.2241 53.1238C59.2241 51.4413 59.1217 48.1403 59.1217 48.1275C59.1166 48.0004 59.1368 47.8735 59.1811 47.7543C59.2254 47.6351 59.293 47.5259 59.3799 47.433C59.4668 47.3402 59.5713 47.2655 59.6873 47.2134C59.8034 47.1613 59.9286 47.1328 60.0557 47.1295C60.1236 47.1198 60.1926 47.1198 60.2604 47.1295L65.3783 47.9931C65.6077 48.0298 65.8163 48.1474 65.9665 48.3245C66.1167 48.5017 66.1986 48.7268 66.1972 48.9591V53.6484C66.198 53.776 66.1734 53.9025 66.1248 54.0205C66.0761 54.1385 66.0044 54.2457 65.9139 54.3356C65.8233 54.4256 65.7158 54.4966 65.5974 54.5444C65.4791 54.5923 65.3524 54.6161 65.2248 54.6144C65.1483 54.6245 65.0709 54.6245 64.9945 54.6144L62.5443 54.1921C62.3117 54.1523 62.101 54.0304 61.9508 53.8484C61.8005 53.6664 61.7205 53.4365 61.7254 53.2005L61.6871 51.211C61.6837 51.0839 61.7055 50.9574 61.7514 50.8389C61.7973 50.7203 61.8663 50.612 61.9544 50.5204C62.0425 50.4287 62.1479 50.3555 62.2646 50.3049C62.3812 50.2543 62.5067 50.2274 62.6339 50.2258C62.8924 50.2224 63.1417 50.3213 63.3275 50.5011C63.5133 50.6809 63.6204 50.9269 63.6254 51.1854V52.4137L64.2204 52.516V49.746L61.0217 49.2086C61.1305 50.3857 61.1753 52.1258 61.1753 53.1238Z" fill="#B8311E"/>
<path fill-rule="evenodd" clip-rule="evenodd" d="M68.9102 54.153C68.9102 54.2813 68.8849 54.4082 68.8356 54.5266C68.7863 54.645 68.7141 54.7525 68.6231 54.8429C68.5322 54.9332 68.4242 55.0047 68.3055 55.0532C68.1868 55.1017 68.0596 55.1262 67.9314 55.1254C67.6723 55.122 67.425 55.0168 67.243 54.8324C67.061 54.648 66.959 54.3993 66.959 54.1402C66.959 52.4577 66.8567 49.1695 66.8567 49.1567C66.8515 49.0296 66.8717 48.9028 66.916 48.7835C66.9604 48.6643 67.0279 48.5551 67.1149 48.4623C67.2018 48.3694 67.3063 48.2948 67.4223 48.2426C67.5383 48.1905 67.6635 48.162 67.7907 48.1587H67.8866L73.0045 48.357C73.2568 48.3653 73.496 48.4714 73.6715 48.6529C73.847 48.8344 73.9451 49.077 73.9449 49.3294V54.0251C73.9458 54.1527 73.9212 54.2792 73.8725 54.3972C73.8239 54.5152 73.7522 54.6224 73.6616 54.7123C73.5711 54.8023 73.4635 54.8733 73.3452 54.9211C73.2268 54.969 73.1001 54.9928 72.9725 54.9911H72.8574L70.4136 54.8823C70.1602 54.874 69.92 54.767 69.7443 54.5841C69.5687 54.4013 69.4714 54.1571 69.4732 53.9035L69.4348 51.9011C69.4314 51.7741 69.4533 51.6476 69.4992 51.529C69.5451 51.4105 69.6141 51.3022 69.7022 51.2105C69.7902 51.1189 69.8957 51.0456 70.0123 50.9951C70.1289 50.9445 70.2545 50.9176 70.3816 50.9159C70.6401 50.9125 70.8895 51.0115 71.0752 51.1913C71.261 51.3711 71.3681 51.6171 71.3732 51.8755V52.9823H71.9681V50.257L68.7695 50.1355C68.859 51.287 68.9102 53.1166 68.9102 54.153Z" fill="#B8311E"/>
<path fill-rule="evenodd" clip-rule="evenodd" d="M77.0915 54.7419C77.0923 54.8696 77.0677 54.9961 77.0191 55.1141C76.9704 55.2321 76.8987 55.3392 76.8082 55.4292C76.7176 55.5191 76.61 55.5901 76.4917 55.638C76.3734 55.6859 76.2467 55.7096 76.1191 55.7079C75.8606 55.7062 75.6133 55.6024 75.4311 55.419C75.2489 55.2356 75.1467 54.9876 75.1467 54.7291C75.1467 53.0466 75.0443 49.752 75.0379 49.7456C75.0328 49.6182 75.0529 49.491 75.0972 49.3715C75.1414 49.2519 75.2089 49.1422 75.2957 49.0489C75.3826 48.9555 75.487 48.8802 75.6031 48.8274C75.7191 48.7746 75.8445 48.7453 75.9719 48.7412H76.0487L81.2049 48.9971C81.4561 49.007 81.6937 49.1138 81.8678 49.2951C82.042 49.4764 82.1392 49.7181 82.139 49.9695V54.6652C82.139 54.7931 82.1136 54.9198 82.0642 55.0378C82.0149 55.1559 81.9426 55.2629 81.8515 55.3528C81.7605 55.4426 81.6525 55.5135 81.5338 55.5613C81.4151 55.6091 81.2881 55.6329 81.1602 55.6312H81.0386L78.5948 55.5032C78.3414 55.4884 78.1035 55.3764 77.9307 55.1904C77.7579 55.0045 77.6635 54.759 77.6672 54.5052L77.6224 52.5156C77.6199 52.3882 77.6426 52.2616 77.6892 52.143C77.7358 52.0244 77.8054 51.9162 77.894 51.8247C77.9826 51.7331 78.0884 51.66 78.2054 51.6095C78.3224 51.559 78.4482 51.5321 78.5756 51.5305C78.8342 51.527 79.0835 51.626 79.2693 51.8058C79.4551 51.9856 79.5622 52.2316 79.5672 52.4901V53.6096L80.1686 53.6416V50.8971L76.9699 50.7436C77.0467 51.8887 77.0915 53.7055 77.0915 54.7419Z" fill="#B8311E"/>
<path fill-rule="evenodd" clip-rule="evenodd" d="M85.1516 55.0743C85.1516 55.2025 85.1262 55.3295 85.0769 55.4479C85.0277 55.5663 84.9555 55.6738 84.8645 55.7642C84.7735 55.8545 84.6656 55.926 84.5469 55.9745C84.4281 56.023 84.301 56.0476 84.1728 56.0467C83.9137 56.0433 83.6664 55.9381 83.4844 55.7537C83.3024 55.5693 83.2004 55.3206 83.2004 55.0615C83.2004 53.379 83.098 50.0908 83.098 50.078C83.0962 49.8261 83.1928 49.5835 83.3673 49.4019C83.5418 49.2203 83.7803 49.1139 84.032 49.1056H84.1088L89.2651 49.3551C89.5157 49.3666 89.7524 49.4739 89.9262 49.6548C90.1 49.8358 90.1977 50.0766 90.1991 50.3275V55.0231C90.1999 55.1508 90.1753 55.2773 90.1267 55.3953C90.078 55.5133 90.0063 55.6204 89.9158 55.7104C89.8252 55.8003 89.7176 55.8713 89.5993 55.9192C89.481 55.9671 89.3543 55.9908 89.2267 55.9891H89.0859L86.6357 55.8612C86.3829 55.8448 86.1459 55.7323 85.9734 55.5467C85.8009 55.3612 85.706 55.1166 85.7081 54.8632L85.6698 52.8736C85.6663 52.7465 85.6882 52.6201 85.7341 52.5015C85.78 52.3829 85.849 52.2747 85.9371 52.183C86.0252 52.0914 86.1306 52.0181 86.2473 51.9675C86.3639 51.917 86.4894 51.8901 86.6166 51.8884C86.8751 51.885 87.1244 51.984 87.3102 52.1638C87.496 52.3436 87.6031 52.5896 87.6081 52.848V53.9676L88.2031 53.9996V51.2551L85.0044 51.1016C85.1004 52.2211 85.1516 54.0379 85.1516 55.0743Z" fill="#B8311E"/>
<path fill-rule="evenodd" clip-rule="evenodd" d="M93.4611 55.1964C93.462 55.3241 93.4374 55.4506 93.3887 55.5686C93.3401 55.6866 93.2684 55.7937 93.1778 55.8837C93.0873 55.9737 92.9797 56.0446 92.8614 56.0925C92.743 56.1404 92.6163 56.1641 92.4887 56.1624C92.2302 56.1607 91.9829 56.0569 91.8007 55.8735C91.6186 55.6901 91.5163 55.4421 91.5163 55.1836C91.5163 53.5011 91.414 50.2129 91.414 50.2065C91.4088 50.0791 91.429 49.9519 91.4732 49.8324C91.5175 49.7128 91.585 49.6032 91.6718 49.5098C91.7586 49.4164 91.8631 49.3412 91.9791 49.2884C92.0952 49.2356 92.2205 49.2062 92.348 49.2021L97.5042 49.023C97.7617 49.0161 98.0115 49.1109 98.1995 49.287C98.3876 49.463 98.4986 49.706 98.5086 49.9634V49.9954V54.6911C98.5086 54.819 98.4832 54.9456 98.4339 55.0637C98.3845 55.1817 98.3122 55.2888 98.2212 55.3787C98.1301 55.4685 98.0221 55.5394 97.9034 55.5872C97.7847 55.635 97.6578 55.6587 97.5298 55.657H97.4914L95.0413 55.7338C94.7832 55.739 94.5334 55.6428 94.3455 55.4657C94.1577 55.2887 94.0469 55.0449 94.0369 54.787L93.9921 52.7527C93.9896 52.6253 94.0122 52.4986 94.0588 52.38C94.1055 52.2615 94.175 52.1532 94.2636 52.0617C94.3522 51.9701 94.4581 51.897 94.5751 51.8465C94.6921 51.796 94.8179 51.7691 94.9453 51.7675C95.2038 51.764 95.4532 51.863 95.639 52.0428C95.8247 52.2226 95.9318 52.4686 95.9369 52.7271V53.7634H96.5382V51.0254L93.3396 51.1341C93.4163 52.2537 93.4611 54.1345 93.4611 55.1964Z" fill="#B8311E"/>
<path fill-rule="evenodd" clip-rule="evenodd" d="M101.714 55.1572C101.715 55.2848 101.69 55.4114 101.642 55.5294C101.593 55.6474 101.521 55.7545 101.431 55.8445C101.34 55.9344 101.233 56.0054 101.114 56.0533C100.996 56.1011 100.869 56.1249 100.742 56.1232C100.483 56.1215 100.236 56.0176 100.054 55.8342C99.8716 55.6509 99.7694 55.4029 99.7694 55.1444C99.7694 53.4619 99.6606 50.1801 99.6606 50.1673C99.6563 50.0399 99.6773 49.9129 99.7224 49.7936C99.7674 49.6744 99.8356 49.5652 99.923 49.4725C100.01 49.3797 100.115 49.3051 100.232 49.2531C100.348 49.2011 100.474 49.1726 100.601 49.1693L105.757 48.907C106.015 48.8948 106.267 48.9846 106.458 49.1571C106.65 49.3296 106.766 49.5708 106.781 49.8282V49.8858V54.575C106.781 54.8329 106.678 55.0803 106.496 55.2626C106.314 55.445 106.066 55.5474 105.808 55.5474L103.333 55.6562C103.205 55.6622 103.077 55.643 102.957 55.5996C102.837 55.5562 102.726 55.4895 102.632 55.4033C102.537 55.3172 102.461 55.2132 102.406 55.0974C102.352 54.9816 102.321 54.8563 102.315 54.7286L102.271 52.675C102.248 52.5359 102.256 52.3934 102.293 52.2576C102.331 52.1217 102.398 51.9957 102.489 51.8882C102.581 51.7808 102.694 51.6945 102.822 51.6353C102.95 51.5761 103.089 51.5454 103.23 51.5454C103.371 51.5454 103.511 51.5761 103.639 51.6353C103.767 51.6945 103.88 51.7808 103.971 51.8882C104.063 51.9957 104.13 52.1217 104.167 52.2576C104.205 52.3934 104.213 52.5359 104.19 52.675V53.6922H104.791V50.8965L101.593 51.0629C101.663 52.2016 101.714 54.0888 101.714 55.1572Z" fill="#B8311E"/>
<path fill-rule="evenodd" clip-rule="evenodd" d="M109.385 54.7294C109.385 54.8568 109.36 54.9829 109.311 55.1005C109.262 55.2181 109.19 55.3249 109.1 55.4147C109.009 55.5045 108.902 55.5755 108.784 55.6237C108.666 55.6718 108.54 55.6962 108.412 55.6954C108.153 55.692 107.906 55.5867 107.724 55.4023C107.542 55.2179 107.44 54.9693 107.44 54.7102C107.44 53.0277 107.331 49.7458 107.331 49.7394C107.326 49.6134 107.346 49.4876 107.389 49.3692C107.433 49.2508 107.499 49.1421 107.585 49.0495C107.67 48.9568 107.773 48.8818 107.888 48.829C108.003 48.7761 108.126 48.7464 108.252 48.7415L113.396 48.4664C113.653 48.4541 113.905 48.5441 114.097 48.7165C114.289 48.889 114.405 49.1302 114.42 49.3876V49.4388V54.1344C114.42 54.262 114.396 54.3886 114.347 54.5066C114.298 54.6246 114.227 54.7317 114.136 54.8217C114.046 54.9116 113.938 54.9826 113.82 55.0305C113.701 55.0783 113.575 55.1021 113.447 55.1004L110.971 55.2156C110.714 55.226 110.463 55.1345 110.272 54.9608C110.082 54.7871 109.967 54.5453 109.954 54.288L109.909 52.2344C109.906 52.1068 109.928 51.9798 109.974 51.8608C110.021 51.7418 110.09 51.6333 110.179 51.5415C110.268 51.4498 110.374 51.3767 110.491 51.3265C110.609 51.2763 110.735 51.25 110.863 51.2492C111.12 51.2475 111.368 51.3472 111.552 51.5268C111.736 51.7064 111.843 51.9515 111.848 52.2088V53.226H112.449V50.4815L109.25 50.6415C109.334 51.7738 109.385 53.661 109.385 54.7294Z" fill="#B8311E"/>
<path fill-rule="evenodd" clip-rule="evenodd" d="M117.121 54.0702C117.121 54.1976 117.096 54.3238 117.047 54.4414C116.998 54.559 116.926 54.6658 116.836 54.7556C116.745 54.8453 116.638 54.9164 116.52 54.9645C116.402 55.0127 116.276 55.0371 116.148 55.0362C115.89 55.0345 115.643 54.9307 115.46 54.7473C115.278 54.5639 115.176 54.3159 115.176 54.0574C115.176 52.3685 115.067 49.1059 115.067 49.0931C115.059 48.861 115.134 48.6336 115.28 48.4526C115.426 48.2717 115.632 48.1493 115.86 48.1079L121.017 47.1803C121.142 47.1572 121.271 47.159 121.396 47.1858C121.521 47.2125 121.639 47.2635 121.745 47.336C121.85 47.4085 121.94 47.501 122.009 47.6082C122.078 47.7154 122.126 47.8352 122.149 47.9608C122.155 48.0203 122.155 48.0803 122.149 48.1399V52.8355C122.15 53.078 122.06 53.3119 121.896 53.4908C121.733 53.6698 121.508 53.7807 121.266 53.8015L118.822 54.2302C118.568 54.2712 118.308 54.2112 118.098 54.063C117.887 53.9147 117.743 53.69 117.696 53.4369C117.693 53.3858 117.693 53.3345 117.696 53.2834L117.652 51.2618C117.649 51.1347 117.672 51.0084 117.719 50.8902C117.765 50.7719 117.835 50.6642 117.924 50.5731C118.012 50.482 118.118 50.4095 118.235 50.3597C118.352 50.3099 118.478 50.2838 118.605 50.283C118.863 50.2796 119.113 50.3786 119.299 50.5584C119.484 50.7382 119.591 50.9841 119.597 51.2426V52.119L120.204 52.0103V49.2978L117.006 49.8736C117.07 51.0251 117.121 52.9443 117.121 54.0702Z" fill="#B8311E"/>
<path fill-rule="evenodd" clip-rule="evenodd" d="M125.309 52.8677C125.309 52.996 125.283 53.1229 125.234 53.2413C125.185 53.3597 125.112 53.4672 125.021 53.5576C124.93 53.648 124.823 53.7195 124.704 53.768C124.585 53.8164 124.458 53.841 124.33 53.8401C124.071 53.8368 123.823 53.7315 123.641 53.5471C123.459 53.3627 123.357 53.114 123.357 52.8549C123.357 51.1724 123.255 47.9034 123.255 47.897C123.246 47.6619 123.322 47.4315 123.471 47.2489C123.619 47.0663 123.829 46.9442 124.061 46.9054L129.224 46.029C129.479 45.9881 129.74 46.0489 129.95 46.1985C130.161 46.3481 130.304 46.5744 130.35 46.8287C130.353 46.8841 130.353 46.9396 130.35 46.995V51.665C130.35 51.9024 130.262 52.1314 130.104 52.3083C129.946 52.4853 129.728 52.5979 129.492 52.6246L127.017 53.0341C126.761 53.0749 126.499 53.0131 126.288 52.8622C126.077 52.7113 125.935 52.4835 125.891 52.228C125.884 52.1578 125.884 52.0871 125.891 52.0169L125.852 50.0977C125.849 49.9706 125.871 49.8441 125.917 49.7256C125.963 49.607 126.032 49.4988 126.12 49.4071C126.208 49.3154 126.313 49.2422 126.43 49.1916C126.546 49.141 126.672 49.1142 126.799 49.1125C127.057 49.1107 127.306 49.2103 127.491 49.3897C127.676 49.5692 127.784 49.8142 127.791 50.0721V50.9613L128.392 50.8654V48.1465L125.193 48.6839C125.257 49.8098 125.309 51.7738 125.309 52.8677Z" fill="#B8311E"/>
<path fill-rule="evenodd" clip-rule="evenodd" d="M133.361 51.4468C133.361 51.5742 133.336 51.7003 133.287 51.818C133.238 51.9356 133.166 52.0424 133.076 52.1321C132.986 52.2219 132.878 52.2929 132.76 52.3411C132.643 52.3893 132.516 52.4137 132.389 52.4128C132.13 52.4111 131.883 52.3072 131.701 52.1239C131.519 51.9405 131.416 51.6925 131.416 51.434C131.416 49.7451 131.308 46.4825 131.308 46.4697C131.3 46.2349 131.377 46.0051 131.525 45.8229C131.673 45.6406 131.882 45.5181 132.114 45.4781L137.27 44.608C137.524 44.5653 137.785 44.6246 137.996 44.7731C138.207 44.9217 138.351 45.1474 138.396 45.4013C138.402 45.4587 138.402 45.5166 138.396 45.5741V50.2633C138.396 50.5023 138.308 50.7329 138.148 50.9111C137.989 51.0893 137.77 51.2026 137.532 51.2293L135.057 51.6323C134.93 51.6534 134.802 51.6494 134.677 51.6206C134.553 51.5918 134.435 51.5388 134.331 51.4645C134.227 51.3902 134.139 51.2962 134.071 51.1878C134.004 51.0794 133.958 50.9587 133.937 50.8327C133.927 50.7626 133.927 50.6916 133.937 50.6215L133.892 48.6704C133.889 48.5427 133.911 48.4157 133.957 48.2967C134.003 48.1778 134.073 48.0693 134.162 47.9775C134.251 47.8858 134.357 47.8126 134.474 47.7624C134.592 47.7122 134.718 47.686 134.845 47.6852C135.104 47.6817 135.353 47.7807 135.539 47.9605C135.725 48.1403 135.832 48.3863 135.837 48.6448V49.5276L136.445 49.4316V46.7192L133.246 47.2565C133.31 48.3825 133.361 50.3465 133.361 51.4468Z" fill="#B8311E"/>
<path fill-rule="evenodd" clip-rule="evenodd" d="M141.679 49.745C141.68 49.8729 141.655 49.9998 141.606 50.1181C141.558 50.2365 141.486 50.344 141.396 50.4345C141.305 50.5249 141.198 50.5965 141.079 50.6451C140.961 50.6937 140.834 50.7182 140.706 50.7174C140.447 50.714 140.199 50.609 140.016 50.4248C139.833 50.2405 139.729 49.9919 139.727 49.7322C139.727 48.0497 139.625 44.7935 139.625 44.7807C139.617 44.5567 139.687 44.3368 139.824 44.1592C139.96 43.9816 140.155 43.8574 140.374 43.8083L145.491 42.5288C145.742 42.4666 146.006 42.5056 146.228 42.6374C146.449 42.7691 146.61 42.983 146.675 43.2325C146.695 43.3121 146.705 43.3936 146.707 43.4756V48.1713C146.707 48.4017 146.624 48.6244 146.474 48.7992C146.324 48.974 146.116 49.0894 145.888 49.1245L143.451 49.7322C143.2 49.7942 142.934 49.7543 142.713 49.6213C142.491 49.4882 142.331 49.2728 142.267 49.0221C142.258 48.9499 142.258 48.8768 142.267 48.8046L142.222 46.7894C142.219 46.6618 142.241 46.5348 142.287 46.4158C142.334 46.2968 142.403 46.1883 142.492 46.0966C142.581 46.0048 142.687 45.9317 142.804 45.8815C142.922 45.8313 143.048 45.805 143.176 45.8042C143.433 45.8025 143.681 45.9022 143.865 46.0819C144.05 46.2615 144.156 46.5065 144.161 46.7638V47.5571L144.762 47.4036V44.7231L141.564 45.5292C141.627 46.6103 141.679 48.6255 141.679 49.745Z" fill="#B8311E"/>
<path fill-rule="evenodd" clip-rule="evenodd" d="M149.734 47.3079C149.735 47.4358 149.71 47.5627 149.661 47.681C149.613 47.7994 149.541 47.9069 149.451 47.9974C149.36 48.0878 149.253 48.1594 149.134 48.208C149.016 48.2566 148.889 48.2811 148.761 48.2803C148.502 48.2769 148.255 48.1716 148.073 47.9872C147.891 47.8028 147.789 47.5542 147.789 47.2951C147.789 45.619 147.687 42.3691 147.687 42.3627C147.678 42.1639 147.731 41.9672 147.838 41.7999C147.946 41.6325 148.103 41.5028 148.288 41.4287L153.444 39.3688C153.564 39.3199 153.692 39.2952 153.821 39.2961C153.95 39.297 154.078 39.3235 154.197 39.3741C154.316 39.4246 154.424 39.4982 154.514 39.5907C154.605 39.6831 154.676 39.7925 154.724 39.9126C154.773 40.0277 154.8 40.1517 154.8 40.2772V44.9729C154.8 45.1794 154.733 45.3803 154.61 45.5461C154.487 45.7119 154.314 45.8339 154.116 45.8941L151.659 46.8665C151.539 46.9152 151.411 46.9396 151.281 46.9382C151.152 46.9369 151.024 46.9099 150.905 46.8587C150.786 46.8075 150.678 46.7332 150.588 46.6401C150.498 46.547 150.427 46.4369 150.38 46.3163C150.329 46.1928 150.305 46.0597 150.31 45.9261L150.265 43.9621C150.261 43.7053 150.36 43.4575 150.538 43.2729C150.717 43.0884 150.961 42.9819 151.218 42.9769C151.476 42.9735 151.726 43.0724 151.912 43.2522C152.097 43.432 152.204 43.678 152.21 43.9365V44.5442L152.817 44.3011V41.7102L149.619 42.9897C149.676 44.0644 149.734 46.1564 149.734 47.3079Z" fill="#B8311E"/>
<path fill-rule="evenodd" clip-rule="evenodd" d="M157.921 44.3139C157.921 44.4418 157.897 44.5686 157.848 44.687C157.8 44.8053 157.728 44.9129 157.638 45.0033C157.547 45.0938 157.44 45.1654 157.321 45.214C157.203 45.2625 157.076 45.2871 156.948 45.2862C156.688 45.2829 156.441 45.1778 156.257 44.9936C156.074 44.8094 155.971 44.5607 155.969 44.3011C155.969 42.6249 155.867 39.3751 155.867 39.3687C155.861 39.1646 155.92 38.964 156.035 38.7952C156.15 38.6264 156.315 38.4981 156.507 38.4283L161.663 36.4195C161.784 36.3719 161.912 36.3485 162.042 36.3507C162.171 36.3529 162.299 36.3806 162.418 36.4323C162.537 36.484 162.645 36.5586 162.735 36.652C162.824 36.7453 162.895 36.8554 162.942 36.9761C162.985 37.0908 163.006 37.2121 163.006 37.3344V42.03C163.007 42.236 162.942 42.4368 162.82 42.6027C162.698 42.7686 162.525 42.8908 162.328 42.9512L159.865 43.898C159.745 43.9466 159.616 43.9707 159.486 43.9689C159.356 43.9671 159.228 43.9395 159.109 43.8877C158.99 43.8359 158.882 43.761 158.793 43.6672C158.703 43.5734 158.632 43.4627 158.586 43.3414C158.537 43.2149 158.513 43.0803 158.516 42.9448L158.477 40.9936C158.475 40.8666 158.497 40.7402 158.544 40.622C158.591 40.5038 158.66 40.396 158.749 40.3049C158.838 40.2139 158.944 40.1413 159.061 40.0915C159.178 40.0417 159.303 40.0157 159.43 40.0148C159.687 40.0114 159.935 40.1097 160.119 40.2883C160.304 40.4669 160.41 40.7113 160.416 40.968V41.6078L161.023 41.3711V38.7738L157.825 40.0148C157.863 41.0768 157.921 43.1623 157.921 44.3139Z" fill="#B8311E"/>
<path fill-rule="evenodd" clip-rule="evenodd" d="M165.983 41.129C165.982 41.2567 165.956 41.383 165.906 41.5007C165.857 41.6183 165.784 41.7251 165.693 41.8148C165.602 41.9045 165.495 41.9754 165.376 42.0235C165.258 42.0715 165.132 42.0959 165.004 42.095C164.745 42.0917 164.497 41.9864 164.315 41.802C164.133 41.6176 164.031 41.3689 164.031 41.1098C164.031 39.4337 163.929 36.1839 163.929 36.1775C163.92 35.9728 163.978 35.7708 164.093 35.6014C164.209 35.432 164.375 35.3043 164.569 35.2371L169.725 33.2283C169.845 33.1798 169.974 33.1557 170.104 33.1574C170.234 33.1592 170.362 33.1868 170.481 33.2386C170.6 33.2904 170.708 33.3654 170.798 33.4592C170.888 33.553 170.958 33.6637 171.005 33.7849C171.049 33.8993 171.073 34.0205 171.075 34.1431V38.8708C171.074 39.0773 171.007 39.2782 170.884 39.444C170.761 39.6098 170.588 39.7318 170.39 39.792L167.927 40.7452C167.806 40.7927 167.677 40.8158 167.547 40.8132C167.418 40.8105 167.289 40.7822 167.171 40.7299C167.052 40.6776 166.944 40.6023 166.855 40.5083C166.765 40.4143 166.695 40.3035 166.648 40.1822C166.598 40.0562 166.576 39.9209 166.584 39.7856L166.539 37.8344C166.537 37.7075 166.561 37.5816 166.608 37.4637C166.655 37.3459 166.725 37.2384 166.813 37.1476C166.902 37.0567 167.007 36.9841 167.124 36.934C167.24 36.8839 167.366 36.8573 167.492 36.8556C167.75 36.8522 167.998 36.9503 168.184 37.1287C168.369 37.3071 168.477 37.5514 168.484 37.8088V38.4485L169.124 38.2118V35.6145L165.925 36.8556C165.925 37.8856 165.983 39.9775 165.983 41.129Z" fill="#B8311E"/>
<path fill-rule="evenodd" clip-rule="evenodd" d="M174.294 37.5904C174.294 37.8482 174.191 38.0956 174.009 38.2779C173.826 38.4603 173.579 38.5627 173.321 38.5627C173.062 38.5594 172.815 38.4541 172.633 38.2697C172.451 38.0853 172.349 37.8366 172.349 37.5776C172.349 35.9015 172.246 32.658 172.24 32.6516C172.234 32.4549 172.287 32.261 172.393 32.0954C172.5 31.9298 172.654 31.8003 172.835 31.724L177.953 29.3058C178.184 29.2001 178.447 29.1892 178.686 29.2753C178.926 29.3613 179.121 29.5376 179.232 29.7664C179.295 29.8984 179.328 30.0425 179.328 30.1886V34.8779C179.326 35.0763 179.264 35.2694 179.15 35.4317C179.035 35.5939 178.875 35.7176 178.688 35.7863L176.219 36.9378C175.986 37.0409 175.722 37.0491 175.483 36.9607C175.244 36.8724 175.049 36.6943 174.94 36.4644C174.873 36.3249 174.842 36.171 174.85 36.0166L174.812 34.0718C174.789 33.9327 174.797 33.7902 174.834 33.6544C174.872 33.5185 174.939 33.3925 175.03 33.285C175.121 33.1776 175.235 33.0913 175.363 33.0321C175.491 32.9729 175.63 32.9422 175.771 32.9422C175.912 32.9422 176.052 32.9729 176.18 33.0321C176.308 33.0913 176.421 33.1776 176.512 33.285C176.604 33.3925 176.671 33.5185 176.708 33.6544C176.746 33.7902 176.754 33.9327 176.731 34.0718V34.5708L177.371 34.2829V31.724L174.172 33.2338C174.236 34.3021 174.294 36.4324 174.294 37.5904Z" fill="#B8311E"/>
</svg>
