<svg width="308" height="110" viewBox="0 0 308 110" fill="none" xmlns="http://www.w3.org/2000/svg">
<path d="M5.55697 8.94C5.55697 9.28667 5.49697 9.61333 5.37697 9.92C5.25697 10.2267 5.08364 10.4933 4.85697 10.72C4.64364 10.9467 4.37697 11.1333 4.05697 11.28C3.75031 11.4133 3.39697 11.48 2.99697 11.48C2.59697 11.48 2.23697 11.4133 1.91697 11.28C1.61031 11.1333 1.34364 10.9467 1.11697 10.72C0.903639 10.4933 0.736973 10.2267 0.616973 9.92C0.496973 9.61333 0.436973 9.28667 0.436973 8.94C0.436973 8.60667 0.496973 8.28667 0.616973 7.98C0.736973 7.66 0.903639 7.38667 1.11697 7.16C1.34364 6.93333 1.61031 6.75333 1.91697 6.62C2.23697 6.47333 2.59697 6.4 2.99697 6.4C3.39697 6.4 3.75031 6.47333 4.05697 6.62C4.37697 6.75333 4.64364 6.93333 4.85697 7.16C5.08364 7.38667 5.25697 7.66 5.37697 7.98C5.49697 8.28667 5.55697 8.60667 5.55697 8.94ZM23.4005 2C25.3472 2 26.8405 2.37333 27.8805 3.12C28.9338 3.85333 29.4605 4.95333 29.4605 6.42C29.4605 7.22 29.3138 7.90667 29.0205 8.48C28.7405 9.04 28.3272 9.5 27.7805 9.86C27.2472 10.2067 26.5938 10.46 25.8205 10.62C25.0472 10.78 24.1738 10.86 23.2005 10.86H21.6605V16H19.7205V2.34C20.2672 2.20667 20.8738 2.12 21.5405 2.08C22.2205 2.02667 22.8405 2 23.4005 2ZM23.5605 3.7C22.7338 3.7 22.1005 3.72 21.6605 3.76V9.2H23.1205C23.7872 9.2 24.3872 9.16 24.9205 9.08C25.4538 8.98667 25.9005 8.84 26.2605 8.64C26.6338 8.42667 26.9205 8.14 27.1205 7.78C27.3205 7.42 27.4205 6.96 27.4205 6.4C27.4205 5.86667 27.3138 5.42667 27.1005 5.08C26.9005 4.73333 26.6205 4.46 26.2605 4.26C25.9138 4.04667 25.5072 3.9 25.0405 3.82C24.5738 3.74 24.0805 3.7 23.5605 3.7ZM34.9174 14.66C35.3574 14.66 35.744 14.6533 36.0774 14.64C36.424 14.6133 36.7107 14.5733 36.9374 14.52V11.42C36.804 11.3533 36.584 11.3 36.2774 11.26C35.984 11.2067 35.624 11.18 35.1974 11.18C34.9174 11.18 34.6174 11.2 34.2974 11.24C33.9907 11.28 33.704 11.3667 33.4374 11.5C33.184 11.62 32.9707 11.7933 32.7974 12.02C32.624 12.2333 32.5374 12.52 32.5374 12.88C32.5374 13.5467 32.7507 14.0133 33.1774 14.28C33.604 14.5333 34.184 14.66 34.9174 14.66ZM34.7574 5.34C35.504 5.34 36.1307 5.44 36.6374 5.64C37.1574 5.82667 37.5707 6.1 37.8774 6.46C38.1974 6.80667 38.424 7.22667 38.5574 7.72C38.6907 8.2 38.7574 8.73333 38.7574 9.32V15.82C38.5974 15.8467 38.3707 15.8867 38.0774 15.94C37.7974 15.98 37.4774 16.02 37.1174 16.06C36.7574 16.1 36.364 16.1333 35.9374 16.16C35.524 16.2 35.1107 16.22 34.6974 16.22C34.1107 16.22 33.5707 16.16 33.0774 16.04C32.584 15.92 32.1574 15.7333 31.7974 15.48C31.4374 15.2133 31.1574 14.8667 30.9574 14.44C30.7574 14.0133 30.6574 13.5 30.6574 12.9C30.6574 12.3267 30.7707 11.8333 30.9974 11.42C31.2374 11.0067 31.5574 10.6733 31.9574 10.42C32.3574 10.1667 32.824 9.98 33.3574 9.86C33.8907 9.74 34.4507 9.68 35.0374 9.68C35.224 9.68 35.4174 9.69333 35.6174 9.72C35.8174 9.73333 36.004 9.76 36.1774 9.8C36.364 9.82667 36.524 9.85333 36.6574 9.88C36.7907 9.90667 36.884 9.92667 36.9374 9.94V9.42C36.9374 9.11333 36.904 8.81333 36.8374 8.52C36.7707 8.21333 36.6507 7.94667 36.4774 7.72C36.304 7.48 36.064 7.29333 35.7574 7.16C35.464 7.01333 35.0774 6.94 34.5974 6.94C33.984 6.94 33.444 6.98667 32.9774 7.08C32.524 7.16 32.184 7.24667 31.9574 7.34L31.7374 5.8C31.9774 5.69333 32.3774 5.59333 32.9374 5.5C33.4974 5.39333 34.104 5.34 34.7574 5.34ZM44.2666 14.66C45.0266 14.66 45.5866 14.56 45.9466 14.36C46.3199 14.16 46.5066 13.84 46.5066 13.4C46.5066 12.9467 46.3266 12.5867 45.9666 12.32C45.6066 12.0533 45.0132 11.7533 44.1866 11.42C43.7866 11.26 43.3999 11.1 43.0266 10.94C42.6666 10.7667 42.3532 10.5667 42.0866 10.34C41.8199 10.1133 41.6066 9.84 41.4466 9.52C41.2866 9.2 41.2066 8.80667 41.2066 8.34C41.2066 7.42 41.5466 6.69333 42.2266 6.16C42.9066 5.61333 43.8332 5.34 45.0066 5.34C45.2999 5.34 45.5932 5.36 45.8866 5.4C46.1799 5.42667 46.4532 5.46667 46.7066 5.52C46.9599 5.56 47.1799 5.60667 47.3666 5.66C47.5666 5.71333 47.7199 5.76 47.8266 5.8L47.4866 7.4C47.2866 7.29333 46.9732 7.18667 46.5466 7.08C46.1199 6.96 45.6066 6.9 45.0066 6.9C44.4866 6.9 44.0332 7.00667 43.6466 7.22C43.2599 7.42 43.0666 7.74 43.0666 8.18C43.0666 8.40667 43.1066 8.60667 43.1866 8.78C43.2799 8.95333 43.4132 9.11333 43.5866 9.26C43.7732 9.39333 43.9999 9.52 44.2666 9.64C44.5332 9.76 44.8532 9.88667 45.2266 10.02C45.7199 10.2067 46.1599 10.3933 46.5466 10.58C46.9332 10.7533 47.2599 10.96 47.5266 11.2C47.8066 11.44 48.0199 11.7333 48.1666 12.08C48.3132 12.4133 48.3866 12.8267 48.3866 13.32C48.3866 14.28 48.0266 15.0067 47.3066 15.5C46.5999 15.9933 45.5866 16.24 44.2666 16.24C43.3466 16.24 42.6266 16.16 42.1066 16C41.5866 15.8533 41.2332 15.74 41.0466 15.66L41.3866 14.06C41.5999 14.14 41.9399 14.26 42.4066 14.42C42.8732 14.58 43.4932 14.66 44.2666 14.66ZM50.1924 10.82C50.1924 9.9 50.3257 9.1 50.5924 8.42C50.859 7.72667 51.2124 7.15333 51.6524 6.7C52.0924 6.24667 52.599 5.90667 53.1724 5.68C53.7457 5.45333 54.3324 5.34 54.9324 5.34C56.3324 5.34 57.4057 5.78 58.1524 6.66C58.899 7.52667 59.2724 8.85333 59.2724 10.64C59.2724 10.72 59.2724 10.8267 59.2724 10.96C59.2724 11.08 59.2657 11.1933 59.2524 11.3H52.1324C52.2124 12.38 52.5257 13.2 53.0724 13.76C53.619 14.32 54.4724 14.6 55.6324 14.6C56.2857 14.6 56.8324 14.5467 57.2724 14.44C57.7257 14.32 58.0657 14.2067 58.2924 14.1L58.5524 15.66C58.3257 15.78 57.9257 15.9067 57.3524 16.04C56.7924 16.1733 56.1524 16.24 55.4324 16.24C54.5257 16.24 53.739 16.1067 53.0724 15.84C52.419 15.56 51.879 15.18 51.4524 14.7C51.0257 14.22 50.7057 13.6533 50.4924 13C50.2924 12.3333 50.1924 11.6067 50.1924 10.82ZM57.3324 9.8C57.3457 8.96 57.1324 8.27333 56.6924 7.74C56.2657 7.19333 55.6724 6.92 54.9124 6.92C54.4857 6.92 54.1057 7.00667 53.7724 7.18C53.4524 7.34 53.179 7.55333 52.9524 7.82C52.7257 8.08667 52.5457 8.39333 52.4124 8.74C52.2924 9.08667 52.2124 9.44 52.1724 9.8H57.3324ZM73.7931 10.82C73.7931 9.60667 73.4931 8.67333 72.8931 8.02C72.2931 7.36667 71.4931 7.04 70.4931 7.04C69.9331 7.04 69.4931 7.06 69.1731 7.1C68.8665 7.14 68.6198 7.18667 68.4331 7.24V13.8C68.6598 13.9867 68.9865 14.1667 69.4131 14.34C69.8398 14.5133 70.3065 14.6 70.8131 14.6C71.3465 14.6 71.7998 14.5067 72.1731 14.32C72.5598 14.12 72.8731 13.8533 73.1131 13.52C73.3531 13.1733 73.5265 12.7733 73.6331 12.32C73.7398 11.8533 73.7931 11.3533 73.7931 10.82ZM75.7331 10.82C75.7331 11.6067 75.6265 12.3333 75.4131 13C75.2131 13.6667 74.9131 14.24 74.5131 14.72C74.1131 15.2 73.6198 15.5733 73.0331 15.84C72.4598 16.1067 71.7998 16.24 71.0531 16.24C70.4531 16.24 69.9198 16.16 69.4531 16C68.9998 15.84 68.6598 15.6867 68.4331 15.54V19.7H66.5731V5.92C67.0131 5.81333 67.5598 5.7 68.2131 5.58C68.8798 5.44667 69.6465 5.38 70.5131 5.38C71.3131 5.38 72.0331 5.50667 72.6731 5.76C73.3131 6.01333 73.8598 6.37333 74.3131 6.84C74.7665 7.30667 75.1131 7.88 75.3531 8.56C75.6065 9.22667 75.7331 9.98 75.7331 10.82ZM81.8705 14.66C82.3105 14.66 82.6972 14.6533 83.0305 14.64C83.3772 14.6133 83.6638 14.5733 83.8905 14.52V11.42C83.7572 11.3533 83.5372 11.3 83.2305 11.26C82.9372 11.2067 82.5772 11.18 82.1505 11.18C81.8705 11.18 81.5705 11.2 81.2505 11.24C80.9438 11.28 80.6572 11.3667 80.3905 11.5C80.1372 11.62 79.9238 11.7933 79.7505 12.02C79.5772 12.2333 79.4905 12.52 79.4905 12.88C79.4905 13.5467 79.7038 14.0133 80.1305 14.28C80.5572 14.5333 81.1372 14.66 81.8705 14.66ZM81.7105 5.34C82.4572 5.34 83.0838 5.44 83.5905 5.64C84.1105 5.82667 84.5238 6.1 84.8305 6.46C85.1505 6.80667 85.3772 7.22667 85.5105 7.72C85.6438 8.2 85.7105 8.73333 85.7105 9.32V15.82C85.5505 15.8467 85.3238 15.8867 85.0305 15.94C84.7505 15.98 84.4305 16.02 84.0705 16.06C83.7105 16.1 83.3172 16.1333 82.8905 16.16C82.4772 16.2 82.0638 16.22 81.6505 16.22C81.0638 16.22 80.5238 16.16 80.0305 16.04C79.5372 15.92 79.1105 15.7333 78.7505 15.48C78.3905 15.2133 78.1105 14.8667 77.9105 14.44C77.7105 14.0133 77.6105 13.5 77.6105 12.9C77.6105 12.3267 77.7238 11.8333 77.9505 11.42C78.1905 11.0067 78.5105 10.6733 78.9105 10.42C79.3105 10.1667 79.7772 9.98 80.3105 9.86C80.8438 9.74 81.4038 9.68 81.9905 9.68C82.1772 9.68 82.3705 9.69333 82.5705 9.72C82.7705 9.73333 82.9572 9.76 83.1305 9.8C83.3172 9.82667 83.4772 9.85333 83.6105 9.88C83.7438 9.90667 83.8372 9.92667 83.8905 9.94V9.42C83.8905 9.11333 83.8572 8.81333 83.7905 8.52C83.7238 8.21333 83.6038 7.94667 83.4305 7.72C83.2572 7.48 83.0172 7.29333 82.7105 7.16C82.4172 7.01333 82.0305 6.94 81.5505 6.94C80.9372 6.94 80.3972 6.98667 79.9305 7.08C79.4772 7.16 79.1372 7.24667 78.9105 7.34L78.6905 5.8C78.9305 5.69333 79.3305 5.59333 79.8905 5.5C80.4505 5.39333 81.0572 5.34 81.7105 5.34ZM92.6397 5.38C92.7997 5.38 92.9797 5.39333 93.1797 5.42C93.393 5.43333 93.5997 5.46 93.7997 5.5C93.9997 5.52667 94.1797 5.56 94.3397 5.6C94.513 5.62667 94.6397 5.65333 94.7197 5.68L94.3997 7.3C94.253 7.24667 94.0064 7.18667 93.6597 7.12C93.3264 7.04 92.893 7 92.3597 7C92.013 7 91.6664 7.04 91.3197 7.12C90.9864 7.18667 90.7664 7.23333 90.6597 7.26V16H88.7997V6.04C89.2397 5.88 89.7864 5.73333 90.4397 5.6C91.093 5.45333 91.8264 5.38 92.6397 5.38ZM100.035 14.66C100.475 14.66 100.861 14.6533 101.195 14.64C101.541 14.6133 101.828 14.5733 102.055 14.52V11.42C101.921 11.3533 101.701 11.3 101.395 11.26C101.101 11.2067 100.741 11.18 100.315 11.18C100.035 11.18 99.7346 11.2 99.4146 11.24C99.1079 11.28 98.8212 11.3667 98.5546 11.5C98.3012 11.62 98.0879 11.7933 97.9146 12.02C97.7412 12.2333 97.6546 12.52 97.6546 12.88C97.6546 13.5467 97.8679 14.0133 98.2946 14.28C98.7212 14.5333 99.3012 14.66 100.035 14.66ZM99.8746 5.34C100.621 5.34 101.248 5.44 101.755 5.64C102.275 5.82667 102.688 6.1 102.995 6.46C103.315 6.80667 103.541 7.22667 103.675 7.72C103.808 8.2 103.875 8.73333 103.875 9.32V15.82C103.715 15.8467 103.488 15.8867 103.195 15.94C102.915 15.98 102.595 16.02 102.235 16.06C101.875 16.1 101.481 16.1333 101.055 16.16C100.641 16.2 100.228 16.22 99.8146 16.22C99.2279 16.22 98.6879 16.16 98.1946 16.04C97.7012 15.92 97.2746 15.7333 96.9146 15.48C96.5546 15.2133 96.2746 14.8667 96.0746 14.44C95.8746 14.0133 95.7746 13.5 95.7746 12.9C95.7746 12.3267 95.8879 11.8333 96.1146 11.42C96.3546 11.0067 96.6746 10.6733 97.0746 10.42C97.4746 10.1667 97.9412 9.98 98.4746 9.86C99.0079 9.74 99.5679 9.68 100.155 9.68C100.341 9.68 100.535 9.69333 100.735 9.72C100.935 9.73333 101.121 9.76 101.295 9.8C101.481 9.82667 101.641 9.85333 101.775 9.88C101.908 9.90667 102.001 9.92667 102.055 9.94V9.42C102.055 9.11333 102.021 8.81333 101.955 8.52C101.888 8.21333 101.768 7.94667 101.595 7.72C101.421 7.48 101.181 7.29333 100.875 7.16C100.581 7.01333 100.195 6.94 99.7146 6.94C99.1012 6.94 98.5612 6.98667 98.0946 7.08C97.6412 7.16 97.3012 7.24667 97.0746 7.34L96.8546 5.8C97.0946 5.69333 97.4946 5.59333 98.0546 5.5C98.6146 5.39333 99.2212 5.34 99.8746 5.34ZM114.713 16.2C113.566 16.1733 112.753 15.9267 112.273 15.46C111.793 14.9933 111.553 14.2667 111.553 13.28V0.799999L113.413 0.48V12.98C113.413 13.2867 113.439 13.54 113.493 13.74C113.546 13.94 113.633 14.1 113.753 14.22C113.873 14.34 114.033 14.4333 114.233 14.5C114.433 14.5533 114.679 14.6 114.973 14.64L114.713 16.2ZM126.241 10.8C126.241 11.6267 126.121 12.3733 125.881 13.04C125.641 13.7067 125.301 14.28 124.861 14.76C124.435 15.24 123.921 15.6133 123.321 15.88C122.721 16.1333 122.068 16.26 121.361 16.26C120.655 16.26 120.001 16.1333 119.401 15.88C118.801 15.6133 118.281 15.24 117.841 14.76C117.415 14.28 117.081 13.7067 116.841 13.04C116.601 12.3733 116.481 11.6267 116.481 10.8C116.481 9.98667 116.601 9.24667 116.841 8.58C117.081 7.9 117.415 7.32 117.841 6.84C118.281 6.36 118.801 5.99333 119.401 5.74C120.001 5.47333 120.655 5.34 121.361 5.34C122.068 5.34 122.721 5.47333 123.321 5.74C123.921 5.99333 124.435 6.36 124.861 6.84C125.301 7.32 125.641 7.9 125.881 8.58C126.121 9.24667 126.241 9.98667 126.241 10.8ZM124.301 10.8C124.301 9.62667 124.035 8.7 123.501 8.02C122.981 7.32667 122.268 6.98 121.361 6.98C120.455 6.98 119.735 7.32667 119.201 8.02C118.681 8.7 118.421 9.62667 118.421 10.8C118.421 11.9733 118.681 12.9067 119.201 13.6C119.735 14.28 120.455 14.62 121.361 14.62C122.268 14.62 122.981 14.28 123.501 13.6C124.035 12.9067 124.301 11.9733 124.301 10.8ZM131.278 14.66C132.038 14.66 132.598 14.56 132.958 14.36C133.332 14.16 133.518 13.84 133.518 13.4C133.518 12.9467 133.338 12.5867 132.978 12.32C132.618 12.0533 132.025 11.7533 131.198 11.42C130.798 11.26 130.412 11.1 130.038 10.94C129.678 10.7667 129.365 10.5667 129.098 10.34C128.832 10.1133 128.618 9.84 128.458 9.52C128.298 9.2 128.218 8.80667 128.218 8.34C128.218 7.42 128.558 6.69333 129.238 6.16C129.918 5.61333 130.845 5.34 132.018 5.34C132.312 5.34 132.605 5.36 132.898 5.4C133.192 5.42667 133.465 5.46667 133.718 5.52C133.972 5.56 134.192 5.60667 134.378 5.66C134.578 5.71333 134.732 5.76 134.838 5.8L134.498 7.4C134.298 7.29333 133.985 7.18667 133.558 7.08C133.132 6.96 132.618 6.9 132.018 6.9C131.498 6.9 131.045 7.00667 130.658 7.22C130.272 7.42 130.078 7.74 130.078 8.18C130.078 8.40667 130.118 8.60667 130.198 8.78C130.292 8.95333 130.425 9.11333 130.598 9.26C130.785 9.39333 131.012 9.52 131.278 9.64C131.545 9.76 131.865 9.88667 132.238 10.02C132.732 10.2067 133.172 10.3933 133.558 10.58C133.945 10.7533 134.272 10.96 134.538 11.2C134.818 11.44 135.032 11.7333 135.178 12.08C135.325 12.4133 135.398 12.8267 135.398 13.32C135.398 14.28 135.038 15.0067 134.318 15.5C133.612 15.9933 132.598 16.24 131.278 16.24C130.358 16.24 129.638 16.16 129.118 16C128.598 15.8533 128.245 15.74 128.058 15.66L128.398 14.06C128.612 14.14 128.952 14.26 129.418 14.42C129.885 14.58 130.505 14.66 131.278 14.66ZM149.133 7.8C148.906 7.61333 148.58 7.43333 148.153 7.26C147.726 7.08667 147.26 7 146.753 7C146.22 7 145.76 7.1 145.373 7.3C145 7.48667 144.693 7.75333 144.453 8.1C144.213 8.43333 144.04 8.83333 143.933 9.3C143.826 9.76667 143.773 10.2667 143.773 10.8C143.773 12.0133 144.073 12.9533 144.673 13.62C145.273 14.2733 146.073 14.6 147.073 14.6C147.58 14.6 148 14.58 148.333 14.54C148.68 14.4867 148.946 14.4333 149.133 14.38V7.8ZM149.133 0.799999L150.993 0.48V15.7C150.566 15.82 150.02 15.94 149.353 16.06C148.686 16.18 147.92 16.24 147.053 16.24C146.253 16.24 145.533 16.1133 144.893 15.86C144.253 15.6067 143.706 15.2467 143.253 14.78C142.8 14.3133 142.446 13.7467 142.193 13.08C141.953 12.4 141.833 11.64 141.833 10.8C141.833 10 141.933 9.26667 142.133 8.6C142.346 7.93333 142.653 7.36 143.053 6.88C143.453 6.4 143.94 6.02667 144.513 5.76C145.1 5.49333 145.766 5.36 146.513 5.36C147.113 5.36 147.64 5.44 148.093 5.6C148.56 5.76 148.906 5.91333 149.133 6.06V0.799999ZM156.05 16H154.19V5.6H156.05V16ZM155.11 3.72C154.777 3.72 154.49 3.61333 154.25 3.4C154.024 3.17333 153.91 2.87333 153.91 2.5C153.91 2.12667 154.024 1.83333 154.25 1.62C154.49 1.39333 154.777 1.28 155.11 1.28C155.444 1.28 155.724 1.39333 155.95 1.62C156.19 1.83333 156.31 2.12667 156.31 2.5C156.31 2.87333 156.19 3.17333 155.95 3.4C155.724 3.61333 155.444 3.72 155.11 3.72ZM162.769 14.66C163.209 14.66 163.596 14.6533 163.929 14.64C164.276 14.6133 164.562 14.5733 164.789 14.52V11.42C164.656 11.3533 164.436 11.3 164.129 11.26C163.836 11.2067 163.476 11.18 163.049 11.18C162.769 11.18 162.469 11.2 162.149 11.24C161.842 11.28 161.556 11.3667 161.289 11.5C161.036 11.62 160.822 11.7933 160.649 12.02C160.476 12.2333 160.389 12.52 160.389 12.88C160.389 13.5467 160.602 14.0133 161.029 14.28C161.456 14.5333 162.036 14.66 162.769 14.66ZM162.609 5.34C163.356 5.34 163.982 5.44 164.489 5.64C165.009 5.82667 165.422 6.1 165.729 6.46C166.049 6.80667 166.276 7.22667 166.409 7.72C166.542 8.2 166.609 8.73333 166.609 9.32V15.82C166.449 15.8467 166.222 15.8867 165.929 15.94C165.649 15.98 165.329 16.02 164.969 16.06C164.609 16.1 164.216 16.1333 163.789 16.16C163.376 16.2 162.962 16.22 162.549 16.22C161.962 16.22 161.422 16.16 160.929 16.04C160.436 15.92 160.009 15.7333 159.649 15.48C159.289 15.2133 159.009 14.8667 158.809 14.44C158.609 14.0133 158.509 13.5 158.509 12.9C158.509 12.3267 158.622 11.8333 158.849 11.42C159.089 11.0067 159.409 10.6733 159.809 10.42C160.209 10.1667 160.676 9.98 161.209 9.86C161.742 9.74 162.302 9.68 162.889 9.68C163.076 9.68 163.269 9.69333 163.469 9.72C163.669 9.73333 163.856 9.76 164.029 9.8C164.216 9.82667 164.376 9.85333 164.509 9.88C164.642 9.90667 164.736 9.92667 164.789 9.94V9.42C164.789 9.11333 164.756 8.81333 164.689 8.52C164.622 8.21333 164.502 7.94667 164.329 7.72C164.156 7.48 163.916 7.29333 163.609 7.16C163.316 7.01333 162.929 6.94 162.449 6.94C161.836 6.94 161.296 6.98667 160.829 7.08C160.376 7.16 160.036 7.24667 159.809 7.34L159.589 5.8C159.829 5.69333 160.229 5.59333 160.789 5.5C161.349 5.39333 161.956 5.34 162.609 5.34ZM172.118 14.66C172.878 14.66 173.438 14.56 173.798 14.36C174.171 14.16 174.358 13.84 174.358 13.4C174.358 12.9467 174.178 12.5867 173.818 12.32C173.458 12.0533 172.865 11.7533 172.038 11.42C171.638 11.26 171.251 11.1 170.878 10.94C170.518 10.7667 170.205 10.5667 169.938 10.34C169.671 10.1133 169.458 9.84 169.298 9.52C169.138 9.2 169.058 8.80667 169.058 8.34C169.058 7.42 169.398 6.69333 170.078 6.16C170.758 5.61333 171.685 5.34 172.858 5.34C173.151 5.34 173.445 5.36 173.738 5.4C174.031 5.42667 174.305 5.46667 174.558 5.52C174.811 5.56 175.031 5.60667 175.218 5.66C175.418 5.71333 175.571 5.76 175.678 5.8L175.338 7.4C175.138 7.29333 174.825 7.18667 174.398 7.08C173.971 6.96 173.458 6.9 172.858 6.9C172.338 6.9 171.885 7.00667 171.498 7.22C171.111 7.42 170.918 7.74 170.918 8.18C170.918 8.40667 170.958 8.60667 171.038 8.78C171.131 8.95333 171.265 9.11333 171.438 9.26C171.625 9.39333 171.851 9.52 172.118 9.64C172.385 9.76 172.705 9.88667 173.078 10.02C173.571 10.2067 174.011 10.3933 174.398 10.58C174.785 10.7533 175.111 10.96 175.378 11.2C175.658 11.44 175.871 11.7333 176.018 12.08C176.165 12.4133 176.238 12.8267 176.238 13.32C176.238 14.28 175.878 15.0067 175.158 15.5C174.451 15.9933 173.438 16.24 172.118 16.24C171.198 16.24 170.478 16.16 169.958 16C169.438 15.8533 169.085 15.74 168.898 15.66L169.238 14.06C169.451 14.14 169.791 14.26 170.258 14.42C170.725 14.58 171.345 14.66 172.118 14.66ZM185.673 14.66C186.433 14.66 186.993 14.56 187.353 14.36C187.726 14.16 187.913 13.84 187.913 13.4C187.913 12.9467 187.733 12.5867 187.373 12.32C187.013 12.0533 186.419 11.7533 185.593 11.42C185.193 11.26 184.806 11.1 184.433 10.94C184.073 10.7667 183.759 10.5667 183.493 10.34C183.226 10.1133 183.013 9.84 182.853 9.52C182.693 9.2 182.613 8.80667 182.613 8.34C182.613 7.42 182.953 6.69333 183.633 6.16C184.313 5.61333 185.239 5.34 186.413 5.34C186.706 5.34 186.999 5.36 187.293 5.4C187.586 5.42667 187.859 5.46667 188.113 5.52C188.366 5.56 188.586 5.60667 188.773 5.66C188.973 5.71333 189.126 5.76 189.233 5.8L188.893 7.4C188.693 7.29333 188.379 7.18667 187.953 7.08C187.526 6.96 187.013 6.9 186.413 6.9C185.893 6.9 185.439 7.00667 185.053 7.22C184.666 7.42 184.473 7.74 184.473 8.18C184.473 8.40667 184.513 8.60667 184.593 8.78C184.686 8.95333 184.819 9.11333 184.993 9.26C185.179 9.39333 185.406 9.52 185.673 9.64C185.939 9.76 186.259 9.88667 186.633 10.02C187.126 10.2067 187.566 10.3933 187.953 10.58C188.339 10.7533 188.666 10.96 188.933 11.2C189.213 11.44 189.426 11.7333 189.573 12.08C189.719 12.4133 189.793 12.8267 189.793 13.32C189.793 14.28 189.433 15.0067 188.713 15.5C188.006 15.9933 186.993 16.24 185.673 16.24C184.753 16.24 184.033 16.16 183.513 16C182.993 15.8533 182.639 15.74 182.453 15.66L182.793 14.06C183.006 14.14 183.346 14.26 183.813 14.42C184.279 14.58 184.899 14.66 185.673 14.66ZM191.599 10.82C191.599 9.9 191.732 9.1 191.999 8.42C192.265 7.72667 192.619 7.15333 193.059 6.7C193.499 6.24667 194.005 5.90667 194.579 5.68C195.152 5.45333 195.739 5.34 196.339 5.34C197.739 5.34 198.812 5.78 199.559 6.66C200.305 7.52667 200.679 8.85333 200.679 10.64C200.679 10.72 200.679 10.8267 200.679 10.96C200.679 11.08 200.672 11.1933 200.659 11.3H193.539C193.619 12.38 193.932 13.2 194.479 13.76C195.025 14.32 195.879 14.6 197.039 14.6C197.692 14.6 198.239 14.5467 198.679 14.44C199.132 14.32 199.472 14.2067 199.699 14.1L199.959 15.66C199.732 15.78 199.332 15.9067 198.759 16.04C198.199 16.1733 197.559 16.24 196.839 16.24C195.932 16.24 195.145 16.1067 194.479 15.84C193.825 15.56 193.285 15.18 192.859 14.7C192.432 14.22 192.112 13.6533 191.899 13C191.699 12.3333 191.599 11.6067 191.599 10.82ZM198.739 9.8C198.752 8.96 198.539 8.27333 198.099 7.74C197.672 7.19333 197.079 6.92 196.319 6.92C195.892 6.92 195.512 7.00667 195.179 7.18C194.859 7.34 194.585 7.55333 194.359 7.82C194.132 8.08667 193.952 8.39333 193.819 8.74C193.699 9.08667 193.619 9.44 193.579 9.8H198.739ZM206.47 16.2C205.324 16.1733 204.51 15.9267 204.03 15.46C203.55 14.9933 203.31 14.2667 203.31 13.28V0.799999L205.17 0.48V12.98C205.17 13.2867 205.197 13.54 205.25 13.74C205.304 13.94 205.39 14.1 205.51 14.22C205.63 14.34 205.79 14.4333 205.99 14.5C206.19 14.5533 206.437 14.6 206.73 14.64L206.47 16.2ZM208.239 10.82C208.239 9.9 208.373 9.1 208.639 8.42C208.906 7.72667 209.259 7.15333 209.699 6.7C210.139 6.24667 210.646 5.90667 211.219 5.68C211.793 5.45333 212.379 5.34 212.979 5.34C214.379 5.34 215.453 5.78 216.199 6.66C216.946 7.52667 217.319 8.85333 217.319 10.64C217.319 10.72 217.319 10.8267 217.319 10.96C217.319 11.08 217.313 11.1933 217.299 11.3H210.179C210.259 12.38 210.573 13.2 211.119 13.76C211.666 14.32 212.519 14.6 213.679 14.6C214.333 14.6 214.879 14.5467 215.319 14.44C215.773 14.32 216.113 14.2067 216.339 14.1L216.599 15.66C216.373 15.78 215.973 15.9067 215.399 16.04C214.839 16.1733 214.199 16.24 213.479 16.24C212.573 16.24 211.786 16.1067 211.119 15.84C210.466 15.56 209.926 15.18 209.499 14.7C209.073 14.22 208.753 13.6533 208.539 13C208.339 12.3333 208.239 11.6067 208.239 10.82ZM215.379 9.8C215.393 8.96 215.179 8.27333 214.739 7.74C214.313 7.19333 213.719 6.92 212.959 6.92C212.533 6.92 212.153 7.00667 211.819 7.18C211.499 7.34 211.226 7.55333 210.999 7.82C210.773 8.08667 210.593 8.39333 210.459 8.74C210.339 9.08667 210.259 9.44 210.219 9.8H215.379ZM224.511 16.24C223.671 16.24 222.931 16.1067 222.291 15.84C221.664 15.5733 221.131 15.2 220.691 14.72C220.264 14.24 219.944 13.6733 219.731 13.02C219.518 12.3533 219.411 11.62 219.411 10.82C219.411 10.02 219.524 9.28667 219.751 8.62C219.991 7.95333 220.324 7.38 220.751 6.9C221.178 6.40667 221.698 6.02667 222.311 5.76C222.938 5.48 223.631 5.34 224.391 5.34C224.858 5.34 225.324 5.38 225.791 5.46C226.258 5.54 226.704 5.66667 227.131 5.84L226.711 7.42C226.431 7.28667 226.104 7.18 225.731 7.1C225.371 7.02 224.984 6.98 224.571 6.98C223.531 6.98 222.731 7.30667 222.171 7.96C221.624 8.61333 221.351 9.56667 221.351 10.82C221.351 11.38 221.411 11.8933 221.531 12.36C221.664 12.8267 221.864 13.2267 222.131 13.56C222.411 13.8933 222.764 14.1533 223.191 14.34C223.618 14.5133 224.138 14.6 224.751 14.6C225.244 14.6 225.691 14.5533 226.091 14.46C226.491 14.3667 226.804 14.2667 227.031 14.16L227.291 15.72C227.184 15.7867 227.031 15.8533 226.831 15.92C226.631 15.9733 226.404 16.02 226.151 16.06C225.898 16.1133 225.624 16.1533 225.331 16.18C225.051 16.22 224.778 16.24 224.511 16.24ZM233.808 16.24C232.968 16.24 232.228 16.1067 231.588 15.84C230.961 15.5733 230.428 15.2 229.988 14.72C229.561 14.24 229.241 13.6733 229.028 13.02C228.815 12.3533 228.708 11.62 228.708 10.82C228.708 10.02 228.821 9.28667 229.048 8.62C229.288 7.95333 229.621 7.38 230.048 6.9C230.475 6.40667 230.995 6.02667 231.608 5.76C232.235 5.48 232.928 5.34 233.688 5.34C234.155 5.34 234.621 5.38 235.088 5.46C235.555 5.54 236.001 5.66667 236.428 5.84L236.008 7.42C235.728 7.28667 235.401 7.18 235.028 7.1C234.668 7.02 234.281 6.98 233.868 6.98C232.828 6.98 232.028 7.30667 231.468 7.96C230.921 8.61333 230.648 9.56667 230.648 10.82C230.648 11.38 230.708 11.8933 230.828 12.36C230.961 12.8267 231.161 13.2267 231.428 13.56C231.708 13.8933 232.061 14.1533 232.488 14.34C232.915 14.5133 233.435 14.6 234.048 14.6C234.541 14.6 234.988 14.5533 235.388 14.46C235.788 14.3667 236.101 14.2667 236.328 14.16L236.588 15.72C236.481 15.7867 236.328 15.8533 236.128 15.92C235.928 15.9733 235.701 16.02 235.448 16.06C235.195 16.1133 234.921 16.1533 234.628 16.18C234.348 16.22 234.075 16.24 233.808 16.24ZM240.445 16H238.585V5.6H240.445V16ZM239.505 3.72C239.172 3.72 238.885 3.61333 238.645 3.4C238.418 3.17333 238.305 2.87333 238.305 2.5C238.305 2.12667 238.418 1.83333 238.645 1.62C238.885 1.39333 239.172 1.28 239.505 1.28C239.838 1.28 240.118 1.39333 240.345 1.62C240.585 1.83333 240.705 2.12667 240.705 2.5C240.705 2.87333 240.585 3.17333 240.345 3.4C240.118 3.61333 239.838 3.72 239.505 3.72ZM252.823 10.8C252.823 11.6267 252.703 12.3733 252.463 13.04C252.223 13.7067 251.883 14.28 251.443 14.76C251.017 15.24 250.503 15.6133 249.903 15.88C249.303 16.1333 248.65 16.26 247.943 16.26C247.237 16.26 246.583 16.1333 245.983 15.88C245.383 15.6133 244.863 15.24 244.423 14.76C243.997 14.28 243.663 13.7067 243.423 13.04C243.183 12.3733 243.063 11.6267 243.063 10.8C243.063 9.98667 243.183 9.24667 243.423 8.58C243.663 7.9 243.997 7.32 244.423 6.84C244.863 6.36 245.383 5.99333 245.983 5.74C246.583 5.47333 247.237 5.34 247.943 5.34C248.65 5.34 249.303 5.47333 249.903 5.74C250.503 5.99333 251.017 6.36 251.443 6.84C251.883 7.32 252.223 7.9 252.463 8.58C252.703 9.24667 252.823 9.98667 252.823 10.8ZM250.883 10.8C250.883 9.62667 250.617 8.7 250.083 8.02C249.563 7.32667 248.85 6.98 247.943 6.98C247.037 6.98 246.317 7.32667 245.783 8.02C245.263 8.7 245.003 9.62667 245.003 10.8C245.003 11.9733 245.263 12.9067 245.783 13.6C246.317 14.28 247.037 14.62 247.943 14.62C248.85 14.62 249.563 14.28 250.083 13.6C250.617 12.9067 250.883 11.9733 250.883 10.8ZM255.44 5.9C255.867 5.79333 256.434 5.68 257.14 5.56C257.847 5.44 258.66 5.38 259.58 5.38C260.407 5.38 261.094 5.5 261.64 5.74C262.187 5.96667 262.62 6.29333 262.94 6.72C263.274 7.13333 263.507 7.63333 263.64 8.22C263.774 8.80667 263.84 9.45333 263.84 10.16V16H261.98V10.56C261.98 9.92 261.934 9.37333 261.84 8.92C261.76 8.46667 261.62 8.1 261.42 7.82C261.22 7.54 260.954 7.34 260.62 7.22C260.287 7.08667 259.874 7.02 259.38 7.02C259.18 7.02 258.974 7.02667 258.76 7.04C258.547 7.05333 258.34 7.07333 258.14 7.1C257.954 7.11333 257.78 7.13333 257.62 7.16C257.474 7.18667 257.367 7.20667 257.3 7.22V16H255.44V5.9ZM270.445 14.66C270.885 14.66 271.271 14.6533 271.605 14.64C271.951 14.6133 272.238 14.5733 272.465 14.52V11.42C272.331 11.3533 272.111 11.3 271.805 11.26C271.511 11.2067 271.151 11.18 270.725 11.18C270.445 11.18 270.145 11.2 269.825 11.24C269.518 11.28 269.231 11.3667 268.965 11.5C268.711 11.62 268.498 11.7933 268.325 12.02C268.151 12.2333 268.065 12.52 268.065 12.88C268.065 13.5467 268.278 14.0133 268.705 14.28C269.131 14.5333 269.711 14.66 270.445 14.66ZM270.285 5.34C271.031 5.34 271.658 5.44 272.165 5.64C272.685 5.82667 273.098 6.1 273.405 6.46C273.725 6.80667 273.951 7.22667 274.085 7.72C274.218 8.2 274.285 8.73333 274.285 9.32V15.82C274.125 15.8467 273.898 15.8867 273.605 15.94C273.325 15.98 273.005 16.02 272.645 16.06C272.285 16.1 271.891 16.1333 271.465 16.16C271.051 16.2 270.638 16.22 270.225 16.22C269.638 16.22 269.098 16.16 268.605 16.04C268.111 15.92 267.685 15.7333 267.325 15.48C266.965 15.2133 266.685 14.8667 266.485 14.44C266.285 14.0133 266.185 13.5 266.185 12.9C266.185 12.3267 266.298 11.8333 266.525 11.42C266.765 11.0067 267.085 10.6733 267.485 10.42C267.885 10.1667 268.351 9.98 268.885 9.86C269.418 9.74 269.978 9.68 270.565 9.68C270.751 9.68 270.945 9.69333 271.145 9.72C271.345 9.73333 271.531 9.76 271.705 9.8C271.891 9.82667 272.051 9.85333 272.185 9.88C272.318 9.90667 272.411 9.92667 272.465 9.94V9.42C272.465 9.11333 272.431 8.81333 272.365 8.52C272.298 8.21333 272.178 7.94667 272.005 7.72C271.831 7.48 271.591 7.29333 271.285 7.16C270.991 7.01333 270.605 6.94 270.125 6.94C269.511 6.94 268.971 6.98667 268.505 7.08C268.051 7.16 267.711 7.24667 267.485 7.34L267.265 5.8C267.505 5.69333 267.905 5.59333 268.465 5.5C269.025 5.39333 269.631 5.34 270.285 5.34ZM284.094 7.8C283.867 7.61333 283.541 7.43333 283.114 7.26C282.687 7.08667 282.221 7 281.714 7C281.181 7 280.721 7.1 280.334 7.3C279.961 7.48667 279.654 7.75333 279.414 8.1C279.174 8.43333 279.001 8.83333 278.894 9.3C278.787 9.76667 278.734 10.2667 278.734 10.8C278.734 12.0133 279.034 12.9533 279.634 13.62C280.234 14.2733 281.034 14.6 282.034 14.6C282.541 14.6 282.961 14.58 283.294 14.54C283.641 14.4867 283.907 14.4333 284.094 14.38V7.8ZM284.094 0.799999L285.954 0.48V15.7C285.527 15.82 284.981 15.94 284.314 16.06C283.647 16.18 282.881 16.24 282.014 16.24C281.214 16.24 280.494 16.1133 279.854 15.86C279.214 15.6067 278.667 15.2467 278.214 14.78C277.761 14.3133 277.407 13.7467 277.154 13.08C276.914 12.4 276.794 11.64 276.794 10.8C276.794 10 276.894 9.26667 277.094 8.6C277.307 7.93333 277.614 7.36 278.014 6.88C278.414 6.4 278.901 6.02667 279.474 5.76C280.061 5.49333 280.727 5.36 281.474 5.36C282.074 5.36 282.601 5.44 283.054 5.6C283.521 5.76 283.867 5.91333 284.094 6.06V0.799999ZM298.331 10.8C298.331 11.6267 298.211 12.3733 297.971 13.04C297.731 13.7067 297.391 14.28 296.951 14.76C296.525 15.24 296.011 15.6133 295.411 15.88C294.811 16.1333 294.158 16.26 293.451 16.26C292.745 16.26 292.091 16.1333 291.491 15.88C290.891 15.6133 290.371 15.24 289.931 14.76C289.505 14.28 289.171 13.7067 288.931 13.04C288.691 12.3733 288.571 11.6267 288.571 10.8C288.571 9.98667 288.691 9.24667 288.931 8.58C289.171 7.9 289.505 7.32 289.931 6.84C290.371 6.36 290.891 5.99333 291.491 5.74C292.091 5.47333 292.745 5.34 293.451 5.34C294.158 5.34 294.811 5.47333 295.411 5.74C296.011 5.99333 296.525 6.36 296.951 6.84C297.391 7.32 297.731 7.9 297.971 8.58C298.211 9.24667 298.331 9.98667 298.331 10.8ZM296.391 10.8C296.391 9.62667 296.125 8.7 295.591 8.02C295.071 7.32667 294.358 6.98 293.451 6.98C292.545 6.98 291.825 7.32667 291.291 8.02C290.771 8.7 290.511 9.62667 290.511 10.8C290.511 11.9733 290.771 12.9067 291.291 13.6C291.825 14.28 292.545 14.62 293.451 14.62C294.358 14.62 295.071 14.28 295.591 13.6C296.125 12.9067 296.391 11.9733 296.391 10.8ZM303.368 14.66C304.128 14.66 304.688 14.56 305.048 14.36C305.421 14.16 305.608 13.84 305.608 13.4C305.608 12.9467 305.428 12.5867 305.068 12.32C304.708 12.0533 304.115 11.7533 303.288 11.42C302.888 11.26 302.501 11.1 302.128 10.94C301.768 10.7667 301.455 10.5667 301.188 10.34C300.921 10.1133 300.708 9.84 300.548 9.52C300.388 9.2 300.308 8.80667 300.308 8.34C300.308 7.42 300.648 6.69333 301.328 6.16C302.008 5.61333 302.935 5.34 304.108 5.34C304.401 5.34 304.695 5.36 304.988 5.4C305.281 5.42667 305.555 5.46667 305.808 5.52C306.061 5.56 306.281 5.60667 306.468 5.66C306.668 5.71333 306.821 5.76 306.928 5.8L306.588 7.4C306.388 7.29333 306.075 7.18667 305.648 7.08C305.221 6.96 304.708 6.9 304.108 6.9C303.588 6.9 303.135 7.00667 302.748 7.22C302.361 7.42 302.168 7.74 302.168 8.18C302.168 8.40667 302.208 8.60667 302.288 8.78C302.381 8.95333 302.515 9.11333 302.688 9.26C302.875 9.39333 303.101 9.52 303.368 9.64C303.635 9.76 303.955 9.88667 304.328 10.02C304.821 10.2067 305.261 10.3933 305.648 10.58C306.035 10.7533 306.361 10.96 306.628 11.2C306.908 11.44 307.121 11.7333 307.268 12.08C307.415 12.4133 307.488 12.8267 307.488 13.32C307.488 14.28 307.128 15.0067 306.408 15.5C305.701 15.9933 304.688 16.24 303.368 16.24C302.448 16.24 301.728 16.16 301.208 16C300.688 15.8533 300.335 15.74 300.148 15.66L300.488 14.06C300.701 14.14 301.041 14.26 301.508 14.42C301.975 14.58 302.595 14.66 303.368 14.66ZM5.55697 38.94C5.55697 39.2867 5.49697 39.6133 5.37697 39.92C5.25697 40.2267 5.08364 40.4933 4.85697 40.72C4.64364 40.9467 4.37697 41.1333 4.05697 41.28C3.75031 41.4133 3.39697 41.48 2.99697 41.48C2.59697 41.48 2.23697 41.4133 1.91697 41.28C1.61031 41.1333 1.34364 40.9467 1.11697 40.72C0.903639 40.4933 0.736973 40.2267 0.616973 39.92C0.496973 39.6133 0.436973 39.2867 0.436973 38.94C0.436973 38.6067 0.496973 38.2867 0.616973 37.98C0.736973 37.66 0.903639 37.3867 1.11697 37.16C1.34364 36.9333 1.61031 36.7533 1.91697 36.62C2.23697 36.4733 2.59697 36.4 2.99697 36.4C3.39697 36.4 3.75031 36.4733 4.05697 36.62C4.37697 36.7533 4.64364 36.9333 4.85697 37.16C5.08364 37.3867 5.25697 37.66 5.37697 37.98C5.49697 38.2867 5.55697 38.6067 5.55697 38.94ZM26.5005 40.2C26.7138 40.4667 26.9805 40.82 27.3005 41.26C27.6338 41.6867 27.9738 42.1667 28.3205 42.7C28.6672 43.22 29.0072 43.7667 29.3405 44.34C29.6872 44.9133 29.9805 45.4667 30.2205 46H28.1005C27.8338 45.4933 27.5405 44.98 27.2205 44.46C26.9138 43.94 26.6005 43.4467 26.2805 42.98C25.9605 42.5 25.6405 42.0533 25.3205 41.64C25.0138 41.2267 24.7338 40.8667 24.4805 40.56C24.3072 40.5733 24.1272 40.58 23.9405 40.58C23.7672 40.58 23.5872 40.58 23.4005 40.58H21.6605V46H19.7205V32.34C20.2672 32.2067 20.8738 32.12 21.5405 32.08C22.2205 32.0267 22.8405 32 23.4005 32C25.3472 32 26.8272 32.3667 27.8405 33.1C28.8672 33.8333 29.3805 34.9267 29.3805 36.38C29.3805 37.3 29.1338 38.0867 28.6405 38.74C28.1605 39.3933 27.4472 39.88 26.5005 40.2ZM23.5605 33.7C22.7338 33.7 22.1005 33.72 21.6605 33.76V38.98H23.0405C23.7072 38.98 24.3072 38.9467 24.8405 38.88C25.3738 38.8133 25.8205 38.6867 26.1805 38.5C26.5538 38.3133 26.8405 38.0533 27.0405 37.72C27.2405 37.3733 27.3405 36.92 27.3405 36.36C27.3405 35.84 27.2405 35.4067 27.0405 35.06C26.8405 34.7133 26.5672 34.44 26.2205 34.24C25.8872 34.04 25.4872 33.9 25.0205 33.82C24.5672 33.74 24.0805 33.7 23.5605 33.7ZM31.5986 40.82C31.5986 39.9 31.7319 39.1 31.9986 38.42C32.2653 37.7267 32.6186 37.1533 33.0586 36.7C33.4986 36.2467 34.0053 35.9067 34.5786 35.68C35.1519 35.4533 35.7386 35.34 36.3386 35.34C37.7386 35.34 38.8119 35.78 39.5586 36.66C40.3053 37.5267 40.6786 38.8533 40.6786 40.64C40.6786 40.72 40.6786 40.8267 40.6786 40.96C40.6786 41.08 40.6719 41.1933 40.6586 41.3H33.5386C33.6186 42.38 33.9319 43.2 34.4786 43.76C35.0253 44.32 35.8786 44.6 37.0386 44.6C37.6919 44.6 38.2386 44.5467 38.6786 44.44C39.1319 44.32 39.4719 44.2067 39.6986 44.1L39.9586 45.66C39.7319 45.78 39.3319 45.9067 38.7586 46.04C38.1986 46.1733 37.5586 46.24 36.8386 46.24C35.9319 46.24 35.1453 46.1067 34.4786 45.84C33.8253 45.56 33.2853 45.18 32.8586 44.7C32.4319 44.22 32.1119 43.6533 31.8986 43C31.6986 42.3333 31.5986 41.6067 31.5986 40.82ZM38.7386 39.8C38.7519 38.96 38.5386 38.2733 38.0986 37.74C37.6719 37.1933 37.0786 36.92 36.3186 36.92C35.8919 36.92 35.5119 37.0067 35.1786 37.18C34.8586 37.34 34.5853 37.5533 34.3586 37.82C34.1319 38.0867 33.9519 38.3933 33.8186 38.74C33.6986 39.0867 33.6186 39.44 33.5786 39.8H38.7386ZM45.7705 44.66C46.5305 44.66 47.0905 44.56 47.4505 44.36C47.8238 44.16 48.0105 43.84 48.0105 43.4C48.0105 42.9467 47.8305 42.5867 47.4705 42.32C47.1105 42.0533 46.5172 41.7533 45.6905 41.42C45.2905 41.26 44.9038 41.1 44.5305 40.94C44.1705 40.7667 43.8572 40.5667 43.5905 40.34C43.3238 40.1133 43.1105 39.84 42.9505 39.52C42.7905 39.2 42.7105 38.8067 42.7105 38.34C42.7105 37.42 43.0505 36.6933 43.7305 36.16C44.4105 35.6133 45.3372 35.34 46.5105 35.34C46.8038 35.34 47.0972 35.36 47.3905 35.4C47.6838 35.4267 47.9572 35.4667 48.2105 35.52C48.4638 35.56 48.6838 35.6067 48.8705 35.66C49.0705 35.7133 49.2238 35.76 49.3305 35.8L48.9905 37.4C48.7905 37.2933 48.4772 37.1867 48.0505 37.08C47.6238 36.96 47.1105 36.9 46.5105 36.9C45.9905 36.9 45.5372 37.0067 45.1505 37.22C44.7638 37.42 44.5705 37.74 44.5705 38.18C44.5705 38.4067 44.6105 38.6067 44.6905 38.78C44.7838 38.9533 44.9172 39.1133 45.0905 39.26C45.2772 39.3933 45.5038 39.52 45.7705 39.64C46.0372 39.76 46.3572 39.8867 46.7305 40.02C47.2238 40.2067 47.6638 40.3933 48.0505 40.58C48.4372 40.7533 48.7638 40.96 49.0305 41.2C49.3105 41.44 49.5238 41.7333 49.6705 42.08C49.8172 42.4133 49.8905 42.8267 49.8905 43.32C49.8905 44.28 49.5305 45.0067 48.8105 45.5C48.1038 45.9933 47.0905 46.24 45.7705 46.24C44.8505 46.24 44.1305 46.16 43.6105 46C43.0905 45.8533 42.7372 45.74 42.5505 45.66L42.8905 44.06C43.1038 44.14 43.4438 44.26 43.9105 44.42C44.3772 44.58 44.9972 44.66 45.7705 44.66ZM51.6963 40.82C51.6963 39.9 51.8296 39.1 52.0963 38.42C52.3629 37.7267 52.7163 37.1533 53.1563 36.7C53.5963 36.2467 54.1029 35.9067 54.6763 35.68C55.2496 35.4533 55.8363 35.34 56.4363 35.34C57.8363 35.34 58.9096 35.78 59.6563 36.66C60.4029 37.5267 60.7763 38.8533 60.7763 40.64C60.7763 40.72 60.7763 40.8267 60.7763 40.96C60.7763 41.08 60.7696 41.1933 60.7563 41.3H53.6363C53.7163 42.38 54.0296 43.2 54.5763 43.76C55.1229 44.32 55.9763 44.6 57.1363 44.6C57.7896 44.6 58.3363 44.5467 58.7763 44.44C59.2296 44.32 59.5696 44.2067 59.7963 44.1L60.0563 45.66C59.8296 45.78 59.4296 45.9067 58.8563 46.04C58.2963 46.1733 57.6563 46.24 56.9363 46.24C56.0296 46.24 55.2429 46.1067 54.5763 45.84C53.9229 45.56 53.3829 45.18 52.9563 44.7C52.5296 44.22 52.2096 43.6533 51.9963 43C51.7963 42.3333 51.6963 41.6067 51.6963 40.82ZM58.8363 39.8C58.8496 38.96 58.6363 38.2733 58.1963 37.74C57.7696 37.1933 57.1763 36.92 56.4163 36.92C55.9896 36.92 55.6096 37.0067 55.2763 37.18C54.9563 37.34 54.6829 37.5533 54.4563 37.82C54.2296 38.0867 54.0496 38.3933 53.9163 38.74C53.7963 39.0867 53.7163 39.44 53.6763 39.8H58.8363ZM67.2881 35.38C67.4481 35.38 67.6281 35.3933 67.8281 35.42C68.0415 35.4333 68.2481 35.46 68.4481 35.5C68.6481 35.5267 68.8281 35.56 68.9881 35.6C69.1615 35.6267 69.2881 35.6533 69.3681 35.68L69.0481 37.3C68.9015 37.2467 68.6548 37.1867 68.3081 37.12C67.9748 37.04 67.5415 37 67.0081 37C66.6615 37 66.3148 37.04 65.9681 37.12C65.6348 37.1867 65.4148 37.2333 65.3081 37.26V46H63.4481V36.04C63.8881 35.88 64.4348 35.7333 65.0881 35.6C65.7415 35.4533 66.4748 35.38 67.2881 35.38ZM79.7127 35.6C79.1927 37.5467 78.5793 39.4133 77.8727 41.2C77.1793 42.9867 76.506 44.5867 75.8527 46H74.1727C73.5193 44.5867 72.8393 42.9867 72.1327 41.2C71.4393 39.4133 70.8327 37.5467 70.3127 35.6H72.3127C72.4727 36.2533 72.6593 36.9533 72.8727 37.7C73.0993 38.4333 73.3327 39.1667 73.5727 39.9C73.826 40.62 74.0793 41.32 74.3327 42C74.586 42.68 74.826 43.2867 75.0527 43.82C75.2793 43.2867 75.5193 42.68 75.7727 42C76.026 41.32 76.2727 40.62 76.5127 39.9C76.766 39.1667 76.9993 38.4333 77.2127 37.7C77.4393 36.9533 77.6327 36.2533 77.7927 35.6H79.7127ZM85.1517 44.66C85.5917 44.66 85.9784 44.6533 86.3117 44.64C86.6584 44.6133 86.9451 44.5733 87.1717 44.52V41.42C87.0384 41.3533 86.8184 41.3 86.5117 41.26C86.2184 41.2067 85.8584 41.18 85.4317 41.18C85.1517 41.18 84.8517 41.2 84.5317 41.24C84.2251 41.28 83.9384 41.3667 83.6717 41.5C83.4184 41.62 83.2051 41.7933 83.0317 42.02C82.8584 42.2333 82.7717 42.52 82.7717 42.88C82.7717 43.5467 82.9851 44.0133 83.4117 44.28C83.8384 44.5333 84.4184 44.66 85.1517 44.66ZM84.9917 35.34C85.7384 35.34 86.3651 35.44 86.8717 35.64C87.3917 35.8267 87.8051 36.1 88.1117 36.46C88.4317 36.8067 88.6584 37.2267 88.7917 37.72C88.9251 38.2 88.9917 38.7333 88.9917 39.32V45.82C88.8317 45.8467 88.6051 45.8867 88.3117 45.94C88.0317 45.98 87.7117 46.02 87.3517 46.06C86.9917 46.1 86.5984 46.1333 86.1717 46.16C85.7584 46.2 85.3451 46.22 84.9317 46.22C84.3451 46.22 83.8051 46.16 83.3117 46.04C82.8184 45.92 82.3917 45.7333 82.0317 45.48C81.6717 45.2133 81.3917 44.8667 81.1917 44.44C80.9917 44.0133 80.8917 43.5 80.8917 42.9C80.8917 42.3267 81.0051 41.8333 81.2317 41.42C81.4717 41.0067 81.7917 40.6733 82.1917 40.42C82.5917 40.1667 83.0584 39.98 83.5917 39.86C84.1251 39.74 84.6851 39.68 85.2717 39.68C85.4584 39.68 85.6517 39.6933 85.8517 39.72C86.0517 39.7333 86.2384 39.76 86.4117 39.8C86.5984 39.8267 86.7584 39.8533 86.8917 39.88C87.0251 39.9067 87.1184 39.9267 87.1717 39.94V39.42C87.1717 39.1133 87.1384 38.8133 87.0717 38.52C87.0051 38.2133 86.8851 37.9467 86.7117 37.72C86.5384 37.48 86.2984 37.2933 85.9917 37.16C85.6984 37.0133 85.3117 36.94 84.8317 36.94C84.2184 36.94 83.6784 36.9867 83.2117 37.08C82.7584 37.16 82.4184 37.2467 82.1917 37.34L81.9717 35.8C82.2117 35.6933 82.6117 35.5933 83.1717 35.5C83.7317 35.3933 84.3384 35.34 84.9917 35.34ZM103.43 37.8C103.203 37.6133 102.877 37.4333 102.45 37.26C102.023 37.0867 101.557 37 101.05 37C100.517 37 100.057 37.1 99.6699 37.3C99.2965 37.4867 98.9899 37.7533 98.7499 38.1C98.5099 38.4333 98.3365 38.8333 98.2299 39.3C98.1232 39.7667 98.0699 40.2667 98.0699 40.8C98.0699 42.0133 98.3699 42.9533 98.9699 43.62C99.5699 44.2733 100.37 44.6 101.37 44.6C101.877 44.6 102.297 44.58 102.63 44.54C102.977 44.4867 103.243 44.4333 103.43 44.38V37.8ZM103.43 30.8L105.29 30.48V45.7C104.863 45.82 104.317 45.94 103.65 46.06C102.983 46.18 102.217 46.24 101.35 46.24C100.55 46.24 99.8299 46.1133 99.1899 45.86C98.5499 45.6067 98.0032 45.2467 97.5499 44.78C97.0965 44.3133 96.7432 43.7467 96.4899 43.08C96.2499 42.4 96.1299 41.64 96.1299 40.8C96.1299 40 96.2299 39.2667 96.4299 38.6C96.6432 37.9333 96.9499 37.36 97.3499 36.88C97.7499 36.4 98.2365 36.0267 98.8099 35.76C99.3965 35.4933 100.063 35.36 100.81 35.36C101.41 35.36 101.937 35.44 102.39 35.6C102.857 35.76 103.203 35.9133 103.43 36.06V30.8ZM107.907 40.82C107.907 39.9 108.041 39.1 108.307 38.42C108.574 37.7267 108.927 37.1533 109.367 36.7C109.807 36.2467 110.314 35.9067 110.887 35.68C111.461 35.4533 112.047 35.34 112.647 35.34C114.047 35.34 115.121 35.78 115.867 36.66C116.614 37.5267 116.987 38.8533 116.987 40.64C116.987 40.72 116.987 40.8267 116.987 40.96C116.987 41.08 116.981 41.1933 116.967 41.3H109.847C109.927 42.38 110.241 43.2 110.787 43.76C111.334 44.32 112.187 44.6 113.347 44.6C114.001 44.6 114.547 44.5467 114.987 44.44C115.441 44.32 115.781 44.2067 116.007 44.1L116.267 45.66C116.041 45.78 115.641 45.9067 115.067 46.04C114.507 46.1733 113.867 46.24 113.147 46.24C112.241 46.24 111.454 46.1067 110.787 45.84C110.134 45.56 109.594 45.18 109.167 44.7C108.741 44.22 108.421 43.6533 108.207 43C108.007 42.3333 107.907 41.6067 107.907 40.82ZM115.047 39.8C115.061 38.96 114.847 38.2733 114.407 37.74C113.981 37.1933 113.387 36.92 112.627 36.92C112.201 36.92 111.821 37.0067 111.487 37.18C111.167 37.34 110.894 37.5533 110.667 37.82C110.441 38.0867 110.261 38.3933 110.127 38.74C110.007 39.0867 109.927 39.44 109.887 39.8H115.047ZM128.808 46.24C127.968 46.24 127.228 46.1067 126.588 45.84C125.961 45.5733 125.428 45.2 124.988 44.72C124.561 44.24 124.241 43.6733 124.028 43.02C123.815 42.3533 123.708 41.62 123.708 40.82C123.708 40.02 123.821 39.2867 124.048 38.62C124.288 37.9533 124.621 37.38 125.048 36.9C125.475 36.4067 125.995 36.0267 126.608 35.76C127.235 35.48 127.928 35.34 128.688 35.34C129.155 35.34 129.621 35.38 130.088 35.46C130.555 35.54 131.001 35.6667 131.428 35.84L131.008 37.42C130.728 37.2867 130.401 37.18 130.028 37.1C129.668 37.02 129.281 36.98 128.868 36.98C127.828 36.98 127.028 37.3067 126.468 37.96C125.921 38.6133 125.648 39.5667 125.648 40.82C125.648 41.38 125.708 41.8933 125.828 42.36C125.961 42.8267 126.161 43.2267 126.428 43.56C126.708 43.8933 127.061 44.1533 127.488 44.34C127.915 44.5133 128.435 44.6 129.048 44.6C129.541 44.6 129.988 44.5533 130.388 44.46C130.788 44.3667 131.101 44.2667 131.328 44.16L131.588 45.72C131.481 45.7867 131.328 45.8533 131.128 45.92C130.928 45.9733 130.701 46.02 130.448 46.06C130.195 46.1133 129.921 46.1533 129.628 46.18C129.348 46.22 129.075 46.24 128.808 46.24ZM141.865 45.7C141.438 45.8067 140.872 45.92 140.165 46.04C139.472 46.16 138.665 46.22 137.745 46.22C136.945 46.22 136.272 46.1067 135.725 45.88C135.178 45.64 134.738 45.3067 134.405 44.88C134.072 44.4533 133.832 43.9533 133.685 43.38C133.538 42.7933 133.465 42.1467 133.465 41.44V35.6H135.325V41.04C135.325 42.3067 135.525 43.2133 135.925 43.76C136.325 44.3067 136.998 44.58 137.945 44.58C138.145 44.58 138.352 44.5733 138.565 44.56C138.778 44.5467 138.978 44.5333 139.165 44.52C139.352 44.4933 139.518 44.4733 139.665 44.46C139.825 44.4333 139.938 44.4067 140.005 44.38V35.6H141.865V45.7ZM152.289 40.82C152.289 39.6067 151.989 38.6733 151.389 38.02C150.789 37.3667 149.989 37.04 148.989 37.04C148.429 37.04 147.989 37.06 147.669 37.1C147.363 37.14 147.116 37.1867 146.929 37.24V43.8C147.156 43.9867 147.483 44.1667 147.909 44.34C148.336 44.5133 148.803 44.6 149.309 44.6C149.843 44.6 150.296 44.5067 150.669 44.32C151.056 44.12 151.369 43.8533 151.609 43.52C151.849 43.1733 152.023 42.7733 152.129 42.32C152.236 41.8533 152.289 41.3533 152.289 40.82ZM154.229 40.82C154.229 41.6067 154.123 42.3333 153.909 43C153.709 43.6667 153.409 44.24 153.009 44.72C152.609 45.2 152.116 45.5733 151.529 45.84C150.956 46.1067 150.296 46.24 149.549 46.24C148.949 46.24 148.416 46.16 147.949 46C147.496 45.84 147.156 45.6867 146.929 45.54V49.7H145.069V35.92C145.509 35.8133 146.056 35.7 146.709 35.58C147.376 35.4467 148.143 35.38 149.009 35.38C149.809 35.38 150.529 35.5067 151.169 35.76C151.809 36.0133 152.356 36.3733 152.809 36.84C153.263 37.3067 153.609 37.88 153.849 38.56C154.103 39.2267 154.229 39.98 154.229 40.82ZM166.027 40.8C166.027 41.6267 165.907 42.3733 165.667 43.04C165.427 43.7067 165.087 44.28 164.647 44.76C164.22 45.24 163.707 45.6133 163.107 45.88C162.507 46.1333 161.853 46.26 161.147 46.26C160.44 46.26 159.787 46.1333 159.187 45.88C158.587 45.6133 158.067 45.24 157.627 44.76C157.2 44.28 156.867 43.7067 156.627 43.04C156.387 42.3733 156.267 41.6267 156.267 40.8C156.267 39.9867 156.387 39.2467 156.627 38.58C156.867 37.9 157.2 37.32 157.627 36.84C158.067 36.36 158.587 35.9933 159.187 35.74C159.787 35.4733 160.44 35.34 161.147 35.34C161.853 35.34 162.507 35.4733 163.107 35.74C163.707 35.9933 164.22 36.36 164.647 36.84C165.087 37.32 165.427 37.9 165.667 38.58C165.907 39.2467 166.027 39.9867 166.027 40.8ZM164.087 40.8C164.087 39.6267 163.82 38.7 163.287 38.02C162.767 37.3267 162.053 36.98 161.147 36.98C160.24 36.98 159.52 37.3267 158.987 38.02C158.467 38.7 158.207 39.6267 158.207 40.8C158.207 41.9733 158.467 42.9067 158.987 43.6C159.52 44.28 160.24 44.62 161.147 44.62C162.053 44.62 162.767 44.28 163.287 43.6C163.82 42.9067 164.087 41.9733 164.087 40.8ZM171.063 44.66C171.823 44.66 172.383 44.56 172.743 44.36C173.117 44.16 173.303 43.84 173.303 43.4C173.303 42.9467 173.123 42.5867 172.763 42.32C172.403 42.0533 171.81 41.7533 170.983 41.42C170.583 41.26 170.197 41.1 169.823 40.94C169.463 40.7667 169.15 40.5667 168.883 40.34C168.617 40.1133 168.403 39.84 168.243 39.52C168.083 39.2 168.003 38.8067 168.003 38.34C168.003 37.42 168.343 36.6933 169.023 36.16C169.703 35.6133 170.63 35.34 171.803 35.34C172.097 35.34 172.39 35.36 172.683 35.4C172.977 35.4267 173.25 35.4667 173.503 35.52C173.757 35.56 173.977 35.6067 174.163 35.66C174.363 35.7133 174.517 35.76 174.623 35.8L174.283 37.4C174.083 37.2933 173.77 37.1867 173.343 37.08C172.917 36.96 172.403 36.9 171.803 36.9C171.283 36.9 170.83 37.0067 170.443 37.22C170.057 37.42 169.863 37.74 169.863 38.18C169.863 38.4067 169.903 38.6067 169.983 38.78C170.077 38.9533 170.21 39.1133 170.383 39.26C170.57 39.3933 170.797 39.52 171.063 39.64C171.33 39.76 171.65 39.8867 172.023 40.02C172.517 40.2067 172.957 40.3933 173.343 40.58C173.73 40.7533 174.057 40.96 174.323 41.2C174.603 41.44 174.817 41.7333 174.963 42.08C175.11 42.4133 175.183 42.8267 175.183 43.32C175.183 44.28 174.823 45.0067 174.103 45.5C173.397 45.9933 172.383 46.24 171.063 46.24C170.143 46.24 169.423 46.16 168.903 46C168.383 45.8533 168.03 45.74 167.843 45.66L168.183 44.06C168.397 44.14 168.737 44.26 169.203 44.42C169.67 44.58 170.29 44.66 171.063 44.66ZM181.618 40.82C181.618 39.9 181.751 39.1 182.018 38.42C182.285 37.7267 182.638 37.1533 183.078 36.7C183.518 36.2467 184.025 35.9067 184.598 35.68C185.171 35.4533 185.758 35.34 186.358 35.34C187.758 35.34 188.831 35.78 189.578 36.66C190.325 37.5267 190.698 38.8533 190.698 40.64C190.698 40.72 190.698 40.8267 190.698 40.96C190.698 41.08 190.691 41.1933 190.678 41.3H183.558C183.638 42.38 183.951 43.2 184.498 43.76C185.045 44.32 185.898 44.6 187.058 44.6C187.711 44.6 188.258 44.5467 188.698 44.44C189.151 44.32 189.491 44.2067 189.718 44.1L189.978 45.66C189.751 45.78 189.351 45.9067 188.778 46.04C188.218 46.1733 187.578 46.24 186.858 46.24C185.951 46.24 185.165 46.1067 184.498 45.84C183.845 45.56 183.305 45.18 182.878 44.7C182.451 44.22 182.131 43.6533 181.918 43C181.718 42.3333 181.618 41.6067 181.618 40.82ZM188.758 39.8C188.771 38.96 188.558 38.2733 188.118 37.74C187.691 37.1933 187.098 36.92 186.338 36.92C185.911 36.92 185.531 37.0067 185.198 37.18C184.878 37.34 184.605 37.5533 184.378 37.82C184.151 38.0867 183.971 38.3933 183.838 38.74C183.718 39.0867 183.638 39.44 183.598 39.8H188.758ZM193.37 35.9C193.797 35.7933 194.363 35.68 195.07 35.56C195.777 35.44 196.59 35.38 197.51 35.38C198.337 35.38 199.023 35.5 199.57 35.74C200.117 35.9667 200.55 36.2933 200.87 36.72C201.203 37.1333 201.437 37.6333 201.57 38.22C201.703 38.8067 201.77 39.4533 201.77 40.16V46H199.91V40.56C199.91 39.92 199.863 39.3733 199.77 38.92C199.69 38.4667 199.55 38.1 199.35 37.82C199.15 37.54 198.883 37.34 198.55 37.22C198.217 37.0867 197.803 37.02 197.31 37.02C197.11 37.02 196.903 37.0267 196.69 37.04C196.477 37.0533 196.27 37.0733 196.07 37.1C195.883 37.1133 195.71 37.1333 195.55 37.16C195.403 37.1867 195.297 37.2067 195.23 37.22V46H193.37V35.9ZM211.223 35.6H215.163V37.16H211.223V41.96C211.223 42.48 211.263 42.9133 211.343 43.26C211.423 43.5933 211.543 43.86 211.703 44.06C211.863 44.2467 212.063 44.38 212.303 44.46C212.543 44.54 212.823 44.58 213.143 44.58C213.703 44.58 214.15 44.52 214.483 44.4C214.83 44.2667 215.07 44.1733 215.203 44.12L215.563 45.66C215.377 45.7533 215.05 45.8667 214.583 46C214.117 46.1467 213.583 46.22 212.983 46.22C212.277 46.22 211.69 46.1333 211.223 45.96C210.77 45.7733 210.403 45.5 210.123 45.14C209.843 44.78 209.643 44.34 209.523 43.82C209.417 43.2867 209.363 42.6733 209.363 41.98V32.7L211.223 32.38V35.6ZM221.05 44.66C221.49 44.66 221.877 44.6533 222.21 44.64C222.557 44.6133 222.844 44.5733 223.07 44.52V41.42C222.937 41.3533 222.717 41.3 222.41 41.26C222.117 41.2067 221.757 41.18 221.33 41.18C221.05 41.18 220.75 41.2 220.43 41.24C220.124 41.28 219.837 41.3667 219.57 41.5C219.317 41.62 219.104 41.7933 218.93 42.02C218.757 42.2333 218.67 42.52 218.67 42.88C218.67 43.5467 218.884 44.0133 219.31 44.28C219.737 44.5333 220.317 44.66 221.05 44.66ZM220.89 35.34C221.637 35.34 222.264 35.44 222.77 35.64C223.29 35.8267 223.704 36.1 224.01 36.46C224.33 36.8067 224.557 37.2267 224.69 37.72C224.824 38.2 224.89 38.7333 224.89 39.32V45.82C224.73 45.8467 224.504 45.8867 224.21 45.94C223.93 45.98 223.61 46.02 223.25 46.06C222.89 46.1 222.497 46.1333 222.07 46.16C221.657 46.2 221.244 46.22 220.83 46.22C220.244 46.22 219.704 46.16 219.21 46.04C218.717 45.92 218.29 45.7333 217.93 45.48C217.57 45.2133 217.29 44.8667 217.09 44.44C216.89 44.0133 216.79 43.5 216.79 42.9C216.79 42.3267 216.904 41.8333 217.13 41.42C217.37 41.0067 217.69 40.6733 218.09 40.42C218.49 40.1667 218.957 39.98 219.49 39.86C220.024 39.74 220.584 39.68 221.17 39.68C221.357 39.68 221.55 39.6933 221.75 39.72C221.95 39.7333 222.137 39.76 222.31 39.8C222.497 39.8267 222.657 39.8533 222.79 39.88C222.924 39.9067 223.017 39.9267 223.07 39.94V39.42C223.07 39.1133 223.037 38.8133 222.97 38.52C222.904 38.2133 222.784 37.9467 222.61 37.72C222.437 37.48 222.197 37.2933 221.89 37.16C221.597 37.0133 221.21 36.94 220.73 36.94C220.117 36.94 219.577 36.9867 219.11 37.08C218.657 37.16 218.317 37.2467 218.09 37.34L217.87 35.8C218.11 35.6933 218.51 35.5933 219.07 35.5C219.63 35.3933 220.237 35.34 220.89 35.34ZM231.099 46.2C229.953 46.1733 229.139 45.9267 228.659 45.46C228.179 44.9933 227.939 44.2667 227.939 43.28V30.8L229.799 30.48V42.98C229.799 43.2867 229.826 43.54 229.879 43.74C229.933 43.94 230.019 44.1 230.139 44.22C230.259 44.34 230.419 44.4333 230.619 44.5C230.819 44.5533 231.066 44.6 231.359 44.64L231.099 46.2ZM236.568 46.2C235.421 46.1733 234.608 45.9267 234.128 45.46C233.648 44.9933 233.408 44.2667 233.408 43.28V30.8L235.268 30.48V42.98C235.268 43.2867 235.295 43.54 235.348 43.74C235.401 43.94 235.488 44.1 235.608 44.22C235.728 44.34 235.888 44.4333 236.088 44.5C236.288 44.5533 236.535 44.6 236.828 44.64L236.568 46.2ZM238.337 40.82C238.337 39.9 238.47 39.1 238.737 38.42C239.004 37.7267 239.357 37.1533 239.797 36.7C240.237 36.2467 240.744 35.9067 241.317 35.68C241.89 35.4533 242.477 35.34 243.077 35.34C244.477 35.34 245.55 35.78 246.297 36.66C247.044 37.5267 247.417 38.8533 247.417 40.64C247.417 40.72 247.417 40.8267 247.417 40.96C247.417 41.08 247.41 41.1933 247.397 41.3H240.277C240.357 42.38 240.67 43.2 241.217 43.76C241.764 44.32 242.617 44.6 243.777 44.6C244.43 44.6 244.977 44.5467 245.417 44.44C245.87 44.32 246.21 44.2067 246.437 44.1L246.697 45.66C246.47 45.78 246.07 45.9067 245.497 46.04C244.937 46.1733 244.297 46.24 243.577 46.24C242.67 46.24 241.884 46.1067 241.217 45.84C240.564 45.56 240.024 45.18 239.597 44.7C239.17 44.22 238.85 43.6533 238.637 43C238.437 42.3333 238.337 41.6067 238.337 40.82ZM245.477 39.8C245.49 38.96 245.277 38.2733 244.837 37.74C244.41 37.1933 243.817 36.92 243.057 36.92C242.63 36.92 242.25 37.0067 241.917 37.18C241.597 37.34 241.324 37.5533 241.097 37.82C240.87 38.0867 240.69 38.3933 240.557 38.74C240.437 39.0867 240.357 39.44 240.317 39.8H245.477ZM253.929 35.38C254.089 35.38 254.269 35.3933 254.469 35.42C254.682 35.4333 254.889 35.46 255.089 35.5C255.289 35.5267 255.469 35.56 255.629 35.6C255.802 35.6267 255.929 35.6533 256.009 35.68L255.689 37.3C255.542 37.2467 255.295 37.1867 254.949 37.12C254.615 37.04 254.182 37 253.649 37C253.302 37 252.955 37.04 252.609 37.12C252.275 37.1867 252.055 37.2333 251.949 37.26V46H250.089V36.04C250.529 35.88 251.075 35.7333 251.729 35.6C252.382 35.4533 253.115 35.38 253.929 35.38ZM257.224 40.82C257.224 39.9 257.357 39.1 257.624 38.42C257.89 37.7267 258.244 37.1533 258.684 36.7C259.124 36.2467 259.63 35.9067 260.204 35.68C260.777 35.4533 261.364 35.34 261.964 35.34C263.364 35.34 264.437 35.78 265.184 36.66C265.93 37.5267 266.304 38.8533 266.304 40.64C266.304 40.72 266.304 40.8267 266.304 40.96C266.304 41.08 266.297 41.1933 266.284 41.3H259.164C259.244 42.38 259.557 43.2 260.104 43.76C260.65 44.32 261.504 44.6 262.664 44.6C263.317 44.6 263.864 44.5467 264.304 44.44C264.757 44.32 265.097 44.2067 265.324 44.1L265.584 45.66C265.357 45.78 264.957 45.9067 264.384 46.04C263.824 46.1733 263.184 46.24 262.464 46.24C261.557 46.24 260.77 46.1067 260.104 45.84C259.45 45.56 258.91 45.18 258.484 44.7C258.057 44.22 257.737 43.6533 257.524 43C257.324 42.3333 257.224 41.6067 257.224 40.82ZM264.364 39.8C264.377 38.96 264.164 38.2733 263.724 37.74C263.297 37.1933 262.704 36.92 261.944 36.92C261.517 36.92 261.137 37.0067 260.804 37.18C260.484 37.34 260.21 37.5533 259.984 37.82C259.757 38.0867 259.577 38.3933 259.444 38.74C259.324 39.0867 259.244 39.44 259.204 39.8H264.364ZM271.395 44.66C272.155 44.66 272.715 44.56 273.075 44.36C273.449 44.16 273.635 43.84 273.635 43.4C273.635 42.9467 273.455 42.5867 273.095 42.32C272.735 42.0533 272.142 41.7533 271.315 41.42C270.915 41.26 270.529 41.1 270.155 40.94C269.795 40.7667 269.482 40.5667 269.215 40.34C268.949 40.1133 268.735 39.84 268.575 39.52C268.415 39.2 268.335 38.8067 268.335 38.34C268.335 37.42 268.675 36.6933 269.355 36.16C270.035 35.6133 270.962 35.34 272.135 35.34C272.429 35.34 272.722 35.36 273.015 35.4C273.309 35.4267 273.582 35.4667 273.835 35.52C274.089 35.56 274.309 35.6067 274.495 35.66C274.695 35.7133 274.849 35.76 274.955 35.8L274.615 37.4C274.415 37.2933 274.102 37.1867 273.675 37.08C273.249 36.96 272.735 36.9 272.135 36.9C271.615 36.9 271.162 37.0067 270.775 37.22C270.389 37.42 270.195 37.74 270.195 38.18C270.195 38.4067 270.235 38.6067 270.315 38.78C270.409 38.9533 270.542 39.1133 270.715 39.26C270.902 39.3933 271.129 39.52 271.395 39.64C271.662 39.76 271.982 39.8867 272.355 40.02C272.849 40.2067 273.289 40.3933 273.675 40.58C274.062 40.7533 274.389 40.96 274.655 41.2C274.935 41.44 275.149 41.7333 275.295 42.08C275.442 42.4133 275.515 42.8267 275.515 43.32C275.515 44.28 275.155 45.0067 274.435 45.5C273.729 45.9933 272.715 46.24 271.395 46.24C270.475 46.24 269.755 46.16 269.235 46C268.715 45.8533 268.362 45.74 268.175 45.66L268.515 44.06C268.729 44.14 269.069 44.26 269.535 44.42C270.002 44.58 270.622 44.66 271.395 44.66ZM5.55697 68.94C5.55697 69.2867 5.49697 69.6133 5.37697 69.92C5.25697 70.2267 5.08364 70.4933 4.85697 70.72C4.64364 70.9467 4.37697 71.1333 4.05697 71.28C3.75031 71.4133 3.39697 71.48 2.99697 71.48C2.59697 71.48 2.23697 71.4133 1.91697 71.28C1.61031 71.1333 1.34364 70.9467 1.11697 70.72C0.903639 70.4933 0.736973 70.2267 0.616973 69.92C0.496973 69.6133 0.436973 69.2867 0.436973 68.94C0.436973 68.6067 0.496973 68.2867 0.616973 67.98C0.736973 67.66 0.903639 67.3867 1.11697 67.16C1.34364 66.9333 1.61031 66.7533 1.91697 66.62C2.23697 66.4733 2.59697 66.4 2.99697 66.4C3.39697 66.4 3.75031 66.4733 4.05697 66.62C4.37697 66.7533 4.64364 66.9333 4.85697 67.16C5.08364 67.3867 5.25697 67.66 5.37697 67.98C5.49697 68.2867 5.55697 68.6067 5.55697 68.94ZM25.6805 76.3C24.7072 76.3 23.8205 76.14 23.0205 75.82C22.2205 75.5 21.5338 75.0333 20.9605 74.42C20.3872 73.8067 19.9405 73.0533 19.6205 72.16C19.3138 71.2533 19.1605 70.22 19.1605 69.06C19.1605 67.9 19.3338 66.8733 19.6805 65.98C20.0405 65.0733 20.5205 64.3133 21.1205 63.7C21.7205 63.0867 22.4205 62.62 23.2205 62.3C24.0205 61.98 24.8738 61.82 25.7805 61.82C26.3538 61.82 26.8672 61.86 27.3205 61.94C27.7872 62.02 28.1872 62.1133 28.5205 62.22C28.8672 62.3267 29.1472 62.4333 29.3605 62.54C29.5738 62.6467 29.7205 62.7267 29.8005 62.78L29.2405 64.38C29.1205 64.3 28.9472 64.2133 28.7205 64.12C28.4938 64.0267 28.2338 63.9333 27.9405 63.84C27.6605 63.7467 27.3472 63.6733 27.0005 63.62C26.6672 63.5533 26.3272 63.52 25.9805 63.52C25.2472 63.52 24.5872 63.6467 24.0005 63.9C23.4138 64.1533 22.9138 64.52 22.5005 65C22.0872 65.48 21.7672 66.0667 21.5405 66.76C21.3272 67.44 21.2205 68.2067 21.2205 69.06C21.2205 69.8867 21.3138 70.64 21.5005 71.32C21.7005 72 21.9938 72.5867 22.3805 73.08C22.7672 73.56 23.2472 73.9333 23.8205 74.2C24.4072 74.4667 25.0872 74.6 25.8605 74.6C26.7538 74.6 27.4938 74.5067 28.0805 74.32C28.6672 74.1333 29.1072 73.9667 29.4005 73.82L29.9005 75.42C29.8072 75.4867 29.6405 75.5733 29.4005 75.68C29.1605 75.7733 28.8605 75.8667 28.5005 75.96C28.1405 76.0533 27.7205 76.1333 27.2405 76.2C26.7605 76.2667 26.2405 76.3 25.6805 76.3ZM39.8922 75.7C39.4655 75.8067 38.8989 75.92 38.1922 76.04C37.4989 76.16 36.6922 76.22 35.7722 76.22C34.9722 76.22 34.2989 76.1067 33.7522 75.88C33.2055 75.64 32.7655 75.3067 32.4322 74.88C32.0989 74.4533 31.8589 73.9533 31.7122 73.38C31.5655 72.7933 31.4922 72.1467 31.4922 71.44V65.6H33.3522V71.04C33.3522 72.3067 33.5522 73.2133 33.9522 73.76C34.3522 74.3067 35.0255 74.58 35.9722 74.58C36.1722 74.58 36.3789 74.5733 36.5922 74.56C36.8055 74.5467 37.0055 74.5333 37.1922 74.52C37.3789 74.4933 37.5455 74.4733 37.6922 74.46C37.8522 74.4333 37.9655 74.4067 38.0322 74.38V65.6H39.8922V75.7ZM50.3166 70.82C50.3166 69.6067 50.0166 68.6733 49.4166 68.02C48.8166 67.3667 48.0166 67.04 47.0166 67.04C46.4566 67.04 46.0166 67.06 45.6966 67.1C45.3899 67.14 45.1432 67.1867 44.9566 67.24V73.8C45.1832 73.9867 45.5099 74.1667 45.9366 74.34C46.3632 74.5133 46.8299 74.6 47.3366 74.6C47.8699 74.6 48.3232 74.5067 48.6966 74.32C49.0832 74.12 49.3966 73.8533 49.6366 73.52C49.8766 73.1733 50.0499 72.7733 50.1566 72.32C50.2632 71.8533 50.3166 71.3533 50.3166 70.82ZM52.2566 70.82C52.2566 71.6067 52.1499 72.3333 51.9366 73C51.7366 73.6667 51.4366 74.24 51.0366 74.72C50.6366 75.2 50.1432 75.5733 49.5566 75.84C48.9832 76.1067 48.3232 76.24 47.5766 76.24C46.9766 76.24 46.4432 76.16 45.9766 76C45.5232 75.84 45.1832 75.6867 44.9566 75.54V79.7H43.0966V65.92C43.5366 65.8133 44.0832 65.7 44.7366 65.58C45.4032 65.4467 46.1699 65.38 47.0366 65.38C47.8366 65.38 48.5566 65.5067 49.1966 65.76C49.8366 66.0133 50.3832 66.3733 50.8366 66.84C51.2899 67.3067 51.6366 67.88 51.8766 68.56C52.1299 69.2267 52.2566 69.98 52.2566 70.82ZM64.0539 70.8C64.0539 71.6267 63.9339 72.3733 63.6939 73.04C63.4539 73.7067 63.1139 74.28 62.6739 74.76C62.2473 75.24 61.7339 75.6133 61.1339 75.88C60.5339 76.1333 59.8806 76.26 59.1739 76.26C58.4673 76.26 57.8139 76.1333 57.2139 75.88C56.6139 75.6133 56.0939 75.24 55.6539 74.76C55.2273 74.28 54.8939 73.7067 54.6539 73.04C54.4139 72.3733 54.2939 71.6267 54.2939 70.8C54.2939 69.9867 54.4139 69.2467 54.6539 68.58C54.8939 67.9 55.2273 67.32 55.6539 66.84C56.0939 66.36 56.6139 65.9933 57.2139 65.74C57.8139 65.4733 58.4673 65.34 59.1739 65.34C59.8806 65.34 60.5339 65.4733 61.1339 65.74C61.7339 65.9933 62.2473 66.36 62.6739 66.84C63.1139 67.32 63.4539 67.9 63.6939 68.58C63.9339 69.2467 64.0539 69.9867 64.0539 70.8ZM62.1139 70.8C62.1139 69.6267 61.8473 68.7 61.3139 68.02C60.7939 67.3267 60.0806 66.98 59.1739 66.98C58.2673 66.98 57.5473 67.3267 57.0139 68.02C56.4939 68.7 56.2339 69.6267 56.2339 70.8C56.2339 71.9733 56.4939 72.9067 57.0139 73.6C57.5473 74.28 58.2673 74.62 59.1739 74.62C60.0806 74.62 60.7939 74.28 61.3139 73.6C61.8473 72.9067 62.1139 71.9733 62.1139 70.8ZM66.6708 65.9C67.0975 65.7933 67.6641 65.68 68.3708 65.56C69.0775 65.44 69.8908 65.38 70.8108 65.38C71.6375 65.38 72.3241 65.5 72.8708 65.74C73.4175 65.9667 73.8508 66.2933 74.1708 66.72C74.5041 67.1333 74.7375 67.6333 74.8708 68.22C75.0041 68.8067 75.0708 69.4533 75.0708 70.16V76H73.2108V70.56C73.2108 69.92 73.1641 69.3733 73.0708 68.92C72.9908 68.4667 72.8508 68.1 72.6508 67.82C72.4508 67.54 72.1841 67.34 71.8508 67.22C71.5175 67.0867 71.1041 67.02 70.6108 67.02C70.4108 67.02 70.2041 67.0267 69.9908 67.04C69.7775 67.0533 69.5708 67.0733 69.3708 67.1C69.1841 67.1133 69.0108 67.1333 68.8508 67.16C68.7041 67.1867 68.5975 67.2067 68.5308 67.22V76H66.6708V65.9ZM77.5752 70.82C77.5752 69.9 77.7085 69.1 77.9752 68.42C78.2418 67.7267 78.5952 67.1533 79.0352 66.7C79.4752 66.2467 79.9818 65.9067 80.5552 65.68C81.1285 65.4533 81.7152 65.34 82.3152 65.34C83.7152 65.34 84.7885 65.78 85.5352 66.66C86.2818 67.5267 86.6552 68.8533 86.6552 70.64C86.6552 70.72 86.6552 70.8267 86.6552 70.96C86.6552 71.08 86.6485 71.1933 86.6352 71.3H79.5152C79.5952 72.38 79.9085 73.2 80.4552 73.76C81.0018 74.32 81.8552 74.6 83.0152 74.6C83.6685 74.6 84.2152 74.5467 84.6552 74.44C85.1085 74.32 85.4485 74.2067 85.6752 74.1L85.9352 75.66C85.7085 75.78 85.3085 75.9067 84.7352 76.04C84.1752 76.1733 83.5352 76.24 82.8152 76.24C81.9085 76.24 81.1218 76.1067 80.4552 75.84C79.8018 75.56 79.2618 75.18 78.8352 74.7C78.4085 74.22 78.0885 73.6533 77.8752 73C77.6752 72.3333 77.5752 71.6067 77.5752 70.82ZM84.7152 69.8C84.7285 68.96 84.5152 68.2733 84.0752 67.74C83.6485 67.1933 83.0552 66.92 82.2952 66.92C81.8685 66.92 81.4885 67.0067 81.1552 67.18C80.8352 67.34 80.5618 67.5533 80.3352 67.82C80.1085 68.0867 79.9285 68.3933 79.7952 68.74C79.6752 69.0867 79.5952 69.44 79.5552 69.8H84.7152ZM93.1671 65.38C93.3271 65.38 93.5071 65.3933 93.7071 65.42C93.9204 65.4333 94.1271 65.46 94.3271 65.5C94.5271 65.5267 94.7071 65.56 94.8671 65.6C95.0404 65.6267 95.1671 65.6533 95.2471 65.68L94.9271 67.3C94.7804 67.2467 94.5337 67.1867 94.1871 67.12C93.8537 67.04 93.4204 67 92.8871 67C92.5404 67 92.1937 67.04 91.8471 67.12C91.5137 67.1867 91.2937 67.2333 91.1871 67.26V76H89.3271V66.04C89.7671 65.88 90.3137 65.7333 90.9671 65.6C91.6204 65.4533 92.3537 65.38 93.1671 65.38ZM100.562 74.66C101.002 74.66 101.389 74.6533 101.722 74.64C102.069 74.6133 102.355 74.5733 102.582 74.52V71.42C102.449 71.3533 102.229 71.3 101.922 71.26C101.629 71.2067 101.269 71.18 100.842 71.18C100.562 71.18 100.262 71.2 99.9419 71.24C99.6352 71.28 99.3486 71.3667 99.0819 71.5C98.8286 71.62 98.6152 71.7933 98.4419 72.02C98.2686 72.2333 98.1819 72.52 98.1819 72.88C98.1819 73.5467 98.3952 74.0133 98.8219 74.28C99.2486 74.5333 99.8286 74.66 100.562 74.66ZM100.402 65.34C101.149 65.34 101.775 65.44 102.282 65.64C102.802 65.8267 103.215 66.1 103.522 66.46C103.842 66.8067 104.069 67.2267 104.202 67.72C104.335 68.2 104.402 68.7333 104.402 69.32V75.82C104.242 75.8467 104.015 75.8867 103.722 75.94C103.442 75.98 103.122 76.02 102.762 76.06C102.402 76.1 102.009 76.1333 101.582 76.16C101.169 76.2 100.755 76.22 100.342 76.22C99.7552 76.22 99.2152 76.16 98.7219 76.04C98.2286 75.92 97.8019 75.7333 97.4419 75.48C97.0819 75.2133 96.8019 74.8667 96.6019 74.44C96.4019 74.0133 96.3019 73.5 96.3019 72.9C96.3019 72.3267 96.4152 71.8333 96.6419 71.42C96.8819 71.0067 97.2019 70.6733 97.6019 70.42C98.0019 70.1667 98.4686 69.98 99.0019 69.86C99.5352 69.74 100.095 69.68 100.682 69.68C100.869 69.68 101.062 69.6933 101.262 69.72C101.462 69.7333 101.649 69.76 101.822 69.8C102.009 69.8267 102.169 69.8533 102.302 69.88C102.435 69.9067 102.529 69.9267 102.582 69.94V69.42C102.582 69.1133 102.549 68.8133 102.482 68.52C102.415 68.2133 102.295 67.9467 102.122 67.72C101.949 67.48 101.709 67.2933 101.402 67.16C101.109 67.0133 100.722 66.94 100.242 66.94C99.6286 66.94 99.0886 66.9867 98.6219 67.08C98.1686 67.16 97.8286 67.2467 97.6019 67.34L97.3819 65.8C97.6219 65.6933 98.0219 65.5933 98.5819 65.5C99.1419 65.3933 99.7486 65.34 100.402 65.34ZM118.84 67.8C118.613 67.6133 118.287 67.4333 117.86 67.26C117.433 67.0867 116.967 67 116.46 67C115.927 67 115.467 67.1 115.08 67.3C114.707 67.4867 114.4 67.7533 114.16 68.1C113.92 68.4333 113.747 68.8333 113.64 69.3C113.533 69.7667 113.48 70.2667 113.48 70.8C113.48 72.0133 113.78 72.9533 114.38 73.62C114.98 74.2733 115.78 74.6 116.78 74.6C117.287 74.6 117.707 74.58 118.04 74.54C118.387 74.4867 118.653 74.4333 118.84 74.38V67.8ZM118.84 60.8L120.7 60.48V75.7C120.273 75.82 119.727 75.94 119.06 76.06C118.393 76.18 117.627 76.24 116.76 76.24C115.96 76.24 115.24 76.1133 114.6 75.86C113.96 75.6067 113.413 75.2467 112.96 74.78C112.507 74.3133 112.153 73.7467 111.9 73.08C111.66 72.4 111.54 71.64 111.54 70.8C111.54 70 111.64 69.2667 111.84 68.6C112.053 67.9333 112.36 67.36 112.76 66.88C113.16 66.4 113.647 66.0267 114.22 65.76C114.807 65.4933 115.473 65.36 116.22 65.36C116.82 65.36 117.347 65.44 117.8 65.6C118.267 65.76 118.613 65.9133 118.84 66.06V60.8ZM123.317 70.82C123.317 69.9 123.451 69.1 123.717 68.42C123.984 67.7267 124.337 67.1533 124.777 66.7C125.217 66.2467 125.724 65.9067 126.297 65.68C126.871 65.4533 127.457 65.34 128.057 65.34C129.457 65.34 130.531 65.78 131.277 66.66C132.024 67.5267 132.397 68.8533 132.397 70.64C132.397 70.72 132.397 70.8267 132.397 70.96C132.397 71.08 132.391 71.1933 132.377 71.3H125.257C125.337 72.38 125.651 73.2 126.197 73.76C126.744 74.32 127.597 74.6 128.757 74.6C129.411 74.6 129.957 74.5467 130.397 74.44C130.851 74.32 131.191 74.2067 131.417 74.1L131.677 75.66C131.451 75.78 131.051 75.9067 130.477 76.04C129.917 76.1733 129.277 76.24 128.557 76.24C127.651 76.24 126.864 76.1067 126.197 75.84C125.544 75.56 125.004 75.18 124.577 74.7C124.151 74.22 123.831 73.6533 123.617 73C123.417 72.3333 123.317 71.6067 123.317 70.82ZM130.457 69.8C130.471 68.96 130.257 68.2733 129.817 67.74C129.391 67.1933 128.797 66.92 128.037 66.92C127.611 66.92 127.231 67.0067 126.897 67.18C126.577 67.34 126.304 67.5533 126.077 67.82C125.851 68.0867 125.671 68.3933 125.537 68.74C125.417 69.0867 125.337 69.44 125.297 69.8H130.457ZM146.418 67.8C146.191 67.6133 145.865 67.4333 145.438 67.26C145.011 67.0867 144.545 67 144.038 67C143.505 67 143.045 67.1 142.658 67.3C142.285 67.4867 141.978 67.7533 141.738 68.1C141.498 68.4333 141.325 68.8333 141.218 69.3C141.111 69.7667 141.058 70.2667 141.058 70.8C141.058 72.0133 141.358 72.9533 141.958 73.62C142.558 74.2733 143.358 74.6 144.358 74.6C144.865 74.6 145.285 74.58 145.618 74.54C145.965 74.4867 146.231 74.4333 146.418 74.38V67.8ZM146.418 60.8L148.278 60.48V75.7C147.851 75.82 147.305 75.94 146.638 76.06C145.971 76.18 145.205 76.24 144.338 76.24C143.538 76.24 142.818 76.1133 142.178 75.86C141.538 75.6067 140.991 75.2467 140.538 74.78C140.085 74.3133 139.731 73.7467 139.478 73.08C139.238 72.4 139.118 71.64 139.118 70.8C139.118 70 139.218 69.2667 139.418 68.6C139.631 67.9333 139.938 67.36 140.338 66.88C140.738 66.4 141.225 66.0267 141.798 65.76C142.385 65.4933 143.051 65.36 143.798 65.36C144.398 65.36 144.925 65.44 145.378 65.6C145.845 65.76 146.191 65.9133 146.418 66.06V60.8ZM150.895 70.82C150.895 69.9 151.029 69.1 151.295 68.42C151.562 67.7267 151.915 67.1533 152.355 66.7C152.795 66.2467 153.302 65.9067 153.875 65.68C154.449 65.4533 155.035 65.34 155.635 65.34C157.035 65.34 158.109 65.78 158.855 66.66C159.602 67.5267 159.975 68.8533 159.975 70.64C159.975 70.72 159.975 70.8267 159.975 70.96C159.975 71.08 159.969 71.1933 159.955 71.3H152.835C152.915 72.38 153.229 73.2 153.775 73.76C154.322 74.32 155.175 74.6 156.335 74.6C156.989 74.6 157.535 74.5467 157.975 74.44C158.429 74.32 158.769 74.2067 158.995 74.1L159.255 75.66C159.029 75.78 158.629 75.9067 158.055 76.04C157.495 76.1733 156.855 76.24 156.135 76.24C155.229 76.24 154.442 76.1067 153.775 75.84C153.122 75.56 152.582 75.18 152.155 74.7C151.729 74.22 151.409 73.6533 151.195 73C150.995 72.3333 150.895 71.6067 150.895 70.82ZM158.035 69.8C158.049 68.96 157.835 68.2733 157.395 67.74C156.969 67.1933 156.375 66.92 155.615 66.92C155.189 66.92 154.809 67.0067 154.475 67.18C154.155 67.34 153.882 67.5533 153.655 67.82C153.429 68.0867 153.249 68.3933 153.115 68.74C152.995 69.0867 152.915 69.44 152.875 69.8H158.035ZM165.067 74.66C165.827 74.66 166.387 74.56 166.747 74.36C167.121 74.16 167.307 73.84 167.307 73.4C167.307 72.9467 167.127 72.5867 166.767 72.32C166.407 72.0533 165.814 71.7533 164.987 71.42C164.587 71.26 164.201 71.1 163.827 70.94C163.467 70.7667 163.154 70.5667 162.887 70.34C162.621 70.1133 162.407 69.84 162.247 69.52C162.087 69.2 162.007 68.8067 162.007 68.34C162.007 67.42 162.347 66.6933 163.027 66.16C163.707 65.6133 164.634 65.34 165.807 65.34C166.101 65.34 166.394 65.36 166.687 65.4C166.981 65.4267 167.254 65.4667 167.507 65.52C167.761 65.56 167.981 65.6067 168.167 65.66C168.367 65.7133 168.521 65.76 168.627 65.8L168.287 67.4C168.087 67.2933 167.774 67.1867 167.347 67.08C166.921 66.96 166.407 66.9 165.807 66.9C165.287 66.9 164.834 67.0067 164.447 67.22C164.061 67.42 163.867 67.74 163.867 68.18C163.867 68.4067 163.907 68.6067 163.987 68.78C164.081 68.9533 164.214 69.1133 164.387 69.26C164.574 69.3933 164.801 69.52 165.067 69.64C165.334 69.76 165.654 69.8867 166.027 70.02C166.521 70.2067 166.961 70.3933 167.347 70.58C167.734 70.7533 168.061 70.96 168.327 71.2C168.607 71.44 168.821 71.7333 168.967 72.08C169.114 72.4133 169.187 72.8267 169.187 73.32C169.187 74.28 168.827 75.0067 168.107 75.5C167.401 75.9933 166.387 76.24 165.067 76.24C164.147 76.24 163.427 76.16 162.907 76C162.387 75.8533 162.034 75.74 161.847 75.66L162.187 74.06C162.401 74.14 162.741 74.26 163.207 74.42C163.674 74.58 164.294 74.66 165.067 74.66ZM176.093 76.24C175.253 76.24 174.513 76.1067 173.873 75.84C173.246 75.5733 172.713 75.2 172.273 74.72C171.846 74.24 171.526 73.6733 171.313 73.02C171.1 72.3533 170.993 71.62 170.993 70.82C170.993 70.02 171.106 69.2867 171.333 68.62C171.573 67.9533 171.906 67.38 172.333 66.9C172.76 66.4067 173.28 66.0267 173.893 65.76C174.52 65.48 175.213 65.34 175.973 65.34C176.44 65.34 176.906 65.38 177.373 65.46C177.84 65.54 178.286 65.6667 178.713 65.84L178.293 67.42C178.013 67.2867 177.686 67.18 177.313 67.1C176.953 67.02 176.566 66.98 176.153 66.98C175.113 66.98 174.313 67.3067 173.753 67.96C173.206 68.6133 172.933 69.5667 172.933 70.82C172.933 71.38 172.993 71.8933 173.113 72.36C173.246 72.8267 173.446 73.2267 173.713 73.56C173.993 73.8933 174.346 74.1533 174.773 74.34C175.2 74.5133 175.72 74.6 176.333 74.6C176.826 74.6 177.273 74.5533 177.673 74.46C178.073 74.3667 178.386 74.2667 178.613 74.16L178.873 75.72C178.766 75.7867 178.613 75.8533 178.413 75.92C178.213 75.9733 177.986 76.02 177.733 76.06C177.48 76.1133 177.206 76.1533 176.913 76.18C176.633 76.22 176.36 76.24 176.093 76.24ZM189.15 75.7C188.723 75.8067 188.157 75.92 187.45 76.04C186.757 76.16 185.95 76.22 185.03 76.22C184.23 76.22 183.557 76.1067 183.01 75.88C182.463 75.64 182.023 75.3067 181.69 74.88C181.357 74.4533 181.117 73.9533 180.97 73.38C180.823 72.7933 180.75 72.1467 180.75 71.44V65.6H182.61V71.04C182.61 72.3067 182.81 73.2133 183.21 73.76C183.61 74.3067 184.283 74.58 185.23 74.58C185.43 74.58 185.637 74.5733 185.85 74.56C186.063 74.5467 186.263 74.5333 186.45 74.52C186.637 74.4933 186.803 74.4733 186.95 74.46C187.11 74.4333 187.223 74.4067 187.29 74.38V65.6H189.15V75.7ZM191.774 70.82C191.774 69.9 191.908 69.1 192.174 68.42C192.441 67.7267 192.794 67.1533 193.234 66.7C193.674 66.2467 194.181 65.9067 194.754 65.68C195.328 65.4533 195.914 65.34 196.514 65.34C197.914 65.34 198.988 65.78 199.734 66.66C200.481 67.5267 200.854 68.8533 200.854 70.64C200.854 70.72 200.854 70.8267 200.854 70.96C200.854 71.08 200.848 71.1933 200.834 71.3H193.714C193.794 72.38 194.108 73.2 194.654 73.76C195.201 74.32 196.054 74.6 197.214 74.6C197.868 74.6 198.414 74.5467 198.854 74.44C199.308 74.32 199.648 74.2067 199.874 74.1L200.134 75.66C199.908 75.78 199.508 75.9067 198.934 76.04C198.374 76.1733 197.734 76.24 197.014 76.24C196.108 76.24 195.321 76.1067 194.654 75.84C194.001 75.56 193.461 75.18 193.034 74.7C192.608 74.22 192.288 73.6533 192.074 73C191.874 72.3333 191.774 71.6067 191.774 70.82ZM198.914 69.8C198.928 68.96 198.714 68.2733 198.274 67.74C197.848 67.1933 197.254 66.92 196.494 66.92C196.068 66.92 195.688 67.0067 195.354 67.18C195.034 67.34 194.761 67.5533 194.534 67.82C194.308 68.0867 194.128 68.3933 193.994 68.74C193.874 69.0867 193.794 69.44 193.754 69.8H198.914ZM203.526 65.9C203.953 65.7933 204.52 65.68 205.226 65.56C205.933 65.44 206.746 65.38 207.666 65.38C208.493 65.38 209.18 65.5 209.726 65.74C210.273 65.9667 210.706 66.2933 211.026 66.72C211.36 67.1333 211.593 67.6333 211.726 68.22C211.86 68.8067 211.926 69.4533 211.926 70.16V76H210.066V70.56C210.066 69.92 210.02 69.3733 209.926 68.92C209.846 68.4667 209.706 68.1 209.506 67.82C209.306 67.54 209.04 67.34 208.706 67.22C208.373 67.0867 207.96 67.02 207.466 67.02C207.266 67.02 207.06 67.0267 206.846 67.04C206.633 67.0533 206.426 67.0733 206.226 67.1C206.04 67.1133 205.866 67.1333 205.706 67.16C205.56 67.1867 205.453 67.2067 205.386 67.22V76H203.526V65.9ZM216.751 65.6H220.691V67.16H216.751V71.96C216.751 72.48 216.791 72.9133 216.871 73.26C216.951 73.5933 217.071 73.86 217.231 74.06C217.391 74.2467 217.591 74.38 217.831 74.46C218.071 74.54 218.351 74.58 218.671 74.58C219.231 74.58 219.677 74.52 220.011 74.4C220.357 74.2667 220.597 74.1733 220.731 74.12L221.091 75.66C220.904 75.7533 220.577 75.8667 220.111 76C219.644 76.1467 219.111 76.22 218.511 76.22C217.804 76.22 217.217 76.1333 216.751 75.96C216.297 75.7733 215.931 75.5 215.651 75.14C215.371 74.78 215.171 74.34 215.051 73.82C214.944 73.2867 214.891 72.6733 214.891 71.98V62.7L216.751 62.38V65.6ZM231.964 70.8C231.964 71.6267 231.844 72.3733 231.604 73.04C231.364 73.7067 231.024 74.28 230.584 74.76C230.157 75.24 229.644 75.6133 229.044 75.88C228.444 76.1333 227.791 76.26 227.084 76.26C226.377 76.26 225.724 76.1333 225.124 75.88C224.524 75.6133 224.004 75.24 223.564 74.76C223.137 74.28 222.804 73.7067 222.564 73.04C222.324 72.3733 222.204 71.6267 222.204 70.8C222.204 69.9867 222.324 69.2467 222.564 68.58C222.804 67.9 223.137 67.32 223.564 66.84C224.004 66.36 224.524 65.9933 225.124 65.74C225.724 65.4733 226.377 65.34 227.084 65.34C227.791 65.34 228.444 65.4733 229.044 65.74C229.644 65.9933 230.157 66.36 230.584 66.84C231.024 67.32 231.364 67.9 231.604 68.58C231.844 69.2467 231.964 69.9867 231.964 70.8ZM230.024 70.8C230.024 69.6267 229.757 68.7 229.224 68.02C228.704 67.3267 227.991 66.98 227.084 66.98C226.177 66.98 225.457 67.3267 224.924 68.02C224.404 68.7 224.144 69.6267 224.144 70.8C224.144 71.9733 224.404 72.9067 224.924 73.6C225.457 74.28 226.177 74.62 227.084 74.62C227.991 74.62 228.704 74.28 229.224 73.6C229.757 72.9067 230.024 71.9733 230.024 70.8ZM237.001 74.66C237.761 74.66 238.321 74.56 238.681 74.36C239.054 74.16 239.241 73.84 239.241 73.4C239.241 72.9467 239.061 72.5867 238.701 72.32C238.341 72.0533 237.748 71.7533 236.921 71.42C236.521 71.26 236.134 71.1 235.761 70.94C235.401 70.7667 235.088 70.5667 234.821 70.34C234.554 70.1133 234.341 69.84 234.181 69.52C234.021 69.2 233.941 68.8067 233.941 68.34C233.941 67.42 234.281 66.6933 234.961 66.16C235.641 65.6133 236.568 65.34 237.741 65.34C238.034 65.34 238.328 65.36 238.621 65.4C238.914 65.4267 239.188 65.4667 239.441 65.52C239.694 65.56 239.914 65.6067 240.101 65.66C240.301 65.7133 240.454 65.76 240.561 65.8L240.221 67.4C240.021 67.2933 239.708 67.1867 239.281 67.08C238.854 66.96 238.341 66.9 237.741 66.9C237.221 66.9 236.768 67.0067 236.381 67.22C235.994 67.42 235.801 67.74 235.801 68.18C235.801 68.4067 235.841 68.6067 235.921 68.78C236.014 68.9533 236.148 69.1133 236.321 69.26C236.508 69.3933 236.734 69.52 237.001 69.64C237.268 69.76 237.588 69.8867 237.961 70.02C238.454 70.2067 238.894 70.3933 239.281 70.58C239.668 70.7533 239.994 70.96 240.261 71.2C240.541 71.44 240.754 71.7333 240.901 72.08C241.048 72.4133 241.121 72.8267 241.121 73.32C241.121 74.28 240.761 75.0067 240.041 75.5C239.334 75.9933 238.321 76.24 237.001 76.24C236.081 76.24 235.361 76.16 234.841 76C234.321 75.8533 233.968 75.74 233.781 75.66L234.121 74.06C234.334 74.14 234.674 74.26 235.141 74.42C235.608 74.58 236.228 74.66 237.001 74.66ZM21.4205 100.02C21.4205 101.727 21.6672 103.307 22.1605 104.76C22.6538 106.213 23.3805 107.56 24.3405 108.8L23.0205 109.7C21.9805 108.433 21.1405 106.98 20.5005 105.34C19.8738 103.687 19.5605 101.913 19.5605 100.02C19.5605 98.1267 19.8738 96.36 20.5005 94.72C21.1405 93.0667 21.9805 91.6067 23.0205 90.34L24.3405 91.24C23.3805 92.48 22.6538 93.8267 22.1605 95.28C21.6672 96.7333 21.4205 98.3133 21.4205 100.02ZM29.9249 95.38C30.0849 95.38 30.2649 95.3933 30.4649 95.42C30.6782 95.4333 30.8849 95.46 31.0849 95.5C31.2849 95.5267 31.4649 95.56 31.6249 95.6C31.7982 95.6267 31.9249 95.6533 32.0049 95.68L31.6849 97.3C31.5382 97.2467 31.2915 97.1867 30.9449 97.12C30.6115 97.04 30.1782 97 29.6449 97C29.2982 97 28.9515 97.04 28.6049 97.12C28.2715 97.1867 28.0515 97.2333 27.9449 97.26V106H26.0849V96.04C26.5249 95.88 27.0715 95.7333 27.7249 95.6C28.3782 95.4533 29.1115 95.38 29.9249 95.38ZM33.2197 100.82C33.2197 99.9 33.353 99.1 33.6197 98.42C33.8864 97.7267 34.2397 97.1533 34.6797 96.7C35.1197 96.2467 35.6264 95.9067 36.1997 95.68C36.773 95.4533 37.3597 95.34 37.9597 95.34C39.3597 95.34 40.433 95.78 41.1797 96.66C41.9264 97.5267 42.2997 98.8533 42.2997 100.64C42.2997 100.72 42.2997 100.827 42.2997 100.96C42.2997 101.08 42.293 101.193 42.2797 101.3H35.1597C35.2397 102.38 35.553 103.2 36.0997 103.76C36.6464 104.32 37.4997 104.6 38.6597 104.6C39.313 104.6 39.8597 104.547 40.2997 104.44C40.753 104.32 41.093 104.207 41.3197 104.1L41.5797 105.66C41.353 105.78 40.953 105.907 40.3797 106.04C39.8197 106.173 39.1797 106.24 38.4597 106.24C37.553 106.24 36.7664 106.107 36.0997 105.84C35.4464 105.56 34.9064 105.18 34.4797 104.7C34.053 104.22 33.733 103.653 33.5197 103C33.3197 102.333 33.2197 101.607 33.2197 100.82ZM40.3597 99.8C40.373 98.96 40.1597 98.2733 39.7197 97.74C39.293 97.1933 38.6997 96.92 37.9397 96.92C37.513 96.92 37.133 97.0067 36.7997 97.18C36.4797 97.34 36.2064 97.5533 35.9797 97.82C35.753 98.0867 35.573 98.3933 35.4397 98.74C35.3197 99.0867 35.2397 99.44 35.1997 99.8H40.3597ZM47.3916 104.66C48.1516 104.66 48.7116 104.56 49.0716 104.36C49.4449 104.16 49.6316 103.84 49.6316 103.4C49.6316 102.947 49.4516 102.587 49.0916 102.32C48.7316 102.053 48.1382 101.753 47.3116 101.42C46.9116 101.26 46.5249 101.1 46.1516 100.94C45.7916 100.767 45.4782 100.567 45.2116 100.34C44.9449 100.113 44.7316 99.84 44.5716 99.52C44.4116 99.2 44.3316 98.8067 44.3316 98.34C44.3316 97.42 44.6716 96.6933 45.3516 96.16C46.0316 95.6133 46.9582 95.34 48.1316 95.34C48.4249 95.34 48.7182 95.36 49.0116 95.4C49.3049 95.4267 49.5782 95.4667 49.8316 95.52C50.0849 95.56 50.3049 95.6067 50.4916 95.66C50.6916 95.7133 50.8449 95.76 50.9516 95.8L50.6116 97.4C50.4116 97.2933 50.0982 97.1867 49.6716 97.08C49.2449 96.96 48.7316 96.9 48.1316 96.9C47.6116 96.9 47.1582 97.0067 46.7716 97.22C46.3849 97.42 46.1916 97.74 46.1916 98.18C46.1916 98.4067 46.2316 98.6067 46.3116 98.78C46.4049 98.9533 46.5382 99.1133 46.7116 99.26C46.8982 99.3933 47.1249 99.52 47.3916 99.64C47.6582 99.76 47.9782 99.8867 48.3516 100.02C48.8449 100.207 49.2849 100.393 49.6716 100.58C50.0582 100.753 50.3849 100.96 50.6516 101.2C50.9316 101.44 51.1449 101.733 51.2916 102.08C51.4382 102.413 51.5116 102.827 51.5116 103.32C51.5116 104.28 51.1516 105.007 50.4316 105.5C49.7249 105.993 48.7116 106.24 47.3916 106.24C46.4716 106.24 45.7516 106.16 45.2316 106C44.7116 105.853 44.3582 105.74 44.1716 105.66L44.5116 104.06C44.7249 104.14 45.0649 104.26 45.5316 104.42C45.9982 104.58 46.6182 104.66 47.3916 104.66ZM53.3174 100.82C53.3174 99.9 53.4507 99.1 53.7174 98.42C53.984 97.7267 54.3374 97.1533 54.7774 96.7C55.2174 96.2467 55.724 95.9067 56.2974 95.68C56.8707 95.4533 57.4574 95.34 58.0574 95.34C59.4574 95.34 60.5307 95.78 61.2774 96.66C62.024 97.5267 62.3974 98.8533 62.3974 100.64C62.3974 100.72 62.3974 100.827 62.3974 100.96C62.3974 101.08 62.3907 101.193 62.3774 101.3H55.2574C55.3374 102.38 55.6507 103.2 56.1974 103.76C56.744 104.32 57.5974 104.6 58.7574 104.6C59.4107 104.6 59.9574 104.547 60.3974 104.44C60.8507 104.32 61.1907 104.207 61.4174 104.1L61.6774 105.66C61.4507 105.78 61.0507 105.907 60.4774 106.04C59.9174 106.173 59.2774 106.24 58.5574 106.24C57.6507 106.24 56.864 106.107 56.1974 105.84C55.544 105.56 55.004 105.18 54.5774 104.7C54.1507 104.22 53.8307 103.653 53.6174 103C53.4174 102.333 53.3174 101.607 53.3174 100.82ZM60.4574 99.8C60.4707 98.96 60.2574 98.2733 59.8174 97.74C59.3907 97.1933 58.7974 96.92 58.0374 96.92C57.6107 96.92 57.2307 97.0067 56.8974 97.18C56.5774 97.34 56.304 97.5533 56.0774 97.82C55.8507 98.0867 55.6707 98.3933 55.5374 98.74C55.4174 99.0867 55.3374 99.44 55.2974 99.8H60.4574ZM68.9092 95.38C69.0692 95.38 69.2492 95.3933 69.4492 95.42C69.6626 95.4333 69.8692 95.46 70.0692 95.5C70.2692 95.5267 70.4492 95.56 70.6092 95.6C70.7826 95.6267 70.9092 95.6533 70.9892 95.68L70.6692 97.3C70.5226 97.2467 70.2759 97.1867 69.9292 97.12C69.5959 97.04 69.1626 97 68.6292 97C68.2826 97 67.9359 97.04 67.5892 97.12C67.2559 97.1867 67.0359 97.2333 66.9292 97.26V106H65.0692V96.04C65.5092 95.88 66.0559 95.7333 66.7092 95.6C67.3626 95.4533 68.0959 95.38 68.9092 95.38ZM81.3338 95.6C80.8138 97.5467 80.2004 99.4133 79.4938 101.2C78.8004 102.987 78.1271 104.587 77.4738 106H75.7938C75.1404 104.587 74.4604 102.987 73.7538 101.2C73.0604 99.4133 72.4538 97.5467 71.9338 95.6H73.9338C74.0938 96.2533 74.2804 96.9533 74.4938 97.7C74.7204 98.4333 74.9538 99.1667 75.1938 99.9C75.4471 100.62 75.7004 101.32 75.9538 102C76.2071 102.68 76.4471 103.287 76.6738 103.82C76.9004 103.287 77.1404 102.68 77.3938 102C77.6471 101.32 77.8938 100.62 78.1338 99.9C78.3871 99.1667 78.6204 98.4333 78.8338 97.7C79.0604 96.9533 79.2538 96.2533 79.4138 95.6H81.3338ZM86.7728 104.66C87.2128 104.66 87.5995 104.653 87.9328 104.64C88.2795 104.613 88.5662 104.573 88.7928 104.52V101.42C88.6595 101.353 88.4395 101.3 88.1328 101.26C87.8395 101.207 87.4795 101.18 87.0528 101.18C86.7728 101.18 86.4728 101.2 86.1528 101.24C85.8462 101.28 85.5595 101.367 85.2928 101.5C85.0395 101.62 84.8262 101.793 84.6528 102.02C84.4795 102.233 84.3928 102.52 84.3928 102.88C84.3928 103.547 84.6062 104.013 85.0328 104.28C85.4595 104.533 86.0395 104.66 86.7728 104.66ZM86.6128 95.34C87.3595 95.34 87.9862 95.44 88.4928 95.64C89.0128 95.8267 89.4262 96.1 89.7328 96.46C90.0528 96.8067 90.2795 97.2267 90.4128 97.72C90.5462 98.2 90.6128 98.7333 90.6128 99.32V105.82C90.4528 105.847 90.2262 105.887 89.9328 105.94C89.6528 105.98 89.3328 106.02 88.9728 106.06C88.6128 106.1 88.2195 106.133 87.7928 106.16C87.3795 106.2 86.9662 106.22 86.5528 106.22C85.9662 106.22 85.4262 106.16 84.9328 106.04C84.4395 105.92 84.0128 105.733 83.6528 105.48C83.2928 105.213 83.0128 104.867 82.8128 104.44C82.6128 104.013 82.5128 103.5 82.5128 102.9C82.5128 102.327 82.6262 101.833 82.8528 101.42C83.0928 101.007 83.4128 100.673 83.8128 100.42C84.2128 100.167 84.6795 99.98 85.2128 99.86C85.7462 99.74 86.3062 99.68 86.8928 99.68C87.0795 99.68 87.2728 99.6933 87.4728 99.72C87.6728 99.7333 87.8595 99.76 88.0328 99.8C88.2195 99.8267 88.3795 99.8533 88.5128 99.88C88.6462 99.9067 88.7395 99.9267 88.7928 99.94V99.42C88.7928 99.1133 88.7595 98.8133 88.6928 98.52C88.6262 98.2133 88.5062 97.9467 88.3328 97.72C88.1595 97.48 87.9195 97.2933 87.6128 97.16C87.3195 97.0133 86.9328 96.94 86.4528 96.94C85.8395 96.94 85.2995 96.9867 84.8328 97.08C84.3795 97.16 84.0395 97.2467 83.8128 97.34L83.5928 95.8C83.8328 95.6933 84.2328 95.5933 84.7928 95.5C85.3528 95.3933 85.9595 95.34 86.6128 95.34ZM93.7021 95.9C94.1287 95.7933 94.6954 95.68 95.4021 95.56C96.1087 95.44 96.9221 95.38 97.8421 95.38C98.6687 95.38 99.3554 95.5 99.9021 95.74C100.449 95.9667 100.882 96.2933 101.202 96.72C101.535 97.1333 101.769 97.6333 101.902 98.22C102.035 98.8067 102.102 99.4533 102.102 100.16V106H100.242V100.56C100.242 99.92 100.195 99.3733 100.102 98.92C100.022 98.4667 99.8821 98.1 99.6821 97.82C99.4821 97.54 99.2154 97.34 98.8821 97.22C98.5487 97.0867 98.1354 97.02 97.6421 97.02C97.4421 97.02 97.2354 97.0267 97.0221 97.04C96.8087 97.0533 96.6021 97.0733 96.4021 97.1C96.2154 97.1133 96.0421 97.1333 95.8821 97.16C95.7354 97.1867 95.6287 97.2067 95.5621 97.22V106H93.7021V95.9ZM111.906 97.8C111.68 97.6133 111.353 97.4333 110.926 97.26C110.5 97.0867 110.033 97 109.526 97C108.993 97 108.533 97.1 108.146 97.3C107.773 97.4867 107.466 97.7533 107.226 98.1C106.986 98.4333 106.813 98.8333 106.706 99.3C106.6 99.7667 106.546 100.267 106.546 100.8C106.546 102.013 106.846 102.953 107.446 103.62C108.046 104.273 108.846 104.6 109.846 104.6C110.353 104.6 110.773 104.58 111.106 104.54C111.453 104.487 111.72 104.433 111.906 104.38V97.8ZM111.906 90.8L113.766 90.48V105.7C113.34 105.82 112.793 105.94 112.126 106.06C111.46 106.18 110.693 106.24 109.826 106.24C109.026 106.24 108.306 106.113 107.666 105.86C107.026 105.607 106.48 105.247 106.026 104.78C105.573 104.313 105.22 103.747 104.966 103.08C104.726 102.4 104.606 101.64 104.606 100.8C104.606 100 104.706 99.2667 104.906 98.6C105.12 97.9333 105.426 97.36 105.826 96.88C106.226 96.4 106.713 96.0267 107.286 95.76C107.873 95.4933 108.54 95.36 109.286 95.36C109.886 95.36 110.413 95.44 110.866 95.6C111.333 95.76 111.68 95.9133 111.906 96.06V90.8ZM126.144 100.8C126.144 101.627 126.024 102.373 125.784 103.04C125.544 103.707 125.204 104.28 124.764 104.76C124.337 105.24 123.824 105.613 123.224 105.88C122.624 106.133 121.97 106.26 121.264 106.26C120.557 106.26 119.904 106.133 119.304 105.88C118.704 105.613 118.184 105.24 117.744 104.76C117.317 104.28 116.984 103.707 116.744 103.04C116.504 102.373 116.384 101.627 116.384 100.8C116.384 99.9867 116.504 99.2467 116.744 98.58C116.984 97.9 117.317 97.32 117.744 96.84C118.184 96.36 118.704 95.9933 119.304 95.74C119.904 95.4733 120.557 95.34 121.264 95.34C121.97 95.34 122.624 95.4733 123.224 95.74C123.824 95.9933 124.337 96.36 124.764 96.84C125.204 97.32 125.544 97.9 125.784 98.58C126.024 99.2467 126.144 99.9867 126.144 100.8ZM124.204 100.8C124.204 99.6267 123.937 98.7 123.404 98.02C122.884 97.3267 122.17 96.98 121.264 96.98C120.357 96.98 119.637 97.3267 119.104 98.02C118.584 98.7 118.324 99.6267 118.324 100.8C118.324 101.973 118.584 102.907 119.104 103.6C119.637 104.28 120.357 104.62 121.264 104.62C122.17 104.62 122.884 104.28 123.404 103.6C123.937 102.907 124.204 101.973 124.204 100.8ZM141.13 95.68C141.13 96.16 141.03 96.6267 140.83 97.08C140.643 97.52 140.39 97.96 140.07 98.4C139.75 98.8267 139.39 99.2533 138.99 99.68C138.59 100.093 138.19 100.5 137.79 100.9C137.563 101.127 137.296 101.393 136.99 101.7C136.696 102.007 136.416 102.327 136.15 102.66C135.883 102.993 135.656 103.313 135.47 103.62C135.296 103.927 135.21 104.193 135.21 104.42H141.59V106H133.19C133.176 105.92 133.17 105.84 133.17 105.76C133.17 105.68 133.17 105.607 133.17 105.54C133.17 104.913 133.27 104.333 133.47 103.8C133.683 103.253 133.956 102.74 134.29 102.26C134.623 101.78 134.996 101.327 135.41 100.9C135.823 100.473 136.23 100.06 136.63 99.66C136.963 99.34 137.276 99.0267 137.57 98.72C137.876 98.4 138.143 98.0867 138.37 97.78C138.61 97.46 138.796 97.1333 138.93 96.8C139.076 96.4667 139.15 96.1133 139.15 95.74C139.15 95.34 139.083 95 138.95 94.72C138.83 94.44 138.663 94.2067 138.45 94.02C138.236 93.8333 137.983 93.7 137.69 93.62C137.41 93.5267 137.11 93.48 136.79 93.48C136.403 93.48 136.05 93.5333 135.73 93.64C135.41 93.7467 135.123 93.8733 134.87 94.02C134.616 94.1533 134.403 94.3 134.23 94.46C134.056 94.6067 133.923 94.72 133.83 94.8L132.91 93.48C133.03 93.3467 133.21 93.1867 133.45 93C133.69 92.8 133.976 92.6133 134.31 92.44C134.643 92.2667 135.016 92.12 135.43 92C135.843 91.88 136.29 91.82 136.77 91.82C138.223 91.82 139.31 92.16 140.03 92.84C140.763 93.5067 141.13 94.4533 141.13 95.68ZM156.028 97.8C155.801 97.6133 155.474 97.4333 155.048 97.26C154.621 97.0867 154.154 97 153.648 97C153.114 97 152.654 97.1 152.268 97.3C151.894 97.4867 151.588 97.7533 151.348 98.1C151.108 98.4333 150.934 98.8333 150.828 99.3C150.721 99.7667 150.668 100.267 150.668 100.8C150.668 102.013 150.968 102.953 151.568 103.62C152.168 104.273 152.968 104.6 153.968 104.6C154.474 104.6 154.894 104.58 155.228 104.54C155.574 104.487 155.841 104.433 156.028 104.38V97.8ZM156.028 90.8L157.888 90.48V105.7C157.461 105.82 156.914 105.94 156.248 106.06C155.581 106.18 154.814 106.24 153.948 106.24C153.148 106.24 152.428 106.113 151.788 105.86C151.148 105.607 150.601 105.247 150.148 104.78C149.694 104.313 149.341 103.747 149.088 103.08C148.848 102.4 148.728 101.64 148.728 100.8C148.728 100 148.828 99.2667 149.028 98.6C149.241 97.9333 149.548 97.36 149.948 96.88C150.348 96.4 150.834 96.0267 151.408 95.76C151.994 95.4933 152.661 95.36 153.408 95.36C154.008 95.36 154.534 95.44 154.988 95.6C155.454 95.76 155.801 95.9133 156.028 96.06V90.8ZM162.945 106H161.085V95.6H162.945V106ZM164.445 91.66L161.625 94.4L160.685 93.56L163.245 90.48L164.445 91.66ZM169.663 104.66C170.103 104.66 170.49 104.653 170.823 104.64C171.17 104.613 171.457 104.573 171.683 104.52V101.42C171.55 101.353 171.33 101.3 171.023 101.26C170.73 101.207 170.37 101.18 169.943 101.18C169.663 101.18 169.363 101.2 169.043 101.24C168.737 101.28 168.45 101.367 168.183 101.5C167.93 101.62 167.717 101.793 167.543 102.02C167.37 102.233 167.283 102.52 167.283 102.88C167.283 103.547 167.497 104.013 167.923 104.28C168.35 104.533 168.93 104.66 169.663 104.66ZM169.503 95.34C170.25 95.34 170.877 95.44 171.383 95.64C171.903 95.8267 172.317 96.1 172.623 96.46C172.943 96.8067 173.17 97.2267 173.303 97.72C173.437 98.2 173.503 98.7333 173.503 99.32V105.82C173.343 105.847 173.117 105.887 172.823 105.94C172.543 105.98 172.223 106.02 171.863 106.06C171.503 106.1 171.11 106.133 170.683 106.16C170.27 106.2 169.857 106.22 169.443 106.22C168.857 106.22 168.317 106.16 167.823 106.04C167.33 105.92 166.903 105.733 166.543 105.48C166.183 105.213 165.903 104.867 165.703 104.44C165.503 104.013 165.403 103.5 165.403 102.9C165.403 102.327 165.517 101.833 165.743 101.42C165.983 101.007 166.303 100.673 166.703 100.42C167.103 100.167 167.57 99.98 168.103 99.86C168.637 99.74 169.197 99.68 169.783 99.68C169.97 99.68 170.163 99.6933 170.363 99.72C170.563 99.7333 170.75 99.76 170.923 99.8C171.11 99.8267 171.27 99.8533 171.403 99.88C171.537 99.9067 171.63 99.9267 171.683 99.94V99.42C171.683 99.1133 171.65 98.8133 171.583 98.52C171.517 98.2133 171.397 97.9467 171.223 97.72C171.05 97.48 170.81 97.2933 170.503 97.16C170.21 97.0133 169.823 96.94 169.343 96.94C168.73 96.94 168.19 96.9867 167.723 97.08C167.27 97.16 166.93 97.2467 166.703 97.34L166.483 95.8C166.723 95.6933 167.123 95.5933 167.683 95.5C168.243 95.3933 168.85 95.34 169.503 95.34ZM179.013 104.66C179.773 104.66 180.333 104.56 180.693 104.36C181.066 104.16 181.253 103.84 181.253 103.4C181.253 102.947 181.073 102.587 180.713 102.32C180.353 102.053 179.759 101.753 178.933 101.42C178.533 101.26 178.146 101.1 177.773 100.94C177.413 100.767 177.099 100.567 176.833 100.34C176.566 100.113 176.353 99.84 176.193 99.52C176.033 99.2 175.953 98.8067 175.953 98.34C175.953 97.42 176.293 96.6933 176.973 96.16C177.653 95.6133 178.579 95.34 179.753 95.34C180.046 95.34 180.339 95.36 180.633 95.4C180.926 95.4267 181.199 95.4667 181.453 95.52C181.706 95.56 181.926 95.6067 182.113 95.66C182.313 95.7133 182.466 95.76 182.573 95.8L182.233 97.4C182.033 97.2933 181.719 97.1867 181.293 97.08C180.866 96.96 180.353 96.9 179.753 96.9C179.233 96.9 178.779 97.0067 178.393 97.22C178.006 97.42 177.813 97.74 177.813 98.18C177.813 98.4067 177.853 98.6067 177.933 98.78C178.026 98.9533 178.159 99.1133 178.333 99.26C178.519 99.3933 178.746 99.52 179.013 99.64C179.279 99.76 179.599 99.8867 179.973 100.02C180.466 100.207 180.906 100.393 181.293 100.58C181.679 100.753 182.006 100.96 182.273 101.2C182.553 101.44 182.766 101.733 182.913 102.08C183.059 102.413 183.133 102.827 183.133 103.32C183.133 104.28 182.773 105.007 182.053 105.5C181.346 105.993 180.333 106.24 179.013 106.24C178.093 106.24 177.373 106.16 176.853 106C176.333 105.853 175.979 105.74 175.793 105.66L176.133 104.06C176.346 104.14 176.686 104.26 177.153 104.42C177.619 104.58 178.239 104.66 179.013 104.66ZM199.327 100.8C199.327 101.627 199.207 102.373 198.967 103.04C198.727 103.707 198.387 104.28 197.947 104.76C197.521 105.24 197.007 105.613 196.407 105.88C195.807 106.133 195.154 106.26 194.447 106.26C193.741 106.26 193.087 106.133 192.487 105.88C191.887 105.613 191.367 105.24 190.927 104.76C190.501 104.28 190.167 103.707 189.927 103.04C189.687 102.373 189.567 101.627 189.567 100.8C189.567 99.9867 189.687 99.2467 189.927 98.58C190.167 97.9 190.501 97.32 190.927 96.84C191.367 96.36 191.887 95.9933 192.487 95.74C193.087 95.4733 193.741 95.34 194.447 95.34C195.154 95.34 195.807 95.4733 196.407 95.74C197.007 95.9933 197.521 96.36 197.947 96.84C198.387 97.32 198.727 97.9 198.967 98.58C199.207 99.2467 199.327 99.9867 199.327 100.8ZM197.387 100.8C197.387 99.6267 197.121 98.7 196.587 98.02C196.067 97.3267 195.354 96.98 194.447 96.98C193.541 96.98 192.821 97.3267 192.287 98.02C191.767 98.7 191.507 99.6267 191.507 100.8C191.507 101.973 191.767 102.907 192.287 103.6C192.821 104.28 193.541 104.62 194.447 104.62C195.354 104.62 196.067 104.28 196.587 103.6C197.121 102.907 197.387 101.973 197.387 100.8ZM206.573 95.9C207 95.7933 207.56 95.68 208.253 95.56C208.96 95.44 209.773 95.38 210.693 95.38C211.36 95.38 211.92 95.4733 212.373 95.66C212.826 95.8333 213.206 96.0933 213.513 96.44C213.606 96.3733 213.753 96.28 213.953 96.16C214.153 96.04 214.4 95.9267 214.693 95.82C214.986 95.7 215.313 95.6 215.673 95.52C216.033 95.4267 216.42 95.38 216.833 95.38C217.633 95.38 218.286 95.5 218.793 95.74C219.3 95.9667 219.693 96.2933 219.973 96.72C220.266 97.1467 220.46 97.6533 220.553 98.24C220.66 98.8267 220.713 99.4667 220.713 100.16V106H218.853V100.56C218.853 99.9467 218.82 99.42 218.753 98.98C218.7 98.54 218.586 98.1733 218.413 97.88C218.253 97.5867 218.026 97.3733 217.733 97.24C217.453 97.0933 217.086 97.02 216.633 97.02C216.006 97.02 215.486 97.1067 215.073 97.28C214.673 97.44 214.4 97.5867 214.253 97.72C214.36 98.0667 214.44 98.4467 214.493 98.86C214.546 99.2733 214.573 99.7067 214.573 100.16V106H212.713V100.56C212.713 99.9467 212.68 99.42 212.613 98.98C212.546 98.54 212.426 98.1733 212.253 97.88C212.093 97.5867 211.866 97.3733 211.573 97.24C211.293 97.0933 210.933 97.02 210.493 97.02C210.306 97.02 210.106 97.0267 209.893 97.04C209.68 97.0533 209.473 97.0733 209.273 97.1C209.086 97.1133 208.913 97.1333 208.753 97.16C208.593 97.1867 208.486 97.2067 208.433 97.22V106H206.573V95.9ZM227.32 104.66C227.76 104.66 228.146 104.653 228.48 104.64C228.826 104.613 229.113 104.573 229.34 104.52V101.42C229.206 101.353 228.986 101.3 228.68 101.26C228.386 101.207 228.026 101.18 227.6 101.18C227.32 101.18 227.02 101.2 226.7 101.24C226.393 101.28 226.106 101.367 225.84 101.5C225.586 101.62 225.373 101.793 225.2 102.02C225.026 102.233 224.94 102.52 224.94 102.88C224.94 103.547 225.153 104.013 225.58 104.28C226.006 104.533 226.586 104.66 227.32 104.66ZM227.16 95.34C227.906 95.34 228.533 95.44 229.04 95.64C229.56 95.8267 229.973 96.1 230.28 96.46C230.6 96.8067 230.826 97.2267 230.96 97.72C231.093 98.2 231.16 98.7333 231.16 99.32V105.82C231 105.847 230.773 105.887 230.48 105.94C230.2 105.98 229.88 106.02 229.52 106.06C229.16 106.1 228.766 106.133 228.34 106.16C227.926 106.2 227.513 106.22 227.1 106.22C226.513 106.22 225.973 106.16 225.48 106.04C224.986 105.92 224.56 105.733 224.2 105.48C223.84 105.213 223.56 104.867 223.36 104.44C223.16 104.013 223.06 103.5 223.06 102.9C223.06 102.327 223.173 101.833 223.4 101.42C223.64 101.007 223.96 100.673 224.36 100.42C224.76 100.167 225.226 99.98 225.76 99.86C226.293 99.74 226.853 99.68 227.44 99.68C227.626 99.68 227.82 99.6933 228.02 99.72C228.22 99.7333 228.406 99.76 228.58 99.8C228.766 99.8267 228.926 99.8533 229.06 99.88C229.193 99.9067 229.286 99.9267 229.34 99.94V99.42C229.34 99.1133 229.306 98.8133 229.24 98.52C229.173 98.2133 229.053 97.9467 228.88 97.72C228.706 97.48 228.466 97.2933 228.16 97.16C227.866 97.0133 227.48 96.94 227 96.94C226.386 96.94 225.846 96.9867 225.38 97.08C224.926 97.16 224.586 97.2467 224.36 97.34L224.14 95.8C224.38 95.6933 224.78 95.5933 225.34 95.5C225.9 95.3933 226.506 95.34 227.16 95.34ZM229.88 91.66L227.06 94.4L226.12 93.56L228.68 90.48L229.88 91.66ZM236.669 104.66C237.429 104.66 237.989 104.56 238.349 104.36C238.722 104.16 238.909 103.84 238.909 103.4C238.909 102.947 238.729 102.587 238.369 102.32C238.009 102.053 237.416 101.753 236.589 101.42C236.189 101.26 235.802 101.1 235.429 100.94C235.069 100.767 234.756 100.567 234.489 100.34C234.222 100.113 234.009 99.84 233.849 99.52C233.689 99.2 233.609 98.8067 233.609 98.34C233.609 97.42 233.949 96.6933 234.629 96.16C235.309 95.6133 236.236 95.34 237.409 95.34C237.702 95.34 237.996 95.36 238.289 95.4C238.582 95.4267 238.856 95.4667 239.109 95.52C239.362 95.56 239.582 95.6067 239.769 95.66C239.969 95.7133 240.122 95.76 240.229 95.8L239.889 97.4C239.689 97.2933 239.376 97.1867 238.949 97.08C238.522 96.96 238.009 96.9 237.409 96.9C236.889 96.9 236.436 97.0067 236.049 97.22C235.662 97.42 235.469 97.74 235.469 98.18C235.469 98.4067 235.509 98.6067 235.589 98.78C235.682 98.9533 235.816 99.1133 235.989 99.26C236.176 99.3933 236.402 99.52 236.669 99.64C236.936 99.76 237.256 99.8867 237.629 100.02C238.122 100.207 238.562 100.393 238.949 100.58C239.336 100.753 239.662 100.96 239.929 101.2C240.209 101.44 240.422 101.733 240.569 102.08C240.716 102.413 240.789 102.827 240.789 103.32C240.789 104.28 240.429 105.007 239.709 105.5C239.002 105.993 237.989 106.24 236.669 106.24C235.749 106.24 235.029 106.16 234.509 106C233.989 105.853 233.636 105.74 233.449 105.66L233.789 104.06C234.002 104.14 234.342 104.26 234.809 104.42C235.276 104.58 235.896 104.66 236.669 104.66ZM244.635 100.02C244.635 98.3133 244.388 96.7333 243.895 95.28C243.401 93.8267 242.675 92.48 241.715 91.24L243.035 90.34C244.075 91.6067 244.908 93.0667 245.535 94.72C246.175 96.36 246.495 98.1267 246.495 100.02C246.495 101.913 246.175 103.687 245.535 105.34C244.908 106.98 244.075 108.433 243.035 109.7L241.715 108.8C242.675 107.56 243.401 106.213 243.895 104.76C244.388 103.307 244.635 101.727 244.635 100.02Z" fill="#004091"/>
</svg>
