<svg xmlns="http://www.w3.org/2000/svg" width="48" height="48" fill="none"><path fill="#fff" fill-rule="evenodd" d="M7 24a17 17 0 1 1 7.92 14.37 2 2 0 0 0-1.65-.22l-5.76 1.71 2.17-5.07a2 2 0 0 0-.14-1.84A16.91 16.91 0 0 1 7 24ZM24 3A21 21 0 0 0 5.61 34.15L2.16 42.2a2 2 0 0 0 2.41 2.7l9-2.68A21 21 0 1 0 24 3Zm4.59 25.36-2.63 1.86A18.68 18.68 0 0 1 22 27.17a20.4 20.4 0 0 1-3.25-4.23l1.67-1.42a2 2 0 0 0 .47-2.46l-2.12-4a2 2 0 0 0-3.08-.57l-.64.55a5.32 5.32 0 0 0-1.67 5.7 24.1 24.1 0 0 0 5.8 9.26 20.92 20.92 0 0 0 9.46 5.61 5.15 5.15 0 0 0 4.53-1.1l1.19-.96a2 2 0 0 0-.24-3.27l-3.36-2a2 2 0 0 0-2.18.08Z" clip-rule="evenodd"/></svg>